<svg width="15" height="17" viewBox="0 0 15 17" fill="none" xmlns="http://www.w3.org/2000/svg">
<path d="M13.6906 3.905C12.8583 3.72698 12.1047 3.28779 11.5396 2.65146C10.9745 2.01513 10.6274 1.21492 10.5489 0.3675V0H7.67807V11.3933C7.67629 11.8977 7.51652 12.3889 7.2212 12.7978C6.92588 13.2067 6.50987 13.5128 6.03161 13.6731C5.55335 13.8334 5.03689 13.8398 4.55481 13.6914C4.07273 13.543 3.64926 13.2473 3.3439 12.8458C3.0338 12.4377 2.86178 11.9413 2.85279 11.4288C2.84379 10.9162 2.99829 10.4142 3.29387 9.99534C3.58946 9.57652 4.01076 9.26275 4.49669 9.09951C4.98262 8.93628 5.50792 8.93207 5.9964 9.0875V6.17083C4.90711 6.02025 3.798 6.21391 2.82419 6.72472C1.85039 7.23554 1.0606 8.03795 0.5653 9.01974C0.0699997 10.0015 -0.10604 11.1136 0.0618043 12.2003C0.229649 13.2871 0.732982 14.2942 1.5014 15.0808C2.2342 15.8306 3.17381 16.345 4.20028 16.5584C5.22676 16.7718 6.29353 16.6745 7.26444 16.2789C8.23535 15.8832 9.06635 15.2073 9.65135 14.3372C10.2364 13.4672 10.5488 12.4426 10.5489 11.3942V5.5725C11.7091 6.40195 13.1002 6.8467 14.5264 6.84417V3.99167C14.2455 3.99201 13.9654 3.96297 13.6906 3.905Z" fill="#33BB99"/>
</svg>
