<svg width="164" height="80" viewBox="0 0 164 80" fill="none" xmlns="http://www.w3.org/2000/svg">
<g clip-path="url(#clip0_791_3783)">
<path d="M107.023 30.463C107.065 30.4371 107.091 30.4215 107.091 30.4111C107.07 30.4267 107.044 30.4474 107.023 30.463Z" fill="white"/>
<path d="M108.057 25.0999C107.579 26.3758 107.096 27.6881 106.608 28.9641C105.009 33.1291 103.015 37.1904 101.78 41.511C100.715 41.4799 99.4691 41.8222 98.6332 41.0338C96.0061 36.8065 94.6094 29.8873 92.0238 25.9246C91.4527 25.048 90.5545 25.0013 90.1963 24.1403C91.5046 24.4049 95.5751 23.715 96.3903 24.2181C96.9873 24.5864 100.887 35.5825 101.785 37.1644C102.408 37.6364 106.021 28.461 106.032 27.6622C106.058 26.0283 103.841 26.6663 104.199 25.1051C105.424 25.2192 106.873 24.9339 108.057 25.0999C108.716 23.3416 111.551 16.4535 111.431 15.2294C111.213 12.9524 104.282 6.94601 102.221 5.59744C76.9983 -10.9278 45.2286 11.6245 51.9003 40.9456C55.9189 58.6171 74.6152 69.4576 92.1277 65.1681C92.6832 65.5882 87.4134 76.631 87.0395 78.187C86.4632 80.6041 87.647 80.5626 88.6387 78.3271C93.7372 66.7864 97.7506 53.4355 102.262 41.511C103.56 38.0773 104.978 34.6903 106.239 31.2255C106.364 30.8832 106.66 30.6757 106.868 30.5512C106.868 30.5512 106.871 30.5495 106.878 30.5461C106.878 30.5461 106.93 30.5149 106.951 30.5046C106.971 30.4942 106.992 30.4838 107.008 30.4734C107.008 30.4734 107.018 30.4631 107.023 30.4631C107.044 30.4475 107.07 30.4268 107.091 30.4112C108.228 32.2214 111.514 31.7338 111.909 29.6695C112.439 26.9101 110.59 25.4578 108.057 25.0999ZM72.8187 44.203C72.4761 44.4934 72.2113 43.9229 72.0919 43.9229H56.4018C56.2771 43.0722 56.3706 42.8648 56.9054 42.2527C58.5305 40.3751 61.8014 38.4663 63.3694 36.1686C65.9913 32.3355 66.9259 22.2627 60.1296 23.7461C58.8576 24.0262 56.8379 25.7534 58.3436 26.7804C59.0185 27.242 60.4255 26.8842 60.9915 27.989C63.2915 32.4859 55.4309 33.1602 56.6042 27.0086C57.4142 22.7969 61.6093 22.1953 65.2904 22.7295C71.9932 23.7046 71.5986 32.5845 67.7618 36.7028C66.9311 37.5949 65.659 38.1655 64.7401 38.9539C64.3922 39.2547 63.8263 38.9383 64.1274 40.0587C66.0017 39.8771 69.3817 40.4944 71.0119 39.5867C71.853 39.1147 71.6921 36.1271 72.8084 37.1696C73.4314 37.7506 73.6495 43.6376 72.8187 44.203ZM87.8287 25.852C86.645 27.6414 87.5224 36.0441 87.3199 38.8761C87.1434 41.3502 86.8319 42.3668 84.132 41.0546L73.5352 29.4464L73.2964 34.7526C72.6318 34.8822 72.1334 34.5814 71.9309 33.9486C71.7025 33.2121 71.6869 25.6341 71.9153 24.9235C72.3307 23.6683 75.3628 23.8395 76.2351 24.8198L85.8506 35.7173C85.4975 33.2536 86.3334 29.545 85.8506 27.2732C85.5027 25.6341 83.3844 25.6186 83.4363 24.1351H89.2254C89.568 25.463 88.3635 25.0376 87.8287 25.852Z" fill="white"/>
<path d="M107.091 30.4111C107.091 30.4111 107.065 30.4371 107.023 30.463C107.044 30.4474 107.07 30.4267 107.091 30.4111Z" fill="white"/>
</g>
<defs>
<clipPath id="clip0_791_3783">
<rect width="164" height="80" fill="white"/>
</clipPath>
</defs>
</svg>
