<svg width="164" height="80" viewBox="0 0 164 80" fill="none" xmlns="http://www.w3.org/2000/svg">
<path d="M3.17944 56.9188C5.24372 52.0439 7.92874 46.4296 10.0652 41.5886C12.1728 36.8078 14.2786 32.027 16.4042 27.2538C16.8066 26.3506 17.3353 25.4193 18.4017 25.4137C19.3635 25.408 19.627 26.3845 19.9644 27.1427C22.9977 33.9668 26.0273 40.7928 29.0552 47.6206C30.0513 49.8671 31.0347 52.1192 32.056 54.4428C31.834 54.4428 31.7348 54.4616 31.6464 54.4409C25.2929 52.9019 18.8944 52.0684 12.3767 53.0938C11.6549 53.2067 11.7073 52.9282 11.9364 52.392C12.7015 50.6065 13.4323 48.8041 14.183 47.011C15.1664 44.6611 16.1588 42.3168 17.1386 39.9668C17.3606 39.4344 17.7179 39.0261 18.2664 38.9734C18.7338 38.9264 19.0117 39.3215 19.1885 39.741C20.19 42.1192 21.1842 44.4993 22.1821 46.8793C22.2019 46.9546 22.2236 47.0298 22.2434 47.1051C22.164 47.0995 22.0864 47.0919 22.007 47.0863C20.4173 46.6347 18.8023 46.6874 17.1819 46.8285C16.8192 46.8605 16.48 46.8925 16.3158 47.3271C16.0614 48.0044 15.7745 48.6667 15.4136 49.5548C19.0983 48.6479 22.5285 49.3948 25.9245 50.1154C26.0833 49.7203 25.883 49.4964 25.7873 49.2594C24.2554 45.4682 22.727 41.6733 21.1734 37.8916C20.5942 36.4823 19.8255 35.1108 18.1636 35.1183C16.5378 35.1239 15.8178 36.4993 15.2548 37.869C12.808 43.8201 10.3774 49.7787 7.95039 55.7391C7.83671 56.0195 7.61837 56.3036 7.70679 56.6347C17.3696 53.7843 26.7239 55.8295 36.0943 58.3224C36.0438 58.1474 36.0258 58.0477 35.9879 57.9612C31.0311 46.4541 26.0743 34.9452 21.1048 23.4438C20.8955 22.9584 20.5978 22.4936 20.2549 22.0967C18.9647 20.599 17.3028 20.646 16.0776 22.1719C15.5724 22.8003 15.2331 23.5284 14.9138 24.2679C10.15 35.2744 4.75472 47.6432 0 58.6554L3.17763 56.9226L3.17944 56.9188Z" fill="#FBFBFB"/>
<path d="M152.012 33.6778C159.058 33.6985 163.643 38.7672 163.542 46.4266C163.443 53.992 158.905 58.9177 151.999 58.9534C144.953 58.991 140.371 53.9901 140.384 46.2704C140.397 38.4944 144.863 33.6571 152.012 33.6778ZM145.722 46.3194C145.729 50.4266 147.216 53.1867 149.928 54.0861C152.299 54.8706 154.565 54.5658 156.198 52.5734C158.733 49.4802 158.567 45.8189 157.478 42.2027C156.731 39.7229 154.977 38.2799 152.422 38.1068C148.277 37.8245 145.713 40.9854 145.722 46.3194Z" fill="#FBFBFB"/>
<path d="M81.1803 49.6659C81.1803 53.95 80.4404 57.1297 76.4418 58.2623C72.8852 59.2708 69.3052 59.363 65.801 57.9952C62.6901 56.7816 61.1563 54.3658 61.2411 51.0318C61.3241 47.775 62.8417 45.7224 66.077 44.6161C68.4409 43.8089 70.7506 43.8108 73.192 43.4966C74.105 43.3799 75.3375 43.6283 75.9618 42.3451C76.6457 40.9378 75.5396 39.4138 74.0942 38.7271C71.5265 37.5079 68.9479 38.0535 66.364 38.8042C65.1983 39.1429 63.7222 40.8117 62.912 38.4354C62.1614 36.236 63.5635 35.2708 65.3102 34.633C68.8306 33.3498 72.4034 33.267 75.9492 34.3545C79.3054 35.3837 80.9692 37.7863 81.2037 41.7619C81.3228 43.7732 81.1803 47.6452 81.1803 49.664M76.4598 51.03C76.4652 47.1316 76.0286 47.141 72.629 47.5963C71.1584 47.7938 69.6553 48.014 68.2658 48.522C66.4181 49.1974 66.0518 50.7778 66.7645 52.5483C67.5026 54.3827 70.5015 55.0262 73.6774 54.4674C75.9023 54.0761 76.4093 53.0206 76.458 51.0318L76.4598 51.03Z" fill="#FBFBFB"/>
<path d="M43.7189 42.2682C43.7189 46.8496 43.654 51.431 43.7532 56.0105C43.7929 57.7847 43.2191 58.5429 41.5211 58.4996C39.8791 58.4564 38.4499 58.1723 38.4445 56.033C38.4211 46.2306 38.4427 36.4263 38.4048 26.6238C38.3976 24.7913 39.5416 24.9155 40.7145 24.8534C42.6651 24.748 43.7207 25.5984 43.7189 27.7019C43.7171 32.558 43.7189 37.4141 43.7189 42.2701V42.2682Z" fill="#FBFBFB"/>
<path d="M55.951 46.9098C55.951 49.8487 55.895 52.7894 55.9744 55.7245C56.0195 57.3877 55.8968 58.5975 53.8163 58.5128C51.9794 58.4395 50.6874 57.9465 50.673 55.7509C50.6603 53.8224 50.6657 51.8938 50.6657 49.9653C50.6657 45.5571 50.7523 41.1469 50.626 36.7424C50.5719 34.8402 51.1403 34.0707 52.9754 34.129C54.6878 34.1836 55.9492 34.6126 55.9492 36.7142C55.9492 40.1121 55.9492 43.51 55.951 46.908V46.9098Z" fill="#FBFBFB"/>
<path d="M56.4958 27.2203C56.2649 29.1883 55.2472 30.4 53.2551 30.3304C51.3063 30.2627 50.1352 29.1018 50.2019 27.0341C50.2633 25.098 51.4542 24.0425 53.2695 24.0237C55.2129 24.003 56.3389 25.0962 56.4958 27.2203Z" fill="#FBFBFB"/>
<path d="M132.931 24.8115H131.529C130.971 24.8115 130.517 25.2857 130.517 25.867V35.6544L130.506 35.7184C130.48 35.6958 130.453 35.6751 130.426 35.6544C128.792 34.4014 126.846 33.677 124.762 33.677C118.943 33.677 114.222 39.3346 114.222 46.3148C114.222 53.295 118.551 58.4728 124.03 58.9244C124.271 58.9451 124.515 58.9545 124.762 58.9545H127.413C131.769 58.9545 135.302 55.2706 135.302 50.7287V27.2819C135.302 25.9178 134.241 24.8115 132.933 24.8115H132.931ZM130.881 50.8322C130.881 53.1182 129.105 54.9714 126.911 54.9714C122.259 54.9714 118.49 51.0392 118.49 46.1906V45.4155C118.49 41.4004 121.613 38.1436 125.464 38.1436H126.467C128.907 38.1436 130.883 40.2057 130.883 42.7475V50.8322H130.881Z" fill="#FBFBFB"/>
<path d="M105.423 24.8115H104.021C103.464 24.8115 103.009 25.2857 103.009 25.867V35.6544L102.998 35.7184C102.973 35.6958 102.946 35.6751 102.919 35.6544C101.284 34.4014 99.3387 33.677 97.2546 33.677C91.4353 33.677 86.7148 39.3346 86.7148 46.3148C86.7148 53.295 91.0437 58.4728 96.522 58.9244C96.7638 58.9451 97.0074 58.9545 97.2546 58.9545H99.9053C104.261 58.9545 107.794 55.2706 107.794 50.7287V27.2819C107.794 25.9178 106.733 24.8115 105.425 24.8115H105.423ZM103.373 50.8322C103.373 53.1182 101.598 54.9714 99.4037 54.9714C94.7519 54.9714 90.9824 51.0392 90.9824 46.1906V45.4155C90.9824 41.4004 94.1059 38.1436 97.9565 38.1436H98.9598C101.399 38.1436 103.375 40.2057 103.375 42.7475V50.8322H103.373Z" fill="#FBFBFB"/>
<path d="M136.954 52.7213H136.004L136.014 52.6826C136.324 52.7092 136.637 52.7213 136.954 52.7213Z" fill="#FBFBFB"/>
</svg>
