<svg width="164" height="80" viewBox="0 0 164 80" fill="none" xmlns="http://www.w3.org/2000/svg">
<g clip-path="url(#clip0_799_4535)">
<path d="M103.133 60.2821L84.5049 50.8528C82.0298 48.0832 84.2573 44.2047 87.9699 45.1729L97.9056 50.0078L94.2873 40.6137L71.4695 26.9362C70.2261 26.0795 69.1948 24.6067 69.7311 23.0635L78.7061 2.03967C80.9985 -1.08193 83.6091 -0.471691 85.2651 2.79073C87.3689 6.9333 88.8421 11.7976 90.8811 16.0164C91.2641 18.8447 89.4078 20.4817 86.6028 20.0299C84.3045 19.6603 82.8548 14.0625 81.9826 12.1203L78.712 19.1322C78.5647 19.9008 77.2093 22.1306 77.557 22.7232L99.3965 35.7729C102.561 42.4385 105.048 49.5032 107.794 56.3801C108.454 59.0499 105.649 61.5026 103.133 60.2762V60.2821Z" fill="white"/>
<path d="M79.0951 50.9647C73.155 53.2883 66.8966 57.8533 61.0213 59.9598C57.344 61.28 55.2756 58.663 56.4306 55.1424C59.1355 46.9042 63.9442 38.5722 66.7787 30.2811C68.5525 26.5552 73.8444 28.2979 73.2728 32.2879L66.0775 49.7618C66.5077 50.1901 75.1527 44.8095 77.1445 44.8036C80.2207 44.7977 81.7529 49.0283 79.101 50.9647H79.0951Z" fill="white"/>
<path d="M71.7937 73.2849C74.1745 72.8683 73.4437 73.6604 74.2864 74.3938C75.9424 75.8256 79.5901 73.8834 77.3449 72.5866C76.1368 71.8942 72.436 71.9529 72.053 69.9344C71.0158 64.5362 79.6432 64.4716 79.7551 69.3183C79.2071 69.2538 78.4115 69.4591 77.9224 69.289C77.4097 69.1129 77.5806 68.1037 76.8499 67.8807C75.9718 67.6167 73.9034 67.6343 74.0271 68.9369C74.1921 70.709 79.5312 69.8581 79.9909 72.6746C80.8689 78.0729 71.6994 78.0377 71.7937 73.279V73.2849Z" fill="white"/>
<path d="M39.0934 66.349C38.7751 66.0028 36.7362 65.9911 36.5122 66.1378C36.0644 66.4312 33.5009 75.0273 33 76.2536C35.9819 76.6174 34.9034 75.9016 35.752 74.6635C36.2883 73.8714 38.5925 74.4464 39.5589 74.2586C40.0598 76.3827 40.1895 76.4297 42.4465 76.2536L39.0934 66.349ZM36.4828 72.5394C36.3531 72.4162 37.2783 69.5527 37.4551 69.1714C37.5494 68.9601 37.5671 68.3968 37.9737 68.8193C38.1033 68.9601 38.7693 72.0348 38.9696 72.5335H36.4828V72.5394Z" fill="white"/>
<path d="M52.8359 70.9911C52.3939 68.8318 49.2235 67.5761 47.7915 69.5711C47.7974 68.3213 46.607 68.9608 45.6818 68.8318V79.6048C45.6818 80.0801 47.267 79.9979 47.6736 79.9745V75.515C51.4274 78.3608 53.6196 74.8226 52.8418 70.9911H52.8359ZM49.9837 74.7229C46.1945 75.8788 47.4025 68.2685 50.3372 70.639C51.2153 71.349 51.2035 74.3532 49.9837 74.7229Z" fill="white"/>
<path d="M60.6028 73.0379C61.1685 67.0412 52.7887 67.0412 53.3898 73.1612C53.7905 77.2861 59.4831 77.8846 60.3494 74.0296C58.552 73.4898 57.8272 75.3146 56.1772 74.6046C55.6173 74.364 55.6173 73.5719 55.6232 73.0379H60.5969H60.6028ZM56.1241 70.4386C57.4383 69.664 58.9763 71.172 58.3635 71.7999C58.281 71.882 56.3186 71.8468 55.9945 71.7999C55.2166 71.6884 55.8236 70.6087 56.1241 70.4327V70.4386Z" fill="white"/>
<path d="M101.512 76.5117C100.569 76.4178 98.9075 75.3264 98.9075 74.3993V66.8477H100.899V68.8309H105.125V70.3154H100.899C101.041 71.5535 100.281 75.0154 102.266 74.7807C103.504 74.634 103.08 72.1814 103.139 71.3012H105.13C105.419 74.0884 104.971 76.8696 101.518 76.5117H101.512Z" fill="white"/>
<path d="M111.519 68.6436C107.246 69.3301 107.376 75.9019 111.483 76.4828C117.759 77.3747 117.63 67.6578 111.519 68.6436ZM111.336 74.6462C110.269 74.1357 110.092 70.7383 111.766 70.3628C115.184 69.5941 114.713 76.2598 111.336 74.6462Z" fill="white"/>
<path d="M84.829 68.6029C84.334 68.5442 83.9097 68.5618 83.4205 68.644C79.2247 69.3188 79.154 76.1898 83.8507 76.5243C89.2841 76.9057 89.3135 69.1369 84.829 68.6029ZM83.232 74.6466C82.1653 74.1361 81.9885 70.7329 83.6621 70.3632C87.2922 69.5711 86.5556 76.2367 83.232 74.6466Z" fill="white"/>
<path d="M67.7629 74.8457C67.1736 77.4099 60.6677 77.1165 60.8563 73.7837C61.4397 73.8952 62.4651 73.6253 62.9424 73.7661C63.1958 73.8424 63.0485 74.3881 63.3373 74.6462C63.8735 75.1215 65.665 75.0922 65.8241 74.3998C66.1423 73.0268 60.9152 73.6311 61.1097 70.7208C61.316 67.6931 67.8219 67.7693 67.5685 71.0611C67.0204 70.9789 66.2425 71.1902 65.7534 71.0611C65.5177 71.0024 65.5 70.5858 65.3114 70.4685C64.3685 69.8524 62.583 70.2279 63.5907 71.1843C64.8341 72.3578 68.5703 71.3369 67.7629 74.8457Z" fill="white"/>
<path d="M124.018 73.784C124.571 73.8486 125.343 73.6491 125.844 73.8192C126.198 73.9424 126.251 74.4236 126.522 74.629C127.241 75.1688 128.372 75.0397 128.991 74.3943C129.309 73.0564 123.864 73.6608 124.271 70.457C124.607 67.8166 130.918 67.7638 130.73 71.0497C130.182 70.9675 129.41 71.1788 128.915 71.0497C128.702 70.9969 128.644 70.5392 128.325 70.3514C127.677 69.97 126.781 70.1226 126.257 70.68C125.986 71.8301 130.641 71.3255 130.971 73.6667C131.525 77.5863 123.882 77.5041 124.018 73.7723V73.784Z" fill="white"/>
<path d="M123.522 70.1922V76.2594H121.531V71.1839C121.531 69.8578 118.796 70.4152 118.796 71.1839V76.2594H116.804V68.8309C116.804 68.737 118.466 68.784 118.631 68.8309C118.838 68.8837 118.773 69.3532 118.914 69.3297C119.745 69.183 119.886 68.3498 121.595 68.6432C122.22 68.7488 123.522 69.5879 123.522 70.1981V70.1922Z" fill="white"/>
<path d="M98.1589 68.8311V76.2595C98.1589 76.3475 96.4971 76.3006 96.3321 76.2595C96.1259 76.2067 96.1907 75.7373 96.0493 75.7608C95.2124 75.9075 95.0769 76.7407 93.3679 76.4473C92.6077 76.3182 91.4409 75.35 91.4409 74.6518V68.8311H93.4328V74.153C93.4328 75.0625 96.1671 74.9921 96.1671 73.6601V68.8311H98.1589Z" fill="white"/>
<path d="M44.9392 66.1084H42.9474V76.2595H44.9392V66.1084Z" fill="white"/>
<path d="M90.6985 66.1084H88.7067V76.2595H90.6985V66.1084Z" fill="white"/>
<path d="M107.859 68.8311H105.867V76.2595H107.859V68.8311Z" fill="white"/>
<path d="M107.859 66.1025H105.867V68.0858H107.859V66.1025Z" fill="white"/>
</g>
<defs>
<clipPath id="clip0_799_4535">
<rect width="164" height="80" fill="white"/>
</clipPath>
</defs>
</svg>
