<svg width="164" height="80" viewBox="0 0 164 80" fill="none" xmlns="http://www.w3.org/2000/svg">
<g clip-path="url(#clip0_638_3665)">
<mask id="mask0_638_3665" style="mask-type:luminance" maskUnits="userSpaceOnUse" x="0" y="0" width="164" height="80">
<path d="M164 0H0V80H164V0Z" fill="white"/>
</mask>
<g mask="url(#mask0_638_3665)">
<path d="M34.6897 9.83932H17.5874M17.5874 9.83932L34.6897 60.189M17.5874 9.83932L0.480469 60.189H144.358M153.967 9.83932H76.8583M76.8583 35.0109H111.096M9.05561 35.0109H34.6897M153.962 9.81413C151.411 9.81413 148.965 11.1415 147.161 13.5041C145.357 15.8668 144.344 19.0713 144.344 22.4126C144.344 25.7538 145.357 28.9584 147.161 31.3211C148.965 33.6836 151.411 35.0109 153.962 35.0109C156.513 35.0109 158.96 36.3382 160.764 38.701C162.568 41.0637 163.581 44.2681 163.581 47.6093C163.581 50.9508 162.568 54.1552 160.764 56.5179C158.96 58.8804 156.513 60.2077 153.962 60.2077H144.344M140.116 9.85822V60.189M134.768 60.189L122.927 40.8944C124.484 40.8944 126.026 40.4928 127.464 39.7124C128.902 38.9321 130.209 37.7883 131.31 36.3465C132.411 34.9046 133.284 33.1929 133.88 31.309C134.476 29.4251 134.783 27.4059 134.783 25.3668C134.783 23.3277 134.476 21.3086 133.88 19.4248C133.284 17.5409 132.411 15.8291 131.31 14.3873C130.209 12.9454 128.902 11.8016 127.464 11.0213C126.026 10.241 124.484 9.83932 122.927 9.83932H111.096V60.189L93.9652 9.83932L76.8583 60.189M76.8823 60.189V9.83304C76.8823 7.39221 76.1421 5.05134 74.8243 3.32542C73.5066 1.5995 71.7195 0.629883 69.8558 0.629883C67.9923 0.629883 66.2051 1.5995 64.8873 3.32542C63.5695 5.05134 62.8293 7.39221 62.8293 9.83304M62.8293 9.83304V60.189M62.8293 9.83304C62.7815 7.43306 62.0197 5.15249 60.7069 3.4772C59.394 1.80193 57.6334 0.86442 55.8005 0.86442C53.9675 0.86442 52.207 1.80193 50.8939 3.4772C49.581 5.15249 48.8195 7.43306 48.7715 9.83304M48.7715 9.83304V60.189M48.7715 9.83304C48.7235 7.43306 47.962 5.15249 46.6491 3.4772C45.3361 1.80193 43.5755 0.86442 41.7425 0.86442C39.9096 0.86442 38.149 1.80193 36.8361 3.4772C35.5231 5.15249 34.7615 7.43306 34.7137 9.83304V60.189M143.646 5.23461C143.646 6.14533 143.44 7.03562 143.054 7.79285C142.667 8.55011 142.118 9.1403 141.476 9.48881C140.834 9.83733 140.127 9.92853 139.445 9.75086C138.763 9.57317 138.136 9.13461 137.645 8.49063C137.153 7.84666 136.818 7.02618 136.682 6.13294C136.547 5.23971 136.616 4.31386 136.883 3.47246C137.149 2.63105 137.599 1.91189 138.177 1.40592C138.756 0.899945 139.435 0.629883 140.131 0.629883C141.063 0.629883 141.957 1.11502 142.617 1.97858C143.276 2.84213 143.646 4.01335 143.646 5.23461Z" stroke="white" stroke-width="2" stroke-linecap="round" stroke-linejoin="round"/>
<path d="M39.9297 68.8408C40.8647 68.8277 41.7636 69.2298 42.4824 69.9609L42.5547 70.0342V70.1377L42.5449 71.5869L42.54 72.3135L42.0967 71.7373C41.8064 71.3598 41.4727 71.0506 41.1113 70.8193V70.8184C40.7143 70.5815 40.2881 70.4577 39.8594 70.4492C39.0963 70.4921 38.3565 70.9191 37.8018 71.6738C37.2426 72.4343 36.9238 73.4603 36.9238 74.5361C36.9239 75.6119 37.2427 76.637 37.8018 77.3975C38.3581 78.1546 39.1006 78.5814 39.8662 78.6221C40.3317 78.6113 40.7939 78.4609 41.2168 78.1748L41.2178 78.1738C41.5357 77.9613 41.8296 77.6831 42.0869 77.3477L42.5352 76.7637V79.0566L42.4561 79.1309C41.7142 79.8266 40.8158 80.215 39.8828 80.2256H39.8789C39.2894 80.2211 38.7083 80.0638 38.1709 79.7676C37.6342 79.4716 37.1524 79.0428 36.75 78.5098C35.9382 77.434 35.4924 75.9911 35.499 74.5C35.5055 73.0089 35.9637 71.5723 36.7852 70.5088C37.6065 69.4453 38.7334 68.8338 39.9248 68.8408V68.8398C39.9268 68.8398 39.9287 68.8399 39.9307 68.8398L39.9297 68.8408Z" fill="white" stroke="white" stroke-width="0.5"/>
<path d="M48.2036 69.2344C49.0201 68.786 49.9259 68.6626 50.8022 68.8867C51.6766 69.1101 52.4689 69.6653 53.0845 70.4668C53.6999 71.2683 54.1157 72.2845 54.2847 73.3838C54.4535 74.4833 54.3689 75.6246 54.0415 76.6641C53.7142 77.703 53.1561 78.6009 52.4292 79.2383C51.7023 79.8756 50.8379 80.2234 49.9448 80.2246L49.9458 80.2256C49.9438 80.2256 49.9419 80.2255 49.9399 80.2256V80.2246C49.3478 80.2381 48.7614 80.0968 48.2173 79.8105C47.6719 79.5236 47.1814 79.0984 46.772 78.5654C46.3628 78.0322 46.0414 77.4003 45.8257 76.708C45.61 76.0159 45.5029 75.2754 45.5103 74.5303C45.506 73.4108 45.7553 72.3112 46.23 71.3701C46.7053 70.4286 47.3893 69.6816 48.2036 69.2344ZM49.9399 70.4492C49.5524 70.4517 49.1664 70.554 48.8032 70.7539C48.4391 70.9545 48.1043 71.2503 47.8198 71.6279C47.5353 72.0056 47.3073 72.456 47.1528 72.9551C46.9985 73.4541 46.9207 73.9897 46.9243 74.5303C46.9325 75.3371 47.1231 76.119 47.4673 76.7773C47.8117 77.4357 48.2909 77.935 48.8364 78.2227C49.38 78.5094 49.9704 78.5771 50.5376 78.4229C51.1069 78.2681 51.6397 77.8931 52.064 77.3301C52.4884 76.7669 52.7807 76.0445 52.8979 75.2529C53.0149 74.4617 52.9507 73.6433 52.7144 72.9023C52.5073 72.2538 52.1788 71.6952 51.7671 71.2754L51.5854 71.1045C51.0897 70.6723 50.5171 70.4494 49.9399 70.4492Z" fill="white" stroke="white" stroke-width="0.5"/>
<path d="M58.4854 68.6777L64.2852 76.6484V69.041H65.6797V81.0527L65.2275 80.4307L59.4277 72.4531V80.0684L59.1709 80.0605L58.2764 80.0361L58.0332 80.0293V68.0566L58.4854 68.6777Z" fill="white" stroke="white" stroke-width="0.5"/>
<path d="M72.2739 68.7646C72.7981 68.7401 73.3063 68.9318 73.7271 69.2979L73.731 69.3008H73.73C74.0947 69.6287 74.3859 70.0653 74.5806 70.5674L74.6411 70.7236L74.52 70.8389L73.7983 71.5264L73.5288 71.7822L73.3931 71.4355C73.2856 71.1606 73.1377 70.9214 72.9624 70.7295C72.746 70.528 72.4967 70.4359 72.2534 70.4482L72.231 70.4492L72.2095 70.4463C72.0837 70.4302 71.955 70.4481 71.8315 70.502C71.7071 70.5563 71.5872 70.6474 71.4819 70.7734H71.481C71.4019 70.8681 71.3336 70.9809 71.2788 71.1074L71.229 71.2383C71.169 71.419 71.1378 71.6157 71.1392 71.8154V71.9365C71.1439 72.0437 71.1627 72.1486 71.1948 72.2461L71.231 72.3398C71.2705 72.4293 71.3208 72.5062 71.3774 72.5684V72.5693C71.5489 72.7586 71.7371 72.9142 71.936 73.0332L72.1382 73.1396L72.1577 73.1494L72.9214 73.585C73.3567 73.8061 73.7576 74.1179 74.1089 74.5049L74.2563 74.6758L74.2603 74.6797C74.4732 74.9506 74.6373 75.2733 74.7456 75.625C74.8542 75.9772 74.9044 76.3537 74.895 76.7305V76.7334C74.8716 77.4059 74.7038 78.0595 74.4067 78.6191C74.1095 79.1787 73.6917 79.6275 73.1948 79.9033C72.6959 80.1804 72.141 80.2691 71.5981 80.1533C71.057 80.0378 70.5622 79.7263 70.1665 79.2686L70.1587 79.2607L70.1528 79.252C69.7484 78.6907 69.4765 77.9976 69.3628 77.2539L69.3315 77.0508L69.5239 76.9805L70.3901 76.666L70.6899 76.5566L70.7241 76.874C70.774 77.3353 70.9273 77.7604 71.1587 78.0957C71.289 78.2646 71.4411 78.3912 71.6021 78.4727C71.7637 78.5542 71.9331 78.5895 72.1001 78.5791L72.1177 78.5771L72.1353 78.5791C72.3019 78.5925 72.471 78.5599 72.6323 78.4805C72.7944 78.4008 72.9483 78.2745 73.0796 78.1045C73.211 77.9345 73.3158 77.7262 73.3853 77.4922L73.4302 77.3135C73.4679 77.132 73.4841 76.9428 73.4771 76.7529V76.7314C73.4869 76.5245 73.4601 76.3185 73.4009 76.1289C73.342 75.9411 73.2537 75.7781 73.145 75.6494C72.8755 75.3654 72.5756 75.141 72.2583 74.9824L72.2495 74.9775L72.2397 74.9727L71.519 74.5312H71.5181C71.0983 74.3122 70.7157 73.9996 70.3862 73.6104C70.1802 73.3669 70.0201 73.0711 69.9155 72.7461C69.811 72.421 69.7633 72.0714 69.7739 71.7217C69.7769 70.0038 70.8112 68.7639 72.2739 68.7637V68.7646Z" fill="white" stroke="white" stroke-width="0.5"/>
<path d="M79.9958 69.041L79.9939 69.293L79.946 75.7178C79.9461 76.6182 79.9572 77.4752 80.5193 78.1035C80.8562 78.4467 81.2586 78.6221 81.6609 78.6221C82.0628 78.622 82.4638 78.4462 82.8005 78.1035C83.3635 77.4749 83.3757 76.6179 83.3757 75.7168V69.041H84.7644V76.0166L84.7742 76.3633C84.7728 77.1721 84.5961 77.9691 84.2585 78.6602L84.2517 78.6748L84.2429 78.6875C83.9345 79.1595 83.5484 79.5444 83.1072 79.8105C82.6651 80.0771 82.1791 80.2178 81.6843 80.2178C81.1898 80.2177 80.7044 80.077 80.2625 79.8105C79.8211 79.5443 79.4341 79.1595 79.1257 78.6875L79.1179 78.6748L79.1111 78.6611C78.7271 77.8755 78.5509 76.9524 78.6042 76.0312V69.041H79.9958Z" fill="white" stroke="white" stroke-width="0.5"/>
<path d="M90.2581 69.041V78.4902H92.4749V80.0928H88.8684V69.041H90.2581Z" fill="white" stroke="white" stroke-width="0.5"/>
<path d="M99.8958 69.041V70.6465L99.6428 70.6436L97.929 70.6211V80.0674H96.5393V70.6182H94.5862V69.041H99.8958Z" fill="white" stroke="white" stroke-width="0.5"/>
<path d="M104.507 69.041V80.0605H103.112V69.041H104.507Z" fill="white" stroke="white" stroke-width="0.5"/>
<path d="M109.047 68.6777L114.847 76.6484V69.041H116.237V81.0527L115.784 80.4307L109.985 72.4531V80.0684L109.728 80.0605L108.838 80.0361L108.595 80.0293V68.0566L109.047 68.6777Z" fill="white" stroke="white" stroke-width="0.5"/>
<path d="M124.376 68.8408C125.275 68.8233 126.145 69.1723 126.866 69.8223L127.009 69.957L127.014 69.9609C127.382 70.3404 127.707 70.7824 127.981 71.2734L128.065 71.4229L127.954 71.5557L127.29 72.3486L127.052 72.6338L126.878 72.3057C126.672 71.9172 126.427 71.5688 126.154 71.2676V71.2666C125.648 70.7214 125.024 70.4466 124.398 70.4668C123.63 70.5054 122.885 70.933 122.326 71.6924C121.768 72.453 121.449 73.478 121.448 74.5537C121.448 75.6296 121.767 76.6553 122.326 77.416C122.885 78.1753 123.63 78.6017 124.398 78.6406C124.829 78.6525 125.261 78.5168 125.651 78.2363L125.795 78.124C126.125 77.8479 126.408 77.4707 126.616 77.0166C126.769 76.6649 126.866 76.2756 126.905 75.8721H124.522L124.516 75.627L124.492 74.5059L124.487 74.251H128.359V74.75L128.349 75.209C128.295 76.2742 128.025 77.3075 127.561 78.2002L127.556 78.209C127.192 78.8441 126.713 79.3634 126.155 79.7168C125.598 80.0689 124.98 80.2441 124.352 80.2236V80.2246L124.351 80.2236C124.349 80.2236 124.346 80.2247 124.344 80.2246V80.2236C123.153 80.2163 122.033 79.592 121.219 78.5205C120.405 77.448 119.956 76.0067 119.959 74.5156C119.962 73.0247 120.418 71.5872 121.237 70.5205C122.055 69.4541 123.18 68.8383 124.371 68.8408V68.8398C124.373 68.8398 124.374 68.8408 124.375 68.8408L124.377 68.8398L124.376 68.8408Z" fill="white" stroke="white" stroke-width="0.5"/>
<path d="M137.037 73.75C137.247 73.6351 137.484 73.6028 137.714 73.6621H137.715C137.944 73.7214 138.142 73.8648 138.291 74.0596C138.439 74.2539 138.535 74.495 138.574 74.75C138.612 75.0047 138.592 75.2692 138.515 75.5117C138.438 75.7538 138.304 75.9708 138.123 76.1279C137.94 76.2858 137.717 76.3768 137.48 76.375C137.164 76.3728 136.88 76.2078 136.682 75.9492V75.9482C136.486 75.691 136.382 75.3543 136.38 75.0117C136.379 74.7531 136.437 74.4956 136.549 74.2725C136.662 74.0497 136.829 73.8637 137.037 73.75Z" fill="white" stroke="white" stroke-width="0.5"/>
<path d="M26.1299 73.75C26.3138 73.6493 26.5189 73.6115 26.7217 73.6436L26.8086 73.6621L26.8926 73.6885C27.0855 73.7583 27.2536 73.889 27.3838 74.0596C27.5322 74.2541 27.6285 74.4951 27.667 74.75C27.7053 75.0047 27.6856 75.2692 27.6084 75.5117C27.5312 75.7538 27.3969 75.9708 27.2158 76.1279C27.0563 76.2662 26.8652 76.3538 26.6611 76.3721L26.5732 76.375C26.2573 76.3727 25.9729 76.2079 25.7754 75.9492C25.5789 75.6918 25.4753 75.3542 25.4736 75.0117C25.4726 74.7529 25.5299 74.4955 25.6426 74.2725C25.7552 74.0495 25.922 73.8638 26.1299 73.75Z" fill="white" stroke="white" stroke-width="0.5"/>
</g>
</g>
<defs>
<clipPath id="clip0_638_3665">
<rect width="164" height="80" fill="white"/>
</clipPath>
</defs>
</svg>
