<svg width="164" height="80" viewBox="0 0 164 80" fill="none" xmlns="http://www.w3.org/2000/svg">
<path d="M73.0898 34.1688C71.4071 31.4159 68.3918 29.5791 64.95 29.5791H62.6185C61.6912 29.5791 60.7409 29.8359 59.7695 30.3487C58.7972 30.8623 57.9977 31.5411 57.3691 32.3857V29.9416H51.7162V63.8837H57.8175V51.4156C58.4452 52.0795 59.2007 52.608 60.0829 52.9993C60.9643 53.3915 61.8245 53.5871 62.6626 53.5871H64.9491C68.3908 53.5871 71.4061 51.7513 73.0889 48.9975C73.9867 47.5279 74.506 45.0977 74.506 43.2451V39.2192C74.506 37.3667 73.9867 35.6365 73.0889 34.1669L73.0898 34.1688ZM69.3788 43.0727C69.3788 45.9377 67.0555 48.2817 64.2158 48.2817H62.5698C59.6951 48.2817 57.3645 45.9303 57.3645 43.03V40.1371C57.3645 37.2369 59.6951 34.8855 62.5698 34.8855H64.1735C67.0482 34.8855 69.3788 37.2369 69.3788 40.1371V43.0727Z" fill="white"/>
<path d="M148.312 16C139.676 16 137.178 18.3969 137.178 26.6877C137.178 34.9784 139.765 37.4404 148.248 37.4404C156.732 37.4404 159.256 35.0288 159.256 26.6877C159.256 18.3465 156.904 16 148.312 16ZM148.216 19.3632C154.281 19.3632 155.924 20.2754 155.924 26.6932C155.924 32.7647 154.576 34.0754 148.333 34.0754C142.089 34.0754 140.509 33.0569 140.509 26.6932C140.509 20.3295 142.245 19.3632 148.216 19.3632Z" fill="white"/>
<path d="M79.2335 52.1943C77.9807 51.0715 77.3547 49.3265 77.3547 46.9603V22.4316H83.5112V46.6005C83.5112 47.3193 83.6772 47.8438 84.0092 48.1724C84.3412 48.5019 84.8688 48.6666 85.593 48.6666H88.0375V53.8775H85.1405C82.4541 53.8775 80.4854 53.3161 79.2335 52.1933V52.1943Z" fill="white"/>
<path d="M92.2756 51.5321C90.8746 49.9204 90.1741 47.8042 90.1741 45.1834V29.5791H96.1281V45.2741C96.2258 46.3091 96.3299 47.769 98.0493 48.5114C99.3454 49.0715 100.841 49.0567 102.193 48.6633C102.889 48.4605 103.584 47.9421 103.922 47.594C105.238 46.236 105.484 44.1753 105.586 42.9339V29.5791H111.54V53.5891H106.023V50.6971C105.351 51.6618 104.527 52.4449 103.549 53.0467C103.256 53.2272 102.8 53.3809 102.304 53.5077C100.47 53.9761 98.5543 53.9937 96.7048 53.5984C94.9243 53.2179 93.1412 52.5301 92.2747 51.5331L92.2756 51.5321Z" fill="white"/>
<path d="M120.025 45.8859H114.389C114.389 45.8859 114.233 51.4465 119.082 53.0548C123.233 54.4317 129.121 53.7446 130.775 53.3907C132.455 53.0314 133.795 52.1804 134.698 50.7018C135.103 50.0399 135.434 49.2132 135.599 48.1849C136.257 44.0722 133.675 41.7516 133.675 41.7516C133.675 41.7516 132.502 40.3603 129.255 39.8542L122.248 38.6178C121.931 38.562 121.623 38.4485 121.361 38.2603C120.943 37.9596 120.499 37.3995 120.608 36.3999C120.752 35.0725 121.591 34.869 122.853 34.6952C123.471 34.6097 126.152 34.543 127.238 34.643C129.083 34.8132 129.785 35.7722 130.049 37.1221C130.076 37.2626 130.099 37.4112 130.117 37.5678L135.753 37.5714C135.753 37.5714 135.909 32.0108 131.06 30.4025C126.909 29.0256 121.02 29.7127 119.367 30.0666C117.687 30.4259 116.347 31.2769 115.444 32.7555C115.039 33.4174 114.708 34.2441 114.543 35.2724C113.885 39.3851 116.466 41.7057 116.466 41.7057C116.466 41.7057 117.64 43.097 120.887 43.6031L127.894 44.8395C128.211 44.8953 128.519 45.0088 128.781 45.197C129.198 45.4977 129.657 46.0588 129.534 47.0574C129.356 48.5099 127.882 48.6567 127.281 48.7432C125.948 48.9341 123.976 48.8819 122.834 48.7603C121.049 48.5694 120.357 47.686 120.093 46.3352C120.065 46.1947 120.043 46.0462 120.025 45.8895V45.8859Z" fill="white"/>
<path d="M153.558 24.8353H149.685V21.0029H146.75V24.8353H142.875V27.8907H146.75V31.7231H149.685V27.8907H153.558V24.8353Z" fill="white"/>
<path d="M24.9038 46.5556L27.5116 53.8775H33.9116L22.6148 24.8171L21.737 22.4316H16.1783L4 53.8775H10.4001L18.9781 30.0232H19.0227L23.0518 41.3439H17.9237L16.0462 46.5547H24.9038V46.5556Z" fill="white"/>
<path d="M48.1202 48.2817H47.2902C44.3126 48.2817 41.8986 45.9303 41.8986 43.03V40.1372C41.8986 37.2369 44.3126 34.8855 47.2902 34.8855H48.8675V29.5791H47.3406C46.3802 29.5791 45.3959 29.8359 44.3897 30.3487C43.3826 30.8623 42.5545 31.5411 41.9034 32.3857V29.9416H36.0482V63.8837H42.3679V51.4156C43.018 52.0795 43.8005 52.608 44.7143 52.9993C45.6272 53.3915 46.5182 53.5871 47.3863 53.5871H48.8665V48.2808H48.1193L48.1202 48.2817Z" fill="white"/>
</svg>
