<svg width="146" height="31" viewBox="0 0 146 31" fill="none" xmlns="http://www.w3.org/2000/svg">
<g opacity="0.5" clip-path="url(#clip0_647_4377)">
<path d="M-0.930772 0.0583902C-0.810937 0.0353803 -0.712683 -0.00026453 -0.61481 1.48034e-06C3.42402 0.0163611 7.4631 0.0101094 11.5014 0.0691638C12.8777 0.0891146 14.1424 0.597861 15.273 1.44111C17.8539 3.3653 18.0923 8.86241 14.5493 10.8342C14.3691 10.9345 14.1896 11.0359 13.9448 11.1729C14.6181 11.4967 15.2805 11.7138 15.8358 12.1002C17.9668 13.5834 18.8347 16.9022 17.8807 19.8171C17.0482 22.3603 15.0717 23.4105 12.7731 23.9692C12.0182 24.1527 11.2276 24.2479 10.4522 24.2537C6.67682 24.2823 2.90114 24.2664 -0.931152 24.2664C-0.930772 16.2063 -0.930772 8.14512 -0.930772 0.0583902ZM3.10717 20.7186C5.91516 20.7186 8.64215 20.7857 11.3641 20.6944C13.0751 20.6371 14.3116 18.7155 14.2086 16.8463C14.1072 15.0039 13.0244 13.4371 11.3506 13.3552C8.65218 13.2231 5.94638 13.2605 3.24351 13.231C3.20314 13.2307 3.16214 13.293 3.10704 13.3378L3.10717 20.7186ZM3.11656 10.077C5.62636 10.077 8.04679 10.1728 10.4564 10.0452C12.231 9.9512 13.2326 8.46459 13.1662 6.43241C13.1074 4.63311 12.0934 3.55098 10.2678 3.50044C7.97887 3.43753 5.68742 3.46665 3.39685 3.46107C3.30368 3.4608 3.21037 3.51347 3.11656 3.5414V10.077ZM128.272 6.75135H131.639V8.64189C132.013 8.33904 132.47 8.00267 132.891 7.62373C135.471 5.30412 141.589 5.58875 143.683 10.26C145.485 14.2803 145.407 18.3232 142.974 22.066C141.627 24.139 139.541 24.8799 137.178 24.7466C135.125 24.6305 133.317 23.9543 131.895 21.9626V30.7778H128.272C128.272 22.7619 128.272 14.7794 128.272 6.75135ZM131.692 15.6037C131.844 16.484 131.927 17.3855 132.162 18.2412C132.685 20.1506 134.279 21.5626 135.93 21.6845C138.138 21.8477 139.723 20.9929 140.522 18.9417C141.536 16.3349 141.5 13.7059 140.017 11.2697C138.269 8.39583 134.078 8.63604 132.596 11.6466C131.986 12.886 131.688 14.1903 131.692 15.6037ZM125.887 21.7587C125.887 22.4792 125.911 23.2109 125.869 23.9388C125.859 24.1185 125.644 24.422 125.504 24.4346C124.454 24.5262 123.387 24.6866 122.351 24.5733C121.437 24.4733 120.933 23.6617 120.652 22.7232C118.482 24.5737 115.994 24.9739 113.348 24.6303C111.135 24.3432 109.301 22.4392 109.144 20.3252C108.926 17.4116 109.994 15.5144 112.491 14.8237C114.243 14.3396 116.067 14.145 117.857 13.8179C118.292 13.7387 118.731 13.674 119.156 13.5525C119.971 13.3194 120.559 12.8467 120.618 11.8747C120.68 10.87 120.308 10.0871 119.407 9.70687C117.869 9.05846 116.303 9.07456 114.788 9.81699C114.097 10.1556 113.687 10.8371 113.325 11.9947H109.776C109.779 10.5773 110.25 9.38592 111.149 8.38293C112.336 7.05793 113.883 6.53775 115.549 6.35513C117.293 6.164 119.028 6.17251 120.722 6.77117C123.001 7.57625 124.092 9.15143 124.089 11.6732C124.086 14.3501 124.088 17.0269 124.087 19.7042C124.087 21.6041 124.087 21.6041 125.887 21.7587ZM120.402 15.7182C119.284 15.9211 118.261 16.0768 117.251 16.2981C116.189 16.5308 115.106 16.7325 114.093 17.1211C113.1 17.5023 112.763 18.4746 112.796 19.5187C112.827 20.5169 113.478 21.0762 114.317 21.3833C115.755 21.9098 117.197 21.8449 118.569 21.1726C119.552 20.691 120.3 19.9036 120.388 18.7006C120.46 17.6985 120.402 16.6859 120.402 15.7182ZM29.091 6.24553C34.6563 6.17704 37.9199 10.4513 37.5756 16.2712C37.4561 18.2941 36.9373 20.1846 35.6665 21.7834C34.297 23.5059 32.5349 24.413 30.4225 24.6591C28.6585 24.8651 26.9443 24.7441 25.3098 23.9668C22.8757 22.809 21.4872 20.7885 20.9031 18.0963C20.5026 16.2511 20.5201 14.4137 20.9691 12.5884C21.9597 8.56209 24.9188 6.26123 29.091 6.24553ZM24.2464 15.533C24.3925 16.3873 24.4688 17.2629 24.6982 18.0919C25.282 20.2026 26.872 21.5962 28.6898 21.6885C30.9368 21.8026 32.509 20.8123 33.3441 18.6193C34.1594 16.4784 34.1607 14.2874 33.2668 12.1724C31.9424 9.03891 28.3341 8.23769 26.0107 10.5667C24.6858 11.8947 24.3438 13.6593 24.2464 15.533ZM48.3997 6.2458C53.4193 6.23755 56.8347 9.78162 56.8981 15.053C56.9251 17.2789 56.579 19.4014 55.3319 21.266C53.5468 23.9354 50.9684 24.8693 47.9998 24.7277C46.9061 24.6754 45.7722 24.4209 44.7528 24.0016C42.3595 23.0172 40.9324 21.0791 40.2981 18.485C39.7415 16.207 39.8034 13.9434 40.5115 11.7168C41.5975 8.30153 44.5766 6.25178 48.3997 6.2458ZM53.2109 15.0597C53.13 14.5922 53.0501 13.6888 52.8096 12.8349C52.1981 10.6632 50.582 9.34469 48.5458 9.25199C46.6282 9.16447 44.9034 10.3491 44.1596 12.4239C43.2836 14.8676 43.3481 17.3017 44.668 19.5787C46.0431 21.9507 49.1602 22.4705 51.2045 20.7007C52.7642 19.3503 53.1458 17.4858 53.2109 15.0597ZM84.2462 11.6207C83.1008 11.6207 81.9852 11.6305 80.8705 11.6082C80.7331 11.6055 80.5194 11.4613 80.4751 11.3322C79.8482 9.50789 78.3733 9.29096 76.848 9.28178C76.2156 9.27779 75.5427 9.43913 74.9571 9.69649C73.7056 10.2466 73.5664 11.7303 74.7394 12.4409C75.5531 12.934 76.5085 13.1988 77.4263 13.4696C78.7249 13.8528 80.0656 14.0835 81.3558 14.492C84.6548 15.5368 85.9442 19.0023 84.097 21.8593C83.211 23.2294 81.8859 23.971 80.3665 24.3553C78.121 24.9231 75.8853 24.9647 73.6908 24.1344C71.3428 23.2455 70.1024 21.4616 69.9193 18.7615H73.5022C74.5209 21.5475 77.3995 22.6326 80.0963 21.2089C80.7201 20.8793 81.1366 20.4107 81.1782 19.6404C81.2226 18.8171 80.9191 18.1091 80.214 17.8335C78.9567 17.3422 77.6436 17.0053 76.3529 16.6088C75.2837 16.2803 74.1807 16.043 73.149 15.6152C71.1588 14.7894 70.2941 13.3686 70.3063 11.2026C70.3169 9.31344 71.371 7.69476 73.2398 6.98478C75.8119 6.00759 78.437 5.88602 81.0206 6.94647C82.7673 7.66337 83.8084 9.07722 84.2412 10.9808C84.2803 11.1565 84.2462 11.3512 84.2462 11.6207ZM64.794 6.70254H68.1102V9.54367H64.8607C64.8377 9.8839 64.8081 10.122 64.8077 10.3599C64.8046 13.2277 64.8033 16.0952 64.809 18.9624C64.8096 19.344 64.8378 19.7267 64.8737 20.1068C64.9451 20.8651 65.3469 21.3154 66.0755 21.3569C66.7432 21.3954 67.4146 21.3652 68.1217 21.3652V24.206C66.6072 24.5988 65.0678 24.5781 63.5777 24.2303C61.8425 23.8254 61.1375 22.5745 61.1223 20.2067C61.1014 16.9843 61.1161 13.7613 61.1155 10.5385V9.59115H58.3613V6.71757H61.0783V1.45561H64.7944C64.794 3.17683 64.794 4.88542 64.794 6.70254ZM95.8074 24.3155C94.3806 24.3155 93.0298 24.3621 91.6835 24.3022C90.3787 24.2442 89.3738 23.3375 89.0887 21.9843C88.9262 21.2126 88.8401 20.4254 88.8319 19.6352C88.8031 16.6033 88.8199 13.5707 88.8199 10.5384V9.57958H86.0748V6.74404H88.7791V1.46067H92.5023V6.65838H95.8026V9.51454H92.6357C92.598 9.7719 92.5487 9.94987 92.5487 10.1282C92.546 13.2151 92.5365 16.3021 92.5556 19.3887C92.5658 21.0212 92.9737 21.4141 94.5181 21.4026C94.9306 21.3998 95.3437 21.4023 95.8075 21.4023L95.8074 24.3155ZM102.001 6.7612V9.75049C103.43 7.20703 105.409 5.88163 108.332 6.33345V10.0213C106.943 9.80263 105.604 9.76366 104.418 10.6565C102.863 11.8282 102.32 13.5402 102.281 15.4274C102.221 18.3449 102.265 21.265 102.265 24.2478H98.6187V6.76093C99.7234 6.7612 100.805 6.7612 102.001 6.7612Z" fill="#A469FE"/>
</g>
<defs>
<clipPath id="clip0_647_4377">
<rect width="146" height="30.778" fill="white"/>
</clipPath>
</defs>
</svg>
