<svg width="164" height="80" viewBox="0 0 164 80" fill="none" xmlns="http://www.w3.org/2000/svg">
<g clip-path="url(#clip0_638_3147)">
<path d="M97.2329 72.1345C97.2329 72.1345 97.227 72.1106 97.219 72.1066C96.2754 71.6946 96.0027 71.2746 96.0584 70.3272C96.1082 69.4614 96.6974 68.6951 97.5037 68.4423C98.3219 68.1875 98.9868 68.3806 99.5721 69.0733C99.6816 68.5398 99.7831 68.0363 99.8866 67.5327C99.9204 67.3615 99.9682 67.1923 99.9881 67.0212C100.008 66.85 100.11 66.848 100.245 66.838C100.458 66.8241 100.538 66.8758 100.49 67.1107C100.161 68.717 99.8408 70.3252 99.5183 71.9315C99.5044 72.0011 99.4765 72.0668 99.4566 72.1345H99.0246C99.0405 71.9594 99.0585 71.7842 99.0804 71.5473C98.7937 71.8758 98.4334 71.9832 98.0989 72.1345H97.2349H97.2329ZM98.1825 68.7986C96.8965 68.7926 96.4148 70.0287 96.5899 70.8467C96.6855 71.2965 96.9741 71.5573 97.4201 71.6449C98.4493 71.8459 99.2973 71.1731 99.381 70.0904C99.4427 69.2922 98.9828 68.7966 98.1825 68.7966V68.7986Z" fill="#FBFBFB"/>
<path d="M90.3235 72.1343C90.5703 71.7461 90.8152 71.356 91.066 70.9699C91.8524 69.7697 92.6507 68.5754 93.4231 67.3653C93.5724 67.1304 93.7555 67.1364 93.9705 67.1443C94.2074 67.1543 94.1557 67.3672 94.1895 67.4926C94.5936 69.0372 94.9878 70.5857 95.3839 72.1343H94.8285C94.8624 72.0606 94.8226 72.0029 94.7907 71.9412C94.725 71.6068 94.6533 71.2764 94.5379 70.954C94.5279 70.9161 94.52 70.8763 94.51 70.8385C94.514 70.8007 94.4981 70.7828 94.4582 70.7907C93.6779 70.7868 92.8955 70.7987 92.1152 70.7708C91.8086 70.7609 91.6314 70.8604 91.5358 71.1391C91.496 71.2008 91.4562 71.2645 91.4164 71.3262C91.2372 71.5949 91.0581 71.8656 90.8789 72.1343H90.3235ZM92.0256 70.3489C92.802 70.3489 93.5166 70.3469 94.2333 70.3509C94.3786 70.3509 94.4045 70.3051 94.3707 70.1677C94.1636 69.3676 93.9645 68.5655 93.7436 67.6917C93.1603 68.5953 92.6108 69.4412 92.0256 70.3469V70.3489Z" fill="#FBFBFB"/>
<path d="M105.748 72.135C105.748 72.135 105.744 72.1111 105.736 72.1071C104.442 71.514 104.163 70.0829 105.133 69.02C105.69 68.4089 106.618 68.178 107.358 68.4627C107.655 68.5761 107.88 68.7792 108.059 69.0678C108.161 68.9284 108.161 68.7831 108.177 68.6518C108.202 68.4428 108.282 68.3612 108.511 68.3691C108.716 68.3771 108.748 68.4308 108.708 68.6179C108.545 69.3882 108.39 70.1625 108.242 70.9367C108.167 71.3368 108.047 71.7289 108.029 72.139H107.535C107.555 71.9678 107.573 71.7946 107.601 71.5478C107.32 71.8802 106.968 71.9598 106.672 72.139H105.746L105.748 72.135ZM107.906 69.9893C107.918 69.2588 107.488 68.8209 106.757 68.7991C105.569 68.7652 104.963 69.8281 105.099 70.7696C105.172 71.2771 105.479 71.5637 105.987 71.6533C107.038 71.8384 107.89 71.098 107.906 69.9893Z" fill="#FBFBFB"/>
<path d="M133.078 72.1348C133.06 72.1149 133.046 72.079 133.024 72.0751C132.214 71.8681 131.768 71.1973 131.908 70.1543C132.077 68.8884 133.323 68.0604 134.531 68.4306C135.419 68.7033 135.658 69.5154 135.539 70.2678C135.511 70.4429 135.375 70.3932 135.274 70.3932C134.412 70.3971 133.548 70.4051 132.686 70.3892C132.431 70.3852 132.369 70.4668 132.393 70.7037C132.441 71.1635 132.696 71.5098 133.138 71.6173C133.699 71.7526 134.239 71.7009 134.724 71.3505C134.8 71.2948 134.878 71.1774 134.957 71.3446C135.011 71.458 135.172 71.5456 134.987 71.7028C134.73 71.9198 134.402 71.9716 134.125 72.1368H133.076L133.078 72.1348ZM133.765 69.9951C134.135 69.9951 134.504 69.9911 134.874 69.9971C135.029 69.9991 135.093 69.9513 135.089 69.7861C135.077 69.3621 134.838 69.0158 134.436 68.8665C133.659 68.5779 132.787 68.9979 132.511 69.7841C132.453 69.9493 132.477 70.001 132.656 69.9971C133.026 69.9871 133.395 69.9951 133.765 69.9931V69.9951Z" fill="#FBFBFB"/>
<path d="M156.768 72.1342C156.768 72.1342 156.762 72.1084 156.756 72.1064C155.592 71.6088 155.235 70.741 155.725 69.5885C156.119 68.661 157.128 68.1574 158.106 68.4042C158.902 68.6052 159.39 69.4074 159.213 70.2095C159.173 70.3906 159.069 70.3966 158.926 70.3966C158.074 70.3926 157.222 70.4066 156.37 70.3887C156.079 70.3827 156.02 70.4762 156.061 70.741C156.145 71.2664 156.43 71.569 156.955 71.6486C157.471 71.7282 157.959 71.6625 158.391 71.3441C158.48 71.2784 158.554 71.2107 158.628 71.358C158.683 71.4675 158.823 71.563 158.649 71.6924C158.458 71.8357 158.251 71.9412 158.028 72.0228C157.937 72.0566 157.819 72.0307 157.756 72.1323H156.768V72.1342ZM157.445 69.9946C157.803 69.9946 158.164 69.9846 158.522 69.9985C158.727 70.0065 158.763 69.9189 158.747 69.7438C158.707 69.3278 158.506 69.0292 158.118 68.872C157.361 68.5674 156.45 68.9894 156.179 69.7577C156.119 69.9249 156.135 70.0025 156.338 69.9965C156.706 69.9866 157.077 69.9946 157.445 69.9946Z" fill="#FBFBFB"/>
<path d="M119.32 72.1351C119.32 72.1351 119.314 72.1112 119.308 72.1072C118.036 71.5797 117.69 70.3994 118.462 69.241C118.952 68.5065 119.858 68.1781 120.708 68.4249C121.474 68.6479 121.922 69.4261 121.755 70.2123C121.715 70.4014 121.608 70.3974 121.468 70.3974C120.614 70.3954 119.762 70.3974 118.908 70.3974C118.554 70.3974 118.548 70.4074 118.606 70.7637C118.693 71.2931 118.982 71.5757 119.519 71.6534C120.025 71.727 120.505 71.6633 120.925 71.3488C121.034 71.2672 121.104 71.2334 121.186 71.3787C121.253 71.5001 121.341 71.5917 121.174 71.7111C120.935 71.8803 120.68 72.0037 120.397 72.0733C120.357 72.0833 120.318 72.0893 120.306 72.137H119.318L119.32 72.1351ZM119.965 69.9954C120.242 69.9954 120.519 69.9954 120.795 69.9954C121.337 69.9954 121.428 69.8341 121.174 69.3306C121.092 69.1693 120.975 69.0479 120.821 68.9564C120.079 68.5105 118.942 68.9623 118.707 69.7943C118.665 69.9396 118.693 70.0013 118.856 69.9993C119.225 69.9934 119.595 69.9974 119.963 69.9993L119.965 69.9954Z" fill="#FBFBFB"/>
<path d="M128.18 69.6585C128.164 69.7003 128.15 69.7441 128.134 69.7859C127.957 70.2437 127.895 70.7274 127.825 71.2071C127.744 71.5116 127.658 71.8142 127.65 72.1326H127.156C127.154 71.635 127.312 71.1653 127.403 70.6856C127.63 69.4993 127.867 68.313 128.108 67.1307C128.132 67.0093 128.1 66.8381 128.333 66.8361C128.663 66.8342 128.683 66.8401 128.617 67.1646C128.508 67.704 128.4 68.2434 128.273 68.8684C128.789 68.4524 129.304 68.3071 129.88 68.3628C130.64 68.4344 131.074 68.9301 130.996 69.6924C130.917 70.4567 130.714 71.2011 130.57 71.9555C130.558 72.0152 130.556 72.0749 130.55 72.1366H130.057C130.124 71.4041 130.337 70.6975 130.451 69.973C130.467 69.8735 130.469 69.772 130.479 69.6705C130.479 69.6287 130.479 69.5889 130.479 69.5471C130.489 69.4794 130.485 69.4157 130.435 69.362C130.415 69.1649 130.3 69.0415 130.13 68.9579C129.571 68.7031 129.051 68.7649 128.566 69.143C128.476 69.1928 128.406 69.2605 128.363 69.354C128.323 69.4157 128.281 69.4754 128.241 69.5371C128.221 69.5789 128.201 69.6207 128.182 69.6625L128.18 69.6585Z" fill="#FBFBFB"/>
<path d="M141.529 72.1344C141.529 72.0806 141.487 72.0786 141.449 72.0627C140.84 71.794 140.577 71.3481 140.687 70.6834C140.806 69.9648 140.964 69.2542 141.103 68.5377C141.159 68.2531 141.382 68.3844 141.527 68.3844C141.742 68.3844 141.611 68.5496 141.595 68.6332C141.487 69.2184 141.37 69.8016 141.25 70.3848C141.212 70.5679 141.19 70.749 141.202 70.9361C141.23 71.3481 141.461 71.591 141.873 71.6507C142.763 71.7801 143.416 71.3322 143.617 70.4365C143.755 69.8255 143.864 69.2105 143.987 68.5954C144.025 68.4103 144.32 68.2829 144.479 68.3824C144.583 68.4481 144.505 68.5317 144.491 68.6014C144.274 69.7081 144.053 70.8147 143.832 71.9214C143.818 71.991 143.816 72.0607 143.808 72.1324H143.315C143.337 71.9711 143.356 71.8119 143.392 71.5552C143.09 71.8915 142.753 71.9791 142.453 72.1324H141.527L141.529 72.1344Z" fill="#FBFBFB"/>
<path d="M149.18 72.1344C149.164 72.0548 149.086 72.0667 149.034 72.0448C148.541 71.8418 148.3 71.4676 148.312 70.9401C148.328 70.2694 148.545 69.6305 148.65 68.9736C148.672 68.8323 148.718 68.695 148.736 68.5517C148.752 68.4322 148.793 68.3785 148.927 68.3705C149.267 68.3526 149.287 68.3705 149.217 68.7129C149.102 69.2742 148.983 69.8355 148.875 70.4007C148.682 71.4158 149.247 71.9115 150.249 71.6089C150.782 71.4477 151.093 71.0675 151.214 70.546C151.364 69.9071 151.477 69.2622 151.612 68.6193C151.634 68.5118 151.616 68.3785 151.809 68.3685C152.156 68.3526 152.18 68.3646 152.11 68.7049C151.909 69.7101 151.71 70.7152 151.507 71.7204C151.479 71.8597 151.433 71.9951 151.395 72.1324H150.963C150.981 71.9592 150.999 71.7841 151.023 71.5432C150.754 71.8796 150.404 71.9652 150.099 72.1324H149.174L149.18 72.1344Z" fill="#FBFBFB"/>
<path d="M110.637 69.3596C110.381 69.6482 110.331 70.0165 110.253 70.3747C110.128 70.9599 110.004 71.5471 109.881 72.1342H109.387C109.616 70.9778 109.843 69.8214 110.078 68.667C110.1 68.5615 110.062 68.4122 110.239 68.3764C110.524 68.3166 110.612 68.3943 110.564 68.6829C110.556 68.7326 110.554 68.7824 110.544 68.8919C110.936 68.5615 111.34 68.3843 111.816 68.3565C112.895 68.2967 113.454 68.9237 113.249 69.9946C113.128 70.6295 112.994 71.2624 112.869 71.8954C112.853 71.973 112.851 72.0546 112.843 72.1342H112.349C112.345 72.0725 112.339 72.0108 112.335 71.9491C112.365 71.8058 112.427 71.6685 112.411 71.5172C112.505 71.2366 112.55 70.946 112.59 70.6534C112.672 70.3747 112.724 70.0901 112.756 69.8015C112.797 69.6005 112.777 69.4094 112.67 69.2322C112.644 69.1208 112.578 69.0431 112.473 68.9994C112.369 68.9018 112.248 68.8541 112.107 68.856C112.071 68.8162 112.027 68.8142 111.979 68.8262C111.595 68.7804 111.237 68.8421 110.92 69.083C110.799 69.1486 110.699 69.2342 110.637 69.3596Z" fill="#FBFBFB"/>
<path d="M115.433 72.1346C115.433 72.1346 115.425 72.1107 115.417 72.1087C114.493 71.7524 114.153 71.3185 114.161 70.5144C114.17 69.5948 114.696 68.7808 115.516 68.5001C116.249 68.2493 116.975 68.2394 117.591 68.8166C117.835 69.0475 117.81 69.1231 117.515 69.2684C117.411 69.3202 117.362 69.3042 117.28 69.2266C116.607 68.5618 115.502 68.6952 114.971 69.5013C114.71 69.8974 114.63 70.3373 114.698 70.797C114.758 71.2071 114.995 71.5016 115.401 71.6111C115.966 71.7624 116.514 71.7166 116.948 71.2807C117.153 71.0737 117.234 71.2787 117.342 71.3563C117.505 71.4738 117.334 71.5454 117.272 71.6171C117.029 71.8997 116.663 71.9694 116.354 72.1366H115.429L115.433 72.1346Z" fill="#FBFBFB"/>
<path d="M138.137 72.1349C138.333 71.1298 138.516 70.1206 138.731 69.1194C138.79 68.8368 138.715 68.787 138.458 68.797C138.356 68.801 138.141 68.9264 138.147 68.6577C138.153 68.4546 138.237 68.3273 138.47 68.377C138.818 68.4507 138.906 68.2755 138.962 67.959C139.123 67.0375 139.891 66.5837 140.709 66.9021C140.817 66.9439 141.03 66.9439 140.93 67.1728C140.857 67.338 140.791 67.4216 140.566 67.3261C140.009 67.0872 139.601 67.3679 139.437 68.0307C139.372 68.2974 139.396 68.4248 139.712 68.383C139.893 68.3591 140.082 68.371 140.266 68.383C140.349 68.387 140.502 68.3173 140.481 68.5024C140.465 68.6437 140.491 68.8268 140.246 68.8129C140.021 68.801 139.792 68.8288 139.569 68.805C139.332 68.7811 139.28 68.8945 139.242 69.0936C139.047 70.1107 138.838 71.1238 138.635 72.1389H138.141L138.137 72.1349Z" fill="#FBFBFB"/>
<path d="M101.86 72.1349C101.559 70.9446 101.261 69.7543 100.962 68.5641C100.944 68.4944 100.886 68.377 101.028 68.3849C101.187 68.3949 101.41 68.2655 101.476 68.5521C101.619 69.1711 101.772 69.7862 101.922 70.4032C102.007 70.7615 102.095 71.1177 102.182 71.478C102.298 71.4561 102.316 71.3526 102.363 71.279C102.917 70.4171 103.482 69.5613 104.014 68.6855C104.187 68.4008 104.384 68.3113 104.726 68.4088C103.93 69.6568 103.142 70.8948 102.354 72.1329H101.86V72.1349Z" fill="#FBFBFB"/>
<path d="M125.058 72.1341C124.473 71.7978 124.455 71.2922 124.602 70.709C124.731 70.1935 124.795 69.662 124.921 69.1445C124.994 68.84 124.889 68.7624 124.614 68.8062C124.341 68.85 124.311 68.7285 124.375 68.4977C124.417 68.3444 124.518 68.3802 124.614 68.3762C125.066 68.3603 125.06 68.3583 125.163 67.9145C125.191 67.795 125.14 67.6318 125.307 67.5721C125.59 67.4706 125.731 67.594 125.677 67.8886C125.616 68.2137 125.757 68.3762 126.099 68.3762C126.213 68.3762 126.326 68.3623 126.438 68.3802C126.525 68.3942 126.694 68.2887 126.68 68.4897C126.67 68.637 126.694 68.834 126.426 68.8101C126.203 68.7902 125.974 68.8241 125.749 68.8002C125.532 68.7783 125.47 68.8798 125.436 69.0669C125.323 69.6819 125.189 70.291 125.076 70.906C125.032 71.1429 124.962 71.4096 125.203 71.5907C125.432 71.7619 125.687 71.7082 125.938 71.6226C126.021 71.5947 126.121 71.4355 126.191 71.6525C126.236 71.8017 126.28 71.9231 126.091 72.0047C126.014 72.0386 125.906 72.0326 125.864 72.1321H125.062L125.058 72.1341Z" fill="#FBFBFB"/>
<path d="M146.034 72.1343C145.485 71.8377 145.401 71.3759 145.536 70.8107C145.666 70.2733 145.753 69.7259 145.857 69.1845C145.905 68.9364 145.805 68.8103 145.556 68.8063C145.284 68.8024 145.244 68.7307 145.337 68.4799C145.385 68.3525 145.473 68.3804 145.558 68.3764C146.016 68.3545 146.006 68.3545 146.12 67.8967C146.148 67.7813 146.082 67.5942 146.309 67.5663C146.645 67.5245 146.699 67.5743 146.631 67.9067C146.601 68.054 146.572 68.2032 146.536 68.3764C146.838 68.3764 147.115 68.3704 147.392 68.3804C147.481 68.3844 147.645 68.3008 147.635 68.5018C147.627 68.665 147.619 68.8322 147.366 68.8123C147.131 68.7924 146.894 68.8183 146.659 68.8043C146.488 68.7944 146.43 68.866 146.4 69.0253C146.281 69.6801 146.142 70.331 146.022 70.9858C145.917 71.575 146.229 71.8278 146.814 71.6566C146.91 71.6287 147.049 71.3819 147.161 71.6904C147.256 71.9591 147.075 71.981 146.928 72.0547C146.876 72.0806 146.803 72.0646 146.773 72.1363H146.032L146.034 72.1343Z" fill="#FBFBFB"/>
<path d="M152.821 72.1347C153.049 70.9783 153.276 69.8218 153.511 68.6674C153.533 68.5619 153.495 68.4126 153.673 68.3768C153.963 68.3171 154.047 68.3907 153.999 68.6853C153.987 68.755 153.983 68.8266 153.969 68.9699C154.337 68.5838 154.736 68.3808 155.213 68.3688C155.291 68.3688 155.458 68.2773 155.428 68.4584C155.407 68.5938 155.488 68.8047 155.233 68.8485C154.174 69.0316 153.888 69.3282 153.681 70.3931C153.567 70.9763 153.436 71.5555 153.314 72.1367H152.821V72.1347Z" fill="#FBFBFB"/>
<path d="M5 52.4053C5.02 52.4053 5.04 52.4053 5.062 52.4053C5.062 53.0422 5.062 53.6811 5.062 54.3181C5.042 54.3181 5.02 54.3181 5 54.3181C5 53.6811 5 53.0442 5 52.4073V52.4053Z" fill="#FBFBFB"/>
<mask id="path-18-outside-1_638_3147" maskUnits="userSpaceOnUse" x="63.9832" y="-1" width="37" height="42" fill="black">
<rect fill="white" x="63.9832" y="-1" width="37" height="42"/>
<path d="M82.6257 0.00199007C84.3218 0.00199007 85.5302 1.6182 85.0485 3.25233C84.9848 3.46928 85.0166 3.5688 85.2137 3.68026C88.6059 5.62887 91.9942 7.58544 95.3804 9.54599C95.5516 9.64552 95.6532 9.66542 95.8124 9.49424C96.5868 8.67619 97.7295 8.46321 98.7249 8.923C99.7322 9.38875 100.302 10.3959 100.196 11.5344C100.1 12.5714 99.3042 13.4711 98.2272 13.7239C98.0162 13.7736 97.9763 13.8532 97.9763 14.0483C97.9823 17.9634 97.9823 21.8766 97.9763 25.7917C97.9763 25.9888 98.0201 26.0664 98.2272 26.1161C99.3121 26.3749 100.102 27.2666 100.198 28.3036C100.304 29.4401 99.7342 30.4493 98.7269 30.915C97.7255 31.3788 96.5908 31.1578 95.7925 30.3219C95.6531 30.1766 95.5656 30.1825 95.4103 30.2721C92.0061 32.2406 88.6 34.2071 85.1898 36.1677C85.0106 36.2712 84.9907 36.3628 85.0465 36.5518C85.363 37.6207 84.9808 38.7194 84.0869 39.3623C83.213 39.9913 82.0285 39.9953 81.1407 39.3723C80.2468 38.7473 79.8467 37.6366 80.1652 36.5698C80.2349 36.3369 80.1712 36.2513 79.986 36.1438C76.6117 34.2032 73.2414 32.2585 69.8731 30.3099C69.674 30.1945 69.5585 30.1587 69.3674 30.3637C68.6288 31.1578 67.4623 31.3629 66.4769 30.911C65.5193 30.4711 64.9022 29.4381 64.9918 28.421C65.0913 27.2925 65.8338 26.3948 66.9208 26.1301C67.1676 26.0704 67.2373 25.9768 67.2353 25.724C67.2254 21.8507 67.2254 17.9774 67.2353 14.104C67.2353 13.8493 67.1637 13.7637 66.9168 13.702C65.8279 13.4333 65.0893 12.5356 64.9918 11.409C64.9022 10.382 65.5352 9.337 66.5067 8.90707C67.5101 8.46321 68.6567 8.6941 69.4132 9.51415C69.5466 9.65746 69.6282 9.66144 69.7894 9.56789C73.1936 7.59739 76.5998 5.63086 80.0099 3.6723C80.197 3.56482 80.2329 3.47923 80.1692 3.26626C79.6715 1.60427 80.8878 0 82.6317 0L82.6257 0.00199007ZM82.2893 14.0921C82.2893 13.3218 82.2833 12.5515 82.2933 11.7812C82.2953 11.5782 82.2336 11.5225 82.0325 11.5245C80.6967 11.5344 79.3609 11.5324 78.0251 11.5245C77.8639 11.5245 77.7644 11.5623 77.6807 11.7116C77.0039 12.8959 76.3231 14.0782 75.6343 15.2565C75.5327 15.4277 75.5765 15.4973 75.7298 15.5849C77.0656 16.3492 78.3994 17.1175 79.7312 17.8918C79.8725 17.9734 79.9522 17.9714 80.0597 17.838C80.5813 17.2011 81.2521 16.805 82.0644 16.6776C82.2814 16.6438 82.2933 16.5423 82.2933 16.3711C82.2873 15.6108 82.2913 14.8504 82.2913 14.0921H82.2893ZM67.8803 19.912C67.8803 21.8626 67.8943 23.8152 67.8704 25.7658C67.8644 26.1818 68.171 26.0883 68.3661 26.1858C68.589 26.2953 68.6229 26.0923 68.6926 25.9708C69.8233 24.0163 70.95 22.0617 72.0848 20.1091C72.1724 19.9578 72.1763 19.8503 72.0848 19.6951C70.95 17.7445 69.8153 15.7919 68.7045 13.8274C68.5134 13.489 68.3223 13.7159 68.1172 13.7259C67.8783 13.7378 67.8763 13.8771 67.8763 14.0582C67.8803 16.0088 67.8783 17.9614 67.8783 19.912H67.8803ZM82.9224 14.0901C82.9224 14.8604 82.9263 15.6307 82.9184 16.401C82.9184 16.5741 82.9562 16.6438 83.1433 16.6756C83.9536 16.813 84.6304 17.1971 85.148 17.84C85.2535 17.9694 85.3292 17.9813 85.4745 17.8958C86.8043 17.1215 88.1381 16.3512 89.4759 15.5889C89.659 15.4854 89.659 15.3998 89.5615 15.2346C88.8767 14.0662 88.1998 12.8939 87.5289 11.7175C87.4453 11.5722 87.3518 11.5245 87.1885 11.5265C85.8527 11.5324 84.517 11.5344 83.1812 11.5265C82.9841 11.5265 82.9164 11.5742 82.9204 11.7812C82.9323 12.5515 82.9244 13.3218 82.9244 14.0921L82.9224 14.0901ZM73.7769 28.9266C72.6362 28.9266 71.4935 28.9445 70.3528 28.9166C69.9388 28.9067 70.0642 29.2232 69.9607 29.4063C69.8432 29.6153 70.0323 29.6471 70.1438 29.7128C73.4783 31.6395 76.8128 33.5642 80.1473 35.487C80.5574 35.7238 80.5514 35.7139 80.8938 35.4034C81.0252 35.284 81.0431 35.2023 80.9515 35.0471C79.8069 33.0766 78.6682 31.1041 77.5334 29.1276C77.4458 28.9744 77.3443 28.9206 77.1671 28.9226C76.0364 28.9306 74.9057 28.9266 73.7749 28.9266H73.7769ZM91.4686 28.9266C90.3379 28.9266 89.2071 28.9326 88.0784 28.9206C87.8654 28.9186 87.7539 28.9863 87.6464 29.1714C86.5654 31.0583 85.4745 32.9393 84.3876 34.8222C84.1546 35.2262 84.1626 35.2183 84.4732 35.5606C84.5926 35.69 84.6722 35.7139 84.8295 35.6223C88.2396 33.6478 91.6498 31.6753 95.0699 29.7168C95.4103 29.5217 95.1634 29.3227 95.1575 29.1197C95.1535 28.9047 95.0042 28.9226 94.8568 28.9226C93.7261 28.9226 92.5954 28.9226 91.4666 28.9226L91.4686 28.9266ZM82.2893 25.7101C82.2893 24.9597 82.2853 24.2113 82.2913 23.4609C82.2913 23.2898 82.2794 23.1922 82.0624 23.1584C81.2501 23.029 80.5773 22.6349 80.0577 21.996C79.9482 21.8626 79.8686 21.8606 79.7272 21.9442C78.3974 22.7185 77.0636 23.4868 75.7278 24.2491C75.5785 24.3347 75.5526 24.4044 75.6422 24.5557C76.331 25.734 77.0119 26.9163 77.6907 28.0986C77.7604 28.22 77.844 28.2678 77.9853 28.2678C79.341 28.2638 80.6967 28.2618 82.0544 28.2678C82.2475 28.2678 82.2973 28.2001 82.2953 28.017C82.2873 27.2467 82.2913 26.4764 82.2913 25.7061L82.2893 25.7101ZM79.5819 18.5984C79.568 18.5048 79.4784 18.4829 79.4107 18.4451C78.0689 17.6708 76.7252 16.8986 75.3874 16.1183C75.2341 16.0288 75.1704 16.0526 75.0868 16.2019C74.4159 17.3763 73.7371 18.5486 73.0543 19.717C72.9766 19.8503 72.9806 19.9499 73.0582 20.0812C73.7451 21.2595 74.4279 22.4399 75.1047 23.6241C75.1903 23.7734 75.256 23.7894 75.4073 23.7018C76.7371 22.9255 78.0689 22.1572 79.4067 21.3949C79.568 21.3033 79.5879 21.2277 79.5262 21.0605C79.2395 20.3022 79.2435 19.5378 79.5182 18.7735C79.5381 18.7158 79.56 18.6581 79.5839 18.5944L79.5819 18.5984ZM92.241 19.8961C92.2072 19.8324 92.1813 19.7787 92.1494 19.7249C91.4726 18.5526 90.7918 17.3822 90.1229 16.2079C90.0253 16.0367 89.9517 16.0427 89.7964 16.1342C88.4666 16.9085 87.1348 17.6768 85.799 18.4391C85.6377 18.5307 85.6238 18.6123 85.6855 18.7795C85.9682 19.5378 85.9682 20.3061 85.6855 21.0645C85.6218 21.2357 85.6457 21.3113 85.805 21.4009C87.1328 22.1572 88.4566 22.9195 89.7765 23.6918C89.9477 23.7933 90.0233 23.7734 90.1209 23.6023C90.7918 22.4259 91.4706 21.2576 92.1475 20.0852C92.1833 20.0235 92.2132 19.9598 92.243 19.8981L92.241 19.8961ZM82.9224 25.724C82.9224 26.4625 82.9323 27.2029 82.9164 27.9413C82.9104 28.1882 82.9642 28.2737 83.2309 28.2698C84.5369 28.2558 85.8408 28.2578 87.1467 28.2698C87.3498 28.2698 87.4593 28.2041 87.5588 28.0309C88.2118 26.8805 88.8707 25.732 89.5456 24.5935C89.663 24.3944 89.6152 24.3268 89.4401 24.2272C88.1202 23.4749 86.8063 22.7145 85.4924 21.9502C85.3451 21.8646 85.2595 21.8547 85.14 22.004C84.6304 22.6369 83.9615 23.0191 83.1632 23.1564C82.9642 23.1902 82.9164 23.2579 82.9184 23.447C82.9283 24.2073 82.9224 24.9677 82.9224 25.726V25.724ZM97.3114 19.93C97.3114 17.9794 97.2975 16.0268 97.3234 14.0762C97.3294 13.6582 97.0268 13.7557 96.8317 13.6542C96.6107 13.5407 96.5709 13.7298 96.4992 13.8532C95.3784 15.7899 94.2636 17.7286 93.1389 19.6612C93.0373 19.8344 93.0353 19.9578 93.1389 20.133C94.2736 22.0836 95.4003 24.0401 96.5291 25.9967C96.6087 26.1341 96.6644 26.2813 96.8735 26.1739C97.0546 26.0803 97.3294 26.1659 97.3254 25.7837C97.3035 23.8331 97.3154 21.8806 97.3154 19.93H97.3114ZM73.7431 10.8636C74.8838 10.8636 76.0244 10.8597 77.1651 10.8676C77.3562 10.8676 77.4558 10.8059 77.5494 10.6427C78.6681 8.6941 79.785 6.74549 80.9257 4.81081C81.1247 4.47444 80.8221 4.42269 80.7166 4.25151C80.5892 4.0465 80.4658 4.16791 80.3344 4.24355C76.9402 6.20211 73.544 8.16067 70.1498 10.1232C70.0443 10.1849 69.8492 10.2048 69.9567 10.4258C70.0482 10.6129 69.9746 10.8855 70.3528 10.8756C71.4816 10.8477 72.6123 10.8656 73.7431 10.8656V10.8636ZM91.4328 10.8636C92.5735 10.8636 93.7142 10.8457 94.8549 10.8736C95.2192 10.8816 95.1475 10.6208 95.2351 10.4457C95.3326 10.2526 95.1893 10.1969 95.0639 10.1232C91.6597 8.15868 88.2516 6.19813 84.8534 4.22165C84.509 4.02062 84.4672 4.34705 84.294 4.44458C84.1009 4.55405 84.2163 4.68144 84.286 4.80285C85.4108 6.74947 86.5356 8.69211 87.6544 10.6427C87.7479 10.8059 87.8494 10.8696 88.0406 10.8676C89.1713 10.8597 90.302 10.8636 91.4328 10.8636ZM79.8228 19.924C79.8228 21.4685 81.057 22.6986 82.6019 22.6986C84.1447 22.6986 85.3849 21.4646 85.3889 19.926C85.3929 18.3735 84.1447 17.1314 82.5879 17.1354C81.0471 17.1394 79.8188 18.3774 79.8208 19.924H79.8228ZM76.9959 28.2339C76.9561 28.1543 76.9203 28.0727 76.8765 27.9971C76.2872 26.976 75.692 25.9589 75.1127 24.9318C74.9992 24.7308 74.9236 24.7069 74.7205 24.8264C73.1996 25.7181 71.6747 26.6078 70.1358 27.4656C69.7735 27.6667 70.0323 27.8717 70.0343 28.0787C70.0343 28.3195 70.2175 28.2757 70.3668 28.2757C72.4809 28.2757 74.5971 28.2757 76.7113 28.2757C76.7988 28.2757 76.8944 28.3056 76.9959 28.2359V28.2339ZM91.6856 28.2757C92.7427 28.2757 93.7998 28.2598 94.8568 28.2837C95.249 28.2936 95.1336 27.9891 95.2311 27.812C95.3287 27.6368 95.2232 27.5632 95.0838 27.4835C93.537 26.5958 91.9902 25.7061 90.4494 24.8064C90.2622 24.697 90.1985 24.7487 90.105 24.9119C89.5177 25.945 88.9245 26.976 88.3213 28.0011C88.1859 28.23 88.2118 28.2837 88.4805 28.2817C89.5476 28.2717 90.6166 28.2777 91.6836 28.2777L91.6856 28.2757ZM91.6737 11.5304C90.6046 11.5304 89.5376 11.5364 88.4686 11.5265C88.2237 11.5245 88.1879 11.5702 88.3153 11.7872C88.9165 12.8123 89.5117 13.8433 90.099 14.8783C90.2105 15.0773 90.2901 15.1251 90.5091 14.9957C91.9504 14.1498 93.4016 13.3178 94.8509 12.4838C95.2729 12.241 95.257 12.245 95.1694 11.7753C95.1296 11.5623 95.044 11.5245 94.8489 11.5265C93.7918 11.5364 92.7327 11.5304 91.6756 11.5304H91.6737ZM77.0318 11.5304C74.8479 11.5304 72.7298 11.5304 70.6116 11.5304C70.104 11.5304 70.112 11.5324 69.9686 12.0041C69.9169 12.1713 69.9447 12.253 70.102 12.3425C71.6528 13.2282 73.2016 14.12 74.7444 15.0216C74.9116 15.1191 74.9813 15.0992 75.0729 14.936C75.5686 14.0602 76.0742 13.1904 76.5759 12.3186C76.7172 12.0718 76.8606 11.827 77.0318 11.5304ZM92.6352 20.5649C92.5675 20.6744 92.5098 20.756 92.46 20.8435C91.8707 21.8646 91.2855 22.8917 90.6863 23.9068C90.5748 24.0959 90.5967 24.1675 90.7838 24.275C92.2649 25.1189 93.744 25.9629 95.2092 26.8327C95.5178 27.0158 95.7029 27.0277 95.9398 26.7352C96.0632 26.5839 96.0752 26.5003 95.9836 26.347C95.5914 25.6842 95.2112 25.0154 94.825 24.3506C94.1004 23.0987 93.3777 21.8467 92.6372 20.5669L92.6352 20.5649ZM82.2893 31.8784C82.2893 30.9847 82.2833 30.093 82.2933 29.1993C82.2953 28.9863 82.2375 28.9186 82.0186 28.9206C80.8281 28.9306 79.6356 28.9286 78.4452 28.9226C78.2501 28.9226 78.1744 28.9425 78.2959 29.1515C79.3729 31.0046 80.4479 32.8577 81.5109 34.7187C81.708 35.063 81.915 34.7704 82.1161 34.7784C82.3271 34.7864 82.2893 34.6212 82.2893 34.4938C82.2893 33.622 82.2893 32.7482 82.2893 31.8764V31.8784ZM72.6024 20.5947C72.5725 20.6127 72.5486 20.6186 72.5407 20.6326C71.4199 22.5672 70.2991 24.5019 69.1763 26.4346C69.1206 26.5301 69.1206 26.5958 69.2101 26.6695C69.2977 26.7391 69.3813 26.8188 69.449 26.9083C69.5406 27.0277 69.6202 27.0397 69.7576 26.9601C71.3183 26.0524 72.8831 25.1508 74.4498 24.2511C74.5652 24.1854 74.6548 24.1377 74.5593 23.9745C73.9023 22.8499 73.2533 21.7213 72.6024 20.5928V20.5947ZM86.9775 28.9545C86.9556 28.9445 86.9397 28.9286 86.9218 28.9286C85.6576 28.9266 84.3935 28.9306 83.1294 28.9206C82.8985 28.9206 82.9204 29.046 82.9204 29.1953C82.9204 30.9628 82.9323 32.7283 82.9124 34.4958C82.9084 34.8938 83.217 34.7585 83.3882 34.86C83.5833 34.9754 83.6331 34.8122 83.7027 34.6908C84.7558 32.8696 85.8089 31.0484 86.8581 29.2271C86.9058 29.1435 86.9895 29.0679 86.9755 28.9545H86.9775ZM78.1784 10.8636C79.5321 10.8636 80.8162 10.8597 82.1002 10.8676C82.347 10.8676 82.2893 10.7064 82.2893 10.575C82.2893 8.82945 82.2794 7.08585 82.2993 5.34026C82.3032 4.94616 82.0086 5.0636 81.8314 4.96607C81.6324 4.8566 81.5667 4.99393 81.485 5.13724C80.7445 6.42703 79.998 7.71283 79.2534 8.99863C78.9051 9.59974 78.5607 10.2008 78.1784 10.8636ZM92.6252 19.2413C92.7168 19.088 92.7885 18.9666 92.8582 18.8452C93.8535 17.1235 94.8489 15.3998 95.8443 13.6781C96.0871 13.2581 96.0832 13.2621 95.7368 12.9098C95.6392 12.8103 95.5715 12.7963 95.4521 12.87C95.1634 13.0471 94.8668 13.2103 94.5742 13.3795C93.33 14.0961 92.0897 14.8206 90.8395 15.5272C90.6106 15.6565 90.5927 15.7561 90.7281 15.969C90.9709 16.3492 91.1839 16.7473 91.4109 17.1374C91.811 17.8281 92.2092 18.5188 92.6272 19.2413H92.6252ZM72.5725 19.2333C72.6382 19.1318 72.688 19.0582 72.7338 18.9805C73.319 17.9674 73.8944 16.9503 74.4916 15.9452C74.623 15.7242 74.5712 15.6466 74.3721 15.5331C72.8651 14.6733 71.3582 13.8154 69.8711 12.9277C69.5645 12.7446 69.4789 12.9396 69.2977 13.077C69.0748 13.2462 69.1843 13.3775 69.2798 13.5407C70.1657 15.0674 71.0476 16.594 71.9295 18.1207C72.1385 18.4829 72.3495 18.8452 72.5725 19.2313V19.2333ZM87.0193 10.8636C86.9317 10.7044 86.874 10.5989 86.8143 10.4934C85.8249 8.77969 84.8335 7.06396 83.8441 5.35022C83.5793 4.89242 83.5833 4.89839 83.0756 5.03971C82.9423 5.07554 82.9224 5.13724 82.9224 5.25069C82.9224 7.05799 82.9244 8.86528 82.9224 10.6726C82.9224 10.8199 82.9701 10.8656 83.1175 10.8656C84.4015 10.8617 85.6855 10.8636 87.0233 10.8636H87.0193ZM82.6038 39.2289C83.6848 39.2289 84.5388 38.381 84.5448 37.3022C84.5528 36.2175 83.6789 35.3357 82.5999 35.3377C81.5388 35.3397 80.6549 36.2155 80.647 37.2744C80.639 38.3532 81.5149 39.2289 82.6019 39.2309L82.6038 39.2289ZM97.6459 30.5388C98.7428 30.5448 99.6048 29.6889 99.6028 28.5942C99.6028 27.5234 98.7388 26.6516 97.6718 26.6456C96.5988 26.6396 95.7049 27.5273 95.7049 28.6002C95.7049 29.665 96.5729 30.5348 97.6459 30.5388ZM69.4829 28.5922C69.4829 27.5194 68.6209 26.6535 67.5499 26.6456C66.4769 26.6376 65.589 27.5254 65.589 28.6022C65.589 29.671 66.453 30.5348 67.528 30.5388C68.6229 30.5448 69.4849 29.6869 69.4829 28.5922ZM67.5339 9.30117C66.4589 9.30117 65.593 10.161 65.589 11.2319C65.583 12.3107 66.4629 13.1944 67.5419 13.1924C68.6269 13.1924 69.4869 12.3166 69.4809 11.2239C69.4749 10.1491 68.6149 9.29918 67.5339 9.30117ZM97.6658 9.30117C96.5908 9.29918 95.7188 10.1531 95.7049 11.2199C95.691 12.2908 96.5788 13.1884 97.6519 13.1904C98.7368 13.1904 99.6068 12.3206 99.6028 11.2339C99.5988 10.1551 98.7448 9.30316 97.6658 9.30117ZM84.5448 2.52185C84.5388 1.44305 83.6828 0.593141 82.6019 0.593141C81.5169 0.593141 80.635 1.47688 80.647 2.54971C80.6589 3.61259 81.5388 4.48439 82.5999 4.48837C83.6769 4.49036 84.5508 3.60662 84.5428 2.51986L84.5448 2.52185Z"/>
</mask>
<path d="M82.6257 0.00199007C84.3218 0.00199007 85.5302 1.6182 85.0485 3.25233C84.9848 3.46928 85.0166 3.5688 85.2137 3.68026C88.6059 5.62887 91.9942 7.58544 95.3804 9.54599C95.5516 9.64552 95.6532 9.66542 95.8124 9.49424C96.5868 8.67619 97.7295 8.46321 98.7249 8.923C99.7322 9.38875 100.302 10.3959 100.196 11.5344C100.1 12.5714 99.3042 13.4711 98.2272 13.7239C98.0162 13.7736 97.9763 13.8532 97.9763 14.0483C97.9823 17.9634 97.9823 21.8766 97.9763 25.7917C97.9763 25.9888 98.0201 26.0664 98.2272 26.1161C99.3121 26.3749 100.102 27.2666 100.198 28.3036C100.304 29.4401 99.7342 30.4493 98.7269 30.915C97.7255 31.3788 96.5908 31.1578 95.7925 30.3219C95.6531 30.1766 95.5656 30.1825 95.4103 30.2721C92.0061 32.2406 88.6 34.2071 85.1898 36.1677C85.0106 36.2712 84.9907 36.3628 85.0465 36.5518C85.363 37.6207 84.9808 38.7194 84.0869 39.3623C83.213 39.9913 82.0285 39.9953 81.1407 39.3723C80.2468 38.7473 79.8467 37.6366 80.1652 36.5698C80.2349 36.3369 80.1712 36.2513 79.986 36.1438C76.6117 34.2032 73.2414 32.2585 69.8731 30.3099C69.674 30.1945 69.5585 30.1587 69.3674 30.3637C68.6288 31.1578 67.4623 31.3629 66.4769 30.911C65.5193 30.4711 64.9022 29.4381 64.9918 28.421C65.0913 27.2925 65.8338 26.3948 66.9208 26.1301C67.1676 26.0704 67.2373 25.9768 67.2353 25.724C67.2254 21.8507 67.2254 17.9774 67.2353 14.104C67.2353 13.8493 67.1637 13.7637 66.9168 13.702C65.8279 13.4333 65.0893 12.5356 64.9918 11.409C64.9022 10.382 65.5352 9.337 66.5067 8.90707C67.5101 8.46321 68.6567 8.6941 69.4132 9.51415C69.5466 9.65746 69.6282 9.66144 69.7894 9.56789C73.1936 7.59739 76.5998 5.63086 80.0099 3.6723C80.197 3.56482 80.2329 3.47923 80.1692 3.26626C79.6715 1.60427 80.8878 0 82.6317 0L82.6257 0.00199007ZM82.2893 14.0921C82.2893 13.3218 82.2833 12.5515 82.2933 11.7812C82.2953 11.5782 82.2336 11.5225 82.0325 11.5245C80.6967 11.5344 79.3609 11.5324 78.0251 11.5245C77.8639 11.5245 77.7644 11.5623 77.6807 11.7116C77.0039 12.8959 76.3231 14.0782 75.6343 15.2565C75.5327 15.4277 75.5765 15.4973 75.7298 15.5849C77.0656 16.3492 78.3994 17.1175 79.7312 17.8918C79.8725 17.9734 79.9522 17.9714 80.0597 17.838C80.5813 17.2011 81.2521 16.805 82.0644 16.6776C82.2814 16.6438 82.2933 16.5423 82.2933 16.3711C82.2873 15.6108 82.2913 14.8504 82.2913 14.0921H82.2893ZM67.8803 19.912C67.8803 21.8626 67.8943 23.8152 67.8704 25.7658C67.8644 26.1818 68.171 26.0883 68.3661 26.1858C68.589 26.2953 68.6229 26.0923 68.6926 25.9708C69.8233 24.0163 70.95 22.0617 72.0848 20.1091C72.1724 19.9578 72.1763 19.8503 72.0848 19.6951C70.95 17.7445 69.8153 15.7919 68.7045 13.8274C68.5134 13.489 68.3223 13.7159 68.1172 13.7259C67.8783 13.7378 67.8763 13.8771 67.8763 14.0582C67.8803 16.0088 67.8783 17.9614 67.8783 19.912H67.8803ZM82.9224 14.0901C82.9224 14.8604 82.9263 15.6307 82.9184 16.401C82.9184 16.5741 82.9562 16.6438 83.1433 16.6756C83.9536 16.813 84.6304 17.1971 85.148 17.84C85.2535 17.9694 85.3292 17.9813 85.4745 17.8958C86.8043 17.1215 88.1381 16.3512 89.4759 15.5889C89.659 15.4854 89.659 15.3998 89.5615 15.2346C88.8767 14.0662 88.1998 12.8939 87.5289 11.7175C87.4453 11.5722 87.3518 11.5245 87.1885 11.5265C85.8527 11.5324 84.517 11.5344 83.1812 11.5265C82.9841 11.5265 82.9164 11.5742 82.9204 11.7812C82.9323 12.5515 82.9244 13.3218 82.9244 14.0921L82.9224 14.0901ZM73.7769 28.9266C72.6362 28.9266 71.4935 28.9445 70.3528 28.9166C69.9388 28.9067 70.0642 29.2232 69.9607 29.4063C69.8432 29.6153 70.0323 29.6471 70.1438 29.7128C73.4783 31.6395 76.8128 33.5642 80.1473 35.487C80.5574 35.7238 80.5514 35.7139 80.8938 35.4034C81.0252 35.284 81.0431 35.2023 80.9515 35.0471C79.8069 33.0766 78.6682 31.1041 77.5334 29.1276C77.4458 28.9744 77.3443 28.9206 77.1671 28.9226C76.0364 28.9306 74.9057 28.9266 73.7749 28.9266H73.7769ZM91.4686 28.9266C90.3379 28.9266 89.2071 28.9326 88.0784 28.9206C87.8654 28.9186 87.7539 28.9863 87.6464 29.1714C86.5654 31.0583 85.4745 32.9393 84.3876 34.8222C84.1546 35.2262 84.1626 35.2183 84.4732 35.5606C84.5926 35.69 84.6722 35.7139 84.8295 35.6223C88.2396 33.6478 91.6498 31.6753 95.0699 29.7168C95.4103 29.5217 95.1634 29.3227 95.1575 29.1197C95.1535 28.9047 95.0042 28.9226 94.8568 28.9226C93.7261 28.9226 92.5954 28.9226 91.4666 28.9226L91.4686 28.9266ZM82.2893 25.7101C82.2893 24.9597 82.2853 24.2113 82.2913 23.4609C82.2913 23.2898 82.2794 23.1922 82.0624 23.1584C81.2501 23.029 80.5773 22.6349 80.0577 21.996C79.9482 21.8626 79.8686 21.8606 79.7272 21.9442C78.3974 22.7185 77.0636 23.4868 75.7278 24.2491C75.5785 24.3347 75.5526 24.4044 75.6422 24.5557C76.331 25.734 77.0119 26.9163 77.6907 28.0986C77.7604 28.22 77.844 28.2678 77.9853 28.2678C79.341 28.2638 80.6967 28.2618 82.0544 28.2678C82.2475 28.2678 82.2973 28.2001 82.2953 28.017C82.2873 27.2467 82.2913 26.4764 82.2913 25.7061L82.2893 25.7101ZM79.5819 18.5984C79.568 18.5048 79.4784 18.4829 79.4107 18.4451C78.0689 17.6708 76.7252 16.8986 75.3874 16.1183C75.2341 16.0288 75.1704 16.0526 75.0868 16.2019C74.4159 17.3763 73.7371 18.5486 73.0543 19.717C72.9766 19.8503 72.9806 19.9499 73.0582 20.0812C73.7451 21.2595 74.4279 22.4399 75.1047 23.6241C75.1903 23.7734 75.256 23.7894 75.4073 23.7018C76.7371 22.9255 78.0689 22.1572 79.4067 21.3949C79.568 21.3033 79.5879 21.2277 79.5262 21.0605C79.2395 20.3022 79.2435 19.5378 79.5182 18.7735C79.5381 18.7158 79.56 18.6581 79.5839 18.5944L79.5819 18.5984ZM92.241 19.8961C92.2072 19.8324 92.1813 19.7787 92.1494 19.7249C91.4726 18.5526 90.7918 17.3822 90.1229 16.2079C90.0253 16.0367 89.9517 16.0427 89.7964 16.1342C88.4666 16.9085 87.1348 17.6768 85.799 18.4391C85.6377 18.5307 85.6238 18.6123 85.6855 18.7795C85.9682 19.5378 85.9682 20.3061 85.6855 21.0645C85.6218 21.2357 85.6457 21.3113 85.805 21.4009C87.1328 22.1572 88.4566 22.9195 89.7765 23.6918C89.9477 23.7933 90.0233 23.7734 90.1209 23.6023C90.7918 22.4259 91.4706 21.2576 92.1475 20.0852C92.1833 20.0235 92.2132 19.9598 92.243 19.8981L92.241 19.8961ZM82.9224 25.724C82.9224 26.4625 82.9323 27.2029 82.9164 27.9413C82.9104 28.1882 82.9642 28.2737 83.2309 28.2698C84.5369 28.2558 85.8408 28.2578 87.1467 28.2698C87.3498 28.2698 87.4593 28.2041 87.5588 28.0309C88.2118 26.8805 88.8707 25.732 89.5456 24.5935C89.663 24.3944 89.6152 24.3268 89.4401 24.2272C88.1202 23.4749 86.8063 22.7145 85.4924 21.9502C85.3451 21.8646 85.2595 21.8547 85.14 22.004C84.6304 22.6369 83.9615 23.0191 83.1632 23.1564C82.9642 23.1902 82.9164 23.2579 82.9184 23.447C82.9283 24.2073 82.9224 24.9677 82.9224 25.726V25.724ZM97.3114 19.93C97.3114 17.9794 97.2975 16.0268 97.3234 14.0762C97.3294 13.6582 97.0268 13.7557 96.8317 13.6542C96.6107 13.5407 96.5709 13.7298 96.4992 13.8532C95.3784 15.7899 94.2636 17.7286 93.1389 19.6612C93.0373 19.8344 93.0353 19.9578 93.1389 20.133C94.2736 22.0836 95.4003 24.0401 96.5291 25.9967C96.6087 26.1341 96.6644 26.2813 96.8735 26.1739C97.0546 26.0803 97.3294 26.1659 97.3254 25.7837C97.3035 23.8331 97.3154 21.8806 97.3154 19.93H97.3114ZM73.7431 10.8636C74.8838 10.8636 76.0244 10.8597 77.1651 10.8676C77.3562 10.8676 77.4558 10.8059 77.5494 10.6427C78.6681 8.6941 79.785 6.74549 80.9257 4.81081C81.1247 4.47444 80.8221 4.42269 80.7166 4.25151C80.5892 4.0465 80.4658 4.16791 80.3344 4.24355C76.9402 6.20211 73.544 8.16067 70.1498 10.1232C70.0443 10.1849 69.8492 10.2048 69.9567 10.4258C70.0482 10.6129 69.9746 10.8855 70.3528 10.8756C71.4816 10.8477 72.6123 10.8656 73.7431 10.8656V10.8636ZM91.4328 10.8636C92.5735 10.8636 93.7142 10.8457 94.8549 10.8736C95.2192 10.8816 95.1475 10.6208 95.2351 10.4457C95.3326 10.2526 95.1893 10.1969 95.0639 10.1232C91.6597 8.15868 88.2516 6.19813 84.8534 4.22165C84.509 4.02062 84.4672 4.34705 84.294 4.44458C84.1009 4.55405 84.2163 4.68144 84.286 4.80285C85.4108 6.74947 86.5356 8.69211 87.6544 10.6427C87.7479 10.8059 87.8494 10.8696 88.0406 10.8676C89.1713 10.8597 90.302 10.8636 91.4328 10.8636ZM79.8228 19.924C79.8228 21.4685 81.057 22.6986 82.6019 22.6986C84.1447 22.6986 85.3849 21.4646 85.3889 19.926C85.3929 18.3735 84.1447 17.1314 82.5879 17.1354C81.0471 17.1394 79.8188 18.3774 79.8208 19.924H79.8228ZM76.9959 28.2339C76.9561 28.1543 76.9203 28.0727 76.8765 27.9971C76.2872 26.976 75.692 25.9589 75.1127 24.9318C74.9992 24.7308 74.9236 24.7069 74.7205 24.8264C73.1996 25.7181 71.6747 26.6078 70.1358 27.4656C69.7735 27.6667 70.0323 27.8717 70.0343 28.0787C70.0343 28.3195 70.2175 28.2757 70.3668 28.2757C72.4809 28.2757 74.5971 28.2757 76.7113 28.2757C76.7988 28.2757 76.8944 28.3056 76.9959 28.2359V28.2339ZM91.6856 28.2757C92.7427 28.2757 93.7998 28.2598 94.8568 28.2837C95.249 28.2936 95.1336 27.9891 95.2311 27.812C95.3287 27.6368 95.2232 27.5632 95.0838 27.4835C93.537 26.5958 91.9902 25.7061 90.4494 24.8064C90.2622 24.697 90.1985 24.7487 90.105 24.9119C89.5177 25.945 88.9245 26.976 88.3213 28.0011C88.1859 28.23 88.2118 28.2837 88.4805 28.2817C89.5476 28.2717 90.6166 28.2777 91.6836 28.2777L91.6856 28.2757ZM91.6737 11.5304C90.6046 11.5304 89.5376 11.5364 88.4686 11.5265C88.2237 11.5245 88.1879 11.5702 88.3153 11.7872C88.9165 12.8123 89.5117 13.8433 90.099 14.8783C90.2105 15.0773 90.2901 15.1251 90.5091 14.9957C91.9504 14.1498 93.4016 13.3178 94.8509 12.4838C95.2729 12.241 95.257 12.245 95.1694 11.7753C95.1296 11.5623 95.044 11.5245 94.8489 11.5265C93.7918 11.5364 92.7327 11.5304 91.6756 11.5304H91.6737ZM77.0318 11.5304C74.8479 11.5304 72.7298 11.5304 70.6116 11.5304C70.104 11.5304 70.112 11.5324 69.9686 12.0041C69.9169 12.1713 69.9447 12.253 70.102 12.3425C71.6528 13.2282 73.2016 14.12 74.7444 15.0216C74.9116 15.1191 74.9813 15.0992 75.0729 14.936C75.5686 14.0602 76.0742 13.1904 76.5759 12.3186C76.7172 12.0718 76.8606 11.827 77.0318 11.5304ZM92.6352 20.5649C92.5675 20.6744 92.5098 20.756 92.46 20.8435C91.8707 21.8646 91.2855 22.8917 90.6863 23.9068C90.5748 24.0959 90.5967 24.1675 90.7838 24.275C92.2649 25.1189 93.744 25.9629 95.2092 26.8327C95.5178 27.0158 95.7029 27.0277 95.9398 26.7352C96.0632 26.5839 96.0752 26.5003 95.9836 26.347C95.5914 25.6842 95.2112 25.0154 94.825 24.3506C94.1004 23.0987 93.3777 21.8467 92.6372 20.5669L92.6352 20.5649ZM82.2893 31.8784C82.2893 30.9847 82.2833 30.093 82.2933 29.1993C82.2953 28.9863 82.2375 28.9186 82.0186 28.9206C80.8281 28.9306 79.6356 28.9286 78.4452 28.9226C78.2501 28.9226 78.1744 28.9425 78.2959 29.1515C79.3729 31.0046 80.4479 32.8577 81.5109 34.7187C81.708 35.063 81.915 34.7704 82.1161 34.7784C82.3271 34.7864 82.2893 34.6212 82.2893 34.4938C82.2893 33.622 82.2893 32.7482 82.2893 31.8764V31.8784ZM72.6024 20.5947C72.5725 20.6127 72.5486 20.6186 72.5407 20.6326C71.4199 22.5672 70.2991 24.5019 69.1763 26.4346C69.1206 26.5301 69.1206 26.5958 69.2101 26.6695C69.2977 26.7391 69.3813 26.8188 69.449 26.9083C69.5406 27.0277 69.6202 27.0397 69.7576 26.9601C71.3183 26.0524 72.8831 25.1508 74.4498 24.2511C74.5652 24.1854 74.6548 24.1377 74.5593 23.9745C73.9023 22.8499 73.2533 21.7213 72.6024 20.5928V20.5947ZM86.9775 28.9545C86.9556 28.9445 86.9397 28.9286 86.9218 28.9286C85.6576 28.9266 84.3935 28.9306 83.1294 28.9206C82.8985 28.9206 82.9204 29.046 82.9204 29.1953C82.9204 30.9628 82.9323 32.7283 82.9124 34.4958C82.9084 34.8938 83.217 34.7585 83.3882 34.86C83.5833 34.9754 83.6331 34.8122 83.7027 34.6908C84.7558 32.8696 85.8089 31.0484 86.8581 29.2271C86.9058 29.1435 86.9895 29.0679 86.9755 28.9545H86.9775ZM78.1784 10.8636C79.5321 10.8636 80.8162 10.8597 82.1002 10.8676C82.347 10.8676 82.2893 10.7064 82.2893 10.575C82.2893 8.82945 82.2794 7.08585 82.2993 5.34026C82.3032 4.94616 82.0086 5.0636 81.8314 4.96607C81.6324 4.8566 81.5667 4.99393 81.485 5.13724C80.7445 6.42703 79.998 7.71283 79.2534 8.99863C78.9051 9.59974 78.5607 10.2008 78.1784 10.8636ZM92.6252 19.2413C92.7168 19.088 92.7885 18.9666 92.8582 18.8452C93.8535 17.1235 94.8489 15.3998 95.8443 13.6781C96.0871 13.2581 96.0832 13.2621 95.7368 12.9098C95.6392 12.8103 95.5715 12.7963 95.4521 12.87C95.1634 13.0471 94.8668 13.2103 94.5742 13.3795C93.33 14.0961 92.0897 14.8206 90.8395 15.5272C90.6106 15.6565 90.5927 15.7561 90.7281 15.969C90.9709 16.3492 91.1839 16.7473 91.4109 17.1374C91.811 17.8281 92.2092 18.5188 92.6272 19.2413H92.6252ZM72.5725 19.2333C72.6382 19.1318 72.688 19.0582 72.7338 18.9805C73.319 17.9674 73.8944 16.9503 74.4916 15.9452C74.623 15.7242 74.5712 15.6466 74.3721 15.5331C72.8651 14.6733 71.3582 13.8154 69.8711 12.9277C69.5645 12.7446 69.4789 12.9396 69.2977 13.077C69.0748 13.2462 69.1843 13.3775 69.2798 13.5407C70.1657 15.0674 71.0476 16.594 71.9295 18.1207C72.1385 18.4829 72.3495 18.8452 72.5725 19.2313V19.2333ZM87.0193 10.8636C86.9317 10.7044 86.874 10.5989 86.8143 10.4934C85.8249 8.77969 84.8335 7.06396 83.8441 5.35022C83.5793 4.89242 83.5833 4.89839 83.0756 5.03971C82.9423 5.07554 82.9224 5.13724 82.9224 5.25069C82.9224 7.05799 82.9244 8.86528 82.9224 10.6726C82.9224 10.8199 82.9701 10.8656 83.1175 10.8656C84.4015 10.8617 85.6855 10.8636 87.0233 10.8636H87.0193ZM82.6038 39.2289C83.6848 39.2289 84.5388 38.381 84.5448 37.3022C84.5528 36.2175 83.6789 35.3357 82.5999 35.3377C81.5388 35.3397 80.6549 36.2155 80.647 37.2744C80.639 38.3532 81.5149 39.2289 82.6019 39.2309L82.6038 39.2289ZM97.6459 30.5388C98.7428 30.5448 99.6048 29.6889 99.6028 28.5942C99.6028 27.5234 98.7388 26.6516 97.6718 26.6456C96.5988 26.6396 95.7049 27.5273 95.7049 28.6002C95.7049 29.665 96.5729 30.5348 97.6459 30.5388ZM69.4829 28.5922C69.4829 27.5194 68.6209 26.6535 67.5499 26.6456C66.4769 26.6376 65.589 27.5254 65.589 28.6022C65.589 29.671 66.453 30.5348 67.528 30.5388C68.6229 30.5448 69.4849 29.6869 69.4829 28.5922ZM67.5339 9.30117C66.4589 9.30117 65.593 10.161 65.589 11.2319C65.583 12.3107 66.4629 13.1944 67.5419 13.1924C68.6269 13.1924 69.4869 12.3166 69.4809 11.2239C69.4749 10.1491 68.6149 9.29918 67.5339 9.30117ZM97.6658 9.30117C96.5908 9.29918 95.7188 10.1531 95.7049 11.2199C95.691 12.2908 96.5788 13.1884 97.6519 13.1904C98.7368 13.1904 99.6068 12.3206 99.6028 11.2339C99.5988 10.1551 98.7448 9.30316 97.6658 9.30117ZM84.5448 2.52185C84.5388 1.44305 83.6828 0.593141 82.6019 0.593141C81.5169 0.593141 80.635 1.47688 80.647 2.54971C80.6589 3.61259 81.5388 4.48439 82.5999 4.48837C83.6769 4.49036 84.5508 3.60662 84.5428 2.51986L84.5448 2.52185Z" fill="#FBFBFB"/>
<path d="M82.6257 0.00199007C84.3218 0.00199007 85.5302 1.6182 85.0485 3.25233C84.9848 3.46928 85.0166 3.5688 85.2137 3.68026C88.6059 5.62887 91.9942 7.58544 95.3804 9.54599C95.5516 9.64552 95.6532 9.66542 95.8124 9.49424C96.5868 8.67619 97.7295 8.46321 98.7249 8.923C99.7322 9.38875 100.302 10.3959 100.196 11.5344C100.1 12.5714 99.3042 13.4711 98.2272 13.7239C98.0162 13.7736 97.9763 13.8532 97.9763 14.0483C97.9823 17.9634 97.9823 21.8766 97.9763 25.7917C97.9763 25.9888 98.0201 26.0664 98.2272 26.1161C99.3121 26.3749 100.102 27.2666 100.198 28.3036C100.304 29.4401 99.7342 30.4493 98.7269 30.915C97.7255 31.3788 96.5908 31.1578 95.7925 30.3219C95.6531 30.1766 95.5656 30.1825 95.4103 30.2721C92.0061 32.2406 88.6 34.2071 85.1898 36.1677C85.0106 36.2712 84.9907 36.3628 85.0465 36.5518C85.363 37.6207 84.9808 38.7194 84.0869 39.3623C83.213 39.9913 82.0285 39.9953 81.1407 39.3723C80.2468 38.7473 79.8467 37.6366 80.1652 36.5698C80.2349 36.3369 80.1712 36.2513 79.986 36.1438C76.6117 34.2032 73.2414 32.2585 69.8731 30.3099C69.674 30.1945 69.5585 30.1587 69.3674 30.3637C68.6288 31.1578 67.4623 31.3629 66.4769 30.911C65.5193 30.4711 64.9022 29.4381 64.9918 28.421C65.0913 27.2925 65.8338 26.3948 66.9208 26.1301C67.1676 26.0704 67.2373 25.9768 67.2353 25.724C67.2254 21.8507 67.2254 17.9774 67.2353 14.104C67.2353 13.8493 67.1637 13.7637 66.9168 13.702C65.8279 13.4333 65.0893 12.5356 64.9918 11.409C64.9022 10.382 65.5352 9.337 66.5067 8.90707C67.5101 8.46321 68.6567 8.6941 69.4132 9.51415C69.5466 9.65746 69.6282 9.66144 69.7894 9.56789C73.1936 7.59739 76.5998 5.63086 80.0099 3.6723C80.197 3.56482 80.2329 3.47923 80.1692 3.26626C79.6715 1.60427 80.8878 0 82.6317 0L82.6257 0.00199007ZM82.2893 14.0921C82.2893 13.3218 82.2833 12.5515 82.2933 11.7812C82.2953 11.5782 82.2336 11.5225 82.0325 11.5245C80.6967 11.5344 79.3609 11.5324 78.0251 11.5245C77.8639 11.5245 77.7644 11.5623 77.6807 11.7116C77.0039 12.8959 76.3231 14.0782 75.6343 15.2565C75.5327 15.4277 75.5765 15.4973 75.7298 15.5849C77.0656 16.3492 78.3994 17.1175 79.7312 17.8918C79.8725 17.9734 79.9522 17.9714 80.0597 17.838C80.5813 17.2011 81.2521 16.805 82.0644 16.6776C82.2814 16.6438 82.2933 16.5423 82.2933 16.3711C82.2873 15.6108 82.2913 14.8504 82.2913 14.0921H82.2893ZM67.8803 19.912C67.8803 21.8626 67.8943 23.8152 67.8704 25.7658C67.8644 26.1818 68.171 26.0883 68.3661 26.1858C68.589 26.2953 68.6229 26.0923 68.6926 25.9708C69.8233 24.0163 70.95 22.0617 72.0848 20.1091C72.1724 19.9578 72.1763 19.8503 72.0848 19.6951C70.95 17.7445 69.8153 15.7919 68.7045 13.8274C68.5134 13.489 68.3223 13.7159 68.1172 13.7259C67.8783 13.7378 67.8763 13.8771 67.8763 14.0582C67.8803 16.0088 67.8783 17.9614 67.8783 19.912H67.8803ZM82.9224 14.0901C82.9224 14.8604 82.9263 15.6307 82.9184 16.401C82.9184 16.5741 82.9562 16.6438 83.1433 16.6756C83.9536 16.813 84.6304 17.1971 85.148 17.84C85.2535 17.9694 85.3292 17.9813 85.4745 17.8958C86.8043 17.1215 88.1381 16.3512 89.4759 15.5889C89.659 15.4854 89.659 15.3998 89.5615 15.2346C88.8767 14.0662 88.1998 12.8939 87.5289 11.7175C87.4453 11.5722 87.3518 11.5245 87.1885 11.5265C85.8527 11.5324 84.517 11.5344 83.1812 11.5265C82.9841 11.5265 82.9164 11.5742 82.9204 11.7812C82.9323 12.5515 82.9244 13.3218 82.9244 14.0921L82.9224 14.0901ZM73.7769 28.9266C72.6362 28.9266 71.4935 28.9445 70.3528 28.9166C69.9388 28.9067 70.0642 29.2232 69.9607 29.4063C69.8432 29.6153 70.0323 29.6471 70.1438 29.7128C73.4783 31.6395 76.8128 33.5642 80.1473 35.487C80.5574 35.7238 80.5514 35.7139 80.8938 35.4034C81.0252 35.284 81.0431 35.2023 80.9515 35.0471C79.8069 33.0766 78.6682 31.1041 77.5334 29.1276C77.4458 28.9744 77.3443 28.9206 77.1671 28.9226C76.0364 28.9306 74.9057 28.9266 73.7749 28.9266H73.7769ZM91.4686 28.9266C90.3379 28.9266 89.2071 28.9326 88.0784 28.9206C87.8654 28.9186 87.7539 28.9863 87.6464 29.1714C86.5654 31.0583 85.4745 32.9393 84.3876 34.8222C84.1546 35.2262 84.1626 35.2183 84.4732 35.5606C84.5926 35.69 84.6722 35.7139 84.8295 35.6223C88.2396 33.6478 91.6498 31.6753 95.0699 29.7168C95.4103 29.5217 95.1634 29.3227 95.1575 29.1197C95.1535 28.9047 95.0042 28.9226 94.8568 28.9226C93.7261 28.9226 92.5954 28.9226 91.4666 28.9226L91.4686 28.9266ZM82.2893 25.7101C82.2893 24.9597 82.2853 24.2113 82.2913 23.4609C82.2913 23.2898 82.2794 23.1922 82.0624 23.1584C81.2501 23.029 80.5773 22.6349 80.0577 21.996C79.9482 21.8626 79.8686 21.8606 79.7272 21.9442C78.3974 22.7185 77.0636 23.4868 75.7278 24.2491C75.5785 24.3347 75.5526 24.4044 75.6422 24.5557C76.331 25.734 77.0119 26.9163 77.6907 28.0986C77.7604 28.22 77.844 28.2678 77.9853 28.2678C79.341 28.2638 80.6967 28.2618 82.0544 28.2678C82.2475 28.2678 82.2973 28.2001 82.2953 28.017C82.2873 27.2467 82.2913 26.4764 82.2913 25.7061L82.2893 25.7101ZM79.5819 18.5984C79.568 18.5048 79.4784 18.4829 79.4107 18.4451C78.0689 17.6708 76.7252 16.8986 75.3874 16.1183C75.2341 16.0288 75.1704 16.0526 75.0868 16.2019C74.4159 17.3763 73.7371 18.5486 73.0543 19.717C72.9766 19.8503 72.9806 19.9499 73.0582 20.0812C73.7451 21.2595 74.4279 22.4399 75.1047 23.6241C75.1903 23.7734 75.256 23.7894 75.4073 23.7018C76.7371 22.9255 78.0689 22.1572 79.4067 21.3949C79.568 21.3033 79.5879 21.2277 79.5262 21.0605C79.2395 20.3022 79.2435 19.5378 79.5182 18.7735C79.5381 18.7158 79.56 18.6581 79.5839 18.5944L79.5819 18.5984ZM92.241 19.8961C92.2072 19.8324 92.1813 19.7787 92.1494 19.7249C91.4726 18.5526 90.7918 17.3822 90.1229 16.2079C90.0253 16.0367 89.9517 16.0427 89.7964 16.1342C88.4666 16.9085 87.1348 17.6768 85.799 18.4391C85.6377 18.5307 85.6238 18.6123 85.6855 18.7795C85.9682 19.5378 85.9682 20.3061 85.6855 21.0645C85.6218 21.2357 85.6457 21.3113 85.805 21.4009C87.1328 22.1572 88.4566 22.9195 89.7765 23.6918C89.9477 23.7933 90.0233 23.7734 90.1209 23.6023C90.7918 22.4259 91.4706 21.2576 92.1475 20.0852C92.1833 20.0235 92.2132 19.9598 92.243 19.8981L92.241 19.8961ZM82.9224 25.724C82.9224 26.4625 82.9323 27.2029 82.9164 27.9413C82.9104 28.1882 82.9642 28.2737 83.2309 28.2698C84.5369 28.2558 85.8408 28.2578 87.1467 28.2698C87.3498 28.2698 87.4593 28.2041 87.5588 28.0309C88.2118 26.8805 88.8707 25.732 89.5456 24.5935C89.663 24.3944 89.6152 24.3268 89.4401 24.2272C88.1202 23.4749 86.8063 22.7145 85.4924 21.9502C85.3451 21.8646 85.2595 21.8547 85.14 22.004C84.6304 22.6369 83.9615 23.0191 83.1632 23.1564C82.9642 23.1902 82.9164 23.2579 82.9184 23.447C82.9283 24.2073 82.9224 24.9677 82.9224 25.726V25.724ZM97.3114 19.93C97.3114 17.9794 97.2975 16.0268 97.3234 14.0762C97.3294 13.6582 97.0268 13.7557 96.8317 13.6542C96.6107 13.5407 96.5709 13.7298 96.4992 13.8532C95.3784 15.7899 94.2636 17.7286 93.1389 19.6612C93.0373 19.8344 93.0353 19.9578 93.1389 20.133C94.2736 22.0836 95.4003 24.0401 96.5291 25.9967C96.6087 26.1341 96.6644 26.2813 96.8735 26.1739C97.0546 26.0803 97.3294 26.1659 97.3254 25.7837C97.3035 23.8331 97.3154 21.8806 97.3154 19.93H97.3114ZM73.7431 10.8636C74.8838 10.8636 76.0244 10.8597 77.1651 10.8676C77.3562 10.8676 77.4558 10.8059 77.5494 10.6427C78.6681 8.6941 79.785 6.74549 80.9257 4.81081C81.1247 4.47444 80.8221 4.42269 80.7166 4.25151C80.5892 4.0465 80.4658 4.16791 80.3344 4.24355C76.9402 6.20211 73.544 8.16067 70.1498 10.1232C70.0443 10.1849 69.8492 10.2048 69.9567 10.4258C70.0482 10.6129 69.9746 10.8855 70.3528 10.8756C71.4816 10.8477 72.6123 10.8656 73.7431 10.8656V10.8636ZM91.4328 10.8636C92.5735 10.8636 93.7142 10.8457 94.8549 10.8736C95.2192 10.8816 95.1475 10.6208 95.2351 10.4457C95.3326 10.2526 95.1893 10.1969 95.0639 10.1232C91.6597 8.15868 88.2516 6.19813 84.8534 4.22165C84.509 4.02062 84.4672 4.34705 84.294 4.44458C84.1009 4.55405 84.2163 4.68144 84.286 4.80285C85.4108 6.74947 86.5356 8.69211 87.6544 10.6427C87.7479 10.8059 87.8494 10.8696 88.0406 10.8676C89.1713 10.8597 90.302 10.8636 91.4328 10.8636ZM79.8228 19.924C79.8228 21.4685 81.057 22.6986 82.6019 22.6986C84.1447 22.6986 85.3849 21.4646 85.3889 19.926C85.3929 18.3735 84.1447 17.1314 82.5879 17.1354C81.0471 17.1394 79.8188 18.3774 79.8208 19.924H79.8228ZM76.9959 28.2339C76.9561 28.1543 76.9203 28.0727 76.8765 27.9971C76.2872 26.976 75.692 25.9589 75.1127 24.9318C74.9992 24.7308 74.9236 24.7069 74.7205 24.8264C73.1996 25.7181 71.6747 26.6078 70.1358 27.4656C69.7735 27.6667 70.0323 27.8717 70.0343 28.0787C70.0343 28.3195 70.2175 28.2757 70.3668 28.2757C72.4809 28.2757 74.5971 28.2757 76.7113 28.2757C76.7988 28.2757 76.8944 28.3056 76.9959 28.2359V28.2339ZM91.6856 28.2757C92.7427 28.2757 93.7998 28.2598 94.8568 28.2837C95.249 28.2936 95.1336 27.9891 95.2311 27.812C95.3287 27.6368 95.2232 27.5632 95.0838 27.4835C93.537 26.5958 91.9902 25.7061 90.4494 24.8064C90.2622 24.697 90.1985 24.7487 90.105 24.9119C89.5177 25.945 88.9245 26.976 88.3213 28.0011C88.1859 28.23 88.2118 28.2837 88.4805 28.2817C89.5476 28.2717 90.6166 28.2777 91.6836 28.2777L91.6856 28.2757ZM91.6737 11.5304C90.6046 11.5304 89.5376 11.5364 88.4686 11.5265C88.2237 11.5245 88.1879 11.5702 88.3153 11.7872C88.9165 12.8123 89.5117 13.8433 90.099 14.8783C90.2105 15.0773 90.2901 15.1251 90.5091 14.9957C91.9504 14.1498 93.4016 13.3178 94.8509 12.4838C95.2729 12.241 95.257 12.245 95.1694 11.7753C95.1296 11.5623 95.044 11.5245 94.8489 11.5265C93.7918 11.5364 92.7327 11.5304 91.6756 11.5304H91.6737ZM77.0318 11.5304C74.8479 11.5304 72.7298 11.5304 70.6116 11.5304C70.104 11.5304 70.112 11.5324 69.9686 12.0041C69.9169 12.1713 69.9447 12.253 70.102 12.3425C71.6528 13.2282 73.2016 14.12 74.7444 15.0216C74.9116 15.1191 74.9813 15.0992 75.0729 14.936C75.5686 14.0602 76.0742 13.1904 76.5759 12.3186C76.7172 12.0718 76.8606 11.827 77.0318 11.5304ZM92.6352 20.5649C92.5675 20.6744 92.5098 20.756 92.46 20.8435C91.8707 21.8646 91.2855 22.8917 90.6863 23.9068C90.5748 24.0959 90.5967 24.1675 90.7838 24.275C92.2649 25.1189 93.744 25.9629 95.2092 26.8327C95.5178 27.0158 95.7029 27.0277 95.9398 26.7352C96.0632 26.5839 96.0752 26.5003 95.9836 26.347C95.5914 25.6842 95.2112 25.0154 94.825 24.3506C94.1004 23.0987 93.3777 21.8467 92.6372 20.5669L92.6352 20.5649ZM82.2893 31.8784C82.2893 30.9847 82.2833 30.093 82.2933 29.1993C82.2953 28.9863 82.2375 28.9186 82.0186 28.9206C80.8281 28.9306 79.6356 28.9286 78.4452 28.9226C78.2501 28.9226 78.1744 28.9425 78.2959 29.1515C79.3729 31.0046 80.4479 32.8577 81.5109 34.7187C81.708 35.063 81.915 34.7704 82.1161 34.7784C82.3271 34.7864 82.2893 34.6212 82.2893 34.4938C82.2893 33.622 82.2893 32.7482 82.2893 31.8764V31.8784ZM72.6024 20.5947C72.5725 20.6127 72.5486 20.6186 72.5407 20.6326C71.4199 22.5672 70.2991 24.5019 69.1763 26.4346C69.1206 26.5301 69.1206 26.5958 69.2101 26.6695C69.2977 26.7391 69.3813 26.8188 69.449 26.9083C69.5406 27.0277 69.6202 27.0397 69.7576 26.9601C71.3183 26.0524 72.8831 25.1508 74.4498 24.2511C74.5652 24.1854 74.6548 24.1377 74.5593 23.9745C73.9023 22.8499 73.2533 21.7213 72.6024 20.5928V20.5947ZM86.9775 28.9545C86.9556 28.9445 86.9397 28.9286 86.9218 28.9286C85.6576 28.9266 84.3935 28.9306 83.1294 28.9206C82.8985 28.9206 82.9204 29.046 82.9204 29.1953C82.9204 30.9628 82.9323 32.7283 82.9124 34.4958C82.9084 34.8938 83.217 34.7585 83.3882 34.86C83.5833 34.9754 83.6331 34.8122 83.7027 34.6908C84.7558 32.8696 85.8089 31.0484 86.8581 29.2271C86.9058 29.1435 86.9895 29.0679 86.9755 28.9545H86.9775ZM78.1784 10.8636C79.5321 10.8636 80.8162 10.8597 82.1002 10.8676C82.347 10.8676 82.2893 10.7064 82.2893 10.575C82.2893 8.82945 82.2794 7.08585 82.2993 5.34026C82.3032 4.94616 82.0086 5.0636 81.8314 4.96607C81.6324 4.8566 81.5667 4.99393 81.485 5.13724C80.7445 6.42703 79.998 7.71283 79.2534 8.99863C78.9051 9.59974 78.5607 10.2008 78.1784 10.8636ZM92.6252 19.2413C92.7168 19.088 92.7885 18.9666 92.8582 18.8452C93.8535 17.1235 94.8489 15.3998 95.8443 13.6781C96.0871 13.2581 96.0832 13.2621 95.7368 12.9098C95.6392 12.8103 95.5715 12.7963 95.4521 12.87C95.1634 13.0471 94.8668 13.2103 94.5742 13.3795C93.33 14.0961 92.0897 14.8206 90.8395 15.5272C90.6106 15.6565 90.5927 15.7561 90.7281 15.969C90.9709 16.3492 91.1839 16.7473 91.4109 17.1374C91.811 17.8281 92.2092 18.5188 92.6272 19.2413H92.6252ZM72.5725 19.2333C72.6382 19.1318 72.688 19.0582 72.7338 18.9805C73.319 17.9674 73.8944 16.9503 74.4916 15.9452C74.623 15.7242 74.5712 15.6466 74.3721 15.5331C72.8651 14.6733 71.3582 13.8154 69.8711 12.9277C69.5645 12.7446 69.4789 12.9396 69.2977 13.077C69.0748 13.2462 69.1843 13.3775 69.2798 13.5407C70.1657 15.0674 71.0476 16.594 71.9295 18.1207C72.1385 18.4829 72.3495 18.8452 72.5725 19.2313V19.2333ZM87.0193 10.8636C86.9317 10.7044 86.874 10.5989 86.8143 10.4934C85.8249 8.77969 84.8335 7.06396 83.8441 5.35022C83.5793 4.89242 83.5833 4.89839 83.0756 5.03971C82.9423 5.07554 82.9224 5.13724 82.9224 5.25069C82.9224 7.05799 82.9244 8.86528 82.9224 10.6726C82.9224 10.8199 82.9701 10.8656 83.1175 10.8656C84.4015 10.8617 85.6855 10.8636 87.0233 10.8636H87.0193ZM82.6038 39.2289C83.6848 39.2289 84.5388 38.381 84.5448 37.3022C84.5528 36.2175 83.6789 35.3357 82.5999 35.3377C81.5388 35.3397 80.6549 36.2155 80.647 37.2744C80.639 38.3532 81.5149 39.2289 82.6019 39.2309L82.6038 39.2289ZM97.6459 30.5388C98.7428 30.5448 99.6048 29.6889 99.6028 28.5942C99.6028 27.5234 98.7388 26.6516 97.6718 26.6456C96.5988 26.6396 95.7049 27.5273 95.7049 28.6002C95.7049 29.665 96.5729 30.5348 97.6459 30.5388ZM69.4829 28.5922C69.4829 27.5194 68.6209 26.6535 67.5499 26.6456C66.4769 26.6376 65.589 27.5254 65.589 28.6022C65.589 29.671 66.453 30.5348 67.528 30.5388C68.6229 30.5448 69.4849 29.6869 69.4829 28.5922ZM67.5339 9.30117C66.4589 9.30117 65.593 10.161 65.589 11.2319C65.583 12.3107 66.4629 13.1944 67.5419 13.1924C68.6269 13.1924 69.4869 12.3166 69.4809 11.2239C69.4749 10.1491 68.6149 9.29918 67.5339 9.30117ZM97.6658 9.30117C96.5908 9.29918 95.7188 10.1531 95.7049 11.2199C95.691 12.2908 96.5788 13.1884 97.6519 13.1904C98.7368 13.1904 99.6068 12.3206 99.6028 11.2339C99.5988 10.1551 98.7448 9.30316 97.6658 9.30117ZM84.5448 2.52185C84.5388 1.44305 83.6828 0.593141 82.6019 0.593141C81.5169 0.593141 80.635 1.47688 80.647 2.54971C80.6589 3.61259 81.5388 4.48439 82.5999 4.48837C83.6769 4.49036 84.5508 3.60662 84.5428 2.51986L84.5448 2.52185Z" stroke="white" stroke-width="0.4" mask="url(#path-18-outside-1_638_3147)"/>
<path d="M147.812 62.4673C145.654 62.4673 143.494 62.4673 141.336 62.4673C140.992 62.4673 140.99 62.4653 141.151 62.1747C141.635 61.3049 142.126 60.4391 142.6 59.5633C142.702 59.3782 142.813 59.3105 143.028 59.3105C146.576 59.3185 150.121 59.3145 153.669 59.3165C153.979 59.3165 154.286 59.2986 154.586 59.2229C155.63 58.9642 156.167 58.1322 156.081 56.92C155.99 55.6044 155.231 54.9117 153.915 54.9137C149.701 54.9177 145.487 54.9117 141.272 54.9197C141.012 54.9197 140.974 54.8281 140.976 54.6032C140.988 53.7812 140.992 52.9591 140.974 52.1371C140.968 51.8724 141.049 51.8186 141.3 51.8186C145.329 51.8266 149.361 51.8246 153.39 51.8226C153.667 51.8226 153.945 51.8226 154.22 51.8007C155.385 51.7111 156.028 51.0424 156.083 49.872C156.101 49.4898 156.056 49.1117 155.952 48.7454C155.723 47.9294 155.114 47.4258 154.266 47.3482C154.051 47.3283 153.834 47.3283 153.619 47.3283C150.72 47.3283 147.822 47.3243 144.921 47.3342C144.647 47.3342 144.575 47.2646 144.581 46.9919C144.599 46.1599 144.591 45.3279 144.585 44.4959C144.585 44.3307 144.595 44.2312 144.81 44.2332C147.945 44.2451 151.081 44.2073 154.216 44.269C156.794 44.3208 158.916 46.4007 159.191 48.9584C159.362 50.5507 158.868 51.9122 157.881 53.1243C157.726 53.3154 157.738 53.4109 157.897 53.5941C159.372 55.3058 159.657 57.2624 158.757 59.2807C157.857 61.3029 156.201 62.4096 153.949 62.4554C151.905 62.4972 149.858 62.4633 147.812 62.4653V62.4673Z" fill="#FBFBFB"/>
<path d="M59.9585 60.7156C60.2034 60.2777 60.4522 59.8418 60.6911 59.4C60.7687 59.2547 60.8902 59.2805 61.0116 59.2805C62.1125 59.2805 63.2114 59.2805 64.3123 59.2805C67.2725 59.2805 70.2347 59.2845 73.1949 59.2746C73.4537 59.2746 73.5493 59.3204 73.5413 59.607C73.5194 60.429 73.5334 61.2511 73.5334 62.0731C73.5334 62.1706 73.5334 62.2701 73.5334 62.4453C73.6389 62.3199 73.6986 62.2582 73.7523 62.1885C75.978 59.3243 78.1997 56.4601 80.4313 53.6019C80.5786 53.4128 80.5746 53.2974 80.4313 53.1083C78.6555 50.7795 76.8917 48.4448 75.122 46.112C74.9614 45.901 75.0012 45.7285 75.2414 45.5945C75.98 45.1904 76.7225 44.7944 77.4551 44.3784C77.6562 44.2649 77.7557 44.2828 77.8991 44.4679C79.414 46.4384 80.9429 48.399 82.4579 50.3695C82.6251 50.5864 82.7007 50.6362 82.8978 50.3834C85.5495 46.9679 88.2151 43.5623 90.8687 40.1448C91.0539 39.9079 91.239 39.8223 91.5336 39.8263C92.7042 39.8442 93.8747 39.8343 95.0493 39.8343C95.0692 39.9816 94.9577 40.0452 94.894 40.1269C91.5794 44.4202 88.2648 48.7135 84.9363 52.9968C84.7213 53.2735 84.7114 53.4307 84.9343 53.7114C86.7519 56.0203 88.5455 58.347 90.3591 60.6579C90.5403 60.8888 90.5044 60.9664 90.2655 61.0958C89.515 61.4979 88.7705 61.9139 88.0359 62.3458C87.8388 62.4612 87.7532 62.4294 87.6218 62.2582C86.0491 60.228 84.4645 58.2057 82.8958 56.1735C82.7206 55.9466 82.647 55.9446 82.4698 56.1735C79.7684 59.6428 77.053 63.1021 74.3516 66.5694C74.2003 66.7625 74.049 66.8282 73.8121 66.8262C72.6216 66.8162 71.4311 66.8222 70.1571 66.8222C71.2958 65.3553 72.3947 63.9381 73.5194 62.4871C73.3701 62.4732 73.2726 62.4632 73.173 62.4533C73.3024 62.1865 73.3004 61.9019 73.2985 61.6133C73.2925 61.0381 73.2984 60.4629 73.2965 59.8876C73.2965 59.4955 73.2965 59.4935 72.9003 59.4935C69.0064 59.4935 65.1105 59.4955 61.2166 59.4876C60.9399 59.4876 60.7588 59.5891 60.6493 59.818C60.5418 60.0389 60.3785 60.228 60.3109 60.4708C60.2651 60.634 60.1377 60.7176 59.9605 60.7136L59.9585 60.7156Z" fill="#FBFBFB"/>
<path d="M37.3236 48.3969C37.3315 48.5282 37.4311 48.6158 37.4908 48.7193C40.6461 54.0616 37.7695 61.2251 31.1961 62.3357C27.2663 63.0005 23.7009 61.3803 21.748 58.1001C20.9318 56.7307 20.5337 55.2379 20.5396 53.6416C20.7108 53.4744 20.7108 53.3092 20.5396 53.144C20.5317 51.2332 21.1349 49.5274 22.2357 47.9749C25.7653 42.9969 33.2047 43.0248 36.8498 47.7978C36.9314 47.9033 36.9712 48.0665 37.1424 48.0864C37.1424 48.1282 37.1464 48.172 37.1484 48.2138C37.1683 48.2615 37.2101 48.2735 37.2559 48.2755C37.2599 48.2914 37.2638 48.3093 37.2658 48.3252C37.2698 48.367 37.2818 48.4009 37.3335 48.4009L37.3275 48.3969H37.3236ZM23.7328 53.3669C23.7368 56.7506 26.2829 59.3839 29.5557 59.3859C32.9439 59.3879 35.6115 56.7367 35.6135 53.3629C35.6135 50.0549 32.92 47.4017 29.5577 47.4037C26.265 47.4037 23.7308 49.9992 23.7328 53.3669Z" fill="#FBFBFB"/>
<path d="M5.0601 54.3188C5.0601 53.6819 5.0601 53.0429 5.0601 52.406C5.29898 49.8046 6.50338 47.7286 8.52797 46.1203C11.5698 43.702 15.8778 43.6005 19.2362 45.8397C19.6635 46.125 19.7518 46.4866 19.5009 46.9244C19.1187 47.5932 18.7285 48.256 18.3582 48.9308C18.2448 49.1378 18.1851 49.1636 17.9959 48.9885C16.2082 47.3365 13.6063 46.9563 11.4981 48.0231C9.29639 49.1358 8.02033 51.5143 8.27713 54.0222C8.52598 56.4545 10.2082 58.4927 12.5094 59.0838C14.4265 59.5775 16.1744 59.1774 17.7272 57.9573C17.9282 57.8 18.0576 57.808 18.2587 57.9294C19.0331 58.3952 19.8135 58.849 20.5998 59.2948C20.783 59.3983 20.8367 59.46 20.6675 59.6431C19.0371 61.4027 17.0264 62.3501 14.6336 62.4556C10.7735 62.6268 7.93075 60.9469 6.02959 57.6308C5.4463 56.6117 5.15565 55.4892 5.05811 54.3188H5.0601Z" fill="#FBFBFB"/>
<path d="M37.1468 48.2138C37.1468 48.172 37.1429 48.1282 37.1409 48.0864C37.1409 48.0267 37.1409 47.967 37.1409 47.9053C37.328 47.8675 37.2603 47.7142 37.2603 47.6067C37.2663 46.8006 37.2683 45.9965 37.2603 45.1904C37.2563 44.9277 37.3101 44.7187 37.5808 44.6191C38.2099 45.0789 38.825 45.5566 39.4223 46.0582C39.4402 46.2354 39.4422 46.2374 39.5556 46.1597C40.1847 46.6195 40.8018 47.0972 41.3971 47.5988C41.3831 47.8317 41.5324 47.8536 41.7076 47.8416C42.279 48.2516 42.8324 48.6856 43.3699 49.1394C43.3878 49.3165 43.3898 49.3185 43.5033 49.2409C43.6605 49.3304 43.7999 49.4419 43.9253 49.5713C43.9432 49.7464 43.9452 49.7484 44.0587 49.6728C44.5026 49.9893 44.9346 50.3217 45.3447 50.6799C45.3626 50.8571 45.3646 50.8591 45.4781 50.7815C45.6354 50.871 45.7747 50.9825 45.9001 51.1119C45.918 51.289 45.92 51.291 46.0335 51.2134C46.8477 51.8165 47.648 52.4395 48.4304 53.0843C48.4483 53.2595 48.4503 53.2615 48.5617 53.1859C48.6832 53.2794 48.8026 53.373 48.9241 53.4665C48.9141 53.6178 48.9997 53.6476 49.1251 53.6277C49.3839 53.7949 49.6248 53.982 49.8478 54.193C49.8657 54.3702 49.8677 54.3721 49.9811 54.2945C50.1384 54.3841 50.2778 54.4956 50.4032 54.6249C50.4211 54.8001 50.4231 54.8021 50.5366 54.7264C50.6839 54.8399 50.8312 54.9553 50.9765 55.0688C50.9705 55.1146 50.9546 55.1663 51.0004 55.1982C51.0442 55.228 51.0661 55.1882 51.09 55.1584C51.4005 55.3892 51.7091 55.6201 52.0714 55.8908V55.5226C52.0714 51.9339 52.0714 48.3432 52.0714 44.7545C52.0714 44.6311 52.0794 44.5097 52.0834 44.3863C52.9334 44.3863 53.7835 44.3942 54.6315 44.3803C54.8724 44.3763 55.0894 44.3982 55.2686 44.5694C55.2725 44.651 55.2785 44.7326 55.2805 44.8142C55.2805 50.467 55.2805 56.1177 55.2805 61.7705C55.2805 61.8521 55.2725 61.9337 55.2686 62.0153C55.1332 62.0193 55.1232 62.2223 54.9719 62.2004C54.6853 62.0133 54.4225 61.7984 54.1677 61.5714C54.1418 61.3525 54.1159 61.3326 53.9746 61.4182C53.7158 61.247 53.4709 61.0539 53.244 60.841C53.2261 60.6658 53.2241 60.6638 53.1126 60.7375C52.7423 60.4807 52.3919 60.2001 52.0535 59.9035C52.0595 59.8577 52.0794 59.804 52.0296 59.7721C51.9838 59.7423 51.9619 59.7841 51.94 59.8139C51.6812 59.6408 51.4364 59.4497 51.2094 59.2367C51.1915 59.0596 51.1895 59.0576 51.078 59.1332C50.7157 58.8804 50.3674 58.6077 50.0369 58.3132C50.019 58.136 50.017 58.134 49.9035 58.2116C49.6447 58.0405 49.3999 57.8474 49.1729 57.6344C49.155 57.4573 49.153 57.4553 49.0415 57.5329C48.3905 57.0532 47.7555 56.5536 47.1384 56.0321C47.1205 55.855 47.1185 55.853 47.007 55.9286C46.358 55.449 45.721 54.9514 45.1038 54.4279C45.0859 54.2507 45.0839 54.2487 44.9705 54.3264C44.7196 54.1293 44.4708 53.9343 44.2199 53.7372C44.2259 53.6914 44.2438 53.6397 44.1961 53.6058C44.1523 53.576 44.1284 53.6178 44.1065 53.6456C43.7442 53.3909 43.3958 53.1202 43.0653 52.8256C43.0474 52.6485 43.0454 52.6465 42.9339 52.7221C42.6831 52.525 42.4343 52.33 42.1834 52.1329C42.1894 52.0872 42.2073 52.0354 42.1595 52.0016C42.1157 51.9717 42.0918 52.0135 42.0699 52.0414C41.7076 51.7886 41.3592 51.5159 41.0288 51.2193C41.0109 51.0422 41.0089 51.0402 40.8954 51.1178C40.6366 50.9447 40.3917 50.7536 40.1648 50.5406C40.1469 50.3635 40.1449 50.3615 40.0334 50.4371C39.3824 49.9574 38.7474 49.4598 38.1303 48.9363C38.1124 48.7592 38.1104 48.7572 37.9989 48.8348C37.75 48.7194 37.6027 48.4547 37.324 48.385L37.33 48.389C37.3439 48.3313 37.3081 48.3173 37.2623 48.3133C37.2623 48.2954 37.2583 48.2795 37.2524 48.2636C37.2364 48.2078 37.1906 48.2039 37.1449 48.2019L37.1468 48.2138Z" fill="#FBFBFB"/>
<path d="M122.74 62.4674C125.788 56.3767 128.81 50.3358 131.86 44.2412C134.9 50.3179 137.916 56.3469 140.976 62.4614C140.657 62.344 140.43 62.2624 140.205 62.1748C139.037 61.7269 137.868 61.2751 136.698 60.8333C136.502 60.7596 136.379 60.6481 136.285 60.4591C134.872 57.6207 133.453 54.7884 132.033 51.952C131.983 51.8545 131.932 51.759 131.876 51.6535C131.755 51.755 131.721 51.8884 131.663 52.0058C129.953 55.3955 128.243 58.7851 126.543 62.1788C126.437 62.3878 126.328 62.4753 126.081 62.4714C125.084 62.4534 124.086 62.4634 123.089 62.4634C122.989 62.4634 122.892 62.4634 122.742 62.4634L122.74 62.4674Z" fill="#FBFBFB"/>
<path d="M100.819 51.6157C100.241 52.7621 99.694 53.8529 99.1446 54.9416C97.9263 57.36 96.7039 59.7783 95.4936 62.2007C95.392 62.4037 95.2786 62.4773 95.0496 62.4733C94.0523 62.4594 93.0549 62.4674 92.0575 62.4654C91.958 62.4654 91.8545 62.4913 91.7251 62.4216C94.749 56.3787 97.773 50.3358 100.821 44.2412C103.863 50.3199 106.879 56.3489 109.903 62.3917C109.745 62.4276 109.65 62.3599 109.55 62.3221C108.246 61.8245 106.944 61.3189 105.638 60.8273C105.451 60.7556 105.338 60.6501 105.25 60.471C103.837 57.6327 102.415 54.8003 100.998 51.964C100.948 51.8645 100.896 51.7669 100.817 51.6157H100.819Z" fill="#FBFBFB"/>
<path d="M122.681 62.4649H122.382C118.353 62.4649 114.322 62.4609 110.293 62.4728C109.992 62.4728 109.936 62.3972 109.936 62.1066C109.946 56.2707 109.946 50.4368 109.938 44.6009C109.938 44.3302 109.99 44.2327 110.285 44.2407C111.137 44.2626 111.991 44.2606 112.845 44.2407C113.112 44.2347 113.161 44.3203 113.161 44.5691C113.153 49.3779 113.159 54.1848 113.149 58.9936C113.149 59.2921 113.203 59.3857 113.528 59.3837C115.893 59.3678 118.258 59.3777 120.621 59.3698C120.82 59.3698 120.935 59.4255 121.035 59.5987C121.546 60.4764 122.072 61.3462 122.589 62.22C122.629 62.2877 122.695 62.3474 122.681 62.4629V62.4649Z" fill="#FBFBFB"/>
<path d="M55.2724 44.5757C55.0912 44.4045 54.8762 44.3826 54.6353 44.3866C53.7853 44.3986 52.9352 44.3926 52.0872 44.3926C52.0494 44.1836 52.2106 44.2433 52.3042 44.2433C53.2498 44.2393 54.1954 44.2433 55.143 44.2433C55.8517 44.2433 56.5604 44.2433 57.2711 44.2433C62.5664 44.2433 67.8618 44.2453 73.1572 44.2354C73.4697 44.2354 73.5533 44.311 73.5434 44.6235C73.5195 45.4455 73.5255 46.2676 73.5414 47.0896C73.5454 47.3464 73.4996 47.4379 73.2109 47.4379C67.9574 47.428 62.7018 47.43 57.4483 47.4359C57.2472 47.4359 57.1357 47.3742 57.0342 47.2011C56.5126 46.3054 55.9791 45.4157 55.4476 44.526C55.4117 44.4662 55.3978 44.3886 55.3022 44.3528C55.2923 44.4324 55.2823 44.506 55.2744 44.5797L55.2724 44.5757Z" fill="#FBFBFB"/>
<path d="M67.1492 51.8459C69.1639 51.8459 71.1765 51.8519 73.1911 51.8379C73.4858 51.8359 73.5435 51.9295 73.5375 52.1982C73.5216 53.06 73.5256 53.9239 73.5375 54.7857C73.5395 54.9907 73.4798 55.0445 73.2787 55.0445C69.1897 55.0385 65.1008 55.0385 61.0118 55.0445C60.7968 55.0445 60.759 54.9648 60.761 54.7758C60.7689 53.892 60.7729 53.0103 60.759 52.1265C60.755 51.8956 60.8187 51.8379 61.0496 51.8379C63.0841 51.8479 65.1187 51.8439 67.1532 51.8439L67.1492 51.8459Z" fill="#FBFBFB"/>
<path d="M59.9582 60.7153C60.1333 60.7193 60.2627 60.6357 60.3085 60.4725C60.3762 60.2297 60.5395 60.0406 60.647 59.8197C60.7584 59.5928 60.9396 59.4893 61.2143 59.4893C65.1082 59.4972 69.0041 59.4952 72.898 59.4952C73.2941 59.4952 73.2941 59.4952 73.2941 59.8893C73.2941 60.4646 73.2902 61.0398 73.2961 61.615C73.3001 61.9036 73.3001 62.1882 73.1707 62.455C73.0891 62.4589 73.0075 62.4689 72.9259 62.4689C68.5024 62.4689 64.081 62.4689 59.6576 62.4689C59.5759 62.4689 59.4943 62.4609 59.4127 62.455C59.2594 62.2201 59.2952 62.0031 59.4645 61.7902C59.5083 61.7344 59.572 61.6488 59.4565 61.5852C59.4804 61.5453 59.5043 61.5055 59.5262 61.4657C59.7471 61.4538 59.8467 61.3722 59.7033 61.1532C59.7272 61.1134 59.7491 61.0736 59.773 61.0338C59.994 61.0219 59.9701 60.8666 59.9582 60.7173H59.9562L59.9582 60.7153Z" fill="#FBFBFB"/>
<path d="M37.5823 44.621C37.3115 44.7205 37.2598 44.9295 37.2618 45.1923C37.2717 45.9984 37.2678 46.8025 37.2618 47.6086C37.2618 47.7161 37.3295 47.8674 37.1423 47.9072V44.2607C37.3076 44.3961 37.4449 44.5095 37.5823 44.623V44.621Z" fill="#FBFBFB"/>
<path d="M59.457 61.583C59.5725 61.6467 59.5108 61.7303 59.465 61.788C59.2978 62.001 59.262 62.2179 59.4132 62.4528C59.2719 62.4687 59.1306 62.4847 58.9653 62.4349C59.1126 62.1344 59.2679 61.8497 59.4551 61.583H59.457Z" fill="#FBFBFB"/>
<path d="M20.5401 53.1416C20.7141 53.3068 20.7141 53.474 20.5401 53.6392C20.4941 53.474 20.4941 53.3068 20.5401 53.1416Z" fill="#FBFBFB"/>
<path d="M54.9736 62.2066C55.1249 62.2285 55.1369 62.0255 55.2703 62.0215V62.4315C55.1389 62.3738 55.0493 62.3001 54.9736 62.2046V62.2066Z" fill="#FBFBFB"/>
<path d="M59.706 61.1514C59.8493 61.3703 59.7498 61.4519 59.5288 61.4639C59.5627 61.3444 59.6244 61.2429 59.706 61.1514Z" fill="#FBFBFB"/>
<path d="M41.7097 47.8434C41.5345 47.8554 41.3832 47.8335 41.3991 47.6006C41.5185 47.6603 41.6241 47.7399 41.7097 47.8434Z" fill="#FBFBFB"/>
<path d="M59.9611 60.7178C59.9731 60.8671 59.9971 61.0223 59.7751 61.0342C59.8111 60.9128 59.8691 60.8054 59.9611 60.7178Z" fill="#FBFBFB"/>
<path d="M53.9763 61.4246C54.1183 61.341 54.1443 61.3609 54.1703 61.5779C54.1063 61.5261 54.0403 61.4744 53.9763 61.4246Z" fill="#FBFBFB"/>
<path d="M49.1274 53.6319C49.0014 53.6498 48.9134 53.62 48.9254 53.4707C48.9934 53.5244 49.0614 53.5782 49.1274 53.6319Z" fill="#FBFBFB"/>
<path d="M43.5058 49.2431C43.3938 49.3207 43.3898 49.3187 43.3718 49.1416C43.4158 49.1754 43.4598 49.2093 43.5058 49.2431Z" fill="#FBFBFB"/>
<path d="M37.999 48.8472C38.111 48.7716 38.115 48.7736 38.131 48.9487C38.087 48.9149 38.043 48.8811 37.999 48.8472Z" fill="#FBFBFB"/>
<path d="M49.9834 54.2988C49.8714 54.3764 49.8674 54.3744 49.8494 54.1973C49.8934 54.2311 49.9374 54.2649 49.9834 54.2988Z" fill="#FBFBFB"/>
<path d="M44.9705 54.334C45.0825 54.2564 45.0865 54.2584 45.1045 54.4355C45.0605 54.4017 45.0165 54.3678 44.9705 54.334Z" fill="#FBFBFB"/>
<path d="M50.5388 54.7304C50.4268 54.8061 50.4248 54.8041 50.4048 54.6289C50.4488 54.6627 50.4928 54.6966 50.5388 54.7304Z" fill="#FBFBFB"/>
<path d="M39.5583 46.1621C39.4463 46.2397 39.4423 46.2377 39.4243 46.0605C39.4683 46.0944 39.5123 46.1282 39.5583 46.1621Z" fill="#FBFBFB"/>
<path d="M42.9341 52.7317C43.0461 52.6541 43.0501 52.6581 43.0661 52.8352C43.0221 52.8014 42.9781 52.7676 42.9341 52.7317Z" fill="#FBFBFB"/>
<path d="M40.0354 50.4487C40.1474 50.373 40.1494 50.375 40.1674 50.5522C40.1234 50.5183 40.0794 50.4845 40.0354 50.4487Z" fill="#FBFBFB"/>
<path d="M46.0341 51.2177C45.9221 51.2934 45.9181 51.2914 45.9001 51.1162C45.9441 51.15 45.9881 51.1839 46.0341 51.2177Z" fill="#FBFBFB"/>
<path d="M49.0413 57.5386C49.1533 57.463 49.1573 57.465 49.1733 57.6401C49.1293 57.6063 49.0853 57.5725 49.0413 57.5386Z" fill="#FBFBFB"/>
<path d="M40.8975 51.1299C41.0095 51.0523 41.0135 51.0542 41.0315 51.2314L40.8975 51.1299Z" fill="#FBFBFB"/>
<path d="M49.9058 58.2197C50.0178 58.1421 50.0218 58.1441 50.0398 58.3212C49.9958 58.2874 49.9518 58.2536 49.9058 58.2197Z" fill="#FBFBFB"/>
<path d="M45.4804 50.7831C45.3684 50.8608 45.3644 50.8588 45.3464 50.6816C45.3904 50.7155 45.4344 50.7493 45.4804 50.7831Z" fill="#FBFBFB"/>
<path d="M47.0071 55.9369C47.1191 55.8613 47.1231 55.8633 47.1391 56.0404C47.0951 56.0066 47.0511 55.9728 47.0071 55.9369Z" fill="#FBFBFB"/>
<path d="M48.5644 53.1894C48.4524 53.265 48.4504 53.263 48.4324 53.0879C48.4764 53.1217 48.5204 53.1556 48.5644 53.1894Z" fill="#FBFBFB"/>
<path d="M53.115 60.7455C53.227 60.6699 53.229 60.6719 53.247 60.849C53.203 60.8152 53.159 60.7814 53.115 60.7455Z" fill="#FBFBFB"/>
<path d="M44.0612 49.6767C43.9492 49.7523 43.9472 49.7504 43.9272 49.5752C43.9712 49.609 44.0152 49.6429 44.0612 49.6767Z" fill="#FBFBFB"/>
<path d="M51.0776 59.143C51.1896 59.0674 51.1916 59.0693 51.2096 59.2465C51.1656 59.2127 51.1216 59.1788 51.0776 59.143Z" fill="#FBFBFB"/>
<path d="M42.0718 52.0532C42.0958 52.0233 42.1178 51.9815 42.1618 52.0134C42.2098 52.0452 42.1918 52.097 42.1858 52.1447C42.1478 52.1149 42.1098 52.085 42.0718 52.0552V52.0532Z" fill="#FBFBFB"/>
<path d="M51.093 55.1648C51.069 55.1946 51.047 55.2344 51.003 55.2046C50.955 55.1727 50.973 55.121 50.979 55.0752C51.017 55.1051 51.055 55.1349 51.093 55.1648Z" fill="#FBFBFB"/>
<path d="M51.9421 59.8216C51.9661 59.7917 51.9881 59.7499 52.0321 59.7798C52.0801 59.8116 52.0621 59.8654 52.0561 59.9112C52.0181 59.8813 51.9801 59.8515 51.9421 59.8216Z" fill="#FBFBFB"/>
<path d="M44.1069 53.6557C44.1309 53.6259 44.1529 53.5841 44.1969 53.6159C44.2449 53.6478 44.2269 53.6995 44.2209 53.7473C44.1829 53.7174 44.1449 53.6876 44.1069 53.6577V53.6557Z" fill="#FBFBFB"/>
<path d="M94.5098 70.8386C94.4918 70.8226 94.4758 70.8067 94.4578 70.7908C94.4978 70.7808 94.5138 70.7987 94.5098 70.8386Z" fill="#FBFBFB"/>
<path d="M37.1465 48.2139C37.1925 48.2178 37.2385 48.2198 37.2545 48.2756C37.2085 48.2736 37.1665 48.2616 37.1465 48.2139Z" fill="#FBFBFB"/>
<path d="M37.2625 48.3252C37.3085 48.3292 37.3445 48.3431 37.3305 48.4008C37.2785 48.4008 37.2665 48.367 37.2625 48.3252Z" fill="#FBFBFB"/>
</g>
<defs>
<clipPath id="clip0_638_3147">
<rect width="164" height="80" fill="white"/>
</clipPath>
</defs>
</svg>
