<svg width="164" height="80" viewBox="0 0 164 80" fill="none" xmlns="http://www.w3.org/2000/svg">
<g clip-path="url(#clip0_794_4087)">
<path d="M61.7831 15.0857H54.4483C34.4674 -7.75771 2.92981 11.4584 6.99603 39.7574C10.43 63.6316 38.5239 73.9982 54.4483 54.5682H61.7831C51.851 70.5459 30.9557 75.7 15.1577 64.7208C-4.80381 50.8339 -5.1151 19.5105 14.6129 5.23454C30.4206 -6.21148 51.8413 -1.30049 61.7831 15.0857Z" fill="white"/>
<path d="M155.744 54.5586V60.7144H58.1643L62.9504 54.5586H155.744Z" fill="white"/>
<path d="M39.0395 47.9841C39.7399 48.5092 40.0609 45.2223 40.0999 44.9014C40.5765 40.5739 40.1971 31.9091 41.9092 28.2429C42.6291 26.6967 44.3996 26.0451 45.8393 27.0759C47.5903 28.3207 47.707 36.4019 48.1837 38.6386C48.8549 38.0843 48.7868 36.9174 49.2051 36.1588C49.9736 34.739 51.5106 34.5931 52.96 34.3889H152.252C152.797 34.3889 153.536 34.5056 153.633 35.1474L153.429 36.013L152.466 36.3241H53.3881C50.0709 36.6451 51.3452 38.483 50.1876 40.3307C49.2537 41.8283 47.4833 41.5074 46.598 40.1168C45.528 38.4539 45.5183 33.4359 45.1097 31.2089C44.205 26.3368 43.4073 29.5266 43.0863 32.1717C42.5805 36.2366 42.6875 40.4085 42.2303 44.4832C42.0162 46.4476 41.7633 51.4169 38.7769 50.921C36.948 50.6195 36.7632 48.2467 36.52 46.788C35.0706 38.1816 35.1679 28.8166 34.1464 20.0741C33.9421 18.3334 33.6795 16.5732 33.3001 14.8714C32.4635 14.2393 31.6756 19.9282 31.6269 20.3075C30.9946 25.2963 31.0433 30.499 30.7028 35.517C30.4109 36.4895 28.3292 36.2463 28.4167 35.1183C28.8448 29.3807 28.6891 23.4194 29.9537 17.7985C30.265 16.3981 30.8779 13.7822 32.123 12.9556C35.1873 10.9037 35.9364 16.758 36.2379 18.6154C37.4636 26.2979 37.3761 34.564 38.1835 42.3535C38.2613 43.112 38.7866 47.7896 39.0395 47.9744V47.9841Z" fill="white"/>
<path d="M113.973 39.0673C114.401 39.2034 115.471 45.3981 115.772 46.3998C115.86 46.6818 115.792 47.061 116.2 47.1291L117.708 39.0868H121.93L123.535 47.1291L125.345 39.0576H129.81L126.278 51.5928L121.113 51.5539L119.605 44.5715C119.051 44.5229 119.255 44.5423 119.187 44.8924C118.778 47.1097 118.438 49.3464 118.117 51.5733L113.856 51.4761L109.615 39.0479H113.973V39.0673Z" fill="white"/>
<path d="M71.9389 38.9117C67.289 39.5438 65.431 44.552 67.2695 48.5586C69.4777 53.3432 79.0402 52.9639 80.3437 47.732C81.8515 41.6638 77.8047 38.124 71.9389 38.9117ZM72.5712 48.5683C70.2851 47.9848 70.2851 42.6751 72.5712 42.0917C74.2249 41.6735 75.8592 42.2764 76.3067 43.988C77.0071 46.6817 75.6841 49.356 72.5712 48.5683Z" fill="white"/>
<path d="M100.422 38.9116C95.9082 39.5242 94.556 43.7642 95.4704 47.7708C96.7545 53.4112 108.389 53.4695 108.982 46.8275C109.517 40.9246 106.278 38.1239 100.422 38.9116ZM103.087 48.578C98.4082 49.638 98.4569 42.7334 101.258 42.0916C105.879 41.0316 105.879 47.9459 103.087 48.578Z" fill="white"/>
<path d="M150.861 46.1759C150.793 45.9717 153.74 45.8355 154.304 44.1045C154.674 42.9765 154.587 41.0218 153.711 40.1466C151.989 38.4447 145.394 39.3005 142.991 39.0671V51.2717L143.312 51.5926H146.814V46.7108L150.54 51.5926H154.898L150.861 46.1759ZM147.028 44.3768V42.0429C148.322 42.1109 150.131 41.6539 150.763 43.0931C150.773 44.9895 148.293 44.2407 147.028 44.3768Z" fill="white"/>
<path d="M141.289 39.0674V41.8292H134.703V43.9492H141.289C141.162 44.8342 141.61 46.0303 140.968 46.711H134.693V48.831H141.279V51.5929H131.074V39.0674H141.279H141.289Z" fill="white"/>
<path d="M92.1825 39.6022C91.8225 39.4369 90.2661 39.0674 89.9451 39.0674H82.406V51.5929H86.015V47.771H89.7408C90.5287 47.771 92.4062 46.9444 93.0385 46.3998C95.0424 44.6688 94.6339 40.7011 92.1825 39.6022ZM86.015 45.0092V42.0432H89.0987C89.4392 42.0432 90.0423 42.5099 90.1785 42.8795C91.0249 45.3398 87.5228 45.0773 86.015 45.0092Z" fill="white"/>
<path d="M65.3921 43.3163C63.213 41.6729 58.7966 40.856 58.0476 44.3666C57.0651 48.9664 62.785 50.2112 65.3921 46.9242V50.2112C59.6332 54.4609 52.5027 50.0264 54.4385 42.8787C55.7032 38.1817 61.7733 38.0358 65.3921 40.0197V43.3066V43.3163Z" fill="white"/>
<path d="M134.489 67.9393C134.732 65.3039 133.234 67.9296 132.835 68.1435C131.979 68.5909 128.107 68.6881 127.465 69.3105L127.251 69.7384L127.572 70.2635L131.93 68.9993C132.378 69.4369 128.185 72.7142 128 73.4532C127.144 73.8131 128.273 71.7514 128.263 71.6444C127.31 69.4369 124.08 74.2993 123.428 73.6672C123.399 72.7628 125.111 71.8389 124.187 71.0999C122.971 70.1371 120.286 74.4257 119.099 74.0854C118.613 73.9395 118.71 73.0643 118.954 72.7336C119.08 72.5586 119.411 72.6655 119.615 72.4613C120.413 71.625 123.049 67.881 123.302 66.8696C123.36 66.6459 123.263 66.4709 123.195 66.2569C122.796 66.2083 122.387 66.1694 121.998 66.3056C121.707 66.4028 118.72 70.3316 118.428 70.9054C117.28 73.181 117.592 76.3123 120.753 74.2701C120.88 74.1826 123.321 71.3624 122.699 72.8406C122.563 73.1712 122.329 73.1712 122.475 73.6575C123.137 75.8844 125.568 72.8017 126.619 72.3933C126.298 72.967 126.444 74.6202 127.329 74.4841C127.436 74.4743 129.002 73.5019 129.177 73.356C129.713 72.9378 130.286 71.9556 130.977 71.5472C131.065 72.0334 130.958 75.5441 132.144 74.7272C132.641 74.3868 131.921 73.0448 131.921 72.5099C131.94 71.3721 133.059 69.398 134.071 68.9021C135.15 68.3769 136.259 69.1744 136.824 67.6184L134.489 67.9393ZM122.368 67.2975C122.154 68.2602 120.899 69.9815 120.17 70.6233C120.043 70.74 119.78 70.8373 119.605 70.9054C119.372 70.6136 121.775 67.5406 122.368 67.2975Z" fill="white"/>
<path d="M115.802 71.2072C114.771 68.951 110.306 72.9771 109.829 72.6075C110.179 72.131 110.422 71.6642 110.218 71.0516C109.887 70.0597 105.325 69.9332 104.294 69.6318C103.661 68.8732 107.008 67.4242 107.533 67.2395C109.041 66.7241 111.57 66.0822 112.747 67.4048C111.911 68.1244 113.273 68.5912 113.448 67.609C113.535 67.1131 113.127 66.1211 112.738 65.878C110.86 64.6819 105.743 66.4809 104.187 67.9299C100.782 71.1099 107.747 70.3028 108.934 71.8587C109.051 73.2396 104.216 74.3385 103.185 74.9901C102.912 75.1554 102.728 75.1943 102.815 75.5736C106.045 75.9528 108.486 73.4244 111.444 72.627C112.066 72.4811 111.327 73.5217 111.755 74.1732C112.961 75.9917 117.057 73.9204 115.802 71.2072ZM112.806 74.2996C112.494 73.4439 114.09 71.3141 114.887 71.7907C115.87 73.0451 114.168 74.4552 112.806 74.2996Z" fill="white"/>
<path d="M64.0692 65.868C64.5945 66.5779 64.0886 67.3753 63.5925 67.9394L63.2618 67.21C63.8746 67.0641 64.2248 66.1792 63.5731 66.0431C62.8532 65.8875 59.643 68.1144 59.6625 69.2133C60.7423 68.834 61.861 68.0561 63.0575 68.4645C62.6684 69.5731 61.861 69.3008 61.0925 69.6898C59.4874 70.5164 57.1819 72.1113 57.1916 74.1049C58.2325 75.5441 63.505 71.4986 64.4388 70.7012C64.8279 71.2263 64.0692 71.5764 63.9038 71.9751C64.7209 72.014 65.7715 70.4386 66.3455 71.557C66.5011 71.8584 66.2968 72.5878 66.7735 72.403C67.3669 72.1696 68.5829 70.9832 69.2833 71.1583C70.3047 71.4208 69.9059 72.9671 69.8572 73.677C70.1296 73.959 71.7931 72.6656 72.0849 72.403C72.6491 73.181 70.83 74.4161 70.2658 74.6203C68.7385 75.194 68.3689 73.6089 68.5732 72.403C68.0479 71.8973 65.3143 74.4647 64.6431 74.6883C63.1256 74.0465 65.47 72.5003 65.1781 72.1891L63.7968 73.0351L63.5828 72.1891C62.717 72.9865 61.6664 73.4436 60.7228 74.0173C60.5672 74.1146 60.5088 74.4355 60.3337 74.5328C59.6333 74.9315 57.9212 75.7192 57.1624 75.4177C56.929 75.3302 55.7324 74.4063 55.5962 74.2313C54.5846 72.8795 57.6877 70.0788 59.0107 69.8649C58.7481 69.3592 58.0768 69.8649 58.1547 68.9216C58.2811 67.4337 62.5322 64.7594 64.0594 65.8875L64.0692 65.868Z" fill="white"/>
<path d="M156.172 73.2393L158.4 71.7612C159.178 72.2668 158.098 72.7823 157.631 73.1129C157.009 73.5602 154.149 75.1648 153.536 75.0967C153.166 75.0578 152.797 74.6689 152.553 74.4063C153.011 73.5213 154.12 74.1048 154.684 73.7742L155.53 71.5375C155.355 71.3527 151.824 74.2604 151.347 74.4744C149.713 75.2329 149.411 73.4824 149.577 72.1696C148.03 72.3057 146.882 74.2896 145.433 74.5035C144.898 74.5813 145.063 73.6867 145.16 73.3755C145.316 72.899 146.036 72.7531 145.968 72.1599L144.8 72.792L144.489 72.4808C144.654 71.732 146.055 71.6056 146.532 70.9054C147.223 71.1193 147.689 71.7028 147.242 72.3738C147.456 72.578 150.316 70.0399 150.812 71.6736C151.026 72.3641 150.384 73.7061 151.143 73.6186C151.289 73.5991 153.507 72.3252 153.721 72.1599C154.47 71.5861 154.635 70.6331 155.423 70.2344C156.289 70.2344 156.435 72.5975 156.172 73.2199V73.2393Z" fill="white"/>
<path d="M94.5173 74.9417C94.3519 74.7764 96.9978 70.2641 94.5854 71.2852C93.3402 71.8104 92.0172 73.1038 90.5872 73.4539C90.7234 72.5689 91.7935 72.1313 91.5405 71.1199C91.1417 70.7115 87.6397 73.3761 89.8382 72.8218C89.2545 76.0406 92.6495 73.0746 93.8169 72.6467C94.1281 72.5397 94.3908 72.5008 94.313 72.9287C93.9433 73.5414 93.7293 74.6306 93.3499 75.146C92.99 75.6419 91.9491 76.1379 91.4335 76.6339C90.3732 77.6452 87.4159 80.9614 90.4705 81.0003C91.5405 80.4362 93.7779 75.7294 94.3032 75.4669C94.6437 75.3113 95.3149 75.3016 95.6846 75.3696C96.2488 75.4766 96.3072 76.0406 96.8617 76.0017C97.0173 74.4555 95.6165 74.6792 94.5173 74.9417ZM91.0833 79.0359C90.8693 79.3373 90.5872 79.8625 90.2273 80.1056C90.1106 80.1931 89.9841 80.2515 89.8479 80.2515C90.1689 78.6663 91.0444 77.052 92.6106 76.4296C92.0756 77.2854 91.6573 78.2093 91.0833 79.0359Z" fill="white"/>
<path d="M87.4939 74.6113C87.4647 73.9694 88.9336 72.0245 88.7779 71.4507C88.5542 70.9645 88.0873 71.334 87.9705 71.266C87.9219 71.2465 87.9413 70.9353 87.7954 70.9061C86.8129 70.6922 84.2448 71.9759 83.5736 72.8219L83.6805 72.1801C83.3109 71.9078 80.9665 74.1542 80.0618 73.8819L81.5112 71.8397L81.0735 70.5269C80.8984 70.4005 80.6941 70.3324 80.4704 70.381C80.3634 70.4005 78.6415 71.1784 78.4275 71.2951C77.2407 71.9272 76.8127 73.1623 75.1784 73.7749C74.5267 74.0181 72.8632 74.3195 73.8944 73.347C74.7796 72.5107 76.0734 72.1801 76.8711 71.2271C76.5501 70.2157 74.7504 70.7116 74.0306 71.159C73.5733 71.441 72.3574 73.3179 72.4449 73.7458C72.4838 73.9111 73.1161 74.6891 73.3593 74.7766C74.3418 75.1169 77.3477 73.8041 77.9995 73.0456C78.2913 72.6955 78.1941 72.2579 78.4178 72.0148C78.4859 71.937 80.5579 70.7214 80.2758 71.4313C79.9451 72.2482 78.661 72.9872 79.41 74.1639C80.1785 75.3601 82.7856 73.0359 83.0385 73.2498L82.63 74.0764L83.3984 74.7377C84.0502 74.9808 87.1339 72.6663 87.2896 72.8219C87.1826 75.0294 85.3732 74.5724 84.0308 75.399C83.0191 76.0116 81.0832 78.3067 82.7175 79.143C83.5152 78.579 84.3518 78.0538 85.0814 77.3925C85.5191 76.9938 86.5503 75.4768 86.6865 75.3795C86.8324 75.2823 87.669 75.9047 87.9316 75.2531C88.1553 74.6891 87.4939 74.7182 87.4939 74.6113ZM84.1086 73.8819C83.9627 73.3276 84.2934 73.5026 84.4977 73.3276C85.2078 72.7149 86.1514 71.9467 87.0756 71.7619C86.2973 72.7344 85.3537 73.6193 84.1086 73.8819ZM82.8245 78.1219C82.8245 76.4687 84.3615 75.6421 85.8012 75.3698C86.1417 75.6907 83.6319 78.365 82.8245 78.1219Z" fill="white"/>
<path d="M142.252 70.5167C139.985 70.4973 138.438 73.2396 136.717 73.4536C135.958 73.5508 136.901 72.413 136.989 72.024C137.077 71.6545 137.047 71.2752 137.038 70.9057C135.763 70.7404 134.839 71.7323 133.837 72.3158L134.168 73.0354L135.977 72.1796C135.754 73.1327 134.956 73.7453 135.676 74.747C136.775 75.0484 138.507 73.191 139.372 72.6075C138.711 75.8653 142.66 75.3207 143.604 72.8993C144.022 71.8393 143.487 70.5264 142.252 70.5167ZM140.442 74.2996C140.131 73.4439 141.726 71.3141 142.524 71.7906C143.633 73.0451 141.765 74.5136 140.442 74.2996Z" fill="white"/>
<path d="M160.579 33.1739C157.544 33.699 157.583 38.3863 160.54 38.8434C165.287 39.5825 165.005 32.4056 160.579 33.1739ZM161.795 38.4252C158.137 39.106 157.622 34.0296 160.793 33.592C163.828 33.1836 164.587 37.9001 161.795 38.4252Z" fill="white"/>
<path d="M161.493 36.4118C163.176 34.6516 161.474 34.4182 159.781 34.6127V37.7927H160.423V36.3145C161.493 36.0131 161.406 37.9094 162.34 37.6857L161.493 36.4118ZM160.209 35.8867V35.0406C162.194 34.8072 162.203 36.1201 160.209 35.8867Z" fill="white"/>
</g>
<defs>
<clipPath id="clip0_794_4087">
<rect width="164" height="80" fill="white"/>
</clipPath>
</defs>
</svg>
