<svg width="48" height="49" viewBox="0 0 48 49" fill="none" xmlns="http://www.w3.org/2000/svg">
<g clip-path="url(#clip0_647_4467)">
<path d="M23.5185 48.1872L9.93198 44.3168L6.9043 9.46973H40.1733L37.1424 44.3114L23.5185 48.1872Z" fill="#264DE4"/>
<path d="M34.5473 42.0931L37.1374 12.3193H23.5385V45.225L34.5473 42.0931Z" fill="#2965F1"/>
<path d="M13.8458 25.2432L14.2191 29.517H23.5394V25.2432H13.8458Z" fill="#EBEBEB"/>
<path d="M13.0948 16.5918L13.4735 20.8657H23.5385V16.5918H13.0948Z" fill="#EBEBEB"/>
<path d="M23.539 36.3441L23.5208 36.3491L18.8822 35.0639L18.5857 31.6553H14.4048L14.9883 38.3658L23.5198 40.7962L23.539 40.7907V36.3441Z" fill="#EBEBEB"/>
<path d="M14.7338 0H19.7782V2.16467H16.8433V4.32934H19.7782V6.49401H14.7338V0Z" fill="white"/>
<path d="M20.7867 0H25.8312V1.88232H22.8962V2.25879H25.8312V6.58812H20.7867V4.61169H23.7217V4.23522H20.7867V0Z" fill="white"/>
<path d="M26.8408 0H31.8853V1.88232H28.9503V2.25879H31.8853V6.58812H26.8408V4.61169H29.7758V4.23522H26.8408V0Z" fill="white"/>
<path d="M33.2056 25.2422L33.9575 16.5918H23.5243V20.8657H29.3931L29.0141 25.2422H23.5243V29.516H28.6529L28.1695 35.0589L23.5243 36.3454V40.7919L32.0626 38.3636L32.1253 37.6415L33.104 26.3898L33.2056 25.2422Z" fill="white"/>
</g>
<defs>
<clipPath id="clip0_647_4467">
<rect width="47.0783" height="48.3095" fill="white"/>
</clipPath>
</defs>
</svg>
