<svg width="164" height="80" viewBox="0 0 164 80" fill="none" xmlns="http://www.w3.org/2000/svg">
<path d="M133.822 40.5365C133.822 27.8194 133.819 15.1022 133.829 2.38667C133.829 1.96313 133.626 1.31854 134.011 1.15469C134.566 0.918182 135.194 0.984651 135.783 1.14232C135.942 1.1856 135.94 1.43602 135.943 1.6246C135.945 1.88739 135.945 2.15171 135.945 2.4145C135.945 27.8101 135.947 53.2057 135.936 78.6028C135.936 79.048 136.181 79.7452 135.715 79.9028C135.187 80.0806 134.589 79.9693 134.025 79.9214C133.809 79.9028 133.828 79.5875 133.825 79.3649C133.82 78.9893 133.823 78.6121 133.823 78.2365C133.823 65.6708 133.823 53.1037 133.823 40.538L133.822 40.5365Z" fill="#FBFBFB"/>
<path d="M106.006 42.8468C106.006 46.7179 106.006 50.589 106.006 54.4601C106.006 54.841 106.016 55.2219 105.991 55.5996C105.954 56.1912 105.609 56.5034 105.074 56.5081C104.544 56.5128 104.188 56.2193 104.133 55.6262C104.113 55.3998 104.12 55.1704 104.12 54.9425C104.12 49.5057 104.12 44.069 104.12 38.6322C104.12 37.9876 104.018 37.2617 104.806 37.0338C105.648 36.7903 105.922 37.4771 106.219 38.1046C108.337 42.5861 110.461 47.066 112.584 51.5459C112.819 52.0422 113.06 52.5339 113.307 53.0459C113.698 52.7618 113.779 52.3747 113.937 52.0422C116.147 47.3953 118.354 42.7469 120.555 38.0953C120.852 37.4662 121.124 36.7825 121.968 37.0338C122.756 37.2695 122.648 38.0047 122.648 38.6416C122.652 44.0783 122.652 49.5151 122.648 54.9518C122.648 55.5122 122.74 56.1257 122.099 56.4254C121.336 56.7813 120.769 56.249 120.768 55.136C120.761 51.2961 120.765 47.4562 120.765 43.6163V42.6704C120.354 42.8561 120.304 43.223 120.169 43.5039C118.28 47.4718 116.401 51.4444 114.52 55.4154C114.28 55.9212 114.101 56.4925 113.425 56.5253C112.674 56.5612 112.492 55.9321 112.239 55.3951C110.403 51.5271 108.574 47.656 106.74 43.788C106.583 43.4587 106.411 43.1387 106.245 42.814C106.166 42.8249 106.087 42.8358 106.007 42.8483L106.006 42.8468Z" fill="#FBFBFB"/>
<path d="M95.021 25.2144C95.021 26.1243 95.0148 27.0356 95.021 27.9454C95.0256 28.6128 94.8102 29.1156 94.0286 29.1201C93.2455 29.1231 93.0117 28.5874 93.004 27.9484C92.9855 26.2006 92.9963 24.4528 92.9963 22.705C92.9963 19.1719 92.9932 15.6404 92.9963 12.1073C92.9978 10.6109 93.2224 10.3954 94.7425 10.3909C96.0533 10.3864 97.3642 10.3819 98.6734 10.3909C101.363 10.4089 103.587 11.9068 104.368 14.2143C105.181 16.625 104.36 19.1674 102.129 20.6638C101.394 21.1577 101.441 21.4659 101.864 22.0944C103.011 23.7988 104.083 25.5481 105.201 27.2705C105.595 27.8766 105.883 28.5155 105.124 28.9794C104.383 29.4328 103.898 28.9525 103.503 28.3255C102.232 26.3113 100.923 24.3196 99.6566 22.3024C99.3735 21.8535 99.0689 21.6171 98.4981 21.6605C97.3857 21.7472 95.9379 21.222 95.2425 21.8535C94.5363 22.4955 95.0979 23.9185 95.0194 24.9975C95.0148 25.0693 95.0194 25.1426 95.0194 25.2159L95.021 25.2144ZM95.0225 15.9396C95.0225 16.9587 95.0518 17.9778 95.0118 18.9953C94.9887 19.5759 95.2118 19.757 95.7887 19.7376C96.798 19.7046 97.8088 19.745 98.8181 19.7256C100.96 19.6837 102.58 18.1798 102.629 16.2135C102.683 14.0826 101.161 12.429 98.9704 12.3093C97.8888 12.2495 96.8011 12.3183 95.7179 12.2884C95.1733 12.2734 94.9994 12.4844 95.0148 12.9932C95.0425 13.9748 95.0225 14.958 95.0241 15.9396H95.0225Z" fill="#FBFBFB"/>
<path d="M109.309 19.8317C109.309 17.2068 109.303 14.5805 109.312 11.9557C109.316 10.5773 109.508 10.3931 110.938 10.3901C114.308 10.3826 117.677 10.3871 121.046 10.3871C121.121 10.3871 121.194 10.3871 121.269 10.3871C121.996 10.3751 122.668 10.4949 122.645 11.4014C122.624 12.2538 121.968 12.3033 121.291 12.3018C118.366 12.2928 115.44 12.3392 112.517 12.2748C111.513 12.2523 111.156 12.5025 111.226 13.5303C111.32 14.9101 111.329 16.3064 111.223 17.6833C111.142 18.7155 111.544 18.8818 112.469 18.8504C114.428 18.7844 116.392 18.8429 118.355 18.8234C119.078 18.8159 119.805 18.8773 119.81 19.7523C119.816 20.6737 119.072 20.78 118.302 20.7755C116.266 20.7605 114.229 20.795 112.193 20.7575C111.501 20.7441 111.203 20.8924 111.232 21.652C111.291 23.2176 111.288 24.7877 111.232 26.3548C111.204 27.1114 111.503 27.2687 112.199 27.2612C115.087 27.2297 117.975 27.2462 120.864 27.2477C121.161 27.2477 121.457 27.2447 121.751 27.2702C122.378 27.3241 122.688 27.6927 122.65 28.2919C122.615 28.8448 122.27 29.1444 121.699 29.1504C120.885 29.1594 120.07 29.1564 119.256 29.1564C116.441 29.1564 113.628 29.1609 110.813 29.1549C109.532 29.1519 109.316 28.9512 109.312 27.7077C109.301 25.0828 109.309 22.458 109.309 19.8317Z" fill="#FBFBFB"/>
<path d="M92.6536 49.8163C91.5233 49.8163 90.1899 49.4415 89.3186 49.9209C88.4363 50.4065 88.3852 51.8977 87.9433 52.9361C87.6161 53.7027 87.3339 54.4882 87.0378 55.2673C86.7618 55.9965 86.4936 56.8397 85.4765 56.4181C84.4547 55.9934 84.8997 55.1658 85.1648 54.4725C86.768 50.2972 88.3898 46.1281 90.0023 41.9574C90.5217 40.6146 91.0411 39.2702 91.5543 37.9242C91.7559 37.3948 92.0226 36.9623 92.6738 36.9811C93.2661 36.9982 93.511 37.4011 93.7002 37.8898C95.8678 43.5126 98.0384 49.1355 100.208 54.7567C100.456 55.4 100.609 56.0699 99.8246 56.4166C98.9858 56.7866 98.5826 56.2339 98.3113 55.5203C97.6787 53.8542 97.012 52.2006 96.412 50.5236C96.198 49.924 95.891 49.6992 95.2584 49.7398C94.3933 49.796 93.5219 49.7538 92.6536 49.7538C92.6536 49.7741 92.6536 49.7944 92.6536 49.8131V49.8163ZM92.635 40.7723C91.7528 43.0473 90.9791 45.0507 90.1992 47.0509C90.0473 47.4413 90.0333 47.7052 90.5713 47.702C92.1001 47.6927 93.6289 47.6989 95.2956 47.6989C94.4041 45.377 93.5668 43.1972 92.635 40.7738V40.7723Z" fill="#FBFBFB"/>
<path d="M63.9111 49.7557C62.9811 49.8651 61.6296 49.2809 60.8415 49.976C60.114 50.6179 59.9632 51.9925 59.564 53.0452C59.2313 53.9246 58.8971 54.804 58.5792 55.6896C58.3382 56.3613 57.9094 56.7236 57.2499 56.4347C56.592 56.1457 56.5535 55.5756 56.799 54.9118C58.9001 49.2294 60.9923 43.5423 63.0801 37.8552C63.2635 37.3569 63.5134 36.9805 64.0738 36.9805C64.6312 36.9805 64.887 37.3444 65.0718 37.8474C67.1567 43.536 69.246 49.2231 71.3442 54.9071C71.5852 55.5584 71.5822 56.1441 70.908 56.43C70.182 56.7377 69.7872 56.3035 69.5328 55.5943C68.9355 53.9293 68.2553 52.2955 67.7053 50.6148C67.4687 49.8932 67.1183 49.6964 66.4529 49.7432C65.6648 49.7979 64.8722 49.7557 63.9111 49.7557ZM61.5246 47.7002C63.1349 47.7002 64.5662 47.6955 65.9989 47.7033C66.3878 47.7049 66.6214 47.6721 66.4204 47.141C65.6456 45.0933 64.9018 43.0331 64.0708 40.7729C63.1925 43.1643 62.3926 45.3369 61.5246 47.7018V47.7002Z" fill="#FBFBFB"/>
<path d="M89.2764 17.4546C89.2764 19.2447 89.287 21.0348 89.2749 22.8264C89.2506 26.2311 86.3983 29.0655 82.9206 29.1555C79.2334 29.2516 76.0745 26.5582 75.988 23.0695C75.8924 19.2357 75.9667 15.3974 75.9592 11.5607C75.9576 10.8749 76.2157 10.3813 76.9519 10.3858C77.6927 10.3918 77.9325 10.9064 77.931 11.5817C77.9265 15.2714 77.9037 18.9626 77.9386 22.6524C77.9583 24.8461 79.5644 26.7412 81.6288 27.1329C83.8815 27.5605 85.9748 26.5086 86.9311 24.4815C87.2363 23.8363 87.3167 23.161 87.3152 22.4573C87.3061 19.0587 87.3106 15.6615 87.3106 12.2629C87.3106 12.0078 87.3 11.7512 87.3152 11.4961C87.3562 10.8269 87.6583 10.3453 88.3975 10.3888C89.0806 10.4293 89.2916 10.8899 89.2855 11.5352C89.2643 13.5083 89.2779 15.4815 89.2779 17.4546H89.2764Z" fill="#FBFBFB"/>
<path d="M65.9809 29.1534C61.9866 29.1459 58.4153 26.6065 57.1673 22.8888C55.8641 19.0049 57.1241 14.8006 60.3409 12.3061C63.4431 9.89853 67.8396 9.73832 71.1339 11.9183C71.4049 12.098 71.6834 12.2837 71.9068 12.5172C72.3134 12.9425 72.3477 13.4455 71.9545 13.8872C71.5941 14.293 71.1309 14.3334 70.6901 13.9876C69.6416 13.1656 68.4844 12.628 67.1545 12.4259C63.8423 11.9228 60.6388 13.6552 59.2478 16.7425C57.8657 19.8104 58.6908 23.3155 61.3194 25.542C63.7857 27.6291 67.4091 27.8163 70.1212 25.9941C70.2716 25.8923 70.4086 25.771 70.5605 25.6707C71.0922 25.3174 71.6119 25.3174 71.9828 25.8714C72.3491 26.4193 72.1674 26.906 71.6536 27.2863C69.9663 28.5365 68.0927 29.2103 65.9794 29.1549L65.9809 29.1534Z" fill="#FBFBFB"/>
<path d="M79.474 47.6523C79.474 50.0126 79.4815 52.3728 79.4695 54.733C79.4665 55.4994 79.7034 56.5427 78.5442 56.5349C77.364 56.5271 77.535 55.4697 77.5335 54.6486C77.5275 49.8139 77.5035 44.9793 77.553 40.1462C77.5635 39.1765 77.295 38.9012 76.3922 38.9606C75.1565 39.042 73.9118 38.9747 72.6701 38.9825C71.9968 38.9872 71.4794 38.7463 71.4899 37.969C71.5004 37.201 72.0118 36.9789 72.6911 36.9805C76.5962 36.9914 80.5013 36.9899 84.4063 36.9836C85.0872 36.9836 85.5986 37.2354 85.5776 38.0018C85.5551 38.7636 85.0152 38.9857 84.3509 38.981C83.0732 38.9716 81.7925 39.0435 80.5193 38.9575C79.615 38.8965 79.438 39.2531 79.4545 40.1149C79.5055 42.6269 79.4725 45.1388 79.4725 47.6523H79.474Z" fill="#FBFBFB"/>
<path d="M40.3516 46.6327C40.3516 43.894 40.3578 41.1552 40.347 38.4164C40.3439 37.6696 40.4274 36.9712 41.3644 36.9806C42.3076 36.9899 42.357 37.7133 42.357 38.446C42.3524 43.3159 42.3462 48.1842 42.357 53.054C42.3601 54.7648 42.1468 54.5289 43.88 54.5382C46.4405 54.5507 48.9994 54.546 51.5599 54.5382C52.2464 54.5351 52.9236 54.5929 52.9514 55.471C52.9808 56.4052 52.3036 56.5365 51.5552 56.5349C48.3176 56.5287 45.0799 56.5396 41.8422 56.5302C40.5913 56.5271 40.3547 56.2693 40.3532 54.9663C40.3486 52.19 40.3532 49.4122 40.3532 46.6359L40.3516 46.6327Z" fill="#FBFBFB"/>
<path d="M106.294 67.4512C106.88 67.2471 107.553 67.3087 108.186 67.6641C108.231 67.6889 108.273 67.7196 108.309 67.7471C108.349 67.777 108.379 67.8002 108.413 67.8242C108.445 67.8473 108.47 67.8632 108.49 67.8721C108.501 67.8768 108.507 67.8774 108.51 67.8779C108.7 67.8563 108.855 67.8392 108.973 67.8369C109.087 67.8347 109.209 67.8454 109.302 67.9209C109.398 67.9991 109.427 68.1165 109.44 68.2275C109.454 68.341 109.453 68.491 109.453 68.6738L109.456 70.6201C109.455 71.27 109.45 71.9205 109.427 72.5693C109.411 73.0047 109.315 73.4223 109.099 73.7676C108.882 74.116 108.547 74.3821 108.075 74.5186C107.165 74.7811 106.223 74.7602 105.422 74.0908L105.316 73.998C105.209 73.8975 105.097 73.7731 105.021 73.6396C104.92 73.4614 104.863 73.2219 105.042 73.0156C105.137 72.9062 105.242 72.8323 105.363 72.8174C105.486 72.8022 105.59 72.8519 105.668 72.9121C105.745 72.9713 105.812 73.0512 105.869 73.124C105.931 73.2036 105.976 73.2693 106.029 73.333H106.03C106.264 73.6125 106.533 73.7503 106.817 73.793C107.105 73.8361 107.417 73.7832 107.732 73.6621L107.86 73.6064C108.14 73.4667 108.292 73.2651 108.373 73.0205C108.449 72.788 108.462 72.5102 108.442 72.1953C107.991 72.4688 107.535 72.6445 107.077 72.6709C106.541 72.7017 106.019 72.5293 105.519 72.1084C105.105 71.7594 104.85 71.205 104.753 70.6104C104.655 70.0142 104.713 69.3597 104.944 68.793C105.218 68.1215 105.707 67.6554 106.294 67.4512ZM107.134 68.2266C106.701 68.2202 106.351 68.3788 106.103 68.665C105.853 68.9542 105.695 69.3861 105.676 69.9385C105.64 70.9719 106.244 71.7566 107.004 71.8145C107.784 71.8731 108.447 71.1805 108.483 70.1172V69.9023C108.467 69.4158 108.339 69.0185 108.132 68.7354C107.897 68.4156 107.557 68.2323 107.134 68.2266Z" fill="#FBFBFB" stroke="white" stroke-width="0.3"/>
<path d="M33.082 69.0986L33.0781 69.1016C33.0781 70.1775 33.0787 71.252 33.0771 72.3281L33.0674 72.583C33.0578 72.6717 33.0392 72.7608 33.001 72.8389C32.9596 72.9234 32.8952 72.9983 32.7998 73.0479C32.7066 73.0962 32.5938 73.1145 32.4658 73.1094C32.3442 73.1041 32.2401 73.0751 32.1582 73.0146C32.0746 72.9529 32.0293 72.87 32.0059 72.7881C31.9833 72.7093 31.9795 72.6264 31.9795 72.5557C31.9795 72.5198 31.9806 72.4838 31.9814 72.4512C31.9823 72.4178 31.9828 72.3877 31.9824 72.3594L31.9688 71.125C31.9672 70.7128 31.9705 70.2997 31.9844 69.8877C31.9925 69.6452 31.9553 69.5221 31.8975 69.457C31.8438 69.3967 31.7383 69.3496 31.5039 69.3564C30.4915 69.3855 29.4776 69.3854 28.4668 69.3564C28.2353 69.3504 28.1257 69.3964 28.0684 69.458C28.0085 69.5225 27.9683 69.644 27.9756 69.8848L27.9873 70.5039C27.993 71.1228 27.982 71.7411 27.9785 72.3545C27.9785 72.4817 27.9826 72.6582 27.9248 72.8027C27.8935 72.8809 27.8428 72.9552 27.7627 73.0107C27.7035 73.0517 27.634 73.0784 27.5557 73.0928L27.4736 73.1025C27.3458 73.1122 27.2334 73.0979 27.1387 73.0527C27.0411 73.0062 26.9745 72.933 26.9316 72.8486C26.8528 72.6934 26.8516 72.4921 26.8516 72.335C26.8516 70.1443 26.8511 67.9533 26.8496 65.7627C26.8496 65.5994 26.8545 65.3993 26.9355 65.2451C26.9794 65.1618 27.0457 65.0898 27.1416 65.0439C27.2349 64.9994 27.3456 64.9843 27.4707 64.9922L27.5518 65.002C27.6294 65.0155 27.6985 65.0413 27.7578 65.0811C27.8378 65.1348 27.89 65.2068 27.9229 65.2842C27.9839 65.4284 27.9822 65.6048 27.9814 65.7383V66.208C27.9872 66.9447 28.172 67.4703 28.5107 67.8125C28.8494 68.1545 29.3673 68.3379 30.0908 68.3379C30.7432 68.3378 31.2059 68.1666 31.5078 67.8496C31.811 67.5312 31.977 67.0403 31.9785 66.3486C31.9785 66.1576 31.9733 65.9552 31.9795 65.7578V65.7568C31.9805 65.7272 31.9806 65.6961 31.9805 65.6621C31.9804 65.6288 31.9807 65.5918 31.9814 65.5557C31.9829 65.4845 31.9878 65.4029 32.0098 65.3252C32.0325 65.2449 32.0751 65.1631 32.1533 65.0996C32.2307 65.0368 32.3297 65.0035 32.4463 64.9932V64.9922C32.5702 64.981 32.681 64.9934 32.7754 65.0352C32.8723 65.0781 32.9418 65.1481 32.9883 65.2305C33.0746 65.3837 33.0828 65.5842 33.082 65.7529V69.0986Z" fill="#FBFBFB" stroke="white" stroke-width="0.3"/>
<path d="M69.5994 67.3545C70.1817 67.4218 70.7135 67.789 71.0847 68.2725C71.4563 68.7564 71.6825 69.3763 71.6335 69.9727C71.6111 70.2483 71.5107 70.4256 71.3289 70.5127C71.2468 70.5519 71.1586 70.5667 71.0779 70.5732L70.8386 70.5791C70.0162 70.582 69.1828 70.6029 68.3552 70.5762C68.055 70.5664 67.9644 70.642 67.9333 70.7021C67.9142 70.7396 67.9029 70.7963 67.9099 70.8809C67.917 70.9653 67.9407 71.0682 67.9812 71.1885C68.1783 71.7731 68.5509 72.1413 69.1169 72.2314C69.408 72.2777 69.6669 72.2444 69.8875 72.1387C70.1078 72.033 70.3005 71.85 70.4519 71.5801H70.4529C70.4719 71.5463 70.4902 71.5094 70.5105 71.4707C70.5305 71.4327 70.552 71.3921 70.574 71.3525C70.6173 71.2745 70.6691 71.1906 70.7312 71.1221C70.7935 71.0534 70.878 70.9878 70.989 70.9697C71.1027 70.9513 71.2147 70.9872 71.321 71.0605L71.406 71.1279C71.4825 71.1994 71.5326 71.2818 71.5525 71.375C71.5782 71.4956 71.5478 71.6094 71.5056 71.7031C71.4637 71.7964 71.4027 71.8848 71.3494 71.96L71.2136 72.1602C70.7906 72.9167 70.0886 73.1511 69.3796 73.1055L69.2595 73.0967C68.4899 73.0701 67.8812 72.7966 67.4724 72.2871C67.0443 71.7533 66.8538 70.9867 66.8972 70.0479C66.9381 69.159 67.2134 68.4395 67.6873 67.9629C68.1641 67.4833 68.8257 67.2656 69.5994 67.3545ZM69.2029 68.2676C68.4627 68.3163 67.9889 68.8101 67.9812 69.457C67.9789 69.6654 68.0257 69.7292 68.0505 69.749C68.0787 69.7714 68.1345 69.7843 68.2537 69.7676C68.3094 69.7597 68.3697 69.747 68.4363 69.7324C68.5009 69.7183 68.5724 69.7026 68.6423 69.6914C68.7732 69.6705 68.9357 69.6593 69.0769 69.7334C69.0805 69.7337 69.0875 69.7343 69.0994 69.7334C69.1138 69.7323 69.127 69.7307 69.1482 69.7285V69.7275L69.1541 69.7227H69.2185C69.3222 69.7227 69.4375 69.7301 69.531 69.7324C69.6305 69.7349 69.7217 69.7327 69.8083 69.7188C69.9099 69.702 70.0167 69.7127 70.1082 69.7246C70.2081 69.7376 70.2873 69.7518 70.3669 69.7568C70.4445 69.7617 70.4935 69.7543 70.5251 69.7393C70.5488 69.728 70.5769 69.7064 70.5974 69.6406C70.6455 69.4864 70.6221 69.3201 70.5447 69.1465C70.4669 68.9721 70.3391 68.8005 70.197 68.6455H70.196C69.9591 68.3865 69.6774 68.2704 69.3474 68.2637L69.2029 68.2676Z" fill="#FBFBFB" stroke="white" stroke-width="0.3"/>
<path d="M53.2844 64.9912C53.4105 65.0025 53.5141 65.05 53.5852 65.1377C53.652 65.2202 53.6744 65.3203 53.6829 65.4062C53.6913 65.4926 53.6875 65.5853 53.6838 65.6631L53.6819 65.8701L53.6946 66.0938C53.6989 66.3197 53.6824 66.5492 53.6799 66.7578C53.6772 66.986 53.6897 67.2061 53.7512 67.4229C53.8264 67.3767 53.9019 67.3318 53.9807 67.2842C54.1092 67.2066 54.2428 67.131 54.384 67.0732L54.6077 66.9941C55.1269 66.8431 55.6158 66.9243 56.0002 67.2178C56.4346 67.5495 56.7093 68.1329 56.762 68.8867C56.8433 70.0616 56.7947 71.2596 56.801 72.4268C56.8017 72.5775 56.7909 72.7521 56.7219 72.8867C56.6852 72.9585 56.6296 73.0238 56.5481 73.0654C56.4877 73.0962 56.4209 73.11 56.3499 73.1104L56.2766 73.1064C56.1896 73.0962 56.1133 73.0658 56.051 73.0146C55.9896 72.9642 55.9501 72.8998 55.9241 72.835C55.8742 72.7108 55.8671 72.5636 55.8665 72.4434C55.8613 71.4192 55.8746 70.4022 55.8567 69.3828C55.8496 68.9878 55.8142 68.6378 55.6956 68.3809C55.6376 68.2554 55.5609 68.1559 55.4612 68.084C55.3618 68.0123 55.2306 67.9611 55.053 67.9453C54.7003 67.9137 54.4302 68.0016 54.2268 68.1895C54.0191 68.3814 53.8638 68.6943 53.7766 69.1426C53.6783 69.6491 53.6654 70.1647 53.6721 70.6914C53.6788 71.2136 53.7046 71.7552 53.6799 72.2881C53.6771 72.3518 53.6809 72.421 53.6829 72.5068C53.6847 72.5866 53.6845 72.6792 53.6682 72.7646C53.6519 72.8502 53.6161 72.9485 53.5295 73.0186C53.4408 73.0902 53.3259 73.1116 53.1995 73.0986C53.0912 73.0873 53.0005 73.0451 52.9338 72.9727C52.8701 72.9034 52.8391 72.8188 52.8235 72.7412C52.8079 72.6638 52.8057 72.582 52.8059 72.5088C52.806 72.4716 52.807 72.4338 52.8079 72.3994C52.8087 72.3644 52.8088 72.3322 52.8088 72.3018C52.8037 70.1419 52.8037 67.9821 52.8088 65.8223L52.803 65.5898C52.8016 65.5073 52.8035 65.4143 52.8215 65.3281C52.8396 65.242 52.877 65.1448 52.9612 65.0752C53.048 65.0034 53.1602 64.98 53.2844 64.9912Z" fill="#FBFBFB" stroke="white" stroke-width="0.3"/>
<path d="M36.5624 67.3701C38.0267 67.1683 39.2569 67.8692 39.6405 69.1865C39.6977 69.3829 39.7416 69.5776 39.7528 69.7559C39.7639 69.9332 39.7432 70.1091 39.6581 70.2578C39.478 70.572 39.0763 70.6698 38.4628 70.5869H38.4618C38.2966 70.5642 38.1252 70.5624 37.9462 70.5664L37.3973 70.5791H36.1923L35.8544 70.5947C35.7576 70.6034 35.6757 70.6157 35.6073 70.6318C35.4679 70.6648 35.4101 70.7078 35.3866 70.7422C35.3663 70.772 35.3506 70.827 35.3807 70.9424C35.4113 71.0588 35.4829 71.2125 35.5995 71.4131L35.7206 71.5938C36.3731 72.4432 37.7007 72.4841 38.412 71.6025L38.5653 71.377C38.6184 71.2943 38.6806 71.2008 38.7548 71.125C38.8302 71.0479 38.9285 70.9781 39.0565 70.9609C39.1854 70.9437 39.3178 70.9829 39.453 71.0693C39.583 71.1525 39.6671 71.2599 39.6874 71.3916C39.7066 71.5166 39.6631 71.6322 39.6112 71.7246C39.5587 71.8182 39.4857 71.9083 39.4208 71.9854C39.3519 72.067 39.2936 72.1321 39.2509 72.1924V72.1934C38.593 73.1161 37.544 73.1695 36.5477 73.0791C35.8546 73.016 35.2883 72.7233 34.8925 72.2441C34.4981 71.7668 34.2818 71.1159 34.2655 70.3496C34.2484 69.5544 34.4596 68.8591 34.8602 68.3359C35.2619 67.8116 35.8483 67.4691 36.5624 67.3701ZM36.9276 68.2734C36.3977 68.3173 36.0626 68.5016 35.8339 68.7725C35.6307 69.0131 35.5031 69.3344 35.4091 69.7207C36.3627 69.7184 37.2662 69.7027 38.1639 69.7305C38.3263 69.7354 38.4411 69.7239 38.5184 69.7021C38.594 69.6809 38.6203 69.6535 38.6307 69.6367C38.6415 69.6193 38.6525 69.5847 38.6405 69.5146C38.6284 69.4439 38.5957 69.3521 38.5399 69.2363C38.3808 68.9055 38.178 68.65 37.9208 68.4854C37.6653 68.3219 37.3429 68.2395 36.9276 68.2734Z" fill="#FBFBFB" stroke="white" stroke-width="0.3"/>
<path d="M116.071 67.3369C117.27 67.3833 118.165 68.2711 118.331 69.5508C118.35 69.6952 118.36 69.832 118.351 69.9551C118.341 70.0782 118.312 70.1968 118.245 70.2979C118.105 70.5123 117.845 70.5825 117.497 70.5625C117.087 70.5393 116.674 70.5405 116.257 70.5449C115.842 70.5493 115.42 70.5572 115 70.5469C114.724 70.5406 114.647 70.6059 114.622 70.6514C114.607 70.6801 114.596 70.727 114.603 70.8027C114.609 70.8785 114.632 70.9728 114.671 71.0869L114.752 71.2979C114.958 71.7681 115.279 72.0801 115.78 72.1738L115.896 72.1914C116.163 72.2236 116.401 72.1901 116.605 72.0947C116.838 71.9858 117.039 71.7906 117.197 71.4971C117.274 71.3521 117.377 71.1615 117.512 71.0439C117.583 70.9819 117.674 70.9308 117.783 70.9238C117.894 70.9169 118.002 70.956 118.105 71.0293C118.216 71.109 118.285 71.2085 118.306 71.3252C118.325 71.4367 118.296 71.5412 118.257 71.627C118.218 71.713 118.164 71.7955 118.115 71.8643C118.064 71.938 118.022 71.9934 117.993 72.0439H117.992C117.562 72.7877 116.757 73.1331 115.968 73.1094C115.179 73.0856 114.384 72.6926 113.97 71.9336C113.673 71.3886 113.594 70.7971 113.607 70.2021C113.611 69.3803 113.82 68.685 114.204 68.1826C114.591 67.6771 115.15 67.3765 115.826 67.3389L116.071 67.3369ZM116.414 68.3066C115.936 68.1648 115.477 68.2132 115.117 68.5957C114.972 68.751 114.83 68.9211 114.736 69.0947C114.641 69.2686 114.603 69.4296 114.639 69.5762C114.662 69.6692 114.696 69.6987 114.721 69.7119C114.754 69.7293 114.806 69.7375 114.892 69.7305C114.983 69.7229 115.064 69.7049 115.178 69.6895C115.279 69.6757 115.399 69.6657 115.513 69.6943C115.573 69.7095 115.643 69.7123 115.726 69.709C115.798 69.7061 115.907 69.697 115.993 69.6963H115.996C116.373 69.6963 116.762 69.6874 117.146 69.6992C117.295 69.704 117.346 69.6709 117.361 69.6533C117.372 69.6397 117.398 69.5904 117.355 69.4443C117.203 68.9249 116.954 68.5132 116.506 68.3389L116.414 68.3066Z" fill="#FBFBFB" stroke="white" stroke-width="0.3"/>
<path d="M40.5559 68.502C40.8528 67.6005 41.9034 67.1756 43.0139 67.3916C43.4476 67.4766 43.8083 67.6538 44.053 67.9531C44.2675 68.2156 44.3806 68.557 44.3918 68.9756L44.3909 69.1602C44.3748 69.5437 44.3867 69.9234 44.387 70.4072C44.4361 70.5695 44.4342 70.742 44.4192 70.9023C44.4016 71.0897 44.374 71.2412 44.3655 71.4141C44.3575 71.5768 44.3706 71.7203 44.428 71.8457C44.4838 71.9677 44.5884 72.0873 44.7883 72.1914H44.7874C44.9243 72.2618 44.9536 72.4024 44.9446 72.5059C44.9354 72.61 44.8878 72.7173 44.8186 72.7949C44.6932 72.9355 44.5239 73.0045 44.3665 73.0107C44.2138 73.0167 44.0465 72.9627 43.9534 72.8242C43.8554 72.6784 43.7721 72.6054 43.7063 72.5713C43.6457 72.54 43.589 72.5358 43.5256 72.5508C43.4564 72.5672 43.3796 72.6062 43.2854 72.6641C43.2029 72.7148 43.0821 72.7977 42.9788 72.8584C42.3847 73.2068 41.706 73.1571 41.1125 72.9336C40.4921 72.6995 40.198 72.1394 40.1965 71.459C40.1952 70.7932 40.4501 70.1979 41.1057 69.9854C41.7137 69.7883 42.3623 69.7068 42.9641 69.5908C43.1186 69.5611 43.2373 69.5264 43.3215 69.4658C43.3957 69.4124 43.4547 69.3302 43.469 69.1689V69.168C43.4865 68.9731 43.4549 68.8132 43.386 68.6836C43.3171 68.5541 43.2057 68.4454 43.0471 68.3613V68.3604C42.4774 68.0573 41.7013 68.301 41.4075 68.9395C41.3789 69.0016 41.3494 69.0691 41.3186 69.1279C41.2877 69.187 41.2501 69.2487 41.2014 69.2998C41.1508 69.3528 41.0862 69.3961 41.0032 69.4141C40.9216 69.4316 40.8366 69.4214 40.7502 69.3926C40.6233 69.35 40.5245 69.285 40.4651 69.1904C40.4051 69.0947 40.3991 68.9917 40.4124 68.9043C40.4252 68.8192 40.4576 68.7371 40.4856 68.6709C40.5169 68.597 40.5408 68.5479 40.5559 68.502ZM43.301 70.3594C42.6359 70.3802 42.088 70.4999 41.7141 70.6914C41.3411 70.8825 41.1665 71.129 41.1721 71.4072C41.1788 71.7125 41.2817 71.8987 41.4241 72.0176C41.5354 72.1104 41.6816 72.1712 41.8508 72.2061L42.0276 72.2324L42.1663 72.2383C42.8488 72.2206 43.4609 71.5588 43.4817 70.7461C43.4634 70.6746 43.4685 70.6025 43.4729 70.5547C43.4795 70.4835 43.486 70.4445 43.4827 70.4082C43.4803 70.3825 43.4747 70.3833 43.4739 70.3828C43.4621 70.3751 43.4187 70.3558 43.301 70.3594Z" fill="#FBFBFB" stroke="white" stroke-width="0.3"/>
<path d="M66.4468 64.9932C66.4987 64.9932 66.5799 64.9904 66.647 64.9922C66.7184 64.9941 66.8005 65.0018 66.8784 65.0273C66.9588 65.0537 67.0388 65.101 67.0981 65.1836C67.1565 65.2649 67.1852 65.3667 67.1899 65.4854C67.195 65.605 67.1756 65.7101 67.1235 65.7959C67.0702 65.8835 66.9931 65.9351 66.9146 65.9648C66.839 65.9934 66.7574 66.003 66.688 66.0088C66.6528 66.0117 66.6167 66.0137 66.5845 66.0156C66.5514 66.0176 66.521 66.0186 66.4927 66.0215L66.4937 66.0225C66.3217 66.0401 66.1407 66.0291 65.9683 66.0117C65.7896 65.9937 65.6269 65.9706 65.4644 65.96C65.1386 65.9387 64.9073 65.9757 64.7612 66.1543C64.559 66.4022 64.5181 66.7278 64.5366 67.1152C64.5459 67.3083 64.569 67.5063 64.5894 67.7119C64.6094 67.914 64.6261 68.1222 64.6206 68.3232L64.6216 68.3242C64.5962 69.292 64.6084 70.2517 64.6099 71.2197L64.606 72.1914C64.6053 72.261 64.614 72.3365 64.6206 72.4336C64.6267 72.5227 64.6303 72.6274 64.6118 72.7256C64.5926 72.827 64.5466 72.9351 64.4438 73.0117C64.3435 73.0864 64.2111 73.1148 64.0532 73.1094C63.8945 73.1038 63.764 73.0645 63.6694 72.9805C63.5739 72.8955 63.5369 72.7845 63.5239 72.6826C63.5113 72.5833 63.52 72.4784 63.5288 72.3906L63.5454 72.1582C63.5331 71.7075 63.531 71.2562 63.5317 70.8057L63.5366 69.458V68.0527C63.5366 67.4042 63.3808 66.9274 63.0903 66.6006C62.8005 66.2746 62.3564 66.0764 61.7358 66.0234C61.6709 66.0179 61.607 66.0191 61.521 66.0166C61.4432 66.0143 61.3514 66.008 61.2661 65.9814C61.177 65.9536 61.0867 65.901 61.0269 65.8018C60.969 65.7056 60.9514 65.5853 60.9624 65.4463L60.9741 65.3613C60.9909 65.2796 61.0222 65.2084 61.0718 65.1504C61.1379 65.073 61.2232 65.0332 61.3042 65.0127C61.3832 64.9927 61.4655 64.989 61.5366 64.9893C61.5728 64.9894 61.6095 64.9912 61.6421 64.9922C61.6754 64.9932 61.7052 64.9933 61.7329 64.9932C63.3046 64.9867 64.8766 64.9867 66.4468 64.9932Z" fill="#FBFBFB" stroke="white" stroke-width="0.3"/>
<path d="M120.797 67.4824C121.834 67.0942 122.902 67.4962 123.252 68.4668L123.319 68.6445C123.343 68.7127 123.366 68.7866 123.377 68.8564C123.388 68.9311 123.389 69.0161 123.36 69.0996C123.33 69.1861 123.272 69.2595 123.186 69.3154L123.185 69.3164C123.105 69.3682 123.02 69.4014 122.931 69.4043C122.84 69.4073 122.759 69.3776 122.69 69.3281C122.561 69.2352 122.476 69.0705 122.415 68.8975C122.285 68.5295 122.093 68.373 121.882 68.3096C121.657 68.2419 121.384 68.2716 121.081 68.334C120.854 68.3803 120.681 68.5571 120.633 68.8516C120.587 69.143 120.752 69.3339 120.975 69.4453V69.4463C121.268 69.5926 121.593 69.6676 121.932 69.7549V69.7559C122.498 69.9025 122.925 70.1149 123.198 70.4229C123.476 70.7367 123.58 71.1314 123.535 71.6006C123.489 72.0771 123.281 72.461 122.929 72.7227C122.583 72.9809 122.11 73.1089 121.547 73.1074C121.545 73.1075 121.543 73.1083 121.541 73.1084V73.1074C121.156 73.1219 120.785 73.0685 120.464 72.8906C120.139 72.7099 119.881 72.4096 119.714 71.96C119.698 71.915 119.672 71.8657 119.638 71.7939C119.607 71.7282 119.573 71.6478 119.553 71.5645C119.534 71.4805 119.526 71.3805 119.565 71.2812C119.605 71.1793 119.685 71.0995 119.797 71.041L119.866 71.0098C119.935 70.9839 120.006 70.9746 120.076 70.9854C120.17 70.9998 120.244 71.0486 120.301 71.1064C120.407 71.2136 120.48 71.3811 120.542 71.5186L120.615 71.668C120.792 71.9928 121.006 72.1577 121.234 72.2236C121.502 72.301 121.822 72.2525 122.184 72.1035V72.1025C122.451 71.993 122.628 71.7743 122.614 71.4473C122.602 71.162 122.442 70.9612 122.209 70.8799V70.8789C121.975 70.7978 121.736 70.7298 121.493 70.6582C121.251 70.587 121.005 70.5125 120.763 70.4219C120.485 70.317 120.216 70.1696 120.017 69.9404C119.816 69.7075 119.696 69.4012 119.7 69.001C119.703 68.5954 119.815 68.2714 120.014 68.0186C120.212 67.7676 120.486 67.5981 120.797 67.4824Z" fill="#FBFBFB" stroke="white" stroke-width="0.3"/>
<path d="M78.6466 64.9902C78.7993 64.9963 78.9251 65.0339 79.0167 65.1143C79.1099 65.1961 79.1464 65.3024 79.1583 65.3994C79.1699 65.4934 79.16 65.5925 79.1515 65.6729C79.1423 65.7604 79.1345 65.8254 79.1368 65.8799C79.1626 66.4066 79.1498 66.9386 79.1466 67.5615C79.3295 67.4739 79.4975 67.3926 79.6642 67.3125C79.8897 67.2042 80.1097 67.1083 80.3439 67.0449C81.151 66.8263 81.9027 66.9159 82.4708 67.2656C83.0414 67.6169 83.4106 68.221 83.463 68.9951C83.5371 70.099 83.4889 71.2155 83.4835 72.3076L83.4806 72.5527C83.4754 72.6381 83.4615 72.734 83.422 72.8223C83.3807 72.9146 83.3122 72.9963 83.2052 73.0488C83.1019 73.0995 82.9746 73.1179 82.8243 73.1084V73.1074C82.6952 73.0994 82.587 73.0682 82.5011 73.0088C82.4131 72.9479 82.3612 72.8668 82.3322 72.7822C82.3042 72.7007 82.2971 72.6152 82.295 72.541C82.294 72.5035 82.2937 72.466 82.2941 72.4316C82.2945 72.3964 82.2954 72.3644 82.295 72.334V72.333C82.2861 71.349 82.2804 70.3652 82.2911 69.3799C82.2955 69 82.2522 68.6745 82.1056 68.4316C81.9652 68.1991 81.7155 68.0186 81.2491 67.96V67.9609C80.7472 67.8982 80.3328 67.9605 80.0118 68.1377C79.7332 68.2916 79.5125 68.5384 79.3644 68.8926L79.3058 69.0508C79.1488 69.527 79.1261 70.0153 79.1339 70.5215C79.1416 71.0203 79.1795 71.5494 79.131 72.0674C79.1254 72.1266 79.1358 72.2052 79.1515 72.3125C79.1657 72.4098 79.1846 72.5313 79.1759 72.6436C79.1668 72.76 79.127 72.8901 79.006 72.9805C78.891 73.0663 78.7303 73.0942 78.5314 73.082C78.3664 73.0718 78.2328 73.0243 78.1407 72.9287C78.0491 72.8335 78.0208 72.7136 78.0148 72.6074C78.0089 72.5027 78.0236 72.3924 78.0372 72.3008C78.0519 72.2018 78.0643 72.1266 78.0636 72.0654C78.0403 70.0192 78.0421 67.9727 78.0636 65.9268V65.9258C78.0643 65.8653 78.0528 65.793 78.0402 65.6943C78.0287 65.6047 78.0164 65.4946 78.0314 65.3906C78.0471 65.2817 78.0946 65.1669 78.2091 65.0869C78.3181 65.0109 78.4656 64.9828 78.6466 64.9902Z" fill="#FBFBFB" stroke="white" stroke-width="0.3"/>
<path d="M101.204 67.3359C101.923 67.3423 102.517 67.6444 102.923 68.1768C103.326 68.7053 103.538 69.4492 103.524 70.332C103.511 71.1894 103.292 71.8873 102.879 72.3721C102.464 72.8604 101.866 73.115 101.134 73.1104C100.431 73.1056 99.8351 72.8073 99.4183 72.2969C99.0033 71.7884 98.7713 71.0774 98.7748 70.252C98.7783 69.3943 99.0174 68.6633 99.4437 68.1455C99.8721 67.6252 100.483 67.3297 101.204 67.3359ZM101.195 68.2588C100.765 68.2528 100.41 68.4372 100.156 68.7705C99.8991 69.1075 99.7422 69.6045 99.7377 70.2227C99.7332 70.813 99.8933 71.33 100.153 71.6973C100.411 72.0635 100.764 72.2753 101.153 72.2832C101.537 72.2909 101.896 72.0877 102.166 71.7266C102.429 71.3756 102.599 70.8823 102.614 70.3223L102.615 70.2725C102.62 69.66 102.469 69.1553 102.216 68.8066C101.966 68.4611 101.614 68.2641 101.195 68.2588Z" fill="#FBFBFB" stroke="white" stroke-width="0.3"/>
<path d="M92.5135 67.3506C93.1181 67.4199 93.6286 67.7162 93.996 68.1807C94.4138 68.7091 94.6411 69.4479 94.6259 70.3047C94.6113 71.1479 94.3788 71.8508 93.9608 72.3447C93.5402 72.8417 92.9413 73.1143 92.2255 73.1104C91.4829 73.1056 90.8834 72.8306 90.4755 72.3135C90.0712 71.801 89.8689 71.0682 89.8778 70.1699C89.8854 69.3222 90.1121 68.6129 90.5253 68.1133C90.9411 67.6106 91.5361 67.3318 92.2489 67.335L92.5135 67.3506ZM92.1923 68.2588C91.3779 68.2849 90.7464 69.1 90.7723 70.291C90.7851 70.8655 90.9695 71.3781 91.2489 71.7393C91.5285 72.1007 91.894 72.3008 92.2733 72.2861C92.6578 72.2713 93.0123 72.0485 93.2733 71.6729C93.534 71.2975 93.6941 70.7781 93.6854 70.2002L93.6747 69.9775C93.6331 69.4717 93.4762 69.056 93.244 68.7617C92.9808 68.4283 92.6177 68.2455 92.1923 68.2588Z" fill="#FBFBFB" stroke="white" stroke-width="0.3"/>
<path d="M86.5282 67.3828C87.1618 67.2597 87.7047 67.3781 88.0907 67.7441C88.4724 68.1063 88.6733 68.685 88.6854 69.4248C88.7023 70.4494 88.6893 71.4767 88.6854 72.499L88.6796 72.6768C88.6733 72.7406 88.661 72.8066 88.6366 72.8662C88.6103 72.9304 88.5676 72.9944 88.4999 73.041C88.4322 73.0876 88.351 73.1088 88.2616 73.1104L88.2606 73.1094C88.1721 73.1111 88.0905 73.0944 88.0214 73.0508C87.9516 73.0068 87.9069 72.9446 87.8788 72.8809C87.8526 72.8214 87.8392 72.7549 87.8319 72.6904L87.8231 72.5098C87.8166 71.5886 87.8385 70.6836 87.8114 69.7725C87.7985 69.344 87.7519 68.9675 87.6073 68.7021C87.537 68.5732 87.4443 68.4728 87.3221 68.4043C87.1993 68.3356 87.0361 68.2931 86.8163 68.2959C86.469 68.3 86.1895 68.4334 85.9901 68.6758C85.7878 68.9217 85.6579 69.2925 85.6405 69.7832C85.6096 70.657 85.6343 71.5269 85.6317 72.4102L85.6268 72.6143C85.6214 72.6876 85.6098 72.7628 85.5848 72.8301C85.5578 72.9027 85.5128 72.9744 85.4384 73.0273C85.3641 73.08 85.2735 73.105 85.1718 73.1074C85.0697 73.1098 84.978 73.0888 84.9012 73.0391C84.824 72.989 84.7763 72.9189 84.7469 72.8467C84.7198 72.7797 84.706 72.7045 84.6991 72.6309L84.6913 72.4248C84.6861 71.7304 84.6906 71.0341 84.6893 70.3418H84.6874C84.6874 69.6474 84.6861 68.9518 84.6874 68.2568C84.6875 68.1132 84.7167 67.918 84.7743 67.7754C84.8008 67.7099 84.8462 67.6226 84.9257 67.5752C84.9717 67.5478 85.0288 67.5348 85.0897 67.5479C85.1467 67.5601 85.1918 67.5923 85.2264 67.627H85.2274C85.36 67.7608 85.4661 67.8077 85.5497 67.8184C85.6343 67.8291 85.7199 67.806 85.8192 67.7559C85.9237 67.7031 86.0191 67.6343 86.1395 67.5576C86.2514 67.4863 86.3821 67.4102 86.5282 67.3818V67.3828Z" fill="#FBFBFB" stroke="white" stroke-width="0.3"/>
<path d="M72.8729 68.1025C73.5925 67.2867 74.5506 67.184 75.5243 67.5029C75.89 67.6225 76.2273 67.8304 76.4315 68.1914C76.4726 68.2641 76.5263 68.3406 76.5878 68.4336C76.6461 68.5218 76.7091 68.6228 76.7518 68.7266C76.7945 68.8304 76.8235 68.9521 76.7958 69.0781C76.7671 69.2084 76.6836 69.3182 76.5516 69.4072C76.4247 69.4933 76.2942 69.5344 76.1659 69.501C76.0424 69.4687 75.9599 69.3768 75.9042 69.293C75.8479 69.2083 75.8026 69.1064 75.7645 69.0205C75.7236 68.9281 75.6911 68.8535 75.6552 68.7988C75.5281 68.605 75.3825 68.4733 75.2186 68.3896C75.0543 68.3058 74.8619 68.2657 74.6346 68.2705C73.7795 68.2877 73.1037 69.0502 73.0751 70.1836C73.0609 70.7458 73.2369 71.2739 73.5214 71.6562C73.8063 72.0392 74.1898 72.2641 74.5927 72.2559C74.9118 72.2491 75.1709 72.1541 75.3739 71.9893C75.578 71.8234 75.7346 71.5788 75.8348 71.2588H75.8358C75.8919 71.0802 75.9846 70.9352 76.1268 70.8604C76.2733 70.7833 76.4362 70.7988 76.5887 70.8662C76.6787 70.9062 76.7469 70.9658 76.788 71.0449C76.8279 71.122 76.8337 71.2028 76.828 71.2715C76.8223 71.3392 76.8055 71.4053 76.7889 71.46C76.7703 71.5216 76.7554 71.561 76.744 71.6045C76.5159 72.4855 75.7966 73.0193 74.8466 73.0986L74.8544 73.1064L74.7108 73.1074C74.6946 73.108 74.6783 73.1081 74.662 73.1084L74.5067 73.1104C73.9829 73.1158 73.5366 72.977 73.1747 72.71C72.8139 72.4438 72.546 72.0576 72.3641 71.584C71.8937 70.3593 71.9749 69.1207 72.8729 68.1025Z" fill="#FBFBFB" stroke="white" stroke-width="0.3"/>
<path d="M49.5833 65.7705C49.8608 65.768 50.047 65.8549 50.1399 66.0312C50.1815 66.1104 50.1974 66.1959 50.2034 66.2715C50.2092 66.3463 50.2062 66.4235 50.2043 66.4863C50.1997 66.6368 50.1924 66.7726 50.2014 66.8984C50.2103 67.0235 50.2343 67.1219 50.2795 67.1963C50.3592 67.327 50.552 67.4518 51.1106 67.4014L51.2034 67.4004C51.2965 67.4076 51.389 67.4386 51.4641 67.4941C51.5696 67.5723 51.6396 67.701 51.6135 67.8594C51.5902 68.0001 51.5053 68.1012 51.3958 68.1602C51.2905 68.2168 51.1656 68.2348 51.0461 68.2256C50.5392 68.1864 50.3597 68.3009 50.2834 68.4209C50.2405 68.4888 50.2159 68.5784 50.2053 68.6934C50.1947 68.8093 50.1988 68.9367 50.2024 69.0781L50.2073 69.585C50.2071 69.7539 50.2056 69.9224 50.2043 70.0898C50.2019 70.4255 50.2014 70.7578 50.2161 71.0889C50.2195 71.1643 50.2194 71.2412 50.219 71.3145C50.2186 71.389 50.2177 71.4601 50.22 71.5293C50.2246 71.6691 50.241 71.7862 50.2834 71.8809C50.3233 71.9696 50.3891 72.0457 50.511 72.1016C50.6382 72.1598 50.8323 72.1983 51.1282 72.1924C51.2783 72.1894 51.405 72.2414 51.4915 72.335C51.5762 72.4267 51.6122 72.5479 51.6018 72.6641V72.665C51.585 72.8371 51.4845 72.9506 51.3547 73.0156C51.2347 73.0756 51.0876 73.0963 50.9504 73.1035H50.9495C50.4487 73.1282 49.9791 73.0939 49.6262 72.9209C49.4465 72.8327 49.2944 72.7075 49.1868 72.5352C49.0795 72.3634 49.0215 72.1541 49.0139 71.9062V71.9053C48.992 71.1563 49.0021 70.407 49.0061 69.6631L49.0149 69.3623C49.0192 69.2632 49.023 69.1675 49.0227 69.0742C49.0221 68.8869 49.0047 68.7209 48.9456 68.5771C48.8353 68.3095 48.5541 68.0569 47.7483 67.9609L47.7297 67.959L47.7122 67.9521L47.7083 67.9512L47.2268 67.7646L47.7327 67.6641C48.2707 67.5566 48.6352 67.4075 48.842 67.2109C48.9424 67.1155 49.005 67.0087 49.0344 66.8867C49.0641 66.7634 49.0624 66.6152 49.0168 66.4346L48.9983 66.3232C48.9899 66.2097 49.0127 66.0896 49.0862 65.9873C49.1872 65.847 49.36 65.7723 49.5833 65.7705Z" fill="#FBFBFB" stroke="white" stroke-width="0.3"/>
<path d="M46.7428 64.9941C46.833 65.0054 46.9122 65.034 46.9781 65.083C47.0668 65.149 47.1142 65.2395 47.1393 65.3281C47.1638 65.4147 47.1698 65.5073 47.1705 65.5898C47.1709 65.6317 47.1695 65.6736 47.1686 65.7129C47.1676 65.753 47.1666 65.7907 47.1666 65.8262C47.1696 67.974 47.1716 70.1204 47.1656 72.2686C47.1656 72.3024 47.1663 72.3386 47.1676 72.3779C47.1688 72.4162 47.1703 72.4576 47.1705 72.499C47.1709 72.581 47.1671 72.6744 47.1442 72.7617C47.1207 72.8511 47.0743 72.9426 46.986 73.0107C46.8981 73.0784 46.7857 73.1094 46.6539 73.1104C46.5221 73.1113 46.4088 73.0823 46.3199 73.0156C46.2307 72.9486 46.1841 72.8568 46.1598 72.7676C46.1361 72.6806 46.1308 72.5879 46.1305 72.5059C46.1303 72.4642 46.1315 72.4223 46.1324 72.3838L46.1344 72.2744C46.1255 71.2191 46.1305 70.165 46.1305 69.1113V69.0527L46.1324 69.0508C46.1323 67.9773 46.1291 66.9025 46.1334 65.8281C46.1336 65.7936 46.1325 65.7573 46.1315 65.7178C46.1305 65.6789 46.1294 65.6365 46.1295 65.5947C46.1298 65.5126 46.1343 65.4198 46.1578 65.333C46.182 65.2441 46.2286 65.1531 46.317 65.0859C46.4049 65.0192 46.5172 64.9888 46.6481 64.9883L46.7428 64.9941Z" fill="#FBFBFB" stroke="white" stroke-width="0.3"/>
<path d="M96.3821 64.9902C96.4575 64.9947 96.5265 65.0118 96.5881 65.0439C96.6718 65.0875 96.7308 65.1524 96.7698 65.2266C96.8427 65.3653 96.8508 65.5421 96.8508 65.6904C96.8479 67.9139 96.8504 70.1402 96.8459 72.3643C96.846 72.486 96.8534 72.6658 96.802 72.8105C96.774 72.8891 96.726 72.9663 96.6458 73.0234C96.566 73.0802 96.4675 73.1069 96.3547 73.1094H96.3538C96.2232 73.1125 96.11 73.088 96.0198 73.0264C95.9282 72.9637 95.8777 72.8754 95.8499 72.7871C95.8228 72.7012 95.8147 72.6085 95.8127 72.5264C95.811 72.4506 95.814 72.3534 95.8137 72.292C95.8048 71.1598 95.8108 70.0268 95.8108 68.8965V68.7471H95.8137V65.7354C95.8137 65.6079 95.8095 65.4308 95.8635 65.2871C95.8927 65.2096 95.9411 65.1341 96.0198 65.0781C96.098 65.0225 96.1946 64.9942 96.3049 64.9893L96.3821 64.9902Z" fill="#FBFBFB" stroke="white" stroke-width="0.3"/>
<path d="M111.214 67.3398C111.336 67.3514 111.439 67.3857 111.519 67.4492C111.6 67.5142 111.642 67.5975 111.662 67.6797C111.681 67.7586 111.682 67.8406 111.68 67.9092L111.674 68.0967V68.0977C111.682 68.8184 111.676 69.5394 111.675 70.2578L111.672 72.4189C111.671 72.4839 111.671 72.5602 111.664 72.6338C111.657 72.7076 111.641 72.7899 111.604 72.8652C111.566 72.9436 111.506 73.0135 111.415 73.0586C111.326 73.1023 111.22 73.1171 111.101 73.1084C110.999 73.1011 110.911 73.074 110.839 73.0234C110.766 72.9723 110.721 72.9041 110.692 72.834C110.64 72.7047 110.644 72.5502 110.644 72.4492L110.639 68.0166V68.0156C110.639 67.9487 110.639 67.8715 110.646 67.7979C110.652 67.7242 110.668 67.6422 110.705 67.5674C110.744 67.4889 110.806 67.4207 110.899 67.3789C110.989 67.3388 111.095 67.3285 111.214 67.3398Z" fill="#FBFBFB" stroke="white" stroke-width="0.3"/>
<path d="M111.681 65.9268C111.681 66.1029 111.684 66.3234 111.628 66.498C111.598 66.5896 111.549 66.6811 111.465 66.749C111.379 66.8182 111.271 66.8511 111.146 66.8525C111.013 66.8539 110.898 66.8197 110.811 66.7422C110.725 66.6665 110.684 66.5652 110.663 66.4707C110.642 66.3767 110.638 66.2752 110.639 66.1826C110.639 66.1357 110.64 66.0882 110.642 66.0439C110.643 65.9988 110.644 65.956 110.644 65.916L110.642 65.7871C110.641 65.7423 110.64 65.6946 110.64 65.6475C110.64 65.5544 110.644 65.4521 110.666 65.3584C110.688 65.2643 110.731 65.1644 110.818 65.0908C110.907 65.0155 111.023 64.9846 111.156 64.9893C111.281 64.9934 111.388 65.0302 111.473 65.1016C111.555 65.1715 111.603 65.2635 111.631 65.3555C111.679 65.5137 111.678 65.7086 111.678 65.8721L111.681 65.876V65.9268Z" fill="#FBFBFB" stroke="white" stroke-width="0.3"/>
</svg>
