<svg width="164" height="80" viewBox="0 0 164 80" fill="none" xmlns="http://www.w3.org/2000/svg">
<path d="M89.7921 18.185C89.513 20.9424 88.016 23.737 85.9948 25.3803C85.5846 25.7145 85.0729 26.0441 84.6162 26.2994C83.3604 26.9911 81.8846 27.4042 80.4764 27.4042V32.2042C79.6519 32.2042 78.8273 32.2042 78.0027 32.2042C76.6284 32.2042 75.2245 32.1485 73.8629 32.2692L65.2366 32.2042V0.883789H80.4764V6.25008C80.4764 6.27329 80.8739 6.23152 80.9374 6.25008C81.0008 6.31043 80.5652 6.72822 80.506 6.75608C80.3327 6.83035 80.4638 6.30115 80.4215 6.25008C78.7469 6.26865 77.1316 6.67716 75.6685 7.56381C72.1376 9.70847 70.1756 14.1603 70.8183 18.561C70.8099 18.5749 70.8268 18.6817 70.7845 18.742C69.6216 20.4968 68.4799 22.2701 67.482 24.1501L68.2854 23.3934C69.2115 22.2933 70.2855 21.3277 71.275 20.3296C72.4971 24.5493 76.3705 27.5249 80.4172 27.3996V11.8392C81.1403 11.2682 81.855 10.6787 82.5823 10.117C83.3265 9.54135 84.1765 8.86824 84.9503 8.36225C85.1195 8.25084 85.462 8.00016 85.6269 8.0698C85.8256 8.15335 86.5149 8.78004 86.7094 8.97037C89.0774 11.2961 90.1388 14.7359 89.7878 18.185H89.7921Z" fill="white"/>
<path d="M64.0272 31.5029H60.0608V38.2572C56.7752 38.2944 53.4811 38.1829 50.1997 38.3222C47.9924 38.5775 46.0979 39.3017 45.396 41.827C44.8378 43.8324 44.8336 49.3333 45.6159 51.2459C46.6265 53.7109 48.9945 53.9847 51.1765 54.1054C53.6502 54.2447 56.8344 54.3468 59.2785 54.0358C60.5978 53.8687 61.9383 53.3998 62.8813 52.3368C62.8897 51.659 62.691 50.3592 63.7439 50.6331C63.8665 49.8672 63.9849 49.1105 64.0357 48.3306V31.5029H64.0272ZM60.0608 48.2007C60.0608 48.3678 59.9339 48.8877 59.8747 49.0687C59.5195 50.1782 58.5808 50.3778 57.6167 50.4428C55.8829 50.5542 53.4853 50.5496 51.7474 50.4428C50.9355 50.3917 49.8022 50.2478 49.3751 49.389C48.9269 48.4885 48.9734 46.1071 49.0157 45.0394C49.0622 43.981 49.1425 42.7694 50.1532 42.3098C50.3561 42.217 50.9778 42.0406 51.1765 42.0406H60.0608V48.196V48.2007Z" fill="white"/>
<path d="M118.881 43.0339C118.31 37.1106 112.428 38.4197 108.537 38.2572V41.3488H112.821C113.045 41.3488 113.616 41.4695 113.84 41.5577C114.183 41.6877 114.479 41.9477 114.652 42.3051C114.741 42.4908 114.918 43.0896 114.918 43.2753V44.2548H103.501C101.932 44.3802 100.004 44.7376 99.4333 46.6037C99.1035 47.6853 99.0908 50.7259 99.4629 51.7843C100.068 53.5066 101.979 54.0404 103.505 54.1657C106.867 54.4396 110.584 54.0126 113.971 54.1008C114.8 53.9847 115.633 53.8687 116.415 53.5344C116.415 52.9959 116.331 51.3665 116.479 50.9859C116.661 50.517 117.312 50.5263 117.532 50.9534C117.697 51.2737 117.62 52.23 117.62 52.6524C117.87 52.5132 118.103 52.1139 118.242 51.8493C119.139 50.1364 119.075 45.0533 118.876 43.0293L118.881 43.0339ZM114.923 49.0223C114.923 49.129 114.796 49.7093 114.754 49.8486C114.474 50.7956 113.658 51.0787 112.825 51.1437C110.089 51.348 107.134 50.9905 104.377 51.1344C103.738 51.0277 103.252 50.6656 103.188 49.9136C103.15 49.4261 103.146 48.2331 103.277 47.7968C103.328 47.6343 103.442 47.4022 103.56 47.2908C103.658 47.2026 104.152 46.9751 104.25 46.9751H114.918V49.0269L114.923 49.0223Z" fill="white"/>
<path d="M86.2654 41.9715C85.1194 37.1854 79.47 38.4481 76.1041 38.2578V41.3494H80.6202C80.8993 41.3494 81.6266 41.6187 81.8592 41.8229C82.1975 42.1154 82.4893 42.8163 82.4893 43.2759V44.2554H71.0128C69.1269 44.3761 67.0041 45.026 66.7885 47.4445C66.7081 48.359 66.7039 50.8611 66.9576 51.6781C67.5961 53.73 69.998 54.092 71.7021 54.171C74.5733 54.3056 77.9266 54.2638 80.7894 54.106C81.5547 54.0642 82.3117 54.0596 83.0601 53.8507C83.0601 53.2472 82.9629 51.265 83.1827 50.8611C83.4026 50.4573 84.0877 50.5223 84.2568 50.9911C84.4175 51.4414 84.3245 52.7783 84.3245 53.3447C85.61 52.7365 86.2062 51.2882 86.388 49.8306C86.6164 47.9784 86.684 43.7169 86.2654 41.9668V41.9715ZM82.4893 49.0228C82.4893 49.1296 82.3624 49.7099 82.3201 49.8491C82.041 50.7961 81.2249 51.0793 80.3919 51.1443C77.656 51.3485 74.7002 50.9911 71.9431 51.135C71.3046 51.0282 70.8183 50.6662 70.7549 49.9141C70.7168 49.4221 70.7126 48.2383 70.8437 47.7973C70.9452 47.4724 71.1016 47.2728 71.3892 47.1335C71.4441 47.1056 71.7994 46.9757 71.8205 46.9757H82.4893V49.0275V49.0228Z" fill="white"/>
<path d="M98.9343 38.2582V41.7955H94.3928V54.1668H90.308V41.7955H88.2952V38.2582H90.308V31.5039H94.3928V38.2582H98.9343Z" fill="white"/>
<path d="M60.234 58.1772C60.1452 57.3648 59.1346 57.4391 59.0246 57.9868V61.2363C58.8935 61.2595 58.9316 61.2317 58.8978 61.1574C58.2889 59.9319 57.9337 59.2031 56.8596 58.3443C52.5929 54.937 46.5122 58.4139 45.7595 63.8731C44.6643 71.7972 54.056 76.8942 58.4411 70.1585L59.0246 68.9423C58.995 70.943 59.2065 72.9902 58.4791 74.8749C57.5658 77.2377 55.6756 78.3519 53.4217 78.6025C52.9228 78.6582 52.1828 78.4122 52.0813 79.2199C51.9798 80.023 52.7452 80.0137 53.2526 79.9952C57.2063 79.828 60.0184 76.8664 60.2382 72.5121V58.1772H60.234ZM57.5573 69.6386C54.8552 73.2223 49.6541 72.4239 47.6624 68.4409C45.4847 64.082 48.1275 58.7249 52.6268 58.3582C58.1028 57.9126 60.9106 65.1868 57.5573 69.6432V69.6386Z" fill="white"/>
<path d="M97.5262 63.7018C96.4353 57.0914 88.2318 54.2968 84.777 60.313L84.3288 61.3018C84.3119 58.6511 84.3499 55.9958 84.3288 53.3452C84.3288 52.7788 84.4176 51.4419 84.2611 50.9916C84.092 50.5181 83.407 50.4578 83.1871 50.8616C82.9672 51.2655 83.0687 53.2477 83.0644 53.8512C83.0306 59.9231 83.094 65.995 83.0644 72.0669C83.1152 72.61 83.6438 72.9164 84.0708 72.6007C84.1554 72.5404 84.3288 72.285 84.3288 72.1876V68.9381L84.8785 70.1311C89.3397 76.9411 98.8413 71.6676 97.5262 63.6971V63.7018ZM96.0758 67.3505C94.5155 72.4011 88.2233 73.6638 85.4325 69.1516C82.815 64.918 85.0223 58.7486 89.8387 58.354C94.2279 57.9966 97.4797 62.8012 96.0758 67.3505Z" fill="white"/>
<path d="M113.743 58.0194C113.65 57.6202 113.193 57.4809 112.863 57.6294C112.783 57.6666 112.559 57.9219 112.559 57.9915V61.241C112.428 61.2642 112.466 61.2364 112.432 61.1621C112.047 60.3915 111.874 59.8112 111.299 59.1242C107.218 54.2964 99.6192 58.1865 99.2218 64.4951C98.7186 72.461 108.411 76.6668 112.068 69.9496C112.246 69.6247 112.352 69.2394 112.563 68.9423V72.3218C112.563 72.7303 113.654 72.9809 113.768 72.1918L113.743 58.0194ZM111.709 68.6684C109.244 73.4359 102.913 72.7813 100.951 67.8885C99.226 63.5806 101.911 58.7018 106.165 58.3536C111.159 57.9451 114.081 64.082 111.709 68.6684Z" fill="white"/>
<path d="M98.0124 9.53679L97.7798 8.37162C97.2766 6.27802 96.1476 4.77861 94.0756 4.6115C92.5871 4.4908 90.6081 5.24747 89.2338 5.86023C88.4473 6.21303 87.7157 6.6726 86.9504 7.06718C85.8298 5.69775 83.9903 5.15927 82.3454 5.24283C82.2904 5.24283 82.3074 5.13141 82.3243 5.08963C82.3581 5.00143 83.06 4.44902 83.1954 4.34225C86.0454 2.10011 91.8259 -1.48826 95.2596 0.661049C97.894 2.31364 98.2323 6.54262 98.0166 9.53215L98.0124 9.53679Z" fill="white"/>
<path d="M80.8485 63.5757C79.6095 56.464 71.1227 54.6628 67.3847 60.6373C65.0462 64.3742 66.1626 69.6105 69.6089 72.0012C75.1061 75.8124 82.0664 70.5668 80.8485 63.5757ZM79.5123 66.9691C78.1887 72.1776 72.0573 73.6816 68.8604 69.5409C65.579 65.2887 68.1204 58.7479 73.1609 58.358C77.398 58.0284 80.6498 62.4895 79.5123 66.9738V66.9691Z" fill="white"/>
<path d="M91.7373 21.0442C89.9782 23.7413 87.5933 25.9881 85.1026 27.8403L85.0181 27.7474C85.4113 27.0233 85.9653 26.2434 85.9949 25.3799C88.0161 23.7366 89.5088 20.9421 89.7922 18.1847C90.8535 16.5878 91.6993 14.4152 90.7224 12.5259C90.4476 11.9921 90.0247 11.5836 89.6188 11.1797C90.3292 11.3886 90.9973 11.7971 91.5682 12.2892C94.5324 14.847 93.6613 18.0965 91.7373 21.0488V21.0442Z" fill="white"/>
<path d="M64.0863 51.2922V72.3211C64.1075 73.1752 62.9657 73.282 62.8769 72.4464C62.9488 65.7478 62.7839 59.0353 62.8769 52.3367C62.8854 51.659 62.6866 50.3592 63.7396 50.6331C63.9256 50.6795 64.1117 51.0833 64.0863 51.2922Z" fill="white"/>
<path d="M117.625 72.3215C117.612 73.171 116.559 73.3056 116.415 72.4468C116.445 66.1428 116.377 59.8388 116.415 53.5395C116.415 53.001 116.331 51.3716 116.479 50.9909C116.661 50.5221 117.312 50.5314 117.532 50.9585C117.697 51.2788 117.621 52.235 117.621 52.6575C117.688 59.2122 117.57 65.7715 117.621 72.3262L117.625 72.3215Z" fill="white"/>
<path d="M78.0028 32.1995C74.6241 33.9589 71.0679 35.3097 67.4482 36.3681C67.2748 36.3635 67.3932 36.2985 67.4609 36.2567C69.6302 34.9987 71.7529 33.6479 73.8588 32.2645C75.2204 32.1438 76.6243 32.2042 77.9986 32.1995H78.0028Z" fill="white"/>
<path d="M77.3642 14.3738L77.3473 14.4574C75.5078 16.1796 73.643 17.8786 71.8501 19.6612C71.6471 19.8654 71.4653 20.1347 71.275 20.325C70.2855 21.3231 69.2114 22.2886 68.2854 23.3888L67.4819 24.1455C68.4799 22.2701 69.6216 20.4921 70.7845 18.7374C70.8268 18.6771 70.8056 18.5703 70.8183 18.5564C71.8924 16.9456 73.1609 15.2465 74.3534 13.6961C75.03 12.8141 76.2563 11.0965 77.0301 10.4466C77.0893 10.4002 77.102 10.3259 77.2035 10.3537C76.8821 11.5978 76.8187 13.2086 77.3684 14.3738H77.3642Z" fill="white"/>
</svg>
