<svg width="164" height="80" viewBox="0 0 164 80" fill="none" xmlns="http://www.w3.org/2000/svg">
<g clip-path="url(#clip0_786_3673)">
<path d="M47.7489 40.8973L47.3251 38.1704C45.758 30.5907 40.3493 26.8245 32.9704 26.2694L10.8788 26.2744L10.6414 40.2218C10.186 46.145 10.1945 52.0855 9.60275 58C5.70996 54.8733 2.60133 50.6898 1.11094 45.8296C-3.39431 31.1371 6.31512 15.7878 21.2981 14.1449C36.504 12.4773 49.344 25.435 47.7489 40.8973Z" fill="white"/>
<path d="M21.8301 34.4521H28.9484C31.1317 34.4521 33.8214 36.1707 34.8528 38.1054C37.5815 43.2202 35.861 53.0785 29.981 55.3323C27.8233 56.1593 23.5604 56.4324 21.2761 56.1456C20.4712 56.045 20.9656 54.725 20.9826 54.1004C21.1677 47.544 21.5428 40.995 21.8289 34.4534L21.8301 34.4521Z" fill="white"/>
<path d="M71.6937 39.6241C70.862 37.5367 68.1966 35.4443 65.9428 35.4443H54.4434C54.4398 41.5215 54.2121 47.5763 53.5972 53.6112C53.6008 53.9477 53.8906 53.8943 54.1329 53.9142C56.8921 54.1514 63.2871 54.1402 65.8831 53.4759C71.8471 51.951 73.8477 45.0344 71.6937 39.6241ZM64.8445 48.8242C64.411 49.1831 63.1897 49.8189 62.6564 49.8189H59.3103L59.7974 39.4093H63.6305C63.7559 39.4093 64.5924 39.7632 64.7726 39.8575C67.645 41.3563 67.0825 46.9715 64.8445 48.8242Z" fill="white"/>
<path d="M107.011 53.9099H101.657L102.027 48.5244C101.971 47.2019 102.435 44.4167 100.615 44.1273C96.1731 43.4233 97.0266 50.8887 96.7892 53.5994C96.7928 53.7013 96.6747 53.9099 96.6065 53.9099H91.3135C91.7884 49.303 92.1013 44.6737 92.0441 40.0295H97.398C97.3956 40.6132 97.4528 41.2005 97.2762 41.7643L98.5 40.72C99.9587 39.7352 102.286 39.4844 103.972 39.8395C108.517 40.7994 107.26 44.7619 107.127 48.2661C107.056 50.1424 107.07 52.0336 107.01 53.9099H107.011Z" fill="white"/>
<path d="M163.959 45.7937C163.571 41.4053 159.336 39.4061 155.418 39.6942C145.585 40.4181 145.453 53.4752 154.768 54.1619C160.119 54.5555 164.481 51.6995 163.959 45.7937ZM154.957 50.1286C152.457 49.3016 152.902 44.1086 155.532 43.6529C160.206 42.8445 159.288 51.5616 154.957 50.1286Z" fill="white"/>
<path d="M123.804 53.9092H118.572L118.936 47.7129C117.885 48.4343 114.321 48.5784 114.975 50.5714C115.267 51.463 117.004 51.1699 117.719 51.0594C117.829 51.1699 117.007 53.9353 116.788 54.0123C115.605 54.4246 112.824 54.1452 111.675 53.559C109.556 52.4775 109.08 49.4948 110.544 47.6533C112.25 45.5063 115.62 45.7385 117.875 44.8332C118.462 44.5973 119.066 44.2024 118.916 43.4661C118.641 42.1175 115.263 42.8725 114.334 43.0861C113.434 43.2935 112.48 43.6114 111.637 43.9938L112.139 40.5405C113.21 40.3443 114.281 40.0674 115.363 39.9209C117.656 39.6104 123.012 39.1895 124.023 41.976C124.61 43.594 124.016 47.5043 123.922 49.3805C123.846 50.8818 123.851 52.4067 123.805 53.9092H123.804Z" fill="white"/>
<path d="M89.0926 44.4613C88.3961 38.8871 79.8921 38.409 76.6021 41.7158C74.4566 43.8715 73.8587 47.9208 75.0703 50.6862C76.9272 54.9231 83.6327 54.5344 87.3014 53.5745L87.9066 49.8207C85.2169 50.4702 80.0955 52.0521 79.6315 47.8364H88.8198C89.2302 47.8364 89.1437 44.8711 89.0926 44.4613ZM84.1344 45.2349H79.8751C80.0029 42.2386 84.2963 41.8337 84.1344 45.2349Z" fill="white"/>
<path d="M132.808 40.0296L132.868 41.3918C133.925 40.1786 135.66 39.2075 137.256 39.898C137.347 41.326 137.485 42.7416 137.433 44.1758C136.13 44.1423 135.08 43.8641 133.964 44.7396C132.075 46.2197 132.686 50.2144 132.568 52.3652C132.54 52.8681 132.351 53.3747 132.441 53.9087H127.392C127.041 53.9087 127.324 53.0307 127.33 52.8544C127.495 48.5728 127.857 44.326 127.695 40.0296H132.806H132.808Z" fill="white"/>
<path d="M145.464 40.0293L144.977 53.9096H139.44L139.988 40.0293H145.464Z" fill="white"/>
<path d="M145.464 35.0723L145.342 38.4188H140.293C139.84 38.4188 140.34 35.4721 140.232 35.0723H145.464Z" fill="white"/>
</g>
<defs>
<clipPath id="clip0_786_3673">
<rect width="164" height="80" fill="white"/>
</clipPath>
</defs>
</svg>
