<svg width="164" height="80" viewBox="0 0 164 80" fill="none" xmlns="http://www.w3.org/2000/svg">
<g clip-path="url(#clip0_799_4635)">
<path d="M84.0716 25.2877C83.5103 23.7455 82.3318 22.2313 80.751 21.6518C80.4891 21.549 78.796 21.1377 78.6557 21.1377H68.9465V43.4395H80.1056C81.8454 43.4395 83.7722 40.3363 84.1745 38.8221C84.8573 36.2611 84.9508 27.6992 84.0716 25.2877ZM78.029 37.5977C77.6081 38.9904 76.1863 39.7101 75.0358 38.6539V25.7644C77.0282 25.6055 78.0571 26.185 78.2348 28.2133C78.3938 29.9238 78.4593 36.1769 78.029 37.5977Z" fill="white"/>
<path d="M102.564 31.2789H110.103V43.4393H105.754L105.613 41.9905C103.284 45.0937 97.4194 44.6824 95.6702 41.2147C94.0614 38.0368 94.1456 28.6711 95.2493 25.2595C96.6056 21.0721 100.74 20.3991 104.669 20.9225C108.812 21.4833 110.159 24.5024 110.103 28.3814H104.014C104.856 26.5307 102.667 23.4555 101.385 25.6147C100.59 26.9606 100.674 34.6999 100.862 36.5973C101.413 42.2149 104.996 39.8875 104.304 35.6253H102.564V31.2789Z" fill="white"/>
<path d="M144.74 21.427L136.93 21.1279L131.542 43.4484H138.211L138.501 40.2611L142.673 40.2424L143.431 43.4484H149.81L144.75 21.4364L144.74 21.427ZM139.371 35.3259L140.531 26.923C141.111 27.0445 141.027 27.5212 141.102 27.9419C141.56 30.2879 141.766 32.9331 141.981 35.3259H139.371Z" fill="white"/>
<path d="M133.862 21.1377V26.3533H129.512V43.4395H123.142V26.3533H119.083V21.1377H133.862Z" fill="white"/>
<path d="M163.999 38.5137V43.4395H150.96V21.1377H157.34V38.5137H163.999Z" fill="white"/>
<path d="M118.213 21.1377H111.834V43.4395H118.213V21.1377Z" fill="white"/>
<path d="M92.7145 21.1377H86.3352V43.4395H92.7145V21.1377Z" fill="white"/>
<path d="M102.208 50.7386C96.0818 51.2246 95.8666 62.4783 103.546 61.3661C108.943 60.5809 108.55 50.2338 102.208 50.7386ZM102.414 60.5342C98.2986 60.4874 97.9806 52.5425 101.919 51.8976C107.231 51.0283 107.101 60.5809 102.414 60.5342Z" fill="white"/>
<path d="M88.655 56.3288C91.1805 55.5343 90.7783 51.459 88.5053 50.973C87.2987 50.7113 85.325 51.1599 84.0155 50.973V61.3948H85.1754V57.198C88.0844 55.4595 89.104 59.1142 89.2443 61.3855L90.6754 61.4042C90.3386 59.6189 90.1235 57.5813 88.6456 56.3381L88.655 56.3288ZM85.3063 55.6184C85.0725 55.2819 84.9135 52.1507 85.6524 51.8796C87.1958 51.5338 89.2443 52.0853 89.1507 53.964C89.0665 55.7212 85.9237 56.497 85.3063 55.6184Z" fill="white"/>
<path d="M135.891 60.2355V61.3945H130.092V50.9727H135.602V52.1223H131.252V55.3096H135.312V56.4687H131.252V60.2355H135.891Z" fill="white"/>
<path d="M74.0162 50.9726C72.847 50.7389 71.0698 51.1408 69.8164 50.9726V61.3944H70.9763L71.1166 57.3191C71.2756 57.0481 75.3164 57.7584 76.0554 55.0291C76.495 53.4215 75.756 51.309 74.0162 50.9632V50.9726ZM70.9763 56.1788V51.8325C76.205 51.0006 76.0647 56.9079 70.9763 56.1788Z" fill="white"/>
<path d="M122.272 59.9455L122.151 61.1232C111.628 64.0021 112.021 48.4768 122.272 50.9818V52.1314C113.527 49.748 113.798 62.8524 122.272 59.9548V59.9455Z" fill="white"/>
<path d="M156.76 61.1049C156.937 58.6186 158.958 61.4694 160.969 59.9552C164.13 57.5717 158.088 56.2912 157.368 55.1415C155.394 51.9823 159.818 49.5707 162.437 51.2532L162.26 52.4216C160.857 51.4775 158.565 51.4588 158.228 53.431C158.228 55.721 162.98 55.2443 163.111 58.3849C163.251 61.6283 159.033 61.8433 156.75 61.1049H156.76Z" fill="white"/>
<path d="M143.141 61.1049C143.318 58.6186 145.339 61.4694 147.35 59.9552C150.511 57.5717 144.469 56.2912 143.749 55.1415C141.775 51.9823 146.199 49.5707 148.818 51.2532L148.641 52.4216C147.238 51.4775 144.946 51.4588 144.609 53.431C144.609 55.721 149.361 55.2443 149.492 58.3849C149.632 61.6283 145.414 61.8433 143.131 61.1049H143.141Z" fill="white"/>
<path d="M62.558 34.3071C60.9866 35.6717 59.7612 33.5967 59.5274 33.5967C59.3684 33.5967 58.7884 34.5501 58.3114 34.6903C55.4024 35.5502 54.757 31.4189 56.927 30.9889C57.9746 30.7833 59.2842 30.9048 59.3871 32.1386C61.2391 29.7177 64.6065 32.5218 62.558 34.2977V34.3071Z" fill="white"/>
<path d="M41.2781 38.5414C36.3019 38.7471 39.5851 31.3349 42.784 34.5409C44.1216 35.8775 43.4014 38.4573 41.2781 38.5414Z" fill="white"/>
<path d="M36.8912 71.8261C36.7509 71.312 37.069 70.7418 37.0315 70.6951C36.9754 70.6016 36.04 70.3866 35.7688 69.7884C34.5715 67.19 38.5094 66.2179 39.052 68.2649C39.211 68.8537 38.8742 69.3211 38.921 69.6576C38.9771 70.0595 39.7441 70.3306 39.9125 70.8633C40.6515 73.2188 37.4431 73.7609 36.8912 71.8167V71.8261Z" fill="white"/>
<path d="M33.9636 57.8519C30.4933 58.6464 29.9601 53.9168 32.9346 53.6364C35.6285 53.3747 36.2365 57.3378 33.9636 57.8519Z" fill="white"/>
<path d="M18.5952 43.3833C15.2279 44.1123 15.0595 39.5978 17.5757 39.1398C20.3911 38.635 21.1769 42.8225 18.5952 43.3833Z" fill="white"/>
<path d="M23.5247 21.633C22.0188 20.4179 22.8887 17.7541 25.3206 17.941C29.2118 18.2307 26.5366 24.0539 23.5247 21.633Z" fill="white"/>
<path d="M13.8809 16.5106C13.7874 17.2303 9.8401 25.8856 9.54078 25.4837C10.0927 22.9693 11.8418 20.5391 12.7865 18.1557C12.8988 17.8753 13.2542 17.2677 12.8707 17.0808L4.18108 27.5026C3.35795 27.2222 4.68618 25.923 4.91067 25.6332C7.37071 22.3992 10.3639 19.3988 12.9081 16.2676L13.8809 16.5013V16.5106Z" fill="white"/>
<path d="M54.5979 21.7264L57.0579 30.4097L56.6277 30.1199L53.2977 19.9785H54.2986L60.2476 30.9892L54.5979 21.7264Z" fill="white"/>
<path d="M44.7297 21.4265C42.3913 21.5761 41.7365 17.9494 44.2433 17.426C46.984 16.8559 47.4517 21.2489 44.7297 21.4265Z" fill="white"/>
<path d="M51.5579 65.1523C48.0409 66.5263 44.8794 68.7509 41.4372 70.2464C41.0162 70.4334 41.0911 70.9568 40.5486 70.2277L49.2382 65.4514L40.3521 68.3023L39.9686 67.7695L51.2399 64.3018L51.5579 65.143V65.1523Z" fill="white"/>
<path d="M0.0186922 45.1024C0.289951 43.3358 2.70322 43.4667 3.95663 44.0929C5.97704 48.1215 -0.392873 47.7476 0.0186922 45.1024Z" fill="white"/>
<path d="M51.4738 55.543C49.9772 55.1036 49.9772 52.3369 51.4738 51.8976C54.944 50.8788 55.2059 56.6459 51.4738 55.543Z" fill="white"/>
<path d="M36.199 71.5267L23.4498 70.9472V70.078L35.0391 68.9189C35.5255 69.2928 35.0017 69.4424 34.6089 69.4891C32.2237 69.7882 29.7823 69.8163 27.3971 70.106C26.9762 70.1621 25.6386 70.2556 25.4796 70.6481L35.7687 70.9379L36.199 71.5174V71.5267Z" fill="white"/>
<path d="M6.49152 58.7867L2.00171 47.9255C2.3478 47.4488 2.62841 47.9816 2.80613 48.29C3.25511 49.0658 3.61056 50.3557 3.74151 51.2624C4.25597 51.3371 4.02212 50.6174 3.966 50.3183C3.78828 49.5145 3.39542 48.5985 3.16158 47.7946H3.74151C4.55529 51.1502 5.8274 54.4403 6.64118 57.7959C6.75342 58.2632 7.12757 58.366 6.49152 58.796V58.7867Z" fill="white"/>
<path d="M61.9873 45.7574L60.8462 45.7387L58.2178 35.4757L58.8258 35.7374L61.4074 44.8881V35.3262L61.9873 40.6913V45.7574Z" fill="white"/>
<path d="M3.37671 30.6244C1.60885 32.2975 -0.860544 29.1757 0.96344 27.7736C2.78742 26.3716 5.14457 28.9513 3.37671 30.6244Z" fill="white"/>
<path d="M53.0919 19.3423C50.5103 20.1087 49.8462 16.5569 51.7637 15.9867C54.3454 15.2203 55.0095 18.7721 53.0919 19.3423Z" fill="white"/>
<path d="M9.756 28.886C8.40906 30.2319 5.37844 28.3439 7.08083 26.3623C8.70838 24.4742 11.3087 27.3344 9.756 28.886Z" fill="white"/>
<path d="M17.08 63.5913C14.5919 64.339 13.8997 60.8713 15.8266 60.2918C18.296 59.5627 19.222 62.9463 17.08 63.5913Z" fill="white"/>
<path d="M34.9176 11.3136C32.9721 12.6876 31.1855 9.78068 32.5044 8.46276C34.0945 6.86443 37.0503 9.79937 34.9176 11.3136Z" fill="white"/>
<path d="M50.6881 55.6084L45.1787 61.5344L39.0988 67.1799L44.5988 61.2446L50.6881 55.6084Z" fill="white"/>
<path d="M15.0502 16.0995C13.0111 16.6697 11.8793 13.3889 13.7968 12.8C16.6871 11.9121 17.1267 15.52 15.0502 16.0995Z" fill="white"/>
<path d="M39.0988 34.176L27.2195 22.0156C27.762 21.8941 27.9023 22.3147 28.2297 22.5952C31.1387 25.0441 36.0214 30.2036 38.5188 33.1666C38.7901 33.4937 39.2204 33.6339 39.0988 34.176Z" fill="white"/>
<path d="M2.86228 42.8593L1.99238 38.513V42.8593H1.41245C1.15054 42.3078 1.70241 41.532 1.70241 41.2703C1.70241 39.1299 1.5434 36.6997 1.70241 34.606C1.71177 34.4751 1.95496 34.1199 2.00173 33.746C2.08592 33.0731 1.56211 31.6056 2.57231 31.858L2.86228 42.8593Z" fill="white"/>
<path d="M14.8911 60.2263C11.8137 56.3006 8.27802 52.6927 5.19128 48.7857C5.0042 48.552 4.3775 47.7762 4.32138 47.6267C4.1343 47.1313 4.71423 47.0472 4.89196 47.1967C4.92937 47.2341 4.96679 47.6827 5.18192 47.9164C8.41832 51.4215 11.954 55.609 14.9005 59.3571C15.2559 59.8151 15.5552 59.6936 14.9005 60.217L14.8911 60.2263Z" fill="white"/>
<path d="M37.5179 37.3633C32.1114 38.6999 26.574 39.6626 21.1301 40.831C20.9898 39.9524 21.3546 40.373 21.8316 40.2421C27.2194 38.8494 32.7849 37.9521 38.2194 36.7744C38.3597 37.6437 38.0043 37.2418 37.5179 37.3633Z" fill="white"/>
<path d="M35.0392 67.7693L34.6557 68.3021C29.8104 66.4327 24.5349 65.1241 19.7364 63.208C19.2968 63.0304 18.9507 63.3762 19.1004 62.5537L35.0392 67.7693Z" fill="white"/>
<path d="M57.348 35.3348L53.0078 51.262C53.8403 47.1026 54.8505 42.8685 55.9917 38.7465C56.2442 37.8398 56.4687 36.9051 56.74 36.0078C56.8803 35.5311 56.5061 35.1946 57.3573 35.3348H57.348Z" fill="white"/>
<path d="M31.5595 53.861L30.3903 53.4404C27.5842 50.0848 23.6182 47.4584 20.8401 44.1589C20.5689 43.8317 20.1386 43.6915 20.2602 43.1494C24.2262 46.4676 27.8928 50.2064 31.5595 53.861Z" fill="white"/>
<path d="M24.3198 23.5865C22.4023 27.8954 21.5698 33.6251 19.699 37.8125C19.5026 38.2425 19.4091 38.6257 18.8104 38.5135L24.1701 22.5957L24.3198 23.5958V23.5865Z" fill="white"/>
<path d="M5.62163 61.6845C4.6769 59.7403 7.22112 58.6374 8.30616 59.7309C10.0179 61.4414 6.64119 63.7969 5.62163 61.6845Z" fill="white"/>
<path d="M40.2492 39.102L34.5995 53.2907C33.8886 53.0196 34.7305 51.7485 34.9082 51.2811C36.199 47.7293 37.9014 43.0184 39.5477 39.6816C39.7534 39.2703 39.4822 38.9525 40.2585 39.102H40.2492Z" fill="white"/>
<path d="M19.7458 71.7508C18.2586 70.2647 20.8589 67.6195 22.3088 69.6291C23.5154 71.3022 20.9525 72.9566 19.7458 71.7508Z" fill="white"/>
<path d="M62.3615 49.4774C60.2476 50.113 59.4057 46.9537 61.3233 46.3929C63.5588 45.7386 64.0733 48.9633 62.3615 49.4774Z" fill="white"/>
<path d="M24.0953 11.5102C22.8512 10.2671 24.4507 7.50972 26.3308 9.12674C28.0332 10.5942 25.4984 12.9123 24.0953 11.5102Z" fill="white"/>
<path d="M50.3981 16.7913L43.2238 13.9779L36.1991 10.7158C38.6872 11.3514 41.0724 12.4824 43.4389 13.4732C45.7306 14.4359 48.3964 15.3519 50.4075 16.7913H50.3981Z" fill="white"/>
<path d="M50.978 51.5426L46.8156 45.4297L42.8683 38.8027C44.5707 40.5413 45.7212 42.8874 47.0401 44.9156C48.3964 47.028 50.1268 49.1685 50.978 51.5426Z" fill="white"/>
<path d="M55.8981 30.9888L48.7986 24.044L46.6285 21.1465C49.1541 23.8851 52.933 26.6705 55.1779 29.54C55.5146 29.97 55.9636 30.4 55.8981 30.9982V30.9888Z" fill="white"/>
<path d="M52.8768 65.1615C51.4644 64.9372 51.4737 62.6659 52.6336 62.32C55.3649 61.4975 55.6455 65.6102 52.8768 65.1615Z" fill="white"/>
<path d="M24.3104 12.4443L17.0613 13.8931L17.2577 13.0238L23.4405 11.0049L20.2509 12.7341C21.205 12.6967 22.0655 12.2667 23.0103 12.1639C23.3096 12.1359 24.3666 11.9396 24.3104 12.4443Z" fill="white"/>
<path d="M8.08165 29.8303L3.45154 43.1497C4.44304 39.2614 5.68709 35.3076 6.99661 31.4941C7.0808 31.2511 7.56719 29.1947 8.091 29.8303H8.08165Z" fill="white"/>
<path d="M18.2305 44.3086L17.3606 56.8989L16.7806 59.3665V56.039C17.4073 52.3657 17.2016 48.4119 17.6505 44.7385C17.7067 44.3086 17.875 43.8506 18.2305 44.3086Z" fill="white"/>
<path d="M60.8275 49.814L55.0282 61.6847L54.4482 61.5351C56.4499 57.6094 58.2552 53.4313 60.8275 49.8047V49.814Z" fill="white"/>
<path d="M19.381 69.0684C18.8292 69.7788 18.9508 69.3488 18.5205 69.0684C15.387 67.0121 12.4499 64.666 9.26025 62.6844L9.39121 61.9834L19.381 69.0684Z" fill="white"/>
<path d="M22.5706 21.1467C22.0655 21.8945 20.9524 22.259 20.1574 22.6422C17.108 24.119 13.8903 25.5211 10.682 26.6427C10.7943 26.1754 11.3555 26.0071 11.7296 25.8108C14.6106 24.3527 18.296 22.6983 21.2985 21.4645C21.7194 21.2963 22.0655 21.0439 22.5613 21.1374L22.5706 21.1467Z" fill="white"/>
<path d="M49.8182 53.8701C49.7059 54.4122 49.2476 54.3935 48.808 54.459C44.6455 55.0198 40.3802 55.2815 36.1991 55.6086C36.2459 55.188 37.4619 55.1226 37.8266 55.0665C41.7833 54.5057 45.8428 54.3094 49.8182 53.8795V53.8701Z" fill="white"/>
<path d="M30.6897 56.7676C30.6149 57.2817 30.1098 57.263 29.7543 57.4219C27.0511 58.6183 22.5893 60.2914 19.7645 61.0578C19.3342 61.1793 19.3155 61.6747 18.8104 60.9644L30.6897 56.7676Z" fill="white"/>
<path d="M16.341 39.0928L9.82141 29.5402C10.4294 29.4 10.4762 29.8673 10.7568 30.1945C12.5808 32.3443 14.7415 35.7933 16.341 38.2235C16.6216 38.6535 17.0519 38.532 16.341 39.0834V39.0928Z" fill="white"/>
<path d="M44.3087 22.0154C43.7007 25.2494 43.3172 29.2406 42.3257 32.3344C42.2041 32.7176 42.2228 33.213 41.7084 33.3065C42.438 29.8481 42.8682 26.2215 43.8223 22.8192C43.9065 22.5201 43.8878 21.9406 44.3087 22.0154Z" fill="white"/>
<path d="M55.3275 33.3066C55.3929 33.7459 54.7849 33.6525 54.4576 33.7366C51.1089 34.5872 47.6574 35.0639 44.3181 35.9144C44.1778 35.1293 44.4584 35.4097 44.9541 35.2602C48.0128 34.2694 52.1285 33.8394 55.3368 33.316L55.3275 33.3066Z" fill="white"/>
<path d="M15.3308 41.9902C15.2373 42.523 14.7322 42.4763 14.358 42.6071C11.4958 43.5792 8.13777 44.1307 5.19134 44.8878C5.05103 44.0372 5.39712 44.4204 5.86481 44.2709C8.90478 43.3455 12.216 42.6165 15.3308 41.9902Z" fill="white"/>
<path d="M41.9891 19.6889C37.3403 19.5393 32.7289 20.3806 28.0707 19.8291C32.2705 19.3337 36.4797 19.5113 40.6983 19.4085C41.1098 19.4085 41.512 19.3898 41.8488 19.1094L41.9891 19.6795V19.6889Z" fill="white"/>
<path d="M42.859 17.6598L37.9295 13.7527C37.6583 13.3508 35.5443 11.7058 35.9091 11.2852L40.2586 14.9024L42.859 17.6598Z" fill="white"/>
<path d="M32.4295 11.585C32.4295 12.1645 31.9057 12.7346 31.5596 13.1739C30.2688 14.8003 28.6599 16.3145 27.3598 17.9502C26.7143 17.4361 26.995 17.5483 27.3598 17.0903C28.8938 15.1648 30.6429 13.2581 32.4295 11.585Z" fill="white"/>
<path d="M36.7696 66.6102L35.2449 62.778L34.1599 58.4971C34.6463 58.5812 34.6744 59.0579 34.824 59.4318C35.6378 61.5722 36.4142 64.3763 36.7696 66.6102Z" fill="white"/>
<path d="M31.5596 9.8457V10.7056L27.5001 11.5842C27.3224 10.5841 29.2867 10.9019 29.8198 10.715L27.7901 10.1448L31.5596 9.85505V9.8457Z" fill="white"/>
<path d="M22.8606 18.2491C22.5987 19.2119 21.654 18.38 21.1115 18.1089C20.2041 17.6603 18.5111 16.8003 17.7254 16.2769C17.3512 16.0245 16.9303 15.9498 17.0613 15.3516L22.8513 18.2491H22.8606Z" fill="white"/>
<path d="M59.4151 49.6926C58.9194 50.0384 54.9534 52.5901 54.7476 52.4219C54.2519 51.9919 55.1218 51.7863 55.2901 51.6741C55.7859 51.3283 59.7519 48.7766 59.9577 48.9542C60.4534 49.3841 59.5742 49.5897 59.4151 49.7019V49.6926Z" fill="white"/>
<path d="M20.2603 68.6291C19.4932 68.788 19.7645 68.4328 19.54 68.059C19.1097 67.3206 17.8657 65.0773 17.6786 64.4043C17.529 63.8622 17.8189 63.9743 18.2305 64.0024L20.2603 68.6291Z" fill="white"/>
<path d="M13.8061 61.9086C12.6088 61.6843 11.4116 61.6936 10.2423 61.3945C9.75595 61.273 9.39115 61.6843 9.54081 60.8057L14.1803 61.3852C14.1616 61.8712 14.3767 62.0021 13.8155 61.8993L13.8061 61.9086Z" fill="white"/>
<path d="M53.2884 61.3947C52.8768 61.3479 52.7926 60.1141 52.7458 59.7683C52.6242 58.8149 52.5588 57.8522 52.4372 56.8801C52.3623 56.3099 52.5026 56.4595 52.9984 56.4688L53.2884 61.3947Z" fill="white"/>
</g>
<defs>
<clipPath id="clip0_799_4635">
<rect width="164" height="80" fill="white"/>
</clipPath>
</defs>
</svg>
