<svg width="164" height="80" viewBox="0 0 164 80" fill="none" xmlns="http://www.w3.org/2000/svg">
<g clip-path="url(#clip0_793_3861)">
<path d="M135.021 21.3856C133.026 29.9558 127.153 36.7874 119.785 41.2862C114.288 44.7852 108.233 47.2339 101.975 48.9001C97.7108 50.1969 93.338 50.9213 88.9144 51.5009C75.2232 53.3627 61.416 54.232 47.5943 54.9782C44.041 55.1013 40.6254 55.1738 37.1881 55.0072C35.0489 54.9057 32.8516 54.2755 34.1134 51.7544C34.795 50.4359 35.8828 49.2333 36.8618 48.1177C38.8705 45.8936 41.046 43.9666 43.6929 42.4598C45.2955 41.5397 47.0069 40.7428 48.7401 40.1198C52.5182 38.7506 56.1513 38.7289 60.1035 38.6854C67.1013 38.6347 74.2225 39.0621 81.1769 38.8013C92.2212 38.3087 103.331 37.28 113.904 33.8606C119.611 32.0422 125.05 29.398 129.422 25.2107C130.641 24.0444 131.678 22.82 132.606 21.4871C133.744 19.7991 135.934 16.8724 135.021 21.3349V21.3712V21.3856Z" fill="white"/>
<path d="M131.475 18.7708C130.075 21.6686 127.283 18.4738 125.216 17.6407C123.302 16.7062 121.214 16.228 119.154 15.7354C116.377 15.0834 113.483 14.924 110.633 14.685C108.61 14.4966 106.601 14.1706 104.571 14.0474C92.7579 13.3592 80.7128 15.1051 69.0593 13.4751C67.609 13.2433 66.1442 12.9173 64.7518 12.4537C61.155 11.3815 58.4501 8.86041 57.1593 5.34685C56.2601 3.02862 56.5212 0.616215 59.4799 0.130837C61.9817 -0.180675 64.6576 0.167059 67.1957 0.159815C69.8788 0.203281 72.4749 0.188792 75.129 0.297459C84.3459 0.739371 93.6281 0.703149 102.823 1.61595C107.711 2.22448 112.345 3.13729 117.189 4.10804C122.018 5.28889 128.327 6.56391 131.04 11.0482C132.359 13.3085 132.628 16.3729 131.496 18.7491L131.482 18.7708H131.475Z" fill="white"/>
<path d="M95.3613 31.0936C95.2381 33.5857 86.7101 33.4698 84.7014 33.3901C80.053 33.3249 70.7926 30.217 74.607 24.1462C77.2031 20.5602 81.3293 21.5889 84.8536 23.1175C87.8486 24.3418 90.3939 25.9863 92.874 27.9858C93.8022 28.7826 95.3033 29.8114 95.3613 31.0719V31.0936Z" fill="white"/>
<path d="M102.772 26.4791C102.359 28.1454 101.003 29.7464 99.2988 30.1811C96.2966 30.8258 93.7585 27.334 91.1697 25.8634C89.9659 25.0737 88.7621 24.3058 87.5003 23.6248C86.3763 22.8786 82.0615 21.4515 82.1558 20.1765C82.6562 18.7638 86.8042 18.5827 88.2255 18.4958C93.0116 18.2784 103.94 19.9519 102.78 26.4502V26.4791H102.772Z" fill="white"/>
<path d="M21.0096 79.1028L24.4469 60.7381C24.4977 60.47 24.737 60.2744 25.0126 60.2744H32.1772C34.0554 60.2744 35.6653 60.6077 37.0141 61.2742C38.3629 61.9406 39.3927 62.8824 40.1033 64.085C40.814 65.2948 41.1693 66.7292 41.1693 68.4027C41.1693 70.0762 40.8938 71.6917 40.3499 73.0826C39.7988 74.4735 39.0228 75.6689 38.0148 76.6614C37.0069 77.6539 35.8103 78.4218 34.418 78.9579C33.0257 79.494 31.4883 79.7693 29.8059 79.7693H21.5752C21.2199 79.7693 20.9444 79.4433 21.0096 79.0955V79.1028ZM25.9408 75.4298C25.8755 75.7848 26.1438 76.1036 26.5064 76.1036H29.9365C31.4158 76.1036 32.6703 75.7776 33.7073 75.1256C34.7443 74.4735 35.5348 73.5897 36.0786 72.4668C36.6225 71.3439 36.8981 70.0762 36.8981 68.6635C36.8981 67.7 36.7095 66.8669 36.3252 66.1714C35.9409 65.4759 35.3607 64.9326 34.592 64.5414C33.8161 64.1502 32.8661 63.9546 31.7349 63.9546H28.5586C28.2831 63.9546 28.0438 64.1502 27.993 64.4182L25.9408 75.4226V75.4298Z" fill="white"/>
<path d="M41.6842 79.1025L44.2368 65.2583C44.2875 64.9903 44.5268 64.7874 44.8024 64.7874H47.7321C48.0874 64.7874 48.363 65.1134 48.2977 65.4612L45.6944 79.3053C45.6436 79.5734 45.4043 79.769 45.1287 79.769H42.2498C41.8945 79.769 41.6189 79.443 41.6842 79.0952V79.1025ZM47.0649 62.701C46.3543 62.701 45.7814 62.4765 45.3463 62.0345C44.9112 61.5854 44.6936 61.0565 44.6936 60.448C44.6936 59.7236 44.9402 59.1078 45.4333 58.6079C45.9264 58.108 46.5791 57.8545 47.3768 57.8545C48.1092 57.8545 48.6893 58.0573 49.1244 58.4703C49.5595 58.876 49.7771 59.3976 49.7771 60.0278C49.7771 60.8247 49.5305 61.4695 49.0446 61.9621C48.5588 62.4547 47.8989 62.701 47.0649 62.701Z" fill="white"/>
<path d="M53.867 80.0013C52.6487 80.0013 51.4957 79.8491 50.4151 79.5521C49.5812 79.3203 48.885 79.0522 48.3339 78.7335C48.0656 78.5813 47.9713 78.2481 48.1091 77.9728L49.1824 75.8429C49.3274 75.5532 49.6827 75.4445 49.9655 75.6039C50.4659 75.8864 51.046 76.1255 51.6914 76.3211C52.5689 76.5819 53.4536 76.7123 54.3383 76.7123C55.2955 76.7123 55.9917 76.5746 56.4268 76.3066C56.8619 76.0385 57.0795 75.6908 57.0795 75.2634C57.0795 74.9084 56.8982 74.6476 56.5428 74.4665C56.1875 74.2926 55.7234 74.1477 55.1505 74.0318C54.5776 73.9232 53.9757 73.7928 53.3521 73.6406C52.7284 73.4885 52.1338 73.2856 51.5682 73.0104C51.0025 72.7423 50.5384 72.3584 50.1758 71.8512C49.8133 71.3514 49.632 70.6632 49.632 69.7866C49.632 68.6709 49.9365 67.7219 50.5457 66.9467C51.1548 66.1643 51.996 65.5703 53.062 65.1646C54.128 64.7589 55.3535 64.5488 56.7241 64.5488C57.6813 64.5488 58.6241 64.6575 59.5523 64.8821C60.2557 65.0487 60.8721 65.2733 61.4015 65.5486C61.677 65.6935 61.7931 66.0195 61.6625 66.302L60.6908 68.4174C60.553 68.7216 60.1832 68.8376 59.9004 68.6782C59.4 68.3956 58.8779 68.1928 58.334 68.0769C57.6016 67.9175 56.9054 67.8378 56.2455 67.8378C55.3245 67.8378 54.6429 67.9827 54.2005 68.2725C53.7582 68.5623 53.5334 68.91 53.5334 69.3157C53.5334 69.6707 53.7147 69.9459 54.0845 70.1343C54.4471 70.3299 54.9112 70.482 55.4696 70.5907C56.028 70.6994 56.6226 70.8298 57.268 70.9674C57.9134 71.1051 58.508 71.3152 59.0664 71.5977C59.6248 71.873 60.0817 72.2642 60.437 72.7568C60.7923 73.2494 60.9736 73.9159 60.9736 74.749C60.9736 75.9009 60.6618 76.8644 60.0454 77.6323C59.429 78.4002 58.5878 78.987 57.5146 79.3855C56.4486 79.7839 55.2303 79.9868 53.8742 79.9868L53.867 80.0013Z" fill="white"/>
<path d="M62.5763 67.7941L62.9896 65.5917C63.0404 65.3237 63.2797 65.1281 63.5552 65.1281H72.1195C72.4748 65.1281 72.7504 65.4541 72.6851 65.8018L72.2718 68.0042C72.221 68.2722 71.9817 68.4678 71.7061 68.4678H63.1419C62.7866 68.4678 62.511 68.1418 62.5763 67.7941ZM63.2144 79.7836C62.8591 79.7836 62.5835 79.4576 62.6488 79.1099L65.4189 64.295C65.7308 62.6433 66.3979 61.3248 67.4131 60.354C68.4284 59.376 69.799 58.8906 71.5176 58.8906C72.1413 58.8906 72.7359 58.9631 73.3015 59.1007C73.6496 59.1876 73.9614 59.2963 74.2442 59.434C74.5271 59.5716 74.6431 59.9338 74.498 60.2164L73.4103 62.2955C73.2653 62.5636 72.9389 62.665 72.6634 62.5418C72.3298 62.3897 71.9527 62.3173 71.5466 62.3173C70.923 62.3173 70.4371 62.5056 70.0963 62.8751C69.7554 63.2445 69.5016 63.8096 69.3276 64.5775L69.0448 65.9467C69.0448 65.9467 69.0448 65.9757 69.0375 65.9974L68.8345 67.7361C68.8345 67.7361 68.8345 67.7651 68.8345 67.7723L66.659 79.32C66.6082 79.588 66.3689 79.7836 66.0933 79.7836H63.2144Z" fill="white"/>
<path d="M77.6453 80.0004C76.5866 80.0004 75.5931 79.7324 74.6721 79.2035C73.7512 78.6747 73.0042 77.9068 72.4459 76.9071C71.8802 75.9073 71.5974 74.7047 71.5974 73.3138C71.5974 72.0315 71.7932 70.8652 72.1993 69.8002C72.5981 68.7425 73.1565 67.8225 73.8672 67.0401C74.5779 66.2577 75.4046 65.6492 76.3473 65.2145C77.2827 64.7798 78.2907 64.5625 79.3712 64.5625C80.5388 64.5625 81.5322 64.7943 82.3589 65.258C83.1856 65.7216 83.8093 66.4388 84.2226 67.4168C84.6432 68.3948 84.7955 69.6481 84.694 71.1912C84.5925 72.9733 84.2444 74.5236 83.6497 75.8421C83.0551 77.1606 82.2647 78.1821 81.2639 78.9065C80.2632 79.631 79.0594 79.9932 77.6526 79.9932L77.6453 80.0004ZM78.9289 76.4072C79.7266 76.4072 80.4372 76.2043 81.0536 75.7914C81.67 75.3857 82.1559 74.8062 82.5112 74.0672C82.8665 73.321 83.0478 72.459 83.0478 71.4737C83.0478 70.4885 82.7723 69.6698 82.2139 69.0613C81.6555 68.46 80.8651 68.1558 79.8426 68.1558C79.0594 68.1558 78.3632 68.3658 77.7469 68.786C77.1305 69.2062 76.6373 69.7785 76.2748 70.5102C75.9122 71.2419 75.7236 72.104 75.7236 73.0892C75.7236 74.0745 76.0064 74.9221 76.5721 75.5161C77.1377 76.1102 77.9209 76.4072 78.9289 76.4072ZM82.4024 79.7831C82.0471 79.7831 81.7715 79.4571 81.8368 79.1094L82.2574 76.8056L83.1639 72.372C83.1639 72.372 83.1639 72.343 83.1711 72.3286L83.715 67.9094C83.715 67.9094 83.715 67.8877 83.715 67.8732L84.2009 65.2652C84.2516 64.9972 84.4909 64.7943 84.7665 64.7943H87.6454C88.0008 64.7943 88.2763 65.1203 88.211 65.4681L85.6585 79.3122C85.6077 79.5803 85.3684 79.7831 85.0928 79.7831H82.3952H82.4024Z" fill="white"/>
<path d="M88.8565 79.1025L91.4091 65.2584C91.4598 64.9903 91.6991 64.7875 91.9747 64.7875H94.6941C95.0494 64.7875 95.325 65.1135 95.2597 65.4684L94.5781 69.0545L94.2807 68.0909C94.2372 67.946 94.2517 67.7794 94.3242 67.6418C94.9334 66.5334 95.7093 65.751 96.6593 65.2946C97.486 64.8961 98.4432 64.6643 99.5382 64.5919C99.9153 64.5701 100.22 64.8889 100.155 65.2656L99.5527 68.6125C99.3787 68.5763 99.2191 68.5473 99.0669 68.5256C98.9218 68.5039 98.7695 68.4966 98.61 68.4966C97.4135 68.4966 96.4345 68.8226 95.6803 69.4746C94.9261 70.1266 94.4185 71.1553 94.1575 72.568L92.8884 79.3198C92.8376 79.5879 92.5983 79.7835 92.3228 79.7835H89.4148C89.0595 79.7835 88.784 79.4575 88.8492 79.1098L88.8565 79.1025Z" fill="white"/>
<path d="M119.654 64.5697C120.836 64.5697 121.837 64.8378 122.657 65.3666C123.476 65.8955 124.049 66.6706 124.39 67.6921C124.731 68.7136 124.767 69.9741 124.506 71.481L123.026 79.3195C122.976 79.5875 122.736 79.7831 122.461 79.7831H119.553C119.198 79.7831 118.922 79.4571 118.987 79.1094L120.351 71.7852C120.575 70.6551 120.503 69.793 120.126 69.2062C119.749 68.6194 119.125 68.3296 118.233 68.3296C117.298 68.3296 116.507 68.6339 115.876 69.2352C115.238 69.8365 114.803 70.7927 114.556 72.0895L113.186 79.3122C113.135 79.5803 112.896 79.7759 112.62 79.7759H109.741C109.386 79.7759 109.11 79.4499 109.176 79.1021L110.539 71.778C110.749 70.6478 110.677 69.7857 110.314 69.1989C109.959 68.6121 109.328 68.3224 108.422 68.3224C107.464 68.3224 106.674 68.6266 106.05 69.2279C105.427 69.8292 104.984 70.8 104.723 72.1402L103.403 79.305C103.353 79.573 103.113 79.7759 102.838 79.7759H99.9371C99.5817 79.7759 99.3062 79.4499 99.3714 79.1021L101.924 65.258C101.975 64.9899 102.214 64.7871 102.49 64.7871H105.209C105.564 64.7871 105.84 65.1131 105.775 65.4608L105.195 68.6049L104.788 68.0905C104.636 67.9022 104.622 67.6269 104.752 67.4241C105.354 66.504 106.087 65.8085 106.935 65.3449C107.892 64.8233 108.907 64.5625 109.988 64.5625C110.858 64.5625 111.641 64.7291 112.337 65.0624C113.034 65.3956 113.599 65.8955 114.042 66.5547C114.346 67.0039 114.564 67.5327 114.687 68.1268C114.774 68.5325 114.39 68.8874 113.984 68.786C113.599 68.6918 113.432 68.2427 113.643 67.9167C114.266 66.9314 115.028 66.1563 115.92 65.5985C117.008 64.9102 118.248 64.5697 119.633 64.5697H119.654Z" fill="white"/>
<path d="M132.432 80.0004C131.373 80.0004 130.38 79.7324 129.459 79.2035C128.538 78.6747 127.791 77.9068 127.232 76.9071C126.667 75.9073 126.384 74.7047 126.384 73.3138C126.384 72.0315 126.58 70.8652 126.986 69.8002C127.385 68.7425 127.943 67.8225 128.654 67.0401C129.364 66.2577 130.191 65.6492 131.134 65.2145C132.069 64.7798 133.077 64.5625 134.158 64.5625C135.325 64.5625 136.319 64.7943 137.146 65.258C137.972 65.7216 138.596 66.4388 139.009 67.4168C139.43 68.3948 139.582 69.6481 139.481 71.1912C139.379 72.9733 139.031 74.5236 138.436 75.8421C137.842 77.1606 137.051 78.1821 136.051 78.9065C135.05 79.631 133.846 79.9932 132.439 79.9932L132.432 80.0004ZM133.708 76.4072C134.506 76.4072 135.217 76.2043 135.833 75.7914C136.449 75.3857 136.935 74.8062 137.291 74.0672C137.646 73.321 137.827 72.459 137.827 71.4737C137.827 70.4885 137.552 69.6698 136.993 69.0613C136.435 68.46 135.644 68.1558 134.622 68.1558C133.839 68.1558 133.143 68.3658 132.526 68.786C131.91 69.2062 131.417 69.7785 131.054 70.5102C130.692 71.2419 130.503 72.104 130.503 73.0892C130.503 74.0745 130.786 74.9221 131.351 75.5161C131.917 76.1102 132.7 76.4072 133.708 76.4072ZM137.182 79.7831C136.826 79.7831 136.551 79.4571 136.616 79.1094L137.037 76.8056L137.943 72.372C137.943 72.372 137.943 72.343 137.95 72.3286L138.494 67.9094C138.494 67.9094 138.494 67.8877 138.494 67.8732L138.98 65.2652C139.031 64.9972 139.27 64.7943 139.546 64.7943H142.425C142.78 64.7943 143.056 65.1203 142.99 65.4681L140.438 79.3122C140.387 79.5803 140.148 79.7831 139.872 79.7831H137.175H137.182Z" fill="white"/>
</g>
<defs>
<clipPath id="clip0_793_3861">
<rect width="164" height="80" fill="white"/>
</clipPath>
</defs>
</svg>
