<svg width="164" height="80" viewBox="0 0 164 80" fill="none" xmlns="http://www.w3.org/2000/svg">
<path d="M134.441 0L122.113 0.0704949L117.485 14.002C117.077 13.9492 117.121 13.6936 117.068 13.4117C116.428 9.97503 115.442 7.00543 112.733 4.54692C110.033 2.10603 106.729 1.02218 103.585 0.467029C99.5351 -0.246732 92.7583 0.14099 88.9214 1.62138C85.6174 2.8991 83.1039 5.11088 81.3186 8.12454C79.7909 5.85108 78.059 3.89484 75.6165 2.55544C75.1103 2.27346 72.9609 1.31297 72.7655 1.25128C69.3726 0.149802 64.0436 -0.185049 60.4997 0.246732C57.7908 0.581583 54.9753 1.35703 52.5328 2.55544L48.5005 5.57791V0.211485H13V50.2629H49.8061V45.6631C57.1069 51.9459 72.4457 52.3953 79.7821 46.1653C80.2972 45.7336 82.1269 43.5746 82.3489 43.6275C84.8003 46.3856 87.2072 48.0775 90.7333 49.2407C96.3111 51.0912 99.3042 50.1924 104.767 50.1483C108.772 50.1219 112.813 50.4303 116.828 50.2188L120.114 39.8208L136.652 39.7679L140.027 50.254H151.742L134.441 0ZM24.3243 11.1911H45.9425V15.2798C45.9425 15.2798 45.978 15.2798 45.9958 15.2798C45.8892 15.6675 45.827 16.0728 45.827 16.4958C45.827 17.4651 46.129 18.3551 46.653 19.1041H24.3243V11.1911ZM68.44 40.5346C62.6935 41.2043 56.4319 40.0411 56.2365 33.159H45.2941C45.1876 33.159 44.8589 33.5556 44.9211 33.7759L45.6761 39.0365H24.3243V28.8236H46.4576V20.655C47.4613 21.6772 47.9231 23.1488 48.9001 24.2326C54.247 30.163 69.7723 29.2113 73.0852 34.4544C75.0126 37.4945 71.3 40.2085 68.44 40.5434V40.5346ZM107.662 37.0539C106.907 41.0721 99.3753 40.9752 96.3999 40.3055C92.6695 39.4595 90.5557 36.9746 90.458 33.1855L84.5693 33.159C84.0631 23.2545 74.7461 21.7124 66.9657 19.5976C64.5321 18.9367 60.7662 18.5049 58.6434 17.2536C58.5724 17.2096 57.4977 16.1433 57.4178 16.0464C55.7391 13.8346 57.4178 11.0236 59.7448 10.1953C62.658 9.15552 68.9108 9.36701 70.8825 12.1339C71.7973 13.4205 71.9483 15.033 72.2414 16.531L80.1906 16.5575C81.0255 29.881 95.6893 27.8631 104.385 32.128C106.658 33.2383 108.195 34.2605 107.671 37.0451L107.662 37.0539ZM114.146 23.9594C113.968 24.1181 110.913 22.4438 110.353 22.2323C108.888 21.6772 107.555 21.5538 106.17 21.1485C102.955 20.2056 99.4108 19.439 96.1867 18.408C93.3357 17.5004 90.5379 16.487 91.3017 12.9094C92.0034 9.61374 97.3857 9.41107 100.095 9.69305C102.191 9.91334 103.718 10.8122 105.406 11.9577C105.575 13.4117 106.747 14.9009 106.436 16.5575H116.473L114.155 23.9594H114.146ZM123.418 30.0925L128.179 14.7687L133.455 30.0925H123.418Z" fill="white"/>
<path d="M144.246 76.2666C143.429 76.8042 141.155 78.1612 140.533 76.9275C139.619 75.1035 143.002 74.6893 144.139 73.6054C145.782 72.0457 146.893 67.6222 144.504 66.3533C142.532 65.3047 140.933 66.6529 140.693 68.662C140.524 70.0631 141.35 72.2132 139.254 71.8254C137.309 71.4642 139.752 65.9744 136.164 65.9832C132.602 65.992 134.316 70.4155 133.49 71.4642C132.904 72.1955 131.403 71.6668 131.403 71.1822C131.403 70.0719 131.234 68.3448 131.403 67.349C131.909 64.3354 135.799 62.6523 138.446 64.1944C138.855 64.4323 139.343 65.2254 139.734 65.1637C139.912 65.1372 140.684 64.212 141.368 63.9565C143.917 62.996 146.582 64.1415 147.63 66.5824C149.122 70.0631 147.301 74.2928 144.255 76.2666H144.246Z" fill="white"/>
<path d="M123.605 63.7097C121.598 64.0534 119.848 66.1771 119.572 68.1421C119.306 70.0719 119.315 75.6057 119.546 77.5708C119.812 79.8707 121.864 78.8221 121.864 78.3286V73.0944C131.456 77.747 133.41 62.0267 123.596 63.7097H123.605ZM124.386 72.0193C120.772 71.4994 120.887 66.3445 124.12 65.7541C129.573 64.7672 129.413 72.7507 124.386 72.0193Z" fill="white"/>
<path d="M63.2885 73.323C53.6873 77.7466 51.1915 59.9995 60.9881 60.3167C62.2671 60.3608 65.802 61.242 65.2158 62.9691C64.7984 64.2027 62.951 62.4227 62.2227 62.176C54.8242 59.7263 54.8242 74.0985 61.7875 72.0805C63.8925 71.4725 64.5586 69.7895 64.4787 67.7275C63.8214 67.6217 61.8496 67.983 61.4944 67.4896C61.219 67.1018 61.4411 66.1942 61.7697 66.1942C62.6668 66.1942 64.976 66.0092 65.6333 66.1942C67.5429 66.7229 65.6066 72.248 63.2885 73.3142V73.323Z" fill="white"/>
<path d="M114.732 63.7095C107.369 62.4582 106.374 72.7857 112.28 73.799C113.995 74.0898 117.663 73.7109 117.201 71.3405C116.117 70.6356 115.478 71.6401 114.519 71.7988C112.627 72.1072 111.001 71.4463 110.54 69.5165H117.361C117.503 69.5165 118.116 69.0318 118.24 68.8468C119.421 67.0315 116.597 64.0179 114.732 63.7007V63.7095ZM110.806 67.7365C110.833 64.7669 116.108 64.6347 116.215 67.7365H110.806Z" fill="white"/>
<path d="M87.5093 63.6483C86.4701 63.6483 85.1822 64.7497 85.0757 64.6704C85.0312 64.644 84.9868 63.9919 84.5605 63.7628C83.5213 63.1989 83.3082 64.6264 83.2549 65.2961C82.9351 68.9618 83.5125 73.0769 83.2727 76.7956C83.2904 77.7208 84.8447 78.038 85.0668 77.3154C85.3687 76.3461 84.8447 74.0022 85.0668 72.8478C92.4209 77.7208 94.7745 63.613 87.5093 63.6483ZM88.0066 72.3191C84.0631 72.8919 83.8677 65.8424 87.0563 65.2344C91.0264 64.4766 91.2307 71.8521 88.0066 72.3191Z" fill="white"/>
<path d="M97.1104 63.7009C91.4883 64.256 91.8791 74.187 97.7943 73.8698C103.621 73.5525 102.981 63.1105 97.1104 63.7009ZM98.0519 72.3189C93.9663 72.9181 93.9752 65.8422 96.844 65.2253C101.01 64.3265 101.249 71.8518 98.0519 72.3189Z" fill="white"/>
<path d="M81.2031 63.9032V71.1818C81.2031 72.6534 78.5652 73.887 77.2152 73.887C75.8563 73.887 73.4849 72.6534 73.4849 71.1818V63.9032C73.4849 63.7886 74.7727 63.6917 75.0303 63.9032V70.4151C75.0303 70.565 75.6254 71.781 75.8119 71.9396C77.0198 72.9882 79.6666 72.0894 79.6666 70.4151V63.9032C79.6666 63.7446 81.212 63.7446 81.212 63.9032H81.2031Z" fill="white"/>
<path d="M69.7989 66.5298C68.8574 68.0366 69.7989 73.3854 69.0706 73.826C67.9071 74.531 67.614 73.3502 67.5518 72.469C67.4364 70.8036 67.2943 66.0011 67.5696 64.5471C67.8449 63.1196 69.4614 63.525 69.3637 64.9261C69.5147 65.0847 70.9091 62.9434 72.0904 63.8774C73.8668 65.2962 70.3318 65.6839 69.7989 66.5298Z" fill="white"/>
<path d="M150.445 62.6256L149.682 61.859L149.424 62.6256C149.477 62.2819 149.335 60.9249 149.424 60.8368C149.522 60.7487 150.401 60.8016 150.596 61.0835C150.81 61.3919 150.33 62.185 150.445 62.6256Z" fill="white"/>
<path d="M150.703 63.3927C149.664 64.9436 146.84 61.9916 148.385 61.0928C148.207 62.7318 149.051 63.5689 150.703 63.3927Z" fill="white"/>
<path d="M151.982 62.3699L151.2 60.4666C150.152 59.8409 149.371 60.0436 148.509 60.8279C148.394 60.026 149.397 59.7969 150.072 59.7969C151.511 59.7969 152.115 61.0482 151.982 62.3611V62.3699Z" fill="white"/>
<path d="M151.085 63.3923V63.1367C151.253 63.2248 151.253 63.3041 151.085 63.3923Z" fill="white"/>
<path d="M151.6 62.8815V62.626C151.768 62.7141 151.768 62.7934 151.6 62.8815Z" fill="white"/>
</svg>
