<svg width="164" height="80" viewBox="0 0 164 80" fill="none" xmlns="http://www.w3.org/2000/svg">
<path d="M32.3935 29.5049C32.3755 29.694 32.2854 29.9011 32.1323 30.0902C32.2134 29.8291 32.3034 29.631 32.3935 29.5049Z" fill="#2B2B2B"/>
<path d="M159.308 37.9148C159.083 36.2578 157.633 36.9422 157.074 36.2128C156.651 35.6635 156.255 33.4932 155.616 32.4036C153.68 29.1347 152.113 29.4949 149.033 28.4773C148.871 28.4233 148.664 28.5314 148.502 28.4773C146.413 32.0254 143.486 26.8474 140.424 31.1699C136.633 22.66 128.754 26.9374 125.485 33.7544C124.342 36.1408 123.018 44.2274 122.586 44.5876C122.244 44.8758 120.056 44.4796 119.155 44.6597C118.21 44.8308 117.723 45.8033 116.724 45.7133C116.382 43.1738 113.932 41.8501 112.401 40.058C122.091 35.3933 118.138 25.3705 107.521 27.6399C104.648 28.2522 101.749 32.2415 101.362 32.2415C100.794 32.2415 99.0293 28.1712 94.3828 29.0357C93.5543 29.1887 92.915 30.0442 92.2036 30.0803C91.123 30.1163 90.1955 28.6394 88.5476 29.0897C87.4941 29.3869 86.4405 31.5391 85.6571 31.6742C84.5855 31.8543 83.604 29.3508 81.9561 29.0267C78.6783 28.3963 77.2015 29.4769 74.6982 31.1699C74.4371 27.3157 70.4299 28.5494 67.6924 29.0176C66.7649 25.2355 69.7545 14.033 67.1431 11.5115C65.018 9.47638 57.499 11.9618 57.616 14.6364C57.6881 16.2123 58.9307 18.0583 58.5255 19.8594C52.2491 17.419 49.7638 23.1643 51.5197 28.4773C45.1173 24.1008 40.5068 28.2432 37.2471 33.8624C36.5357 31.2509 33.9243 32.2415 32.6456 31.4491C32.0603 31.0888 32.2764 30.3054 32.1323 30.0893C31.7451 29.5129 31.4119 29.2158 31.0517 28.4773C27.0356 27.0275 23.8929 28.1351 21.3535 31.44C19.7867 33.4932 19.9218 36.7621 17.0492 36.0237V30.6296C24.7123 32.4937 27.729 20.6518 19.4175 19.3641C18.499 19.229 16.2748 19.1389 15.4284 19.3191C15.1672 19.3731 10.962 21.4983 10.6018 21.7595C6.72968 24.5241 8.72876 33.3852 8.96288 37.6356C7.41405 37.6446 6.08133 37.1854 5.72114 38.9864C4.9017 43.1198 8.72876 43.561 8.97189 44.4796C9.34108 45.8574 9.11596 53.7549 8.9899 55.709C8.8188 58.1585 7.38703 62.598 7.45907 64.4351C7.5131 66.1461 13.7625 68.2353 15.5814 67.704C19.4175 66.5783 16.8421 55.8441 17.8507 52.7193C19.9578 58.0054 24.4422 58.4556 28.3683 54.5924C28.7105 54.2592 29.1968 52.08 29.9712 53.6108C30.2683 54.1872 30.1783 55.0066 30.8086 55.9342C33.447 59.8424 36.5627 55.9882 38.868 55.9882C40.1466 55.9882 42.5509 57.6272 44.7931 57.6091C47.4586 57.5911 49.4576 55.709 50.8174 55.5109C51.3667 55.4299 52.2491 56.4024 53.3837 56.5285C55.662 56.7627 58.3364 55.8171 59.8582 55.9612C60.8307 56.0512 61.5872 57.1499 62.6767 57.4651C63.4421 57.6812 65.4232 57.4651 65.5313 57.5641C66.3147 58.3116 63.2891 65.957 66.6028 67.5329C68.9981 68.6765 74.383 66.9926 75.7698 64.5702C75.7428 64.3991 75.7878 64.2099 75.7698 64.0389C74.6171 63.2104 74.4191 56.7627 74.6892 56.4925C74.8603 56.3214 78.138 56.6636 79.5158 56.1953C81.803 55.4299 82.7305 52.6383 83.3248 52.188C84.3334 51.4136 84.4775 53.0345 84.9097 53.5118C89.6552 58.7708 95.4363 58.1765 99.7407 52.7283C101.794 57.7622 106.521 58.4736 111.312 56.7537C112.383 56.3664 114.968 54.4393 115.373 54.4663C116.183 54.5294 117.579 57.312 121.821 56.4835C123.306 56.1863 124.693 53.8089 125.062 53.8089C125.467 53.8089 128.493 57.402 132.086 57.5911C136.156 57.8163 139.704 54.4393 140.145 54.4393C140.406 54.4393 142.91 56.6006 144.585 56.9067C152.194 58.3025 155.183 51.8728 156.876 45.7493C157.192 44.6146 156.93 43.3359 157.237 42.3363C157.651 40.9765 159.65 40.4002 159.308 37.9148ZM145.809 43.0297C145.971 42.8496 148.88 44.0293 148.97 44.1734C150.222 46.1185 144.873 56.5105 145.809 43.0297ZM137.183 46.7939C137.075 46.893 136.129 46.6048 135.715 46.902C135.355 47.1541 135.103 48.676 134.238 49.5045C129.907 53.6108 129.592 43.1828 132.608 41.4178C133.185 42.9937 136.057 43.2459 136.516 43.6871C136.805 43.9663 137.318 46.6588 137.183 46.7939ZM102.82 45.6052C102.586 45.209 102.208 41.9491 103.505 42.4894C104.126 43.3539 107.206 45.5692 107.017 46.5147C106.71 48.0186 102.982 45.8934 102.82 45.6052ZM91.3932 43.0297C91.5553 42.8496 94.4638 44.0293 94.5539 44.1734C95.8055 46.1185 90.4567 56.5105 91.3932 43.0297ZM77.3816 37.6356C77.3546 41.0396 77.4357 45.9114 74.6982 48.4148C74.8693 44.9749 74.9053 40.3012 77.3816 37.6356ZM50.7543 46.2986C50.2411 47.028 48.6292 46.5868 47.7647 47.0731C46.9543 47.5233 45.6576 51.1794 43.9737 50.3329C42.2177 49.4414 42.677 43.3089 43.7306 41.9671C45.0183 40.3192 46.2789 43.8042 47.9538 43.489C49.5297 43.1918 49.3586 39.7518 50.9795 39.2566C50.7003 40.8145 51.5017 45.227 50.7543 46.2986ZM26.2071 47.8745C26.1351 45.8754 26.4863 43.8492 27.0086 41.9401C27.1887 41.2467 27.5219 39.3556 28.3503 39.2566C28.3683 42.1382 28.8095 45.9384 26.2071 47.8745Z" fill="#2B2B2B"/>
<path d="M32.3935 29.5049C32.3755 29.694 32.2854 29.9011 32.1323 30.0902C32.2134 29.8291 32.3034 29.631 32.3935 29.5049Z" fill="#3A3A3A"/>
<path d="M147.025 60.6799C142.361 61.4274 141.316 58.2215 139.632 58.1315C137.948 58.0414 133.122 60.716 130.988 60.734C128.322 60.752 125.161 57.2309 124.531 57.1859C123.982 57.1409 120.983 59.1671 119.11 59.2121C116.994 59.2751 115.49 57.5641 114.374 57.6812C113.194 57.7983 110.673 60.3107 109.304 60.6709C107.629 61.1212 103.37 60.0946 101.776 59.3021C100.794 58.8159 98.9753 56.5826 98.6692 56.5826C98.345 56.5826 96.0037 58.7978 94.7791 59.077C92.6449 59.5543 88.7008 59.1581 86.7017 58.2215C85.7022 57.7532 83.7752 55.637 83.0368 55.592C82.3074 55.547 80.5244 57.366 79.5789 57.8793C75.959 59.8244 75.1125 57.8703 75.7699 64.0389C74.6172 63.2104 74.4191 56.7627 74.6893 56.4925C74.8604 56.3214 78.1381 56.6636 79.5159 56.1953C81.8031 55.4299 82.7306 52.6383 83.3249 52.188C84.3335 51.4136 84.4775 53.0345 84.9098 53.5118C89.6553 58.7708 95.4364 58.1765 99.7407 52.7283C101.794 57.7622 106.521 58.4737 111.312 56.7537C112.384 56.3664 114.968 54.4393 115.373 54.4663C116.184 54.5294 117.579 57.312 121.821 56.4835C123.306 56.1863 124.693 53.809 125.062 53.809C125.468 53.809 128.493 57.402 132.086 57.5911C136.156 57.8163 139.704 54.4393 140.145 54.4393C140.407 54.4393 142.91 56.6006 144.585 56.9068C152.194 58.3026 155.184 51.8729 156.876 45.7493C157.192 44.6147 156.93 43.3359 157.237 42.3364C157.651 40.9766 159.65 40.4002 159.308 37.9148C159.083 36.2578 157.633 36.9422 157.075 36.2128C156.651 35.6635 156.255 33.4932 155.616 32.4036C153.68 29.1347 152.113 29.4949 149.033 28.4774C153.644 24.0018 160.397 32.1875 160.902 36.2759C161.856 44.0023 155.769 59.2571 147.025 60.6799Z" fill="#39383D"/>
<path d="M148.502 28.4778C146.413 32.0259 143.486 26.8479 140.425 31.1704C136.634 22.6605 128.754 26.9379 125.486 33.7549C124.342 36.1412 123.018 44.2279 122.586 44.5881C122.244 44.8763 120.056 44.48 119.155 44.6601C118.21 44.8312 117.723 45.8038 116.724 45.7138C116.382 43.1743 113.932 41.8505 112.401 40.0585C122.091 35.3938 118.138 25.371 107.521 27.6403C104.648 28.2527 101.749 32.242 101.362 32.242C100.794 32.242 99.0293 28.1716 94.3828 29.0361C93.5544 29.1892 92.915 30.0447 92.2036 30.0807C91.1231 30.1168 90.1956 28.6399 88.5477 29.0902C87.4941 29.3873 86.4406 31.5396 85.6571 31.6747C84.5856 31.8548 83.604 29.3513 81.9561 29.0271C78.6784 28.3968 77.2016 29.4774 74.6982 31.1704C74.4371 27.3161 70.4299 28.5499 67.6925 29.0181C66.765 25.2359 69.7546 14.0335 67.1432 11.512C65.018 9.47685 57.499 11.9623 57.6161 14.6368C57.6881 16.2127 58.9308 18.0588 58.5256 19.8598C52.2492 17.4194 49.7638 23.1647 51.5198 28.4778C45.1173 24.1013 40.5069 28.2437 37.2471 33.8629C36.5357 31.2514 33.9243 32.242 32.6456 31.4495C32.0603 31.0893 32.2764 30.3059 32.1324 30.0897C32.2855 29.9006 32.3755 29.6935 32.3935 29.5044C32.3035 29.6305 32.2134 29.8286 32.1324 30.0897C31.7452 29.5134 31.412 29.2162 31.0518 28.4778C27.0356 27.028 23.8929 28.1356 21.3536 31.4405C19.7867 33.4937 19.9218 36.7626 17.0493 36.0242V30.6301C24.7124 32.4941 27.729 20.6523 19.4175 19.3646C18.499 19.2295 16.2749 19.1394 15.4284 19.3195C15.1673 19.3736 10.962 21.4988 10.6018 21.7599C6.72973 24.5245 8.7288 33.3856 8.96292 37.6361C7.41409 37.6451 6.08138 37.1858 5.72118 38.9869C4.90174 43.1203 8.7288 43.5615 8.97193 44.48C9.34113 45.8578 9.11601 53.7554 8.98994 55.7095C8.81885 58.1589 7.38708 62.5985 7.45912 64.4356C7.51315 66.1465 13.7625 68.2358 15.5815 67.7044C19.4175 66.5788 16.8422 55.8446 17.8507 52.7198C19.9578 58.0058 24.4422 58.4561 28.3684 54.5929C28.7105 54.2597 29.1968 52.0804 29.9712 53.6113C30.2684 54.1876 30.1783 55.0071 30.8087 55.9347C33.4471 59.8429 36.5628 55.9887 38.868 55.9887C40.1467 55.9977 42.551 57.6276 44.7932 57.6096C47.4586 57.5916 49.4577 55.7095 50.8174 55.5114C51.3667 55.4304 52.2492 56.4029 53.3838 56.529C55.662 56.7631 58.3364 55.8176 59.8583 55.9617C60.8308 56.0517 61.5872 57.1504 62.6768 57.4655C63.4422 57.6817 65.4233 57.4655 65.5313 57.5646C66.3147 58.312 63.2891 65.9574 66.6029 67.5333C68.9982 68.677 74.3831 66.993 75.7698 64.5706C75.8148 64.9669 77.0035 67.0471 76.8504 67.2632C69.7366 69.4514 57.9853 73.5038 63.3612 61.0676C62.7398 60.068 61.9204 60.7794 60.8668 60.4102C60.3355 60.2301 59.8403 59.4467 59.1919 59.2846C57.2739 58.7893 53.4738 60.8695 51.7629 60.7704C50.4212 60.6894 49.8899 58.8974 49.1155 58.8253C48.5752 58.7713 47.0264 59.6628 45.8647 59.7258C43.6135 59.8609 41.1012 59.4647 38.913 59.7709C36.2476 60.1491 35.212 61.6349 31.8352 61.3738C28.4944 61.1216 29.0797 58.9424 28.0352 58.6902C27.1167 58.4741 24.7844 60.7074 23.3346 60.6624C21.5697 60.6174 20.336 58.9064 18.6611 58.6542C20.21 65.8584 17.7246 74.9896 8.98994 69.1273C6.91883 67.7405 5.76621 65.0119 5.22592 62.6525L7.38708 44.9843C7.17997 44.0748 2.5965 44.9933 3.02874 38.9869C3.29888 35.1417 5.23492 37.0237 5.73919 36.5555C5.99133 36.3213 5.1899 33.2506 5.17189 32.5392C5.09985 30.3869 4.8297 24.2994 5.58611 22.6785C6.6847 20.3371 11.9705 18.365 14.3478 17.6986C16.0227 17.2393 18.0218 16.582 19.7417 16.627C22.3171 16.69 23.1275 17.4645 24.5863 19.3195C26.8195 22.1562 26.6304 22.9846 25.1266 26.3256C27.9541 27.8114 32.9878 25.1279 33.2039 30.0897C34.2575 30.3599 35.7793 31.1524 36.8779 30.522C37.4452 30.1888 39.6154 25.272 41.1192 24.8037C43.0102 24.2274 46.333 24.7947 48.278 25.2449C49.3406 21.931 50.106 16.3388 54.7525 17.6986C55.3198 16.2938 53.9061 12.6467 54.4554 11.7732C55.1127 10.7286 63.2261 8 64.7299 8C72.5551 8.01801 69.3494 21.949 69.3043 26.8659C70.6911 27.01 72.465 26.5597 73.7707 26.9649C74.5902 27.2171 74.9954 28.4778 75.9319 28.3968C77.3997 28.2707 78.9575 26.0914 81.3708 26.3256C83.3879 26.5237 85.1529 28.838 85.8102 28.9641C86.5306 29.0902 87.6562 27.5323 89.0159 27.3972C89.8354 27.3251 94.9051 27.3612 95.9046 27.4152C97.6066 27.5233 99.8848 29.3513 100.821 29.3603C102.163 29.3603 106.413 26.0914 108.962 25.8213C111.627 25.5331 119.29 27.6223 119.821 30.468C120.11 32.0169 119.614 36.0332 119.002 37.501C118.237 39.3111 115.787 40.1305 115.634 40.3377C114.851 41.4543 119.596 44.462 121.064 42.1207C122.352 40.0765 123.423 33.4757 124.873 30.4409C125.99 28.1086 126.521 27.1 128.979 25.9293C136.084 22.5524 141.829 26.2986 148.502 28.4778Z" fill="#39383D"/>
<path d="M32.3935 29.5049C32.3755 29.694 32.2854 29.9011 32.1323 30.0902C32.2134 29.8291 32.3034 29.631 32.3935 29.5049Z" fill="#3A3A3A"/>
<path d="M156.039 38.1762C156.336 33.8537 153.094 28.8738 148.331 30.0805C147.709 30.2426 147.646 31.5844 147.142 31.7195C146.341 31.9266 145.071 29.7563 143.495 30.1616C142.144 30.5218 140.992 33.1603 139.884 33.8627C139.92 31.8726 139.281 29.5312 137.381 28.5496C128.034 23.7229 123.513 40.1573 123.712 46.7942C122.064 45.7045 119.857 45.1372 118.092 46.3079C117.498 46.7041 117.075 48.7303 116.174 47.8748C116.021 47.7217 115.526 45.1822 114.554 43.8315C113.302 42.0935 111.375 41.0398 109.709 39.7881V39.2568C119.344 38.3743 119.326 26.7576 108.394 28.5136C104.522 29.135 103.099 31.9086 101.352 34.9433C100.191 32.3138 98.579 30.1346 95.4183 30.0535C92.6088 29.9815 93.4643 31.5214 92.7259 31.7195C91.8794 31.9356 90.7988 29.6303 88.6827 30.3057C86.9538 30.855 86.4585 33.2414 85.1978 34.394C82.6945 28.2795 77.5977 28.8378 74.1579 33.8627C74.0408 27.9013 70.9432 29.2971 66.6118 30.6298C65.7204 27.3339 68.1697 14.0873 66.3507 12.3043C64.3066 10.2961 60.6776 13.601 58.5255 13.9432C59.1918 15.312 59.3629 16.7618 59.6061 18.2387C59.7411 18.8601 59.8222 19.4634 59.8582 20.0307C59.8582 20.1298 59.8762 20.2288 59.8852 20.3279C59.9392 21.3275 59.8402 22.255 59.5971 23.0835C59.552 23.2456 59.498 23.3987 59.435 23.5428C59.3359 23.8129 59.2189 24.0741 59.0838 24.3262C59.2549 24.8035 59.399 25.2988 59.516 25.8211C59.543 25.9471 59.5791 26.0732 59.5971 26.2083C59.5971 26.2353 59.6061 26.2533 59.5971 26.2803C60.2454 29.3781 60.0653 32.9262 59.6061 36.024C59.399 38.7435 59.2189 41.5892 59.0658 44.5789V44.6419L58.3814 46.7041C58.4264 45.9297 58.4625 45.1642 58.4805 44.3898C58.4985 43.9936 58.5165 43.5973 58.5165 43.2011V43.1471C58.5615 41.4901 58.5615 39.8332 58.5255 38.1762C59.1378 37.5728 59.3539 36.4022 59.3539 35.2225C59.3539 34.8803 59.3359 34.5381 59.2999 34.2139C59.2999 34.2139 59.2909 34.1959 59.2999 34.1869C59.2459 33.6736 59.1648 33.1873 59.0658 32.7911C58.1473 29.171 52.1591 32.8181 51.5287 32.2508C51.3847 32.1157 51.5197 29.9364 49.8989 28.7568C42.3528 23.2906 37.3191 35.6277 36.4366 41.4091C35.9324 42.3906 35.7523 42.2105 35.8963 40.8687C35.9594 39.509 36.1395 33.9708 35.6622 33.2954C34.9148 32.2148 32.1323 33.1513 31.646 32.7281C30.6105 31.8275 31.9792 27.7482 26.045 29.135C21.7948 30.1256 20.2189 37.2667 19.7146 37.6359C19.5616 37.7439 16.7881 36.9875 15.9686 37.6359V29.2881C15.9686 28.4146 17.0312 25.8931 17.0492 24.7134C18.8862 25.2537 17.1663 29.9364 18.3999 30.0985C28.9986 25.5509 20.9573 16.3746 11.7093 22.3271C6.81071 25.4789 11.124 37.6449 10.0434 38.7165C9.86335 38.8966 7.47707 38.5904 6.8017 38.7075C5.22586 42.5617 9.9534 42.8949 10.0795 43.3542C10.4757 44.822 10.2055 54.6107 10.0344 56.7539C9.91738 58.2488 8.40456 63.877 8.48561 64.2462C8.72874 65.2908 15.9236 68.4877 16.8241 65.1558C17.2563 62.3551 15.1492 43.2641 15.9686 42.4807C16.0497 42.4086 18.0397 42.4086 18.1208 42.4807C18.6431 42.985 16.653 54.0524 21.8668 55.7183C26.4142 57.1591 28.0621 52.7646 30.5114 50.027C30.5475 55.2951 31.637 57.4653 36.9769 55.6823C37.7513 55.4302 38.4807 54.4936 38.958 54.4216C39.4352 54.3405 42.659 56.7989 45.8107 56.4567C47.9628 56.2316 51.0425 53.7822 51.7899 53.7822C52.2581 53.7822 51.9249 55.133 53.3927 55.4301C56.3013 55.9975 59.2909 54.2054 60.3625 54.3045C60.7767 54.3495 60.8307 55.3761 61.245 55.6373C62.8028 56.6278 64.9729 56.835 66.6028 55.9525C67.1881 57.6995 64.982 66.2814 66.963 66.7497C68.8991 67.2089 71.9967 66.5966 73.5906 65.3449C75.5807 63.787 73.6086 63.2377 73.6086 62.148V54.3405C76.5081 56.4928 79.4888 55.6373 81.6769 52.9807C82.7845 51.63 83.0817 49.946 84.3784 48.9554C87.0798 59.2123 97.1923 57.9156 100.551 48.4151C101.893 45.5965 102.199 45.3623 101.479 47.7127C101.479 47.7217 101.47 47.7307 101.461 47.7487C101.37 48.0909 101.244 48.4962 101.091 48.9464C99.3084 57.8435 109.151 57.9516 114.319 53.8182C114.905 53.3409 115.22 51.2698 116.165 52.1793C117.147 53.1338 115.805 55.8894 120.758 55.4301C124 55.133 123.297 53.3409 125.323 51.648C127.205 57.3573 136.832 58.3839 139.353 52.7286C140.857 52.8006 141.514 54.4216 143.081 55.178C148.394 57.7445 152.644 54.3405 154.688 49.4867C155.778 46.8842 155.526 44.5969 156.174 42.3546C156.57 40.9768 158.029 40.4185 158.209 38.4554C158.353 36.8074 157.047 38.4824 156.039 38.1762ZM26.2071 47.8748C26.1351 45.8756 26.4863 43.8495 27.0086 41.9404C27.1887 41.247 27.5218 39.3559 28.3503 39.2568C28.3683 42.1385 28.8095 45.9387 26.2071 47.8748ZM50.7543 46.2989C50.241 47.0283 48.6292 46.587 47.7647 47.0733C46.9543 47.5236 45.6576 51.1797 43.9737 50.3332C42.2177 49.4417 42.677 43.3092 43.7305 41.9674C45.0182 40.3194 46.2789 43.8044 47.9538 43.4893C49.5297 43.1921 49.3586 39.7521 50.9794 39.2568C50.7003 40.8147 51.5017 45.2273 50.7543 46.2989ZM77.3816 37.6359C77.3546 41.0398 77.4356 45.9117 74.6982 48.4151C74.8693 44.9751 74.9053 40.3014 77.3816 37.6359ZM91.3932 43.03C91.5552 42.8499 94.4638 44.0296 94.5538 44.1737C95.8055 46.1188 90.4566 56.5108 91.3932 43.03ZM102.82 45.6055C102.586 45.2093 102.208 41.9494 103.505 42.4897C104.126 43.3542 107.206 45.5695 107.017 46.515C106.71 48.0189 102.982 45.8936 102.82 45.6055ZM137.183 46.7942C137.075 46.8932 136.129 46.6051 135.715 46.9022C135.355 47.1544 135.103 48.6763 134.238 49.5047C129.907 53.6111 129.592 43.1831 132.608 41.4181C133.185 42.994 136.057 43.2461 136.516 43.6874C136.805 43.9665 137.318 46.6591 137.183 46.7942ZM145.809 43.03C145.971 42.8499 148.88 44.0296 148.97 44.1737C150.222 46.1188 144.873 56.5108 145.809 43.03Z" fill="white"/>
<path d="M59.6062 36.0241C59.1289 34.9705 59.228 33.8718 59.6062 32.7912C59.5882 30.4589 59.6242 28.1175 59.6062 25.7942C58.5256 26.2084 59.1199 27.7393 57.9763 28.7389C56.5175 30.0176 53.726 29.8465 52.6635 28.1625C50.4393 24.6415 53.591 18.2388 57.7602 20.9134C59.0749 21.7599 58.5616 23.2187 59.6062 23.6419V18.2568C60.3986 23.0746 60.2095 28.1085 60.1555 33.0794C60.1465 33.9889 60.4977 35.4748 59.6062 36.0331V36.0241Z" fill="white"/>
<path d="M103.775 40.3381C101.938 39.0324 101.019 47.074 100.551 48.4158L101.091 48.9471C101.19 48.4338 101.317 48.0376 101.461 47.7494C101.47 47.7314 101.479 47.7224 101.479 47.7134C102.514 45.7052 104.531 48.4698 106.233 48.3798C111.447 48.0916 104.144 41.824 103.775 40.3381ZM102.82 45.6062C102.586 45.21 102.208 41.9501 103.505 42.4904C104.126 43.3549 107.206 45.5702 107.017 46.5157C106.71 48.0196 102.982 45.8943 102.82 45.6062Z" fill="#2F2F2F"/>
<path d="M109.709 39.2575V39.7978C107.935 38.465 104.306 36.3668 107.899 33.9354C111.483 31.504 110.537 37.3303 109.709 39.2665V39.2575Z" fill="#333333"/>
<path d="M59.6061 36.0239C59.6061 38.7615 60.0654 42.2375 59.0658 44.6419L58.3815 44.3537C58.6426 42.2915 58.6966 40.2383 58.5255 38.1761C58.7597 36.3931 59.1559 34.6011 59.0658 32.791H59.6061C59.6061 33.8716 59.6061 34.9433 59.6061 36.0239Z" fill="#3C3C3C"/>
<path d="M36.4457 41.4095C36.1845 43.1114 37.1661 46.2272 35.3741 47.3349C35.4461 45.6239 35.248 43.8859 35.3471 42.1749C35.3831 41.4815 35.9054 40.9412 35.9054 40.8691L36.4457 41.4095Z" fill="#575757"/>
<path d="M52.06 34.9434L47.7557 42.2286L44.7931 39.8062C39.7774 42.1565 41.1462 55.9345 47.1884 50.2702C48.9084 48.6673 47.3865 46.434 51.5198 48.9464C52.3932 44.3358 51.988 39.6171 52.06 34.9434ZM50.7543 46.2989C50.2411 47.0283 48.6292 46.5871 47.7647 47.0734C46.9543 47.5236 45.6576 51.1797 43.9737 50.3332C42.2178 49.4417 42.677 43.3092 43.7306 41.9674C45.0183 40.3195 46.2789 43.8045 47.9538 43.4893C49.5297 43.1921 49.3586 39.7521 50.9795 39.2568C50.7003 40.8147 51.5017 45.2273 50.7543 46.2989Z" fill="#2D2D2D"/>
<path d="M50.7543 46.2989C50.241 47.0283 48.6292 46.5871 47.7647 47.0733C46.9543 47.5236 45.6576 51.1797 43.9737 50.3332C42.2177 49.4417 42.677 43.3092 43.7305 41.9674C45.0182 40.3195 46.2789 43.8045 47.9538 43.4893C49.5297 43.1921 49.3586 39.7521 50.9794 39.2568C50.7003 40.8147 51.5017 45.2273 50.7543 46.2989Z" fill="#39383D"/>
<path d="M138.795 37.0957C137.237 38.2123 136.309 40.6618 136.102 42.4898C134.058 42.9041 133.896 39.0768 132.32 40.0494C129.231 41.9495 128.088 50.9367 132.185 51.558C135.832 52.1074 135.076 46.8483 138.263 47.8749C137.678 44.2638 138.2 40.6978 138.795 37.0957ZM137.183 46.7943C137.075 46.8934 136.129 46.6052 135.715 46.9024C135.355 47.1545 135.103 48.6764 134.238 49.5049C129.907 53.6112 129.592 43.1832 132.608 41.4182C133.185 42.9941 136.057 43.2463 136.516 43.6875C136.805 43.9667 137.318 46.6592 137.183 46.7943Z" fill="#2D2D2D"/>
<path d="M77.6428 36.0245C74.6262 35.4032 72.9423 48.3707 73.6176 50.5679C77.931 50.4779 79.876 36.4838 77.6428 36.0245ZM74.6982 48.4157C74.8693 44.9757 74.9053 40.302 77.3817 37.6365C77.3546 41.0404 77.4357 45.9122 74.6982 48.4157Z" fill="#2D2D2D"/>
<path d="M67.6925 50.2977C67.6655 50.5318 67.1702 52.8731 66.6209 52.7201C66.0806 45.732 65.9546 38.735 66.0807 31.7109C66.8461 31.765 67.6925 34.3405 67.6925 34.6736C67.6925 39.4734 68.1968 45.723 67.6925 50.2977Z" fill="#383838"/>
<path d="M28.6295 36.0334C26.9996 36.0965 23.4157 50.0725 25.937 50.0185C27.1887 49.9915 29.1067 45.5249 29.3048 44.2372C29.4849 43.1205 29.8812 35.9884 28.6295 36.0334ZM26.2072 47.8752C26.1351 45.8761 26.4863 43.8499 27.0086 41.9408C27.1887 41.2474 27.5219 39.3563 28.3503 39.2573C28.3683 42.1389 28.8096 45.9391 26.2072 47.8752Z" fill="#2E2E2E"/>
<path d="M26.2072 47.8748C26.1352 45.8757 26.4864 43.8495 27.0087 41.9404C27.1888 41.247 27.5219 39.3559 28.3504 39.2568C28.3684 42.1385 28.8096 45.9387 26.2072 47.8748Z" fill="#39383D"/>
<path d="M150.051 43.084C149.961 42.9759 148.232 42.7958 147.421 42.2105C146.494 41.5441 146.341 40.1933 145.269 39.7881C144.936 42.0664 143.279 53.1428 147.962 50.8465C149.447 50.117 150.798 43.9485 150.051 43.084ZM145.809 43.03C145.972 42.8499 148.88 44.0295 148.97 44.1736C150.222 46.1187 144.873 56.5107 145.809 43.03Z" fill="#2E2E2E"/>
<path d="M95.7245 44.3807C95.5354 43.093 91.7174 41.6161 90.8619 39.7881C90.6638 42.0664 88.9079 51.5309 92.7169 51.1256C94.6529 50.9275 95.9496 45.8576 95.7245 44.3807ZM91.3932 43.03C91.5553 42.8499 94.4638 44.0295 94.5539 44.1736C95.8056 46.1187 90.4567 56.5107 91.3932 43.03Z" fill="#2F2F2F"/>
<path d="M59.0659 44.6423C59.0659 46.7945 59.0659 48.9558 59.0659 51.108C58.3004 51.2341 58.2914 50.1535 58.1474 49.6131C57.1028 45.4437 57.9853 42.2919 58.5256 38.1855C59.5161 39.7885 59.0569 42.6161 59.0659 44.6513V44.6423Z" fill="#353535"/>
<path d="M95.6975 38.7166C94.1847 37.9872 93.3743 35.5918 94.8961 34.4121L95.6975 38.7166Z" fill="#313131"/>
<path d="M150.114 38.7166C148.601 37.9872 147.791 35.5918 149.312 34.4121L150.114 38.7166Z" fill="#3C3C3C"/>
<path d="M107.017 46.5153C106.71 48.0191 102.982 45.8939 102.82 45.6058C102.586 45.2095 102.208 41.9496 103.505 42.49C104.126 43.3545 107.206 45.5697 107.017 46.5153Z" fill="#39383D"/>
<path d="M137.183 46.7941C137.075 46.8931 136.129 46.605 135.715 46.9021C135.355 47.1543 135.103 48.6762 134.238 49.5046C129.907 53.611 129.592 43.183 132.608 41.418C133.185 42.9939 136.057 43.246 136.517 43.6873C136.805 43.9664 137.318 46.659 137.183 46.7941Z" fill="#39383D"/>
<path d="M77.3817 37.6357C77.3547 41.0397 77.4357 45.9115 74.6982 48.415C74.8693 44.975 74.9053 40.3013 77.3817 37.6357Z" fill="#39383D"/>
<path d="M145.809 43.0304C145.972 42.8503 148.88 44.0299 148.97 44.174C150.222 46.1192 144.873 56.5112 145.809 43.0304Z" fill="#39383D"/>
<path d="M91.3932 43.0304C91.5553 42.8503 94.4638 44.0299 94.5539 44.174C95.8055 46.1192 90.4567 56.5112 91.3932 43.0304Z" fill="#39383D"/>
</svg>
