<svg width="164" height="80" viewBox="0 0 164 80" fill="none" xmlns="http://www.w3.org/2000/svg">
<path d="M100.376 41.1682C99.8374 59.8699 87.8719 77.4187 68.658 80C77.35 68.5423 86.5402 50.8302 75.8353 37.7299C73.1819 34.4854 64.7135 28.68 60.7386 28.68H49.0476C48.4884 26.7211 53.0124 25.8232 54.4763 25.4355C66.7569 22.2217 68.9833 26.3844 79.0478 27.7822C85.9404 28.7412 89.1834 23.2521 90.5355 17.3549C90.3321 13.9166 90.8303 10.1926 90.5355 6.79505C90.4948 6.29511 90.6066 5.76457 90.5355 5.28504C90.383 4.13213 88.5022 1.76508 89.041 0C91.6131 0.724397 90.7998 4.10152 91.2979 5.28504C96.6555 18.0181 100.793 26.4048 100.376 41.1682Z" fill="#FBFBFB"/>
<path d="M75.2454 64.3279C71.5653 73.5921 70.0709 74.3675 62.2735 67.9091C58.9085 65.1135 57.2616 62.5424 55.0861 58.8694C55.6655 56.4922 60.5453 53.1967 62.6293 52.0846C64.5405 51.0541 75.1946 47.2179 76.4857 47.5954C79.932 48.6054 76.3942 61.4303 75.2454 64.3279Z" fill="#FBFBFB"/>
<path d="M115.432 48.31C115.015 48.7487 114.395 49.4119 113.968 49.2384C112.769 48.7691 103.883 44.1676 103.284 43.5759L102.613 41.5149C102.237 30.7612 100.417 25.5884 99.146 15.9161C99.0444 15.1713 98.2819 13.6919 99.9593 14.3449C102.785 15.4468 109.048 21.9562 110.786 24.6497C115.503 31.9753 116.927 39.7702 115.432 48.2998V48.31Z" fill="#FBFBFB"/>
<path d="M73.1817 39.2506L72.4904 41.1178C65.8113 43.6684 59.732 47.4435 54.2728 52.4632L52.0566 52.0857C50.5418 46.2293 49.7082 40.5158 51.5279 34.5676C52.7885 30.415 53.1647 30.4865 57.6479 31.0374C64.4389 31.874 68.5968 34.4655 73.1919 39.2608L73.1817 39.2506Z" fill="#FBFBFB"/>
<path d="M92.8024 73.97C91.9993 74.3985 89.2138 74.4903 89.4171 74.0414L92.8024 69.4501C94.3985 66.7566 96.6045 64.2467 97.9871 61.4308C98.8919 59.5943 101.352 51.228 101.799 50.9015C103.558 49.6159 113.206 54.4929 113.196 57.0028C113.196 58.7984 106.272 66.4403 104.473 67.9197C100.62 71.0928 97.5093 72.4396 92.8024 73.9802V73.97Z" fill="#FBFBFB"/>
<path d="M75.2353 8.45744C86.296 5.95776 87.0076 21.619 77.909 22.4863C68.8103 23.3535 67.4074 10.2225 75.2353 8.45744Z" fill="#FBFBFB"/>
<path d="M76.4285 44.5073C70.9573 45.0182 66.1924 47.6339 61.6563 50.5664C58.6421 52.5078 56.5233 54.6025 53.539 56.6052C52.6736 54.7047 52.5542 54.0201 52.0668 52.0787C56.4139 49.4118 59.6767 45.6108 64.2227 42.9848C66.7196 41.5441 70.0123 40.2464 72.7379 39.2247C72.8075 39.3064 73.6829 38.959 74.2499 39.7151C75.0159 40.7573 75.4536 43.2607 76.4285 44.5073Z" fill="#FBFBFB"/>
<path d="M115.432 48.3097C115.076 50.3401 115.422 52.8091 113.551 54.3293C111.935 51.6868 104.005 48.5036 102.989 46.7997C102.206 45.4733 102.663 43.1165 102.613 41.5146L115.442 48.3097H115.432Z" fill="#FBFBFB"/>
<path d="M92.8023 69.4404C91.5011 71.6442 88.7562 74.8071 92.8023 73.9705C90.8301 74.6132 88.9392 75.5621 86.7637 75.4703L92.8023 69.4404Z" fill="#FBFBFB"/>
</svg>
