<svg width="164" height="80" viewBox="0 0 164 80" fill="none" xmlns="http://www.w3.org/2000/svg">
<g clip-path="url(#clip0_786_3397)">
<path d="M104.613 41.5738C103.476 39.442 103.298 44.6584 103.288 45.0514C103.258 45.6801 103.624 46.3186 103.614 46.8786C103.515 52.0753 96.8805 52.3602 96.0302 48.6272C95.8621 47.8511 95.7929 43.9216 96.0203 43.2831C96.2576 42.5856 97.5232 42.3302 98.0374 41.8193C99.3327 40.5226 99.6194 37.9881 98.8185 36.3573C98.4922 35.709 97.3551 35.0508 97.454 34.5007C97.5232 34.1372 99.0361 32.8797 99.1943 31.4258C99.3722 29.8933 98.156 28.7243 98.2352 27.9187C98.3143 27.1525 99.5304 26.6318 99.1152 25.8558C98.9372 25.5316 96.8706 24.1562 96.5048 24.1562C96.0104 24.1562 95.249 24.9127 94.5866 25.0502C93.3605 25.2958 92.1146 25.0207 90.7798 25.286C85.4008 26.3666 84.4516 33.8719 89.1878 36.0528C90.7501 36.7798 93.3704 36.6226 94.2405 37.1629C95.9412 38.2239 93.7065 41.4559 91.1753 39.5599C90.6018 39.1276 90.3843 38.1747 89.8206 37.9783C88.9209 37.6737 87.3981 38.0667 86.3896 37.9193C85.8952 38.7052 87.2498 41.0924 87.1213 41.2103C86.6467 41.6622 84.1352 41.2005 83.8188 43.6171C83.2156 48.2834 91.9564 46.0239 91.4917 49.3542C91.2346 51.201 88.1298 51.2993 86.6566 50.9947C86.3204 50.926 82.8498 48.6763 83.4529 50.1597C84.59 52.9693 93.0836 53.2149 92.6387 48.7451C92.2728 45.0121 82.1873 46.7509 85.4404 43.008C86.9829 41.2299 88.7528 42.9294 90.3447 43.3126C91.7883 43.6662 93.3901 43.4796 94.8535 43.401C94.3789 47.6154 94.9326 52.9693 100.529 52.1539C101.468 52.0164 103.347 50.5035 103.683 50.7197C103.753 50.759 102.784 52.1146 104.227 52.1736C104.633 52.095 104.781 49.5703 104.801 49.0889C104.929 46.5839 104.652 44.0592 104.613 41.5738ZM92.8265 33.2039C89.4746 33.4004 89.8998 28.7439 92.52 28.4885C94.8041 28.2724 96.1389 33.0173 92.8265 33.2039Z" fill="white"/>
<path d="M16.1072 34.4413C15.4942 37.2116 9.21544 37.8108 6.89181 37.3786C-2.93665 35.5808 -2.03686 20.688 8.20688 20.0004C9.63072 19.9021 15.6722 21.1891 15.2272 22.9475C15.1283 23.3503 13.5166 25.1579 13.1705 25.315C12.8245 25.4722 10.3822 24.2148 9.5714 24.1067C3.43109 23.2422 3.00591 32.9677 8.55295 33.5375C13.4079 34.0385 14.0604 29.4607 8.37498 30.6002V26.9458H16.1072C15.7908 29.107 16.5423 32.4569 16.1072 34.4413Z" fill="white"/>
<path d="M64.1124 25.1091C62.6193 25.06 61.4921 26.1209 60.7505 26.1504C60.2561 26.1799 59.8606 25.5708 59.3267 25.5118C58.2984 25.3841 57.2404 25.5511 56.212 25.4922V40.8467C60.7901 41.1611 60.9483 40.9941 60.6319 36.4555C70.0154 41.387 73.0213 25.4038 64.1124 25.1091ZM63.3115 33.8424C60.5033 34.6086 59.3564 29.5985 62.0063 28.8421C65.4176 27.8794 66.0899 33.086 63.3115 33.8424Z" fill="white"/>
<path d="M50.1607 25.5114C49.7059 25.5506 49.3104 26.0615 49.0335 26.0811C48.5688 26.1106 47.1647 25.1479 46.087 25.1086C38.0383 24.8335 38.0976 38.5475 46.8088 37.1623C47.6196 37.0346 48.6479 36.1898 49.0434 36.2192C49.3598 36.2389 49.9432 36.9658 50.5859 37.1132C51.1891 37.2507 53.6412 37.3686 53.6412 36.6417V25.4917C52.4844 25.5212 51.3176 25.4229 50.1607 25.5114ZM47.1153 33.8419C44.5247 34.2348 43.3382 29.49 46.1859 28.8612C50.1113 27.9869 49.9729 33.4096 47.1153 33.8419Z" fill="white"/>
<path d="M28.5658 25.3253C27.8638 25.4039 27.1025 26.0817 26.5982 26.0817C26.0642 26.0916 24.8975 25.2369 23.9779 25.1387C16.2654 24.3822 15.514 37.6148 23.6615 37.2121C24.7887 37.1629 25.8863 36.4753 26.6081 36.4949C27.5968 36.5146 29.6337 37.8113 31.196 37.1924V25.4923C30.3456 25.6593 29.3371 25.2271 28.5658 25.3253ZM24.6799 33.8425C22.0893 34.2453 21.4071 29.5397 23.7307 28.852C27.4287 27.7616 27.8836 33.3415 24.6799 33.8425Z" fill="white"/>
<path d="M81.5446 25.3245C80.8623 25.4031 80.0218 26.1006 79.5868 26.0809C79.2605 26.0711 78.2519 25.2557 77.3324 25.1477C69.0069 24.1456 68.4927 37.9775 77.0061 37.1916C77.9454 37.1032 78.9144 36.4744 79.5868 36.4941C80.2295 36.5039 80.7733 37.113 81.4556 37.1818C82.3554 37.28 83.2552 36.8477 84.1846 37.1916V25.4915C83.3244 25.6585 82.3257 25.2263 81.5446 25.3245ZM79.3 33.0754C76.6699 35.8261 73.5157 30.757 76.2447 29.1263C79.1418 27.3875 80.8821 31.425 79.3 33.0754Z" fill="white"/>
<path d="M106.165 25.2266C98.5219 26.1893 99.2141 37.1821 107.233 37.4179C116.34 37.6929 116.547 23.9004 106.165 25.2266ZM107.826 33.842C105.216 34.235 103.891 29.4705 106.897 28.8516C110.358 28.1246 110.377 33.4589 107.826 33.842Z" fill="white"/>
<path d="M38.1867 20.7373V36.642C38.1867 37.4573 33.7668 37.4573 33.7668 36.642V20.7373H38.1867Z" fill="white"/>
<path d="M21.2587 51.0729C23.4241 49.3047 24.314 47.6543 23.7504 44.7661C23.5922 43.9311 22.8408 43.1353 22.7913 42.7817C22.7715 42.6638 24.2448 40.1686 22.554 41.2197C20.7445 42.3494 21.4762 41.3965 19.6173 41.2001C13.0519 40.4928 12.1323 48.9805 16.3741 50.9943C18.0946 51.8097 21.9113 51.0336 22.6529 53.5289C24.1262 58.4702 16.5422 58.981 15.1975 56.1813C14.7229 55.1891 15.5535 54.4425 13.9022 54.7372C13.5265 59.1579 20.0722 60.0518 22.7023 57.812C24.7491 56.083 24.2943 51.5445 21.2587 51.0729ZM18.5099 50.3754C14.0209 50.0513 13.833 43.2139 17.4717 42.3887C24.5909 40.7678 24.2053 50.7782 18.5099 50.3754Z" fill="white"/>
<path d="M10.2141 43.0366C6.80286 39.5787 0.870195 41.0817 0.632888 46.1311C0.375806 51.8289 6.17993 54.1768 10.2141 50.3455C10.1746 51.21 10.1746 52.2808 11.3315 52.1825V41.2094C10.1746 41.1112 10.1746 42.182 10.2141 43.0366ZM5.99207 51.1118C0.464796 51.1118 0.504347 43.3215 4.59789 42.3883C11.5984 40.787 12.4389 51.1118 5.99207 51.1118Z" fill="white"/>
<path d="M140.832 46.1313C140.495 52.0059 146.913 54.2556 150.769 50.1689C149.869 49.0686 148.623 50.7681 147.199 50.9941C144.599 51.4067 141.82 49.9135 141.949 47.0646H151.52C152.549 39.6182 141.237 39.0779 140.832 46.1313ZM141.949 46.3278C141.929 40.9739 150.838 40.6399 150.413 46.3278H141.949Z" fill="white"/>
<path d="M123.459 41.2983C118.149 42.2709 117.932 51.407 124.141 52.1536C132.674 53.1654 132.625 39.6086 123.459 41.2983ZM124.833 51.1122C119.533 51.073 119.346 43.322 123.439 42.3888C130.726 40.7187 131.29 51.1614 124.833 51.1122Z" fill="white"/>
<path d="M62.0063 41.2986C56.1231 42.5069 56.9438 53.7158 65.0716 52.0163C71.5481 50.6508 70.144 39.6187 62.0063 41.2986ZM60.3848 49.8649C55.6188 45.1298 64.5871 38.5381 67.4644 44.4815C69.9364 49.5997 63.7861 53.2344 60.3848 49.8649Z" fill="white"/>
<path d="M38.0878 41.2983C32.788 42.2709 32.5704 51.407 38.7701 52.1536C47.3032 53.1654 47.2637 39.6086 38.0878 41.2983ZM42.8438 49.8646C39.4523 53.2342 33.3021 49.5994 35.7741 44.4812C38.6415 38.5379 47.6097 45.1296 42.8438 49.8646Z" fill="white"/>
<path d="M71.6666 41.2096L72.7741 42.6733C74.4846 40.6988 78.3607 40.6005 80.1405 42.4769C80.3283 42.6733 81.238 44.2059 81.238 44.3139V52.1729H80.1306V44.6774C80.1306 43.7343 78.6177 42.5653 77.6586 42.3885C70.579 41.1114 73.6936 48.4792 72.7147 51.5638C72.5565 52.0452 72.1808 52.2711 71.6765 52.1729V41.2096H71.6666Z" fill="white"/>
<path d="M162.081 47.1626C165.334 50.4044 159.223 53.8132 155.06 51.3966C154.338 50.9742 152.974 49.2157 154.269 49.2648C154.418 49.2648 155.683 50.6598 156.652 50.9152C158.076 51.2885 161.962 51.2001 161.794 49.0684C161.576 46.3374 154.596 47.7618 154.081 44.6673C153.458 40.8655 159.361 40.3154 161.576 41.9953C162.348 42.5847 162.229 43.4099 161.636 43.4001C161.527 43.4001 160.726 42.4865 159.777 42.3293C158.175 42.064 154.843 41.9756 155.189 44.3038C155.535 46.6321 160.676 45.7676 162.09 47.1626H162.081Z" fill="white"/>
<path d="M50.9616 41.2978C52.9787 40.9245 54.8179 41.2978 56.2022 42.8598C55.3221 44.0386 54.6201 42.5258 53.4336 42.3293C46.5418 41.229 46.2551 51.151 52.3558 51.1117C53.1172 51.1117 56.2714 49.4515 56.212 50.5321C56.1824 51.0921 53.9873 51.9959 53.3644 52.0941C45.9189 53.2631 44.4851 42.4865 50.9616 41.2978Z" fill="white"/>
<path d="M113.986 50.1689C114.481 51.9077 117.536 50.5619 117.665 50.719C118.871 52.1631 113.957 53.2634 113.047 50.3752C112.582 48.9016 113.176 42.5948 112.889 42.3099C112.77 42.192 111.139 42.3983 110.674 42.3099V41.2195C113.7 41.5928 112.81 40.8167 112.889 38.292H113.986C114.085 38.8323 113.848 41.0918 113.986 41.2195C114.135 41.3668 117.042 41.1114 117.674 41.2195V42.3099C117.506 42.4867 113.996 42.1331 113.996 42.3099C113.996 44.0291 113.65 48.9409 113.996 50.1689H113.986Z" fill="white"/>
<path d="M26.0444 41.2094C27.488 40.9933 27.1716 41.4059 27.1519 42.6732C27.9923 41.455 32.3232 40.5905 33.0351 41.5827C34.0338 42.9875 30.573 42.2704 30.2863 42.2802C29.0305 42.349 27.1519 43.9699 27.1519 45.0505V52.1826H26.0444V41.2193V41.2094Z" fill="white"/>
<path d="M132.753 41.2094C134.197 40.9933 133.881 41.4059 133.861 42.6732C134.701 41.455 139.032 40.5905 139.744 41.5827C140.743 42.9875 137.282 42.2704 136.995 42.2802C135.74 42.349 133.861 43.9699 133.861 45.0505V52.1826C133.544 52.3397 132.753 51.8682 132.753 51.6324V41.2094Z" fill="white"/>
<path d="M108.469 38.2822H107.362V52.173H108.469V38.2822Z" fill="white"/>
<path d="M51.0606 20.3739C50.3289 23.1737 48.5194 24.5294 45.5432 24.0284C45.3059 20.2462 47.9459 20.089 51.0606 20.3739Z" fill="white"/>
</g>
<defs>
<clipPath id="clip0_786_3397">
<rect width="164" height="80" fill="white"/>
</clipPath>
</defs>
</svg>
