<svg width="164" height="80" viewBox="0 0 164 80" fill="none" xmlns="http://www.w3.org/2000/svg">
<g clip-path="url(#clip0_786_3502)">
<path d="M24.02 37.4996C25.5 37.9596 24.33 44.5196 23.93 45.9596C23.14 48.7496 21.37 51.3896 18.4 52.1396C5.51998 55.3996 -3.51002 44.4396 1.31998 32.3796C5.58998 21.7496 22.53 22.3896 24.25 33.8996C22.78 33.6796 20.44 34.2596 19.14 33.8296C18.16 33.5096 17.81 30.2896 14.58 29.8296C3.02998 28.2096 3.20998 47.4596 12.75 47.8796C16.83 48.0596 18.61 46.3696 19.29 42.4496H13.43V37.4996C16.1 38.0096 21.78 36.8096 24.02 37.4996Z" fill="white"/>
<path d="M61.66 34.3498V26.0198C61.66 25.0298 56.7 25.0298 56.7 26.0198V51.8998C57.51 51.7698 61.49 52.0798 61.66 51.8998C61.85 51.6998 61.33 50.3098 61.88 50.0998C66.3 54.7598 73.1999 52.0298 74.6999 46.2498C77.1699 36.7498 71.11 27.5398 61.66 34.3498ZM68.2699 47.2498C61.9099 52.5598 58.2699 36.8598 65.5999 36.2298C70.5899 35.8098 71.2799 44.7398 68.2699 47.2498Z" fill="white"/>
<path d="M139.86 24L160.37 39.54C160.45 40.46 160 40.77 159.46 41.34C157.85 43.04 143.58 53.96 141.57 54.98C135.97 57.81 142.19 49.55 142.71 48.47C145.2 43.28 145.34 37.31 143.08 32.01C142.36 30.32 139.37 26.43 139.22 25.48C139.1 24.7 139.22 24.46 139.84 24L139.86 24Z" fill="white"/>
<path d="M90.1699 32.2004C85.1199 31.1804 77.7199 32.2704 78.3299 38.8504C79.6299 38.6104 81.9099 39.1804 83.0099 38.8804C83.5299 38.7304 83.0799 36.2304 86.2099 36.1004C87.7799 36.0404 90.1299 36.4604 89.5299 38.5304C88.8799 40.8104 80.5799 39.5204 78.4299 43.2204C74.8699 49.3504 80.6699 53.4604 86.5599 52.2504C87.8399 51.9804 88.7199 50.7904 89.3699 50.5504C89.7099 50.4304 89.5799 51.5904 90.3199 51.8404C91.4999 52.2404 93.6699 51.6904 95.0099 51.9004V37.7204C95.0099 35.5804 92.2799 32.6304 90.1699 32.2004ZM82.8099 46.2604C82.9399 43.4204 87.4599 43.2504 89.5899 42.9004C91.5899 47.8604 82.5899 51.3704 82.8099 46.2604Z" fill="white"/>
<path d="M50.6599 33.6297C46.5499 30.8197 40.0499 31.5197 36.8799 35.4897C30.0799 44.0097 38.4999 56.2797 49.2099 51.3897C55.7099 48.4297 56.2199 37.4297 50.6599 33.6297ZM46.0199 47.7497C40.9199 48.9197 39.5399 44.7097 40.0599 40.4597C40.5699 36.3697 45.3199 34.7197 47.9999 37.6397C50.1599 39.9897 49.7899 46.8897 46.0199 47.7497Z" fill="white"/>
<path d="M115.73 51.8996H110.32V38.1696C110.32 38.0296 109.03 36.7996 108.65 36.6896C106.99 36.1896 103.56 37.2996 103.56 39.0696V51.8996H98.15V32.5496C99.58 32.8096 102.09 32.1996 103.31 32.5196C103.91 32.6796 103.08 34.3196 104.23 33.8996C104.76 33.6996 105.33 32.4796 106.58 32.1996C107.6 31.9696 110.4 31.9396 111.42 32.1296C112.77 32.3796 115.72 35.1896 115.72 36.3796V51.9096L115.73 51.8996Z" fill="white"/>
<path d="M119.34 27.1504L124.24 27.2104C125.01 28.7504 124.01 30.4304 124.3 32.1004H131.74C132.68 32.1004 132.42 35.4004 132.42 36.1504H124.98C123.96 36.1504 124.34 46.0504 124.83 46.8704C124.97 47.1104 127.04 47.8504 127.58 47.7804C129.65 47.4904 129.59 45.0604 130.45 44.7604C131.51 44.3904 133.46 44.8904 134.68 44.7004C135.88 51.9204 126 54.7004 121.38 50.5604C120.9 50.1304 119.36 47.6504 119.36 47.1804V27.1504H119.34Z" fill="white"/>
<path d="M32.36 25.7998H27.4V51.8998H32.36V25.7998Z" fill="white"/>
</g>
<defs>
<clipPath id="clip0_786_3502">
<rect width="164" height="80" fill="white"/>
</clipPath>
</defs>
</svg>
