<svg width="164" height="80" viewBox="0 0 164 80" fill="none" xmlns="http://www.w3.org/2000/svg">
<g clip-path="url(#clip0_752_4488)">
<path d="M18.3068 35.2884C20.7111 33.751 22.1972 35.1686 24.2702 34.929C28.7191 34.4199 27.3466 27.3716 22.4622 28.8691C20.7584 29.3883 20.872 32.8425 17.3223 33.3217C14.6529 33.6811 14.3879 30.6162 14.7192 28.4897C14.8896 27.3616 15.9119 27.5813 16.3568 26.6029C18.6286 21.6312 10.8856 20.3633 10.3271 24.4265C10.0052 26.7127 11.8416 26.8325 12.2013 28.0904C13.7253 33.4914 9.90111 34.5297 6.41769 31.335C5.93493 27.112 -1.51467 28.7393 0.274374 32.8625C2.03502 36.9057 8.61376 32.6927 9.77805 36.3067C11.1979 40.6894 4.37307 39.7909 3.04786 42.4665C0.842323 46.9091 7.89435 48.1769 8.65162 45.2718C8.91666 44.2535 8.71788 43.1353 9.12491 42.147C10.1378 39.711 13.7537 38.7127 16.0066 40.0505C18.9126 41.7876 17.5779 45.5613 19.6698 46.4898C21.4115 47.2685 23.1627 47.0089 24.0714 45.2219C24.7246 43.944 24.876 43.7942 24.0904 42.3666C22.8787 40.1403 21.1844 41.0089 19.6698 40.33C18.1553 39.6511 16.2053 36.6462 18.3068 35.2884ZM17.2087 34.929C16.5366 36.137 16.0539 37.0155 16.2243 38.523C16.4231 38.6129 18.657 41.4581 19.1681 41.6179C21.7902 42.4665 22.4054 39.9806 23.5792 44.1936C23.4278 44.3833 23.3236 44.543 23.2384 44.6728C23.2384 44.6927 23.2195 44.7127 23.2006 44.7327C21.156 47.2984 18.4203 45.1021 19.1681 41.6179C18.3825 42.4665 15.9214 39.4215 16.2243 38.533C15.9308 38.4232 15.4481 38.4232 14.8991 38.4531C14.1323 38.513 13.2615 38.6229 12.6083 38.5729C12.4947 38.5729 12.3906 38.553 12.296 38.533C10.7625 39.0322 8.96399 40.8392 8.16886 42.4665C8.16886 42.4764 8.16886 42.4964 8.14993 42.5064C8.12153 42.6961 8.03634 42.9157 7.88489 43.1653C7.7145 43.7144 8.19726 44.9523 7.42106 45.5114C5.5279 46.8591 2.49884 44.6927 3.91871 42.4864C4.52452 41.548 5.68882 41.8874 6.40822 41.6179H6.41769C6.74899 41.4981 7.26014 41.6678 7.85649 41.3583C8.95453 40.7893 9.97683 38.6029 11.3115 38.0338H11.321V38.0139C11.0654 37.6345 10.7909 35.7876 10.3365 34.939C10.3176 34.929 10.3081 34.919 10.2892 34.9091C10.2703 34.8991 10.2419 34.8891 10.2135 34.8791C9.08705 34.4398 6.39876 33.7809 5.93493 32.8824H5.916C5.56576 33.132 5.23446 33.3217 4.91262 33.4714C4.7517 33.5413 4.60025 33.6012 4.4488 33.6511C4.29734 33.7011 4.15536 33.741 4.01337 33.7709C3.7294 33.8209 3.45489 33.8308 3.21824 33.8109C3.13305 33.8109 3.04786 33.8009 2.97213 33.7709C2.8964 33.751 2.81121 33.731 2.73549 33.7011C2.65976 33.6811 2.5935 33.6511 2.52724 33.6212C2.46098 33.6012 2.39472 33.5613 2.32846 33.5214C2.07288 33.3716 1.85516 33.1719 1.69425 32.9423C1.62799 32.8525 1.57119 32.7626 1.52386 32.6728C1.4576 32.553 1.40081 32.4232 1.36294 32.2934C1.34401 32.2235 1.32508 32.1636 1.30615 32.0937C1.28722 32.0239 1.27775 31.964 1.26828 31.8941C1.24935 31.7843 1.23989 31.6844 1.23989 31.5846C1.23989 31.4748 1.24935 31.3749 1.26828 31.2651C1.26828 31.2052 1.28722 31.1553 1.29668 31.1054C1.30615 31.0455 1.32508 30.9756 1.35348 30.9157C1.37241 30.8458 1.40081 30.7759 1.43867 30.7061C1.5144 30.5463 1.61852 30.4066 1.75104 30.2768C1.79837 30.2269 1.83623 30.1869 1.88356 30.147C1.88356 30.147 1.88356 30.147 1.89303 30.147C1.97822 30.0771 2.07288 30.0172 2.177 29.9673C2.28113 29.9074 2.39472 29.8575 2.51777 29.8175C2.9532 29.6878 3.51168 29.6578 4.19322 29.7876C4.60025 29.8774 4.88422 30.0172 5.08301 30.1869C5.1398 30.2269 5.18713 30.2768 5.21553 30.3267C5.26286 30.3866 5.30072 30.4465 5.33858 30.5064C5.37645 30.5663 5.40484 30.6262 5.43324 30.6961C5.47111 30.766 5.49004 30.8358 5.50897 30.8957C5.5563 31.0255 5.5847 31.1753 5.62256 31.315C5.66042 31.4947 5.69829 31.6645 5.74561 31.8442C5.76455 31.934 5.79294 32.0239 5.82134 32.1137C5.84974 32.2036 5.8876 32.2834 5.92547 32.3633H6.41769C7.23175 33.2219 9.73072 33.6811 10.3365 34.4199C10.772 34.36 11.1601 34.2302 11.4914 34.0505C11.6617 33.9606 11.8132 33.8608 11.9647 33.751C12.1161 33.6412 12.2486 33.5114 12.3717 33.3816C13.6874 31.9939 13.82 29.538 13.2047 27.5413C13.1763 27.4615 13.1289 27.3816 13.0627 27.3017C13.0343 27.2618 12.9964 27.2219 12.9491 27.1819C12.7503 26.9823 12.4569 26.7926 12.1824 26.563C12.012 26.4332 11.8511 26.2934 11.7091 26.1337C11.2263 25.5646 11.037 24.8159 12.0214 23.5879C12.0877 23.5081 12.1445 23.4382 12.2202 23.3683C12.2865 23.2984 12.3433 23.2285 12.4095 23.1686C12.5042 23.0688 12.5989 22.9889 12.6935 22.919C12.8828 22.7793 13.0722 22.6894 13.2615 22.6395C13.3561 22.6095 13.4413 22.5996 13.536 22.5996C13.9146 22.5996 14.2838 22.7992 14.6719 23.1886C14.7287 23.2385 14.7855 23.3084 14.8423 23.3683C14.9085 23.4382 14.9653 23.5081 15.0316 23.5879C16.1485 24.9956 15.8551 25.7543 15.2682 26.4032C15.0221 26.6728 14.7192 26.9224 14.4636 27.1919C14.1986 27.4615 13.9714 27.751 13.8767 28.0904C13.2804 30.167 13.5928 31.934 14.7476 33.1021C14.8233 33.1719 14.8896 33.2418 14.9748 33.3217H14.9842C15.06 33.3916 15.1452 33.4615 15.2304 33.5313C15.325 33.6012 15.4102 33.6611 15.5143 33.721C15.7983 33.9107 16.1201 34.0704 16.4704 34.2002C16.584 34.2402 16.707 34.2801 16.8301 34.32C16.9531 34.36 17.0762 34.3999 17.2087 34.4298C18.2216 33.1919 20.1715 33.2718 21.1276 32.3633H21.137C21.6766 31.8342 21.7807 30.9257 22.2729 30.3367C22.3203 30.2868 22.3581 30.2368 22.4054 30.1969C22.5569 30.0571 22.7368 29.9573 22.945 29.8774C23.778 29.6079 24.469 29.6977 24.9896 30.0072C25.0559 30.0472 25.1127 30.0871 25.1695 30.127C25.2263 30.167 25.2736 30.2069 25.3304 30.2668C25.3872 30.3167 25.4345 30.3666 25.4818 30.4165C26.1918 31.2052 26.277 32.4931 25.5197 33.2718C25.1695 33.6611 24.611 33.9207 23.8253 33.9506C23.4467 33.9706 23.0681 33.8209 22.7651 33.6711C22.4717 33.5413 22.2445 33.4016 22.112 33.4016H22.1025H22.0836C20.1999 33.4016 18.922 34.2501 17.2276 34.939C17.2182 34.939 17.2182 34.949 17.2087 34.949V34.929ZM38.7908 45.741C38.7908 45.741 38.7718 45.751 38.7624 45.7709C38.7529 45.7909 38.7434 45.8209 38.7245 45.8508C38.6961 45.9407 38.6583 46.1004 38.6109 46.2801C38.6109 46.34 38.5825 46.4099 38.5731 46.4798C38.5636 46.4798 38.5636 46.4997 38.5636 46.5097C38.5447 46.6395 38.5163 46.7793 38.4879 46.929C38.4879 47.0089 38.4689 47.0888 38.45 47.1686C38.4405 47.2485 38.4216 47.3383 38.4121 47.4182C38.4027 47.5081 38.3932 47.5879 38.3837 47.6778C38.3648 47.7776 38.3553 47.8774 38.3459 47.9673C38.3364 48.0671 38.3269 48.157 38.3175 48.2468C38.308 48.3666 38.2985 48.4764 38.2891 48.5763C38.2796 48.6561 38.2796 48.736 38.2796 48.8059C38.2702 49.0355 38.2702 49.2252 38.2985 49.325L45.1707 49.335C45.0855 49.4947 44.9909 49.6545 44.8868 49.8042C44.7069 50.0838 44.5081 50.3633 44.2904 50.6229C44.2431 50.6828 44.1863 50.7526 44.1295 50.8125C44.0159 50.9523 43.8928 51.0821 43.7603 51.2119C43.6373 51.3417 43.5047 51.4714 43.3722 51.5813C43.2397 51.7011 43.1072 51.8209 42.9652 51.9307C42.8232 52.0405 42.6812 52.1503 42.5392 52.2402C42.4162 52.33 42.2742 52.4199 42.1417 52.4997C41.8672 52.6695 41.5927 52.8192 41.3087 52.949C41.1478 53.0289 40.9963 53.0888 40.8354 53.1487C40.5135 53.2685 40.1822 53.3683 39.8509 53.4482C39.0369 53.6378 38.2039 53.6778 37.3804 53.548C37.0585 53.4981 36.7462 53.4282 36.4338 53.3284C36.2823 53.2884 36.1214 53.2285 35.97 53.1586C35.8185 53.1087 35.6671 53.0388 35.5156 52.959C35.5156 52.959 35.5156 52.949 35.5061 52.949C35.2032 52.7992 34.9098 52.6295 34.6258 52.4199C34.4933 52.32 34.3608 52.2302 34.2377 52.1104C34.1147 52.0205 33.9916 51.9207 33.878 51.8009C33.7171 51.6511 33.5656 51.5014 33.4331 51.3516C33.2911 51.2019 33.1586 51.0422 33.0356 50.8824C32.9693 50.7926 32.903 50.7027 32.8368 50.6129C32.7327 50.4631 32.6285 50.3134 32.5433 50.1536C32.4581 50.0139 32.3824 49.8741 32.3162 49.7343C32.2594 49.6345 32.212 49.5347 32.1647 49.4249C32.1268 49.325 32.0795 49.2152 32.0416 49.1154C31.9186 48.7959 31.8239 48.4764 31.7482 48.147C31.7482 48.137 31.7482 48.127 31.7482 48.117C31.6819 47.7976 31.6346 47.4681 31.6062 47.1487C31.5968 47.0388 31.5873 46.919 31.5778 46.7992C31.5589 46.4099 31.5778 46.0205 31.6157 45.6212C31.6346 45.4814 31.6535 45.3417 31.6725 45.2019C31.6914 45.0721 31.7198 44.9323 31.7482 44.7926C31.7861 44.6129 31.8334 44.4332 31.8807 44.2535C31.8902 44.2036 31.8997 44.1536 31.9186 44.1137C31.9754 43.924 32.0322 43.7443 32.0984 43.5646C32.1458 43.4448 32.1836 43.335 32.231 43.2152C32.4203 42.756 32.638 42.3167 32.8936 41.8974C33.0072 41.7177 33.1208 41.548 33.2438 41.3783C33.3763 41.1786 33.5183 40.9989 33.6698 40.8192C33.8118 40.6395 33.9632 40.4698 34.1241 40.3101C34.1525 40.2801 34.1904 40.2501 34.2188 40.2102C34.4365 39.9906 34.6637 39.7809 34.9003 39.6012C34.976 39.5413 35.0518 39.4814 35.1275 39.4215C35.2695 39.3117 35.4209 39.2119 35.5724 39.112C35.6576 39.0721 35.7239 39.0122 35.809 38.9623C35.9416 38.8824 36.0835 38.8026 36.2255 38.7327C36.3959 38.6428 36.5758 38.563 36.7556 38.4831C36.803 38.4531 36.8503 38.4332 36.9071 38.4232C37.0301 38.3733 37.1437 38.3333 37.2668 38.2934C37.3898 38.2535 37.5129 38.2135 37.6359 38.1736C37.8158 38.1237 38.0051 38.0838 38.1944 38.0438C38.2891 38.0338 38.3837 38.0139 38.4784 37.9939C38.5731 37.9739 38.6677 37.964 38.7718 37.954C39.9077 37.8342 41.1194 37.9739 42.3783 38.4432C42.7002 38.553 43.022 38.7027 43.3438 38.8724C43.4669 38.9323 43.5899 39.0022 43.7225 39.0721C43.8739 39.162 44.0159 39.2518 44.1674 39.3417C44.2052 39.3616 44.2336 39.3916 44.2715 39.4115C44.3472 39.4615 44.4229 39.5413 44.5081 39.6212C44.546 39.6611 44.5933 39.711 44.6312 39.751C44.8773 40.0105 45.1423 40.32 45.36 40.5796C45.3979 40.6096 45.4358 40.6495 45.4736 40.6994C45.6251 40.8492 45.7481 40.959 45.8428 40.9989C45.8617 41.0189 45.8901 41.0289 45.9091 41.0289C45.9091 41.0289 45.9154 41.0255 45.928 41.0189C46.1362 40.949 47.3857 40.1104 48.2566 39.4814C48.3228 39.4315 48.3891 39.3916 48.4459 39.3417C48.5216 39.2818 48.5879 39.2219 48.6542 39.1819C48.7109 39.132 48.7677 39.0921 48.8056 39.0521H48.8151C48.8719 39.0022 48.9192 38.9623 48.9665 38.9224C49.0517 38.8525 49.099 38.7926 49.1085 38.7726C49.118 38.7427 49.118 38.7027 49.118 38.6728C49.118 38.6328 49.1085 38.5829 49.099 38.543C49.099 38.513 49.0896 38.4831 49.0801 38.4531C49.0706 38.4132 49.0517 38.3733 49.0328 38.3333C49.0044 38.2734 48.976 38.2235 48.9381 38.1636C48.9287 38.1337 48.9097 38.1137 48.8908 38.0937C48.8624 38.0438 48.834 38.0039 48.8056 37.964C48.7772 37.914 48.7393 37.8741 48.7015 37.8342C48.6636 37.7942 48.6258 37.7443 48.5784 37.7044C48.5406 37.6445 48.5027 37.6046 48.4554 37.5646L48.3134 37.4149C48.3134 37.4149 48.2755 37.3749 48.2566 37.365C48.1146 37.2252 47.9631 37.0954 47.8022 36.9556C47.4236 36.6362 47.0166 36.3267 46.6095 36.0372C46.4959 35.9573 46.3729 35.8675 46.2593 35.7976C46.1457 35.7277 46.0321 35.6478 45.9185 35.5779C45.5872 35.3583 45.2938 35.1886 45.0761 35.0788C45.0003 35.0488 44.9341 35.0189 44.8773 34.9889C42.6718 33.9906 40.2674 33.731 37.9767 34.0904C37.352 34.1902 36.7367 34.33 36.1403 34.5097C35.9132 34.5696 35.686 34.6495 35.4683 34.7393C35.0707 34.8891 34.6731 35.0488 34.285 35.2385C34.0863 35.3383 33.8969 35.4282 33.7076 35.538C33.5183 35.6378 33.329 35.7477 33.1491 35.8575C33.1397 35.8575 33.1302 35.8675 33.1208 35.8774C32.7516 36.1071 32.4013 36.3566 32.0511 36.6162C31.8807 36.746 31.7198 36.8858 31.5494 37.0255C31.379 37.1653 31.2276 37.3051 31.0667 37.4648C30.9152 37.6145 30.7638 37.7643 30.6123 37.924C30.4135 38.1437 30.2147 38.3633 30.0254 38.5929C29.874 38.7926 29.7225 38.9922 29.5711 39.1919C29.5143 39.2718 29.4575 39.3516 29.4102 39.4315C29.2682 39.6511 29.1262 39.8808 28.9937 40.1104C28.9179 40.2302 28.8517 40.36 28.7854 40.4898C28.7191 40.6096 28.6529 40.7493 28.5961 40.8791C28.5298 41.0089 28.4636 41.1487 28.4068 41.2984C28.35 41.4382 28.2932 41.5879 28.2364 41.7277C28.1796 41.8575 28.1323 41.9873 28.0944 42.127C28.0471 42.2568 28.0092 42.3866 27.9713 42.5264C27.8388 42.9656 27.7347 43.4249 27.659 43.8941C27.6211 44.0937 27.5927 44.2934 27.5738 44.4931C27.4981 45.152 27.4697 45.7809 27.4697 46.3799C27.4697 46.6096 27.4791 46.8392 27.4886 47.0588C27.4886 47.2585 27.5075 47.4581 27.5265 47.6478C27.5265 47.7277 27.5359 47.8076 27.5454 47.8874C27.5738 48.127 27.6022 48.3566 27.64 48.5962C27.6874 48.9457 27.7631 49.2751 27.8388 49.5946C27.8862 49.7942 27.9429 49.9839 27.9997 50.1736C28.0281 50.2934 28.066 50.4132 28.1133 50.523C28.1512 50.6428 28.1985 50.7526 28.2364 50.8724C28.4636 51.5114 28.757 52.0904 29.0883 52.6295C29.1546 52.7493 29.2303 52.8591 29.306 52.969C29.448 53.1986 29.5995 53.4182 29.7699 53.6179C29.9308 53.8275 30.1012 54.0272 30.281 54.2169C30.4609 54.4066 30.6407 54.5863 30.83 54.766C31.0856 54.9956 31.3506 55.2152 31.6252 55.4249C32.1174 55.7942 32.6569 56.1237 33.2154 56.3932C33.3006 56.4332 33.3858 56.4731 33.471 56.513C34.02 56.7726 34.5974 56.9823 35.1843 57.142C35.2695 57.1719 35.3547 57.1919 35.4399 57.2119C35.6197 57.2618 35.7996 57.3017 35.9794 57.3317C36.1309 57.3616 36.2823 57.3916 36.4433 57.4115C36.7272 57.4615 37.0017 57.4914 37.2857 57.5214C37.8063 57.5713 38.327 57.5813 38.8476 57.5513C39.1978 57.5313 39.5575 57.5014 39.9077 57.4615C41.3181 57.2818 42.7096 56.8525 43.978 56.1636C45.1518 55.5447 46.2309 54.7061 47.1396 53.6678C47.2627 53.528 47.3857 53.3783 47.4993 53.2285C47.6129 53.0888 47.717 52.949 47.8212 52.7992C48.2093 52.2701 48.5595 51.6811 48.8435 51.0521C48.9381 50.8724 49.0233 50.6828 49.099 50.4831C49.1464 50.3733 49.1842 50.2734 49.2221 50.1636C49.2789 50.0239 49.3262 49.8941 49.3736 49.7443C49.4493 49.5447 49.5061 49.345 49.5629 49.1353C49.6197 48.9457 49.667 48.756 49.7143 48.5563C49.7617 48.3666 49.7995 48.1769 49.8374 47.9773C49.8847 47.7177 49.9226 47.4581 49.9604 47.1886C49.9888 47.0089 50.0078 46.8292 50.0172 46.6395C50.0267 46.5796 50.0362 46.5197 50.0362 46.4598C50.0646 46.2202 50.074 45.9806 50.0835 45.741H38.8002H38.7908ZM59.3979 40.4498C59.3127 40.4997 59.2369 40.5497 59.1612 40.5996C59.0003 40.7094 58.8488 40.8392 58.6974 40.969C58.6217 41.0388 58.5459 41.1087 58.4702 41.1886C58.243 41.4082 58.0348 41.6578 57.8076 41.9473C57.7792 41.9873 57.7413 42.0372 57.694 42.0771C57.7129 41.9972 57.7319 41.9274 57.7413 41.8675C57.7603 41.7177 57.7603 41.5879 57.7319 41.4681C57.7129 41.3883 57.6845 41.3184 57.6467 41.2485C57.6277 41.2185 57.6088 41.1886 57.5899 41.1586C57.5804 41.1287 57.552 41.0987 57.5236 41.0688C57.4574 40.9889 57.3722 40.919 57.268 40.8591C56.9841 40.6794 56.6054 40.5696 56.2079 40.4997C55.2234 40.34 54.1159 40.4798 54.0023 40.5996C53.9834 40.6096 53.9834 40.6195 53.9739 40.6395C53.9645 40.6595 53.955 40.6794 53.9455 40.6994C53.9361 40.7094 53.9361 40.7194 53.9266 40.7393C53.9266 40.7693 53.9077 40.8092 53.8982 40.8492C53.8793 40.909 53.8603 40.969 53.8509 41.0388C53.8414 41.0888 53.8225 41.1387 53.8225 41.1886C53.8036 41.2585 53.7941 41.3383 53.7752 41.4182C53.7373 41.6478 53.6994 41.9074 53.6521 42.1969C53.6048 42.5363 53.5574 42.9157 53.5101 43.325C53.4817 43.5347 53.4533 43.7443 53.4344 43.964C53.3776 44.4531 53.3208 44.9723 53.264 45.5114C53.2167 45.9506 53.1693 46.3999 53.122 46.8591C53.1031 47.1087 53.0747 47.3583 53.0463 47.6079C53.0084 48.0771 52.9611 48.5463 52.9138 49.0155C52.7907 50.3234 52.6677 51.6212 52.5446 52.7992C52.5257 52.9989 52.5067 53.1886 52.4878 53.3783C52.4689 53.568 52.4499 53.7477 52.431 53.9274C52.4121 54.127 52.3932 54.3167 52.3742 54.4964C52.3553 54.716 52.3269 54.9257 52.308 55.1154C52.289 55.3051 52.2606 55.4947 52.2417 55.6645C52.2228 55.8342 52.2038 56.0039 52.1754 56.1536C52.1565 56.3034 52.1376 56.4432 52.1186 56.563C52.0997 56.6628 52.0902 56.7526 52.0713 56.8325C52.0618 56.9124 52.0429 56.9823 52.0334 57.0422C52.3742 56.9922 53.2167 57.0322 54.0307 57.0621C54.9584 57.112 55.8576 57.152 55.9523 57.0521C55.9996 56.9922 56.0375 56.9024 56.0754 56.7826C56.0848 56.7526 56.0943 56.7327 56.1037 56.6927C56.1132 56.6728 56.1132 56.6528 56.1132 56.6328C56.1321 56.5829 56.1416 56.533 56.1511 56.4731C56.17 56.4032 56.1795 56.3234 56.1889 56.2435C56.2173 56.0838 56.2363 55.914 56.2647 55.7144C56.4161 54.4066 56.5108 52.36 56.7758 50.3234C56.8137 50.0638 56.8421 49.8042 56.8894 49.5347C56.9746 48.9756 57.0693 48.4165 57.1923 47.8974C57.2491 47.6478 57.3154 47.3883 57.3816 47.1487C57.4479 46.8991 57.5236 46.6595 57.6088 46.4199C57.6656 46.2701 57.7224 46.1304 57.7792 45.9906C57.9117 45.6611 58.0632 45.3616 58.2336 45.0921C58.3093 44.9723 58.3945 44.8625 58.4797 44.7526C58.4797 44.7526 58.4702 44.7427 58.4797 44.7427C58.527 44.6828 58.5838 44.6229 58.6311 44.563C58.6784 44.5031 58.7258 44.4531 58.7826 44.4032C58.8299 44.3533 58.8867 44.3134 58.9435 44.2734C59.0003 44.2335 59.0571 44.1936 59.1139 44.1536C59.2085 44.0937 59.3127 44.0438 59.4168 43.9939C59.5966 43.914 59.7954 43.8541 59.9847 43.8242C60.0605 43.8142 60.1456 43.8042 60.2214 43.7843L60.4202 43.7543C60.477 43.7443 60.5432 43.7443 60.6 43.7343C60.8556 43.7044 61.0733 43.6744 61.1964 43.6145C61.2153 43.6145 61.2342 43.5946 61.2531 43.5846C61.3857 43.4548 62.1524 40.6794 62.3228 40.0804C61.0828 39.8708 60.174 39.9906 59.3884 40.4498H59.3979ZM77.0516 42.137C75.6317 42.0771 75.2247 40.5397 73.767 40.1902C66.6392 38.4831 60.5053 46.4099 63.7048 53.3084C65.5601 57.3017 71.41 59.2185 74.3633 55.5147L74.5999 57.0521C75.6507 56.9224 78.2253 57.4715 78.8028 56.5729L80.9799 40.5996C79.1435 40.8691 76.4836 39.5413 77.0516 42.137ZM72.366 53.4282C65.0205 54.6162 65.7115 44.7127 71.0503 43.7942C77.9319 42.6062 77.2125 52.6395 72.366 53.4282ZM93.0488 35.7477C93.0299 35.6578 93.0015 35.558 92.9731 35.4681C92.9447 35.3683 92.8974 35.2784 92.8406 35.1786C92.7364 34.9889 92.6039 34.7992 92.443 34.6295C92.3767 34.5596 92.301 34.4897 92.2253 34.4199C92.178 34.3799 92.1212 34.33 92.0549 34.2901C91.9981 34.2402 91.9318 34.2002 91.8751 34.1603C91.8088 34.1204 91.7425 34.0704 91.6763 34.0305C91.61 33.9806 91.5437 33.9407 91.468 33.9107C91.1462 33.741 90.777 33.6112 90.3984 33.5313C89.2341 33.2818 87.8899 33.5214 86.8392 34.6495C86.6783 34.8092 86.5553 34.9889 86.4417 35.1786C86.4038 35.2485 86.366 35.3184 86.3281 35.3883C86.2808 35.4781 86.2334 35.568 86.205 35.6578C86.1482 35.7776 86.1009 35.9074 86.0536 36.0372C85.9779 36.2568 85.9211 36.4665 85.8737 36.6861C85.8359 36.8558 85.798 37.0355 85.7601 37.2152C85.7223 37.4049 85.6939 37.5946 85.6749 37.7743C85.6466 37.964 85.6181 38.1437 85.5992 38.3234C85.5898 38.3533 85.5803 38.3833 85.5898 38.4132C85.5614 38.553 85.5424 38.6927 85.5235 38.8325C85.4951 38.9922 85.4762 39.142 85.4478 39.2818C85.4288 39.3916 85.4004 39.5014 85.372 39.6012C85.3152 39.8009 85.249 39.9606 85.1638 40.0904C85.0975 40.1903 85.0029 40.2601 84.8988 40.3101C84.8514 40.34 84.7946 40.36 84.7284 40.3799C84.6716 40.3999 84.6148 40.4199 84.558 40.4298C84.4823 40.4498 84.3876 40.4698 84.3024 40.4798C84.2456 40.4897 84.1888 40.4997 84.1415 40.5197C84.0752 40.5397 84.009 40.5596 83.9427 40.5796C83.8859 40.5996 83.8196 40.6195 83.7628 40.6495C83.6966 40.6794 83.6398 40.7194 83.5925 40.7593C83.5641 40.7893 83.5357 40.8192 83.5073 40.8492C83.4694 40.8791 83.441 40.9091 83.4221 40.949C83.0151 41.6079 82.8636 42.1071 82.8636 42.5064C82.8636 42.5863 82.8731 42.6661 82.8825 42.736C82.9109 42.9157 82.9677 43.0754 83.0529 43.2052C83.1002 43.2751 83.1476 43.345 83.2044 43.4049C83.2612 43.4648 83.318 43.5247 83.3748 43.5746C83.4315 43.6245 83.4789 43.6645 83.5357 43.7044C83.6019 43.7543 83.6777 43.8042 83.7439 43.8541C83.8102 43.8941 83.867 43.934 83.9238 43.9739C83.9806 44.0139 84.0374 44.0438 84.0847 44.0838C84.1131 44.1037 84.1509 44.1237 84.1794 44.1536C84.2267 44.1936 84.274 44.2335 84.3024 44.2834C85.107 45.6511 82.7311 54.736 82.9393 57.0422C83.8102 56.9523 85.5424 57.3117 86.5458 56.9324C86.6405 56.9024 86.7256 56.8625 86.8014 56.8125C86.8771 56.7726 86.9528 56.7227 87.0096 56.6628C87.1421 56.543 87.2368 56.3932 87.2936 56.2036C87.2936 56.0239 87.3125 55.7244 87.3504 55.335C87.3504 55.2651 87.3504 55.1853 87.3693 55.0954C87.3788 54.9257 87.3977 54.746 87.4167 54.5563C87.4356 54.3267 87.4545 54.0771 87.4829 53.8076C87.6249 52.3999 87.8237 50.6129 88.0319 48.9656C88.0603 48.736 88.0887 48.4964 88.1171 48.2668C88.1834 47.7477 88.2591 47.2585 88.3254 46.8092C88.3538 46.6195 88.3822 46.4299 88.4106 46.2502C88.439 46.0804 88.4674 45.9107 88.4958 45.751C88.5147 45.6212 88.5336 45.4914 88.562 45.3716C88.5999 45.1719 88.6377 44.9922 88.6661 44.8425C88.704 44.6927 88.7324 44.563 88.7703 44.4631C88.8081 44.3433 88.846 44.2734 88.8744 44.2435C89.1584 44.0039 89.6601 44.1037 90.1712 44.1037C90.4363 44.1037 90.6918 44.0838 90.9285 43.9739C91.0231 43.934 91.1083 43.8741 91.1841 43.8042C91.2976 43.7044 91.4018 43.5746 91.487 43.4049C91.5154 43.365 91.5343 43.315 91.5532 43.2651C91.5816 43.2152 91.6005 43.1553 91.6195 43.0854C91.6573 42.9856 91.6857 42.8758 91.7047 42.756C91.7141 42.6861 91.7331 42.6162 91.7425 42.5363C91.7615 42.3966 91.7804 42.2468 91.7899 42.0771C91.7993 41.9972 91.7993 41.9074 91.7993 41.8175C91.8183 41.4681 91.8088 41.0688 91.7709 40.5996H89.3193V40.5796C89.272 40.1304 89.2625 39.751 89.2814 39.4215C89.2814 39.3317 89.2909 39.2318 89.3004 39.152C89.3004 39.0821 89.3004 39.0122 89.3193 38.9523L89.3477 38.7726C89.3666 38.7027 89.3761 38.6428 89.395 38.5829C89.4045 38.513 89.4234 38.4432 89.4518 38.3833C89.5181 38.1736 89.6127 38.0039 89.7074 37.8741C89.7547 37.8242 89.802 37.7743 89.8399 37.7343C89.8872 37.6944 89.9346 37.6545 89.9914 37.6145C90.0387 37.5846 90.0955 37.5546 90.1523 37.5247C90.1996 37.4947 90.2564 37.4748 90.3132 37.4548C90.4268 37.4149 90.5498 37.3949 90.6634 37.3749C91.3071 37.2951 91.9792 37.4947 92.2726 37.2951C92.4146 37.1952 92.5377 37.0954 92.6323 36.9856C92.8595 36.746 92.992 36.4964 93.0394 36.2368C93.0583 36.157 93.0677 36.0671 93.0677 35.9773C93.0677 35.8974 93.0583 35.8175 93.0488 35.7477ZM98.9933 40.2002C90.2659 42.0771 89.2436 57.5613 99.8642 57.5613C112.435 57.5613 112.7 37.2352 98.9933 40.2002ZM98.1225 53.2285C94.4782 51.9806 96.2483 44.6428 99.9778 43.7843C107.787 41.9673 106.651 56.1337 98.1225 53.2285ZM119.326 50.1936L119.222 50.0838C119.222 50.0838 119.156 50.0039 119.118 49.9839C118.834 49.7244 118.455 49.4249 118.029 49.0854C117.963 49.0355 117.906 48.9856 117.84 48.9457C117.527 48.716 117.206 48.4665 116.903 48.2169C116.467 47.8675 116.051 47.518 115.748 47.1986C115.701 47.1487 115.653 47.0987 115.615 47.0588C115.521 46.949 115.454 46.8591 115.398 46.7693C115.322 46.6695 115.265 46.5696 115.237 46.4798C115.208 46.4299 115.189 46.3799 115.18 46.33C115.161 46.2601 115.151 46.2002 115.151 46.1403C115.151 46.1004 115.151 46.0704 115.151 46.0305C115.17 45.9606 115.199 45.8908 115.237 45.8309C115.246 45.8009 115.275 45.771 115.312 45.741C115.369 45.6811 115.426 45.6312 115.483 45.5912C115.521 45.5613 115.568 45.5313 115.625 45.5114C115.672 45.4914 115.71 45.4714 115.757 45.4615C115.805 45.4515 115.852 45.4415 115.899 45.4315C116.051 45.4115 116.212 45.4315 116.373 45.4615C116.392 45.4615 116.42 45.4714 116.439 45.4714C116.505 45.4914 116.562 45.5114 116.628 45.5313C116.704 45.5613 116.789 45.5912 116.865 45.6312C117.111 45.741 117.348 45.9007 117.565 46.0704C117.688 46.1503 117.802 46.2402 117.916 46.34C118.266 46.6295 118.569 46.919 118.758 47.0987C118.872 47.2086 118.957 47.2685 118.985 47.2685C118.985 47.2685 119.014 47.2585 119.032 47.2385C119.165 47.1287 119.477 46.7194 119.799 46.2402C119.847 46.1703 119.894 46.1004 119.932 46.0305C120.329 45.4215 120.689 44.7526 120.651 44.513C120.594 44.1437 120.424 43.8042 120.159 43.5147C120.112 43.4648 120.055 43.4049 120.007 43.355C119.951 43.3051 119.894 43.2551 119.837 43.2052C119.714 43.1054 119.581 43.0155 119.449 42.9257H119.44C119.335 42.8558 119.231 42.7959 119.118 42.746C118.995 42.6861 118.872 42.6262 118.748 42.5863C118.625 42.5363 118.502 42.4864 118.37 42.4465C118.237 42.4066 118.105 42.3666 117.972 42.3367C117.613 42.2568 117.225 42.1869 116.836 42.157C116.278 42.117 115.701 42.137 115.142 42.2169C114.423 42.3267 113.732 42.5463 113.154 42.8858C113.012 42.9656 112.88 43.0555 112.747 43.1553C112.738 43.1553 112.728 43.1653 112.719 43.1753C112.596 43.2751 112.473 43.3849 112.359 43.4947C112.255 43.5946 112.16 43.7044 112.075 43.8242C111.952 43.9839 111.848 44.1536 111.763 44.3333C111.744 44.3633 111.734 44.3833 111.725 44.4132C111.621 44.6229 111.545 44.8525 111.498 45.0921C111.412 45.5114 111.384 45.9207 111.422 46.2901C111.422 46.3999 111.441 46.4997 111.46 46.6096C111.469 46.7194 111.488 46.8292 111.517 46.929C111.536 47.0289 111.564 47.1387 111.602 47.2385C111.64 47.3683 111.687 47.4981 111.744 47.6179C111.772 47.6878 111.801 47.7576 111.838 47.8275C112.075 48.3067 112.387 48.746 112.747 49.1553C112.955 49.3949 113.183 49.6245 113.41 49.8442C113.656 50.0738 113.911 50.3034 114.177 50.513C114.337 50.6428 114.489 50.7726 114.64 50.8924C114.792 51.0122 114.943 51.132 115.095 51.2618C115.17 51.3117 115.237 51.3716 115.312 51.4315C115.492 51.5713 115.672 51.721 115.833 51.8608C115.852 51.8708 115.861 51.8808 115.88 51.9007C115.966 51.9806 116.051 52.0505 116.136 52.1304C116.231 52.2102 116.325 52.3001 116.401 52.3899C116.458 52.4498 116.505 52.4997 116.552 52.5596C116.59 52.5996 116.619 52.6495 116.647 52.6894C116.751 52.8292 116.836 52.969 116.884 53.0987C116.988 53.3783 116.969 53.6578 116.78 53.9473C116.713 54.0571 115.085 54.4565 114.678 54.3966C113.921 54.2868 113.419 53.8076 113.003 53.3683C112.955 53.2984 112.908 53.2485 112.851 53.1986C112.804 53.1487 112.757 53.0987 112.709 53.0488C112.662 52.9989 112.615 52.949 112.567 52.8991C112.17 52.4997 111.82 52.3001 111.318 52.8192C111.28 52.8591 111.242 52.8991 111.204 52.939C111.138 53.0189 111.072 53.0987 111.005 53.1986C110.987 53.2285 110.968 53.2485 110.949 53.2784C110.665 53.6977 110.333 54.3167 109.936 55.1853C110.163 55.5247 110.419 55.8342 110.693 56.1037C110.826 56.2435 110.968 56.3733 111.119 56.4931C111.261 56.6129 111.412 56.7227 111.564 56.8225C112.189 57.2318 112.861 57.5014 113.552 57.6611C114.356 57.8508 115.189 57.8708 115.984 57.731C116.325 57.6711 116.657 57.5912 116.978 57.4914C117.139 57.4415 117.3 57.3816 117.452 57.3117C117.613 57.2518 117.755 57.1819 117.906 57.1021C117.991 57.0621 118.086 57.0122 118.171 56.9523C118.218 56.9323 118.256 56.9024 118.304 56.8724C118.436 56.7926 118.559 56.7027 118.682 56.6129C118.786 56.533 118.9 56.4531 118.995 56.3533C119.07 56.2934 119.137 56.2235 119.203 56.1536C119.335 56.0338 119.449 55.8941 119.553 55.7543C119.619 55.6844 119.676 55.6046 119.723 55.5247C119.903 55.2751 120.045 55.0056 120.149 54.726C120.206 54.5863 120.244 54.4365 120.282 54.2868C120.32 54.1769 120.339 54.0571 120.358 53.9274C120.367 53.9174 120.367 53.9074 120.358 53.8974C120.367 53.8475 120.377 53.7976 120.377 53.7477C120.49 52.7493 120.225 51.6112 119.458 50.3733C119.421 50.3134 119.373 50.2535 119.316 50.1936H119.326ZM129.407 42.2568C119.335 44.4631 122.241 62.543 134.083 56.9224C142.356 52.9889 139.545 40.0305 129.407 42.2568ZM127.116 49.1154C127.646 45.6112 132.398 44.4831 134.329 46.3899C139.838 51.8408 125.507 59.8275 127.116 49.1154ZM156.839 42.6561C156.839 42.6561 156.782 42.5863 156.754 42.5663C156.735 42.5463 156.716 42.5264 156.697 42.5164C156.669 42.4964 156.65 42.4764 156.631 42.4764C156.451 42.3766 156.252 42.3766 156.044 42.3966C155.996 42.3966 155.949 42.4066 155.892 42.4165C155.684 42.4465 155.485 42.4964 155.324 42.4964C155.22 42.4964 155.135 42.4964 155.059 42.4265C154.993 42.3666 154.936 42.3067 154.889 42.2269C154.785 42.0871 154.728 41.9074 154.709 41.6977C154.681 41.4981 154.681 41.2784 154.709 41.0289C154.719 40.939 154.728 40.8492 154.738 40.7493C154.756 40.5896 154.785 40.4099 154.813 40.2402C154.88 39.8109 154.965 39.3616 155.04 38.9224C155.078 38.7027 155.107 38.4931 155.126 38.2834C155.135 38.1936 155.145 38.1137 155.154 38.0338C155.173 37.6445 155.163 37.2851 155.059 36.9956C154.747 37.0555 154.018 37.0155 153.318 36.9756C152.504 36.9357 151.718 36.8957 151.623 36.9956C151.614 36.9956 151.604 37.0155 151.604 37.0455C151.604 37.0555 151.604 37.0655 151.604 37.0854C151.595 37.1254 151.585 37.1853 151.576 37.2452C151.566 37.2851 151.566 37.315 151.566 37.365C151.557 37.4049 151.557 37.4448 151.557 37.4947C151.557 37.5247 151.557 37.5646 151.557 37.6046C151.557 37.6744 151.548 37.7443 151.538 37.8142C151.491 38.7227 151.424 40.2002 151.178 41.2485C151.15 41.3783 151.112 41.4981 151.074 41.6179C151.046 41.7377 150.999 41.8475 150.951 41.9473C150.932 41.9972 150.913 42.0472 150.885 42.0871C150.828 42.1869 150.762 42.2768 150.696 42.3467L150.648 42.3966C150.525 42.4964 150.402 42.5563 150.289 42.5863C149.929 42.6961 149.645 42.5563 149.465 42.6761C149.437 42.6761 149.418 42.7061 149.399 42.726C149.37 42.746 149.361 42.756 149.361 42.7759C149.333 42.8159 149.314 42.8558 149.295 42.9057C149.276 42.9656 149.257 43.0355 149.247 43.1154C149.238 43.1453 149.228 43.1952 149.228 43.2352C149.219 43.325 149.209 43.4348 149.2 43.5646C149.2 43.7343 149.2 43.944 149.2 44.1836C149.143 43.914 149.068 43.6944 148.982 43.5147C148.944 43.4249 148.907 43.355 148.859 43.2851C148.765 43.1254 148.66 43.0155 148.547 42.9357C148.433 42.8458 148.32 42.7859 148.197 42.736C148.13 42.7061 148.055 42.6761 147.979 42.6661C147.856 42.6262 147.723 42.5962 147.591 42.5563C147.487 42.5363 147.373 42.5064 147.269 42.4665C147.165 42.4365 147.051 42.3966 146.938 42.3467C146.862 42.3267 146.786 42.2868 146.711 42.2269C146.635 42.1969 146.569 42.147 146.493 42.0771C146.417 42.0272 146.341 41.9573 146.266 41.8874C146.275 41.7277 146.294 41.5779 146.322 41.4482C146.351 41.3084 146.379 41.1886 146.417 41.0688C146.436 40.9889 146.464 40.919 146.493 40.8492C146.521 40.7793 146.55 40.7094 146.578 40.6495C146.606 40.5896 146.644 40.5297 146.682 40.4698C146.748 40.3699 146.815 40.2901 146.9 40.2102C147.761 39.3916 149.2 40.0405 149.456 39.6012C149.721 39.142 149.834 38.7127 149.834 38.3134C149.834 38.2036 149.825 38.0937 149.806 37.9939C149.796 37.954 149.796 37.924 149.787 37.8941C149.768 37.7942 149.73 37.6944 149.692 37.5946C149.645 37.4748 149.588 37.365 149.522 37.2651C149.493 37.2152 149.456 37.1653 149.427 37.1254C149.399 37.0854 149.361 37.0355 149.314 36.9856C149.266 36.9357 149.219 36.8858 149.162 36.8358C149.068 36.736 148.954 36.6462 148.831 36.5663C148.746 36.5064 148.66 36.4565 148.575 36.4066C148.471 36.3566 148.377 36.3067 148.272 36.2668C148.168 36.2269 148.064 36.1869 147.96 36.157C147.544 36.0372 147.099 35.9873 146.654 36.0172C146.531 36.0172 146.408 36.0372 146.285 36.0671C146.18 36.0871 146.076 36.1071 145.963 36.137C145.878 36.157 145.792 36.1769 145.707 36.2169C145.641 36.2468 145.565 36.2768 145.499 36.3067C145.347 36.3766 145.196 36.4565 145.045 36.5563C144.846 36.6761 144.666 36.8358 144.486 37.0056C144.249 37.2352 144.041 37.5047 143.861 37.8142C143.833 37.8641 143.805 37.924 143.776 37.9839C143.748 38.0338 143.719 38.0937 143.7 38.1636C143.634 38.3034 143.587 38.4531 143.539 38.6229C143.502 38.7526 143.464 38.8824 143.435 39.0122C143.379 39.2119 143.341 39.4215 143.303 39.6312C143.284 39.731 143.265 39.8408 143.246 39.9506C143.085 40.8392 142.99 41.7377 142.915 42.2468C142.886 42.3966 142.867 42.5064 142.848 42.5763C142.839 42.6162 142.83 42.6362 142.82 42.6462C142.82 42.6462 142.763 42.6861 142.725 42.6661C142.716 42.6561 142.697 42.6561 142.678 42.6561C142.64 42.6561 142.602 42.6362 142.564 42.6162C142.441 42.5663 142.29 42.5064 142.129 42.4465C141.921 42.3766 141.684 42.3267 141.485 42.3566C141.391 42.3766 141.287 42.4165 141.201 42.4864C141.173 42.5064 141.145 42.5363 141.126 42.5663C141.088 42.6062 141.05 42.6561 141.031 42.716C140.984 42.7859 140.955 42.8658 140.927 42.9656C140.842 43.2851 140.785 43.5646 140.747 43.8142C140.709 44.0638 140.69 44.2834 140.69 44.4731C140.69 44.6927 140.719 44.8724 140.757 45.0222C140.757 45.0521 140.766 45.0821 140.785 45.112C140.813 45.2219 140.861 45.3217 140.917 45.3916C140.936 45.4215 140.955 45.4515 140.984 45.4814C141.249 45.7809 141.646 45.8209 141.93 45.8408C141.987 45.8508 142.044 45.8608 142.091 45.8608C142.195 45.8808 142.271 45.9007 142.309 45.9407C142.328 45.9506 142.337 45.9706 142.337 45.9906L140.851 57.5613C141.23 57.5014 141.788 57.5413 142.366 57.5813C143.123 57.6511 143.89 57.711 144.221 57.4914C144.249 57.4714 144.287 57.4215 144.316 57.3317C144.335 57.2917 144.344 57.2418 144.363 57.1719C144.382 57.112 144.401 57.0422 144.42 56.9723C144.543 56.4931 144.666 55.7343 144.798 54.8259C144.827 54.6462 144.855 54.4665 144.874 54.2868C144.921 53.9473 144.969 53.6079 145.016 53.2485C145.063 52.929 145.101 52.6096 145.139 52.2901C145.187 51.9606 145.224 51.6312 145.262 51.3117C145.3 50.9922 145.338 50.6828 145.385 50.3733C145.48 49.6145 145.565 48.8957 145.65 48.2668C145.669 48.147 145.679 48.0272 145.698 47.9174C145.736 47.6179 145.773 47.3483 145.811 47.0987C145.84 46.8991 145.868 46.7194 145.896 46.5696C145.925 46.4199 145.944 46.3001 145.972 46.2102L149.2 45.2219C149.266 45.3716 149.361 45.4714 149.465 45.5413C149.796 45.7809 150.289 45.721 150.667 45.751L148.708 57.5513C148.888 57.5313 149.181 57.5214 149.522 57.5313C149.626 57.5313 149.74 57.5313 149.853 57.5413C150.08 57.5513 150.317 57.5613 150.563 57.5813C151.396 57.6212 152.229 57.6711 152.523 57.5813C152.56 57.5713 152.589 57.5613 152.608 57.5413C152.665 57.4714 152.731 57.2119 152.797 56.8026C152.807 56.7127 152.825 56.6328 152.835 56.533C152.844 56.513 152.844 56.4831 152.844 56.4531C152.873 56.3034 152.892 56.1437 152.911 55.964C152.911 55.954 152.92 55.934 152.92 55.914C152.939 55.7343 152.967 55.5447 152.986 55.335C153.043 54.7859 153.109 54.167 153.176 53.4981C153.195 53.2485 153.223 52.9889 153.251 52.7294C153.393 51.1919 153.545 49.5447 153.696 48.2368C153.715 48.0971 153.734 47.9573 153.753 47.8175C153.781 47.548 153.81 47.2884 153.848 47.0588C153.886 46.8292 153.923 46.6295 153.952 46.4498C153.971 46.37 153.99 46.2901 154.009 46.2102C154.018 46.1403 154.037 46.0704 154.056 46.0205C154.075 45.9706 154.094 45.9207 154.113 45.8808C154.113 45.8408 154.141 45.8109 154.16 45.8009C154.283 45.7011 154.491 45.6611 154.747 45.6312C155.22 45.5713 155.855 45.5513 156.337 45.0222C156.375 44.9823 156.413 44.9423 156.451 44.8924C156.527 44.8026 156.593 44.6927 156.659 44.563C156.697 44.4831 156.735 44.3932 156.763 44.3034C156.792 44.2335 156.82 44.1536 156.839 44.0738C156.915 43.8442 156.962 43.5746 157 43.2551C157.009 43.1453 157.019 43.0255 157.028 42.8957C156.981 42.7959 156.934 42.716 156.867 42.6561H156.839Z" fill="white"/>
<path d="M50.0741 45.7311C49.4967 61.8742 25.6712 61.5348 27.5644 44.4932C28.4826 36.2269 37.7307 31.7544 44.8679 34.979C45.7955 35.3983 49.3263 37.7145 49.0991 38.7727C49.0518 38.9724 46.089 41.019 45.8997 41.019C45.5873 41.009 44.707 39.6812 44.1579 39.3318C34.853 33.5215 27.0248 46.9291 34.6259 52.41C38.2134 55.0056 43.0694 53.1587 45.1708 49.3251H38.2986C38.1566 48.776 38.6204 45.7311 38.7908 45.7311H50.0741Z" fill="white"/>
<path d="M77.0517 42.1367C75.6318 42.0768 75.2248 40.5394 73.767 40.19C66.6393 38.4828 60.5054 46.4096 63.7049 53.3081C65.5602 57.3015 71.4101 59.2183 74.3634 55.5144L74.6 57.0519C75.6507 56.9221 78.2254 57.4712 78.8029 56.5727L80.98 40.5993C79.1436 40.8689 76.4837 39.5411 77.0517 42.1367ZM72.3661 53.4279C65.0206 54.6159 65.7116 44.7124 71.0504 43.794C77.932 42.606 77.2126 52.6392 72.3661 53.4279Z" fill="white"/>
<path d="M98.9934 40.1998C90.266 42.0767 89.2437 57.5609 99.8643 57.5609C112.435 57.5609 112.7 37.2347 98.9934 40.1998ZM98.1226 53.2281C94.4783 51.9802 96.2484 44.6424 99.9779 43.7838C107.787 41.9668 106.651 56.1332 98.1226 53.2281Z" fill="white"/>
<path d="M129.407 42.2563C119.336 44.4626 122.242 62.5425 134.083 56.9218C142.356 52.9884 139.545 40.03 129.407 42.2563ZM127.116 49.1148C127.646 45.6107 132.398 44.4826 134.329 46.3894C139.838 51.8403 125.507 59.827 127.116 49.1148Z" fill="white"/>
<path d="M92.2727 37.2845C91.6007 37.7437 88.884 36.0965 89.3194 40.579H91.771C92.1591 45.5807 89.6791 43.564 88.8745 44.2329C88.4201 44.6123 87.3316 54.6655 87.2937 56.203C86.8677 57.6206 84.1227 56.9018 82.9394 57.0416C82.7312 54.7354 85.1071 45.6505 84.3025 44.2828C83.9996 43.7837 81.8698 43.4442 83.4222 40.9484C83.8197 40.3094 84.7853 40.6289 85.1639 40.0898C85.7792 39.2013 85.4005 36.1963 86.8393 34.6389C89.8021 31.4542 95.0651 35.3677 92.2727 37.2845Z" fill="white"/>
<path d="M119.468 50.3727C123.5 56.8419 113.609 60.6656 109.945 55.1847C112.378 49.8735 112.246 54.0067 114.688 54.386C115.095 54.4459 116.723 54.0466 116.789 53.9468C118.181 51.8602 110.476 50.0532 111.507 45.0915C112.359 40.9784 120.187 41.4975 120.661 44.5125C120.736 45.0116 119.165 47.2579 118.995 47.2579C118.787 47.2679 116.543 44.4925 115.322 45.7305C114.205 46.8586 118.805 49.3145 119.468 50.3727Z" fill="white"/>
<path d="M149.172 45.2121L145.944 46.2004C145.575 47.6979 144.685 57.1721 144.193 57.4816C143.606 57.861 141.694 57.3918 140.823 57.5615L142.309 45.9908C142.252 45.5315 139.933 46.6497 140.899 42.9658C141.249 41.658 142.621 42.836 142.792 42.6464C142.953 42.4667 143.104 39.1023 143.833 37.8144C145.802 34.3302 151.283 36.3868 149.427 39.5914C149.077 40.2004 146.502 38.7429 146.237 41.8776C147.43 43.0657 148.698 42.0174 149.172 44.1838C150.431 44.4933 150.383 44.7928 149.172 45.2121Z" fill="white"/>
<path d="M62.3324 40.0706C62.1715 40.6596 61.3953 43.4549 61.2627 43.5747C61.0166 43.7943 59.8902 43.6546 59.1235 44.1438C56.1133 46.0706 56.7097 56.2236 55.9524 57.0423C55.7726 57.2319 52.7624 56.9125 52.0336 57.0423C52.4974 54.9757 53.4534 41.1887 54.0025 40.5897C54.2296 40.3501 58.3851 40.0506 57.6752 42.1271C58.9909 40.3501 60.1268 39.7012 62.3324 40.0706Z" fill="white"/>
<path d="M18.3069 35.2884C20.7112 33.751 22.1973 35.1686 24.2703 34.929C28.7192 34.4199 27.3467 27.3716 22.4623 28.8691C20.7585 29.3883 20.8721 32.8425 17.3224 33.3217C14.653 33.6811 14.388 30.6162 14.7193 28.4897C14.8897 27.3616 15.912 27.5813 16.3569 26.6029C18.6287 21.6312 10.8857 20.3633 10.3272 24.4265C10.0053 26.7127 11.8417 26.8325 12.2014 28.0904C13.7254 33.4914 9.90121 34.5297 6.41779 31.335C5.90664 31.6245 5.9445 31.9939 6.40832 32.3533H6.41779C7.23185 33.2119 9.73083 33.6711 10.3366 34.4099C10.7721 34.35 11.1602 34.2202 11.4915 34.0405C11.6619 33.9506 11.8133 33.8508 11.9648 33.741C12.1162 33.6312 12.2487 33.5014 12.3718 33.3716C13.6875 31.9839 13.8201 29.528 13.2048 27.5313C13.1764 27.4515 13.1291 27.3716 13.0628 27.2917C13.0344 27.2518 12.9965 27.2119 12.9492 27.1719C12.7504 26.9723 12.457 26.7826 12.1825 26.553C12.0121 26.4232 11.8512 26.2834 11.7092 26.1237C11.2264 25.5546 11.0371 24.8059 12.0216 23.5779C12.0878 23.4981 12.1446 23.4282 12.2203 23.3583C12.2866 23.2884 12.3434 23.2185 12.4097 23.1586C12.5043 23.0588 12.599 22.9789 12.6936 22.909C12.8829 22.7693 13.0723 22.6794 13.2616 22.6295C13.3562 22.5996 13.4414 22.5896 13.5361 22.5896C13.9147 22.5896 14.2839 22.7892 14.672 23.1786C14.7288 23.2285 14.7856 23.2984 14.8424 23.3583C14.9086 23.4282 14.9654 23.4981 15.0317 23.5779C16.1486 24.9856 15.8552 25.7443 15.2683 26.3932C15.0222 26.6628 14.7193 26.9124 14.4637 27.1819C14.1987 27.4515 13.9715 27.741 13.8769 28.0804C13.2805 30.157 13.5929 31.924 14.7477 33.0921C14.8234 33.162 14.8897 33.2318 14.9749 33.3117H14.9844C15.0601 33.3816 15.1453 33.4515 15.2305 33.5214C15.3251 33.5912 15.4103 33.6511 15.5144 33.711C15.7984 33.9007 16.1203 34.0605 16.4705 34.1902C16.5841 34.2302 16.7071 34.2701 16.8302 34.31C16.9532 34.35 17.0763 34.3899 17.2088 34.4199C18.2217 33.1819 20.1716 33.2618 21.1277 32.3533H21.1371C21.6767 31.8242 21.7808 30.9157 22.273 30.3267C22.3204 30.2768 22.3582 30.2269 22.4056 30.1869C22.557 30.0472 22.7369 29.9473 22.9451 29.8675C23.7781 29.5979 24.4691 29.6878 24.9897 29.9972C25.056 30.0372 25.1128 30.0771 25.1696 30.117C25.2264 30.157 25.2737 30.1969 25.3305 30.2568C25.3873 30.3067 25.4346 30.3566 25.4819 30.4066C26.1919 31.1952 26.2771 32.4831 25.5198 33.2618C25.1696 33.6511 24.6111 33.9107 23.8254 33.9407C23.4468 33.9606 23.0682 33.8109 22.7653 33.6611C22.4718 33.5313 22.2446 33.3916 22.1121 33.3916H22.1026H22.0837C20.2 33.3916 18.9221 34.2402 17.2278 34.929L17.2088 34.949C16.5367 36.147 16.054 37.0255 16.2244 38.533C16.4232 38.6229 18.6571 41.4681 19.1682 41.6279C21.7903 42.4764 22.4056 39.9906 23.5793 44.2036C23.4279 44.3932 23.3237 44.553 23.2385 44.6828C23.2385 44.7027 23.2196 44.7227 23.2007 44.7427C22.8883 45.3017 23.1817 45.4714 24.0715 45.2318C24.7247 43.954 24.8761 43.8042 24.0905 42.3766C22.8788 40.1503 21.1845 41.0189 19.6699 40.34C18.1554 39.6611 16.2054 36.6561 18.3069 35.2984V35.2884Z" fill="white"/>
<path d="M23.5793 44.1929C23.4279 44.3826 23.3238 44.5423 23.2386 44.6721C23.2386 44.6921 23.2196 44.712 23.2007 44.732C21.1561 47.2977 18.4205 45.1014 19.1683 41.6172C18.3826 42.4658 15.9215 39.4208 16.2244 38.5323C15.931 38.4225 15.4482 38.4225 14.8992 38.4525C14.1324 38.5124 13.2616 38.6222 12.6085 38.5723C12.4949 38.5723 12.3907 38.5523 12.2961 38.5323C10.7626 39.0315 8.96411 40.8385 8.16899 42.4658C8.16899 42.4758 8.16898 42.4957 8.15005 42.5057C8.12166 42.6954 8.03646 42.915 7.88501 43.1646C7.71463 43.7137 8.19738 44.9516 7.42119 45.5107C5.52802 46.8585 2.49896 44.6921 3.91883 42.4857C4.52465 41.5473 5.68894 41.8867 6.40834 41.6172H6.41781C6.74911 41.4974 7.26027 41.6671 7.85661 41.3576C8.95465 40.7886 9.97696 38.6022 11.3116 38.0332H11.3211V38.0132C11.0655 37.6338 10.791 35.7869 10.3367 34.9383C10.3177 34.9283 10.3083 34.9184 10.2893 34.9084C10.2704 34.8984 10.242 34.8884 10.2136 34.8784C9.08717 34.4392 6.39888 33.7802 5.93505 32.8817H5.91612C5.56589 33.1313 5.23458 33.321 4.91274 33.4708C4.75183 33.5406 4.60037 33.6005 4.44892 33.6505C4.29747 33.7004 4.15548 33.7403 4.01349 33.7703C3.72952 33.8202 3.45501 33.8302 3.21836 33.8102C3.13317 33.8102 3.04798 33.8002 2.97225 33.7703C2.89653 33.7503 2.81133 33.7303 2.73561 33.7004C2.65988 33.6804 2.59362 33.6505 2.52736 33.6205C2.4611 33.6006 2.39484 33.5606 2.32858 33.5207C2.073 33.3709 1.85529 33.1713 1.69437 32.9416C1.62811 32.8518 1.57131 32.7619 1.52398 32.6721C1.45772 32.5523 1.40093 32.4225 1.36306 32.2927C1.34413 32.2228 1.3252 32.1629 1.30627 32.0931C1.28734 32.0232 1.27787 31.9633 1.26841 31.8934C1.24947 31.7836 1.24001 31.6837 1.24001 31.5839C1.24001 31.4741 1.24947 31.3743 1.26841 31.2644C1.26841 31.2045 1.28734 31.1546 1.2968 31.1047C1.30627 31.0448 1.3252 30.9749 1.3536 30.915C1.37253 30.8451 1.40093 30.7753 1.43879 30.7054C1.51452 30.5456 1.61864 30.4059 1.75116 30.2761C1.79849 30.2262 1.83636 30.1862 1.88368 30.1463C1.88368 30.1463 1.88368 30.1463 1.89315 30.1463C1.97834 30.0764 2.073 30.0165 2.17712 29.9666C2.28125 29.9067 2.39484 29.8568 2.51789 29.8169C2.95332 29.6871 3.5118 29.6571 4.19334 29.7869C4.60037 29.8768 4.88435 30.0165 5.08313 30.1862C5.13992 30.2262 5.18725 30.2761 5.21565 30.326C5.26298 30.3859 5.30084 30.4458 5.33871 30.5057C5.37657 30.5656 5.40497 30.6255 5.43336 30.6954C5.47123 30.7653 5.49016 30.8352 5.50909 30.8951C5.55642 31.0248 5.58482 31.1746 5.62268 31.3144C5.66054 31.4941 5.69841 31.6638 5.74574 31.8435C5.76467 31.9333 5.79307 32.0232 5.82146 32.113C5.84986 32.2029 5.88772 32.2827 5.92559 32.3626H6.41781C6.38941 32.0232 6.45567 31.6837 6.41781 31.3443C5.93505 27.1213 -1.51454 28.7486 0.274496 32.8718C2.03514 36.915 8.61388 32.702 9.77817 36.316C11.198 40.6987 4.37319 39.8002 3.04798 42.4758C0.842445 46.9184 7.89448 48.1862 8.65174 45.2811C8.91678 44.2628 8.718 43.1446 9.12503 42.1563C10.1379 39.7204 13.7538 38.722 16.0067 40.0598C18.9127 41.7969 17.578 45.5706 19.67 46.4991C21.4117 47.2778 23.1628 47.0182 24.0716 45.2312C24.0905 44.8218 23.6551 44.4525 23.5793 44.2029V44.1929Z" fill="white"/>
<path d="M11.4915 34.04C11.1602 34.2197 10.7721 34.3495 10.3367 34.4194C10.7721 34.3395 11.1507 34.2098 11.4915 34.04Z" fill="white"/>
<path d="M13.2616 22.6289C13.0722 22.6788 12.8829 22.7687 12.6936 22.9084C12.8829 22.7687 13.0722 22.6688 13.2616 22.6289Z" fill="white"/>
<path d="M16.4705 34.1901C16.1202 34.0604 15.7984 33.9006 15.5144 33.7109C15.7984 33.8906 16.1202 34.0504 16.4705 34.1901Z" fill="white"/>
<path d="M17.2088 34.4094C17.0763 34.3894 16.9533 34.3495 16.8302 34.3096C16.9533 34.3395 17.0763 34.3795 17.2088 34.4094Z" fill="white"/>
<path d="M23.5793 44.1934C23.4752 44.3631 23.3616 44.5228 23.2385 44.6726C23.3237 44.5428 23.4278 44.383 23.5793 44.1934Z" fill="white"/>
<path d="M24.9897 29.9967C24.4691 29.6872 23.7781 29.5974 22.9451 29.8669C22.7368 29.9468 22.557 30.0466 22.4055 30.1864C22.538 30.0466 22.7179 29.9368 22.9451 29.8569C23.7781 29.5774 24.4691 29.6772 24.9897 29.9967Z" fill="white"/>
<path d="M21.1372 32.3535L21.1277 32.3639V32.3535H21.1372Z" fill="white"/>
<path d="M21.1372 32.3535L21.1277 32.3639V32.3535H21.1372Z" fill="white"/>
<path d="M6.41779 32.3535V32.3639L6.40833 32.3535H6.41779Z" fill="white"/>
<path d="M5.08306 30.1762C4.88428 30.0065 4.6003 29.8668 4.19327 29.7769C3.51173 29.6471 2.95325 29.6771 2.51782 29.8069C2.95325 29.6571 3.51173 29.6272 4.19327 29.7669C4.6003 29.8468 4.88428 29.9866 5.08306 30.1762Z" fill="white"/>
</g>
<defs>
<clipPath id="clip0_752_4488">
<rect width="157" height="36" fill="white" transform="translate(0 22)"/>
</clipPath>
</defs>
</svg>
