<svg width="48" height="49" viewBox="0 0 48 49" fill="none" xmlns="http://www.w3.org/2000/svg">
<g clip-path="url(#clip0_647_4478)">
<path d="M40.174 9.46973L37.1431 44.3114L23.5191 48.1872L9.93265 44.3168L6.90491 9.46973H40.174Z" fill="#E44D26"/>
<path d="M23.5391 45.2251L34.5479 42.0932L37.1379 12.3193H23.5391V45.2251Z" fill="#F16529"/>
<path d="M17.6474 20.8666H23.5394V16.5928H13.0957L13.1953 17.7394L14.2191 29.517H23.5394V25.2431H18.0281L17.6474 20.8666ZM18.5861 31.654H14.4052L14.9886 38.3646L23.5202 40.7948L23.5394 40.7894V36.3428L23.5211 36.3477L18.8827 35.0625L18.5861 31.654Z" fill="#EBEBEB"/>
<path d="M9.99988 0H12.1164V2.14582H14.0527V0H16.1693V6.49809H14.0528V4.32216H12.1166V6.49809H10L9.99988 0ZM18.9526 2.15492H17.0895V0H22.9338V2.15492H21.0695V6.49809H18.953V2.15492H18.9526ZM23.8612 0H26.0682L27.4257 2.28326L28.782 0H30.9899V6.49809H28.8819V3.27728L27.4257 5.58771H27.3892L25.9322 3.27728V6.49809H23.8612V0ZM32.0432 0H34.1604V4.35026H37.1369V6.49809H32.0431V0H32.0432Z" fill="white"/>
<path d="M23.5248 29.517H28.6535L28.1699 35.0598L23.5247 36.3464V40.7927L32.063 38.3646L32.1256 37.6425L33.1045 26.3908L33.2061 25.2431H23.5248V29.517ZM23.5248 20.8562V20.8666H33.5851L33.6685 19.9061L33.8584 17.7394L33.9579 16.5928H23.5248V20.8562Z" fill="white"/>
</g>
<defs>
<clipPath id="clip0_647_4478">
<rect width="47.0783" height="48.3095" fill="white"/>
</clipPath>
</defs>
</svg>
