<svg width="224" height="50" viewBox="0 0 224 50" fill="none" xmlns="http://www.w3.org/2000/svg">
<g clip-path="url(#clip0_903_5121)">
<path d="M48.7765 40.2891C48.7765 40.2891 42.8341 42.9775 31.3149 42.9775C25.7525 42.9754 20.2276 42.0674 14.958 40.2891C14.958 40.2891 21.6056 44.638 31.5185 44.4309C45.1077 44.1862 48.7765 40.2891 48.7765 40.2891Z" fill="white"/>
<path d="M23.0007 14.229C26.4696 13.0467 30.0592 12.8396 32.8759 12.7643C41.0543 12.5459 47.8866 17.663 49.0178 19.203C50.4959 21.1685 51.8382 25.6907 52.1135 29.584C52.3349 33.1676 52.0993 36.7647 51.4121 40.2889C51.4121 40.2889 53.9535 35.635 53.222 27.3399C52.9277 23.5393 51.3619 19.9479 48.7765 17.1434C48.7765 17.1434 42.1402 10.5879 32.8042 10.5879C20.1614 10.5879 13.8494 18.5892 13.8494 18.5892C11.94 21.2702 10.8111 24.4266 10.5878 27.7089C10.0373 35.6801 12.4731 40.2889 12.4731 40.2889C11.719 35.394 10.3842 27.9988 14.8109 19.3498C15.3991 18.1901 19.2979 15.4979 23.0007 14.229Z" fill="white"/>
<path d="M63.8967 25.2729C63.3877 20.6566 58.961 20.024 58.6179 19.9826C57.8911 17.877 56.9365 15.8569 55.7711 13.958C54.3632 11.7765 52.7194 9.7562 50.8693 7.93345C49.0976 6.28959 47.1749 4.81587 45.1267 3.53176C42.1856 1.64909 35.4853 -0.131915 31.2056 0.105302C25.874 0.40653 19.694 1.57002 12.1302 8.76559C9.53224 11.2394 7.01348 15.3173 5.3431 19.9826C4.88686 20.0428 0.588375 20.7356 0.0868854 25.254C-0.554116 31.0564 2.89598 31.8095 3.45403 31.8961C3.47696 33.2719 3.61443 34.6435 3.86503 35.9966C4.51734 39.2724 6.25559 44.2502 7.82793 46.9575C8.17105 47.5486 9.26075 49.6535 9.8829 49.9396C10.2034 50.0902 26.2926 49.917 26.2926 49.917L10.5842 47.8951C9.27065 45.9124 8.12663 43.8228 7.1643 41.6483C5.96799 38.7346 5.17514 35.6715 4.80768 32.5437C4.41755 29.2994 4.63103 26.0111 5.43737 22.8442C6.30837 19.2747 8.25777 15.5658 8.97042 14.6471C11.1762 11.7929 14.9204 9.43959 17.0546 8.49072C21.9506 6.28305 27.2748 5.18369 32.646 5.27135C43.6562 5.45209 51.8346 10.3809 54.983 14.6847C56.431 16.6691 58.3012 21.1649 58.9045 24.7382C59.4735 28.1068 59.4339 31.5499 58.7876 34.9046C58.3841 37.1813 57.7369 39.4081 56.857 41.5467C55.8517 43.7826 54.6795 45.94 53.3504 48.0005L37.6232 49.9246H52.6264C52.6264 49.9246 54.0706 49.9547 54.1347 49.9246C54.4778 49.7777 56.3178 46.7353 56.3178 46.7353C56.3178 46.7353 58.2258 42.7026 58.8215 41.012C59.8671 38.0942 60.4263 35.0248 60.4768 31.9262C60.8614 31.8735 64.5566 31.2522 63.8967 25.2729ZM4.14782 24.0077C3.61092 26.5938 3.37558 29.2333 3.44649 31.8735C3.04681 31.6099 1.26331 30.1866 1.56119 26.1878C1.93825 20.9691 4.95473 20.0842 5.33179 19.9901C4.86066 21.3056 4.46535 22.647 4.14782 24.0077ZM60.4919 31.9149C60.5145 30.0178 60.415 28.1212 60.194 26.2368C59.9099 24.1051 59.3862 22.0122 58.633 19.9976C58.9233 20.0616 62.0265 20.8825 62.4036 26.1991C62.7279 30.3711 60.7596 31.738 60.4843 31.9036L60.4919 31.9149Z" fill="white"/>
<path d="M67.9389 15.0807C68.1652 14.5947 68.4855 14.1583 68.8815 13.7967C69.2879 13.422 69.7611 13.1269 70.2767 12.9269C70.8181 12.714 71.3953 12.6067 71.9772 12.6106C72.5605 12.6046 73.1394 12.712 73.6815 12.9269C74.1853 13.1258 74.6452 13.4213 75.0352 13.7967C75.4165 14.1693 75.7191 14.6146 75.9251 15.1062C76.131 15.5977 76.2362 16.1255 76.2342 16.6583V17.6072C76.2535 17.7402 76.2196 17.8754 76.14 17.9837C76.0662 18.0451 75.9718 18.0761 75.876 18.0703H74.3074C74.1819 18.0795 74.0567 18.0492 73.9492 17.9837C73.8701 17.9273 73.8323 17.803 73.8323 17.6072V16.7299C73.8332 16.4942 73.7897 16.2605 73.7041 16.0408C73.5341 15.6053 73.1997 15.2538 72.7728 15.0618C72.5442 14.959 72.2958 14.9076 72.0451 14.9112C71.7857 14.9053 71.5282 14.9568 71.291 15.0618C71.0749 15.1531 70.876 15.2804 70.7027 15.4384C70.5402 15.6037 70.4121 15.7995 70.3257 16.0145C70.2292 16.2313 70.1803 16.4662 70.1824 16.7035V23.7221C70.1803 23.9594 70.2292 24.1944 70.3257 24.4112C70.414 24.6274 70.5419 24.8253 70.7027 24.9948C70.8732 25.163 71.0724 25.2994 71.291 25.3977C71.5287 25.5009 71.7858 25.5523 72.0451 25.5483C72.2882 25.5519 72.5293 25.5037 72.7523 25.4069C72.9753 25.3102 73.1751 25.1671 73.3384 24.9873C73.4996 24.8166 73.6275 24.6174 73.7155 24.3999C73.801 24.1802 73.8445 23.9465 73.8437 23.7108V23.0067C73.8348 22.9403 73.8392 22.8729 73.8567 22.8082C73.8741 22.7436 73.9043 22.683 73.9455 22.6302C74.0313 22.5637 74.1388 22.5315 74.2471 22.5398H75.8722C75.9706 22.5321 76.0681 22.5632 76.1437 22.6264C76.1869 22.6781 76.2183 22.7386 76.2359 22.8035C76.2535 22.8685 76.2567 22.9366 76.2455 23.0029V23.7937C76.2499 24.3357 76.1421 24.8728 75.9288 25.3713C75.7175 25.85 75.4138 26.2825 75.0352 26.644C74.6452 27.0195 74.1853 27.3149 73.6815 27.5138C73.1394 27.7287 72.5605 27.8361 71.9772 27.8301C71.3968 27.8335 70.8206 27.7314 70.2767 27.5289C69.7634 27.3381 69.2903 27.0533 68.8815 26.6892C68.484 26.3304 68.1633 25.8949 67.9389 25.409C67.7046 24.8989 67.5862 24.3435 67.592 23.7824V16.6282C67.5916 16.0931 67.7101 15.5645 67.9389 15.0807Z" fill="white"/>
<path d="M78.2622 14.8658C78.1859 14.7559 78.1524 14.622 78.1679 14.4892C78.1941 14.3102 78.2887 14.1483 78.4318 14.0374C78.6508 13.8516 78.8799 13.6781 79.1181 13.5178C79.3888 13.3388 79.6768 13.1874 79.9778 13.0659C80.3241 12.9312 80.681 12.8254 81.0449 12.7496C81.4733 12.6658 81.9091 12.6254 82.3457 12.6291C82.9232 12.6256 83.4962 12.7304 84.0349 12.9379C84.553 13.135 85.0281 13.4304 85.4338 13.8077C85.837 14.1867 86.1601 14.6425 86.384 15.1482C86.6185 15.69 86.7367 16.2749 86.7309 16.8652V23.7219C86.7398 24.2034 86.6632 24.6827 86.5047 25.1376C86.3672 25.5248 86.1658 25.8862 85.9089 26.207C85.667 26.499 85.3822 26.7529 85.0643 26.96C84.7658 27.1709 84.4445 27.3477 84.1066 27.4872C83.5373 27.7071 82.9334 27.8243 82.3231 27.8336C81.7921 27.8311 81.2646 27.7486 80.7583 27.5889C80.2403 27.4289 79.7568 27.1735 79.333 26.8358C78.8963 26.4768 78.5415 26.0287 78.2923 25.5217C78.0116 24.9345 77.8734 24.2895 77.8889 23.639V23.0177C77.8778 22.3703 77.9838 21.7261 78.2018 21.1162C78.3946 20.5932 78.7056 20.1216 79.1105 19.7381C79.5163 19.3623 79.9987 19.0784 80.5245 18.906C81.1206 18.7124 81.7455 18.622 82.3721 18.6386H84.1405V16.8313C84.1385 16.6106 84.1055 16.3913 84.0425 16.1799C83.9724 15.9525 83.8598 15.7404 83.7107 15.5548C83.5465 15.3547 83.3406 15.1928 83.1074 15.0804C82.8194 14.9474 82.5045 14.883 82.1873 14.8921C81.6213 14.8726 81.0581 14.9807 80.5396 15.2084C80.1695 15.3761 79.8274 15.5996 79.5253 15.8711C79.4841 15.9182 79.4339 15.9565 79.3775 15.9837C79.3211 16.0109 79.2598 16.0264 79.1973 16.0293C79.1347 16.0257 79.074 16.0066 79.0207 15.9737C78.9674 15.9409 78.9231 15.8952 78.8918 15.841L78.2622 14.8658ZM84.1405 20.5364H82.9905C82.5581 20.5228 82.1271 20.5905 81.7198 20.7359C81.4255 20.85 81.1658 21.0381 80.9657 21.2819C80.7784 21.5144 80.6492 21.788 80.5886 22.0802C80.5194 22.393 80.4853 22.7125 80.4868 23.0328V23.5637C80.4796 23.8694 80.5361 24.1733 80.6527 24.4561C80.7467 24.6884 80.8879 24.8986 81.0675 25.0736C81.2375 25.2393 81.4405 25.3676 81.6632 25.4501C82.0706 25.5943 82.5152 25.5943 82.9226 25.4501C83.1397 25.3818 83.34 25.269 83.5108 25.1188C83.6996 24.9532 83.8523 24.7507 83.9595 24.5239C84.0848 24.2421 84.1453 23.9359 84.1367 23.6277L84.1405 20.5364Z" fill="white"/>
<path d="M100.675 16.76C100.673 16.5655 100.654 16.3714 100.618 16.1801C100.581 15.9664 100.506 15.761 100.396 15.5739C100.277 15.382 100.114 15.2207 99.9207 15.1033C99.694 14.9656 99.4317 14.8975 99.1666 14.9075C98.9493 14.9071 98.7341 14.9494 98.5331 15.0317C98.3304 15.113 98.1449 15.2318 97.9864 15.3819C97.8176 15.5453 97.6819 15.7396 97.5867 15.9542C97.4767 16.1983 97.4177 16.4622 97.4133 16.7299V27.1109C97.4133 27.4197 97.2851 27.5703 97.0362 27.5703H95.2225C95.1702 27.5707 95.1184 27.5601 95.0703 27.5394C95.0223 27.5186 94.9791 27.4881 94.9435 27.4498C94.8681 27.3535 94.8305 27.233 94.8379 27.1109V16.6583C94.8231 16.4682 94.7942 16.2794 94.7512 16.0935C94.7036 15.89 94.6234 15.6954 94.5137 15.5174C94.4024 15.3397 94.2514 15.1902 94.0725 15.0807C93.8691 14.9587 93.6346 14.8985 93.3976 14.9075C93.1756 14.9081 92.9562 14.9542 92.7528 15.043C92.5422 15.1338 92.3494 15.2613 92.1834 15.4195C92.0122 15.5921 91.8707 15.7919 91.7649 16.0107C91.6512 16.2537 91.5907 16.5182 91.5877 16.7864V27.0394C91.5933 27.1148 91.5813 27.1905 91.5525 27.2605C91.5237 27.3304 91.4789 27.3927 91.4218 27.4423C91.3315 27.5207 91.2171 27.5658 91.0975 27.5703H89.363C89.312 27.5696 89.2616 27.5586 89.2149 27.5379C89.1682 27.5172 89.1263 27.4872 89.0915 27.4498C89.0148 27.3542 88.9771 27.2331 88.986 27.1109V13.3147C88.9806 13.2526 88.9889 13.19 89.0104 13.1314C89.0319 13.0729 89.0661 13.0198 89.1104 12.9758C89.1865 12.9064 89.2863 12.8687 89.3894 12.8704H90.5206C90.6439 12.8651 90.7659 12.8966 90.8713 12.9608C90.9737 13.0457 91.0386 13.1674 91.0523 13.2997L91.1805 13.8306C91.5423 13.4687 91.963 13.1707 92.4248 12.9495C92.9021 12.7203 93.426 12.6043 93.9556 12.6106C94.1626 12.6126 94.3693 12.629 94.574 12.6595C94.8328 12.6963 95.086 12.7646 95.3281 12.8629C95.6001 12.9697 95.8543 13.1169 96.0822 13.2997C96.3442 13.5128 96.5696 13.7672 96.7496 14.0527C97.1231 13.6114 97.5824 13.2501 98.0995 12.9909C98.6375 12.7315 99.2292 12.6025 99.8264 12.6144C100.004 12.6168 100.182 12.6294 100.358 12.652C100.594 12.6766 100.827 12.7271 101.052 12.8026C101.32 12.9104 101.573 13.0508 101.806 13.2206C102.091 13.4224 102.333 13.6783 102.519 13.9736C102.752 14.3302 102.926 14.7217 103.035 15.1334C103.182 15.6834 103.25 16.2512 103.239 16.8202V27.1109C103.239 27.4197 103.107 27.5703 102.862 27.5703H101.052C100.799 27.5703 100.675 27.4197 100.675 27.1109V16.76Z" fill="white"/>
<path d="M105.664 13.329C105.659 13.2102 105.694 13.0932 105.765 12.9976C105.804 12.9529 105.853 12.918 105.908 12.8957C105.963 12.8735 106.023 12.8645 106.082 12.8696H107.232C107.29 12.8648 107.349 12.8717 107.405 12.8898C107.461 12.9079 107.512 12.9369 107.556 12.975C107.647 13.0948 107.704 13.2364 107.722 13.3855L107.779 13.9314C108.139 13.5316 108.573 13.2044 109.057 12.9675C109.779 12.621 110.594 12.5156 111.381 12.6668C112.168 12.818 112.885 13.2178 113.427 13.8072C113.77 14.1858 114.036 14.6269 114.211 15.1062C114.401 15.6119 114.497 16.1478 114.494 16.6877V23.7213C114.497 24.2519 114.409 24.7791 114.234 25.2802C114.069 25.7578 113.813 26.199 113.48 26.5792C113.145 26.9606 112.736 27.2695 112.277 27.4867C111.368 27.9002 110.332 27.9368 109.396 27.5883C108.989 27.4269 108.608 27.2061 108.265 26.9332V31.7905C108.265 32.0879 108.126 32.2348 107.847 32.2348H106.093C105.814 32.2348 105.675 32.0879 105.675 31.7905L105.664 13.329ZM108.254 23.7929C108.263 24.0236 108.314 24.2507 108.405 24.4631C108.492 24.6723 108.62 24.8618 108.782 25.0204C108.948 25.1798 109.142 25.3075 109.355 25.3969C109.584 25.495 109.831 25.5456 110.081 25.5456C110.33 25.5456 110.577 25.495 110.807 25.3969C111.022 25.2994 111.218 25.1628 111.384 24.994C111.545 24.8251 111.673 24.6271 111.761 24.4104C111.852 24.1882 111.898 23.9502 111.896 23.71V16.7178C111.897 16.4814 111.851 16.2472 111.761 16.0287C111.673 15.8121 111.545 15.614 111.384 15.4451C111.217 15.2834 111.023 15.1533 110.81 15.061C110.58 14.9596 110.331 14.9083 110.079 14.9104C109.827 14.9093 109.578 14.9606 109.347 15.061C109.134 15.151 108.939 15.2785 108.771 15.4376C108.609 15.6065 108.481 15.8045 108.393 16.0212C108.303 16.2396 108.257 16.4739 108.258 16.7103L108.254 23.7929Z" fill="white"/>
<path d="M119.222 23.6955C119.233 23.9307 119.279 24.1629 119.358 24.3846C119.439 24.6004 119.56 24.7995 119.713 24.972C119.87 25.1476 120.063 25.2876 120.278 25.3824C120.517 25.483 120.773 25.5342 121.032 25.533C121.265 25.532 121.495 25.4833 121.707 25.3899C121.923 25.2994 122.12 25.172 122.292 25.0134C122.462 24.8445 122.601 24.6469 122.703 24.4298C122.808 24.2082 122.866 23.9671 122.872 23.7219V13.386C122.869 13.3147 122.882 13.2437 122.911 13.1783C122.94 13.113 122.984 13.0552 123.038 13.0095C123.129 12.9311 123.243 12.8859 123.363 12.8815H125.074C125.124 12.8831 125.173 12.8947 125.219 12.9153C125.264 12.936 125.305 12.9655 125.338 13.002C125.381 13.0471 125.414 13.1004 125.435 13.1587C125.457 13.2169 125.466 13.2789 125.463 13.3408V27.1408C125.467 27.2013 125.457 27.2618 125.434 27.3179C125.411 27.374 125.376 27.4242 125.331 27.4646C125.251 27.5333 125.149 27.5708 125.044 27.5701H123.913C123.799 27.5769 123.685 27.5465 123.589 27.4835C123.492 27.4037 123.427 27.2912 123.408 27.1672L123.295 26.5798C122.934 26.9489 122.513 27.2544 122.05 27.4835C121.588 27.7134 121.078 27.8321 120.561 27.8299C120.012 27.8363 119.467 27.734 118.959 27.5286C118.488 27.3336 118.062 27.0454 117.707 26.6814C117.351 26.3048 117.076 25.8604 116.896 25.3749C116.699 24.8371 116.602 24.268 116.609 23.6955V13.3145C116.605 13.2539 116.614 13.1931 116.635 13.136C116.655 13.0789 116.688 13.0268 116.73 12.9831C116.805 12.9106 116.905 12.8701 117.009 12.8702H118.808C118.859 12.8694 118.91 12.879 118.957 12.8984C119.004 12.9178 119.047 12.9466 119.083 12.9831C119.163 13.0743 119.204 13.1934 119.196 13.3145L119.222 23.6955Z" fill="white"/>
<path d="M127.318 23.4502C127.318 23.1715 127.503 23.0322 127.876 23.0322H129.403C129.652 23.0322 129.78 23.1753 129.78 23.4652V23.8418C129.777 24.0815 129.826 24.3191 129.923 24.5384C130.014 24.7482 130.149 24.9358 130.319 25.0881C130.489 25.2509 130.688 25.3788 130.907 25.4646C131.148 25.5542 131.404 25.5977 131.661 25.5927C131.897 25.5894 132.13 25.5422 132.348 25.4533C132.568 25.368 132.769 25.24 132.94 25.0768C133.101 24.9073 133.228 24.7094 133.317 24.4932C133.416 24.2678 133.466 24.0239 133.464 23.7778C133.463 23.4875 133.369 23.2051 133.196 22.972C133.004 22.688 132.771 22.4332 132.506 22.2151C132.168 21.9453 131.816 21.6939 131.45 21.4621C131.051 21.2098 130.621 20.9236 130.165 20.6111C129.797 20.3832 129.444 20.1317 129.109 19.858C128.789 19.5989 128.5 19.3031 128.249 18.9769C128 18.65 127.803 18.2868 127.665 17.9001C127.513 17.4735 127.439 17.0234 127.446 16.5709C127.442 16.0333 127.547 15.5004 127.755 15.0045C127.956 14.5268 128.253 14.0951 128.626 13.7356C129.01 13.3711 129.461 13.0835 129.953 12.8884C130.487 12.6782 131.057 12.5733 131.631 12.5796C132.237 12.5708 132.839 12.6729 133.407 12.8809C133.905 13.0672 134.359 13.3529 134.742 13.7205C135.113 14.082 135.4 14.5203 135.583 15.0045C135.779 15.5229 135.878 16.0731 135.873 16.6274V17.0039C135.88 17.0549 135.873 17.1067 135.852 17.1538C135.831 17.2009 135.798 17.2415 135.756 17.2712C135.638 17.3236 135.508 17.3456 135.379 17.3353H133.897C133.845 17.34 133.792 17.3331 133.743 17.315C133.694 17.2969 133.649 17.2681 133.612 17.2306C133.575 17.1931 133.547 17.1479 133.53 17.0983C133.513 17.0487 133.507 16.9958 133.513 16.9437V16.601C133.516 16.3571 133.47 16.1151 133.377 15.8894C133.289 15.6795 133.161 15.4889 133 15.3283C132.841 15.1666 132.651 15.0385 132.442 14.9518C132.222 14.8603 131.986 14.8142 131.748 14.8162C131.507 14.8137 131.268 14.8625 131.047 14.9593C130.843 15.0477 130.658 15.1757 130.504 15.3359C130.35 15.504 130.231 15.7011 130.153 15.9157C130.07 16.141 130.027 16.3796 130.029 16.6198C130.022 16.8612 130.067 17.1013 130.161 17.324C130.26 17.5365 130.404 17.7252 130.583 17.8775C130.817 18.0842 131.07 18.2695 131.337 18.431L132.491 19.1351C132.964 19.4118 133.419 19.7161 133.856 20.0463C134.27 20.3501 134.649 20.6987 134.987 21.0855C135.308 21.4531 135.571 21.867 135.768 22.313C135.967 22.7728 136.067 23.2693 136.062 23.7702C136.068 24.3239 135.963 24.8732 135.753 25.3856C135.551 25.8699 135.25 26.307 134.87 26.6695C134.467 27.0424 133.995 27.3316 133.479 27.5205C132.916 27.7309 132.319 27.8356 131.718 27.8293C131.011 27.8496 130.306 27.7372 129.64 27.4979C129.127 27.308 128.662 27.0042 128.283 26.6093C127.939 26.2402 127.681 25.799 127.529 25.3178C127.374 24.8205 127.296 24.3024 127.299 23.7815L127.318 23.4502Z" fill="white"/>
<path d="M138.004 8.17408C137.999 8.05411 138.038 7.93652 138.113 7.84273C138.151 7.79906 138.199 7.76479 138.253 7.74258C138.306 7.72038 138.364 7.71084 138.422 7.71471H140.175C140.233 7.71084 140.291 7.72038 140.345 7.74258C140.399 7.76479 140.446 7.79906 140.485 7.84273C140.558 7.93704 140.596 8.05458 140.59 8.17408V23.8944C140.569 24.2476 140.676 24.5965 140.892 24.8771C141.029 25.0079 141.192 25.1073 141.371 25.1685C141.55 25.2296 141.741 25.251 141.929 25.2311H142.332C142.513 25.2311 142.623 25.2838 142.66 25.3968C142.697 25.4853 142.717 25.5797 142.721 25.6754V27.1552C142.724 27.2028 142.724 27.2506 142.721 27.2983C142.708 27.3482 142.681 27.393 142.641 27.4263C142.583 27.4715 142.516 27.5059 142.445 27.5279C142.334 27.5585 142.218 27.5725 142.102 27.5694H141.295C140.849 27.5747 140.404 27.5125 139.976 27.3849C139.586 27.2686 139.231 27.0607 138.939 26.7786C138.633 26.4727 138.402 26.1003 138.264 25.6905C138.082 25.1533 137.994 24.5892 138.004 24.0224V8.17408Z" fill="white"/>
<path d="M144.557 14.8651C144.481 14.7553 144.447 14.6214 144.462 14.4886C144.489 14.3096 144.583 14.1477 144.726 14.0368C144.945 13.8519 145.173 13.6784 145.409 13.5172C145.681 13.3389 145.971 13.1876 146.272 13.0653C147.024 12.7656 147.827 12.6172 148.637 12.6285C149.215 12.6246 149.79 12.7294 150.33 12.9373C150.847 13.1353 151.322 13.4305 151.728 13.8071C152.132 14.1849 152.454 14.6411 152.675 15.1475C152.911 15.6889 153.029 16.2741 153.022 16.8645V23.7212C153.032 24.2026 152.957 24.6819 152.799 25.137C152.662 25.5241 152.46 25.8856 152.204 26.2064C151.962 26.4984 151.677 26.7523 151.359 26.9594C151.06 27.1703 150.739 27.3471 150.401 27.4866C149.832 27.7064 149.228 27.8237 148.618 27.833C148.087 27.8305 147.559 27.7479 147.053 27.5882C146.535 27.4283 146.051 27.1729 145.628 26.8352C145.191 26.4753 144.835 26.0275 144.583 25.5211C144.304 24.9334 144.166 24.2888 144.18 23.6384V23.0171C144.168 22.3693 144.275 21.7248 144.496 21.1156C144.689 20.5926 145 20.121 145.405 19.7375C145.811 19.3617 146.293 19.0778 146.819 18.9054C147.415 18.7118 148.04 18.6214 148.667 18.638H150.446V16.8307C150.44 16.6129 150.402 16.3973 150.333 16.1905C150.266 15.9627 150.155 15.7504 150.005 15.5655C149.841 15.3654 149.635 15.2035 149.402 15.0911C149.114 14.9585 148.799 14.8941 148.482 14.9028C147.916 14.8833 147.353 14.9914 146.834 15.2191C146.464 15.3868 146.122 15.6103 145.82 15.8818C145.778 15.9292 145.727 15.9676 145.67 15.9948C145.613 16.022 145.551 16.0373 145.488 16.0399C145.426 16.0358 145.366 16.0164 145.314 15.9836C145.261 15.9507 145.217 15.9054 145.186 15.8517L144.557 14.8651ZM150.446 20.5358H149.296C148.864 20.5222 148.433 20.5899 148.026 20.7353C147.731 20.8494 147.472 21.0375 147.272 21.2813C147.086 21.5148 146.957 21.788 146.895 22.0795C146.828 22.3928 146.796 22.7121 146.796 23.0322V23.5631C146.787 23.869 146.844 24.1732 146.962 24.4555C147.061 24.6891 147.207 24.8995 147.392 25.073C147.562 25.2387 147.765 25.367 147.988 25.4495C148.395 25.5937 148.84 25.5937 149.247 25.4495C149.464 25.3812 149.665 25.2684 149.836 25.1182C150.024 24.9534 150.176 24.7507 150.281 24.5233C150.409 24.2424 150.471 23.9357 150.462 23.6271L150.446 20.5358Z" fill="white"/>
<path d="M157.856 27.0535C157.859 27.1248 157.846 27.1959 157.817 27.2612C157.788 27.3265 157.745 27.3843 157.69 27.4301C157.6 27.5084 157.485 27.5536 157.366 27.5581H155.654C155.604 27.5564 155.555 27.5449 155.51 27.5242C155.465 27.5035 155.424 27.4741 155.39 27.4376C155.347 27.3924 155.314 27.3391 155.293 27.2809C155.272 27.2226 155.262 27.1607 155.266 27.0987V13.2987C155.261 13.2383 155.271 13.1777 155.294 13.1216C155.317 13.0655 155.352 13.0153 155.398 12.9749C155.477 12.9062 155.579 12.8687 155.684 12.8695H156.815C156.932 12.8633 157.048 12.8936 157.147 12.9561C157.195 12.994 157.236 13.0411 157.265 13.0948C157.295 13.1485 157.314 13.2076 157.321 13.2686L157.434 13.8598C157.792 13.4916 158.21 13.1862 158.67 12.9561C159.139 12.7228 159.655 12.6041 160.179 12.6097C160.727 12.6032 161.272 12.7056 161.781 12.9109C162.253 13.1028 162.68 13.3914 163.033 13.7581C163.38 14.1356 163.648 14.5786 163.821 15.0609C164.018 15.5987 164.115 16.1677 164.108 16.7402V27.11C164.115 27.231 164.075 27.3501 163.994 27.4414C163.959 27.4778 163.916 27.5067 163.868 27.5261C163.821 27.5455 163.77 27.5551 163.719 27.5543H161.909C161.858 27.5551 161.807 27.5455 161.76 27.5261C161.713 27.5067 161.67 27.4778 161.634 27.4414C161.554 27.3501 161.513 27.231 161.521 27.11V16.7591C161.51 16.5215 161.464 16.2868 161.385 16.0625C161.307 15.8446 161.19 15.6429 161.038 15.4676C160.885 15.2926 160.694 15.1538 160.48 15.0609C160.233 14.9553 159.965 14.904 159.696 14.9103C159.458 14.909 159.222 14.9604 159.006 15.0609C158.786 15.161 158.585 15.3 158.414 15.4713C158.241 15.647 158.103 15.854 158.007 16.0813C157.905 16.3193 157.854 16.5757 157.856 16.8344V27.0535Z" fill="white"/>
<path d="M175.05 23.7823C175.057 24.3431 174.94 24.8986 174.707 25.4089C174.481 25.8941 174.161 26.3293 173.764 26.6891C173.353 27.0533 172.877 27.338 172.361 27.5288C171.814 27.731 171.234 27.833 170.65 27.83C170.057 27.8347 169.468 27.7326 168.911 27.5288C168.395 27.3389 167.92 27.0541 167.509 26.6891C167.112 26.3293 166.792 25.8941 166.566 25.4089C166.333 24.8986 166.216 24.3431 166.223 23.7823V16.6583C166.218 16.1015 166.326 15.5496 166.54 15.0354C166.742 14.5533 167.04 14.1167 167.414 13.7514C167.786 13.386 168.229 13.1003 168.715 12.9117C169.234 12.7084 169.787 12.6061 170.344 12.6105C170.71 12.6126 171.073 12.6685 171.423 12.7762C171.79 12.8859 172.143 13.0375 172.475 13.228V8.17493C172.47 8.05676 172.505 7.9404 172.573 7.84358C172.612 7.79885 172.661 7.76394 172.716 7.74169C172.771 7.71944 172.83 7.71049 172.889 7.71556H174.631C174.691 7.70988 174.751 7.71853 174.807 7.7408C174.863 7.76307 174.913 7.79831 174.952 7.84358C175.027 7.93738 175.066 8.05497 175.061 8.17493L175.05 23.7823ZM172.463 16.7185C172.464 16.4821 172.418 16.2479 172.328 16.0294C172.238 15.8092 172.106 15.6084 171.939 15.4383C171.773 15.2788 171.579 15.1512 171.366 15.0617C171.138 14.9614 170.891 14.9101 170.642 14.9111C170.389 14.9094 170.139 14.9607 169.907 15.0617C169.692 15.1504 169.495 15.2781 169.326 15.4383C168.994 15.7836 168.809 16.2437 168.81 16.7223V23.722C168.809 23.9584 168.855 24.1927 168.945 24.4111C169.033 24.6278 169.161 24.8258 169.322 24.9947C169.489 25.1644 169.686 25.3011 169.903 25.3976C170.135 25.4987 170.385 25.55 170.638 25.5482C170.888 25.5493 171.134 25.498 171.362 25.3976C171.578 25.3007 171.774 25.164 171.939 24.9947C172.101 24.8258 172.229 24.6278 172.316 24.4111C172.407 24.1927 172.453 23.9584 172.452 23.722L172.463 16.7185Z" fill="white"/>
<path d="M176.675 23.4503C176.675 23.1717 176.86 23.0324 177.237 23.0324H178.745C178.994 23.0324 179.122 23.1755 179.122 23.4654V23.8419C179.121 24.0815 179.17 24.3187 179.265 24.5385C179.356 24.7483 179.491 24.9359 179.661 25.0882C179.831 25.251 180.03 25.379 180.249 25.4648C180.49 25.5544 180.746 25.5978 181.003 25.5928C181.246 25.5936 181.487 25.5476 181.712 25.4573C181.933 25.3719 182.134 25.2439 182.304 25.0807C182.473 24.9051 182.607 24.6995 182.7 24.4745C182.796 24.2483 182.845 24.0048 182.844 23.7591C182.843 23.4688 182.749 23.1865 182.576 22.9533C182.375 22.6745 182.135 22.4259 181.863 22.2153C181.526 21.9463 181.175 21.6949 180.811 21.4622C180.408 21.2099 179.978 20.9238 179.522 20.6113C179.154 20.3834 178.801 20.1318 178.466 19.8582C178.144 19.6091 177.851 19.3235 177.595 19.0072C177.346 18.6802 177.149 18.317 177.01 17.9303C176.859 17.5037 176.785 17.0537 176.792 16.6012C176.79 16.0637 176.895 15.5312 177.101 15.0348C177.302 14.5571 177.598 14.1254 177.972 13.7659C178.357 13.401 178.809 13.1134 179.303 12.9187C179.836 12.7084 180.404 12.6036 180.977 12.6099C181.583 12.6011 182.184 12.7032 182.753 12.9111C183.25 13.0975 183.705 13.3832 184.088 13.7508C184.46 14.1112 184.747 14.5498 184.929 15.0348C185.125 15.5532 185.223 16.1034 185.219 16.6576V17.0342C185.226 17.0851 185.218 17.137 185.198 17.1841C185.177 17.2312 185.144 17.2718 185.102 17.3015C184.989 17.3509 184.867 17.3728 184.744 17.3655H183.262C183.206 17.372 183.15 17.3652 183.098 17.3457C183.045 17.3263 182.998 17.2947 182.96 17.2535C182.922 17.2124 182.895 17.1629 182.88 17.1091C182.865 17.0552 182.863 16.9986 182.874 16.9438V16.6012C182.877 16.3572 182.831 16.1152 182.738 15.8895C182.65 15.6797 182.522 15.4891 182.361 15.3285C182.202 15.1668 182.012 15.0387 181.803 14.9519C181.583 14.8605 181.347 14.8144 181.109 14.8164C180.868 14.8139 180.629 14.8626 180.408 14.9595C180.204 15.0479 180.019 15.1759 179.865 15.336C179.711 15.5042 179.591 15.7013 179.514 15.9159C179.432 16.1414 179.391 16.3799 179.393 16.62C179.379 16.8582 179.421 17.0964 179.517 17.3151C179.613 17.5337 179.759 17.7265 179.944 17.8776C180.178 18.0844 180.431 18.2696 180.698 18.4311L181.852 19.1352C182.317 19.4004 182.766 19.6921 183.198 20.0088C183.613 20.3105 183.992 20.6578 184.329 21.0443C184.662 21.4216 184.934 21.8484 185.136 22.3094C185.335 22.7692 185.435 23.2657 185.43 23.7666C185.436 24.3203 185.331 24.8696 185.121 25.3819C184.92 25.867 184.62 26.3044 184.239 26.6659C183.842 27.038 183.375 27.3285 182.866 27.5207C182.303 27.7305 181.706 27.8352 181.105 27.8294C180.398 27.8497 179.693 27.7373 179.028 27.4981C178.512 27.3091 178.047 27.0052 177.666 26.6094C177.323 26.2398 177.065 25.7987 176.912 25.3179C176.757 24.8207 176.68 24.3025 176.682 23.7817L176.675 23.4503Z" fill="white"/>
<path d="M188.014 27.5695L192.783 0.458984H199.22L194.45 27.5695H188.014Z" fill="white"/>
<path d="M211.55 2.13118L212.907 10.543L209.691 16.6616H221.828L224 27.5811H217.564L216.478 21.5039H207.248L204.069 27.5811H197.516L211.55 2.13118ZM221.515 15.1404H215.43L213.039 0.93004L218.533 0L221.515 15.1404Z" fill="white"/>
<path d="M73.47 35.1347C73.7269 34.8764 74.0324 34.6712 74.3688 34.531C74.7053 34.3908 75.0661 34.3183 75.4307 34.3176H79.7292C79.7423 34.3167 79.7555 34.3186 79.7678 34.3232C79.7801 34.3277 79.7914 34.3348 79.8008 34.3439C79.8097 34.3528 79.8166 34.3634 79.8212 34.3751C79.8257 34.3867 79.8278 34.3992 79.8272 34.4117V44.9923C79.8274 45.0031 79.8251 45.0138 79.8205 45.0236C79.8159 45.0334 79.8092 45.042 79.8008 45.0488C79.7914 45.0579 79.7801 45.065 79.7678 45.0696C79.7555 45.0741 79.7423 45.076 79.7292 45.0752H77.7572C77.7464 45.0748 77.7359 45.0723 77.7262 45.0678C77.7165 45.0633 77.7078 45.0568 77.7006 45.0488C77.6922 45.042 77.6855 45.0334 77.6809 45.0236C77.6764 45.0138 77.6741 45.0031 77.6742 44.9923V36.1664H75.8719C75.7517 36.1663 75.6328 36.1903 75.5221 36.2369C75.4113 36.2834 75.311 36.3516 75.2271 36.4375L66.5547 45.0563C66.5338 45.0625 66.5115 45.0625 66.4906 45.0563H63.723C63.7047 45.0591 63.6859 45.0553 63.6701 45.0457C63.6542 45.0361 63.6423 45.0212 63.6363 45.0036C63.6288 44.9871 63.6269 44.9685 63.631 44.9509C63.6351 44.9332 63.6449 44.9173 63.6589 44.9057L73.47 35.1347Z" fill="white"/>
<path d="M99.2455 43.2376C99.258 43.237 99.2705 43.2391 99.2822 43.2436C99.2939 43.2482 99.3045 43.2551 99.3133 43.2639C99.3218 43.2715 99.3285 43.2808 99.3331 43.2912C99.3377 43.3016 99.3399 43.3128 99.3397 43.3242V44.9809C99.3405 44.9935 99.3386 45.006 99.334 45.0177C99.3294 45.0294 99.3224 45.04 99.3133 45.0487C99.3045 45.0575 99.2939 45.0645 99.2822 45.069C99.2705 45.0735 99.258 45.0756 99.2455 45.0751H87.025C86.6198 45.077 86.2184 44.9988 85.8437 44.8449C85.4691 44.6911 85.1287 44.4645 84.8422 44.1785C84.5557 43.8924 84.3289 43.5525 84.1748 43.1784C84.0207 42.8042 83.9424 42.4033 83.9444 41.9988V37.3937C83.9424 36.9892 84.0207 36.5883 84.1748 36.2142C84.3289 35.84 84.5557 35.5001 84.8422 35.214C85.1287 34.928 85.4691 34.7015 85.8437 34.5476C86.2184 34.3937 86.6198 34.3155 87.025 34.3175H99.2455C99.258 34.3169 99.2705 34.319 99.2822 34.3235C99.2938 34.3281 99.3044 34.335 99.3133 34.3439C99.3222 34.3527 99.3291 34.3633 99.3336 34.375C99.3382 34.3866 99.3403 34.3991 99.3397 34.4116V36.0721C99.3399 36.0829 99.3376 36.0936 99.333 36.1034C99.3284 36.1132 99.3217 36.1218 99.3133 36.1286C99.3045 36.1374 99.2939 36.1444 99.2822 36.1489C99.2705 36.1534 99.258 36.1555 99.2455 36.155H87.025C86.9025 36.153 86.781 36.1764 86.6681 36.2237C86.5551 36.2711 86.4533 36.3412 86.3689 36.4298C86.2818 36.5144 86.2129 36.6158 86.1662 36.7277C86.1196 36.8397 86.0961 36.96 86.0974 37.0812V42.3113C86.0961 42.4326 86.1196 42.5528 86.1662 42.6648C86.2129 42.7768 86.2818 42.8781 86.3689 42.9627C86.4533 43.0513 86.5551 43.1215 86.6681 43.1688C86.781 43.2161 86.9025 43.2395 87.025 43.2376H99.2455Z" fill="white"/>
<path d="M103.457 37.3824C103.457 36.9788 103.536 36.5791 103.691 36.2063C103.846 35.8335 104.073 35.4949 104.359 35.21C104.645 34.9252 104.985 34.6996 105.359 34.5465C105.733 34.3933 106.134 34.3154 106.538 34.3174H115.757C116.572 34.3164 117.355 34.6387 117.932 35.2133C118.51 35.788 118.835 36.5682 118.837 37.3824V44.9809C118.838 44.9934 118.836 45.006 118.832 45.0177C118.827 45.0294 118.82 45.0399 118.811 45.0486C118.802 45.0575 118.792 45.0644 118.78 45.0689C118.768 45.0735 118.756 45.0755 118.743 45.075H116.771C116.76 45.0752 116.749 45.0729 116.738 45.0684C116.728 45.0638 116.718 45.0571 116.711 45.0486C116.702 45.0399 116.695 45.0294 116.69 45.0177C116.686 45.006 116.684 44.9934 116.684 44.9809V41.5356H105.61V44.9809C105.611 44.9934 105.609 45.006 105.604 45.0177C105.6 45.0294 105.593 45.0399 105.584 45.0486C105.576 45.0571 105.567 45.0638 105.557 45.0684C105.546 45.0729 105.535 45.0752 105.523 45.075H103.551C103.539 45.0755 103.526 45.0735 103.515 45.0689C103.503 45.0644 103.492 45.0575 103.484 45.0486C103.475 45.0399 103.467 45.0294 103.463 45.0177C103.458 45.006 103.456 44.9934 103.457 44.9809V37.3824ZM116.7 39.6981V37.0624C116.695 36.8167 116.593 36.5828 116.416 36.4115C116.24 36.2403 116.003 36.1453 115.757 36.1474H106.538C106.292 36.1474 106.056 36.245 105.882 36.4187C105.708 36.5924 105.61 36.828 105.61 37.0737V39.7094L116.7 39.6981Z" fill="white"/>
<path d="M135.274 34.3174C135.679 34.3154 136.081 34.3937 136.456 34.5475C136.83 34.7014 137.171 34.928 137.457 35.214C137.744 35.5001 137.97 35.84 138.124 36.2141C138.279 36.5883 138.357 36.9892 138.355 37.3937V41.9987C138.357 42.4033 138.279 42.8042 138.124 43.1783C137.97 43.5525 137.744 43.8924 137.457 44.1785C137.171 44.4645 136.83 44.691 136.456 44.8449C136.081 44.9988 135.679 45.077 135.274 45.075H123.058C123.046 45.0755 123.035 45.0733 123.024 45.0688C123.014 45.0642 123.005 45.0573 122.997 45.0487C122.988 45.04 122.981 45.0294 122.977 45.0177C122.972 45.006 122.97 44.9934 122.971 44.9809V34.4116C122.97 34.3991 122.972 34.3866 122.977 34.3749C122.981 34.3633 122.988 34.3527 122.997 34.3438C123.005 34.3351 123.014 34.3283 123.024 34.3237C123.035 34.3191 123.046 34.317 123.058 34.3174H135.274ZM136.202 37.0812C136.203 36.9599 136.18 36.8397 136.133 36.7277C136.086 36.6157 136.017 36.5144 135.93 36.4298C135.846 36.3412 135.744 36.271 135.631 36.2237C135.518 36.1764 135.397 36.153 135.274 36.1549H125.124V43.2375H135.274C135.397 43.2395 135.518 43.2161 135.631 43.1688C135.744 43.1214 135.846 43.0513 135.93 42.9627C136.017 42.8781 136.086 42.7767 136.133 42.6648C136.18 42.5528 136.203 42.4325 136.202 42.3113V37.0812Z" fill="white"/>
<path d="M144.625 38.7832H156.231C156.244 38.7824 156.258 38.7843 156.27 38.7889C156.282 38.7934 156.294 38.8005 156.303 38.8096C156.32 38.8295 156.329 38.8549 156.329 38.8811V40.5379C156.329 40.5628 156.319 40.5868 156.303 40.6057C156.294 40.6148 156.282 40.6219 156.27 40.6264C156.258 40.631 156.244 40.6329 156.231 40.632H144.625V42.3227C144.627 42.5677 144.726 42.8022 144.899 42.9755C145.073 43.1488 145.308 43.247 145.553 43.2489H157.774C157.786 43.2482 157.799 43.2501 157.81 43.2547C157.822 43.2592 157.833 43.2663 157.841 43.2753C157.85 43.2829 157.857 43.2922 157.861 43.3026C157.866 43.313 157.868 43.3242 157.868 43.3355V44.9923C157.868 45.0048 157.866 45.0173 157.862 45.0289C157.857 45.0406 157.85 45.0512 157.841 45.06C157.832 45.0689 157.822 45.0758 157.81 45.0804C157.799 45.0849 157.786 45.087 157.774 45.0864H145.545C145.14 45.0884 144.739 45.0102 144.364 44.8563C143.99 44.7024 143.649 44.4759 143.363 44.1899C143.076 43.9038 142.849 43.5639 142.695 43.1897C142.541 42.8156 142.463 42.4147 142.465 42.0101V37.3938C142.463 36.9893 142.541 36.5884 142.695 36.2142C142.849 35.8401 143.076 35.5002 143.363 35.2141C143.649 34.9281 143.99 34.7015 144.364 34.5477C144.739 34.3938 145.14 34.3156 145.545 34.3176H157.766C157.779 34.3168 157.791 34.3187 157.803 34.3233C157.815 34.3278 157.825 34.3349 157.834 34.3439C157.843 34.3528 157.85 34.3634 157.854 34.375C157.859 34.3867 157.861 34.3992 157.86 34.4117V36.0722C157.86 36.083 157.858 36.0937 157.854 36.1035C157.849 36.1132 157.842 36.1219 157.834 36.1287C157.825 36.1377 157.815 36.1448 157.803 36.1493C157.791 36.1539 157.779 36.1558 157.766 36.155H145.545C145.3 36.157 145.065 36.2552 144.892 36.4285C144.718 36.6018 144.62 36.8363 144.618 37.0813L144.625 38.7832Z" fill="white"/>
<path d="M174.915 34.3174C175.319 34.3169 175.72 34.3961 176.094 34.5505C176.468 34.705 176.808 34.9315 177.094 35.2173C177.38 35.5031 177.607 35.8424 177.762 36.2158C177.916 36.5893 177.996 36.9895 177.995 37.3937V44.9921C177.995 45.0029 177.993 45.0136 177.989 45.0234C177.984 45.0332 177.977 45.0418 177.969 45.0486C177.96 45.0575 177.949 45.0644 177.938 45.0689C177.926 45.0735 177.914 45.0755 177.901 45.075H175.929C175.918 45.0752 175.906 45.0729 175.896 45.0684C175.886 45.0638 175.876 45.0571 175.869 45.0486C175.86 45.0418 175.854 45.0332 175.849 45.0234C175.844 45.0136 175.842 45.0029 175.842 44.9921V37.0849C175.844 36.9646 175.821 36.8453 175.774 36.7344C175.728 36.6236 175.658 36.5237 175.571 36.441C175.486 36.3529 175.384 36.2833 175.271 36.2367C175.158 36.19 175.037 36.1673 174.915 36.1699H171.069V44.9959C171.067 45.0173 171.058 45.0375 171.042 45.0524C171.033 45.0615 171.022 45.0686 171.009 45.0731C170.997 45.0777 170.984 45.0796 170.971 45.0787H169.01C168.997 45.0796 168.984 45.0777 168.971 45.0731C168.959 45.0686 168.948 45.0615 168.938 45.0524C168.923 45.0375 168.913 45.0173 168.912 44.9959V36.1662H165.066C164.944 36.1637 164.822 36.1866 164.71 36.2332C164.597 36.2799 164.495 36.3494 164.41 36.4373C164.322 36.5199 164.253 36.6198 164.206 36.7307C164.159 36.8415 164.136 36.9609 164.138 37.0811V44.9884C164.139 44.9992 164.136 45.0099 164.132 45.0196C164.127 45.0294 164.12 45.038 164.112 45.0448C164.105 45.0528 164.096 45.0593 164.086 45.0638C164.077 45.0684 164.066 45.0709 164.055 45.0712H162.083C162.07 45.072 162.057 45.0701 162.045 45.0656C162.032 45.0611 162.021 45.054 162.012 45.0448C162.003 45.038 161.997 45.0294 161.992 45.0196C161.987 45.0099 161.985 44.9992 161.985 44.9884V37.3937C161.987 36.5784 162.313 35.7971 162.89 35.2206C163.467 34.6441 164.25 34.3194 165.066 34.3174H174.915Z" fill="white"/>
<path d="M195.969 34.4042C195.969 34.3928 195.971 34.3816 195.976 34.3712C195.98 34.3608 195.987 34.3515 195.996 34.3439C196.005 34.3348 196.016 34.3277 196.029 34.3232C196.041 34.3186 196.054 34.3167 196.067 34.3176H198.028C198.041 34.317 198.053 34.3191 198.065 34.3236C198.076 34.3282 198.087 34.3351 198.096 34.3439C198.104 34.3515 198.111 34.3608 198.116 34.3712C198.12 34.3816 198.123 34.3928 198.122 34.4042V37.4165C198.127 37.8386 198.004 38.2522 197.768 38.6025C197.534 38.9559 197.201 39.2324 196.81 39.397L191.196 41.773V44.981C191.196 45.0061 191.186 45.0302 191.169 45.0488C191.162 45.0573 191.152 45.064 191.142 45.0685C191.132 45.0731 191.12 45.0753 191.109 45.0752H189.137C189.124 45.076 189.111 45.0741 189.098 45.0696C189.086 45.065 189.075 45.0579 189.065 45.0488C189.048 45.0302 189.039 45.0061 189.039 44.981V41.773L183.425 39.397C183.034 39.231 182.7 38.9533 182.467 38.5988C182.233 38.2491 182.109 37.8371 182.112 37.4165V34.4042C182.112 34.3928 182.114 34.3816 182.119 34.3712C182.124 34.3608 182.13 34.3515 182.139 34.3439C182.148 34.3348 182.159 34.3277 182.172 34.3232C182.184 34.3186 182.197 34.3167 182.21 34.3176H184.182C184.193 34.3179 184.204 34.3204 184.213 34.325C184.223 34.3295 184.232 34.3359 184.239 34.3439C184.247 34.3515 184.254 34.3608 184.259 34.3712C184.263 34.3816 184.266 34.3928 184.265 34.4042V36.9947C184.265 37.1774 184.32 37.3559 184.422 37.5075C184.524 37.6591 184.669 37.7768 184.839 37.8457L190.117 40.0635L195.396 37.8457C195.564 37.7751 195.706 37.6566 195.806 37.5052C195.906 37.3537 195.959 37.1761 195.958 36.9947L195.969 34.4042Z" fill="white"/>
</g>
<defs>
<clipPath id="clip0_903_5121">
<rect width="224" height="50" fill="white"/>
</clipPath>
</defs>
</svg>
