<svg width="34" height="49" viewBox="0 0 34 49" fill="none" xmlns="http://www.w3.org/2000/svg">
<g clip-path="url(#clip0_647_4461)">
<path d="M0.114868 9.43945L0.120217 9.87117C0.123164 10.1086 0.804965 17.9703 1.63535 27.3415L3.14513 44.3801L9.93089 46.297C13.6631 47.3513 16.7937 48.2193 16.8878 48.2259C16.9819 48.2326 20.1539 47.3734 23.9366 46.3166C30.0015 44.6222 30.8202 44.367 30.8636 44.1573C30.9241 43.8651 33.8941 10.0602 33.8911 9.69848L33.8889 9.43945H17.0018H0.114868Z" fill="white"/>
<path d="M9.98414 46.4116L3.13804 44.4808L3.04857 43.9699C2.96905 43.5157 0.000244141 10.0597 0.000244141 9.6176C0.000244141 9.45762 1.73365 9.43945 17.0014 9.43945C33.1174 9.43945 34.0025 9.44994 34.0012 9.64092C33.9958 10.4658 30.9229 44.3649 30.8474 44.4324C30.752 44.5176 17.5012 48.2423 17.0584 48.3084C16.9329 48.3271 13.7495 47.4735 9.98414 46.4116ZM21.3182 39.5893C23.6193 38.949 25.5352 38.392 25.5757 38.3517C25.6163 38.3113 25.8856 35.5585 26.1741 32.2343C26.4626 28.91 26.7278 25.97 26.7634 25.7009L26.8281 25.2116H21.8577H16.8873V27.3414V29.4713H19.5708H22.2544L22.201 29.7303C22.1717 29.8728 22.0575 31.097 21.9474 32.451C21.8307 33.8855 21.6924 34.9679 21.6158 35.0451C21.5436 35.118 20.4501 35.4558 19.1859 35.7958L16.8873 36.414V38.5838C16.8873 40.0647 16.9265 40.7535 17.0109 40.7535C17.0789 40.7535 19.0172 40.2296 21.3182 39.5893ZM26.7627 22.535C26.6873 21.9708 26.0154 14.4046 26.0154 14.1193C26.0154 13.946 25.6204 13.9293 21.5084 13.9293H17.0014V16.1565V18.3836L19.0267 18.4624C20.1406 18.5057 21.3129 18.5716 21.6318 18.6089L22.2116 18.6766L22.3523 20.4187C22.4297 21.3769 22.522 22.3551 22.5573 22.5925L22.6215 23.0242H24.7248H26.8281L26.7627 22.535Z" fill="#EAEBEC"/>
<path d="M9.93042 46.2969L3.14468 44.38L1.63489 27.3414C0.804502 17.9702 0.122684 10.1086 0.119737 9.87117L0.11438 9.43945H17.0014H33.8885L33.8906 9.69849C33.8937 10.0602 30.9237 43.8651 30.8632 44.1573C30.8197 44.3671 30.001 44.6223 23.9362 46.3166C20.1534 47.3734 16.9815 48.2326 16.8873 48.226C16.7932 48.2193 13.6626 47.3512 9.93042 46.2969ZM21.3234 39.6707C23.6691 39.0127 25.6216 38.42 25.6623 38.3536C25.703 38.2871 25.9832 35.3937 26.285 31.9237C26.5869 28.4537 26.8585 25.5239 26.8887 25.4131C26.9406 25.2227 26.5415 25.2116 19.6563 25.2116H12.3691L12.6793 21.9018C12.85 20.0813 12.9937 18.5872 12.9987 18.5814C13.0038 18.5757 14.0733 18.5413 15.3755 18.5049C17.5107 18.4454 21.9139 18.6173 22.0612 18.7659C22.1162 18.8214 22.4783 22.4053 22.4783 22.8946C22.4783 23.1358 22.5106 23.1394 24.6893 23.1394H26.9002L26.8481 22.6501C26.8195 22.381 26.6322 20.2958 26.4319 18.0163L26.0678 13.8718L17.5411 13.8423C10.7576 13.8188 9.01411 13.8423 9.01337 13.9574C9.01277 14.0369 8.96313 14.5424 8.90288 15.0806C8.75708 16.383 7.64509 28.9666 7.64509 29.3142V29.5864H14.9006H22.156L22.0914 30.0181C22.0558 30.2555 21.943 31.46 21.8407 32.6948C21.7385 33.9295 21.6219 34.9716 21.5816 35.0106C21.4753 35.1135 17.207 36.264 16.9408 36.2615C16.8173 36.2603 15.7149 35.9828 14.4912 35.6448L12.2662 35.0303L12.1846 34.064C12.1397 33.5325 12.0715 32.7739 12.0329 32.3782L11.9628 31.6586H9.80394H7.64509L7.64987 32.0903C7.6588 32.8977 8.17769 38.336 8.25304 38.412C8.34019 38.5 16.632 40.8517 16.8873 40.8609C16.9815 40.8643 18.9777 40.3287 21.3234 39.6707Z" fill="#F0BE25"/>
<path d="M9.93042 46.2969L3.14468 44.38L1.63489 27.3414C0.804502 17.9702 0.122684 10.1086 0.119737 9.87117L0.11438 9.43945H17.0014H33.8885L33.8906 9.69849C33.8937 10.0602 30.9237 43.8651 30.8632 44.1573C30.8197 44.3671 30.001 44.6223 23.9362 46.3166C20.1534 47.3734 16.9815 48.2326 16.8873 48.226C16.7932 48.2193 13.6626 47.3512 9.93042 46.2969ZM22.585 43.7324C25.57 42.9014 28.0683 42.1631 28.1368 42.0919C28.2435 41.981 30.8215 13.4728 30.8112 12.5191L30.8077 12.2025H23.9046H17.0014V13.0083V13.8142H13.0079C9.88958 13.8142 9.0141 13.8458 9.01337 13.9581C9.01277 14.0373 8.96313 14.5424 8.90288 15.0806C8.75708 16.383 7.64509 28.9666 7.64509 29.3142V29.5864H12.3233H17.0014V32.925C17.0014 35.5203 16.9697 36.2632 16.8588 36.2615C16.7803 36.2603 15.7149 35.9828 14.4912 35.6448L12.2662 35.0303L12.1846 34.064C12.1397 33.5325 12.0715 32.7739 12.0329 32.3782L11.9628 31.6586H9.80394H7.64509L7.64987 32.0903C7.66354 33.3252 8.19298 38.3658 8.31715 38.4432C8.39262 38.4903 10.3775 39.0657 12.7279 39.7219L17.0014 40.9151V43.0793C17.0014 44.2695 17.0366 45.2434 17.0795 45.2434C17.1225 45.2434 19.6 44.5635 22.585 43.7324ZM12.6673 21.9327C12.8313 20.1293 12.9879 18.6334 13.0152 18.6084C13.0426 18.5835 13.9506 18.5384 15.0332 18.5081L17.0014 18.4532V21.8324V25.2116H14.6852H12.3691L12.6673 21.9327Z" fill="#E4A126"/>
<path d="M10.84 5.35332V4.25963H12.3803H13.9207V2.12982V0H15.0047H16.0886V3.22351V6.44701H13.4643H10.84V5.35332ZM17.1156 5.58358V4.72014H18.5418C19.3263 4.72014 19.9681 4.69088 19.9681 4.65512C19.9681 4.61936 19.3263 3.88826 18.5418 3.03045L17.1156 1.4708V0.735401V0H20.0822H23.0488V0.859896V1.71979L21.6561 1.75212L20.2634 1.78444L21.7132 3.35972L23.1629 4.93501V5.69101V6.44701H20.1392H17.1156V5.58358Z" fill="white"/>
</g>
<defs>
<clipPath id="clip0_647_4461">
<rect width="34.001" height="48.3095" fill="white"/>
</clipPath>
</defs>
</svg>
