<svg width="164" height="80" viewBox="0 0 164 80" fill="none" xmlns="http://www.w3.org/2000/svg">
<path d="M2.82592 52.8544C3.03219 54.6001 3.93981 56.7998 4.71334 58.374C2.84654 58.2832 2.62995 54.7918 2.35148 53.3185C2.13489 52.1076 0.866292 48.8685 2.82592 49.1813C2.74341 50.2207 2.71246 51.8453 2.82592 52.8544Z" fill="white"/>
<path d="M7.5394 42.2889C5.98201 42.8137 3.87799 44.9832 3.30042 46.4262L2.82598 45.962C4.6309 42.7229 5.95107 41.5927 8.48827 39.07C8.97302 38.5856 9.44745 38.293 9.90126 37.6876C10.0972 37.4252 10.6954 37.516 10.8501 36.5372C11.3658 33.3788 7.96226 33.3485 5.65197 31.7138C3.32105 30.069 0.0825105 26.3859 0 23.4495C1.85649 21.6029 1.55739 22.279 3.76454 21.6029C4.96094 21.2497 6.08515 20.4223 7.5394 20.6947C7.97258 21.7139 5.84793 21.9258 5.18785 22.0671C8.16854 24.4485 16.1308 24.8824 13.377 30.291C11.7474 33.4898 9.97346 32.1881 7.58065 30.5332C4.98157 28.727 -0.701339 24.176 4.23898 22.0671C4.09458 22.1074 3.91925 22.0267 3.76454 22.0671C2.49594 22.39 0.226904 22.6725 0.526004 24.4888C0.773536 25.952 4.74435 30.3213 6.12641 31.2597C8.49858 32.8743 13.3564 33.4999 11.2524 37.3949C10.5098 38.7774 9.32369 38.7168 8.9627 39.07C8.20979 39.7965 7.5394 40.9368 6.60084 41.6028L7.5394 41.8248C8.03446 41.0175 12.2631 41.29 12.2631 41.6028C10.6851 41.966 9.12772 41.744 7.5394 42.2889Z" fill="white"/>
<path d="M31.127 68.9388C28.301 69.1103 25.8566 68.9085 23.1132 68.4847C18.1522 67.6976 14.9756 66.2243 10.8397 63.8833C9.37515 63.0558 9.36484 63.076 8.01373 62.0468C6.37383 60.7955 6.47697 61.6431 5.18774 59.292C6.20881 59.9782 7.03392 60.846 8.01373 61.5927C8.99354 62.3293 9.77739 62.8238 10.8397 63.4292C14.0989 65.2455 19.4414 67.3747 23.1132 68.0205C24.8046 68.3232 27.3109 68.5856 29.023 68.4948C30.1575 68.4342 32.8597 67.4251 33.0041 67.5664C34.0149 68.4746 31.3229 68.8681 31.127 68.9388Z" fill="white"/>
<path d="M11.3453 50.351C6.54939 51.9453 5.40456 45.457 9.30318 44.6699C13.0883 43.903 14.5013 49.3116 11.3453 50.351Z" fill="white"/>
<path d="M14.0783 20.1598C14.1918 20.069 14.4084 18.9792 15.5635 17.9298C16.4608 17.1124 17.8841 15.952 18.8639 15.175C19.9263 14.3274 21.0092 13.5907 22.1643 12.8743C24.619 11.3405 25.1038 9.78652 27.8266 12.4202C29.2087 13.7623 29.5697 14.1155 28.7652 16.0932C28.5073 16.7491 26.9809 18.848 26.4136 19.3122C26.3208 19.3828 26.032 19.2315 25.9392 19.3122C25.6814 20.7653 26.6921 20.1295 27.5791 20.2204C32.5297 20.6644 36.5727 21.956 40.5642 24.8218C40.4404 22.7229 40.3476 20.8864 41.9772 19.3122C43.6583 17.6674 45.783 17.3849 47.4332 19.2819C48.0211 19.958 50.7955 27.4857 50.9399 28.5049C51.1462 29.968 50.9089 31.6734 50.4655 33.0962C51.4865 33.1164 52.8995 34.3071 52.817 35.3969L49.5269 33.5604C46.9278 34.075 46.8659 33.964 44.339 33.5604C43.2767 33.3888 43.287 32.8338 41.9772 34.0144C41.7812 32.2284 41.7297 30.856 39.6566 30.8157C39.5638 31.2597 39.2647 33.1971 38.914 33.0962C36.7378 32.4403 36.8306 27.0114 33.9634 30.7955L31.8284 26.2042C31.7665 31.4312 28.7446 26.5473 27.61 26.3858C26.8262 26.2748 25.1141 27.0014 24.0518 26.6583C25.1244 25.2052 28.0535 24.0649 24.0518 24.8218C23.8558 24.8621 23.6599 24.9126 23.4536 24.9731C23.4329 24.9731 23.4123 24.9731 23.402 24.9832C22.4738 25.2355 21.4733 25.5887 20.2769 25.2758L20.5966 24.6603C20.5038 24.5796 20.4626 24.4888 20.4832 24.3778C18.8846 24.3979 17.7913 23.8732 16.5021 22.9852C15.5841 22.3596 14.4496 20.6946 14.2846 20.6644C13.0985 20.402 11.8093 21.7138 10.8501 20.4525C11.4999 19.7865 13.5626 20.624 14.0783 20.1598Z" fill="white"/>
<path d="M15.5532 43.4295C15.2438 43.258 13.8102 43.0562 14.625 42.2893C14.8622 42.0572 20.5141 44.8119 20.7514 45.0541C20.9886 45.2963 20.8751 46.2751 20.05 45.9623C19.3487 45.6898 16.4918 43.9744 15.5532 43.4295Z" fill="white"/>
<path d="M23.6703 31.0979C23.8972 31.219 24.3407 30.9869 24.5057 31.108C26.0425 32.1272 25.4855 32.7427 24.0519 33.5601C24.2272 33.661 24.382 33.9536 24.5263 34.0142C25.8259 34.5591 26.455 34.7811 26.3931 36.4965C26.2178 40.9869 19.2766 41.5923 19.8026 36.779C20.3596 36.7589 22.9896 36.4259 23.1134 36.3048C23.1855 36.2442 22.4017 35.0031 23.1134 34.4783C22.9174 34.3875 22.7627 34.1756 22.6389 34.0142C22.1129 34.216 21.3291 34.3472 20.7515 34.4783C20.669 34.4985 20.5968 34.5086 20.5246 34.5288C19.4623 34.8315 19.0703 35.3865 17.9255 33.7821C17.678 32.3996 18.7816 33.7114 18.8641 33.5601C19.225 32.884 16.8013 30.2301 20.2771 33.0959C20.112 32.3391 20.0192 31.552 19.8129 30.8053L21.2156 32.1776L21.4528 29.877L22.8761 32.1776L23.1134 30.3411C23.8766 30.1393 23.4434 30.9768 23.6703 31.0979Z" fill="white"/>
<path d="M33.953 37.2336C35.6857 44.388 27.7647 45.4879 28.301 39.5343C28.6311 39.7563 31.0651 39.6554 31.127 39.5343C31.2611 39.2719 30.7454 38.6665 30.7866 38.3739C30.9929 37.163 32.2718 38.0611 32.7978 38.0812C33.1279 38.1014 32.7256 37.1428 33.953 37.2336Z" fill="white"/>
<path d="M31.3643 59.8268C30.8693 59.8268 27.1666 63.3384 25.4648 62.511C24.8563 62.8238 24.8047 62.8843 24.0518 62.9651C20.6895 65.296 17.3375 63.3586 15.0891 60.6644C14.3568 59.7966 13.7896 59.1306 13.2636 58.0811C11.7784 55.1548 12.9645 52.9853 8.48828 53.7724V52.4C10.386 53.6008 14.3465 50.0085 14.8416 50.0994C16.4196 50.3819 14.3156 51.8249 14.1918 52.2588C13.7896 53.7623 18.0182 56.3455 19.3384 56.9913C21.5353 58.0811 27.6513 59.4838 29.7347 58.1619C30.663 57.5766 28.9818 55.1447 31.1477 55.8309C31.0858 57.0115 34.8194 60.6644 34.4275 61.1286C33.3343 62.3899 31.6944 59.8268 31.3643 59.8268Z" fill="white"/>
<path d="M25.9392 48.2623C25.2894 48.0908 21.7724 46.9203 21.6899 46.6478C21.1432 44.892 25.5575 47.6972 25.9392 47.7982C28.1669 48.4137 31.7871 48.5449 34.1902 48.7265C34.8194 48.777 36.1705 48.3128 35.8507 49.4026C35.5929 50.2704 27.1252 48.5651 25.9392 48.2623Z" fill="white"/>
<path d="M37.8722 58.2726C32.9319 59.6954 32.179 53.4795 35.7166 52.4704C39.739 51.3301 41.0901 57.3442 37.8722 58.2726Z" fill="white"/>
<path d="M33.953 37.2338C33.7261 36.2853 33.7983 35.7807 33.0144 34.9432C33.9014 35.0239 34.613 35.0138 34.4377 34.0249C35.2422 33.8029 34.7059 34.7111 34.9431 34.9028C35.2216 35.1248 36.0157 34.3983 36.2426 34.5698C36.5211 34.7918 35.9126 35.9725 37.7278 34.9331C38.0991 35.4578 37.6247 37.6072 37.7484 37.6677C38.9964 38.3236 39.0996 36.6687 39.1408 39.9886C36.7996 40.4225 35.7888 37.3751 33.953 37.2338Z" fill="white"/>
<path d="M36.3149 66.1842C38.027 64.5394 38.8006 63.1468 39.8835 61.1388C40.2239 60.5232 39.7391 59.9682 41.0284 60.2104C41.6781 61.5727 37.0988 66.9107 36.3149 66.1842Z" fill="white"/>
<path d="M41.9875 58.5354C42.6373 57.5565 41.8328 55.7604 43.3902 56.0732L41.74 60.2003C39.9867 58.6867 41.6678 59.0096 41.9875 58.5354Z" fill="white"/>
<path d="M52.3736 38.8177C54.6117 39.3223 56.427 40.5332 58.4794 41.3707C58.3144 42.1881 58.4381 42.9247 57.7677 43.6512C56.231 45.3364 45.6387 46.5271 44.8755 44.297C44.597 43.4999 44.6795 40.7955 45.0508 39.9984C46.1235 37.6472 50.3624 38.3637 52.3736 38.8177Z" fill="white"/>
<path d="M58.9538 40.6746C58.9538 41.0682 58.5 41.2801 58.4794 41.3709L54.7148 36.3154C55.674 37.0722 58.9435 39.716 58.9538 40.6746Z" fill="white"/>
<path d="M43.3902 51.017C43.4521 51.9353 44.3494 53.7516 43.8647 55.1542C42.627 56.7284 42.9467 51.8747 42.9158 51.4812C42.792 49.8364 41.771 46.7688 44.1947 46.0524C46.0718 45.4873 49.4444 47.0513 52.1363 46.9C54.1372 46.789 55.8596 46.1129 57.6852 45.4166C58.0358 45.2855 59.2013 44.4479 58.7269 45.5075C56.8807 46.7284 53.8278 47.7375 51.6207 47.8182C47.1445 47.9595 42.8642 43.2976 43.3902 51.017Z" fill="white"/>
<path d="M9.30318 44.6699C13.0883 43.903 14.5013 49.3116 11.3453 50.351C6.54939 51.9453 5.40456 45.457 9.30318 44.6699Z" fill="white"/>
<path d="M14.0783 20.1598C14.1918 20.069 14.4084 18.9792 15.5635 17.9298C16.4608 17.1124 17.8841 15.952 18.8639 15.175C19.9263 14.3274 21.0092 13.5907 22.1643 12.8743C24.619 11.3405 25.1038 9.78652 27.8266 12.4202C29.2087 13.7623 29.5697 14.1155 28.7652 16.0932C28.5073 16.7491 26.9809 18.848 26.4136 19.3122C26.3208 19.3828 26.032 19.2315 25.9392 19.3122C25.6814 20.7653 26.6921 20.1295 27.5791 20.2204C32.5297 20.6644 36.5727 21.956 40.5642 24.8218C40.4404 22.7229 40.3476 20.8864 41.9772 19.3122C43.6583 17.6674 45.783 17.3849 47.4332 19.2819C48.0211 19.958 50.7955 27.4857 50.9399 28.5049C51.1462 29.968 50.9089 31.6734 50.4655 33.0962C51.4865 33.1164 52.8995 34.3071 52.817 35.3969L49.5269 33.5604C46.9278 34.075 46.8659 33.964 44.339 33.5604C43.2767 33.3888 43.287 32.8338 41.9772 34.0144C41.7812 32.2284 41.7297 30.856 39.6566 30.8157C39.5638 31.2597 39.2647 33.1971 38.914 33.0962C36.7378 32.4403 36.8306 27.0114 33.9634 30.7955L31.8284 26.2042C31.7665 31.4312 28.7446 26.5473 27.61 26.3858C26.8262 26.2748 25.1141 27.0014 24.0518 26.6583C25.1244 25.2052 28.0535 24.0649 24.0518 24.8218C23.8558 24.8621 23.6599 24.9126 23.4536 24.9731C23.4329 24.9731 23.4123 24.9731 23.402 24.9832C22.4738 25.2355 21.4733 25.5887 20.2769 25.2758L20.5966 24.6603C20.5038 24.5796 20.4626 24.4888 20.4832 24.3778C18.8846 24.3979 17.7913 23.8732 16.5021 22.9852C15.5841 22.3596 14.4496 20.6946 14.2846 20.6644C13.0985 20.402 11.8093 21.7138 10.8501 20.4525C11.4999 19.7865 13.5626 20.624 14.0783 20.1598Z" fill="white"/>
<path d="M8.48828 53.7724V52.4C10.386 53.6008 14.3465 50.0085 14.8416 50.0994C16.4196 50.3819 14.3156 51.8249 14.1918 52.2588C13.7896 53.7623 18.0182 56.3455 19.3384 56.9913C21.5353 58.0811 27.6513 59.4838 29.7347 58.1619C30.663 57.5766 28.9818 55.1447 31.1477 55.8309C31.0858 57.0115 34.8194 60.6644 34.4275 61.1286C33.3343 62.3899 31.6944 59.8268 31.3643 59.8268C30.8693 59.8268 27.1666 63.3384 25.4648 62.511C24.8563 62.8238 24.8047 62.8843 24.0518 62.9651C20.6895 65.296 17.3375 63.3586 15.0891 60.6644C14.3568 59.7966 13.7896 59.1306 13.2636 58.0811C11.7784 55.1548 12.9645 52.9853 8.48828 53.7724Z" fill="white"/>
<path d="M15.5532 43.4295C15.2438 43.258 13.8102 43.0562 14.625 42.2893C14.8622 42.0572 20.5141 44.8119 20.7514 45.0541C20.9886 45.2963 20.8751 46.2751 20.05 45.9623C19.3487 45.6898 16.4918 43.9744 15.5532 43.4295Z" fill="white"/>
<path d="M23.6703 31.0979C23.8972 31.219 24.3407 30.9869 24.5057 31.108C26.0425 32.1272 25.4855 32.7427 24.0519 33.5601C24.2272 33.661 24.382 33.9536 24.5263 34.0142C25.8259 34.5591 26.455 34.7811 26.3931 36.4965C26.2178 40.9869 19.2766 41.5923 19.8026 36.779C20.3596 36.7589 22.9896 36.4259 23.1134 36.3048C23.1855 36.2442 22.4017 35.0031 23.1134 34.4783C22.9174 34.3875 22.7627 34.1756 22.6389 34.0142C22.1129 34.216 21.3291 34.3472 20.7515 34.4783C20.669 34.4985 20.5968 34.5086 20.5246 34.5288C19.4623 34.8315 19.0703 35.3865 17.9255 33.7821C17.678 32.3996 18.7816 33.7114 18.8641 33.5601C19.225 32.884 16.8013 30.2301 20.2771 33.0959C20.112 32.3391 20.0192 31.552 19.8129 30.8053L21.2156 32.1776L21.4528 29.877L22.8761 32.1776L23.1134 30.3411C23.8766 30.1393 23.4434 30.9768 23.6703 31.0979Z" fill="white"/>
<path d="M2.82592 52.8544C3.03219 54.6001 3.93981 56.7998 4.71334 58.374C2.84654 58.2832 2.62995 54.7918 2.35148 53.3185C2.13489 52.1076 0.866292 48.8685 2.82592 49.1813C2.74341 50.2207 2.71246 51.8453 2.82592 52.8544Z" fill="white"/>
<path d="M7.5394 42.2889C5.98201 42.8137 3.87799 44.9832 3.30042 46.4262L2.82598 45.962C4.6309 42.7229 5.95107 41.5927 8.48827 39.07C8.97302 38.5856 9.44745 38.293 9.90126 37.6876C10.0972 37.4252 10.6954 37.516 10.8501 36.5372C11.3658 33.3788 7.96226 33.3485 5.65197 31.7138C3.32105 30.069 0.0825105 26.3859 0 23.4495C1.85649 21.6029 1.55739 22.279 3.76454 21.6029C4.96094 21.2497 6.08515 20.4223 7.5394 20.6947C7.97258 21.7139 5.84793 21.9258 5.18785 22.0671C8.16854 24.4485 16.1308 24.8824 13.377 30.291C11.7474 33.4898 9.97346 32.1881 7.58065 30.5332C4.98157 28.727 -0.701339 24.176 4.23898 22.0671C4.09458 22.1074 3.91925 22.0267 3.76454 22.0671C2.49594 22.39 0.226904 22.6725 0.526004 24.4888C0.773536 25.952 4.74435 30.3213 6.12641 31.2597C8.49858 32.8743 13.3564 33.4999 11.2524 37.3949C10.5098 38.7774 9.32369 38.7168 8.9627 39.07C8.20979 39.7965 7.5394 40.9368 6.60084 41.6028L7.5394 41.8248C8.03446 41.0175 12.2631 41.29 12.2631 41.6028C10.6851 41.966 9.12772 41.744 7.5394 42.2889Z" fill="white"/>
<path d="M31.127 68.9388C28.301 69.1103 25.8566 68.9085 23.1132 68.4847C18.1522 67.6976 14.9756 66.2243 10.8397 63.8833C9.37515 63.0558 9.36484 63.076 8.01373 62.0468C6.37383 60.7955 6.47697 61.6431 5.18774 59.292C6.20881 59.9782 7.03392 60.846 8.01373 61.5927C8.99354 62.3293 9.77739 62.8238 10.8397 63.4292C14.0989 65.2455 19.4414 67.3747 23.1132 68.0205C24.8046 68.3232 27.3109 68.5856 29.023 68.4948C30.1575 68.4342 32.8597 67.4251 33.0041 67.5664C34.0149 68.4746 31.3229 68.8681 31.127 68.9388Z" fill="white"/>
<path d="M33.953 37.2336C35.6857 44.388 27.7647 45.4879 28.301 39.5343C28.6311 39.7563 31.0651 39.6554 31.127 39.5343C31.2611 39.2719 30.7454 38.6665 30.7866 38.3739C30.9929 37.163 32.2718 38.0611 32.7978 38.0812C33.1279 38.1014 32.7256 37.1428 33.953 37.2336Z" fill="white"/>
<path d="M25.9392 48.2623C25.2894 48.0908 21.7724 46.9203 21.6899 46.6478C21.1432 44.892 25.5575 47.6972 25.9392 47.7982C28.1669 48.4137 31.7871 48.5449 34.1902 48.7265C34.8194 48.777 36.1705 48.3128 35.8507 49.4026C35.5929 50.2704 27.1252 48.5651 25.9392 48.2623Z" fill="white"/>
<path d="M37.8722 58.2726C32.9319 59.6954 32.179 53.4795 35.7166 52.4704C39.739 51.3301 41.0901 57.3442 37.8722 58.2726Z" fill="white"/>
<path d="M33.953 37.2338C33.7261 36.2853 33.7983 35.7807 33.0144 34.9432C33.9014 35.0239 34.613 35.0138 34.4377 34.0249C35.2422 33.8029 34.7059 34.7111 34.9431 34.9028C35.2216 35.1248 36.0157 34.3983 36.2426 34.5698C36.5211 34.7918 35.9126 35.9725 37.7278 34.9331C38.0991 35.4578 37.6247 37.6072 37.7484 37.6677C38.9964 38.3236 39.0996 36.6687 39.1408 39.9886C36.7996 40.4225 35.7888 37.3751 33.953 37.2338Z" fill="white"/>
<path d="M36.3149 66.1842C38.027 64.5394 38.8006 63.1468 39.8835 61.1388C40.2239 60.5232 39.7391 59.9682 41.0284 60.2104C41.6781 61.5727 37.0988 66.9107 36.3149 66.1842Z" fill="white"/>
<path d="M41.9875 58.5354C42.6373 57.5565 41.8328 55.7604 43.3902 56.0732L41.74 60.2003C39.9867 58.6867 41.6678 59.0096 41.9875 58.5354Z" fill="white"/>
<path d="M52.3736 38.8177C54.6117 39.3223 56.427 40.5332 58.4794 41.3707C58.3144 42.1881 58.4381 42.9247 57.7677 43.6512C56.231 45.3364 45.6387 46.5271 44.8755 44.297C44.597 43.4999 44.6795 40.7955 45.0508 39.9984C46.1235 37.6472 50.3624 38.3637 52.3736 38.8177Z" fill="white"/>
<path d="M58.4794 41.3709L54.7148 36.3154C55.674 37.0722 58.9435 39.716 58.9538 40.6746C58.9538 41.0682 58.5 41.2801 58.4794 41.3709Z" fill="white"/>
<path d="M43.3902 51.017C43.4521 51.9353 44.3494 53.7516 43.8647 55.1542C42.627 56.7284 42.9467 51.8747 42.9158 51.4812C42.792 49.8364 41.771 46.7688 44.1947 46.0524C46.0718 45.4873 49.4444 47.0513 52.1363 46.9C54.1372 46.789 55.8596 46.1129 57.6852 45.4166C58.0358 45.2855 59.2013 44.4479 58.7269 45.5075C56.8807 46.7284 53.8278 47.7375 51.6207 47.8182C47.1445 47.9595 42.8642 43.2976 43.3902 51.017Z" fill="white"/>
<path d="M44.3391 33.5604C43.2768 33.3889 43.2871 32.8339 41.9772 34.0145C41.7813 32.2285 41.7297 30.8561 39.6566 30.8157C39.5638 31.2597 39.2647 33.1972 38.914 33.0963C36.7378 32.4404 36.8306 27.0115 33.9634 30.7956L31.8284 26.2043C31.7665 31.4313 28.7446 26.5474 27.6101 26.3859C26.8262 26.2749 25.1141 27.0014 24.0518 26.6584C25.1244 25.2053 28.0536 24.065 24.0518 24.8218C23.8558 24.8622 23.6599 24.9126 23.4536 24.9732C23.433 24.9732 23.4124 24.9732 23.402 24.9833C22.3191 25.1649 20.9886 25.0337 20.5967 24.6604C20.5039 24.5797 20.4626 24.4888 20.4832 24.3778C20.4832 24.2668 20.5657 24.1357 20.7411 23.9843C20.937 23.8228 21.2465 23.6412 21.6899 23.4495C21.7518 21.5625 23.7527 18.2225 25.9392 19.3123C25.6814 20.7653 26.6921 20.1296 27.5791 20.2204C32.5298 20.6644 36.5728 21.9561 40.5642 24.8218C41.1521 25.8713 41.4718 27.2537 41.5028 28.959C42.823 28.9994 44.1637 31.8248 44.3391 33.0963C44.7001 33.2274 44.7001 33.3788 44.3391 33.5604Z" fill="white"/>
<path d="M28.3011 16.0935C27.6513 17.1026 27.0222 18.1722 26.4136 19.3125C26.3208 19.3831 26.032 19.2318 25.9392 19.3125C25.341 19.8271 24.4334 20.0895 23.8455 20.7252C23.1545 21.4719 22.9379 23.1571 21.6899 23.4497C21.0917 24.5395 20.7823 24.7211 20.741 23.9845V23.9542C19.4415 23.9341 18.0801 23.702 16.9765 22.9855C15.9761 22.1278 15.0478 21.2398 14.1711 20.3115C14.6662 19.5547 15.1303 18.7676 15.5635 17.9301C16.4608 17.1127 17.8841 15.9523 18.8639 15.1753C20.1325 14.6001 21.3289 13.8736 22.4634 13.0058C22.5253 12.9553 22.5769 12.9049 22.6388 12.8746C24.2271 11.2702 26.5168 10.8564 27.8266 12.8746C28.7239 13.5305 28.9405 15.2056 28.3011 16.0935Z" fill="white"/>
<path d="M58.4794 41.3707C58.3144 42.1881 58.4381 42.9247 57.7677 43.6512C56.231 45.3364 45.6387 46.5271 44.8755 44.297C44.597 43.4999 44.6795 40.7955 45.0508 39.9984C46.1235 37.6472 50.3624 38.3637 52.3736 38.8177C54.6117 39.3223 56.427 40.5332 58.4794 41.3707Z" fill="white"/>
<path d="M13.3771 30.2914C11.7475 33.4902 9.97352 32.1885 7.58071 30.5336C4.98163 28.7273 -0.701277 24.1764 4.23904 22.0674C4.56908 21.4822 4.94038 21.4317 5.18791 22.0674C8.1686 24.4489 16.1309 24.8828 13.3771 30.2914Z" fill="white"/>
<path d="M2.35148 53.3185C2.13489 52.1076 0.866292 48.8685 2.82592 49.1813C2.26897 50.2106 2.11426 51.593 2.35148 53.3185Z" fill="white"/>
<path d="M2.35156 53.3184C2.78474 55.2659 3.56859 56.951 4.71343 58.3738C2.84663 58.283 2.63004 54.7916 2.35156 53.3184Z" fill="white"/>
<path d="M3.30036 46.4258L2.82593 45.9617C3.43444 45.3562 3.56852 45.6085 3.30036 46.4258Z" fill="white"/>
<path d="M5.18774 59.292L8.01373 62.0468C6.37383 60.7955 6.47697 61.6431 5.18774 59.292Z" fill="white"/>
<path d="M10.6749 63.7219C10.7368 63.7724 10.7883 63.8329 10.8399 63.8834C9.37534 63.056 9.36503 63.0761 8.01392 62.0469C8.9731 62.4505 9.95291 63.0257 10.6749 63.7219Z" fill="white"/>
<path d="M10.8398 63.8828C14.8003 65.7193 18.864 67.3742 23.1133 68.4842C18.1523 67.6971 14.9757 66.2239 10.8398 63.8828Z" fill="white"/>
<path d="M31.1271 68.9385C28.3011 69.11 25.8568 68.9082 23.1133 68.4844C25.8464 68.5348 28.5177 68.6862 31.1271 68.9385Z" fill="white"/>
<path d="M25.4649 62.5106C24.8564 62.8234 24.8048 62.8839 24.0519 62.9647C21.2878 64.1554 17.4098 63.2472 15.8834 60.8153C15.7596 60.6236 15.6564 60.4218 15.5636 60.2099C12.0157 57.6872 16.234 55.0737 19.0394 57.2028C19.1425 57.2735 19.2353 57.3643 19.3385 57.4551C20.2873 57.445 21.1847 58.0505 21.7519 58.7972C24.5779 58.3936 30.0236 61.2593 25.4649 62.5106Z" fill="white"/>
<path d="M34.4276 61.1285C33.3343 62.3899 31.6944 59.8268 31.3644 59.8268C30.8693 59.8268 27.1667 63.3384 25.4649 62.511C25.9187 62.2688 26.651 62.0165 26.3931 61.3808C24.4541 58.9691 22.4636 59.4837 19.8026 60.2103C19.6582 60.0892 22.0098 58.5655 19.3385 57.4555C19.2972 57.4353 19.256 57.4151 19.2044 57.405C19.06 57.3445 19.0085 57.2739 19.0394 57.2032C19.0703 57.1326 19.1632 57.062 19.3385 56.9913C21.5353 58.0811 27.6514 59.4837 29.7348 58.1619C30.6631 57.5766 28.9819 55.1447 31.1478 55.8309C31.0859 57.0115 34.8195 60.6644 34.4276 61.1285Z" fill="white"/>
<path d="M19.3384 56.9913V57.4555C19.3384 57.4555 19.2559 57.4152 19.2043 57.4051C17.1106 56.6281 13.408 57.5968 15.5636 60.2103L15.7492 60.4222C15.8936 60.6139 15.9349 60.7451 15.8833 60.8157C15.8214 60.9267 15.5326 60.8965 15.0891 60.6644C14.3568 59.7966 13.7896 59.1306 13.2636 58.0811C11.7784 55.1548 12.9645 52.9853 8.48828 53.7724V52.4C10.386 53.6008 14.3465 50.0085 14.8416 50.0994C16.4196 50.3819 14.3156 51.8249 14.1918 52.2588C13.7896 53.7623 18.0182 56.3455 19.3384 56.9913Z" fill="white"/>
<path d="M37.8722 58.2726C32.9319 59.6954 32.179 53.4795 35.7166 52.4704C39.739 51.3301 41.0901 57.3442 37.8722 58.2726Z" fill="white"/>
<path d="M11.3453 50.351C6.54939 51.9453 5.40456 45.457 9.30318 44.6699C13.0883 43.903 14.5013 49.3116 11.3453 50.351Z" fill="white"/>
<path d="M5.65197 31.7136C3.32105 30.0688 0.0825105 26.3856 0 23.4492C1.18609 26.5774 3.07352 29.3422 5.65197 31.7136Z" fill="white"/>
<path d="M9.90115 37.6876C10.0971 37.4252 10.6953 37.5161 10.85 36.5373C11.3657 33.3788 7.96215 33.3486 5.65186 31.7139C5.84782 31.7643 6.06441 31.8249 6.29131 31.9056C8.18905 32.4808 11.1285 33.6715 11.3245 35.6694C11.4173 36.5473 10.85 38.2022 9.90115 37.6876Z" fill="white"/>
<path d="M28.301 39.5343C28.6311 39.7563 31.0651 39.6554 31.127 39.5343C31.2611 39.2719 30.7454 38.6665 30.7866 38.3739C30.9929 37.163 32.2718 38.0611 32.7978 38.0812C33.1279 38.1014 32.7256 37.1428 33.953 37.2336C35.6857 44.388 27.7647 45.4879 28.301 39.5343Z" fill="white"/>
<path d="M26.3931 36.497C26.2178 40.9874 19.2766 41.5928 19.8026 36.7795C20.3596 36.7593 22.9896 36.4263 23.1133 36.3053C23.1855 36.2447 22.4017 35.0035 23.1133 34.4788C23.2784 34.4183 23.4434 34.3577 23.5981 34.3073C23.7941 34.2366 23.9797 34.1761 24.155 34.1256C24.2788 34.0853 24.4026 34.0449 24.5263 34.0146C25.8259 34.5595 26.455 34.7815 26.3931 36.497Z" fill="white"/>
<path d="M39.1408 39.9886C36.7996 40.4225 35.7888 37.3751 33.953 37.2338C33.7261 36.2853 33.7983 35.7807 33.0144 34.9432C33.9014 35.0239 34.613 35.0138 34.4377 34.0249C35.2422 33.8029 34.7059 34.7111 34.9431 34.9028C35.2216 35.1248 36.0157 34.3983 36.2426 34.5698C36.5211 34.7918 35.9126 35.9725 37.7278 34.9331C38.0991 35.4578 37.6247 37.6072 37.7484 37.6677C38.9964 38.3236 39.0996 36.6687 39.1408 39.9886Z" fill="white"/>
<path d="M58.7269 45.5075C56.8807 46.7284 53.8278 47.7375 51.6207 47.8182C47.1445 47.9595 42.8642 43.2976 43.3902 51.017C43.4212 51.461 43.2562 51.6124 42.9158 51.4812C42.792 49.8364 41.771 46.7688 44.1947 46.0524C46.0718 45.4873 49.4444 47.0513 52.1363 46.9C54.1372 46.789 55.8596 46.1129 57.6852 45.4166C58.0358 45.2855 59.2013 44.4479 58.7269 45.5075Z" fill="white"/>
<path d="M24.0519 33.5601C24.1757 33.8224 24.1963 34.0041 24.155 34.1252C24.0931 34.3169 23.8766 34.3573 23.5981 34.3068C23.3093 34.2664 22.9586 34.1453 22.6389 34.0142C22.1129 34.216 21.329 34.3472 20.7515 34.4783C20.669 34.4985 20.5968 34.5086 20.5246 34.5288C18.3587 34.9122 18.7918 32.9445 20.277 33.0959C20.112 32.3391 20.0192 31.552 19.8129 30.8053L21.2156 32.1776L21.4528 29.877L22.8761 32.1776L23.1133 30.3411C23.8766 30.1393 23.4434 30.9768 23.6703 31.0979C23.8972 31.219 24.3407 30.9869 24.5057 31.108C26.0425 32.1272 25.4855 32.7427 24.0519 33.5601Z" fill="white"/>
<path d="M50.94 28.5044C50.8059 28.898 50.6512 28.898 50.4656 28.5044C49.3826 28.6255 48.7122 27.9696 48.4441 26.5367C47.7633 21.6831 46.0513 19.4934 43.3078 19.9777L42.4517 19.3117C42.3073 19.5741 42.1526 19.564 41.9773 19.3117C43.6584 17.6669 45.7831 17.3844 47.4333 19.2815C48.0212 19.9575 50.7956 27.4853 50.94 28.5044Z" fill="white"/>
<path d="M23.1134 68.4842C18.1524 67.6971 14.9758 66.2239 10.8399 63.8828C10.7574 63.8323 10.6955 63.7819 10.6749 63.7213C10.644 63.6305 10.6955 63.5296 10.8399 63.4287C14.0991 65.245 19.4416 67.3742 23.1134 68.02C23.5156 68.1512 23.5156 68.3026 23.1134 68.4842Z" fill="white"/>
<path d="M6.29143 31.9052C6.15735 31.9052 5.94076 31.8447 5.65197 31.7135C3.32105 30.0687 0.0825105 26.3856 0 23.4491C1.85649 21.6025 1.55739 22.2786 3.76454 21.6025C4.17709 21.7337 4.17709 21.8952 3.76454 22.0667C2.49594 22.3896 0.226904 22.6722 0.526004 24.4885C0.773536 25.9517 4.74435 30.321 6.12641 31.2594C6.53896 31.6731 6.5699 31.9052 6.29143 31.9052Z" fill="white"/>
<path d="M24.0518 62.9647C20.6895 65.2957 17.3375 63.3583 15.0891 60.664L15.5635 60.21L15.7492 60.4219C17.8532 62.7932 20.9577 63.2977 24.0518 62.9647Z" fill="white"/>
<path d="M7.53934 42.2893C5.98195 42.814 3.87794 44.9835 3.30036 46.4265L2.82593 45.9623C4.63084 42.7232 5.95101 41.593 8.48821 39.0703H8.96265C8.20974 39.7968 7.53934 40.9371 6.60078 41.6031L7.53934 41.8251C7.95189 41.9563 7.95189 42.1076 7.53934 42.2893Z" fill="white"/>
<path d="M11.2523 37.395C10.5097 38.7774 9.32357 38.7168 8.96259 39.07H8.48815C8.9729 38.5857 9.44734 38.293 9.90115 37.6876C10.0971 37.4252 10.6953 37.516 10.85 36.5372C11.3657 33.3788 7.96215 33.3486 5.65186 31.7139L6.12629 31.2598C8.49847 32.8743 13.3563 33.4999 11.2523 37.395Z" fill="white"/>
<path d="M35.8509 49.4033C35.5931 50.2711 27.1254 48.5657 25.9393 48.263C25.5268 48.1318 25.5371 47.9805 25.9393 47.7988C28.1671 48.4144 31.7873 48.5455 34.1904 48.7272C34.8195 48.7776 36.1706 48.3135 35.8509 49.4033Z" fill="white"/>
<path d="M42.4826 28.3336L41.5028 28.9593C41.1831 27.8997 40.6158 25.821 40.5643 24.8221C40.4405 22.7232 40.3477 20.8867 41.9773 19.3125H42.4517L43.0086 20.2711C42.3382 22.8544 42.1629 25.5385 42.4826 28.3336Z" fill="white"/>
<path d="M16.9765 22.9852H16.5021C15.5841 22.3595 14.4496 20.6946 14.2846 20.6643C13.0985 20.4019 11.8093 21.7137 10.8501 20.4524C11.4999 19.7864 13.5626 20.6239 14.0783 20.1597C14.1918 20.0689 14.4084 18.9791 15.5635 17.9297C14.4599 20.4019 15.3675 21.2495 16.9765 22.9852Z" fill="white"/>
<path d="M31.1271 68.9386C28.3011 69.1102 25.8568 68.9083 23.1133 68.4845V68.0204C24.8047 68.3231 27.311 68.5854 29.0231 68.4946C30.1576 68.4341 32.8598 67.425 33.0042 67.5663C34.015 68.4744 31.3231 68.868 31.1271 68.9386Z" fill="white"/>
<path d="M50.4655 33.0962C50.6718 33.6411 50.3521 33.7924 49.527 33.5604C46.9279 34.075 46.866 33.964 44.3391 33.5604V33.0962L45.1436 32.41C47.7117 33.2778 50.1045 32.0367 49.6404 29.2011L50.4655 28.5049H50.9399C51.1462 29.968 50.909 31.6734 50.4655 33.0962Z" fill="white"/>
<path d="M36.3149 66.1842C38.027 64.5394 38.8006 63.1468 39.8835 61.1388C40.2239 60.5232 39.7391 59.9682 41.0284 60.2104C41.6781 61.5727 37.0988 66.9107 36.3149 66.1842Z" fill="white"/>
<path d="M24.0519 24.8219C23.8559 24.8622 23.66 24.9127 23.4537 24.9732C23.4331 24.9732 23.4125 24.9732 23.4021 24.9833C22.4739 25.2356 21.4735 25.5888 20.2771 25.276L20.5968 24.6604L20.7515 24.3678C20.6587 24.3779 20.5658 24.3779 20.4833 24.3779C18.8847 24.3981 17.7914 23.8733 16.5022 22.9854H16.9766C18.4206 23.1165 20.2667 23.7825 21.69 23.4495L21.2259 24.8219H24.0519Z" fill="white"/>
<path d="M20.05 45.9623C19.3487 45.6898 16.4918 43.9744 15.5532 43.4295C15.2438 43.258 13.8102 43.0562 14.625 42.2893C14.8622 42.0572 20.5141 44.8119 20.7514 45.0541C20.9886 45.2963 20.8751 46.2751 20.05 45.9623Z" fill="white"/>
<path d="M20.7515 34.4791C20.669 34.4993 20.5968 34.5093 20.5246 34.5295C19.4623 34.8322 19.0703 35.3872 17.9255 33.7828C17.678 32.4004 18.7816 33.7122 18.8641 33.5608C19.225 32.8847 16.8013 30.2309 20.2771 33.0966C20.2874 33.1269 20.6484 33.1572 20.7618 33.3287C19.3282 33.6314 19.2869 34.6304 20.7515 34.4791Z" fill="white"/>
<path d="M27.8266 12.4202V12.8743C26.2795 11.401 24.2993 11.8652 22.6387 12.8743H22.1643C24.619 11.3405 25.1037 9.78652 27.8266 12.4202Z" fill="white"/>
<path d="M4.71347 58.3734C2.84667 58.2825 2.63008 54.7911 2.35161 53.3179C2.34129 52.8941 2.36192 52.7225 2.82604 52.8537C3.03232 54.5994 3.93993 56.7992 4.71347 58.3734Z" fill="white"/>
<path d="M58.9538 40.6746C58.9538 41.0682 58.5 41.2801 58.4794 41.3709L54.7148 36.3154C55.674 37.0722 58.9435 39.716 58.9538 40.6746Z" fill="white"/>
<path d="M2.82592 52.8544L2.35148 53.3185C2.13489 52.1076 0.866292 48.8685 2.82592 49.1813C2.74341 50.2207 2.71246 51.8453 2.82592 52.8544Z" fill="white"/>
<path d="M43.8648 55.1548C42.6271 56.7289 42.9468 51.8753 42.9159 51.4818L43.3903 51.0176C43.4522 51.9358 44.3495 53.7522 43.8648 55.1548Z" fill="white"/>
<path d="M25.9392 47.7982V48.2623C25.2894 48.0908 21.7724 46.9203 21.6899 46.6478C21.1432 44.892 25.5575 47.6972 25.9392 47.7982Z" fill="white"/>
<path d="M43.3902 56.0732L41.74 60.2003C39.9867 58.6867 41.6678 59.0096 41.9875 58.5354C42.6373 57.5565 41.8328 55.7604 43.3902 56.0732Z" fill="white"/>
<path d="M5.18795 22.0671C4.89917 22.1276 4.50724 21.9964 4.23908 22.0671C4.09469 22.1074 3.91936 22.0267 3.76465 22.0671V21.6029C4.96105 21.2497 6.08526 20.4223 7.5395 20.6947C7.97268 21.7139 5.84804 21.9258 5.18795 22.0671Z" fill="white"/>
<path d="M12.263 41.6022C10.685 41.9655 9.12763 41.7435 7.53931 42.2884V41.8242C8.03437 41.0169 12.263 41.2894 12.263 41.6022Z" fill="white"/>
<path d="M28.7652 16.093C28.6311 16.3553 28.4661 16.3452 28.3011 16.093L27.8267 12.874V12.4199C29.2087 13.762 29.5697 14.1152 28.7652 16.093Z" fill="white"/>
<path d="M22.6389 12.874C22.577 12.9043 22.5254 12.9547 22.4635 13.0052C21.6178 13.6813 20.5555 15.5279 18.864 15.1747C19.9263 14.3271 21.0093 13.5905 22.1644 12.874H22.6389Z" fill="white"/>
<path d="M52.817 35.3966L49.5269 33.56C49.6197 33.5399 49.8569 33.0858 50.4654 33.0959C51.4865 33.1161 52.8995 34.3068 52.817 35.3966Z" fill="white"/>
<path d="M8.01373 61.5927V62.0468C6.37383 60.7955 6.47697 61.6431 5.18774 59.292C6.20881 59.9782 7.03392 60.846 8.01373 61.5927Z" fill="white"/>
<path d="M28.7651 16.0928C28.5073 16.7487 26.9808 18.8476 26.4136 19.3117C26.3723 18.0605 27.218 16.7588 28.301 16.0928H28.7651Z" fill="white"/>
<path d="M23.1134 34.4788C22.9174 34.388 22.7627 34.1761 22.6389 34.0146C23.0618 33.8532 23.825 33.6917 24.0519 33.5605C24.2272 33.6615 24.382 33.9541 24.5263 34.0146C25.7331 36.1135 24.5985 35.1448 23.1134 34.4788Z" fill="white"/>
<path d="M10.8399 63.4293V63.8834C9.37534 63.0559 9.36503 63.0761 8.01392 62.0469V61.5928C8.99373 62.3294 9.77758 62.8238 10.8399 63.4293Z" fill="white"/>
<path d="M50.4654 28.4944C51.4762 32.6316 47.9798 34.5892 44.3287 33.0857C42.9363 32.5105 41.905 30.3208 41.5027 28.9485C41.7399 25.7093 40.7704 22.2482 42.4413 19.3017C48.8462 16.7185 47.8663 25.0635 50.4551 28.4944H50.4654Z" fill="white"/>
<path d="M105.985 36.7697V46.1844H101.746V38.6062C101.746 38.3035 100.735 37.7283 100.333 37.92V46.1844H96.0834V38.6062C96.0834 38.3237 95.1139 37.7182 94.6704 37.92C94.2269 39.1107 95.1758 45.4275 94.9386 45.7404C94.2888 46.6082 91.535 46.033 90.4211 46.1844C90.153 43.036 90.7924 39.3832 90.4211 36.3055C90.4005 36.1037 89.7817 35.6597 89.957 35.1652C91.3391 35.2863 93.0512 34.3479 94.361 34.691C94.7529 34.7919 94.6292 35.7001 94.8973 35.6193C95.3924 35.468 95.8462 34.8222 96.8363 34.7011C98.5587 34.4993 99.487 35.6193 99.9924 35.5386C101.178 35.3469 102.334 33.8635 104.582 34.9231C104.902 35.0845 105.985 36.5679 105.985 36.7697Z" fill="white"/>
<path d="M148.931 30.5845C148.653 30.8771 149.148 34.4694 148.911 34.7015C148.653 34.9336 145.311 34.2373 143.785 36.8306C142.506 39.0102 142.155 44.6611 144.775 45.8518C146.415 46.5884 151.056 45.7307 153.16 46.1949L153.624 30.1102C153.459 29.9487 149.096 30.423 148.931 30.5845ZM148.674 37.4563L148.911 43.43C147.56 44.9335 146.477 38.0314 148.674 37.4563Z" fill="white"/>
<path d="M75.8065 42.9758L80.5199 42.5116V46.1846H71.0828V31.0283H80.5199C81.1284 35.0646 79.0244 34.2675 75.7962 34.2372V36.7296L80.0455 36.992C80.5818 40.7457 78.9728 40.3421 75.7962 40.2109V42.9758H75.8065Z" fill="white"/>
<path d="M102.282 20.7459C102.035 21.4624 102.272 22.4412 102.22 23.2081C102.468 23.4704 106.635 20.8872 107.398 23.2081C103.901 23.531 98.3732 25.872 101.735 29.8882C103.757 32.3099 105.067 30.8165 107.161 30.8064C108.862 30.7963 110.801 31.2605 112.596 31.0284V22.0577C112.596 18.9296 102.953 18.7782 102.282 20.7459ZM106.232 28.2635C104.541 27.8095 106.139 24.8932 107.872 25.5088C108.037 26.6389 107.975 28.7378 106.232 28.2635Z" fill="white"/>
<path d="M100.333 27.799V31.028H89.9468V16.3157C91.0504 16.7597 95.6091 15.2864 95.6091 16.5478C95.6091 18.1017 95.2068 27.4054 95.6091 27.8091C95.7947 27.9806 99.5386 27.6779 100.333 27.8091V27.799Z" fill="white"/>
<path d="M155.047 37.91C155.347 38.2329 159.235 36.3964 159.761 38.3741C156.099 38.132 152.325 41.4518 154.625 44.9937C155.924 47.0017 161.69 45.6597 164 46.1844V36.7697C164 33.7223 153.542 33.0664 155.047 37.91ZM159.792 42.4912C159.771 42.6425 159.73 42.7737 159.647 42.8746C159.637 42.8948 159.627 42.915 159.606 42.9251C159.585 42.9654 159.555 42.9856 159.524 42.9957C159.493 43.0159 159.462 43.026 159.431 43.0462C159.328 43.0865 159.204 43.0966 159.049 43.0764C158.987 43.0764 158.915 43.0664 158.833 43.0462C158.76 43.026 158.678 42.9957 158.585 42.9654C157.069 42.4205 158.503 40.4932 159.761 40.6748C159.761 40.9271 159.771 41.1996 159.792 41.4619C159.812 41.8353 159.833 42.1985 159.792 42.4912Z" fill="white"/>
<path d="M127.283 35.2255C126.953 35.73 127.345 37.1932 127.221 37.9096C127.54 37.5161 132.976 36.9813 131.46 38.3738C130.645 39.1205 125.87 38.5857 125.87 42.7431C125.87 47.7683 132.378 45.5988 135.699 46.184V36.3052C135.699 34.4182 127.912 34.2265 127.283 35.2255ZM131.46 42.9752H130.047C129.923 41.8349 130.016 40.5534 131.46 40.6745V42.9752Z" fill="white"/>
<path d="M113.07 34.4181C105.686 33.2475 104.902 45.4271 111.399 46.194C114.473 46.5573 117.144 46.7389 116.36 42.975C114.607 43.3282 112.008 44.0144 111.647 41.5926H116.835C117.072 38.3131 117.124 35.0639 113.07 34.4181ZM113.06 39.2919C112.627 39.7157 110.605 39.6955 111.234 37.7379C111.915 35.629 113.906 38.4746 113.06 39.2919Z" fill="white"/>
<path d="M141.835 30.0996V46.1843H137.122V30.5638C137.122 30.3317 141.34 30.1198 141.835 30.0996Z" fill="white"/>
<path d="M86.3885 46.154C83.3459 46.6282 80.6644 46.6787 81.4688 42.9754L84.7693 43.1974C84.1504 41.4214 82.1908 41.4618 81.4276 39.5445C80.324 36.7897 82.3352 34.6808 85.1302 34.3276C85.7388 34.2469 88.8432 34.5899 88.9773 34.7211C89.2145 34.9633 88.8742 37.2539 89.0082 37.9098C88.7091 38.2327 86.11 35.9219 85.7078 37.6979C85.4809 38.707 87.8325 39.3023 88.3894 39.8977C90.3181 41.936 89.3176 45.6999 86.3885 46.154Z" fill="white"/>
<path d="M125.797 38.8386C125.56 39.0808 123.425 38.4148 122.92 39.101C121.971 40.3926 122.817 45.8719 122.497 46.1948H117.773C118.289 44.7014 117.464 35.6197 117.825 35.206C117.98 35.0243 122.332 34.0657 122.497 34.2373C122.631 34.3886 122.404 35.6197 122.497 36.0738C123.394 35.8215 123.106 34.8427 124.354 34.429C125.014 34.2171 125.581 34.0354 126.045 34.6913C126.169 34.8629 125.952 38.6873 125.797 38.8386Z" fill="white"/>
<path d="M159.049 43.0762C159.204 43.0964 159.328 43.0863 159.431 43.0459C159.328 43.0863 159.204 43.1064 159.049 43.0762Z" fill="white"/>
</svg>
