<svg width="164" height="80" viewBox="0 0 164 80" fill="none" xmlns="http://www.w3.org/2000/svg">
<path d="M161.967 38.398C160.791 33.743 156.505 33.1308 153.132 35.9908L152.738 34.7831L148.403 35.9657L145.474 53.7888L149.776 53.9733L150.977 46.7937C155.732 52.0023 161.235 46.215 161.967 40.7884C162.066 40.0419 161.893 39.1613 161.967 38.3896V38.398ZM154.794 45.3008C150.632 47.1125 150.632 38.0457 154.802 37.6683C158.323 37.3496 157.977 43.9169 154.794 45.3008Z" fill="#CFCFCF"/>
<path d="M39.0653 31.73L22.8852 48.8234C20.6313 50.157 18.7558 48.4292 19.7265 46.0053L30.9218 34.6153C31.5387 33.6507 31.4976 32.3842 30.9218 31.3694C29.8277 29.4403 23.1978 24.5085 22.7289 22.8981C22.1366 20.8684 24.8758 19.3671 26.0521 18.0167C26.5292 17.9244 26.7019 18.3438 26.9898 18.5787C29.2684 20.3568 36.4248 27.6621 38.1687 29.9854C38.5471 30.4971 39.1229 31.0087 39.0571 31.73H39.0653Z" fill="#CFCFCF"/>
<path d="M29.0464 33.4746C26.299 37.5173 20.5738 41.1658 17.9498 44.9989C16.8475 46.6008 16.864 47.4144 17.9498 48.9996C19.1919 50.8113 25.3448 55.7766 25.7314 57.085C26.3483 59.1819 23.5598 60.5322 22.4657 61.9916L10.0859 49.4106L9.70752 48.228C9.74865 47.448 10.2669 46.9531 10.6864 46.3828C12.6688 43.6904 22.3752 33.785 25.0075 31.772C25.4846 31.4114 25.8383 30.9836 26.4799 30.8494C28.1991 30.472 29.6962 31.8391 29.0464 33.4579V33.4746Z" fill="#CFCFCF"/>
<path d="M57.2525 33.2482L56.4053 37.5928H63.8661L63.4712 41.191L55.7966 41.5684L54.8341 48.3957H50.1372L53.2712 29.5913H66.2186L65.7827 33.1475L57.2525 33.2482Z" fill="#CFCFCF"/>
<path d="M123.429 34.087C115.351 34.9425 112.9 47.4229 120.27 48.6977C131.902 50.7191 134.698 32.896 123.429 34.087ZM121.554 45.4015C119.407 44.3531 120.492 38.3226 122.615 37.6768C128.71 35.8148 125.921 47.5487 121.554 45.4015Z" fill="#CFCFCF"/>
<path d="M138.737 34.0953C129.722 34.8418 127.575 50.7358 139.305 48.7061C147.021 47.3725 149.398 33.2146 138.737 34.0953ZM137.462 45.6111C134.542 45.1834 135.48 38.3393 138.318 37.6767C143.615 36.4438 141.748 46.2318 137.462 45.6111Z" fill="#CFCFCF"/>
<path d="M91.9242 42.3987H100.561C102.141 40.0754 100.89 35.8985 98.2991 34.6991C91.6609 31.6462 84.6525 39.7064 87.8606 46.1479C90.1227 50.677 97.8796 49.0751 99.969 44.9904C100.249 44.0426 97.6082 44.3027 97.0159 44.3781C95.453 44.5878 94.7703 46.1395 92.7961 45.5272C91.7267 45.1917 90.715 42.7678 91.9324 42.3987H91.9242ZM97.2216 39.9916H91.7267C92.4588 36.4773 97.5424 35.7895 97.2216 39.9916Z" fill="#CFCFCF"/>
<path d="M84.6609 48.3956H80.3505C79.8323 47.8588 82.3741 39.4631 81.3541 37.9701C80.8441 37.2236 79.2483 37.5507 78.5573 37.9701C76.6654 39.1108 76.4597 46.1226 76.032 48.3956H71.7217L73.737 35.6468L78.0062 34.7913L78.1954 36.3933C79.5197 34.2377 83.8136 33.4913 85.467 35.3868C87.507 37.7353 84.4141 45.2755 84.6691 48.3956H84.6609Z" fill="#CFCFCF"/>
<path d="M114.874 43.598C111.617 52.4551 98.3158 49.8634 102.511 39.1947C104.995 32.8958 115.524 31.5119 115.656 39.5973L111.6 39.614C108.442 32.8538 103.918 43.8329 107.43 45.4097C109.075 46.1478 109.824 43.9838 110.827 43.6735C111.979 43.3212 113.64 43.7406 114.866 43.598H114.874Z" fill="#CFCFCF"/>
<path d="M45.9915 41.1741C43.3181 43.229 31.4648 57.2275 29.4659 57.5043C29.104 57.5546 28.5117 57.3617 28.2567 57.1017C28.0017 56.8417 27.8125 56.2294 27.8619 55.8687C28.1333 53.8138 42.2241 41.3754 44.2806 38.5992L44.4368 36.3933C46.0656 38.0121 47.4886 38.7585 45.9915 41.1741Z" fill="#CFCFCF"/>
<path d="M42.3063 36.6198L26.4141 52.8241C25.353 53.5874 23.6502 53.4364 23.8312 51.8177C24.0039 50.2408 38.0783 37.4837 39.9538 35.0178L40.3322 32.3926C41.673 33.3907 43.5567 34.7578 42.3063 36.6198Z" fill="#CFCFCF"/>
<path d="M20.7218 24.1646C20.5573 25.6911 6.45824 38.5321 4.59098 40.9644L4.22082 43.1871C2.99518 42.3316 1.1197 40.7715 2.47695 39.2115L19.3234 22.5291C20.1871 22.7136 20.8287 23.1749 20.7218 24.173V24.1646Z" fill="#CFCFCF"/>
<path d="M24.0121 29.5745L8.51474 44.9737L8.14458 47.1964C6.87781 46.3241 5.90716 45.5776 6.25265 43.8834C6.62281 42.0885 18.5173 31.0675 20.7136 28.9958C21.4951 28.2493 21.676 27.1171 22.9428 26.8487C24.9746 26.4293 25.0075 28.2158 24.0121 29.5662V29.5745Z" fill="#CFCFCF"/>
<path d="M71.3186 34.3889L69.1799 48.0183C68.6616 48.7984 65.6592 48.228 64.6475 48.3874L67.0165 34.4057L71.3104 34.3889H71.3186Z" fill="#CFCFCF"/>
<path d="M72.1083 29.5913L71.7052 33.1895L68.1846 29.7842L72.1083 29.5913Z" fill="#CFCFCF"/>
</svg>
