<svg width="164" height="80" viewBox="0 0 164 80" fill="none" xmlns="http://www.w3.org/2000/svg">
<path d="M2 37.3233C3.01496 37.3982 3.93089 38.0809 4.7313 39.3796C19.9391 48.0463 19.114 21.1888 4.69005 30.2467C3.93914 31.6371 3.04796 32.3697 2 32.4696C5.9278 23.012 19.5018 27.2996 16.622 37.2317C14.6003 44.2083 4.63228 43.7588 2 37.3233Z" fill="#CFCFCF"/>
<path d="M30.3279 34.3928C30.5837 40.0624 20.2196 48.9954 16.1845 52.4588C14.9963 52.4588 8.13086 44.7162 6.81885 43.2676C14.0886 44.8827 18.759 40.2955 18.0081 32.7777C17.7853 30.5049 15.8957 30.0137 18.4125 28.2321C23.0829 24.9269 30.0638 28.7233 30.3279 34.3928Z" fill="#CFCFCF"/>
<path d="M41.8143 48.7125C46.3857 50.7855 47.2027 45.5572 47.838 45.399C49.0098 45.116 50.9737 45.6405 52.3022 45.424C49.0675 59.0859 30.0392 52.5921 35.0809 39.1134C38.1671 30.838 51.246 31.6539 52.3022 40.562C50.9984 40.3705 48.9685 40.9034 47.8215 40.4954C46.6415 40.0791 47.3842 37.132 43.4811 37.2902C38.3569 37.4983 38.1753 47.0641 41.8143 48.7125Z" fill="#CFCFCF"/>
<path d="M65.678 38.4056C65.5129 38.5721 62.6083 38.1309 61.4036 38.6803C60.9168 38.9051 59.2582 41.0364 59.2582 41.3777V52.4421H53.9028V34.0848C57.2448 34.3761 59.0931 32.6278 58.9859 36.7822C60.8837 34.6092 62.5423 33.0108 65.678 33.5436C65.5377 34.4011 65.876 38.2141 65.678 38.4056Z" fill="#CFCFCF"/>
<path d="M80.3993 46.5145C79.0955 46.7726 78.7077 47.9715 77.602 48.5376C74.3178 50.211 70.654 48.2212 71.0254 44.3416H84.4096C84.8057 29.4559 64.5395 29.714 66.2146 45.1575C67.2626 54.8732 81.5545 55.356 83.8567 47.2971C84.2198 46.015 81.1337 46.3647 80.3993 46.5145ZM79.0542 41.1031H71.0254C71.5865 36.0163 78.2621 35.8331 79.0542 41.1031Z" fill="#CFCFCF"/>
<path d="M99.3861 27.0667V35.7083C90.7465 29.2229 83.9967 37.7064 86.3814 46.9475C87.8667 52.7336 95.6811 55.1979 99.6584 50.286C99.5511 53.7993 101.952 52.1092 104.741 52.4423V27.0667H99.3861ZM95.8626 49.2037C89.9214 49.7948 89.3108 38.8137 93.8822 37.44C100.946 35.3087 101.358 48.6459 95.8626 49.2037Z" fill="#CFCFCF"/>
<path d="M111.698 27.0667H106.879V30.8463H111.698V27.0667Z" fill="#CFCFCF"/>
<path d="M111.698 34.0847H106.879V52.4421H111.698V34.0847Z" fill="#CFCFCF"/>
<path d="M125.074 52.4421C122.342 52.6585 115.98 52.9583 115.98 48.9288C115.98 47.297 116.393 37.7312 115.98 37.3233C115.782 37.1401 113.497 37.5231 113.299 37.3316C113.183 37.2151 113.183 34.193 113.299 34.0847C113.497 33.8849 115.774 34.2845 115.98 34.0847C116.294 33.7767 115.51 29.6557 116.211 28.6483C116.806 27.7908 120.824 27.7075 121.253 29.0229C122.351 32.3947 118.877 34.9256 125.074 34.0764V37.3233H121.327V47.8465C121.327 49.037 124.933 48.5125 125.074 48.6541C125.247 48.8122 124.958 51.7095 125.074 52.4338V52.4421Z" fill="#CFCFCF"/>
<path d="M125.123 45.1076C126.394 54.74 140.785 55.9638 142.733 46.5063C141.561 46.6894 139.877 46.2149 138.829 46.4979C138.524 46.5812 137.938 47.855 136.89 48.4294C133.301 50.4108 130.405 48.1297 129.893 44.3417H143.269C144.416 29.2312 123.143 30.1303 125.123 45.1076ZM129.893 41.1031C130.743 36.2495 137.798 35.4919 137.914 41.1031H129.893Z" fill="#CFCFCF"/>
<path d="M145.406 39.4796C146.743 39.2881 148.641 39.7877 149.845 39.4963C150.621 39.3048 150.588 36.6324 153.682 36.7489C155.762 36.8238 157.206 38.0144 156.678 40.2206C156.282 41.8607 147.436 40.7784 145.299 44.5081C141.156 51.7512 151.958 55.5975 156.917 50.827C156.95 53.666 159.838 52.0758 162 52.4422V38.1392C162 31.9036 144.457 31.3374 145.406 39.4796ZM153.195 49.2452C150.86 49.4117 148.921 49.2369 149.779 46.3397C150.439 44.1335 154.763 44.2334 156.645 43.8088C156.909 46.9225 156.661 48.9955 153.195 49.2452Z" fill="#CFCFCF"/>
<path d="M16.622 37.2317C14.6003 44.2083 4.63228 43.7588 2 37.3233V32.4696C5.9278 23.012 19.5018 27.2996 16.622 37.2317Z" fill="#CFCFCF"/>
<path d="M30.3279 34.3928C30.5837 40.0624 20.2196 48.9954 16.1845 52.4588C14.9963 52.4588 8.13086 44.7162 6.81885 43.2676C14.0886 44.8827 18.759 40.2955 18.0081 32.7777C17.7853 30.5049 15.8957 30.0137 18.4125 28.2321C23.0829 24.9269 30.0638 28.7233 30.3279 34.3928Z" fill="#CFCFCF"/>
<path d="M99.3861 27.0667V35.7083C90.7465 29.2229 83.9967 37.7064 86.3814 46.9475C87.8667 52.7336 95.6811 55.1979 99.6584 50.286C99.5511 53.7993 101.952 52.1092 104.741 52.4423V27.0667H99.3861ZM95.8626 49.2037C89.9214 49.7948 89.3108 38.8137 93.8822 37.44C100.946 35.3087 101.358 48.6459 95.8626 49.2037Z" fill="#CFCFCF"/>
<path d="M145.406 39.4796C146.743 39.2881 148.641 39.7877 149.845 39.4963C150.621 39.3048 150.588 36.6324 153.682 36.7489C155.762 36.8238 157.206 38.0144 156.678 40.2206C156.282 41.8607 147.436 40.7784 145.299 44.5081C141.156 51.7512 151.958 55.5975 156.917 50.827C156.95 53.666 159.838 52.0758 162 52.4422V38.1392C162 31.9036 144.457 31.3374 145.406 39.4796ZM153.195 49.2452C150.86 49.4117 148.921 49.2369 149.779 46.3397C150.439 44.1335 154.763 44.2334 156.645 43.8088C156.909 46.9225 156.661 48.9955 153.195 49.2452Z" fill="#CFCFCF"/>
<path d="M125.123 45.1076C126.394 54.74 140.785 55.9638 142.733 46.5063C141.561 46.6894 139.877 46.2149 138.829 46.4979C138.524 46.5812 137.938 47.855 136.89 48.4294C133.301 50.4108 130.405 48.1297 129.893 44.3417H143.269C144.416 29.2312 123.143 30.1303 125.123 45.1076ZM129.893 41.1031C130.743 36.2495 137.798 35.4919 137.914 41.1031H129.893Z" fill="#CFCFCF"/>
<path d="M80.3993 46.5145C79.0955 46.7726 78.7077 47.9715 77.602 48.5376C74.3178 50.211 70.654 48.2212 71.0254 44.3416H84.4096C84.8057 29.4559 64.5395 29.714 66.2146 45.1575C67.2626 54.8732 81.5545 55.356 83.8567 47.2971C84.2198 46.015 81.1337 46.3647 80.3993 46.5145ZM79.0542 41.1031H71.0254C71.5865 36.0163 78.2621 35.8331 79.0542 41.1031Z" fill="#CFCFCF"/>
<path d="M52.3022 45.424C49.0675 59.0859 30.0392 52.5921 35.0809 39.1134C38.1671 30.838 51.246 31.6539 52.3022 40.562C50.9984 40.3705 48.9685 40.9034 47.8215 40.4954C46.6415 40.0791 47.3842 37.132 43.4811 37.2902C38.3569 37.4983 38.1753 47.0641 41.8143 48.7125C46.3857 50.7855 47.2027 45.5572 47.838 45.399C49.0098 45.116 50.9737 45.6405 52.3022 45.424Z" fill="#CFCFCF"/>
<path d="M125.074 52.4421C122.342 52.6585 115.98 52.9583 115.98 48.9288C115.98 47.297 116.393 37.7312 115.98 37.3233C115.782 37.1401 113.497 37.5231 113.299 37.3316C113.183 37.2151 113.183 34.193 113.299 34.0847C113.497 33.8849 115.774 34.2845 115.98 34.0847C116.294 33.7767 115.51 29.6557 116.211 28.6483C116.806 27.7908 120.824 27.7075 121.253 29.0229C122.351 32.3947 118.877 34.9256 125.074 34.0764V37.3233H121.327V47.8465C121.327 49.037 124.933 48.5125 125.074 48.6541C125.247 48.8122 124.958 51.7095 125.074 52.4338V52.4421Z" fill="#CFCFCF"/>
<path d="M65.678 38.4056C65.5129 38.5721 62.6083 38.1309 61.4036 38.6803C60.9168 38.9051 59.2582 41.0364 59.2582 41.3777V52.4421H53.9028V34.0848C57.2448 34.3761 59.0931 32.6278 58.9859 36.7822C60.8837 34.6092 62.5423 33.0108 65.678 33.5436C65.5377 34.4011 65.876 38.2141 65.678 38.4056Z" fill="#CFCFCF"/>
<path d="M111.698 34.0847H106.879V52.4421H111.698V34.0847Z" fill="#CFCFCF"/>
<path d="M111.698 27.0667H106.879V30.8463H111.698V27.0667Z" fill="#CFCFCF"/>
</svg>
