<svg width="164" height="80" viewBox="0 0 164 80" fill="none" xmlns="http://www.w3.org/2000/svg">
<path d="M11.5856 14C11.5856 14 11.1816 14.3768 11.1816 14.4073V41.1375C11.1816 41.1375 11.5553 41.5448 11.5856 41.5448H142.484L157.227 14H11.5856ZM106.384 19.9977C106.152 23.3377 104.597 24.1015 101.507 23.5414C102.002 20.7004 103.476 19.4886 106.384 19.9977ZM43.9088 19.9977C43.4039 22.7573 42.0912 24.5699 39.0316 23.5414C39.3749 20.3134 40.8088 19.6006 43.9088 19.9977ZM23.2587 30.3436C22.461 30.8629 20.4212 36.2497 19.5629 36.769C18.8459 37.2069 16.7052 36.7486 15.7762 36.9116C15.6954 36.3719 15.968 35.9849 16.17 35.5369C17.5029 32.6551 22.572 23.9793 24.8441 22.1871C26.1669 21.1484 28.8731 19.9977 30.5191 19.9977H38.4964C38.1429 24.8041 33.5686 22.9406 30.2464 23.2766C28.2268 23.4803 25.9649 24.6513 25.5105 26.8203H34.7097C34.7097 27.7062 33.6999 29.8039 32.8921 30.0381C30.923 30.6185 24.6118 29.4678 23.2587 30.3436ZM31.1956 36.9116L31.4077 35.8933L37.6784 25.0383C38.8094 24.2746 40.2231 24.3153 41.4752 24.6411L41.2127 25.6085L34.9924 36.5144C34.0836 37.3087 32.367 36.7588 31.1956 36.9116ZM45.7971 36.9116C45.1812 36.3108 50.0483 29.59 50.1291 28.2968C50.2099 27.0036 47.6551 27.1156 46.8776 27.5025C45.9486 27.9506 42.687 35.323 41.4954 36.5246C40.5361 37.2985 38.8801 36.7588 37.6885 36.9116C39.6172 32.7671 42.0912 28.8976 44.3329 24.9263C44.5046 24.7226 44.7167 24.5699 44.9691 24.4884C46.1707 24.0811 52.3708 24.2949 53.5725 24.8448C54.8044 25.4252 54.5823 26.7083 54.2389 27.8386C53.4412 30.5269 50.6643 33.8872 49.5131 36.5552C48.7053 37.2272 46.817 36.7894 45.7971 36.9116ZM54.5722 36.9319C49.9171 36.4737 54.6227 30.0483 57.6823 29.3966C59.5504 28.9994 62.9635 29.7122 64.3974 29.0911C65.5082 28.6125 64.771 27.36 63.7814 27.36H57.7025C57.3996 27.085 58.8638 24.7124 59.3283 24.5088C59.9745 24.2135 66.518 24.2644 67.4571 24.4782C68.3558 24.6921 69.0424 25.3438 69.2242 26.2704C69.6281 28.3375 65.1547 34.7731 63.9228 36.7792C63.4078 37.0338 55.6526 37.0338 54.5722 36.9319ZM74.7376 36.9116C74.263 36.4737 79.4735 28.9383 79.3321 27.6451C78.4435 27.3905 77.1611 27.1563 76.2826 27.4211C75.0406 27.7877 71.7184 35.3027 70.5672 36.657C69.7897 37.2374 67.8913 36.7588 66.8916 36.9116C66.73 36.7588 67.7499 34.8953 67.9317 34.5491C68.6385 33.1846 73.2229 24.8244 73.9298 24.5088C74.566 24.2135 79.524 24.2746 80.5439 24.3662C81.7455 24.4782 83.5127 24.6717 83.654 26.1584C83.8661 28.3274 79.6351 34.152 78.6455 36.3515C77.7872 37.4207 75.9696 36.7181 74.7376 36.9116ZM84.1892 36.7894C80.5641 34.9768 83.9368 29.2744 85.9564 27.36C87.5013 25.8835 90.5812 24.3662 92.7219 24.3662C93.8832 24.3662 97.0135 24.132 97.8617 24.3662C98.8816 24.6513 97.2155 26.9832 96.6399 27.2276C94.4083 28.1644 91.3991 26.3213 88.6222 29.1013C87.774 29.9464 85.714 33.9076 87.8547 33.9076H92.1766C92.2776 33.9076 92.5906 34.264 92.8532 34.1825C92.2574 38.6223 87.2489 36.545 84.1892 36.7894ZM93.6711 36.9116L100.416 24.7633C100.942 24.2135 104.486 23.8672 104.102 25.2012L97.5891 36.6366C96.9125 37.2578 94.6607 36.7486 93.6711 36.9116ZM106.516 33.9076H111.383C112.362 33.9076 110.999 36.3617 110.595 36.657C110.02 37.0745 104.587 37.0236 103.668 36.7792C99.6188 35.7202 103.092 29.4678 104.88 27.6247C105.96 26.525 109.656 24.3662 111.11 24.3662H117.199C116.937 29.0402 112.776 26.6268 109.828 27.7062C109.202 27.9404 107.576 29.2744 108.677 29.2744H114.493C114.937 30.1705 113.079 32.2783 112.463 32.2783H106.112C106.041 32.6653 106.102 33.9076 106.516 33.9076ZM123.672 30.2417C122.824 29.6613 124.157 28.4088 123.844 27.9099C123.531 27.4109 122.662 27.2989 122.137 27.5636C121.097 28.0728 117.785 35.2314 116.795 36.6366C116.109 37.2578 113.857 36.7486 112.867 36.9116L119.794 24.6717C120.683 24.1015 127.236 24.2644 127.953 24.9772C128.903 25.914 127.499 29.5391 126.55 30.1094C126.015 30.425 124.136 30.5574 123.672 30.2417ZM138.97 32.0034C138.395 33.1133 137.223 35.4961 136.526 36.3515C136.254 36.6875 136.173 36.8199 135.719 36.9014C134.345 37.1661 128.054 37.0949 126.519 36.9116C122.702 36.4635 126.025 31.4433 128.034 30.2519C131.023 28.4903 133.184 29.8446 135.931 29.2133C136.84 29.0096 137.89 27.8691 136.537 27.6349C134.598 27.3091 132.154 27.4313 130.175 27.36C129.993 26.3111 130.599 24.9772 131.599 24.5699C132.821 24.0709 139.96 24.1625 140.848 25.191C142.171 26.7083 139.798 30.425 138.97 32.0034Z" fill="#CFCFCF"/>
<path d="M131.801 63.0918C131.659 65.0775 129.397 66.3605 127.741 67.0428C127.317 67.2159 125.146 68 124.904 68H30.1152C30.4687 66.3096 31.6602 64.497 32.6801 63.0918H131.801Z" fill="#CFCFCF"/>
<path d="M141.262 45.3635L139.101 49.9968H39.8494C39.6676 48.4591 41.6872 47.2575 42.909 46.6771C43.5048 46.392 46.2918 45.3635 46.7462 45.3635H141.272H141.262Z" fill="#CFCFCF"/>
<path d="M134.79 59.3954C134.749 57.9392 134.669 55.3222 134.477 53.978C134.164 51.7582 132.174 51.9924 130.296 52.1655C128.883 52.308 128.66 52.7255 127.752 53.6929C126.429 55.088 125.076 57.1653 123.955 58.7233L123.662 56.7274C123.5 56.3405 122.491 55.7295 122.198 55.7295H117.331C117.23 55.7295 116.876 55.3222 116.927 55.0472C117.381 52.7459 126.338 55.9026 125.853 52.1858H117.331C116.462 52.1858 114.089 53.9679 113.796 54.8945C113.433 56.0452 114.241 57.6337 115.442 57.6337H120.309C120.532 57.6337 120.804 58.2345 120.693 58.5705C120.269 59.9045 113.867 58.9168 112.514 59.3241C111.888 59.5175 111.444 60.5562 111.514 61.1774C115.028 61.6967 118.855 61.6763 122.198 60.3627C122.107 61.5338 123.662 61.3301 124.581 61.1264C126.035 60.8006 126.338 57.6744 129.226 57.6337C129.579 57.6337 131.558 57.9799 131.68 58.1632C132.033 58.652 131.68 60.4747 131.801 61.1875C133.861 61.045 134.86 61.9818 134.79 59.3954ZM129.095 56.0044C129.135 54.4872 131.952 52.5524 131.821 55.0472C131.74 56.5645 130.215 55.8721 129.095 56.0044Z" fill="#CFCFCF"/>
<path d="M99.9015 52.2978C99.2249 52.0737 92.6714 52.0737 92.3079 52.3181C92.0453 52.4912 92.1463 53.0004 91.9141 53.0004C91.6616 52.9393 91.7525 52.4709 91.5203 52.3181C91.1365 52.0636 83.3915 52.0432 82.4322 52.1654C81.3719 52.308 80.8266 53.0309 80.9579 54.09L84.2094 54.2325C83.9772 55.2508 80.554 61.0551 80.9579 61.4522C85.199 62.7964 85.3707 55.7498 87.2893 54.3445C88.2688 53.6215 90.359 54.65 91.3688 53.5503C91.4799 54.8231 87.4508 60.6376 87.986 61.1773C91.1062 62.2668 90.7932 59.4564 91.904 58.4483C92.3281 58.0715 95.6503 58.0206 96.1148 58.3057C96.8317 58.7537 95.3474 60.4543 95.5594 61.1773C97.5184 61.4828 97.4376 61.0551 98.5383 60.0877C98.6494 57.2365 99.0937 57.7864 100.285 55.984C100.962 54.9555 101.416 52.8069 99.9015 52.2978ZM97.0438 56.2691H93.1258C93.0046 56.1673 93.9034 54.2122 94.1154 54.0696C94.7314 53.6725 98.1546 53.6623 98.2858 54.2529C98.4171 54.9046 97.3568 56.2691 97.0438 56.2691ZM110.989 58.3057C110.949 57.1041 110.858 54.762 110.686 53.703C110.373 51.6766 106.526 51.809 105.193 52.4912C103.89 53.1633 100.588 58.3872 99.1946 59.8128C98.922 60.0979 98.5888 60.047 98.5383 60.0877C98.5181 60.4543 98.5383 60.8209 98.5383 61.1875C99.2451 61.1162 100.114 61.33 100.78 61.1264C101.76 60.8311 103.022 58.3464 103.678 58.0511C104.163 57.8271 106.738 57.7965 107.323 57.9086C108.535 58.1326 107.828 60.2201 108 61.1875C111.181 61.3504 111.1 61.3402 110.989 58.3057ZM105.294 56.0044C105.294 54.9861 107.111 53.2448 107.879 54.3445C109.05 56.0247 106.344 56.2487 105.294 56.0044Z" fill="#CFCFCF"/>
<path d="M57.7027 60.9128C57.0868 60.2815 60.3383 55.5668 60.409 54.4772C60.5099 52.96 57.733 53.2043 56.703 53.7644C54.6128 54.8947 53.3808 60.2509 52.3004 60.7703C51.6238 61.0961 50.6039 60.8314 49.8668 60.9026C49.3619 60.4037 52.8558 55.1595 52.8457 54.2125C52.8255 52.3592 48.857 53.52 47.7058 55.0475C46.2518 56.972 45.6863 61.3812 42.6973 60.9128C41.94 60.8008 42.2833 60.1593 42.5054 59.6196C42.9598 58.5096 44.9188 54.5892 45.5752 53.7237C47.1808 51.5954 51.0684 51.4529 53.4919 51.6565C54.1281 51.7075 54.6936 52.1759 55.4004 52.1861C56.1073 52.1962 56.8848 51.7176 57.5917 51.6667C59.278 51.5344 63.7615 51.1983 63.2667 53.8255C63.1556 54.4263 60.7725 59.7927 60.3989 60.2306C59.5708 61.1979 58.8741 60.9026 57.6926 60.9128H57.7027Z" fill="#CFCFCF"/>
<path d="M43.8282 53.0821C42.3337 51.2492 36.689 52.186 34.7906 53.2145C32.7205 54.3448 30.4081 57.5626 31.3977 60.0167C32.5186 62.7966 38.8802 61.3609 40.8493 60.1491C42.4549 59.1512 45.1914 54.7521 43.8282 53.0821ZM37.5372 59.5279C31.6501 61.1877 34.3665 54.4772 38.4359 53.8764C42.8992 53.2145 40.8291 58.6013 37.5372 59.5279Z" fill="#CFCFCF"/>
<path d="M145.787 60.831C145.07 61.554 144.029 61.279 143.151 61.1772C142.616 60.6477 146.503 55.2202 145.827 54.1204C145.484 53.5706 142.949 53.8251 142.272 54.151C139.798 55.322 139.314 61.7169 136.264 61.4623C134.598 61.3198 137.183 56.9818 137.708 56.0857C140 52.1551 142 51.7478 146.554 52.1653C149.139 52.4097 149.391 53.3262 148.533 55.546C148.21 56.381 146.261 60.3524 145.797 60.831H145.787Z" fill="#CFCFCF"/>
<path d="M67.437 52.1858C67.6995 52.4404 64.7913 57.4198 64.5793 58.1733C63.9027 60.5867 67.5581 59.8841 68.7699 58.8454C70.4663 57.3791 71.4054 52.0636 73.7885 51.9414C74.667 51.9007 74.8589 52.2876 74.6771 53.0717C74.4954 53.8558 72.3546 58.0613 71.8194 58.9269C70.4158 61.1977 67.3259 61.6559 64.8519 61.4726C63.5493 61.3708 61.3177 60.9329 61.5297 59.2222C61.5903 58.7028 63.8623 53.7336 64.2359 53.1939C65.2255 51.7785 65.8516 51.8905 67.437 52.196V52.1858Z" fill="#CFCFCF"/>
<path d="M32.8213 52.186C33.2555 55.0067 30.0141 53.9273 28.1258 54.131C26.49 54.3041 25.258 54.8845 24.329 56.2999C23.6928 57.2673 22.8951 59.5585 24.5815 59.5585H29.0447C29.2366 61.1368 28.6913 61.3507 27.2978 61.483C23.1375 61.8598 18.341 61.595 21.2492 56.1981C22.3397 54.1819 25.258 52.1962 27.5603 52.1962H32.8314L32.8213 52.186Z" fill="#CFCFCF"/>
<path d="M77.9689 52.2062C78.5849 53.0819 75.0002 57.8068 75.2627 59.1102C75.4344 59.9656 79.2918 59.1713 79.7563 59.8128C81.1195 61.7068 74.3943 61.3606 73.4552 60.9839C72.718 60.6885 72.2232 59.9757 72.304 59.1713C72.3646 58.5807 75.4041 52.6237 75.8383 52.3487C76.3937 51.9822 77.3631 51.9414 77.9689 52.2164V52.2062Z" fill="#CFCFCF"/>
<path d="M61.6206 33.9078H57.1573C56.8847 33.4598 57.9046 32.2786 58.1065 32.2786H62.5698C62.802 32.4924 61.8225 33.9078 61.6206 33.9078Z" fill="#CFCFCF"/>
<path d="M133.831 33.9078H129.367C129.095 33.4598 130.115 32.2786 130.316 32.2786H134.78C135.012 32.4924 134.032 33.9078 133.831 33.9078Z" fill="#CFCFCF"/>
</svg>
