<svg width="167" height="80" viewBox="0 0 167 80" fill="none" xmlns="http://www.w3.org/2000/svg">
<path d="M69.4039 43.8543C69.341 42.2168 69.4038 40.695 69.7543 39.0932C72.2972 27.3907 86.6654 15.4212 98.3558 13.4189C110.046 11.4166 116.651 19.0076 112.149 30.2651C108.95 38.2566 100.683 45.8655 92.9824 49.6299C92.3444 49.9413 90.6011 50.8046 89.9901 50.8846C88.1031 51.1338 87.0338 48.9357 88.3547 47.6631C89.0736 46.9779 90.9426 45.999 91.8771 45.3404C97.9784 41.0599 103.585 35.489 106.371 28.4764C110.163 18.9275 102.579 17.8774 95.3007 20.5116C88.0222 23.1458 78.6771 30.8436 76.197 38.5325C76.0443 39.0042 75.8107 40.4815 75.6669 40.7217C75.5051 40.9976 73.1778 42.2702 72.7286 42.5016C72.3781 42.6796 69.5386 43.9966 69.4128 43.8543H69.4039Z" fill="#CFCFCF"/>
<path d="M96.8553 23.7864C97.2057 26.7854 96.388 29.8645 95.1929 32.5966C90.9067 42.4035 79.3062 51.8011 68.7569 54.0437C56.2488 56.7046 49.3568 48.6864 54.3349 36.9483C57.6686 29.0903 65.8635 21.5882 73.5373 17.8951C74.2382 17.5569 75.8826 16.7471 76.5835 16.7204C78.3896 16.6492 79.1714 18.9452 77.8774 20.0398C76.9968 20.7873 75.4154 21.5882 74.391 22.3091C68.2537 26.6074 62.1794 32.7034 59.6544 39.8672C56.9228 47.6274 62.2782 49.5051 68.9546 47.7609C77.2305 45.5983 87.609 37.1797 90.1609 28.9212C90.2957 28.4851 90.5383 27.0435 90.7001 26.8299C90.8438 26.6341 92.1288 25.9222 92.4433 25.7442C92.9105 25.4772 96.6666 23.5817 96.8643 23.7953L96.8553 23.7864Z" fill="#CFCFCF"/>
<path d="M73.7078 60.7268H71.057C71.057 60.7268 70.9222 60.8603 70.9222 60.8692V66.9207C69.7181 65.6392 67.9749 65.301 66.2766 65.6481C60.8313 66.7605 60.8672 75.4283 66.2766 76.5318C67.912 76.8611 69.7001 76.5407 70.9132 75.3571V76.3894H73.8515V60.8692C73.8515 60.8692 73.7168 60.7268 73.7078 60.7268ZM67.4897 74.0133C64.3536 73.5595 64.4165 68.6204 67.3908 68.1577C72.0814 67.4279 72.0364 74.6808 67.4897 74.0133Z" fill="#CFCFCF"/>
<path d="M57.1199 65.6304C52.7529 64.8384 49.4911 68.4337 50.5963 72.6519C51.7105 76.9058 57.2997 77.5109 60.6963 75.6688L60.3189 73.2927C58.2162 74.3161 54.0289 74.9212 53.31 71.9756H61.0737C61.6308 69.0655 60.211 66.1911 57.1199 65.6304ZM53.31 70.0089C53.7413 67.3391 58.1713 67.1522 58.4229 70.0089H53.31Z" fill="#CFCFCF"/>
<path d="M101.222 70.7121C101.222 66.7163 97.3674 64.536 93.7372 65.9332C89.4689 67.5795 89.2263 74.0315 93.3598 75.9626C95.5702 76.9949 98.6434 76.8703 100.719 75.5799L100.36 73.3818C99.3802 73.6132 98.4007 74.0404 97.3674 74.1205C95.7859 74.254 93.5934 73.809 93.3508 71.9758H100.971C101.087 71.9758 101.222 70.9168 101.222 70.7121ZM93.3508 70.009C93.6743 67.3126 98.1581 67.1969 98.4636 70.009H93.3508Z" fill="#CFCFCF"/>
<path d="M88.8849 66.1822C88.9837 66.9653 88.6962 67.7307 88.7141 68.5138C87.7886 68.1311 83.9337 67.4815 83.4665 68.5138C83.1789 69.1457 83.5833 69.4482 84.1134 69.6529C85.9286 70.3559 88.795 69.8932 89.3611 72.4206C90.4304 77.1906 83.7091 77.2262 80.7887 75.9002L81.0583 73.5686C82.2354 73.9601 85.3894 74.7166 86.3958 73.9334C86.8541 73.5775 86.6744 72.9367 86.1981 72.6609C84.3471 71.5751 80.7079 72.6609 80.5821 69.03C80.4563 65.1677 86.3419 64.9719 88.9028 66.1822H88.8849Z" fill="#CFCFCF"/>
<path d="M113.137 65.7905L115.788 73.4795L118.672 65.7905H121.656L117.675 76.3717L114.225 76.3895L110.01 65.7905H113.137Z" fill="#CFCFCF"/>
<path d="M41.1887 68.7006C40.6316 68.5404 40.0835 68.3446 39.5084 68.2556C36.9564 67.8641 34.0002 69.1277 35.1144 72.1357C35.986 74.494 39.4185 74.2181 41.2876 73.2926L41.5661 75.909C40.7844 76.1314 40.0655 76.4607 39.2568 76.5764C34.6831 77.2171 30.8821 73.8977 32.3019 69.2256C33.1016 66.5915 35.959 65.3278 38.5918 65.5147C39.0142 65.5414 41.3774 65.9863 41.4673 66.3245L41.1887 68.7006Z" fill="#CFCFCF"/>
<path d="M76.8618 6.18348C79.4587 5.90761 81.2289 7.97223 80.6268 10.4729C79.4317 15.3942 71.5962 16.0349 72.1533 10.6153C72.378 8.40829 74.6873 6.41486 76.8618 6.18348Z" fill="#CFCFCF"/>
<path d="M92.7665 4.02989C98.5713 3.44254 97.484 11.701 92.0656 12.2439C86.198 12.8223 87.2762 4.59054 92.7665 4.02989Z" fill="#CFCFCF"/>
<path d="M130.839 67.0988L131.603 66.2178C132.268 65.6928 133.148 65.4525 134.002 65.5148C134.164 65.5237 134.82 65.6572 134.91 65.7372C135.143 65.933 134.856 67.9087 134.811 68.318C133.678 67.9709 132.169 67.9621 131.423 69.0389C131.279 69.2435 130.938 70.0178 130.938 70.2403V76.3807H128V65.7906H130.839V67.0988Z" fill="#CFCFCF"/>
<path d="M45.924 67.0987C46.0767 67.0631 46.0857 66.8228 46.2115 66.6715C47.128 65.5502 48.7185 65.2031 50.0484 65.7816C50.2461 66.0752 49.8777 67.8462 49.9046 68.3178C48.7724 67.9619 47.2628 67.9797 46.499 69.0209C46.3912 69.1633 46.0228 69.9375 46.0228 70.0532V76.3805H43.0845V65.7905H45.924V67.0987Z" fill="#CFCFCF"/>
<path d="M105.517 65.7907C105.778 65.8708 105.616 66.7696 105.661 67.0099C106.362 66.0844 107.333 65.4614 108.555 65.5059C108.752 65.5059 109.624 65.6483 109.741 65.7462C110.019 65.9865 109.597 67.8642 109.642 68.327C108.474 67.9888 107.027 67.9799 106.236 69.03C106.111 69.1991 105.76 69.8843 105.76 70.0623V76.3896H102.822V65.7996C103.496 65.9242 104.96 65.6305 105.517 65.7996V65.7907Z" fill="#CFCFCF"/>
<path d="M78.9647 65.7905H76.0264V76.3806H78.9647V65.7905Z" fill="#CFCFCF"/>
<path d="M125.825 65.7905H122.887V76.3806H125.825V65.7905Z" fill="#CFCFCF"/>
<path d="M77.0505 60.7537C79.8361 60.282 79.8002 64.2422 77.3201 64.0019C75.3163 63.8061 75.4061 61.0295 77.0505 60.7537Z" fill="#CFCFCF"/>
<path d="M123.902 60.7539C124.845 60.5937 125.762 60.9497 125.969 61.9464C126.292 63.4859 124.747 64.5538 123.39 63.7529C122.231 63.0677 122.536 60.9853 123.902 60.7539Z" fill="#CFCFCF"/>
</svg>
