<svg width="164" height="80" viewBox="0 0 164 80" fill="none" xmlns="http://www.w3.org/2000/svg">
<path d="M62.5101 12.41C63.0701 9.03 67.3701 4.31 71.0301 4L122.8 4.08C128.85 5.9 131.65 11.51 130.86 17.59C129.62 17.35 124.3 17.95 123.81 17.53C122.6 16.5 125.01 11.65 119.66 11.03C105.5 9.38 88.2101 12.3 73.7001 11.03C72.3601 10.71 69.6101 13.01 69.6101 14.04V31.77H62.5001C63.1901 25.92 61.5701 17.99 62.5001 12.41H62.5101Z" fill="white"/>
<path d="M41.18 57.9503H33.52V43.5003C33.52 42.1203 30.88 40.8303 29.45 41.0303C28.47 41.1703 26.41 43.3503 26.41 44.0403V57.9503H18.75V43.5003C18.75 41.1103 12.43 39.2803 11.68 44.0803C11.22 46.9803 12.39 55.9103 11.16 57.6403C10.58 58.4603 5.32999 57.7003 3.98999 57.9603V35.6003C5.86999 35.9103 9.13999 35.1203 10.76 35.6703C11.66 35.9803 11.51 37.3803 11.91 37.2303C12.71 36.9403 13.77 35.5003 15.32 35.1803C19.93 34.2303 21.68 35.5603 24.97 38.2903C28.45 33.9203 36.63 33.5203 39.78 38.3503C40.06 38.7803 41.17 41.1003 41.17 41.3303V57.9603L41.18 57.9503Z" fill="white"/>
<path d="M130.86 61.76C131.57 69.4 126.64 74.32 119.13 74.87C103.93 75.99 87.13 74.18 71.78 74.6C65.4 73.5 61.82 68.02 62.51 61.75C63.61 61.94 69.37 61.5 69.62 61.75C70.14 62.28 68.66 66.53 72.67 67.16C87.72 66.12 104.9 68.67 119.69 67.23C124.9 66.72 122.83 61.74 123.21 61.74H130.87L130.86 61.76Z" fill="white"/>
<path d="M149.3 44.7296C148.4 37.6396 140.9 32.6496 134.13 35.3096C132.76 35.8396 132.29 37.1996 130.86 37.2296V21.6796C130.86 20.4596 123.75 20.4596 123.75 21.6796V57.9496C124.85 57.7597 130.61 58.2096 130.86 57.9596C131.1 57.7096 130.46 56.0196 131.13 55.7696C139.54 64.0597 150.67 55.3796 149.3 44.7296ZM135.57 52.4697C128.95 51.8297 128.86 42.4396 134.53 41.1596C143.46 39.1296 144.25 53.2997 135.57 52.4697Z" fill="white"/>
<path d="M112.56 35.5505C111.85 35.6905 112.64 37.0705 112 37.2205C103.88 30.9005 94.0301 36.9605 93.8901 46.8605C93.7701 55.0405 102.83 62.3205 110.49 57.5405C111.55 56.8805 111.37 55.9505 112.26 55.7705C112.37 56.2905 112.12 57.8005 112.27 57.9505C112.53 58.2305 118.76 57.7505 119.92 57.9505V36.4105C119.92 35.3605 113.6 35.3505 112.56 35.5505ZM108.58 52.3705C100.5 54.0105 99.0501 42.6305 105.55 41.1605C113.71 39.3105 115.42 50.9905 108.58 52.3705Z" fill="white"/>
<path d="M62.5 35.5796C62.35 35.7496 62.61 37.2496 62.5 37.7696C52.59 29.2096 40.9 39.5996 44.74 51.3996C47.14 58.7796 57.13 61.7996 62.5 55.7696C62.61 56.2896 62.35 57.7896 62.5 57.9596C62.75 58.2096 68.51 57.7596 69.62 57.9496V35.5896C68.51 35.7796 62.75 35.3296 62.5 35.5896V35.5796ZM56.26 52.4696C50.08 51.6096 50.04 42.2496 55.81 41.1596C65.05 39.4096 65.27 53.7296 56.26 52.4696Z" fill="white"/>
<path d="M81.78 40.6202C79.32 42.8202 85.85 43.7202 86.95 44.1902C91.31 46.0702 93.03 48.9402 91.2 53.5702C88.44 60.5702 77.53 60.4402 72.93 55.4202C72.86 55.0102 75.61 50.9502 75.88 50.9202C76.72 50.8502 82.33 55.4002 84.12 51.9502C85.4 49.4702 80.68 48.9602 79.08 48.2202C77.15 47.3202 75 46.3802 74.56 44.0102C72.76 34.3602 84.77 32.5102 90.92 36.9402C89.9 37.5702 88.74 40.7502 87.87 40.9602C86.85 41.2102 83.89 38.7202 81.78 40.6102V40.6202Z" fill="white"/>
<path d="M159.29 35.5801H152.18V57.9401H159.29V35.5801Z" fill="white"/>
<path d="M155.32 21.5101C160.54 20.8201 162.06 28.9701 157.26 30.0201C150.76 31.4501 149.57 22.2601 155.32 21.5101Z" fill="white"/>
</svg>
