<svg width="164" height="80" viewBox="0 0 164 80" fill="none" xmlns="http://www.w3.org/2000/svg">
<g clip-path="url(#clip0_774_3123)">
<path d="M13 28.1293C14.3431 22.3274 19.1377 21.2107 24.3072 23.7642C27.6416 25.4119 36.9575 40.0534 38.3397 40.0144C44.5399 33.986 50.2247 18.2277 60.9228 24.0063C62.1957 25.326 62.6252 29.3866 62.7892 31.2997C63.3904 38.3121 63.8043 62.4648 62.3597 68.462C60.6027 75.732 49.8577 73.8579 49.8577 67.9466V44.1531C49.8577 43.8876 50.9744 43.4971 50.7792 42.7865C48.1632 40.9436 43.923 49.9941 42.0333 51.9385C35.2552 58.904 32.038 49.0805 28.0086 43.9344C27.4151 43.177 28.0398 42.2711 25.9002 42.7787V68.8602C25.9002 74.1156 14.101 74.8574 13 68.3995L13 28.1293Z" fill="white"/>
<path d="M77.5089 25.3804C88.6209 21.2261 100.061 21.7571 108.502 30.8076C119.075 21.6478 134.193 18.9616 145.243 29.0428C151.505 34.751 151.006 44.5589 141.588 42.7551C136.848 41.8493 135.654 33.525 125.182 35.6569C111.516 38.4446 113.016 59.2942 127.064 60.9028C136.247 61.957 139.316 48.6508 147.164 53.6875C155.121 58.7944 144.384 68.8132 138.824 71.1558C126.876 76.2003 111.758 71.8352 105.722 60.0595C100.654 50.1813 105.168 32.6895 87.2543 35.5007C66.3188 38.7882 83.1625 75.2633 100.1 55.5928L106.019 66.9C101.193 72.4677 92.4706 73.8889 85.4349 72.8816C82.897 72.5146 79.4845 70.2032 77.9696 70.25C76.3688 70.2969 75.0101 72.3506 73.175 72.7801C67.4511 74.131 65.1944 70.1797 64.6165 65.1743C63.3749 54.3434 63.4061 25.7396 64.7258 14.94C65.3583 9.75494 68.4663 4.74166 74.1901 8.07604C75.1116 8.61485 77.5167 11.3558 77.5167 12.0898V25.357L77.5089 25.3804Z" fill="white"/>
</g>
<defs>
<clipPath id="clip0_774_3123">
<rect width="164" height="80" fill="white"/>
</clipPath>
</defs>
</svg>
