<svg width="156" height="41" viewBox="0 0 156 41" fill="none" xmlns="http://www.w3.org/2000/svg">
<g opacity="0.5">
<path fill-rule="evenodd" clip-rule="evenodd" d="M24.6174 25.1341C23.4961 25.1082 22.6193 25.2206 21.8859 25.5407C21.6751 25.6272 21.3379 25.6272 21.3126 25.9039C21.4222 26.0164 21.439 26.2066 21.5402 26.3623C21.7332 26.6976 21.9814 26.9961 22.2737 27.2446L23.1757 27.9105C23.7237 28.2565 24.3392 28.4554 24.8787 28.8014C25.1906 29.0003 25.4941 29.2598 25.7218 29.476C25.8735 29.5885 25.9747 29.7788 26.1686 29.848V29.8047C26.0674 29.675 26.0421 29.4847 25.941 29.3463L25.5194 28.9311C25.1086 28.3731 24.6167 27.883 24.0609 27.4781C23.6141 27.1581 22.6277 26.7256 22.4423 26.198L22.417 26.1721C22.7289 26.1461 23.0914 26.025 23.3865 25.9385C23.867 25.8088 24.297 25.8347 24.7944 25.705L25.4688 25.5061V25.3763C25.2159 25.1169 25.0305 24.7709 24.7691 24.5287C24.0525 23.8973 23.2685 23.2746 22.4507 22.7556C22.0123 22.4702 21.4559 22.2799 20.9922 22.0377C20.8236 21.9513 20.5454 21.908 20.4442 21.761C20.1913 21.4409 20.048 21.0258 19.871 20.6539L18.716 18.1456C18.463 17.5834 18.3113 17.0212 17.9994 16.5023C16.6974 14.2306 14.8177 12.365 12.5617 11.1052C12.039 10.8024 11.4235 10.6727 10.7659 10.517L9.71212 10.4565C9.4845 10.3527 9.2653 10.0846 9.06297 9.95482C8.26207 9.43587 6.19658 8.31148 5.69074 9.79914C5.31137 10.7333 6.25559 11.6587 6.57595 12.1344C6.81201 12.4631 7.12394 12.8437 7.29255 13.2156C7.39372 13.4577 7.41901 13.7172 7.52018 13.9767L8.25363 15.9055C8.40584 16.2155 8.58057 16.5132 8.77633 16.7963C8.88593 16.952 9.08826 17.0299 9.13041 17.2893C8.93651 17.5748 8.91965 18.0072 8.81005 18.3705C8.30422 19.9965 8.49812 22.0204 9.21472 23.214C9.44234 23.5773 10.0578 24.3644 10.6901 24.0617C11.3224 23.8022 11.179 22.9805 11.3645 22.2626C11.4067 22.0896 11.3814 21.9772 11.4657 21.8561V21.8821L12.039 23.0756C12.4773 23.7849 13.2361 24.5201 13.8684 25.0044C14.2056 25.2639 14.4754 25.7136 14.8969 25.8693V25.8261H14.8379C14.7536 25.6964 14.6271 25.6358 14.5175 25.5407C14.2504 25.2734 14.0051 24.9841 13.7841 24.6757C13.1889 23.8484 12.6615 22.9718 12.2076 22.055C11.9799 21.6053 11.786 21.1209 11.6006 20.6712C11.5163 20.4982 11.5163 20.2387 11.3729 20.1522C11.1622 20.4722 10.8502 20.7404 10.6985 21.1296C10.4287 21.7523 10.4034 22.5134 10.3023 23.3092C9.79643 23.2227 9.64468 22.747 9.47607 22.3405C9.05454 21.3199 8.98709 19.6592 9.34961 18.4916C9.45077 18.1889 9.8723 17.2374 9.70369 16.952C9.61939 16.6752 9.34118 16.5196 9.181 16.3033C8.99552 16.0266 8.80162 15.6806 8.67516 15.3779C8.43068 14.5648 8.17776 13.6653 7.81525 12.861C7.64663 12.489 7.35156 12.1085 7.10708 11.7625C6.84573 11.3646 6.55066 11.0879 6.3399 10.6381C6.26402 10.4651 6.17129 10.2056 6.28088 10.0327C6.30617 9.92023 6.36519 9.87698 6.47479 9.84238C6.66026 9.6867 7.17452 9.88563 7.36 9.97212C7.88269 10.1884 8.31265 10.3873 8.75104 10.69C8.94494 10.837 9.15571 11.1052 9.40862 11.183H9.70369C10.1505 11.2868 10.6563 11.209 11.0779 11.3387C11.8198 11.5809 12.4942 11.9441 13.1012 12.3333C14.9617 13.5501 16.4744 15.2513 17.4851 17.2634C17.6537 17.5921 17.7212 17.8948 17.8813 18.2407L18.834 20.3598C19.1291 21.0344 19.4073 21.7264 19.8288 22.2886C20.0396 22.5913 20.8826 22.747 21.262 22.9113C21.5402 23.041 21.9786 23.1535 22.2315 23.3178L23.6394 24.2952C23.867 24.4682 24.4825 24.8314 24.6089 25.1169L24.6174 25.1341Z" fill="#099DD2"/>
<path fill-rule="evenodd" clip-rule="evenodd" d="M10.2853 12.6016C10.0493 12.6016 9.88065 12.6275 9.71204 12.6708V12.6967H9.73733C9.84693 12.9302 10.0493 13.0859 10.1841 13.2848L10.5045 13.9768L10.5298 13.9508C10.7237 13.8038 10.8249 13.5789 10.8249 13.233C10.7406 13.1292 10.7237 13.034 10.6563 12.9302C10.572 12.7832 10.3865 12.714 10.2769 12.6016H10.2853Z" fill="#099DD2"/>
<path fill-rule="evenodd" clip-rule="evenodd" d="M84.8453 28.8888H96.9348C98.3511 28.8888 99.7 28.5947 100.796 28.0671C102.625 27.2022 103.494 26.0519 103.494 24.5383V21.3727C103.494 20.1618 102.499 18.9941 100.509 18.2071C99.3645 17.7902 98.158 17.5795 96.9432 17.5843H91.868C90.165 17.5843 89.3641 17.0654 89.1365 15.9064C89.1028 15.7766 89.1028 15.6469 89.1028 15.5085V13.5624C89.1028 13.4587 89.1028 13.3289 89.1365 13.1992C89.3641 12.3083 89.8109 12.0748 91.2947 11.9018H103.671V9.03027H91.8933C90.1903 9.03027 89.2798 9.13406 88.4873 9.39354C86.0088 10.172 84.9212 11.4347 84.9212 13.6489V16.1572C84.9212 18.1033 87.0457 19.7553 90.654 20.1358C91.0418 20.1704 91.4549 20.1704 91.8764 20.1704H96.2182C96.3868 20.1704 96.5385 20.1704 96.665 20.205C97.9801 20.3348 98.5619 20.5683 98.9412 21.0699C99.1942 21.3294 99.2616 21.5629 99.2616 21.8657V24.3739C99.2616 24.668 99.0677 25.0659 98.6715 25.3945C98.2752 25.7232 97.6767 25.9567 96.8673 26C96.6987 26 96.6144 26.0346 96.4458 26.0346H84.8453V28.8888ZM129.654 23.9069C129.654 26.8476 131.812 28.4909 136.12 28.8196L137.342 28.8888H148.268V26.0346H137.25C134.721 26.0346 133.877 25.4118 133.877 23.8896V9.03892H129.662V23.9155L129.654 23.9069ZM106.158 24.0366V13.8219C106.158 11.2272 107.954 9.63572 111.469 9.15136L112.59 9.08217H120.566C120.987 9.08217 121.341 9.11676 121.746 9.15136C125.253 9.64437 127.015 11.2272 127.015 13.8219V24.0453C127.015 26.1557 126.273 27.2801 124.536 28.0239L128.651 31.8468H123.795L120.448 28.7504L117.075 28.9494H112.573C111.832 28.9494 110.997 28.8629 110.044 28.6207C107.38 27.8596 106.057 26.4065 106.057 24.0366H106.158ZM110.693 23.8117C110.693 23.9415 110.761 24.0712 110.795 24.2442C111.022 25.4291 112.11 26.0865 113.779 26.0865H117.573L114.099 22.8517H118.955L122.007 25.6886C122.597 25.3599 122.935 24.8929 123.07 24.3047C123.103 24.175 123.103 24.0107 123.103 23.8723V14.0987C123.103 13.969 123.103 13.8392 123.07 13.7008C122.842 12.5764 121.754 11.9537 120.119 11.9537H113.796C111.941 11.9537 110.71 12.7754 110.71 14.0987L110.693 23.8117Z" fill="#DEA758"/>
<path fill-rule="evenodd" clip-rule="evenodd" d="M29.0435 28.905H33.225V11.9179L39.7503 26.7254C40.4922 28.5071 41.5544 29.1644 43.6115 29.1644C45.6685 29.1644 46.6633 28.5071 47.4389 26.7254L53.9305 11.9179V28.905H58.1458V11.9179C58.1458 10.2746 57.505 9.47887 56.1561 9.04641C52.9778 8.0604 50.8449 8.91667 49.8838 11.1222L43.4766 25.7653L37.3054 11.1222C36.378 8.91667 34.2198 8.0604 31.0078 9.04641C29.6926 9.47887 29.0435 10.2573 29.0435 11.9179V28.905ZM61.6107 15.0835H65.826V24.4247C65.7923 24.9436 65.9946 26.1372 68.3552 26.1718H77.3927V15.0144H81.608V30.2802C81.608 34.0426 77.0724 34.8642 74.9479 34.8988H61.7119V32.0273H74.99C77.6878 31.7332 77.3674 30.3494 77.3674 29.8823V28.7579H68.4563C64.3085 28.7233 61.6444 26.8551 61.6107 24.6928V15.0835Z" fill="#099DD2"/>
</g>
</svg>
