<svg width="164" height="80" viewBox="0 0 164 80" fill="none" xmlns="http://www.w3.org/2000/svg">
<g clip-path="url(#clip0_790_3757)">
<path d="M0 28V53H48.4285V28H0ZM22.8161 50.7241V31.1845L2.32436 50.7241V30.2759H45.6322C45.837 31.0699 45.2938 31.1845 44.9376 31.6433C43.7798 33.1076 35.8628 39.8737 35.8628 40.5L46.0953 50.7241H22.8161Z" fill="white"/>
<path d="M35.3551 40.5618C35.4887 41.3204 26.9305 49.1539 25.6124 50.2742V31.1846L35.3551 40.5618Z" fill="white"/>
<path d="M67.8516 36.7333C67.442 36.054 66.8542 35.5335 66.0883 35.1807C65.3314 34.819 64.4141 34.6426 63.3454 34.6426H58.3939V47.3896H60.6292V43.711H63.3454C64.4141 43.711 65.3314 43.5258 66.0883 43.1553C66.8542 42.7848 67.442 42.2643 67.8516 41.5939C68.2613 40.9146 68.475 40.1119 68.475 39.1768C68.475 38.2417 68.2613 37.4125 67.8516 36.7333ZM65.4739 41.047C64.9751 41.488 64.2271 41.7086 63.2475 41.7086H60.6292V42.873L60.5224 42.7407L59.6496 41.7086H60.6292V36.645H59.6496L60.6292 35.4806V36.645H63.2475C64.2271 36.645 64.9751 36.8656 65.4739 37.3067C65.9726 37.7566 66.2219 38.3741 66.2219 39.1768C66.2219 39.9796 65.9726 40.5971 65.4739 41.047Z" fill="white"/>
<path d="M70.5144 34.6426V47.3896H72.7497V34.6426H70.5144Z" fill="white"/>
<path d="M81.112 40.8L85.3244 34.6426H82.8931L79.8652 39.1503L76.775 34.6426H74.228L78.4671 40.8793L74.0054 47.3896H76.5524L79.7762 42.5378L83.0534 47.3896H85.6093L81.112 40.8Z" fill="white"/>
<path d="M99.2528 43.1994L98.9678 42.7671H96.5811L97.1689 43.6581L99.6268 47.3896H102.031L99.2528 43.1994ZM100.455 35.8511C99.5467 35.0484 98.291 34.6426 96.688 34.6426H91.7454V47.3896H93.9807V43.6757H96.7058C96.8661 43.6757 97.0175 43.6757 97.1689 43.6581C97.9526 43.6228 98.6472 43.4729 99.2528 43.1994C99.3151 43.1906 99.3774 43.1553 99.4398 43.1288C100.206 42.7671 100.793 42.2467 101.203 41.5851C101.622 40.9146 101.826 40.1119 101.826 39.1768C101.826 37.7654 101.372 36.6627 100.455 35.8511ZM98.8253 41.0558C98.3266 41.5057 97.5874 41.7262 96.5989 41.7262H93.9807V42.873L93.8649 42.7407L93.0011 41.7262H93.9807V36.645H93.0011L93.9807 35.4806V36.645H96.5989C97.5874 36.645 98.3266 36.8656 98.8253 37.3067C99.324 37.7566 99.5734 38.3741 99.5734 39.1768C99.5734 39.9796 99.324 40.6059 98.8253 41.0558Z" fill="white"/>
<path d="M112.317 39.9444C111.899 39.2034 111.32 38.6123 110.581 38.1889C109.841 37.7567 108.995 37.5361 108.051 37.5361C107.107 37.5361 106.27 37.7567 105.54 38.1889C104.801 38.6123 104.222 39.2034 103.803 39.9444C103.376 40.6854 103.162 41.5499 103.162 42.5291C103.162 43.5083 103.376 44.3463 103.803 45.0961C104.222 45.8548 104.81 46.4458 105.549 46.8781C106.288 47.3015 107.116 47.522 108.051 47.522C108.986 47.522 109.833 47.3015 110.572 46.8781C111.32 46.4458 111.899 45.8548 112.317 45.1049C112.736 44.3639 112.949 43.4994 112.949 42.5291C112.949 41.5587 112.736 40.6854 112.317 39.9444ZM110.429 44.1434C110.198 44.6109 109.868 44.9638 109.458 45.2196C109.049 45.4666 108.577 45.5901 108.051 45.5901C107.526 45.5901 107.081 45.4666 106.671 45.2196C106.261 44.9638 105.932 44.6109 105.691 44.1434C105.451 43.6759 105.335 43.1378 105.335 42.5291C105.335 41.9204 105.451 41.3735 105.691 40.9147C105.932 40.4649 106.261 40.112 106.671 39.8562C107.081 39.6092 107.553 39.4857 108.069 39.4857C108.586 39.4857 109.049 39.6092 109.458 39.8562C109.868 40.112 110.198 40.4649 110.429 40.9147C110.661 41.3735 110.785 41.9116 110.785 42.5291C110.785 43.1466 110.661 43.6759 110.429 44.1434Z" fill="white"/>
<path d="M123.957 39.9089C123.556 39.1502 122.995 38.568 122.3 38.1534C121.597 37.7476 120.804 37.5359 119.914 37.5359C119.157 37.5359 118.471 37.7212 117.865 38.074C117.527 38.2769 117.233 38.5327 116.975 38.8503C116.761 39.1061 116.583 39.3884 116.423 39.7148C116.066 40.447 115.888 41.3909 115.888 42.5288C115.888 43.6668 116.058 44.5931 116.396 45.3341C116.538 45.6428 116.699 45.9163 116.886 46.1545C117.153 46.4985 117.474 46.772 117.83 46.9837C118.453 47.3454 119.139 47.5218 119.914 47.5218C120.804 47.5218 121.597 47.3101 122.3 46.9043C122.995 46.4897 123.556 45.9075 123.957 45.1576C124.366 44.4166 124.571 43.5345 124.571 42.5288C124.571 41.5232 124.366 40.6587 123.957 39.9089ZM122.024 44.1432C121.784 44.6107 121.463 44.9636 121.054 45.2194C120.644 45.4664 120.181 45.5899 119.655 45.5899C119.13 45.5899 118.694 45.4664 118.275 45.2194C117.865 44.9636 117.536 44.6107 117.295 44.1432C117.055 43.6756 116.939 43.1375 116.939 42.5288C116.939 41.9202 117.055 41.3732 117.295 40.9145C117.536 40.4646 117.865 40.1118 118.275 39.8559C118.694 39.6089 119.148 39.4854 119.655 39.4854C120.163 39.4854 120.644 39.6089 121.054 39.8559C121.463 40.1118 121.784 40.4646 122.024 40.9145C122.265 41.3732 122.389 41.9113 122.389 42.5288C122.389 43.1463 122.265 43.6756 122.024 44.1432ZM114.838 33.875V47.3895H116.886V45.0959L116.797 42.5112L116.975 39.9265V33.875H114.838Z" fill="white"/>
<path d="M134.822 39.9444C134.403 39.2034 133.824 38.6123 133.085 38.1889C132.346 37.7567 131.5 37.5361 130.556 37.5361C129.612 37.5361 128.775 37.7567 128.044 38.1889C127.305 38.6123 126.726 39.2034 126.308 39.9444C125.88 40.6854 125.667 41.5499 125.667 42.5291C125.667 43.5083 125.88 44.3463 126.308 45.0961C126.726 45.8548 127.314 46.4458 128.053 46.8781C128.792 47.3015 129.621 47.522 130.556 47.522C131.491 47.522 132.337 47.3015 133.076 46.8781C133.824 46.4458 134.403 45.8548 134.822 45.1049C135.24 44.3639 135.454 43.4994 135.454 42.5291C135.454 41.5587 135.24 40.6854 134.822 39.9444ZM132.934 44.1434C132.702 44.6109 132.373 44.9638 131.963 45.2196C131.553 45.4666 131.081 45.5901 130.556 45.5901C130.03 45.5901 129.594 45.4666 129.175 45.2196C128.766 44.9638 128.436 44.6109 128.196 44.1434C127.955 43.6759 127.84 43.1378 127.84 42.5291C127.84 41.9204 127.955 41.3735 128.196 40.9147C128.436 40.4649 128.766 40.112 129.175 39.8562C129.594 39.6092 130.057 39.4857 130.574 39.4857C131.09 39.4857 131.553 39.6092 131.963 39.8562C132.373 40.112 132.702 40.4649 132.934 40.9147C133.165 41.3735 133.29 41.9116 133.29 42.5291C133.29 43.1466 133.165 43.6759 132.934 44.1434Z" fill="white"/>
<path d="M142.222 45.2457C141.919 45.5103 141.528 45.6427 141.056 45.6427C140.646 45.6427 140.325 45.5192 140.094 45.2633C139.862 45.0075 139.746 44.6458 139.746 44.1871V35.5156H137.618V44.2577C137.618 45.3251 137.894 46.1367 138.446 46.6924C138.998 47.2482 139.773 47.5216 140.779 47.5216C141.162 47.5216 141.536 47.4687 141.902 47.354C142.267 47.2482 142.578 47.0806 142.846 46.8688L142.222 45.2457ZM136.104 37.6681V39.4853H142.222V37.6681H136.104Z" fill="white"/>
<path d="M144.44 37.6683V47.3895H146.577V37.6683H144.44ZM146.497 33.6986C146.239 33.4516 145.909 33.3281 145.508 33.3281C145.108 33.3281 144.778 33.4604 144.52 33.7339C144.262 33.9986 144.137 34.3161 144.137 34.6778C144.137 35.066 144.262 35.3923 144.52 35.657C144.778 35.9305 145.108 36.0628 145.508 36.0628C145.909 36.0628 146.256 35.9216 146.506 35.6482C146.755 35.3747 146.889 35.0483 146.889 34.6602C146.889 34.272 146.755 33.9544 146.497 33.6986Z" fill="white"/>
<path d="M154.681 45.2549C154.289 45.4754 153.862 45.5901 153.399 45.5901C152.873 45.5901 152.401 45.4666 151.974 45.2196C151.546 44.9638 151.217 44.6109 150.976 44.1522C150.736 43.6935 150.611 43.1466 150.611 42.5291C150.611 41.9116 150.736 41.3735 150.976 40.9147C151.217 40.4649 151.546 40.112 151.974 39.8562C152.401 39.6092 152.873 39.4857 153.399 39.4857C153.862 39.4857 154.289 39.6004 154.681 39.8209C155.073 40.0502 155.411 40.3855 155.687 40.8354L157.317 39.8121C156.979 39.0711 156.462 38.5065 155.776 38.1183C155.082 37.7302 154.298 37.5361 153.416 37.5361C152.455 37.5361 151.6 37.7567 150.852 38.1889C150.095 38.6123 149.507 39.2034 149.088 39.9444C148.661 40.6854 148.447 41.5499 148.447 42.5291C148.447 43.5083 148.661 44.3639 149.088 45.1049C149.507 45.8548 150.095 46.4458 150.852 46.8781C151.6 47.3015 152.455 47.522 153.416 47.522C154.298 47.522 155.082 47.3191 155.776 46.931C156.462 46.534 156.979 45.9694 157.317 45.2461L155.687 44.2228C155.411 44.6815 155.073 45.0255 154.681 45.2549Z" fill="white"/>
<path d="M165.697 43.1819C165.483 42.8466 165.216 42.582 164.878 42.3968C164.539 42.2027 164.165 42.0615 163.765 41.9557C163.364 41.8498 162.963 41.7704 162.554 41.6999C162.144 41.6381 161.779 41.5587 161.449 41.4793C161.111 41.3999 160.844 41.2941 160.639 41.1441C160.434 41.003 160.327 40.7824 160.327 40.4913C160.327 40.1737 160.487 39.9179 160.808 39.715C161.129 39.5121 161.61 39.4151 162.251 39.4151C162.687 39.4151 163.132 39.468 163.578 39.5651C164.023 39.6709 164.459 39.8562 164.887 40.1208L165.724 38.3918C165.305 38.1272 164.771 37.9155 164.139 37.7655C163.498 37.6155 162.874 37.5361 162.269 37.5361C161.449 37.5361 160.737 37.6685 160.131 37.9243C159.526 38.1713 159.063 38.533 158.733 38.9829C158.395 39.4416 158.234 39.9709 158.234 40.5795C158.234 41.1529 158.332 41.6028 158.537 41.9469C158.751 42.2821 159.018 42.5555 159.348 42.7584C159.677 42.9613 160.051 43.1113 160.461 43.2083C160.861 43.3142 161.271 43.3936 161.681 43.4553C162.082 43.5171 162.456 43.5876 162.785 43.6582C163.123 43.7288 163.391 43.8347 163.595 43.9758C163.8 44.1169 163.907 44.3198 163.907 44.5845C163.907 44.9197 163.756 45.1755 163.453 45.3608C163.141 45.5548 162.66 45.643 161.992 45.643C161.414 45.643 160.835 45.5548 160.256 45.3784C159.686 45.202 159.196 44.9726 158.778 44.6992L157.958 46.4282C158.377 46.7281 158.938 46.9927 159.641 47.2044C160.336 47.4162 161.075 47.522 161.859 47.522C162.723 47.522 163.453 47.3985 164.067 47.1515C164.682 46.8957 165.154 46.5517 165.492 46.1106C165.831 45.6695 166 45.1314 166 44.5139C166 43.967 165.902 43.5259 165.697 43.1819Z" fill="white"/>
</g>
<defs>
<clipPath id="clip0_790_3757">
<rect width="164" height="80" fill="white"/>
</clipPath>
</defs>
</svg>
