<svg width="164" height="80" viewBox="0 0 164 80" fill="none" xmlns="http://www.w3.org/2000/svg">
<path d="M154.232 32.501C153.119 32.4108 149.169 32.3207 148.433 32.7623C147.814 33.1409 147.275 35.1688 146.656 35.989C146.189 36.6108 143.926 38.5847 143.926 38.7739V59.5577C145.058 59.4315 150.453 60.0263 150.453 58.8006V50.04C156.567 50.5538 161.72 49.8688 164 43.5327V39.531C162.204 34.6731 159.377 32.9336 154.232 32.501ZM154.69 45.0109C154.044 45.11 150.713 45.1641 150.507 44.9838C150.031 44.5782 149.69 38.2692 149.95 38.0259C152.67 37.8456 157.051 36.9443 157.509 40.7658C157.788 43.1001 157.123 44.6053 154.69 45.0109Z" fill="white"/>
<path d="M138.908 20H134.392C130.326 22.2442 127.399 25.2275 127.857 30.2657C127.991 31.7077 128.88 32.9605 128.88 34.2764C128.88 35.8987 127.623 37.4219 127.614 39.0352C129.051 38.855 130.81 37.5841 132.184 37.5391C133.396 37.503 134.105 38.3502 135.164 38.5035C147.832 40.27 150.884 23.2717 138.908 20ZM137.525 37.4039C135.497 37.5211 133.988 36.1331 132.597 36.0249C131.214 35.9258 130.622 37.0614 129.374 37.0253C131.268 34.4657 129.679 33.258 129.401 31.2391C127.372 16.8815 148.891 19.1167 144.546 32.3837C143.693 34.9794 140.183 37.2507 137.525 37.4039Z" fill="white"/>
<path d="M134.76 23.1361C128.297 24.7855 129.114 37.9714 139.42 35.2855C146.189 33.528 144.51 20.6396 134.76 23.1361ZM142.418 28.5078C139.168 29.301 139.752 26.9756 138.908 24.5151C140.416 24.0555 142.678 28.3276 142.418 28.5078ZM137.148 25.0198L138.908 28.5078H135.398L137.148 25.0198ZM131.888 27.7778C132.22 26.6602 133.836 25.3894 134.644 24.5241L134.365 28.4898C134.267 28.5889 131.528 29.0035 131.888 27.7778ZM131.888 30.761C131.52 29.5263 134.267 29.9409 134.365 30.04C134.518 30.1842 134.886 33.3568 135.389 34.0147C134.742 34.6907 132.085 31.437 131.888 30.761ZM135.398 30.022H138.908L137.148 33.51L135.398 30.022ZM138.908 34.0147C139.752 31.5542 139.168 29.2289 142.418 30.022C142.678 30.2023 140.416 34.4744 138.908 34.0147Z" fill="white"/>
<path d="M79.208 40.8111C68.3902 46.7055 76.2455 64.4159 88.7421 58.8279C90.2144 58.1699 94.0926 55.6824 91.9111 54.1141C88.1496 51.4283 89.4782 53.6455 86.8478 54.9343C84.0379 56.3043 80.0968 55.1867 79.1811 52.0412H94.2363C95.8881 43.2266 87.2518 36.4399 79.208 40.8111ZM79.1811 47.5437C80.7881 42.6047 87.9431 42.803 89.7206 47.5437H79.1811Z" fill="white"/>
<path d="M45.381 40.0357C44.995 40.1259 45.0399 41.0542 44.7795 41.0632C44.0254 41.0902 42.3556 39.7113 40.7935 39.522C35.7482 38.9001 31.2146 41.5589 29.5987 46.3988C26.4296 55.9164 36.8794 63.3701 45.0399 58.0525C44.4114 60.6842 47.7511 59.2151 49.5645 59.5576V40.0267C48.2897 40.207 46.5481 39.7473 45.381 40.0357ZM40.5601 55.3486C32.8485 57.0881 31.053 45.5967 37.3731 44.1456C46.0184 42.1538 47.6254 53.7443 40.5601 55.3486Z" fill="white"/>
<path d="M129.868 40.0264C128.728 40.1797 127.237 39.7831 126.187 40.0355C125.801 40.1256 125.855 41.0539 125.585 41.0629C124.903 41.0809 122.704 39.684 121.088 39.5307C106.472 38.1337 106.068 59.7466 119.633 59.999C121.77 60.0441 123.655 58.6921 125.146 58.5299C126.052 58.4308 125.738 59.4402 126.196 59.5484C126.672 59.6565 129.742 59.6835 129.868 59.5574C130.568 58.8634 129.347 42.4509 129.868 40.0264ZM120.962 55.4475C113.61 56.8715 111.293 45.5604 118.188 44.1543C126.968 42.3698 127.964 54.0865 120.962 55.4475Z" fill="white"/>
<path d="M16.6262 35.5921C16.2761 35.3938 13.8612 34.5195 13.6726 34.5195H0.628421L0 58.8273C0.215459 60.026 3.45632 59.4402 4.38997 59.5573V49.544H13.1789C14.0228 49.544 17.2008 48.0208 17.9639 47.3088C21.2496 44.2444 20.5314 37.8182 16.6262 35.5921ZM13.6726 45.0376H4.38997V39.026C7.21786 39.3685 10.9884 38.5663 13.6726 39.026C14.714 39.2062 16.0427 41.2161 15.9619 42.2616C15.908 42.9466 13.8881 45.0376 13.6726 45.0376Z" fill="white"/>
<path d="M72.1518 59.5576C71.0565 59.4224 68.471 59.9722 67.8516 59.089C65.9214 56.322 71.1553 43.758 62.3663 43.4967C54.3226 43.2533 56.6298 54.1409 56.3694 59.089C55.75 59.9722 53.1465 59.4224 52.0692 59.5576V40.0357H56.5849L56.3335 42.0366C60.0232 38.5125 66.4511 38.7018 69.9074 42.5143C70.2934 42.9379 72.1428 46.0744 72.1428 46.2907V59.5576H72.1518Z" fill="white"/>
<path d="M96.741 37.5297C97.54 37.6649 101.077 37.3404 101.257 37.5297C101.472 37.746 101.041 41.3241 101.257 41.5404C101.454 41.7387 105.431 41.3962 106.284 41.5404V46.0469H101.257C100.817 52.9508 101.14 55.6636 108.798 55.3482V59.5662C105.35 59.7375 101.544 59.7915 98.9763 57.0877C98.4377 56.5199 96.741 53.3383 96.741 52.8066V37.5387V37.5297Z" fill="white"/>
<path d="M140.416 40.5312V59.5575H133.89V40.5312C136.251 40.9999 138.055 40.9999 140.416 40.5312Z" fill="white"/>
<path d="M26.9772 59.5578H22.4615V34.5291C23.2965 34.5291 26.9772 34.2406 26.9772 35.2771V59.5578Z" fill="white"/>
<path d="M134.76 23.1361C128.297 24.7855 129.114 37.9714 139.42 35.2855C146.189 33.528 144.51 20.6396 134.76 23.1361ZM142.418 28.5078C139.168 29.301 139.752 26.9756 138.908 24.5151C140.416 24.0555 142.678 28.3276 142.418 28.5078ZM137.148 25.0198L138.908 28.5078H135.398L137.148 25.0198ZM131.888 27.7778C132.22 26.6602 133.836 25.3894 134.644 24.5241L134.365 28.4898C134.267 28.5889 131.528 29.0035 131.888 27.7778ZM131.888 30.761C131.52 29.5263 134.267 29.9409 134.365 30.04C134.518 30.1842 134.886 33.3568 135.389 34.0147C134.742 34.6907 132.085 31.437 131.888 30.761ZM135.398 30.022H138.908L137.148 33.51L135.398 30.022ZM138.908 34.0147C139.752 31.5542 139.168 29.2289 142.418 30.022C142.678 30.2023 140.416 34.4744 138.908 34.0147Z" fill="white"/>
<path d="M134.76 23.1361C128.297 24.7855 129.114 37.9714 139.42 35.2855C146.189 33.528 144.51 20.6396 134.76 23.1361ZM142.418 28.5078C139.168 29.301 139.752 26.9756 138.908 24.5151C140.416 24.0555 142.678 28.3276 142.418 28.5078ZM137.148 25.0198L138.908 28.5078H135.398L137.148 25.0198ZM131.888 27.7778C132.22 26.6602 133.836 25.3894 134.644 24.5241L134.365 28.4898C134.267 28.5889 131.528 29.0035 131.888 27.7778ZM131.888 30.761C131.52 29.5263 134.267 29.9409 134.365 30.04C134.518 30.1842 134.886 33.3568 135.389 34.0147C134.742 34.6907 132.085 31.437 131.888 30.761ZM135.398 30.022H138.908L137.148 33.51L135.398 30.022ZM138.908 34.0147C139.752 31.5542 139.168 29.2289 142.418 30.022C142.678 30.2023 140.416 34.4744 138.908 34.0147Z" fill="white"/>
</svg>
