<svg width="164" height="80" viewBox="0 0 164 80" fill="none" xmlns="http://www.w3.org/2000/svg">
<path d="M17.6481 25.892C17.6442 25.7416 17.603 25.5945 17.5281 25.464C17.4481 25.3251 17.3329 25.2096 17.1942 25.1294C17.0554 25.0491 16.8979 25.0068 16.7376 25.0068C16.5772 25.0068 16.4198 25.0491 16.281 25.1294C16.1422 25.2096 16.027 25.3251 15.9471 25.464L6.80907 41.274L0.12207 52.86C0.198251 52.7296 0.305417 52.6201 0.434071 52.541L14.0761 44.248L18.0031 41.861L17.6481 25.892Z" fill="white"/>
<path d="M32.118 54.1182L18.118 46.4492L14.087 44.2422L0.445019 52.5352C0.316366 52.6142 0.2092 52.7238 0.133019 52.8542C0.0526739 52.9929 0.010329 53.1504 0.010254 53.3108C0.010179 53.4711 0.0523766 53.6286 0.132591 53.7675C0.212806 53.9063 0.328201 54.0215 0.467148 54.1015C0.606095 54.1815 0.763682 54.2235 0.924019 54.2232H32.555C32.4029 54.2253 32.2526 54.1892 32.118 54.1182Z" fill="white"/>
<path d="M33.3461 52.859L17.5261 25.459C17.601 25.5895 17.6423 25.7366 17.6461 25.887L18.0071 41.849L18.1071 46.444L32.1071 54.113C32.2818 54.2085 32.483 54.2443 32.6799 54.2149C32.8768 54.1855 33.0587 54.0925 33.1979 53.9502C33.3371 53.8078 33.4259 53.6238 33.4509 53.4263C33.4758 53.2288 33.4355 53.0285 33.3361 52.856L33.3461 52.859Z" fill="white" fill-opacity="0.8"/>
<path d="M41.0659 32.5146H46.5549C49.8659 32.5146 52.0449 34.2746 52.0449 37.1666V37.2086C52.0449 40.3716 49.4049 42.0087 46.2829 42.0087H42.7209V47.1837H41.0659V32.5146ZM46.3459 40.4977C48.7769 40.4977 50.3689 39.1977 50.3689 37.2707V37.2287C50.3689 35.1337 48.7979 34.0436 46.4299 34.0436H42.7219V40.4977H46.3459Z" fill="white"/>
<path d="M58.2021 32.5153H64.5092C66.0386 32.4326 67.5383 32.9602 68.6792 33.9823C69.0485 34.3661 69.3385 34.8191 69.5326 35.3151C69.7266 35.8112 69.821 36.3407 69.8102 36.8733V36.9153C69.8102 39.3463 68.1341 40.7703 65.8291 41.1903L70.3291 47.1823H68.3022L64.0491 41.4823H59.8591V47.1823H58.2021V32.5153ZM64.3622 39.9953C66.5622 39.9953 68.1341 38.8633 68.1341 36.9783V36.9363C68.1341 35.1363 66.7511 34.0453 64.3831 34.0453H59.8582V39.9953H64.3622Z" fill="white"/>
<path d="M76.6389 32.5146H78.2939V47.1816H76.6389V32.5146Z" fill="white"/>
<path d="M84.7671 45.0439L85.7931 43.8289C86.45 44.4934 87.2335 45.0193 88.0974 45.3756C88.9612 45.7318 89.8877 45.9111 90.8221 45.9029C92.7911 45.9029 94.0901 44.8549 94.0901 43.4089V43.3669C94.0901 42.0049 93.3571 41.2299 90.2771 40.5809C86.9041 39.8479 85.3531 38.7579 85.3531 36.3479V36.3059C85.3531 34.0059 87.3851 32.3059 90.1721 32.3059C92.0532 32.2517 93.8885 32.8926 95.3271 34.1059L94.3631 35.3839C93.1912 34.3592 91.6878 33.7936 90.131 33.7919C88.224 33.7919 87.0091 34.8389 87.0091 36.1599V36.2019C87.0091 37.5849 87.7631 38.3599 90.9901 39.0509C94.2581 39.7629 95.7671 40.9579 95.7671 43.1999V43.2419C95.7671 45.7559 93.6671 47.3909 90.7591 47.3909C88.5329 47.4155 86.3843 46.5739 84.7671 45.0439Z" fill="white"/>
<path d="M102.277 32.5146H103.953L109.296 40.5146L114.639 32.5146H116.316V47.1816H114.661V35.3017L109.321 43.1536H109.237L103.894 35.3176V47.1816H102.277V32.5146Z" fill="white"/>
<path d="M123.294 32.5146H126.521V38.3147H132.471V32.5146H135.698V47.1816H132.471V41.2936H126.521V47.1816H123.294V32.5146Z" fill="white"/>
<path d="M142.358 32.5154H149.058C149.834 32.4667 150.611 32.5732 151.345 32.8287C152.079 33.0842 152.754 33.4836 153.332 34.0034C153.755 34.4497 154.084 34.9764 154.3 35.5521C154.516 36.1278 154.614 36.741 154.589 37.3554V37.3974C154.636 38.3951 154.354 39.3805 153.786 40.2021C153.218 41.0237 152.396 41.6359 151.446 41.9444L155.029 47.1824H151.257L148.114 42.4884H145.579V47.1824H142.352L142.358 32.5154ZM148.858 39.6394C150.43 39.6394 151.331 38.8014 151.331 37.5654V37.5234C151.331 36.1404 150.367 35.4284 148.796 35.4284H145.59V39.6394H148.858Z" fill="white"/>
</svg>
