<svg width="154" height="46" viewBox="0 0 154 46" fill="none" xmlns="http://www.w3.org/2000/svg">
<g opacity="0.4">
<path d="M54.5969 18.391C54.5969 14.0664 53.3689 11.8462 50.913 11.7246C49.9358 11.6783 48.9816 11.8346 48.0535 12.1964C47.3126 12.4628 46.814 12.7262 46.5517 12.9925V23.3148C48.1226 24.3048 49.5178 24.765 50.7342 24.6927C53.3084 24.5219 54.5969 22.4233 54.5969 18.391ZM57.6264 18.5705C57.6264 20.7675 57.1134 22.5912 56.0814 24.0414C54.9313 25.6826 53.3372 26.5279 51.2992 26.5742C49.7628 26.6234 48.1803 26.14 46.5517 25.1269V34.5084L43.917 33.5648V12.7406C44.3494 12.208 44.9057 11.7507 45.5802 11.3628C47.1483 10.4452 49.0537 9.97335 51.2963 9.9502L51.3338 9.98783C53.3833 9.96177 54.963 10.807 56.0727 12.5206C57.1076 14.0924 57.6264 16.1071 57.6264 18.5705Z" fill="white"/>
<path d="M73.7287 24.7274C73.7287 27.6742 73.4347 29.7149 72.8466 30.8496C72.2557 31.9843 71.1315 32.8903 69.4711 33.5648C68.125 34.0974 66.6693 34.3869 65.107 34.4361L64.6717 32.7688C66.26 32.5517 67.3784 32.3346 68.027 32.1175C69.304 31.6833 70.1803 31.0175 70.6616 30.1259C71.0479 29.3994 71.2382 28.0128 71.2382 25.9605V25.2716C69.4366 26.0937 67.5485 26.5018 65.5739 26.5018C64.2768 26.5018 63.1324 26.0937 62.1466 25.2716C61.0397 24.3772 60.4862 23.2424 60.4862 21.8675V10.8562L63.1209 9.9502V21.0338C63.1209 22.2177 63.5014 23.1296 64.2624 23.7693C65.0234 24.409 66.0092 24.7158 67.217 24.6927C68.4248 24.6666 69.719 24.1977 71.094 23.2801V10.3497H73.7287V24.7274Z" fill="white"/>
<path d="M84.0136 26.43C83.6994 26.456 83.4111 26.4676 83.1459 26.4676C81.6557 26.4676 80.494 26.1116 79.6638 25.3966C78.8365 24.6816 78.4214 23.6945 78.4214 22.4353V12.0146H76.6169V10.3502H78.4214V5.93002L81.0532 4.98926V10.3502H84.0136V12.0146H81.0532V22.363C81.0532 23.3558 81.3184 24.0592 81.8488 24.4703C82.3042 24.809 83.0278 25.0029 84.0136 25.0521V26.43Z" fill="white"/>
<path d="M99.9663 26.213H97.3316V16.0007C97.3316 14.9615 97.0895 14.0671 96.6081 13.3202C96.0518 12.475 95.2792 12.0524 94.2876 12.0524C93.0798 12.0524 91.5694 12.6921 89.7562 13.9715V26.213H87.1216V1.80241L89.7562 0.96875V12.0871C91.4397 10.8569 93.2787 10.2403 95.2763 10.2403C96.6715 10.2403 97.8015 10.7122 98.6662 11.6529C99.5339 12.5937 99.9663 13.766 99.9663 15.167V26.213Z" fill="white"/>
<path d="M113.969 17.9742C113.969 16.3126 113.655 14.9406 113.029 13.8551C112.286 12.5322 111.13 11.8346 109.567 11.7622C106.679 11.9301 105.238 14.0085 105.238 17.9915C105.238 19.8181 105.537 21.3436 106.143 22.568C106.915 24.1282 108.074 24.8982 109.619 24.8721C112.519 24.849 113.969 22.5506 113.969 17.9742ZM116.854 17.9915C116.854 20.3565 116.252 22.3248 115.05 23.8966C113.727 25.6566 111.899 26.5395 109.567 26.5395C107.255 26.5395 105.454 25.6566 104.154 23.8966C102.975 22.3248 102.387 20.3565 102.387 17.9915C102.387 15.7685 103.024 13.8985 104.298 12.3759C105.644 10.7607 107.414 9.9502 109.602 9.9502C111.79 9.9502 113.571 10.7607 114.943 12.3759C116.217 13.8985 116.854 15.7685 116.854 17.9915Z" fill="white"/>
<path d="M131.959 26.2124H129.325V15.4211C129.325 14.2372 128.97 13.3138 128.261 12.648C127.552 11.9851 126.606 11.6638 125.427 11.6899C124.176 11.713 122.986 12.1241 121.856 12.9201V26.2124H119.221V12.593C120.737 11.4844 122.133 10.7607 123.407 10.422C124.609 10.1065 125.669 9.9502 126.583 9.9502C127.209 9.9502 127.797 10.011 128.35 10.1326C129.385 10.3728 130.227 10.8186 130.875 11.4728C131.599 12.1964 131.959 13.0648 131.959 14.0809V26.2124Z" fill="white"/>
<path d="M17.8954 1.89969C16.5398 1.90601 15.2453 2.02211 14.1062 2.2245C10.7508 2.81979 10.1415 4.06579 10.1415 6.36361V9.39834H18.071V10.4099H10.1415H7.16571C4.8612 10.4099 2.84331 11.8009 2.21214 14.4469C1.48409 17.4799 1.4518 19.3726 2.21214 22.5395C2.77579 24.8969 4.12187 26.5766 6.42637 26.5766H9.15268V22.9386C9.15268 20.3104 11.4172 17.9921 14.1062 17.9921H22.0264C24.2311 17.9921 25.9911 16.1692 25.9911 13.9458V6.36361C25.9911 4.20568 24.1783 2.58465 22.0264 2.2245C20.6643 1.99681 19.2509 1.89336 17.8954 1.89969ZM13.6072 4.34046C14.4262 4.34046 15.0951 5.0231 15.0951 5.86246C15.0951 6.69885 14.4262 7.37519 13.6072 7.37519C12.7852 7.37519 12.1193 6.69885 12.1193 5.86246C12.1193 5.0231 12.7852 4.34046 13.6072 4.34046Z" fill="url(#paint0_linear_647_4449)"/>
<path d="M26.9799 10.4102V13.946C26.9799 16.6873 24.6655 18.9946 22.0263 18.9946H14.1062C11.9367 18.9946 10.1415 20.8592 10.1415 23.0409V30.6231C10.1415 32.781 12.0101 34.0503 14.1062 34.6694C16.6162 35.4105 19.0231 35.5445 22.0263 34.6694C24.0226 34.089 25.9911 32.9209 25.991 30.6231V27.5884H18.0709V26.5768H25.991H29.9558C32.2603 26.5768 33.119 24.9626 33.9205 22.5398C34.7483 20.0455 34.7131 17.6469 33.9205 14.4472C33.3509 12.1434 32.2632 10.4102 29.9558 10.4102H26.9799ZM22.5254 29.6115C23.3474 29.6115 24.0133 30.2879 24.0133 31.1243C24.0133 31.9636 23.3474 32.6463 22.5254 32.6463C21.7063 32.6463 21.0375 31.9636 21.0375 31.1243C21.0375 30.2879 21.7063 29.6115 22.5254 29.6115Z" fill="url(#paint1_linear_647_4449)"/>
<path d="M137.09 7.99137H137.552V5.08212H138.646V4.73535H135.995V5.08212H137.09V7.99137ZM139.055 7.99137H139.45V5.33431L140.307 7.99104H140.746L141.639 5.34332V7.99137H142.069V4.73535H141.5L140.524 7.52481L139.692 4.73535H139.055V7.99137Z" fill="white"/>
<path opacity="0.44382" d="M28.7866 39.824C28.7866 40.0957 28.5117 40.3648 27.9777 40.6158C27.4437 40.8669 26.661 41.095 25.6742 41.2871C24.6875 41.4792 23.5161 41.6317 22.2269 41.7356C20.9377 41.8396 19.5559 41.8931 18.1605 41.8931C16.7651 41.8931 15.3833 41.8396 14.0941 41.7356C12.8049 41.6317 11.6334 41.4792 10.6467 41.2871C9.66 41.095 8.87729 40.8669 8.34328 40.6158C7.80928 40.3648 7.53442 40.0957 7.53442 39.824C7.53442 39.5523 7.80928 39.2832 8.34328 39.0322C8.87729 38.7812 9.66 38.5531 10.6467 38.3609C11.6334 38.1688 12.8049 38.0164 14.0941 37.9124C15.3833 37.8084 16.7651 37.7549 18.1605 37.7549C19.5559 37.7549 20.9377 37.8084 22.2269 37.9124C23.5161 38.0164 24.6875 38.1688 25.6742 38.3609C26.661 38.5531 27.4437 38.7812 27.9777 39.0322C28.5117 39.2832 28.7866 39.5523 28.7866 39.824Z" fill="url(#paint2_radial_647_4449)"/>
</g>
<defs>
<linearGradient id="paint0_linear_647_4449" x1="1.65393" y1="1.89941" x2="20.0026" y2="17.4697" gradientUnits="userSpaceOnUse">
<stop stop-color="#5A9FD4"/>
<stop offset="1" stop-color="#306998"/>
</linearGradient>
<linearGradient id="paint1_linear_647_4449" x1="22.3348" y1="30.8691" x2="15.7387" y2="21.6645" gradientUnits="userSpaceOnUse">
<stop stop-color="#FFD43B"/>
<stop offset="1" stop-color="#FFE873"/>
</linearGradient>
<radialGradient id="paint2_radial_647_4449" cx="0" cy="0" r="1" gradientUnits="userSpaceOnUse" gradientTransform="translate(18.1605 39.824) rotate(-90) scale(2.06913 9.05669)">
<stop stop-color="#B8B8B8" stop-opacity="0.498039"/>
<stop offset="1" stop-color="#7F7F7F" stop-opacity="0"/>
</radialGradient>
</defs>
</svg>
