<svg width="164" height="80" viewBox="0 0 164 80" fill="none" xmlns="http://www.w3.org/2000/svg">
<path d="M67.215 57.7876C65.9986 56.6451 63.9573 56.3635 63.4074 55.9082C63.0824 55.6432 62.7492 55.2789 62.4575 54.9726C61.4411 53.8962 60.7245 51.3792 60.5496 51.2219C72.5058 31.1771 48.5017 9.39357 29.1634 22.6574C18.282 30.1173 16.474 47.107 26.8639 55.7757C30.1633 58.8559 33.7626 60.2961 35.2957 60.611C36.8288 60.9258 49.5848 60.611 49.5848 60.611C51.9844 60.611 49.9181 57.8042 49.1099 56.8686L61.4994 56.852L61.4827 69.0561C58.5666 65.3552 55.0005 67.1353 51.2512 68.6835C49.1682 69.5446 46.9353 69.9917 44.6774 69.9917H38.0285C36.4538 69.9917 34.8874 69.7102 33.4127 69.1555C24.1643 65.6615 17.2072 60.5447 13.2663 52.1161C11.7082 48.7546 11 45.0619 11 41.361V41.154C11 33.9011 13.3246 26.7724 17.9154 21.1257C39.8116 -5.816 89.0195 19.9914 67.215 57.7876Z" fill="white"/>
<path d="M146.284 69.9919C140.644 69.0563 129.137 60.1724 129.137 54.5091V35.2674H119.606V26.8223H152V35.2674H138.186C136.153 35.2674 136.569 46.0226 136.769 47.9269C137.669 56.5128 143.01 61.9442 152 61.555V70.0002H146.284V69.9919Z" fill="white"/>
<path d="M122.472 69.9914H113.898C112.757 62.3908 116.256 47.4544 111.99 41.3689C106.008 32.8493 95.635 35.4408 89.1361 41.8409C89.7693 35.0434 86.3033 31.0692 93.9186 28.2624C106.133 23.7583 120.997 32.1869 122.472 45.1196C123.355 52.8858 121.814 62.0596 122.472 69.9914Z" fill="white"/>
<path d="M79.5962 69.9919L79.5879 26.8139L87.6198 26.8057L88.1697 69.9919H79.5962Z" fill="white"/>
<path d="M67.215 57.7872C71.1893 61.5213 74.8637 66.0336 78.6463 69.9913H63.399V55.916C63.949 56.3714 65.9903 56.6529 67.2067 57.7955L67.215 57.7872Z" fill="white"/>
<path d="M136.761 10.8672H129.137V24.9425H136.761V10.8672Z" fill="white"/>
<path d="M60.5412 51.2221C60.7161 51.3877 61.4244 53.9047 62.4492 54.9727H48.16V40.8975C51.8927 43.58 54.8422 47.1899 58.1749 50.3113C58.9331 51.0234 60.3412 51.0316 60.5495 51.2221H60.5412Z" fill="white"/>
</svg>
