<svg width="164" height="80" viewBox="0 0 164 80" fill="none" xmlns="http://www.w3.org/2000/svg">
<g clip-path="url(#clip0_796_4157)">
<path d="M26.8141 19.7898C13.6926 13.6398 1.32922 24.2399 0.0283047 38.3498C-0.0465683 39.1698 0.0751004 40.0399 0.0283047 40.8598C0.61793 43.3699 0.795753 45.4098 1.70359 47.8998C4.13696 54.6298 9.22833 59.0798 15.7142 60.9998H22.8459C41.171 56.6698 43.7916 27.7398 26.8141 19.7898ZM21.6011 59.9398C-2.61097 62.8898 -5.83051 22.9598 16.0605 19.3298C41.2178 15.1698 44.7462 57.1198 21.6011 59.9398Z" fill="white"/>
<path d="M81.3028 31.5502V42.8802H78.9255C79.7585 40.4402 79.8521 32.1602 77.765 30.7602C75.3036 29.1002 71.3166 31.0002 71.3166 34.0702V42.8802H68.9487V32.5502C68.9487 30.0902 64.1007 29.4102 62.5377 31.3102C62.3318 31.5602 61.3397 33.9102 61.3397 34.0702V42.8802H58.9625V27.7702H61.3397V29.7902C63.9229 27.0902 68.7147 26.7302 70.6146 30.2902H71.3166C72.318 27.2902 77.7744 27.0002 79.8521 29.0602C80.1329 29.3402 81.3028 31.4002 81.3028 31.5502Z" fill="white"/>
<path d="M126.096 23.8702C125.693 23.6802 123.054 22.7402 122.885 22.7402H114.097V42.8802H124.317C124.542 42.8802 126.479 41.8502 126.9 41.5902C132.918 37.7902 132.525 27.0002 126.096 23.8702ZM116.474 40.8602V25.2502H123.84C125.515 25.2502 128.248 28.9202 128.613 30.7602C130.317 39.3102 123.157 41.8602 116.474 40.8602Z" fill="white"/>
<path d="M44.7648 41.2901L45.1859 38.8501C46.5898 39.1701 47.4415 40.2901 48.9577 40.6401C51.8309 41.3001 56.8193 41.0701 55.5465 36.6801C54.5919 33.3801 45.0643 35.3601 44.8677 28.4501C44.6899 21.9701 53.5343 21.6301 57.54 24.2701L56.8006 26.2901C54.1988 25.3701 47.7503 23.6201 47.507 28.0201C47.2075 33.4301 57.6523 30.2101 58.0547 37.0701C58.4946 44.6401 49.2197 44.4101 44.7648 41.2901Z" fill="white"/>
<path d="M105.066 40.61V30.54C104.017 29.21 100.461 30.52 99.6092 31.81C98.1118 34.06 98.065 40.3 98.8886 42.87H96.5114V27.77H98.4113L98.6546 29.79C100.798 28.1 102.248 27.34 105.066 27.77V24.25L106.675 24.31C107.845 24.72 107.387 26.7 107.443 27.77H111.243V29.78H107.443V39.6C107.443 41.02 110.737 41.01 111.72 40.36C113.47 45.2 105.066 43.22 105.066 40.61Z" fill="white"/>
<path d="M92.6835 29.0599C90.6151 27.0099 83.184 27.5099 83.184 30.0299L83.9233 31.2999C87.2365 29.3299 92.1219 29.0599 91.7569 34.3199C90.1378 34.4299 88.4157 34.1299 86.806 34.3599C79.1128 35.4599 82.6692 46.6299 90.9614 42.3799C91.186 42.2699 92.0471 39.4399 92.281 42.8099L94.1342 42.8799V31.5499C94.1342 31.3999 92.9643 29.3399 92.6835 29.0599ZM84.8218 38.3299C85.608 35.2599 89.4827 36.5799 91.7569 36.3299C93.5913 42.0299 83.7174 42.6699 84.8218 38.3299Z" fill="white"/>
<path d="M131.683 29.29C132.656 32.72 133.92 30.0501 136.25 29.8101C138.955 29.5301 141.173 31.33 140.715 34.32C137.532 34.19 131.224 33.76 131.187 38.59C131.149 43.83 137.682 44.5201 140.705 41.3601L140.733 42.83L143.092 42.88V32.55C143.092 27.0601 134.996 26.67 131.683 29.29ZM133.667 37.7001C134.313 35.3701 138.871 36.63 140.715 36.33C142.09 42.6101 132.226 42.8301 133.667 37.7001Z" fill="white"/>
<path d="M162.428 28.9298C160.125 26.6398 155.146 27.8898 152.591 29.2898C153.574 32.7198 154.828 30.0498 157.168 29.8098C159.873 29.5298 162.091 31.3298 161.623 34.3198C158.169 34.1698 151.974 33.7998 152.273 39.0298C152.554 44.0598 158.974 44.2398 161.857 41.3598L161.623 42.8698H164V32.0498C164 31.8198 162.718 29.2198 162.428 28.9298ZM154.557 37.6698C155.184 35.6498 159.985 36.4798 161.623 36.3298C163.27 42.6298 152.984 42.7598 154.557 37.6698Z" fill="white"/>
<path d="M152.404 42.3903C149.802 44.6203 145.469 42.5003 145.469 39.1003V29.7903H143.082V27.7703H145.469C145.497 25.9903 144.879 24.2703 147.126 24.2403C148.595 24.2203 147.556 26.8403 147.837 27.7703H151.646V29.7803H147.837V39.6003C147.837 40.7203 151.15 41.9604 152.114 40.3603L152.404 42.3903Z" fill="white"/>
<path d="M28.7794 29.73C26.945 29.87 25.7657 32.37 23.7816 29.05C22.9486 27.65 23.4914 25.71 21.1797 25.71C18.868 25.71 18.2503 28.52 19.9537 30.08C21.5354 31.52 22.256 30.07 23.8003 30.49C26.5051 31.22 26.7671 36.4 23.0703 36.36C21.863 36.35 20.9926 35.34 19.7478 35.28C17.8947 35.19 17.1366 36.72 15.2273 36.12C12.5038 35.27 13.6456 31.3 12.064 30.25C8.61044 27.95 5.3441 32.54 7.60901 35.98C8.22671 36.91 9.80841 36.86 9.79905 39.1C9.78969 41.43 6.23322 42.74 8.3671 45.37C10.0985 47.5 13.056 45.35 12.3073 42.73C12.064 41.88 11.0157 41.5 10.735 40.86C9.04096 37.01 13.3836 34.18 15.2741 37.55C16.0697 38.97 15.5081 40.92 16.7248 42.56C17.5016 43.59 18.8587 43.78 18.9616 43.96C19.1956 44.35 19.1395 47.02 18.9616 47.58C18.5405 48.89 15.6485 48.78 16.3785 52.46C17.3612 57.44 23.6599 55.53 22.7614 50.8C22.2654 48.24 18.9055 48.72 20.0847 44.73C20.4217 43.59 22.1531 43.27 22.7895 42.07C23.8939 40 22.4432 38.27 24.7736 36.61C26.7297 35.22 26.4209 36.54 27.8528 36.81C34.0953 38 33.1314 29.41 28.7794 29.73ZM22.6211 28.78C21.395 31.32 18.9523 28.66 20.0567 26.83C20.7211 25.72 23.6131 26.72 22.6211 28.78ZM10.4916 45.17C9.17198 45.79 8.00209 43.16 9.10647 42.42C10.7818 41.3 12.5974 44.18 10.4916 45.17ZM11.3246 35.97C7.82427 37.82 6.20514 31.75 8.91929 30.89C12.6161 29.71 13.9826 34.56 11.3246 35.97ZM21.2265 49.38C23.95 51.63 20.3561 56.61 17.7262 53.83C15.6485 51.63 18.4469 47.08 21.2265 49.38ZM20.5995 42.78C16.1913 44.18 15.3116 37.42 18.4282 36.43C22.6959 35.09 24.2589 41.61 20.5995 42.78ZM28.0774 36.08C26.2805 35.21 25.9435 31.52 27.9277 30.89C33.2156 29.21 31.8679 37.9 28.0774 36.08Z" fill="white"/>
<path d="M55.7898 58.3008L50.7265 52.3408C50.4176 51.9708 50.1743 51.6508 49.9964 51.3708C49.8186 51.1008 49.6876 50.8308 49.6221 50.5808C49.5566 50.3308 49.5191 50.0708 49.5191 49.7908C49.5191 49.3408 49.6127 48.9508 49.7999 48.6108C49.9871 48.2808 50.2585 48.0208 50.6048 47.8308C50.9511 47.6508 51.3629 47.5508 51.8402 47.5508C52.2707 47.5508 52.6451 47.6308 52.9633 47.8008C53.2815 47.9708 53.5342 48.2008 53.712 48.5108C53.8898 48.8208 53.9834 49.2008 53.9834 49.6308C53.9834 50.0108 53.8992 50.3708 53.7401 50.7008C53.581 51.0308 53.3096 51.3508 52.9446 51.6708C52.5796 51.9808 52.0742 52.3408 51.4471 52.7308C50.8949 53.0808 50.4644 53.4008 50.1368 53.6908C49.8186 53.9808 49.594 54.2608 49.463 54.5408C49.332 54.8208 49.2664 55.1208 49.2664 55.4508C49.2664 55.8308 49.36 56.1608 49.5472 56.4508C49.7344 56.7408 49.9964 56.9508 50.3334 57.1108C50.6703 57.2708 51.054 57.3408 51.4939 57.3408C52.1023 57.3408 52.6544 57.2008 53.1318 56.9008C53.6091 56.6108 54.0209 56.1708 54.3484 55.5808C54.676 54.9908 54.9194 54.2508 55.0597 53.3608L55.8085 53.6308C55.64 54.6308 55.3592 55.4708 54.9568 56.1508C54.5543 56.8308 54.0583 57.3508 53.4593 57.7008C52.8603 58.0508 52.1865 58.2208 51.4378 58.2208C50.8388 58.2208 50.3147 58.1108 49.8467 57.8808C49.3787 57.6508 49.0137 57.3408 48.7517 56.9408C48.4803 56.5408 48.3492 56.0708 48.3492 55.5408C48.3492 55.0908 48.4335 54.6808 48.6113 54.3008C48.7891 53.9208 49.0699 53.5508 49.4536 53.1908C49.8467 52.8308 50.3615 52.4408 51.0072 52.0408C51.5594 51.6908 51.9899 51.3908 52.2988 51.1308C52.6076 50.8808 52.8323 50.6308 52.9633 50.3908C53.0943 50.1608 53.1598 49.9008 53.1598 49.6308C53.1598 49.2408 53.0475 48.9208 52.8135 48.6808C52.5796 48.4408 52.252 48.3208 51.8215 48.3208C51.3535 48.3208 50.9979 48.4508 50.7452 48.7208C50.4925 48.9908 50.3615 49.3308 50.3615 49.7508C50.3615 49.9608 50.3895 50.1608 50.4457 50.3508C50.5018 50.5408 50.6142 50.7508 50.7733 50.9808C50.9324 51.2108 51.157 51.5008 51.4471 51.8508L56.3045 57.5608L55.771 58.2708L55.7898 58.3008Z" fill="white"/>
<path d="M63.6982 58.1309L67.9005 47.6309H68.8551L73.0574 58.1309H72.0372L68.1813 48.2709H68.5743L64.7184 58.1309H63.7076H63.6982ZM65.3455 55.3309L65.6356 54.4309H70.9796L71.2698 55.3309H65.3548H65.3455Z" fill="white"/>
<path d="M78.9536 58.211C78.364 58.211 77.8586 58.091 77.4187 57.831C76.9788 57.581 76.6419 57.211 76.3986 56.711C76.1552 56.211 76.0336 55.591 76.0336 54.831V50.251H76.9695V54.711C76.9695 55.551 77.1473 56.181 77.5123 56.611C77.8773 57.031 78.3827 57.251 79.0378 57.251C79.5152 57.251 79.9363 57.141 80.292 56.911C80.6476 56.691 80.919 56.361 81.1062 55.931C81.2934 55.501 81.387 54.981 81.387 54.391V50.271H82.3229V58.151H81.4338V55.991L81.5742 56.381C81.3589 56.961 81.0126 57.411 80.554 57.741C80.0954 58.061 79.562 58.231 78.9443 58.231L78.9536 58.211Z" fill="white"/>
<path d="M85.7202 51.1405V50.2605H89.988V51.1405H85.7202ZM88.9678 58.2105C88.3221 58.2105 87.826 58.0105 87.4704 57.6105C87.1241 57.2105 86.9463 56.6505 86.9463 55.9205V48.5205H87.8822V55.8505C87.8822 56.3105 87.9851 56.6705 88.191 56.9205C88.3969 57.1705 88.6871 57.3005 89.0801 57.3005C89.4919 57.3005 89.8289 57.1705 90.1003 56.8905L90.4279 57.6505C90.2407 57.8405 90.0254 57.9805 89.7634 58.0705C89.5013 58.1605 89.2392 58.2005 88.9678 58.2005V58.2105Z" fill="white"/>
<path d="M96.5394 58.2104C95.8655 58.2104 95.2665 58.0404 94.7424 57.6904C94.2183 57.3504 93.8065 56.8704 93.4977 56.2604C93.1888 55.6504 93.0391 54.9604 93.0391 54.1904C93.0391 53.4204 93.1888 52.7104 93.4977 52.1104C93.8065 51.5104 94.2183 51.0404 94.7424 50.7004C95.2665 50.3604 95.8655 50.1904 96.5394 50.1904C97.2132 50.1904 97.8309 50.3604 98.355 50.7104C98.8885 51.0504 99.3003 51.5304 99.5998 52.1204C99.8993 52.7104 100.049 53.4104 100.049 54.2004C100.049 54.9904 99.8993 55.6704 99.5998 56.2804C99.3003 56.8804 98.8792 57.3604 98.3457 57.7004C97.8122 58.0404 97.2039 58.2204 96.53 58.2204L96.5394 58.2104ZM96.5394 57.2604C97.0354 57.2604 97.4753 57.1304 97.8684 56.8804C98.2521 56.6304 98.5609 56.2704 98.7762 55.8004C99.0008 55.3304 99.1131 54.8004 99.1131 54.1904C99.1131 53.5804 99.0008 53.0304 98.7762 52.5704C98.5516 52.1104 98.2521 51.7504 97.8684 51.5004C97.4846 51.2504 97.0448 51.1204 96.5581 51.1204C96.0714 51.1204 95.6315 51.2504 95.2478 51.5004C94.8641 51.7504 94.5552 52.1104 94.3306 52.5704C94.106 53.0304 93.9937 53.5704 93.9937 54.1904C93.9937 54.8104 94.106 55.3404 94.3306 55.8004C94.5552 56.2604 94.8641 56.6204 95.2385 56.8804C95.6222 57.1404 96.0527 57.2604 96.5487 57.2604H96.5394Z" fill="white"/>
<path d="M103.83 58.1309V50.2509H104.719V52.3809L104.579 52.0009C104.785 51.4309 105.131 50.9809 105.599 50.6609C106.067 50.3409 106.619 50.1709 107.256 50.1709C107.929 50.1709 108.5 50.3609 108.978 50.7509C109.446 51.1309 109.755 51.7109 109.895 52.4809L109.53 52.3109C109.726 51.6709 110.091 51.1509 110.597 50.7609C111.112 50.3709 111.72 50.1709 112.441 50.1709C113.002 50.1709 113.489 50.2909 113.901 50.5409C114.312 50.7909 114.64 51.1609 114.874 51.6609C115.108 52.1609 115.22 52.7909 115.22 53.5509V58.1309H114.284V53.6609C114.284 52.8309 114.107 52.2009 113.77 51.7809C113.433 51.3609 112.937 51.1409 112.31 51.1409C111.842 51.1409 111.43 51.2509 111.084 51.4809C110.737 51.7009 110.475 52.0309 110.279 52.4509C110.091 52.8809 109.998 53.3909 109.998 53.9909V58.1309H109.062V53.6609C109.062 52.8309 108.884 52.2009 108.538 51.7809C108.192 51.3609 107.696 51.1409 107.068 51.1409C106.601 51.1409 106.198 51.2509 105.852 51.4809C105.505 51.7009 105.234 52.0309 105.047 52.4509C104.86 52.8809 104.766 53.3909 104.766 53.9909V58.1309H103.83Z" fill="white"/>
<path d="M121.556 58.2102C121.042 58.2102 120.592 58.1102 120.209 57.9202C119.825 57.7302 119.535 57.4602 119.338 57.1102C119.132 56.7702 119.039 56.3702 119.039 55.9202C119.039 55.5102 119.123 55.1402 119.291 54.8002C119.46 54.4702 119.741 54.2002 120.134 53.9902C120.527 53.7802 121.042 53.6802 121.706 53.6802H124.083V54.4702H121.734C121.07 54.4702 120.611 54.6002 120.349 54.8802C120.087 55.1502 119.965 55.4902 119.965 55.8802C119.965 56.3302 120.115 56.6902 120.424 56.9602C120.733 57.2302 121.163 57.3702 121.706 57.3702C122.249 57.3702 122.679 57.2302 123.063 56.9602C123.447 56.6902 123.718 56.2902 123.896 55.7702L124.102 56.5102C123.924 57.0302 123.625 57.4402 123.194 57.7602C122.764 58.0702 122.221 58.2202 121.556 58.2202V58.2102ZM123.934 58.1302V56.3902L123.896 56.1002V53.1902C123.896 52.5202 123.728 52.0002 123.4 51.6402C123.072 51.2802 122.586 51.1002 121.94 51.1002C121.491 51.1002 121.07 51.1802 120.667 51.3502C120.265 51.5202 119.928 51.7402 119.647 52.0202L119.226 51.2302C119.572 50.8902 119.993 50.6302 120.489 50.4402C120.976 50.2602 121.491 50.1602 122.034 50.1602C122.923 50.1602 123.615 50.4102 124.102 50.9202C124.589 51.4202 124.832 52.1902 124.832 53.2202V58.1102H123.943L123.934 58.1302Z" fill="white"/>
<path d="M128.145 51.1405V50.2605H132.413V51.1405H128.145ZM131.402 58.2105C130.756 58.2105 130.26 58.0105 129.905 57.6105C129.558 57.2105 129.381 56.6505 129.381 55.9205V48.5205H130.316V55.8505C130.316 56.3105 130.419 56.6705 130.625 56.9205C130.831 57.1705 131.121 57.3005 131.514 57.3005C131.926 57.3005 132.263 57.1705 132.535 56.8905L132.862 57.6505C132.675 57.8405 132.46 57.9805 132.198 58.0705C131.936 58.1605 131.674 58.2005 131.402 58.2005V58.2105Z" fill="white"/>
<path d="M136.887 48.5207C136.69 48.5207 136.531 48.4407 136.4 48.3007C136.269 48.1507 136.203 47.9707 136.203 47.7607C136.203 47.5507 136.269 47.3707 136.4 47.2307C136.531 47.0807 136.69 47.0107 136.887 47.0107C137.083 47.0107 137.242 47.0807 137.373 47.2207C137.504 47.3607 137.57 47.5307 137.57 47.7507C137.57 47.9707 137.504 48.1507 137.383 48.3007C137.252 48.4507 137.092 48.5207 136.887 48.5207ZM136.419 58.1307V50.2507H137.355V58.1307H136.419Z" fill="white"/>
<path d="M144.617 58.2104C143.943 58.2104 143.344 58.0404 142.82 57.6904C142.296 57.3504 141.884 56.8704 141.576 56.2604C141.267 55.6504 141.117 54.9604 141.117 54.1904C141.117 53.4204 141.267 52.7104 141.576 52.1104C141.884 51.5104 142.296 51.0404 142.82 50.7004C143.344 50.3604 143.943 50.1904 144.617 50.1904C145.291 50.1904 145.909 50.3604 146.433 50.7104C146.966 51.0504 147.378 51.5304 147.678 52.1204C147.977 52.7104 148.127 53.4104 148.127 54.2004C148.127 54.9904 147.977 55.6704 147.678 56.2804C147.378 56.8804 146.957 57.3604 146.424 57.7004C145.89 58.0404 145.282 58.2204 144.608 58.2204L144.617 58.2104ZM144.617 57.2604C145.113 57.2604 145.553 57.1304 145.946 56.8804C146.33 56.6304 146.639 56.2704 146.854 55.8004C147.079 55.3304 147.191 54.8004 147.191 54.1904C147.191 53.5804 147.079 53.0304 146.854 52.5704C146.629 52.1104 146.33 51.7504 145.946 51.5004C145.563 51.2504 145.123 51.1204 144.636 51.1204C144.149 51.1204 143.709 51.2504 143.326 51.5004C142.942 51.7504 142.633 52.1104 142.409 52.5704C142.184 53.0304 142.072 53.5704 142.072 54.1904C142.072 54.8104 142.184 55.3404 142.409 55.8004C142.633 56.2604 142.942 56.6204 143.316 56.8804C143.7 57.1404 144.131 57.2604 144.627 57.2604H144.617Z" fill="white"/>
<path d="M151.899 58.1309V50.2509H152.788V52.4109L152.647 52.0009C152.863 51.4309 153.218 50.9809 153.696 50.6609C154.173 50.3409 154.753 50.1709 155.418 50.1709C155.979 50.1709 156.466 50.2909 156.896 50.5409C157.318 50.7909 157.655 51.1609 157.898 51.6609C158.141 52.1609 158.263 52.7909 158.263 53.5509V58.1309H157.327V53.6609C157.327 52.8309 157.149 52.2009 156.784 51.7809C156.419 51.3609 155.914 51.1409 155.259 51.1409C154.772 51.1409 154.341 51.2509 153.976 51.4809C153.611 51.7009 153.331 52.0309 153.134 52.4509C152.938 52.8809 152.835 53.3909 152.835 53.9909V58.1309H151.899Z" fill="white"/>
</g>
<defs>
<clipPath id="clip0_796_4157">
<rect width="164" height="80" fill="white"/>
</clipPath>
</defs>
</svg>
