<svg width="164" height="80" viewBox="0 0 164 80" fill="none" xmlns="http://www.w3.org/2000/svg">
<path d="M28.2591 37.608C29.0276 37.5149 29.3516 36.9749 30.2497 36.9935C32.092 37.0308 35.3232 38.8649 36.6193 40.1777C38.1469 41.7419 38.9616 45.1868 40.9244 45.4102C43.0815 45.6709 48.8587 45.6709 51.0251 45.4102C54.2192 45.0378 53.3767 38.7253 55.1913 36.7142L59.5148 53.3893C59.8667 55.1583 61.8109 55.4563 62.5515 53.8176C64.6069 46.6113 66.1345 39.2094 68.2453 32.0217C68.3842 31.5655 68.5231 30.4855 69.023 30.3458L73.0503 44.6933C73.1892 44.8516 73.9669 45.4102 74.0687 45.4102H81.9938V49.9072C81.9938 50.6334 80.9569 53.7431 80.605 54.5997C76.4111 64.7668 62.6904 66.6848 53.3118 63.6775C46.2108 61.4057 42.5538 55.8194 41.5076 48.6037C40.7022 63.5285 23.8985 67.7927 11.9091 63.305C5.84502 61.0333 1.02149 54.8604 1.02149 48.1661V41.3601C3.07681 43.3619 5.03955 45.0006 7.77998 46.0061C8.96503 46.4344 10.5019 46.5647 11.4555 46.9465C12.6683 47.4213 13.2701 48.8644 15.1125 47.8682C17.8344 46.3878 16.2605 42.5705 13.2794 43.1198C12.5202 43.2502 12.298 43.9764 11.3166 43.9112C6.96526 43.6226 0.845586 38.2225 1.00298 33.6603C1.53069 19.0987 14.2978 14.2945 27.0093 16.529C35.0547 17.9442 41.0632 23.9867 41.4984 32.3755C42.4427 26.8264 44.3499 22.0967 49.3401 19.0987C57.191 14.3783 71.6616 14.8065 77.9479 22.0781C79.5033 23.875 81.9753 28.7723 81.9753 31.072V42.226H75.4945L69.8748 22.9626C69.0786 22.1712 67.7824 22.6553 67.3565 23.605L61.2276 47.1513C60.8388 47.2351 60.9128 46.8534 60.8017 46.5647C59.0704 41.6674 58.3668 34.9452 56.4226 30.4017C55.7745 28.8934 54.5062 28.5582 53.5155 29.9734L50.09 42.2353L41.8409 42.1609C40.4429 40.4477 39.3875 38.6415 37.6099 37.1425C34.9621 34.9266 33.49 34.8893 30.4533 33.9024C29.0553 33.4555 28.398 32.1334 26.6852 33.1203C24.4077 34.4145 25.3428 37.9711 28.2499 37.608H28.2591Z" fill="white"/>
<path d="M104.158 45.5589V59.6084H101.279V46.1361C101.279 44.8606 98.9826 45.1771 98.9826 45.8475V59.6177H96.1033V46.7227C96.1033 46.2199 95.3349 45.2237 94.7516 45.1678C94.3072 45.1306 93.5017 46.1734 93.5017 46.4341V59.6177H90.6224V45.8475C90.6224 45.5589 91.5945 43.6874 91.9093 43.3802C92.8629 42.4678 94.6405 42.3095 95.8904 42.5888C96.4458 42.7005 97.0199 43.3057 97.4457 43.343C97.8809 43.3802 98.3345 42.7192 98.89 42.5795C100.297 42.2443 102.167 42.5516 103.167 43.6688C103.427 43.9575 104.158 45.2982 104.158 45.5682V45.5589Z" fill="white"/>
<path d="M137.293 26.2861V35.4104C137.293 36.7232 135.543 38.4549 134.201 38.6877C132.46 38.9763 131.886 37.9149 131.099 37.8963C130.423 37.8684 129.479 38.8273 128.257 38.7342C127.118 38.6504 125.628 37.6728 125.128 36.6394C124.507 35.3452 124.341 28.5206 124.619 27.0123C124.674 26.6864 124.711 26.4164 125.081 26.3233L127.498 26.2861V35.1218C127.498 35.1962 127.794 35.7921 127.979 35.8573L129.507 35.4104V26.7237C130.192 25.9323 131.442 26.3978 132.386 26.2954V35.4197C132.386 36.0156 134.404 36.0156 134.404 35.4197V26.2954H137.284L137.293 26.2861Z" fill="white"/>
<path d="M90.1688 33.5209C90.4558 33.1113 92.5852 33.0926 92.9555 33.3626C93.511 33.7723 93.0018 37.1986 95.5571 35.4389C96.7422 32.6178 93.5388 31.0816 92.076 29.3312C85.5675 21.501 98.3901 16.8551 98.6956 26.296L95.8534 26.2587C96.0108 23.7914 92.9463 23.0466 93.2703 25.4859C93.511 27.2829 97.3069 29.6012 98.279 31.7799C101.76 39.5821 89.9929 41.7142 90.1781 33.5209H90.1688Z" fill="white"/>
<path d="M120.869 42.8037V47.729C118.258 46.4441 115.944 47.8966 115.666 50.7549C115.536 52.1608 115.499 56.0246 115.805 57.3095C116.388 59.7489 119.638 60.5961 121.702 59.4416C122.073 59.2368 123.452 57.7378 123.452 57.4398V42.8037H120.86H120.869ZM120.101 57.2629C119.693 57.3467 118.897 57.2257 118.647 56.9278C118.082 56.2853 118.008 50.699 118.86 50.187C121.758 48.4552 121.249 56.9185 120.11 57.2629H120.101Z" fill="white"/>
<path d="M108.176 29.0611C107.815 26.6683 105.408 25.6627 103.223 26.0631C99.7048 26.7148 99.8344 32.0218 100.168 34.7964C100.751 39.7216 107.084 39.8985 108.065 36.1371C108.361 35.0105 108.37 30.2715 108.176 29.0518V29.0611ZM105.315 35.4109C105.056 36.2395 103.186 36.2488 103.001 34.275C102.88 33.0367 102.519 28.4745 104.315 28.6235C104.621 28.5676 105.315 29.2101 105.315 29.3311C105.315 30.588 105.574 34.5915 105.315 35.4202V35.4109Z" fill="white"/>
<path d="M146.783 29.3492C146.107 24.3588 138.774 25.0943 139.024 30.0475C139.747 29.9637 140.774 30.2244 141.432 30.001C142.107 29.7682 143.691 26.2395 143.922 30.9227C140.533 30.3734 137.719 33.0641 139.173 36.4252C140.608 39.7863 146.329 39.4139 146.811 35.4197C146.968 34.0883 146.949 30.6899 146.774 29.3492H146.783ZM143.653 35.7176C142.728 36.1459 141.515 35.6804 141.607 34.5631C141.839 33.3807 142.931 33.4645 143.922 33.5296L143.653 35.7176Z" fill="white"/>
<path d="M111.546 55.8754C110.509 58.2031 108.722 57.4675 109.065 54.9723C112.435 55.4751 115.147 53.1568 113.888 49.6933C112.527 45.9877 106.658 46.5277 106.186 50.7733C106.037 52.0768 106.01 55.5868 106.204 56.8437C106.926 61.5083 114.509 60.689 113.962 55.8475L111.546 55.8848V55.8754ZM109.324 50.1681C111 49.6095 111.861 50.8105 111.037 52.3188L109.065 52.3654L109.324 50.1681Z" fill="white"/>
<path d="M146.422 48.3987C144.598 46.5087 140.876 46.9276 139.746 49.4601C139.117 50.8846 139.154 54.8788 139.385 56.4895C140.098 61.1169 146.32 60.8655 147.246 57.2902C147.681 55.605 147.672 49.7022 146.422 48.3987ZM144.496 56.564C144.496 56.713 143.774 57.3275 143.478 57.3089C143.107 57.4578 142.2 56.7782 142.2 56.564C142.2 55.2792 141.941 51.6853 142.2 50.7729C142.459 49.8511 144.505 49.8604 144.505 50.4842V56.5733L144.496 56.564Z" fill="white"/>
<path d="M160.253 34.7313C159.744 34.9082 159.078 36.9565 157.791 35.3737L157.744 33.8189C159.041 33.884 161.059 33.5209 161.975 32.5619C164.79 29.6198 161.383 24.3966 156.883 26.4263C154.319 27.5808 154.624 32.4037 154.856 34.843C155.356 40.1686 162.707 39.9079 162.651 34.6847C161.929 34.7778 160.883 34.5078 160.244 34.7313H160.253ZM158.754 28.6143L159.772 29.0426C160.716 30.7184 159.355 31.5098 157.754 31.2212C157.735 30.1877 157.476 28.8657 158.754 28.6143Z" fill="white"/>
<path d="M115.981 26.2869L115.712 28.7728L113.675 28.8938L113.555 38.1857L110.796 38.4557V28.8938L109.185 28.6238L109.065 26.2962H110.796C110.537 23.3354 112.638 20.9054 115.694 21.3709L115.647 23.5123C114.286 24.4341 113.416 24.1827 113.675 26.3055H115.981V26.2869Z" fill="white"/>
<path d="M135.571 59.7574C129.859 61.2564 129.785 55.6422 130.081 51.6201C130.507 45.8941 137.154 45.6334 138.108 51.0614C138.015 51.6107 135.941 51.6201 135.46 51.499C135.108 51.4152 135.127 50.5959 134.858 50.3166C134.293 49.7486 132.97 49.8883 132.97 50.7542C132.97 52.039 132.71 55.6329 132.97 56.5453C133.386 58.0071 135.451 57.1319 135.451 55.5212L137.673 55.5863C138.95 55.996 137.191 59.3199 135.562 59.7481L135.571 59.7574Z" fill="white"/>
<path d="M120.925 38.2596C117.314 37.282 118.443 31.6585 118.277 28.8932L116.823 28.7722L116.675 26.5656L118.286 26.2956V22.8135H121.165V26.2956H123.184L123.054 28.6232L121.165 28.8932C121.637 31.2488 119.74 35.9227 123.184 35.9879C124.119 38.3248 123.156 38.8648 120.925 38.2689V38.2596Z" fill="white"/>
<path d="M154.171 26.5654V28.6323C153.958 28.9116 151.412 29.0792 151.412 29.9172V38.0359C151.097 38.7622 148.532 38.5946 148.532 38.0359C148.81 35.5687 148.144 32.2727 148.532 29.9172C148.949 27.394 151.708 25.4854 154.171 26.5747V26.5654Z" fill="white"/>
<path d="M128.655 47.8681V59.6087H125.776V47.8681C126.387 47.1885 128.035 47.1885 128.655 47.8681Z" fill="white"/>
<path d="M128.238 45.7174C126.322 47.0954 124.906 44.4046 126.128 43.1663C127.572 41.7046 130.053 44.4139 128.238 45.7174Z" fill="white"/>
<path d="M112.231 43.0923C111.861 44.8613 110.49 46.4813 108.491 45.9879C109.398 44.0047 109.704 42.5244 112.231 43.0923Z" fill="white"/>
</svg>
