<svg width="164" height="80" viewBox="0 0 164 80" fill="none" xmlns="http://www.w3.org/2000/svg">
<g clip-path="url(#clip0_752_5866)">
<path d="M15.7556 17.5207C19.003 15.6324 22.7405 14.752 26.4914 14.9917C26.9072 15.0079 27.3155 15.1068 27.6924 15.2827C28.0693 15.4586 28.4071 15.7079 28.686 16.0159C28.9649 16.324 29.1792 16.6846 29.3164 17.0765C29.4535 17.4685 29.5107 17.8838 29.4846 18.2981C29.4585 18.7124 29.3496 19.1173 29.1644 19.4891C28.9791 19.8608 28.7212 20.1917 28.4058 20.4625C28.0905 20.7333 27.724 20.9385 27.328 21.0659C26.932 21.1933 26.5145 21.2404 26.1 21.2045C19.4619 20.7858 13.9587 21.5726 9.70605 23.0899C11.4325 20.7183 13.2208 18.979 15.7556 17.5207Z" fill="white"/>
<path d="M9.51064 44.3527C9.2966 44.0352 9.09946 43.7149 8.90513 43.3833C7.0903 40.2715 6.20264 36.7078 6.34631 33.1104C6.48997 29.513 7.65901 26.0311 9.71624 23.0732C-3.41918 27.7602 -4.60486 39.4382 9.51064 44.3527Z" fill="white"/>
<path d="M25.3616 46.5752C26.1711 46.5995 26.9393 46.9374 27.5034 47.5173C28.0674 48.0972 28.3828 48.8735 28.3828 49.6815C28.3828 50.4896 28.0674 51.2659 27.5034 51.8458C26.9393 52.4257 26.1711 52.7636 25.3616 52.7879C22.0353 52.8024 18.7638 51.9428 15.8762 50.2955C12.8345 48.5562 11.6094 47.022 9.51123 44.3525C13.5273 45.7575 18.7883 46.6005 25.3616 46.5752Z" fill="white"/>
<path d="M32.4981 33.0627C29.2507 31.1744 25.5132 30.294 21.7622 30.5337C21.3531 30.5594 20.9532 30.6651 20.5851 30.845C20.217 31.0249 19.888 31.2753 19.617 31.5821C19.3459 31.8888 19.138 32.2458 19.0053 32.6326C18.8725 33.0195 18.8174 33.4287 18.8431 33.8368C18.8688 34.2449 18.9748 34.644 19.1551 35.0112C19.3354 35.3784 19.5864 35.7067 19.8938 35.9771C20.2012 36.2476 20.559 36.4549 20.9468 36.5874C21.3345 36.7199 21.7446 36.7749 22.1537 36.7493C28.7918 36.3306 34.2949 37.1146 38.5448 38.6319C36.8268 36.2772 35.0328 34.5379 32.4981 33.0655" fill="white"/>
<path d="M38.7503 59.9084C38.9615 59.5909 39.1615 59.2706 39.3558 58.939C41.1683 55.8264 42.0546 52.2631 41.911 48.6662C41.7673 45.0694 40.5997 41.5877 38.5447 38.6289C51.6773 43.3158 52.8658 55.0051 38.7503 59.9084Z" fill="white"/>
<path d="M22.8999 62.1308C22.4832 62.1183 22.0682 62.1894 21.6795 62.3399C21.2908 62.4904 20.9363 62.7172 20.6371 63.0069C20.3379 63.2966 20.1 63.6433 19.9376 64.0264C19.7751 64.4095 19.6914 64.8212 19.6914 65.2372C19.6914 65.6532 19.7751 66.0649 19.9376 66.4481C20.1 66.8312 20.3379 67.1778 20.6371 67.4675C20.9363 67.7572 21.2908 67.984 21.6795 68.1345C22.0682 68.285 22.4832 68.3561 22.8999 68.3436C26.2215 68.3562 29.488 67.4966 32.3713 65.8512C35.4157 64.1118 36.6409 62.5776 38.739 59.9082C34.7201 61.3132 29.462 62.1561 22.8887 62.1308" fill="white"/>
<path d="M56.1636 59.8657V54.9905H58.3012C58.5163 54.9876 58.7307 55.016 58.9377 55.0748C59.1103 55.1243 59.2719 55.2063 59.4136 55.3164C59.5366 55.4196 59.6332 55.5506 59.6953 55.6986C59.7676 55.8582 59.8032 56.032 59.7995 56.2071C59.7997 56.3329 59.7768 56.4577 59.7319 56.5752C59.6482 56.8122 59.4824 57.0115 59.2644 57.1372C59.157 57.1998 59.0383 57.2409 58.9151 57.2581V57.3199C59.0711 57.3289 59.2239 57.3671 59.3658 57.4323C59.4976 57.4932 59.6169 57.578 59.7178 57.6824C59.8185 57.7848 59.8979 57.9061 59.9516 58.0392C60.0062 58.1799 60.0339 58.3295 60.0332 58.4804C60.0358 58.6793 59.9965 58.8765 59.9178 59.0592C59.8409 59.2304 59.7252 59.3814 59.5798 59.5004C59.4226 59.628 59.2417 59.7235 59.0475 59.7814C58.819 59.849 58.5817 59.8822 58.3434 59.8797L56.1636 59.8657ZM57.1859 57.0108H57.9548C58.1785 57.0254 58.4012 56.9694 58.5913 56.8506C58.6622 56.7978 58.7191 56.7284 58.7569 56.6486C58.7947 56.5687 58.8123 56.4808 58.8081 56.3926C58.8124 56.306 58.7966 56.2197 58.762 56.1402C58.7273 56.0608 58.6746 55.9904 58.6082 55.9346C58.4449 55.8171 58.2459 55.7595 58.0449 55.7716H57.2L57.1859 57.0108ZM58.0984 59.0845C58.3366 59.1012 58.5735 59.0379 58.7715 58.9047C58.8498 58.8428 58.912 58.763 58.9527 58.672C58.9934 58.581 59.0114 58.4815 59.0053 58.382C59.0109 58.2837 58.9919 58.1855 58.9501 58.0962C58.9084 58.007 58.845 57.9295 58.7659 57.8706C58.5579 57.7442 58.3161 57.6844 58.0731 57.6992H57.1859V59.0845H58.0984ZM60.8753 56.1397H61.8301V56.7326H61.8892C61.9152 56.6394 61.9582 56.5518 62.0159 56.4741C62.0755 56.3946 62.1467 56.3245 62.2272 56.2662C62.3143 56.2077 62.4091 56.1614 62.5088 56.1285C62.6181 56.094 62.7321 56.0769 62.8468 56.0779C62.9171 56.0738 62.9876 56.0738 63.058 56.0779C63.1174 56.0831 63.176 56.0954 63.2326 56.1144V57.008L63.1481 56.9883L63.027 56.9658H62.8946C62.8515 56.9632 62.8082 56.9632 62.7651 56.9658C62.6399 56.9647 62.5153 56.9836 62.3961 57.022C62.2917 57.0584 62.1958 57.1158 62.1145 57.1906C62.0337 57.2639 61.9702 57.3541 61.9286 57.4548C61.8822 57.566 61.8592 57.6855 61.861 57.806V59.8713H60.8781L60.8753 56.1397ZM64.3929 55.6199C64.3106 55.6203 64.2287 55.607 64.1507 55.5805C64.0843 55.5577 64.0223 55.5235 63.9677 55.4794C63.9181 55.4354 63.8778 55.3818 63.8494 55.322C63.8233 55.2587 63.8099 55.191 63.8099 55.1225C63.8091 55.0531 63.8225 54.9843 63.8494 54.9202C63.8763 54.8595 63.9168 54.8057 63.9677 54.7628C64.0209 54.7167 64.0833 54.6823 64.1507 54.6617C64.2289 54.6362 64.3107 54.6238 64.3929 54.6252C64.4742 54.6238 64.5551 54.6362 64.6323 54.6617C64.6989 54.6823 64.7603 54.7168 64.8126 54.7628C64.8651 54.8048 64.9066 54.8588 64.9337 54.9202C64.9627 54.9836 64.9772 55.0528 64.9759 55.1225C64.9763 55.1913 64.9619 55.2593 64.9337 55.322C64.9051 55.3826 64.8638 55.4363 64.8126 55.4794C64.7589 55.5234 64.6979 55.5577 64.6323 55.5805C64.5553 55.607 64.4744 55.6203 64.3929 55.6199ZM63.8972 56.1397H64.883V59.8657H63.8972V56.1397ZM65.8856 56.1397H66.8403V56.7354H66.8995C66.9807 56.5314 67.1234 56.3576 67.3078 56.2381C67.5171 56.1116 67.759 56.0491 68.0035 56.0582C68.1792 56.0462 68.3555 56.0726 68.52 56.1357C68.6844 56.1988 68.833 56.2971 68.9554 56.4235C69.1897 56.7155 69.3062 57.0843 69.2821 57.4576V59.8657H68.2964V57.702C68.3119 57.4924 68.252 57.2842 68.1274 57.1148C68.0615 57.0451 67.9806 56.9912 67.8909 56.9571C67.8011 56.9231 67.7048 56.9097 67.6092 56.9181C67.5031 56.9153 67.3977 56.9344 67.2994 56.9743C67.2117 57.0117 67.133 57.0673 67.0685 57.1372C67.0023 57.2124 66.9525 57.3004 66.922 57.3957C66.887 57.5027 66.8699 57.6148 66.8713 57.7273V59.8769H65.8856V56.1397ZM71.8759 61.2762C71.6484 61.2786 71.4214 61.2531 71.2 61.2004C71.0135 61.1554 70.8357 61.0804 70.6734 60.9784C70.5318 60.8906 70.4116 60.7725 70.3213 60.6328C70.2338 60.4987 70.1807 60.3453 70.1664 60.186H71.1409C71.1555 60.248 71.1846 60.3058 71.2257 60.3546C71.2667 60.4034 71.3187 60.4419 71.3774 60.467C71.5392 60.5431 71.717 60.5788 71.8957 60.571C72.116 60.5844 72.3344 60.523 72.5153 60.3967C72.5873 60.3379 72.6444 60.263 72.6821 60.178C72.7197 60.0931 72.7369 60.0006 72.7321 59.9078V59.2194H72.673C72.5735 59.4097 72.4196 59.5662 72.2308 59.669C72.0186 59.7748 71.7836 59.8269 71.5464 59.8207C71.3299 59.8232 71.1155 59.7781 70.9184 59.6886C70.734 59.6033 70.5712 59.4774 70.4424 59.3205C70.3057 59.1476 70.2035 58.9502 70.1411 58.7389C70.0693 58.4915 70.0342 58.2349 70.0369 57.9774C70.0347 57.7134 70.0697 57.4504 70.1411 57.1962C70.2026 56.9798 70.306 56.7775 70.4452 56.6005C70.5742 56.4379 70.739 56.3071 70.9268 56.2184C71.1288 56.1287 71.3479 56.0836 71.569 56.0863C71.6906 56.0853 71.8118 56.1004 71.9294 56.1313C72.0417 56.1613 72.1496 56.2057 72.2505 56.2633C72.3478 56.318 72.4361 56.3872 72.5124 56.4685C72.589 56.5523 72.6526 56.647 72.7011 56.7495H72.7631V56.1538H73.7178V59.8657C73.7208 60.0703 73.6775 60.273 73.5911 60.4586C73.5029 60.6338 73.3758 60.7866 73.2193 60.9053C73.0454 61.0346 72.8486 61.13 72.6392 61.1863C72.3904 61.2529 72.1334 61.2832 71.8759 61.2762ZM72.7434 57.983C72.7452 57.833 72.7253 57.6834 72.6842 57.539C72.6504 57.4176 72.593 57.304 72.5153 57.2047C72.4396 57.1123 72.3431 57.0391 72.2336 56.9911C72.1216 56.9394 71.9994 56.9134 71.8759 56.9152C71.7534 56.9131 71.632 56.939 71.5211 56.9911C71.4176 57.0411 71.327 57.1142 71.2563 57.2047C71.1793 57.3037 71.1237 57.4175 71.093 57.539C71.0179 57.8293 71.0179 58.1339 71.093 58.4242C71.1246 58.5457 71.1791 58.6602 71.2535 58.7614C71.3242 58.8519 71.4148 58.9249 71.5183 58.9749C71.6313 59.0231 71.753 59.048 71.8759 59.048C71.9989 59.048 72.1206 59.0231 72.2336 58.9749C72.3433 58.9274 72.44 58.8541 72.5153 58.7614C72.5921 58.6619 72.6486 58.5483 72.6814 58.427C72.7236 58.2828 72.7445 58.1332 72.7434 57.983ZM75.2077 55.6199C75.1262 55.6206 75.0452 55.6073 74.9683 55.5805C74.9007 55.5584 74.8377 55.5241 74.7824 55.4794C74.7336 55.4353 74.6943 55.3818 74.6669 55.322C74.6387 55.2593 74.6243 55.1913 74.6247 55.1225C74.6234 55.0528 74.6379 54.9836 74.6669 54.9202C74.6929 54.8597 74.7324 54.8059 74.7824 54.7628C74.8363 54.7161 74.8997 54.6816 74.9683 54.6617C75.0454 54.636 75.1264 54.6236 75.2077 54.6252C75.289 54.6234 75.37 54.6358 75.4471 54.6617C75.5145 54.6823 75.5769 54.7167 75.6301 54.7628C75.681 54.8057 75.7214 54.8595 75.7484 54.9202C75.7775 54.9836 75.7919 55.0528 75.7907 55.1225C75.791 55.1913 75.7766 55.2593 75.7484 55.322C75.7199 55.3818 75.6797 55.4354 75.6301 55.4794C75.5755 55.5235 75.5135 55.5577 75.4471 55.5805C75.3702 55.6075 75.2892 55.6208 75.2077 55.6199ZM74.7148 56.1397H75.7005V59.8657H74.7148V56.1397ZM76.6947 56.1397H77.6494V56.7354H77.7142C77.7946 56.5309 77.9375 56.3569 78.1226 56.2381C78.3318 56.1113 78.5737 56.0488 78.8182 56.0582C78.9936 56.0462 79.1694 56.0727 79.3334 56.1358C79.4974 56.1989 79.6455 56.2971 79.7673 56.4235C80.0028 56.7149 80.1195 57.0841 80.094 57.4576V59.8657H79.1083V57.702C79.1232 57.4929 79.0644 57.2852 78.9421 57.1148C78.8755 57.0452 78.7942 56.9914 78.704 56.9574C78.6138 56.9233 78.5172 56.9099 78.4211 56.9181C78.316 56.9152 78.2114 56.9344 78.1141 56.9743C78.0257 57.0117 77.946 57.0672 77.8804 57.1372C77.8153 57.2132 77.7656 57.301 77.7339 57.3957C77.6989 57.5027 77.6818 57.6148 77.6832 57.7273V59.8769H76.6975L76.6947 56.1397ZM82.6935 61.2762C82.465 61.2787 82.2371 61.2532 82.0148 61.2004C81.8286 61.1544 81.6509 61.0794 81.4881 60.9784C81.3476 60.8892 81.2277 60.7715 81.1361 60.6328C81.0486 60.4987 80.9954 60.3453 80.9812 60.186H81.9584C81.972 60.2481 82.0003 60.3061 82.0409 60.355C82.0816 60.4039 82.1335 60.4423 82.1922 60.467C82.3551 60.5426 82.5337 60.5782 82.7132 60.571C82.9327 60.5844 83.1502 60.5229 83.33 60.3967C83.4029 60.3385 83.4608 60.2637 83.499 60.1787C83.5372 60.0937 83.5546 60.0008 83.5497 59.9078V59.2194H83.4877C83.3891 59.4103 83.235 59.567 83.0455 59.669C82.8345 59.7752 82.6003 59.8273 82.364 59.8207C82.1474 59.8238 81.9328 59.7787 81.736 59.6886C81.5511 59.604 81.3883 59.478 81.26 59.3205C81.1224 59.1482 81.02 58.9506 80.9586 58.7389C80.8855 58.4918 80.8503 58.235 80.8544 57.9774C80.8508 57.7133 80.8859 57.4502 80.9586 57.1962C81.0202 56.9798 81.1235 56.7775 81.2628 56.6005C81.3912 56.4373 81.5561 56.3064 81.7444 56.2184C81.9453 56.1284 82.1635 56.0833 82.3837 56.0863C82.5063 56.0855 82.6284 56.1006 82.747 56.1313C82.8586 56.1608 82.9656 56.2053 83.0653 56.2633C83.1629 56.3187 83.2521 56.3878 83.33 56.4685C83.4056 56.553 83.4691 56.6475 83.5187 56.7495H83.5807V56.1538H84.5354V59.8657C84.5375 60.0705 84.4932 60.2732 84.4058 60.4586C84.3197 60.6343 84.1933 60.7873 84.0369 60.9053C83.8623 61.0335 83.6657 61.1287 83.4567 61.1863C83.208 61.2527 82.9509 61.283 82.6935 61.2762ZM83.5581 57.983C83.56 57.833 83.54 57.6834 83.499 57.539C83.4652 57.4176 83.4078 57.304 83.33 57.2047C83.2583 57.114 83.1668 57.041 83.0624 56.9911C82.9504 56.9411 82.829 56.9153 82.7062 56.9153C82.5834 56.9153 82.462 56.9411 82.3499 56.9911C82.2464 57.0411 82.1558 57.1142 82.0852 57.2047C82.0092 57.3043 81.9537 57.418 81.9218 57.539C81.8467 57.8293 81.8467 58.1339 81.9218 58.4242C81.9543 58.5459 82.0098 58.6603 82.0852 58.7614C82.1541 58.8524 82.2439 58.9256 82.3471 58.9749C82.4607 59.0231 82.5828 59.0479 82.7062 59.0479C82.8296 59.0479 82.9517 59.0231 83.0653 58.9749C83.1701 58.9258 83.2618 58.8527 83.3328 58.7614C83.4095 58.6614 83.4668 58.548 83.5018 58.427C83.542 58.2825 83.561 58.1329 83.5581 57.983ZM88.2107 59.8657V58.0701L86.5209 54.9792H87.6277L88.7036 57.0192H88.7655L89.8386 54.9792H90.9454L89.2556 58.0701V59.8657H88.2107ZM92.6408 59.95C92.3776 59.9536 92.116 59.9089 91.8691 59.8179C91.6487 59.7357 91.4502 59.604 91.289 59.4329C91.1254 59.2575 91.0023 59.0484 90.9285 58.8204C90.8405 58.5568 90.7977 58.2804 90.8018 58.0027C90.7977 57.7268 90.8405 57.4522 90.9285 57.1906C91.0067 56.9633 91.1313 56.7547 91.2946 56.5781C91.4578 56.4094 91.6558 56.2781 91.8748 56.1931C92.3702 56.0171 92.9114 56.0171 93.4069 56.1931C93.6263 56.2773 93.8243 56.4088 93.987 56.5781C94.1515 56.7539 94.2763 56.9627 94.3532 57.1906C94.4411 57.4522 94.484 57.7268 94.4799 58.0027C94.484 58.2804 94.4411 58.5568 94.3532 58.8204C94.2793 59.0484 94.1563 59.2575 93.9927 59.4329C93.8315 59.604 93.633 59.7357 93.4125 59.8179C93.1656 59.9089 92.904 59.9536 92.6408 59.95ZM92.6408 59.1463C92.7598 59.1516 92.8783 59.1269 92.9851 59.0743C93.0919 59.0217 93.1837 58.9431 93.252 58.8457C93.4104 58.594 93.4863 58.2994 93.4688 58.0027C93.4702 57.8408 93.4512 57.6794 93.4125 57.5222C93.3799 57.3944 93.3246 57.2736 93.2492 57.1653C93.1825 57.0711 93.0935 56.9948 92.99 56.9433C92.8824 56.8869 92.7624 56.8579 92.6408 56.859C92.5197 56.8564 92.3998 56.8834 92.2916 56.9377C92.1871 56.9876 92.0977 57.0642 92.0325 57.1597C91.9569 57.2675 91.9024 57.3886 91.872 57.5166C91.8318 57.6735 91.8129 57.8351 91.8156 57.9971C91.7982 58.293 91.8719 58.5871 92.0269 58.84C92.0956 58.9378 92.1878 59.0169 92.2951 59.0699C92.4023 59.1229 92.5212 59.1482 92.6408 59.1435V59.1463ZM98.6537 59.8657H97.7102V59.2672H97.6483C97.5724 59.4724 97.4334 59.6485 97.2512 59.7701C97.043 59.8964 96.8018 59.958 96.5584 59.9471C96.373 59.9499 96.1887 59.9184 96.0148 59.8544C95.8578 59.7938 95.717 59.6976 95.6036 59.5734C95.4868 59.4491 95.3976 59.3017 95.3417 59.1407C95.2795 58.9531 95.2491 58.7566 95.2516 58.5591V56.1313H96.2373V58.3062C96.2373 58.8232 96.4654 59.0845 96.9245 59.0845C97.0285 59.0918 97.1329 59.0762 97.2302 59.0388C97.3275 59.0014 97.4154 58.9431 97.4877 58.8681C97.6254 58.7033 97.6949 58.4923 97.6821 58.2781V56.1313H98.6678L98.6537 59.8657ZM102.453 59.9219C102.284 59.9243 102.117 59.8977 101.957 59.8432C101.815 59.7927 101.684 59.7154 101.571 59.6156C101.463 59.5183 101.377 59.3984 101.321 59.2643C101.259 59.1175 101.229 58.9598 101.231 58.8007C101.224 58.6481 101.254 58.496 101.319 58.3575C101.383 58.2191 101.481 58.0983 101.602 58.0055C101.919 57.7916 102.293 57.678 102.675 57.6795L103.579 57.6262V57.3227C103.583 57.2539 103.571 57.1852 103.543 57.1222C103.515 57.0592 103.473 57.0037 103.419 56.9602C103.282 56.867 103.117 56.8224 102.951 56.8338C102.799 56.8284 102.647 56.8592 102.509 56.9237C102.401 56.9754 102.317 57.0671 102.276 57.1794H101.371C101.386 57.0153 101.438 56.8566 101.524 56.7157C101.61 56.5734 101.726 56.4516 101.864 56.3589C102.018 56.2574 102.187 56.1815 102.366 56.1341C102.576 56.0816 102.791 56.0561 103.008 56.0582C103.23 56.0553 103.452 56.0837 103.667 56.1425C103.844 56.1924 104.008 56.2775 104.151 56.3926C104.282 56.4986 104.385 56.6345 104.453 56.7888C104.523 56.958 104.557 57.1397 104.554 57.3227V59.8516H103.596V59.388H103.537C103.436 59.5616 103.285 59.7007 103.104 59.787C102.901 59.8831 102.677 59.9293 102.453 59.9219ZM102.777 59.1829C102.885 59.1841 102.993 59.167 103.095 59.1323C103.189 59.101 103.276 59.0524 103.351 58.989C103.421 58.9306 103.479 58.859 103.52 58.7782C103.56 58.6959 103.58 58.6055 103.579 58.5141V58.2331L102.825 58.2781C102.405 58.309 102.197 58.4579 102.197 58.7276C102.194 58.7914 102.207 58.8549 102.235 58.9123C102.263 58.9696 102.305 59.0192 102.357 59.0564C102.481 59.143 102.629 59.1873 102.78 59.1829H102.777ZM109.094 59.8657H108.131L106.838 54.9905H107.903L108.663 58.427H108.716L109.609 54.9905H110.471L111.378 58.427H111.434L112.189 54.9905H113.245L111.947 59.8657H110.989L110.066 56.6399H110.012L109.094 59.8657ZM115.411 59.95C115.147 59.9536 114.884 59.9088 114.636 59.8179C114.417 59.7357 114.219 59.604 114.059 59.4329C113.896 59.2569 113.772 59.048 113.696 58.8204C113.609 58.5567 113.567 58.2803 113.572 58.0027C113.568 57.7268 113.611 57.4522 113.699 57.1906C113.775 56.9627 113.9 56.7539 114.065 56.5781C114.227 56.4095 114.424 56.2781 114.642 56.1931C115.138 56.0169 115.681 56.0169 116.177 56.1931C116.395 56.2781 116.592 56.4095 116.754 56.5781C116.919 56.7539 117.044 56.9627 117.12 57.1906C117.208 57.4522 117.251 57.7268 117.247 58.0027C117.252 58.2803 117.21 58.5567 117.123 58.8204C117.047 59.048 116.923 59.2569 116.76 59.4329C116.6 59.604 116.402 59.7357 116.183 59.8179C115.936 59.9086 115.674 59.9534 115.411 59.95ZM115.411 59.1463C115.53 59.1511 115.648 59.1261 115.755 59.0736C115.862 59.0211 115.953 58.9427 116.022 58.8457C116.178 58.5932 116.253 58.2989 116.236 58.0027C116.237 57.8408 116.219 57.6794 116.18 57.5222C116.15 57.3936 116.094 57.2723 116.016 57.1653C115.95 57.0711 115.861 56.9948 115.757 56.9433C115.65 56.889 115.531 56.862 115.411 56.8647C115.289 56.8621 115.168 56.8891 115.059 56.9433C114.955 56.9948 114.866 57.0711 114.8 57.1653C114.724 57.2731 114.67 57.3942 114.639 57.5222C114.601 57.6794 114.582 57.8408 114.583 58.0027C114.565 58.299 114.64 58.5936 114.797 58.8457C114.866 58.9428 114.958 59.021 115.066 59.0731C115.173 59.1251 115.292 59.1494 115.411 59.1435V59.1463ZM118.05 56.1397H119.007V56.7326H119.067C119.093 56.6394 119.136 56.5518 119.193 56.4741C119.252 56.3939 119.323 56.3237 119.405 56.2662C119.492 56.2077 119.586 56.1614 119.686 56.1285C119.795 56.0942 119.908 56.0771 120.021 56.0779C120.093 56.0738 120.164 56.0738 120.235 56.0779C120.295 56.0831 120.353 56.0954 120.41 56.1144V57.008L120.323 56.9883C120.284 56.9784 120.244 56.9709 120.204 56.9658H120.072C120.029 56.9632 119.986 56.9632 119.942 56.9658C119.817 56.9645 119.693 56.9835 119.573 57.022C119.469 57.0584 119.373 57.1158 119.292 57.1906C119.21 57.2631 119.147 57.3536 119.106 57.4548C119.06 57.566 119.037 57.6855 119.038 57.806V59.8713H118.053L118.05 56.1397ZM121.103 54.7151H122.088V59.8657H121.103V54.7151ZM124.449 59.9219C124.229 59.9249 124.012 59.8798 123.812 59.7898C123.624 59.7008 123.46 59.5689 123.333 59.4048C123.195 59.2233 123.093 59.0174 123.032 58.7979C122.893 58.273 122.893 57.7211 123.032 57.1962C123.094 56.9772 123.197 56.7721 123.336 56.5921C123.464 56.4296 123.628 56.2988 123.815 56.21C124.014 56.1196 124.23 56.0745 124.449 56.0779C124.684 56.0731 124.917 56.1324 125.122 56.2493C125.315 56.361 125.468 56.5299 125.561 56.7326H125.62V54.7151H126.606V59.8657H125.651V59.2812H125.592C125.544 59.3842 125.481 59.479 125.403 59.5622C125.325 59.6411 125.236 59.7092 125.139 59.7645C125.037 59.8201 124.929 59.8625 124.818 59.8909C124.696 59.9161 124.572 59.9264 124.449 59.9219ZM124.784 56.9012C124.662 56.8991 124.542 56.925 124.432 56.9771C124.326 57.0281 124.235 57.1032 124.164 57.1962C124.088 57.3002 124.031 57.4174 123.998 57.5419C123.957 57.691 123.937 57.8452 123.939 57.9999C123.937 58.1574 123.957 58.3144 123.998 58.4663C124.031 58.5908 124.088 58.708 124.164 58.8119C124.234 58.9039 124.325 58.9781 124.429 59.0283C124.54 59.078 124.662 59.1029 124.784 59.1014C124.905 59.1032 125.026 59.0773 125.136 59.0255C125.245 58.9761 125.342 58.9021 125.417 58.8091C125.493 58.7045 125.549 58.5875 125.584 58.4635C125.661 58.1621 125.661 57.8461 125.584 57.5447C125.549 57.4206 125.493 57.3037 125.417 57.1991C125.348 57.1045 125.256 57.0283 125.15 56.9771C125.036 56.9232 124.91 56.8972 124.784 56.9012ZM131.073 59.95C130.809 59.9538 130.548 59.9091 130.301 59.8179C130.08 59.7357 129.882 59.604 129.721 59.4329C129.557 59.2569 129.433 59.048 129.357 58.8204C129.272 58.5563 129.23 58.2802 129.234 58.0027C129.229 57.7268 129.272 57.4522 129.36 57.1906C129.437 56.9627 129.562 56.7539 129.726 56.5781C129.889 56.4095 130.086 56.2781 130.304 56.1931C130.8 56.0169 131.342 56.0169 131.839 56.1931C132.058 56.2781 132.256 56.4094 132.419 56.5781C132.581 56.7549 132.705 56.9635 132.782 57.1906C132.872 57.4517 132.916 57.7265 132.912 58.0027C132.916 58.2804 132.873 58.5568 132.785 58.8204C132.71 59.0486 132.586 59.2577 132.422 59.4329C132.262 59.604 132.064 59.7357 131.844 59.8179C131.597 59.9086 131.336 59.9534 131.073 59.95ZM131.073 59.1463C131.192 59.1511 131.31 59.1261 131.417 59.0736C131.523 59.0211 131.615 58.9427 131.684 58.8457C131.841 58.5937 131.916 58.2991 131.898 58.0027C131.899 57.8408 131.88 57.6794 131.841 57.5222C131.811 57.3936 131.756 57.2723 131.678 57.1653C131.613 57.0712 131.524 56.9949 131.422 56.9433C131.312 56.8916 131.192 56.8647 131.071 56.8647C130.95 56.8647 130.83 56.8916 130.721 56.9433C130.617 56.9948 130.528 57.0711 130.461 57.1653C130.386 57.2731 130.331 57.3942 130.301 57.5222C130.262 57.6794 130.243 57.8408 130.245 58.0027C130.228 58.2989 130.303 58.5931 130.459 58.8457C130.528 58.9424 130.62 59.0204 130.728 59.0724C130.835 59.1244 130.953 59.1488 131.073 59.1435V59.1463ZM134.002 56.949H133.399V56.1762H134.002V55.811C133.987 55.6582 134.01 55.5043 134.069 55.3624C134.127 55.2205 134.219 55.0948 134.337 54.9961C134.632 54.8096 134.979 54.7219 135.328 54.746C135.411 54.7411 135.493 54.7411 135.576 54.746L135.79 54.7713V55.4794C135.745 55.4698 135.7 55.4632 135.655 55.4597H135.466C135.331 55.4497 135.197 55.4864 135.086 55.5637C135.043 55.608 135.01 55.661 134.989 55.7192C134.968 55.7773 134.96 55.8393 134.965 55.9009V56.1819H135.759V56.9546H134.987V59.8657H134.002V56.949ZM139.201 59.8657V55.8615H137.733V54.9905H141.676V55.8615H140.237V59.8657H139.201ZM142.963 59.9219C142.795 59.9243 142.627 59.8977 142.468 59.8432C142.325 59.7933 142.194 59.716 142.082 59.6156C141.973 59.5176 141.887 59.3979 141.828 59.2643C141.768 59.1173 141.738 58.9596 141.741 58.8007C141.734 58.6481 141.764 58.496 141.829 58.3575C141.894 58.2191 141.991 58.0983 142.113 58.0055C142.429 57.7916 142.803 57.678 143.186 57.6795L144.09 57.6262V57.3227C144.094 57.2539 144.081 57.1852 144.053 57.1222C144.025 57.0592 143.983 57.0037 143.929 56.9602C143.791 56.867 143.625 56.8225 143.459 56.8338C143.307 56.8287 143.157 56.8595 143.02 56.9237C142.911 56.9746 142.827 57.0666 142.786 57.1794H141.879C141.892 57.0155 141.943 56.8568 142.028 56.7157C142.115 56.5741 142.231 56.4525 142.369 56.3589C142.524 56.2574 142.694 56.1815 142.873 56.1341C143.083 56.0813 143.299 56.0558 143.515 56.0582C143.738 56.0553 143.96 56.0837 144.174 56.1425C144.351 56.1924 144.516 56.2775 144.659 56.3926C144.79 56.4986 144.893 56.6345 144.96 56.7888C145.03 56.958 145.064 57.1397 145.061 57.3227V59.8516H144.107V59.388H144.045C143.946 59.5621 143.795 59.7014 143.614 59.787C143.41 59.8822 143.188 59.9284 142.963 59.9219ZM143.287 59.1829C143.395 59.1841 143.503 59.167 143.605 59.1323C143.698 59.1016 143.785 59.0529 143.859 58.989C143.93 58.9322 143.988 58.8602 144.028 58.7782C144.07 58.6965 144.091 58.6059 144.09 58.5141V58.2331L143.335 58.2781C142.915 58.309 142.704 58.4579 142.704 58.7276C142.702 58.7916 142.716 58.8552 142.744 58.9125C142.773 58.9699 142.815 59.0193 142.867 59.0564C142.99 59.1428 143.137 59.1871 143.287 59.1829ZM146.064 54.7151H147.05V59.8657H146.064V54.7151ZM151.404 58.8035C151.369 58.9735 151.301 59.1349 151.204 59.2784C151.106 59.4205 150.982 59.5426 150.838 59.6381C150.683 59.7433 150.51 59.8204 150.328 59.8657C150.122 59.9213 149.91 59.9487 149.697 59.9471C149.438 59.9511 149.18 59.9063 148.937 59.8151C148.722 59.735 148.529 59.6061 148.373 59.4386C148.209 59.2635 148.085 59.0544 148.01 58.826C147.927 58.5635 147.886 58.2893 147.889 58.0139C147.885 57.7365 147.927 57.4603 148.013 57.1962C148.088 56.9678 148.21 56.7573 148.371 56.5781C148.527 56.4083 148.72 56.275 148.934 56.1875C149.413 56.0114 149.939 56.0114 150.418 56.1875C150.632 56.2652 150.825 56.3912 150.981 56.5556C151.137 56.7265 151.254 56.9287 151.325 57.1485C151.408 57.4034 151.447 57.6702 151.443 57.9381V58.2415H148.88V58.2921C148.88 58.4195 148.902 58.5459 148.945 58.6658C148.984 58.7701 149.043 58.8656 149.12 58.9468C149.193 59.0257 149.284 59.0871 149.384 59.1267C149.496 59.1697 149.614 59.1907 149.734 59.1885C149.903 59.1951 150.071 59.1613 150.224 59.0901C150.349 59.0338 150.449 58.9339 150.505 58.8091L151.404 58.8035ZM149.689 56.8113C149.581 56.8102 149.474 56.8292 149.373 56.8675C149.28 56.9053 149.195 56.9606 149.123 57.0305C149.05 57.1032 148.993 57.189 148.954 57.2833C148.907 57.3872 148.881 57.4986 148.875 57.6121H150.466C150.467 57.3956 150.388 57.1863 150.243 57.0248C150.171 56.9526 150.084 56.8964 149.989 56.8596C149.893 56.8228 149.791 56.8064 149.689 56.8113ZM152.24 56.1397H153.192V56.7354H153.254C153.334 56.5309 153.477 56.3569 153.662 56.2381C153.872 56.1113 154.114 56.0488 154.358 56.0582C154.533 56.0462 154.709 56.0727 154.873 56.1358C155.037 56.1989 155.185 56.2971 155.307 56.4235C155.543 56.7149 155.659 57.0841 155.634 57.4576V59.8657H154.648V57.702C154.665 57.4928 154.606 57.2846 154.482 57.1148C154.415 57.0452 154.334 56.9914 154.244 56.9574C154.154 56.9233 154.057 56.9099 153.961 56.9181C153.856 56.9152 153.751 56.9344 153.654 56.9743C153.566 57.011 153.487 57.0667 153.423 57.1372C153.356 57.2123 153.305 57.3003 153.274 57.3957C153.239 57.5027 153.222 57.6148 153.223 57.7273V59.8769H152.237L152.24 56.1397ZM157.859 55.2546V56.1762H158.633V56.949H157.859V58.6349C157.849 58.7644 157.89 58.8927 157.974 58.9918C158.077 59.0773 158.21 59.1187 158.343 59.107H158.633V59.8572C158.574 59.8572 158.498 59.8797 158.414 59.8881C158.329 59.8966 158.233 59.9022 158.132 59.9022C157.936 59.9056 157.74 59.8858 157.549 59.8432C157.406 59.8145 157.272 59.7529 157.158 59.6633C157.054 59.5815 156.977 59.4711 156.935 59.3458C156.884 59.1967 156.86 59.0397 156.865 58.8822V56.9714H156.29V56.1987H156.873V55.2771L157.859 55.2546Z" fill="white"/>
<path d="M54.7648 46.3022C54.0212 45.5716 53.81 44.768 54.5169 43.9616L55.6435 42.5735C56.3504 41.767 57.0911 41.5844 57.8965 42.2925C59.3047 43.6806 61.6789 44.7427 63.5855 44.7427C65.7429 44.7427 67.0863 43.8632 67.0863 42.5482C67.0863 40.6824 64.9993 40.4632 62.2421 39.5865C59.0259 38.5609 55.1027 36.6951 55.1027 32.2358C55.1027 28.0659 58.6738 25.1407 63.87 25.1407C67.0496 25.1407 69.7364 26.2366 71.5389 27.8467C72.3528 28.5042 72.6344 29.3078 71.9275 30.1508L70.832 31.5024C70.1617 32.3088 69.4238 32.455 68.5789 31.7834C67.4129 30.7971 65.8555 29.9204 63.9826 29.9204C62.2168 29.9204 61.0142 30.6875 61.0142 31.8874C61.0142 33.3878 62.7463 34.0088 64.5487 34.6298C68.4719 35.8746 73.0315 37.1588 73.0315 42.4976C73.0315 47.2155 68.931 49.7753 63.9122 49.7753C60.2538 49.7781 56.8488 48.4602 54.7648 46.3022ZM74.3778 37.4538C74.3778 30.3953 79.8189 25.1295 87.0288 25.1295C94.2386 25.1295 99.6826 30.3953 99.6826 37.4538C99.6826 44.5123 94.2048 49.7781 87.0288 49.7781C79.8527 49.7781 74.3778 44.5123 74.3778 37.4538ZM93.7457 37.4538C93.7457 33.3935 90.7773 30.5414 87.0288 30.5414C83.2802 30.5414 80.3146 33.3935 80.3146 37.4538C80.3146 41.5141 83.283 44.3662 87.0288 44.3662C90.7745 44.3662 93.7457 41.4748 93.7457 37.4538ZM101.713 47.7297V27.2173C101.713 26.1579 102.276 25.5735 103.268 25.5735H105.955C106.98 25.5735 107.509 26.1579 107.509 27.2173V44.4393H116.088C117.079 44.4393 117.642 44.9872 117.642 46.0465V47.7325C117.642 48.7553 117.079 49.3426 116.088 49.3426H103.268C102.279 49.3397 101.713 48.7525 101.713 47.7297ZM135.802 37.4538C135.802 30.3953 141.246 25.1295 148.456 25.1295C155.666 25.1295 161.11 30.3953 161.11 37.4538C161.11 44.5123 155.632 49.7781 148.456 49.7781C141.28 49.7781 135.802 44.5123 135.802 37.4538ZM155.17 37.4538C155.17 33.3935 152.202 30.5414 148.456 30.5414C144.71 30.5414 141.742 33.3935 141.742 37.4538C141.742 41.5141 144.71 44.3662 148.456 44.3662C152.202 44.3662 155.165 41.4748 155.165 37.4538H155.17ZM112.111 30.4599C111.086 30.4599 110.52 29.8755 110.52 28.8498V26.7368C110.52 25.6774 111.083 25.1295 112.111 25.1295H115.772C117.079 25.1295 118.025 25.3852 118.848 25.9725C119.873 26.7031 120.538 27.9113 121.143 29.409L125.562 40.7105L133.276 21.988C133.738 20.8893 134.445 20.3779 135.467 20.3779H138.083C139.109 20.3779 139.886 20.9259 139.39 21.988L127.742 47.9488C127.249 49.0475 126.717 49.5224 125.728 49.5224H125.373C124.421 49.5224 123.889 49.0475 123.36 47.9488L115.795 31.272C115.62 30.8336 115.443 30.5779 115.161 30.5049C115.081 30.4746 114.996 30.4593 114.911 30.4599H112.111Z" fill="white"/>
</g>
<defs>
<clipPath id="clip0_752_5866">
<rect width="164" height="80" fill="white"/>
</clipPath>
</defs>
</svg>
