<svg width="164" height="80" viewBox="0 0 164 80" fill="none" xmlns="http://www.w3.org/2000/svg">
<g clip-path="url(#clip0_782_3249)">
<path d="M23.7205 22.2456C24.1241 22.7476 27.4656 25.1118 28.3051 25.6705C33.043 28.804 40.9691 30.7553 44.1331 35.0629C49.549 42.4391 51.4538 52.6007 44.1331 59.4992C41.3081 62.1549 30.0404 64.835 26.1581 64.503C25.1169 64.414 13.8331 60.7056 13.4698 60.1388C12.6788 56.641 12.4528 52.7464 12.3237 49.1757C12.2268 46.3985 14.0833 45.8641 15.641 48.2284C19.709 54.3901 29.2575 63.6286 37.1997 57.9203C37.7567 57.5154 39.4759 54.9811 39.7099 54.3172C43.0111 44.9491 35.9971 43.7589 30.105 39.1356C25.5285 35.5487 26.9168 37.1114 21.7349 35.2734C16.997 33.5973 15.6975 30.6015 15.1568 25.8082C13.1389 8.11654 27.845 2.92646 42.9546 5.70368C48.4432 6.71578 46.4818 9.46062 47.2486 12.8775C47.7975 15.3146 50.3157 17.9218 47.5795 20.1728C45.7393 20.5614 44.2057 16.0677 43.0434 14.7883C39.3144 10.7075 34.7622 9.41204 29.2736 10.2865C24.4792 11.0557 20.5807 18.3267 23.7205 22.2456Z" fill="white"/>
<path d="M151.232 46.909C151.813 54.6496 154.493 57.0624 146.632 61.0218C128.285 70.2603 106.727 58.4794 105.306 38.1563C104.903 32.4075 107.421 17.4202 111.642 13.4932C112.474 12.724 114.451 12.7969 115.694 11.8091C116.937 10.8213 117.123 9.19382 119.326 7.80116C125.041 4.16567 136.454 4.75674 143.024 5.85792C144.251 6.06034 149.844 8.38414 150.482 9.10476C151.757 10.5379 151.797 21.3391 150.078 21.7116L139.973 11.2018C131.53 6.1494 120.852 10.4731 117.026 19.2501C114.427 25.2175 114.475 39.97 115.355 46.4717C116.953 58.1879 135.969 63.7018 143.887 56.0017C145.009 54.9087 149.893 45.3625 151.232 46.9252V46.909Z" fill="white"/>
<path d="M70.1552 62.1796C71.9309 59.9044 74.6752 58.7141 75.111 55.4268C75.4258 53.0382 75.0545 39.1197 74.5703 36.7716C73.5533 31.8002 65.8047 24.9421 64.368 19.4606L54.0931 7.19384L72.4475 5.66353C72.3668 7.73633 70.7929 9.89819 71.0754 11.9791C71.148 12.4892 74.1183 21.2338 74.3765 21.6791C75.2805 23.2094 77.1208 22.9827 78.162 24.011C79.2032 25.0393 79.1548 27.857 81.2453 27.857C82.3027 27.9461 82.5448 27.2255 83.0533 26.5615C84.2075 25.0312 89.6718 15.655 89.914 14.2543C90.6646 9.90628 86.0639 9.48525 86.2173 5.67163L91.2296 5.62305L101.496 8.33549C101.02 10.5621 99.075 10.052 98.1307 11.0317C95.9998 13.2422 83.7878 31.452 83.3277 33.711C82.3188 38.6744 82.9241 51.2974 85.2891 55.8478C86.2253 57.6453 88.1302 58.7141 88.9373 60.625L88.1221 62.1796H70.1471H70.1552Z" fill="white"/>
<path d="M12.8564 76.956V77.207C12.8564 78.1462 13.0582 78.4863 13.5828 78.4863C14.0026 78.4863 14.2608 78.1786 14.2608 77.6766C14.2608 77.2637 13.9622 76.8669 13.373 76.4864C13.2761 76.4216 13.2035 76.373 13.1551 76.3406L13.0582 76.2759C12.2591 75.7415 11.7587 75.3285 11.565 75.0613C11.2825 74.6484 11.1372 74.1302 11.1372 73.5148C11.1372 72.7699 11.3551 72.1869 11.7829 71.7578C12.2107 71.3287 12.7999 71.1182 13.5586 71.1182C15.1971 71.1182 16.085 71.9764 16.085 73.5553C16.085 73.6201 16.0769 73.7658 16.0769 73.8306H14.2931V73.7253C14.2931 72.9804 14.0591 72.5918 13.6151 72.5918C13.2438 72.5918 12.9936 72.8833 12.9936 73.3286C12.9936 73.6849 13.3165 74.0735 13.9622 74.4784C14.0752 74.5593 14.1721 74.616 14.2286 74.6565C14.277 74.6808 14.3496 74.7375 14.4465 74.7941C15.1406 75.2395 15.5926 75.6038 15.7783 75.9115C16.0204 76.3082 16.1495 76.8103 16.1495 77.3932C16.1495 79.1017 15.2375 80.0571 13.5909 80.0571C11.8717 80.0571 11 79.1745 11 77.4256C11 77.3123 11 77.2232 11.0242 76.9641H12.8483L12.8564 76.956Z" fill="white"/>
<path d="M17.0536 72.8024V71.2559H18.8212V72.8024H17.0536ZM17.0536 79.8466V73.442H18.8212V79.8466H17.0536Z" fill="white"/>
<path d="M19.5557 77.8135H21.1538C21.1942 78.4856 21.404 78.7771 21.8399 78.7771C22.195 78.7771 22.4452 78.5422 22.4452 78.2103C22.4452 78.0645 22.4049 77.9431 22.3322 77.854C22.2515 77.7569 22.0739 77.6516 21.7995 77.522C21.7349 77.4978 21.6542 77.4492 21.5251 77.3925C20.8794 77.0929 20.4354 76.8095 20.1772 76.5504C19.822 76.1942 19.6202 75.7003 19.6202 75.1902C19.6202 74.6072 19.822 74.1457 20.2175 73.7975C20.613 73.4493 21.1457 73.2793 21.8157 73.2793C23.212 73.2793 23.9949 73.9675 23.9949 75.2144V75.3278H22.4372C22.421 74.6801 22.2515 74.429 21.856 74.429C21.5009 74.429 21.2668 74.6477 21.2668 74.9634C21.2668 75.2468 21.5332 75.4978 22.0659 75.7407C22.1385 75.7731 22.195 75.8055 22.2354 75.8217C22.9618 76.1456 23.4461 76.4695 23.6963 76.7771C23.9465 77.0848 24.0676 77.4897 24.0676 77.9917C24.0676 79.2791 23.2443 80.024 21.7753 80.024C21.0731 80.024 20.5323 79.8458 20.1449 79.4896C19.7494 79.1333 19.5637 78.6313 19.5637 77.9836V77.8216L19.5557 77.8135Z" fill="white"/>
<path d="M27.6836 79.8215C27.2477 79.9025 26.9249 79.943 26.6989 79.943C25.9886 79.943 25.4882 79.7081 25.246 79.279C25.1653 79.1333 25.1169 78.947 25.0846 78.7203C25.0523 78.5017 25.0362 78.1616 25.0362 77.7001V74.761H24.3501V73.4412H25.0362V71.668H26.828V73.4412H27.6755V74.761H26.828V77.3763C26.828 77.9349 26.8684 78.275 26.9491 78.4046C27.0298 78.5341 27.1832 78.5989 27.4172 78.5989C27.4576 78.5989 27.5222 78.5989 27.619 78.5827C27.6432 78.5827 27.6594 78.5827 27.6836 78.5827V79.8296V79.8215Z" fill="white"/>
<path d="M32.9703 77.5952V77.7571C32.9703 79.2551 32.1874 80.0162 30.6458 80.0162C29.8709 80.0162 29.201 79.7814 28.8459 79.3927C28.6441 79.166 28.5069 78.8664 28.4181 78.494C28.3293 78.1215 28.2889 77.5223 28.2889 76.7045C28.2889 75.8058 28.3293 75.1742 28.4181 74.8099C28.4988 74.4536 28.6522 74.154 28.862 73.9273C29.2656 73.4901 29.8951 73.2715 30.7184 73.2715C31.5417 73.2715 32.1713 73.5144 32.5506 73.984C32.7121 74.1864 32.8251 74.4212 32.8977 74.6965C32.9703 74.9718 33.0026 75.4414 33.0026 76.1135V76.8827H30.0969C30.0969 76.8827 30.0969 76.9232 30.0969 76.9556C30.0808 77.2228 30.0727 77.4171 30.0727 77.5223C30.0727 77.9677 30.1211 78.2834 30.218 78.4616C30.3149 78.6397 30.4763 78.7288 30.7104 78.7288C31.1139 78.7288 31.3238 78.4616 31.3238 77.9191C31.3238 77.8624 31.3238 77.7814 31.3076 77.6681C31.3076 77.6438 31.3076 77.6276 31.3076 77.6114H32.9784L32.9703 77.5952ZM31.348 75.7734V75.741C31.3641 75.5791 31.3722 75.4657 31.3722 75.401C31.3722 74.7775 31.1704 74.486 30.7507 74.486C30.331 74.486 30.1454 74.7532 30.1454 75.4253C30.1454 75.6115 30.1454 75.6924 30.1534 75.7815H31.348V75.7734Z" fill="white"/>
<path d="M33.9954 79.8464V73.4418H35.5774V74.2029C35.9567 73.5875 36.4087 73.3203 37.0544 73.3203C37.6356 73.3203 38.0714 73.628 38.2974 74.2029C38.6768 73.5956 39.153 73.3203 39.7745 73.3203C40.7269 73.3203 41.1466 73.9438 41.1466 75.385V79.8545H39.4436V75.798C39.4436 75.3364 39.4113 75.053 39.3467 74.9316C39.2821 74.8182 39.1691 74.7535 39.0077 74.7535C38.6283 74.7535 38.3943 75.1664 38.3943 75.8546V79.8545H36.7235V75.798C36.7235 75.3364 36.6912 75.053 36.6266 74.9316C36.5621 74.8182 36.4491 74.7535 36.2876 74.7535C35.9164 74.7535 35.6823 75.1664 35.6823 75.8546V79.8545H34.0034L33.9954 79.8464Z" fill="white"/>
<path d="M45.255 79.8457L45.1501 79.2627C44.7062 79.7324 44.1654 79.9753 43.5439 79.9753C43.0434 79.9753 42.648 79.8133 42.3574 79.4895C42.0668 79.1656 41.9135 78.7284 41.9135 78.1697C41.9135 77.692 42.0426 77.2871 42.2847 76.9713C42.5269 76.6556 42.9385 76.3884 43.5035 76.1617C43.6407 76.1131 43.8264 76.0402 44.0524 75.9592C44.7223 75.7163 45.0532 75.441 45.0532 75.1334C45.0532 74.7609 44.8514 74.5585 44.4963 74.5585C44.0604 74.5585 43.8587 74.8095 43.8587 75.3601V75.4005H42.0749C42.0749 73.9593 42.8659 73.2549 44.5044 73.2549C45.2389 73.2549 45.82 73.3925 46.2155 73.6516C46.4657 73.8217 46.6433 74.0241 46.7482 74.267C46.8451 74.5018 46.8935 74.939 46.8935 75.5787V78.0482C46.8935 78.5502 46.9096 78.9308 46.95 79.198C46.9823 79.4652 47.0388 79.6757 47.1195 79.8457H45.255ZM45.029 76.7608C44.1089 77.0199 43.7053 77.3843 43.7053 77.9592C43.7053 78.364 43.9313 78.6312 44.2864 78.6312C44.8111 78.6312 45.029 78.3073 45.029 77.4733V76.7608Z" fill="white"/>
<path d="M47.5957 77.8135H49.1938C49.2342 78.4856 49.4441 78.7771 49.8799 78.7771C50.235 78.7771 50.4853 78.5422 50.4853 78.2103C50.4853 78.0645 50.4449 77.9431 50.3723 77.854C50.2915 77.7569 50.114 77.6516 49.8395 77.522C49.775 77.4978 49.6943 77.4492 49.5651 77.3925C48.9194 77.0929 48.4755 76.8095 48.2172 76.5504C47.8621 76.1942 47.6603 75.7003 47.6603 75.1902C47.6603 74.6072 47.8621 74.1457 48.2576 73.7975C48.6531 73.4493 49.1858 73.2793 49.8557 73.2793C51.252 73.2793 52.035 73.9675 52.035 75.2144V75.3278H50.4772C50.461 74.6801 50.2915 74.429 49.896 74.429C49.5409 74.429 49.3068 74.6477 49.3068 74.9634C49.3068 75.2468 49.5732 75.4978 50.1059 75.7407C50.1785 75.7731 50.235 75.8055 50.2754 75.8217C51.0018 76.1456 51.4861 76.4695 51.7363 76.7771C51.9865 77.0848 52.1076 77.4897 52.1076 77.9917C52.1076 79.2791 51.2843 80.024 49.8153 80.024C49.1131 80.024 48.5723 79.8458 48.1849 79.4896C47.7894 79.1333 47.6038 78.6313 47.6038 77.9836V77.8216L47.5957 77.8135Z" fill="white"/>
<path d="M55.2716 73.4414H57.0392L57.6607 77.5627L58.2903 73.4414H60.0579L58.7907 79.3278C58.5486 80.4533 58.2742 81.1901 57.9755 81.514C57.6769 81.8378 57.1926 81.9998 56.5388 81.9998C56.3451 81.9998 56.111 81.9755 55.8043 81.935V80.599C55.8043 80.599 55.8205 80.599 55.8366 80.599C55.9657 80.6071 56.0545 80.6152 56.103 80.6152C56.5065 80.6152 56.7002 80.4695 56.7002 80.1537C56.7002 80.0565 56.6599 79.8298 56.5872 79.4979C56.563 79.3845 56.5469 79.2873 56.5307 79.2307L55.2716 73.4495V73.4414Z" fill="white"/>
<path d="M67.1688 76.5426H69.1221C69.1221 76.6479 69.1301 76.737 69.1301 76.9718C69.1301 79.0527 68.2342 80.0405 66.3617 80.0405C65.2559 80.0405 64.4729 79.6761 63.9887 78.9312C63.8192 78.664 63.6981 78.2916 63.6255 77.822C63.5528 77.3523 63.5125 76.5993 63.5125 75.571C63.5125 74.5427 63.5528 73.7978 63.6255 73.3201C63.6981 72.8424 63.8192 72.478 63.9887 72.2108C64.4649 71.474 65.2478 71.1016 66.3294 71.1016C68.1858 71.1016 69.1221 72.1461 69.1221 74.2027V74.2836H67.193C67.193 73.7007 67.1204 73.2958 66.9912 73.0529C66.8621 72.8181 66.6522 72.7047 66.3617 72.7047C66.0388 72.7047 65.8209 72.8505 65.7079 73.1339C65.5949 73.4254 65.5303 74.1784 65.5303 75.401V75.5629C65.5303 76.8827 65.5949 77.6843 65.7079 77.9839C65.8209 78.2835 66.0469 78.4292 66.3617 78.4292C66.6603 78.4292 66.8701 78.3159 66.9912 78.1053C67.1042 77.8867 67.1688 77.49 67.1688 76.907V76.5346V76.5426Z" fill="white"/>
<path d="M70.6072 74.0245C70.9623 73.5225 71.5757 73.2715 72.4475 73.2715C73.3192 73.2715 73.9245 73.5225 74.2877 74.0164C74.6509 74.5103 74.8204 75.3929 74.8204 76.6479C74.8204 77.9029 74.6429 78.7692 74.2877 79.2632C73.9326 79.7652 73.3192 80.0162 72.4475 80.0162C71.5757 80.0162 70.9623 79.7652 70.6072 79.2713C70.252 78.7773 70.0745 77.9029 70.0745 76.6479C70.0745 75.3929 70.252 74.5265 70.6072 74.0245ZM72.0035 78.332C72.0842 78.5587 72.2295 78.6721 72.4475 78.6721C72.6654 78.6721 72.8107 78.5587 72.8914 78.3482C72.9721 78.1296 73.0044 77.5628 73.0044 76.6398C73.0044 75.7167 72.964 75.15 72.8914 74.9313C72.8107 74.7127 72.6573 74.6075 72.4475 74.6075C72.2376 74.6075 72.0842 74.7208 72.0035 74.9475C71.9228 75.1742 71.8825 75.741 71.8825 76.6398C71.8825 77.5385 71.9228 78.0972 72.0035 78.3239V78.332Z" fill="white"/>
<path d="M75.7729 79.8464V73.4418H77.3549V74.2029C77.7343 73.5875 78.1863 73.3203 78.832 73.3203C79.4131 73.3203 79.849 73.628 80.075 74.2029C80.4544 73.5956 80.9306 73.3203 81.5521 73.3203C82.5045 73.3203 82.9242 73.9438 82.9242 75.385V79.8545H81.2211V75.798C81.2211 75.3364 81.1889 75.053 81.1243 74.9316C81.0597 74.8182 80.9467 74.7535 80.7853 74.7535C80.4059 74.7535 80.1719 75.1664 80.1719 75.8546V79.8545H78.5011V75.798C78.5011 75.3364 78.4688 75.053 78.4042 74.9316C78.3396 74.8182 78.2266 74.7535 78.0652 74.7535C77.6939 74.7535 77.4599 75.1664 77.4599 75.8546V79.8545H75.781L75.7729 79.8464Z" fill="white"/>
<path d="M83.9977 82V73.4416H85.6362V74.1704C85.9671 73.5955 86.4675 73.2959 87.0729 73.2959C87.5733 73.2959 88.0011 73.4821 88.2674 73.806C88.4289 74.0084 88.5338 74.2675 88.6064 74.5995C88.671 74.9396 88.7033 75.563 88.7033 76.478C88.7033 77.9354 88.5822 78.8908 88.3482 79.3442C88.106 79.7977 87.6702 80.0244 87.0487 80.0244C86.516 80.0244 86.1124 79.7815 85.7815 79.2795V82H84.0138H83.9977ZM86.7904 78.1054C86.8711 77.8382 86.9195 77.2229 86.9195 76.2593C86.9195 75.6764 86.8792 75.2877 86.7904 75.0691C86.7016 74.8505 86.5563 74.7452 86.3545 74.7452C86.1205 74.7452 85.959 74.8667 85.8702 75.1177C85.7734 75.3687 85.733 76.0164 85.733 77.069C85.733 77.6115 85.7734 77.984 85.8622 78.1864C85.9429 78.3888 86.0962 78.4941 86.3061 78.4941C86.5402 78.4941 86.7016 78.3645 86.7823 78.0973L86.7904 78.1054Z" fill="white"/>
<path d="M94.2564 73.4417V79.8463H92.5856V79.0852C92.1901 79.7006 91.7139 79.9678 91.044 79.9678C90.0593 79.9678 89.6073 79.3281 89.6073 77.9031V73.4336H91.3911V77.393C91.3911 77.9112 91.4234 78.2269 91.4879 78.3484C91.5525 78.4779 91.6736 78.5346 91.8431 78.5346C92.2386 78.5346 92.4807 78.1298 92.4807 77.4415V73.4417H94.2484H94.2564Z" fill="white"/>
<path d="M98.2679 79.8215C97.8321 79.9025 97.5092 79.943 97.2832 79.943C96.5729 79.943 96.0725 79.7081 95.8304 79.279C95.7497 79.1333 95.7012 78.947 95.6689 78.7203C95.6367 78.5017 95.6205 78.1616 95.6205 77.7001V74.761H94.9344V73.4412H95.6205V71.668H97.4124V73.4412H98.2599V74.761H97.4124V77.3763C97.4124 77.9349 97.4527 78.275 97.5334 78.4046C97.6142 78.5341 97.7675 78.5989 98.0016 78.5989C98.0419 78.5989 98.1065 78.5989 98.2034 78.5827C98.2276 78.5827 98.2437 78.5827 98.2679 78.5827V79.8296V79.8215Z" fill="white"/>
<path d="M102.126 79.8457L102.021 79.2627C101.577 79.7324 101.036 79.9753 100.415 79.9753C99.9144 79.9753 99.5189 79.8133 99.2284 79.4895C98.9378 79.1656 98.7844 78.7284 98.7844 78.1697C98.7844 77.692 98.9136 77.2871 99.1557 76.9713C99.3978 76.6556 99.8095 76.3884 100.374 76.1617C100.512 76.1131 100.697 76.0402 100.923 75.9592C101.593 75.7163 101.924 75.441 101.924 75.1334C101.924 74.7609 101.722 74.5585 101.367 74.5585C100.931 74.5585 100.73 74.8095 100.73 75.3601V75.4005H98.9459C98.9459 73.9593 99.7368 73.2549 101.375 73.2549C102.11 73.2549 102.691 73.3925 103.086 73.6516C103.337 73.8217 103.514 74.0241 103.619 74.267C103.716 74.5018 103.764 74.939 103.764 75.5787V78.0482C103.764 78.5502 103.781 78.9308 103.821 79.198C103.853 79.4652 103.91 79.6757 103.99 79.8457H102.126ZM101.9 76.7608C100.98 77.0199 100.576 77.3843 100.576 77.9592C100.576 78.364 100.802 78.6312 101.157 78.6312C101.682 78.6312 101.9 78.3073 101.9 77.4733V76.7608Z" fill="white"/>
<path d="M109.431 71.3203V79.8463H107.792V79.1419C107.453 79.7167 106.953 80.0244 106.355 80.0244C105.855 80.0244 105.443 79.8382 105.161 79.5062C104.999 79.3038 104.894 79.0447 104.83 78.7046C104.765 78.3727 104.733 77.7492 104.733 76.8262C104.733 75.3849 104.854 74.4295 105.096 73.968C105.338 73.5146 105.774 73.2878 106.404 73.2878C106.937 73.2878 107.332 73.5227 107.655 74.0247V71.3203H109.431ZM106.654 75.1582C106.573 75.393 106.525 75.9031 106.525 76.7047C106.525 77.5063 106.565 78.0488 106.638 78.2512C106.711 78.4536 106.856 78.5589 107.066 78.5589C107.3 78.5589 107.461 78.4374 107.558 78.1864C107.647 77.9354 107.687 77.2877 107.687 76.2351C107.687 75.6926 107.647 75.3202 107.558 75.1096C107.469 74.9072 107.324 74.802 107.106 74.802C106.88 74.802 106.735 74.9153 106.646 75.1501L106.654 75.1582Z" fill="white"/>
<path d="M110.924 74.0245C111.279 73.5225 111.892 73.2715 112.764 73.2715C113.636 73.2715 114.241 73.5225 114.604 74.0164C114.968 74.5103 115.137 75.3929 115.137 76.6479C115.137 77.9029 114.96 78.7692 114.604 79.2632C114.249 79.7652 113.636 80.0162 112.764 80.0162C111.892 80.0162 111.279 79.7652 110.924 79.2713C110.569 78.7773 110.391 77.9029 110.391 76.6479C110.391 75.3929 110.569 74.5265 110.924 74.0245ZM112.32 78.332C112.401 78.5587 112.546 78.6721 112.764 78.6721C112.982 78.6721 113.127 78.5587 113.208 78.3482C113.289 78.1296 113.321 77.5628 113.321 76.6398C113.321 75.7167 113.281 75.15 113.208 74.9313C113.127 74.7127 112.974 74.6075 112.764 74.6075C112.554 74.6075 112.401 74.7208 112.32 74.9475C112.239 75.1742 112.199 75.741 112.199 76.6398C112.199 77.5385 112.239 78.0972 112.32 78.3239V78.332Z" fill="white"/>
<path d="M116.041 79.8464V73.4418H117.68V74.3405C118.075 73.7009 118.527 73.377 119.116 73.3203V75.3526C118.915 75.3121 118.737 75.2878 118.584 75.2878C118.293 75.2878 118.099 75.385 117.986 75.5955C117.873 75.798 117.817 76.1947 117.817 76.7858V79.8545H116.041V79.8464Z" fill="white"/>
<path d="M124.427 77.5952V77.7571C124.427 79.2551 123.644 80.0162 122.103 80.0162C121.328 80.0162 120.658 79.7814 120.303 79.3927C120.101 79.166 119.964 78.8664 119.875 78.494C119.786 78.1215 119.746 77.5223 119.746 76.7045C119.746 75.8058 119.786 75.1742 119.875 74.8099C119.956 74.4536 120.109 74.154 120.319 73.9273C120.722 73.4901 121.352 73.2715 122.175 73.2715C122.999 73.2715 123.628 73.5144 124.008 73.984C124.169 74.1864 124.282 74.4212 124.355 74.6965C124.427 74.9718 124.46 75.4414 124.46 76.1135V76.8827H121.554C121.554 76.8827 121.554 76.9232 121.554 76.9556C121.538 77.2228 121.53 77.4171 121.53 77.5223C121.53 77.9677 121.578 78.2834 121.675 78.4616C121.772 78.6397 121.933 78.7288 122.167 78.7288C122.571 78.7288 122.781 78.4616 122.781 77.9191C122.781 77.8624 122.781 77.7814 122.765 77.6681C122.765 77.6438 122.765 77.6276 122.765 77.6114H124.435L124.427 77.5952ZM122.797 75.7734V75.741C122.813 75.5791 122.821 75.4657 122.821 75.401C122.821 74.7775 122.619 74.486 122.2 74.486C121.78 74.486 121.594 74.7532 121.594 75.4253C121.594 75.6115 121.594 75.6924 121.602 75.7815H122.797V75.7734Z" fill="white"/>
<path d="M125.057 77.8135H126.655C126.695 78.4856 126.905 78.7771 127.341 78.7771C127.696 78.7771 127.946 78.5422 127.946 78.2103C127.946 78.0645 127.906 77.9431 127.833 77.854C127.753 77.7569 127.575 77.6516 127.301 77.522C127.236 77.4978 127.155 77.4492 127.026 77.3925C126.381 77.0929 125.937 76.8095 125.678 76.5504C125.323 76.1942 125.121 75.7003 125.121 75.1902C125.121 74.6072 125.323 74.1457 125.719 73.7975C126.114 73.4493 126.647 73.2793 127.317 73.2793C128.713 73.2793 129.496 73.9675 129.496 75.2144V75.3278H127.938C127.922 74.6801 127.753 74.429 127.357 74.429C127.002 74.429 126.768 74.6477 126.768 74.9634C126.768 75.2468 127.034 75.4978 127.567 75.7407C127.64 75.7731 127.696 75.8055 127.737 75.8217C128.463 76.1456 128.947 76.4695 129.198 76.7771C129.448 77.0848 129.569 77.4897 129.569 77.9917C129.569 79.2791 128.746 80.024 127.277 80.024C126.574 80.024 126.034 79.8458 125.646 79.4896C125.251 79.1333 125.065 78.6313 125.065 77.9836V77.8216L125.057 77.8135Z" fill="white"/>
<path d="M137.842 76.956V77.207C137.842 78.1462 138.044 78.4863 138.568 78.4863C138.988 78.4863 139.246 78.1786 139.246 77.6766C139.246 77.2637 138.948 76.8669 138.358 76.4864C138.262 76.4216 138.189 76.373 138.141 76.3406L138.044 76.2759C137.245 75.7415 136.744 75.3285 136.55 75.0613C136.268 74.6484 136.123 74.1302 136.123 73.5148C136.123 72.7699 136.341 72.1869 136.768 71.7578C137.196 71.3287 137.785 71.1182 138.544 71.1182C140.183 71.1182 141.07 71.9764 141.07 73.5553C141.07 73.6201 141.062 73.7658 141.062 73.8306H139.279V73.7253C139.279 72.9804 139.045 72.5918 138.601 72.5918C138.229 72.5918 137.979 72.8833 137.979 73.3286C137.979 73.6849 138.302 74.0735 138.948 74.4784C139.061 74.5593 139.158 74.616 139.214 74.6565C139.262 74.6808 139.335 74.7375 139.432 74.7941C140.126 75.2395 140.578 75.6038 140.764 75.9115C141.006 76.3082 141.135 76.8103 141.135 77.3932C141.135 79.1017 140.223 80.0571 138.576 80.0571C136.857 80.0571 135.985 79.1745 135.985 77.4256C135.985 77.3123 135.985 77.2232 136.01 76.9641H137.834L137.842 76.956Z" fill="white"/>
<path d="M141.966 79.8459V77.8945H143.928V79.8459H141.966Z" fill="white"/>
<path d="M144.452 79.8463L146.309 71.3203H148.674L150.506 79.8463H148.52L148.27 78.2107H146.712L146.462 79.8463H144.46H144.452ZM146.914 76.6723H148.06L147.495 72.9559L146.922 76.6723H146.914Z" fill="white"/>
<path d="M151.039 79.8459V77.8945H153V79.8459H151.039Z" fill="white"/>
</g>
<defs>
<clipPath id="clip0_782_3249">
<rect width="164" height="80" fill="white"/>
</clipPath>
</defs>
</svg>
