<svg width="164" height="80" viewBox="0 0 164 80" fill="none" xmlns="http://www.w3.org/2000/svg">
<path d="M86.2256 35.048C85.2066 33.883 81.0626 31.3603 79.5086 31.2849C77.2922 31.1843 74.6512 31.8967 72.8425 32.7432C71.9593 33.1706 70.5242 33.6735 70.0742 34.5283C69.8534 34.939 69.9808 35.5676 69.7685 35.8861C69.5816 36.171 68.8174 36.1962 68.5371 36.7242C67.2634 39.1379 67.654 45.1136 68.9278 47.5105C69.1825 48.005 69.8873 48.0805 70.1251 48.3738C71.2715 49.8237 73.1652 52.095 75.0843 52.6565C76.409 53.042 77.1393 52.0698 77.6573 52.1033C78.6254 52.1536 79.2028 53.855 81.9457 52.4386C82.5486 52.1285 82.642 51.5334 82.9308 51.3658C84.7735 50.2511 86.1916 49.9746 86.8879 47.6111C87.2191 46.4797 87.7966 44.8538 88.0343 43.8983C88.7391 41.1158 88.1702 37.2606 86.2256 35.048ZM74.8126 38.216L72.9104 37.4701V38.5931L71.5772 37.8472C70.796 38.392 70.9998 39.2469 71.0083 40.0766C71.1781 40.261 73.352 38.5512 74.9654 39.6659C75.407 39.9676 74.906 41.1913 75.7552 40.8141C77.5045 40.0347 73.8785 35.0647 77.0969 36.9086C78.1414 37.512 77.6573 40.9231 76.7148 41.3756C74.923 42.2473 73.2586 40.7135 72.7321 40.8141C72.1801 40.9231 71.9508 42.4736 72.1547 42.6747C72.3415 42.8675 77.2412 41.9707 77.4875 42.9261C77.1478 47.0328 78.2263 48.7006 73.2926 46.3959V48.6252C79.3812 46.53 76.6468 53.4611 75.1947 51.9692L75.9505 49.3711C74.0398 48.5582 74.5239 51.0809 73.4879 50.8546C73.2671 50.8127 71.3989 48.9605 71.4498 48.5079C71.5263 47.7955 72.6557 46.5048 72.1547 45.2812C73.5218 44.9292 74.3031 46.0103 75.5684 46.0187C74.6852 44.2168 75.8231 45.0884 75.9505 43.7978C74.8296 43.4625 74.0738 44.5688 73.0972 44.5772C71.764 44.5856 71.3479 42.8004 69.8619 43.605C69.1146 44.5939 70.9318 44.0324 71.0422 45.8343C71.0847 46.4545 70.9488 47.6865 70.0657 47.5105C69.7515 47.4519 68.6815 43.1273 68.7409 42.8926C69.0891 41.5349 70.3374 43.0351 70.4393 43.0435C71.3819 43.0937 71.4498 39.8168 68.7325 41.1913C67.9172 39.6156 69.8619 38.9284 69.8619 38.7775C69.8704 38.5177 68.1465 37.8891 70.1166 36.7828C71.7555 35.8609 72.7746 37.8221 73.2841 36.5398C73.87 35.0815 71.7895 35.7184 71.0083 35.6095C70.3374 35.0312 73.3095 33.2041 74.1927 33.3466C74.3965 33.3801 75.4155 35.8693 76.7148 33.7573C73.6577 33.6316 76.0099 31.4441 77.4196 32.3158C77.9376 32.6426 77.9291 35.2491 77.4196 35.5676C75.9675 36.4644 74.3031 33.9417 73.6747 34.5032C73.4624 34.6876 74.9824 37.5036 74.8126 38.216ZM86.0048 41.9204C85.5123 42.6412 86.2341 43.9821 84.3234 44.7197C87.2021 45.7505 86.0388 47.2256 85.0707 49.3711C84.0007 49.6896 84.5612 48.181 83.3638 48.6336C82.4297 48.9856 83.2449 50.0584 83.177 50.1087C83.0751 50.1925 82.3873 49.9662 82.1325 50.1841C81.8268 50.4355 82.0476 51.349 81.4617 51.6005L81.2748 49.7399H79.3727C80.6634 50.754 80.9522 52.4553 78.8377 51.9944C78.1838 51.8519 78.1753 49.2454 78.2348 48.6252C79.6614 48.3151 80.4257 48.9856 81.6485 49.3711L82.0391 46.9574C80.621 46.3204 80.1539 48.6085 78.6339 47.4854C78.8971 46.4797 78.6169 45.3399 78.7103 44.4515C78.7443 44.1246 79.3472 43.7726 79.3132 43.2949C79.2453 42.5155 78.1159 41.5181 79.1944 40.085C80.4851 38.3669 81.4107 41.6774 79.7548 42.1215C80.8927 43.7642 82.5062 42.2808 82.9308 42.3395C83.4657 42.4149 83.8309 43.6637 84.6886 43.4206C85.5887 39.8 84.765 41.7947 82.5996 41.5935C80.5615 41.4175 80.621 38.6686 82.7949 39.3307C82.8883 37.0846 79.2538 39.1882 78.6169 38.5848V35.6179C79.2453 35.6346 79.8822 35.576 80.5106 35.6095C80.3832 34.1596 78.048 34.2685 78.6169 32.2655C79.2283 32.2822 80.3577 32.0895 80.7314 32.6091C81.4022 33.5813 79.9077 34.9474 82.4128 34.4948L82.5996 33.3885C83.7884 33.5142 83.8139 35.0312 83.9922 35.1904C84.4678 35.6095 85.8944 34.5116 85.4528 36.3554C83.9328 35.9699 82.0731 35.6933 80.5106 35.6095C80.5785 36.3554 80.0435 37.0846 80.1369 37.8472C80.2728 38.0148 81.3937 36.984 81.6655 36.9086C82.0986 36.7996 82.3109 37.3276 82.5911 37.3276C82.9053 37.3276 83.9073 36.3554 84.3149 36.7326C84.5951 37.0007 82.8288 39.6324 83.177 40.4453C83.6186 40.2191 85.3679 40.152 85.4528 40.0766C86.1831 39.4229 84.8244 39.3139 84.7905 39.2636C84.0432 37.9478 86.0897 36.5649 86.5907 37.1013C86.9304 37.4701 86.0472 39.7581 86.2171 40.4453L87.355 39.7078C88.4419 41.8953 86.4633 41.2332 86.0048 41.9204Z" fill="white"/>
<path d="M115.106 28.9209V35.9861C108.262 30.4379 102.904 37.721 104.95 44.6185C106.266 49.0437 111.777 51.4156 114.911 47.51C115.378 47.5435 114.936 48.8258 115.106 49.0018C115.234 49.1359 118.265 48.9012 118.911 49.0018V28.9209H115.106ZM110.835 45.9428C107.795 44.5096 107.829 38.2238 110.809 37.5533C117.569 36.0364 115.998 48.3816 110.835 45.9428Z" fill="white"/>
<path d="M161.641 35.6427C159.892 33.648 154.695 33.6815 152.47 34.7962C151.23 35.4164 149.056 38.1905 150.449 39.1627C150.594 39.2633 153.693 39.0034 153.829 38.9113C154.041 38.7688 154.007 37.8888 154.347 37.5619C155.34 36.5813 159.493 36.9082 158.78 39.0873C158.228 40.7635 151.46 39.5566 149.923 43.0766C147.953 47.594 151.842 50.1837 156.266 49.287C157.327 49.069 158.117 48.0633 158.635 47.8873C159.62 47.5688 158.89 48.893 159.408 49.0271C160.266 49.245 161.99 48.8176 163 49.002V38.4C163 38.1905 161.905 35.936 161.641 35.6427ZM155.986 46.4206C154.279 46.5464 153.396 46.5966 153.515 44.7528C153.651 42.6576 157.073 42.5821 158.822 42.3056C159.017 44.4511 158.389 46.253 155.986 46.4206Z" fill="white"/>
<path d="M95.5071 34.109C90.2592 34.6119 89.0364 39.4477 89.6732 43.9483C90.7092 51.3068 102.479 50.7788 103.328 45.0965C103.455 44.183 100.687 44.4344 100.101 44.5434C98.7595 44.7948 98.4368 46.6638 96.3903 46.3369C94.5475 46.0352 93.6389 44.359 93.4351 42.6744H103.702C103.88 37.1764 101.536 33.5307 95.5071 34.109ZM93.8172 40.0763C93.9871 36.1121 99.3539 36.1121 99.5237 40.0763H93.8172Z" fill="white"/>
<path d="M34.3322 44.5431C33.2877 44.7358 32.8801 45.9176 31.8696 46.236C29.5938 46.9484 27.4708 44.9118 27.6746 42.6741H37.9412C38.3234 28.3342 18.4356 33.3796 24.4817 45.9846C26.8509 50.9378 35.9542 50.4768 37.5506 45.0795C37.8139 44.1911 34.8247 44.4509 34.3322 44.5431ZM29.8485 37.1762C33.0075 36.4889 35.1389 40.1766 32.447 40.4615C31.6743 40.5453 28.5408 40.5705 28.0398 40.2687C27.0972 39.7072 28.6852 37.4276 29.8485 37.1762Z" fill="white"/>
<path d="M16.2701 33.0111C16.2701 33.0111 16.7881 33.1368 17.0174 32.7429C17.2127 32.4077 17.5524 30.5471 17.408 30.413L3.53239 32.3071C2.52187 32.6591 0.63669 30.0359 1.06128 29.6671L17.5184 29.2983C18.2062 29.1307 17.926 27.1025 19.1488 29.2983L33.5679 27.0271C34.3492 26.7086 36.8542 29.2983 36.4127 29.6587L19.3102 30.0359C19.1488 30.1951 19.4715 32.3742 19.7008 32.7429C19.9471 33.1452 20.4481 32.9692 20.4481 33.0111V49.0021H16.2701C16.2701 46.8733 15.8625 33.7067 16.2701 33.0111Z" fill="white"/>
<path d="M124.609 34.5029V44.7278C124.609 45.6329 126.876 46.2028 127.827 46.0268C128.523 45.8927 129.933 44.4931 129.933 43.9902V34.5113H134.111V49.0105C133.474 48.9099 130.434 49.153 130.307 49.0105C130.077 48.7758 130.816 47.2505 129.746 47.5187C129.415 47.6025 129.593 48.0718 129.279 48.2646C126.647 49.924 123.513 49.9575 121.56 47.3427C121.288 46.9823 120.422 45.3731 120.422 45.1049V34.5029H124.6H124.609Z" fill="white"/>
<path d="M66.8218 49.0023H63.0175V39.5234C63.0175 37.4449 59.85 36.8666 58.33 37.822C58.1686 37.9226 57.3195 39.4228 57.3195 39.5234V49.0023H53.5151V34.5031C54.152 34.6037 57.1836 34.3607 57.3195 34.5031C57.4808 34.6708 57.0392 35.819 57.5063 35.995C59.0773 33.6734 63.5524 33.4471 65.4971 35.2407C65.7603 35.4837 66.8218 37.1515 66.8218 37.294V49.0107V49.0023Z" fill="white"/>
<path d="M52.3773 39.7074C51.3243 39.5733 49.7703 39.9588 48.8277 39.6487C48.0125 39.3806 48.1229 38.3245 47.7238 37.939C47.1124 37.3523 44.7941 37.2937 44.0128 37.6624C42.272 38.4754 42.2805 44.8953 44.4035 45.8339C47.6134 47.2587 48.1823 43.8393 48.4371 43.7722C49.3712 43.5208 51.2818 43.9901 52.3858 43.7974C51.9527 48.7338 45.5584 51.0386 41.5502 48.2561C37.5421 45.4736 37.61 36.464 42.4164 34.595C46.5009 33.011 52.4452 34.7291 52.3943 39.699L52.3773 39.7074Z" fill="white"/>
<path d="M148.938 39.7074C147.842 39.5146 145.914 39.984 144.989 39.7325C144.717 39.6571 144.012 36.0616 140.573 37.6624C138.153 38.7939 138.535 47.8789 143.52 45.7417C144.802 45.197 144.641 43.8644 144.989 43.7722C145.897 43.5207 147.851 43.9985 148.938 43.7973C148.233 48.6416 142.195 51.0972 138.102 48.256C134.009 45.4149 134.051 36.5058 138.968 34.595C143.214 32.9439 148.708 34.838 148.946 39.699L148.938 39.7074Z" fill="white"/>
<path d="M83.3724 47.8876C82.2939 45.4907 82.5657 45.3482 79.7549 46.0271C79.7973 43.4541 81.1221 44.6526 82.1835 44.5604C82.2685 44.552 82.8799 43.1021 83.5507 43.7893C83.6356 43.8815 83.4403 44.9375 83.6102 45.3985C84.0008 46.4545 86.888 46.5048 83.3724 47.8876Z" fill="white"/>
</svg>
