<svg width="164" height="80" viewBox="0 0 164 80" fill="none" xmlns="http://www.w3.org/2000/svg">
<path d="M68.8976 50.8981V36.8787C68.8976 36.8347 68.2786 36.2095 68.2299 36.2095H60.0171V32.6484H81.1071C81.8918 32.6484 81.5555 35.6038 81.3313 36.2095H72.8943V50.2289C72.8943 51.157 69.6385 50.8981 68.8976 50.8981Z" fill="white"/>
<path d="M87.4141 40.132C90.0997 40.9282 95.6951 39.751 98.8437 40.2492C104.147 41.0894 102.46 50.903 99.3165 50.903H82.2232V47.342H97.0988C98.3368 47.342 98.3368 43.3364 97.0988 43.3364H85.5522C82.2281 43.3364 81.5847 37.4062 82.5595 34.998C82.8081 34.3728 84.6066 32.6582 85.1087 32.6582H101.315V36.2192H86.6635C86.4442 36.2192 85.4888 39.5604 87.419 40.1369L87.4141 40.132Z" fill="white"/>
<path d="M93.7602 1.5025V0.168945H101.31V1.5025C100.701 1.61974 98.3516 1.34619 98.2005 1.5025C97.9276 1.77605 98.5807 6.73902 97.9763 6.84649C97.1185 6.99792 96.9089 7.11027 96.8601 6.18704C96.8212 5.35662 97.0356 1.6637 96.8699 1.5025C96.7139 1.34619 94.3646 1.61974 93.7554 1.5025H93.7602Z" fill="white"/>
<path d="M103.533 6.8469H102.202V0.169352C106.413 -0.939502 104.941 3.69131 107.525 5.50846C108.378 3.09047 108.631 -0.534062 111.97 0.169352V6.8469H110.644L110.42 1.94743C109.967 1.94743 108.811 6.77362 107.335 6.83713C104.951 6.93971 105.19 3.04162 103.543 1.95231V6.85178L103.533 6.8469Z" fill="white"/>
<path d="M119.071 42.8917C119.134 44.4402 119.173 45.6907 118.725 47.2197C116.298 55.4897 100.598 67.2719 93.3166 71.8147C98.2736 77.7058 96.3386 80.8175 88.696 79.7916C86.9073 79.5523 84.9771 78.3702 83.1055 78.0478C80.6149 77.6179 76.8619 80.7588 73.7814 79.8258C73.6401 78.0478 74.5954 76.5042 75.2973 74.9606C75.463 74.5893 75.0877 74.0813 75.1169 74.0373C65.5833 68.9669 53.7296 63.5057 46.0189 55.8023C42.7922 52.5734 38.7565 47.122 42.5242 42.9259C45.8385 39.2428 46.1066 42.7061 48.4656 44.8994C57.9067 53.6628 72.368 58.1128 83.1104 65.1323C89.4661 59.3145 102.168 52.0508 109.898 47.6984C112.891 46.018 115.952 44.2986 119.076 42.882L119.071 42.8917Z" fill="white"/>
<path d="M123 35.5549C122.98 37.2645 120.022 41.4606 118.452 41.0796C118.116 41.0014 114.714 36.8249 113.749 35.9896C105.039 28.4328 90.6554 22.996 80.4394 17.0805L67.0845 26.6108L44.9221 39.3308C44.1472 37.5137 44.7467 36.0043 45.4193 34.2702C48.836 25.4921 61.5085 16.5431 69.1316 11.2871C69.6872 10.9061 70.4524 10.9549 70.2282 9.9633C68.7611 8.23407 67.5524 6.37784 68.0057 3.95986C68.7075 0.232744 78.5726 3.28575 80.8829 4.17968C86.2297 3.42741 93.0875 -1.941 88.4328 7.74071C93.3702 10.1343 98.5172 12.9968 103.226 15.8397C108.836 19.22 123.082 28.3839 123 35.5646V35.5549Z" fill="white"/>
<path d="M123 35.5546C122.98 37.2642 120.022 41.4603 118.452 41.0793C118.116 41.0011 114.714 36.8246 113.749 35.9893C105.039 28.4325 90.6555 22.9957 80.4395 17.0802C79.8887 17.3147 79.5573 17.4026 79.0065 17.2853C77.5297 16.9629 71.2324 12.4494 70.0822 11.1207C70.3648 10.7348 70.4526 10.344 70.2284 9.95812C68.7613 8.2289 67.5525 6.37266 68.0058 3.95468C68.7077 0.227565 78.5728 3.28058 80.883 4.1745C83.3932 4.15007 87.6141 5.3957 88.433 7.73553C93.3704 10.1291 98.5174 12.9916 103.226 15.8346C108.836 19.2148 123.083 28.3788 123 35.5594V35.5546Z" fill="white"/>
<path d="M118.725 47.2196C116.298 55.4896 100.598 67.2717 93.3166 71.8146L92.4734 73.368C89.4368 75.2633 86.3077 76.8216 83.1054 78.0428C80.6148 77.6129 76.8618 80.7538 73.7814 79.8208C73.64 78.0428 74.5953 76.4991 75.2972 74.9555C75.4629 74.5843 75.0876 74.0763 75.1169 74.0323C74.9414 73.9151 74.7854 73.7881 74.6782 73.6269C74.3614 73.1384 81.112 65.6891 82.1355 64.8537L83.1103 65.1273C89.4661 59.3095 102.168 52.0458 109.898 47.6934C112.891 46.013 115.952 44.2936 119.076 42.877C119.139 44.4254 119.178 45.676 118.73 47.2049L118.725 47.2196Z" fill="white"/>
<path d="M83.1055 65.1421C82.2964 65.8846 75.541 73.3876 75.1121 74.0422C65.5784 68.9718 53.7247 63.5105 46.014 55.8072C42.7873 52.5783 38.7516 47.1269 42.5193 42.9308C45.8336 39.2477 46.1017 42.711 48.4607 44.9043C57.9018 53.6676 72.3631 58.1177 83.1055 65.1372V65.1421Z" fill="white"/>
<path d="M80.4394 17.081L67.0845 26.6113L44.9221 39.3314C44.1472 37.5142 44.7467 36.0048 45.4193 34.2707C48.836 25.4927 61.5085 16.5437 69.1316 11.2877C69.6872 10.9066 70.4524 10.9555 70.2282 9.96387C72.5337 12.6896 77.281 15.2541 80.4394 17.0859V17.081Z" fill="white"/>
<path d="M99.3116 50.8981H82.2183V47.3371H97.0939C98.332 47.3371 98.332 43.3315 97.0939 43.3315H85.5473C82.2232 43.3315 81.5798 37.4014 82.5547 34.9931C82.8032 34.3679 84.6018 32.6533 85.1038 32.6533H101.31V36.2144H86.6586C86.4393 36.2144 85.484 39.5556 87.4141 40.132C90.0997 40.9282 95.6951 39.751 98.8437 40.2492C104.147 41.0894 102.46 50.903 99.3165 50.903L99.3116 50.8981Z" fill="white"/>
<path d="M81.3264 36.2144H72.8895V50.2338C72.8895 51.1619 69.6336 50.903 68.8927 50.903V36.8836C68.8927 36.8396 68.2737 36.2144 68.225 36.2144H60.0122V32.6533H81.1022C81.8869 32.6533 81.5506 35.6086 81.3264 36.2144Z" fill="white"/>
<path d="M88.696 79.7923C86.9072 79.553 84.9771 78.3709 83.1055 78.0485C82.8715 76.9738 83.6514 77.1252 84.2753 76.7979C87.4141 75.1224 90.2752 73.7205 93.3215 71.8203C98.2784 77.7114 96.3434 80.823 88.7009 79.7972L88.696 79.7923Z" fill="white"/>
<path d="M111.97 0.169352V6.8469H110.644L110.42 1.94743C109.966 1.94743 108.811 6.77362 107.334 6.83713C104.951 6.93971 105.19 3.04162 103.542 1.95231V6.85178H102.207V0.169352C106.418 -0.939502 104.946 3.69131 107.529 5.50846C108.382 3.09047 108.636 -0.534062 111.974 0.169352H111.97Z" fill="white"/>
<path d="M88.4327 7.73094C86.2004 6.6514 83.081 5.01987 80.8828 4.16991C86.2296 3.41765 93.0874 -1.95077 88.4327 7.73094Z" fill="white"/>
<path d="M101.315 1.5025C100.701 1.61974 98.3516 1.34619 98.2005 1.5025C97.9276 1.77605 98.5807 6.73902 97.9763 6.84649C97.1185 6.99792 96.9089 7.11027 96.8601 6.18704C96.8212 5.35662 97.0356 1.6637 96.8699 1.5025C96.7139 1.34619 94.3646 1.61974 93.7554 1.5025V0.168945H101.305V1.5025H101.315Z" fill="white"/>
</svg>
