<svg width="123" height="32" viewBox="0 0 123 32" fill="none" xmlns="http://www.w3.org/2000/svg">
<g opacity="0.8">
<path fill-rule="evenodd" clip-rule="evenodd" d="M61.4347 22.8806V21.3461C62.7839 22.2333 64.1505 22.6768 65.5347 22.6768C67.0064 22.6768 68.1235 22.3623 68.8856 21.7331C69.6477 21.104 70.0289 20.2237 70.0289 19.0921C70.0289 18.0963 69.7726 17.302 69.2601 16.709C68.7659 16.1373 67.7159 15.3657 66.1096 14.3941L65.9289 14.2853C64.0191 13.1356 62.8101 12.1737 62.302 11.3998C61.7939 10.6258 61.5399 9.73189 61.5399 8.718C61.5399 7.34204 62.0566 6.1743 63.0905 5.21472C64.1243 4.25516 65.5041 3.77539 67.2299 3.77539C68.3512 3.77539 69.4725 3.97002 70.5939 4.35927V5.77146C69.4901 5.25545 68.3118 4.99747 67.0591 4.99747C65.78 4.99747 64.7659 5.3324 64.0169 6.0023C63.2679 6.67218 62.8934 7.52309 62.8934 8.5551C62.8934 9.55082 63.1496 10.3429 63.6621 10.9313C64.1746 11.5197 65.2806 12.3209 66.9802 13.3348C68.741 14.3667 69.9128 15.2834 70.4953 16.0844C71.078 16.8857 71.3693 17.8067 71.3693 18.8476C71.3693 20.3414 70.8676 21.5589 69.8646 22.5003C68.8615 23.4419 67.4445 23.9125 65.6135 23.9125C64.9653 23.9125 64.2184 23.8084 63.3731 23.6002C62.5277 23.3921 61.8815 23.1521 61.4347 22.8806ZM14.731 6.84719H20.1196V4.10282H6.2428V6.84719H11.6183V23.5851H14.731V6.84719ZM25.0869 25.8126L31.158 9.66919H28.083L24.719 19.8064C24.6392 20.1171 24.5766 20.37 24.5313 20.5654L24.4825 20.7847H24.4167C24.3467 20.4742 24.2909 20.2315 24.2494 20.057L24.1802 19.7792L20.9738 9.66919H17.5966L22.945 23.5568L22.0382 25.8398C21.4775 26.9993 20.6277 27.5791 19.4889 27.5791C19.0946 27.5791 18.6566 27.4976 18.1748 27.3345V29.9571C18.6041 30.0748 19.1385 30.1338 19.7779 30.1338C22.0558 30.1338 23.8254 28.6934 25.0869 25.8126ZM36.1485 21.5233H36.0959V29.9701H33.0503V9.66772H36.0959V12.1122H36.1485C37.1898 10.2651 38.7127 9.34176 40.7169 9.34176C42.4235 9.34176 43.7537 9.96192 44.7078 11.2022C45.6617 12.4426 46.1387 14.1084 46.1387 16.1997C46.1387 18.5174 45.6005 20.3733 44.5239 21.7677C43.4475 23.1619 41.9772 23.859 40.113 23.859C38.3976 23.859 37.0762 23.0804 36.1485 21.5233ZM36.0464 17.8369V16.1214C36.0464 14.9328 36.3765 13.9424 37.0367 13.1498C37.6968 12.3574 38.569 11.9612 39.6533 11.9612C40.6764 11.9612 41.4874 12.3461 42.0863 13.1161C42.6854 13.886 42.9848 14.9509 42.9848 16.3105C42.9848 17.9315 42.6635 19.1944 42.0209 20.0993C41.3781 21.0043 40.4928 21.4568 39.3647 21.4568C38.403 21.4568 37.6095 21.1056 36.9842 20.4033C36.359 19.7009 36.0464 18.8453 36.0464 17.8369ZM59.8578 17.4834H50.7738C50.8087 18.7702 51.1883 19.7623 51.9127 20.4601C52.6371 21.1578 53.6326 21.5067 54.8994 21.5067C56.3224 21.5067 57.628 21.0627 58.8167 20.1747V22.7164C57.602 23.5139 55.9969 23.9125 54.0015 23.9125C52.0406 23.9125 50.5028 23.2804 49.3879 22.0164C48.273 20.7523 47.7156 18.974 47.7156 16.6815C47.7156 14.5159 48.3295 12.7512 49.5571 11.3874C50.7847 10.0236 52.3096 9.34176 54.1316 9.34176C55.9535 9.34176 57.3634 9.9534 58.3611 11.1767C59.3589 12.4 59.8578 14.099 59.8578 16.2737V17.4834ZM56.2539 12.582C56.7555 13.2141 57.0107 14.0987 57.0194 15.2356H50.8694C51.0079 14.1622 51.3776 13.2937 51.9788 12.6297C52.5799 11.9658 53.313 11.6338 54.1779 11.6338C55.0602 11.6338 55.7522 11.9499 56.2539 12.582ZM79.0815 23.9125C80.4712 23.9125 81.6674 23.5959 82.6702 22.9628V21.6605C81.6674 22.4021 80.4889 22.7729 79.1343 22.7729C77.6564 22.7729 76.4668 22.2258 75.5653 21.1313C74.6636 20.0369 74.2127 18.5898 74.2127 16.7899C74.2127 14.9268 74.7054 13.4096 75.6906 12.2382C76.6757 11.067 77.96 10.4814 79.5432 10.4814C80.6956 10.4814 81.7554 10.7888 82.723 11.4039V9.99302C81.7554 9.55885 80.7571 9.34176 79.728 9.34176C77.74 9.34176 76.1128 10.0449 74.8462 11.4514C73.5795 12.8579 72.9462 14.6645 72.9462 16.8714C72.9462 18.9698 73.5091 20.6678 74.635 21.9656C75.761 23.2636 77.2431 23.9125 79.0815 23.9125ZM90.6076 10.9244C90.207 10.6241 89.737 10.4742 89.1972 10.4742C88.1437 10.4742 87.2601 11.0426 86.5461 12.1795C85.8322 13.3165 85.4752 14.9309 85.4752 17.0229V23.5851H84.2999V9.61467H85.4752V12.7115H85.5276C85.8322 11.6474 86.3154 10.8198 86.9771 10.2286C87.6387 9.63743 88.4049 9.34176 89.2756 9.34176C89.7718 9.34176 90.2159 9.42362 90.6076 9.58733V10.9244ZM92.4907 5.92309C92.6948 6.12846 92.9299 6.23114 93.1962 6.23114C93.4801 6.23114 93.7242 6.12379 93.9282 5.90909C94.1324 5.6944 94.2345 5.43769 94.2345 5.13897C94.2345 4.82159 94.1302 4.56956 93.9216 4.38286C93.7132 4.19618 93.4713 4.10282 93.1962 4.10282C92.9389 4.10282 92.7058 4.1985 92.4974 4.38987C92.2887 4.58124 92.1845 4.83094 92.1845 5.13897C92.1845 5.45637 92.2865 5.71773 92.4907 5.92309ZM92.4999 23.5851V9.66919H93.7614V23.5851H92.4999ZM97.8021 21.1081H97.8543C98.8126 22.9808 100.294 23.9173 102.297 23.9173C104.092 23.9173 105.536 23.2002 106.629 21.7662C107.722 20.3322 108.269 18.4526 108.269 16.1273C108.269 14.0375 107.792 12.3839 106.838 11.167C105.884 9.95013 104.558 9.34176 102.859 9.34176C101.788 9.34176 100.805 9.61991 99.9125 10.1764C99.0195 10.7329 98.3335 11.5221 97.8543 12.5445H97.8021V9.68098H96.5998V29.9701H97.8021V21.1081ZM97.8614 15.9359V17.6843C97.8614 19.0757 98.2881 20.2705 99.1415 21.269C99.9949 22.2674 101.117 22.7665 102.507 22.7665C103.888 22.7665 105.01 22.159 105.872 20.9437C106.734 19.7284 107.165 18.1315 107.165 16.1529C107.165 14.4181 106.769 13.0403 105.977 12.0192C105.186 10.9982 104.13 10.4878 102.81 10.4878C101.235 10.4878 100.017 11.0298 99.1546 12.1141C98.2925 13.1983 97.8614 14.4723 97.8614 15.9359ZM114.084 23.9125C114.629 23.9125 115.214 23.759 115.838 23.4518V22.2863C115.266 22.6207 114.734 22.7878 114.24 22.7878C113.546 22.7878 113.055 22.5732 112.764 22.1441C112.474 21.715 112.329 21.0216 112.329 20.0639V10.9031H115.838V9.7648H112.329V5.73999C112.138 5.81227 111.939 5.88002 111.731 5.94326C111.523 6.01554 111.324 6.08781 111.133 6.16009V9.7648H108.742V10.9031H111.133V20.2265C111.133 22.6838 112.117 23.9125 114.084 23.9125Z" fill="white"/>
</g>
</svg>
