<svg width="170" height="80" viewBox="0 0 170 80" fill="none" xmlns="http://www.w3.org/2000/svg">
<path d="M0 51.7498C0.517748 51.4534 0.465125 51.9922 0.580557 52.1808C2.16775 54.8257 4.23026 56.9723 7.10928 58.2333C10.871 59.8799 14.5988 59.4522 18.2875 57.9572C22.6587 56.186 26.3848 53.4519 29.7883 50.2648C33.2343 47.039 36.2101 43.426 38.6834 39.4106C38.9262 39.0167 39.0993 38.7507 38.6614 38.3163C31.62 31.3243 23.7027 25.696 14.0895 22.6841C12.9386 22.3238 11.7571 22.0898 10.5655 21.8658C12.2613 21.4702 13.9639 21.6739 15.6445 21.9147C22.8862 22.9568 29.2027 26.1759 35.1848 30.1626C37.0793 31.4253 38.899 32.7874 40.6186 34.2757C41.1347 34.7218 41.2993 34.6427 41.5624 34.0568C43.3941 29.9808 44.5925 25.7516 44.8251 21.2783C44.8336 21.125 44.8574 20.9735 44.9236 20.8203C45.3055 22.8491 45.4532 24.8963 45.3547 26.952C45.207 30.0549 44.6638 33.0971 43.7013 36.0535C43.518 36.6159 43.6368 36.9357 44.0459 37.3297C47.5106 40.6649 50.629 44.2796 52.9733 48.4954C54.3992 51.0595 55.5365 53.7263 55.7453 56.6928C56.1188 61.9945 53.6285 65.2657 48.3848 66.4644C47.5191 66.6631 46.6058 66.6261 45.7791 66.9998H40.1501C40.0347 66.7254 39.78 66.8315 39.5814 66.8062C37.9382 66.6008 36.2967 66.3937 34.5907 65.9728C34.7757 65.8886 34.8538 65.8364 34.9404 65.8179C35.1525 65.7691 35.3698 65.7354 35.5837 65.6984C38.4033 65.2135 41.1109 64.4037 43.5367 62.8598C46.2544 61.1291 47.9842 58.767 47.8586 55.4301C47.6566 50.0426 44.8285 45.8117 41.6269 41.6481C41.4979 41.862 41.4317 41.9546 41.3825 42.0573C38.9194 47.2882 35.6941 52.0124 31.7032 56.2113C27.9211 60.1896 23.6806 63.5535 18.5116 65.6395C16.8362 66.3163 15.0673 66.6092 13.3223 66.9998H10.321C10.136 66.6732 9.77271 66.7506 9.49771 66.6867C7.31638 66.1849 5.56961 65.0165 4.16236 63.3245C2.52593 61.3564 1.61436 59.0448 0.930249 56.6187C0.480402 55.0193 0.395526 53.3576 0.0016979 51.7498H0Z" fill="white"/>
<path d="M34.1442 14C34.7859 14.3586 35.5158 14.1987 36.1999 14.3451C37.6547 14.6549 39.0382 15.0927 40.1756 16.086C41.6762 17.3958 41.8697 19.1653 40.6271 20.7159C39.1638 22.5409 37.1047 23.3221 34.8759 23.7161C32.1394 24.2009 29.4488 24.0999 26.9484 22.7429C24.2068 21.2546 23.9573 18.5255 26.339 16.5305C26.9161 16.0473 27.5527 15.655 28.2351 15.3418C29.7238 14.6583 31.2958 14.2913 32.9322 14.1818C33.1546 14.1667 33.4431 14.3266 33.584 14.0017H34.1476L34.1442 14Z" fill="white"/>
<path d="M55.4873 25.6878C56.8555 25.6878 58.1032 25.7164 59.3492 25.6743C59.9365 25.6541 59.9807 26.0312 60.1029 26.4168C61.4541 30.6578 62.8105 34.8954 64.1685 39.1347C64.6896 40.7628 65.2176 42.3874 65.9322 44.0155C66.4551 42.448 66.9881 40.8823 67.5007 39.3115C68.9012 35.0217 70.3034 30.7319 71.6818 26.4353C71.8549 25.8966 72.0637 25.6221 72.7003 25.6693C73.6017 25.7366 74.5116 25.7114 75.418 25.6777C76.0156 25.6558 76.243 25.7198 75.9969 26.4202C74.0532 31.9626 72.1503 37.5201 70.2355 43.0727C69.6108 44.8842 68.9657 46.689 68.3716 48.5107C68.1832 49.0882 67.9387 49.3676 67.2648 49.3188C66.27 49.2481 65.2634 49.2565 64.2669 49.3154C63.6219 49.3542 63.3588 49.137 63.1568 48.5275C61.3183 42.9767 59.4408 37.4393 57.577 31.8986C56.8962 29.8783 56.2172 27.8579 55.4856 25.6844L55.4873 25.6878Z" fill="white"/>
<path d="M90.4887 43.912C90.122 46.6075 87.827 48.9275 84.8563 49.51C78.3106 50.7946 73.583 46.6378 74.391 39.4269C74.7933 35.8341 76.6402 33.1151 80.2865 32.0359C85.7848 30.4079 90.8367 34.4418 90.8384 40.4051C90.8384 41.9776 91.0319 41.6964 89.5771 41.7015C86.0479 41.7166 82.5171 41.7267 78.9879 41.6897C78.2631 41.6813 78.1052 41.8564 78.1969 42.5702C78.6111 45.8381 81.5597 47.6042 84.6594 46.4038C85.5862 46.0452 86.2517 45.4054 86.6336 44.5316C86.8628 44.008 87.1666 43.8784 87.6912 43.9003C88.5926 43.9356 89.4973 43.9104 90.4904 43.9104L90.4887 43.912ZM82.4662 39.2182C83.7155 39.2182 84.9666 39.2013 86.216 39.2266C86.7253 39.2367 86.9476 39.134 86.8747 38.5548C86.6064 36.415 84.7341 34.7044 82.6189 34.7162C80.3663 34.7297 78.4956 36.3577 78.2121 38.5094C78.1442 39.0279 78.2359 39.2434 78.8097 39.2283C80.0268 39.1963 81.2473 39.2182 82.4662 39.2198V39.2182Z" fill="white"/>
<path d="M163.547 41.7087C161.673 41.7087 159.797 41.7322 157.923 41.6952C157.304 41.6834 157.207 41.8686 157.294 42.441C157.788 45.7072 160.149 47.3353 163.303 46.5591C164.481 46.2696 165.303 45.5507 165.79 44.4866C165.99 44.0489 166.214 43.8788 166.693 43.9024C167.441 43.9395 168.195 43.9563 168.94 43.9007C169.711 43.8418 169.672 44.1718 169.48 44.7206C168.986 46.1382 168.161 47.3033 166.947 48.2023C163.578 50.6974 158.02 50.1418 155.437 47.044C152.67 43.729 152.756 37.6899 155.616 34.4557C159.735 29.8006 167.207 31.2047 169.387 37.0502C169.869 38.3415 170.039 39.6799 169.993 41.0605C169.974 41.6161 169.767 41.7238 169.266 41.7171C167.362 41.6952 165.455 41.7087 163.549 41.7087H163.547ZM161.602 39.2169C162.851 39.2169 164.101 39.19 165.348 39.2287C165.951 39.2473 166.109 39.0671 165.997 38.4812C165.576 36.2791 163.844 34.72 161.765 34.7167C159.499 34.7116 157.704 36.2892 157.316 38.5738C157.229 39.0789 157.339 39.2372 157.852 39.227C159.101 39.2035 160.351 39.2186 161.6 39.2186L161.602 39.2169Z" fill="white"/>
<path d="M122.026 37.0302C121.596 37.0302 121.279 36.9982 120.971 37.0369C120.309 37.1211 119.861 36.9864 119.678 36.2422C119.549 35.717 119.116 35.3651 118.6 35.1496C117.24 34.5839 115.858 34.6041 114.483 35.057C113.893 35.2506 113.439 35.6597 113.363 36.3113C113.282 37.0049 113.665 37.4847 114.234 37.8349C115.295 38.4882 116.512 38.6548 117.699 38.904C118.919 39.1616 120.145 39.4057 121.313 39.8502C123.148 40.5489 124.382 41.7628 124.524 43.7915C124.665 45.7866 123.884 47.418 122.119 48.3945C118.878 50.1875 115.49 50.2599 112.141 48.7362C110.379 47.9348 109.435 46.4162 109.187 44.4936C109.119 43.9716 109.191 43.6905 109.841 43.7376C110.681 43.7982 111.528 43.7696 112.372 43.746C112.767 43.7343 113.02 43.81 113.095 44.2511C113.343 45.7293 114.392 46.3472 115.746 46.6166C116.938 46.8523 118.113 46.758 119.253 46.3573C119.994 46.098 120.576 45.6687 120.659 44.8C120.749 43.8605 120.262 43.2696 119.479 42.8756C118.123 42.1938 116.61 42.0624 115.159 41.7156C113.976 41.4328 112.786 41.1718 111.723 40.5489C108.888 38.8872 108.69 35.094 111.331 33.1427C114.281 30.9641 120.112 31.2706 122.496 33.737C122.754 34.003 122.991 34.2977 123.185 34.6125C123.611 35.3061 124.136 36.1665 123.825 36.8433C123.591 37.3568 122.57 36.9291 122.027 37.0302H122.026Z" fill="white"/>
<path d="M96.055 34.668C98.35 31.55 101.463 31.1846 104.269 32.1847C106.308 32.912 107.43 34.4559 107.481 36.552C107.58 40.6094 107.515 44.6703 107.534 48.7295C107.535 49.179 107.378 49.3238 106.934 49.3086C106.123 49.2817 105.307 49.2581 104.497 49.3153C103.848 49.3608 103.73 49.1049 103.735 48.5224C103.762 45.4549 103.752 42.3856 103.743 39.3181C103.743 38.7928 103.726 38.2625 103.66 37.7423C103.494 36.4493 103.064 35.2758 101.647 34.8953C100.068 34.471 98.5911 34.7202 97.4351 35.9711C96.5999 36.8752 96.24 37.9797 96.2417 39.2053C96.2451 42.3048 96.223 45.4043 96.2587 48.5022C96.2672 49.1655 96.0702 49.3608 95.4184 49.3153C94.6409 49.2598 93.855 49.2817 93.0741 49.3086C92.609 49.3255 92.4002 49.1975 92.4019 48.6907C92.4154 43.3908 92.4138 38.0925 92.4036 32.7925C92.4036 32.3716 92.502 32.1696 92.9739 32.1881C93.8176 32.2184 94.663 32.2217 95.505 32.1881C95.9922 32.1679 96.077 32.3867 96.0567 32.7959C96.0312 33.3464 96.0499 33.8986 96.0499 34.6663L96.055 34.668Z" fill="white"/>
<path d="M137.281 47.1334C135.11 49.9905 132.197 50.2077 129.335 49.2699C127.212 48.5746 126.261 46.8304 126.112 44.7764C125.818 40.7576 126.049 36.7254 125.989 32.6982C125.983 32.2639 126.19 32.1847 126.561 32.1915C127.342 32.2066 128.128 32.2403 128.906 32.1831C129.612 32.1309 129.858 32.3144 129.846 33.077C129.797 36.2052 129.826 39.335 129.826 42.4648C129.826 42.682 129.822 42.8992 129.826 43.1147C129.87 45.3084 130.863 46.5644 132.673 46.7193C135.053 46.9247 136.757 45.7411 137.142 43.5911C137.239 43.0456 137.293 42.485 137.295 41.9328C137.31 38.9276 137.315 35.9223 137.29 32.9154C137.285 32.3548 137.421 32.1443 138.015 32.1831C138.824 32.2336 139.639 32.215 140.452 32.1881C140.901 32.1746 141.123 32.2555 141.121 32.7841C141.103 38.0824 141.104 43.3807 141.119 48.679C141.119 49.1672 140.963 49.3558 140.474 49.3053C140.196 49.2767 139.911 49.312 139.631 49.2985C138.918 49.2632 138.05 49.578 137.533 49.174C137.025 48.7783 137.494 47.8894 137.281 47.1318V47.1334Z" fill="white"/>
<path d="M147.273 35.2486C148.616 32.8613 150.38 31.6104 152.98 31.6912C153.598 31.7114 153.873 31.9151 153.822 32.5751C153.764 33.3142 153.787 34.06 153.817 34.8025C153.837 35.289 153.686 35.454 153.175 35.4018C152.434 35.3261 151.678 35.2655 150.947 35.4928C148.909 36.1275 148.015 37.6798 147.658 39.6159C147.526 40.3415 147.502 41.0924 147.495 41.8315C147.475 44.0909 147.477 46.3503 147.497 48.6097C147.502 49.108 147.395 49.3421 146.83 49.3134C145.99 49.2697 145.143 49.2764 144.302 49.3118C143.797 49.3336 143.673 49.135 143.673 48.6669C143.684 43.3737 143.684 38.0821 143.673 32.7889C143.673 32.3697 143.766 32.171 144.24 32.1895C145.051 32.2215 145.864 32.2299 146.674 32.1878C147.202 32.1609 147.299 32.3831 147.28 32.8394C147.249 33.5718 147.271 34.3041 147.271 35.2503L147.273 35.2486Z" fill="white"/>
<path d="M122.46 63.5284C120.639 63.4728 119.332 62.6697 118.894 61.1848C118.788 60.8262 118.452 60.3043 119.046 60.1157C119.535 59.9608 119.956 60.0046 120.148 60.7757C120.559 62.4273 123.722 63.0132 124.884 61.7269C125.587 60.9491 125.37 59.9019 124.37 59.4221C123.404 58.9591 122.326 58.8799 121.306 58.5988C119.461 58.092 118.756 57.1004 119.111 55.5296C119.138 55.41 119.165 55.2871 119.209 55.1743C119.727 53.878 121.192 53.2432 123.284 53.4032C124.765 53.516 125.82 54.3561 126.096 55.6912C126.146 55.9269 126.5 56.3562 125.933 56.405C125.567 56.4353 125.102 56.6711 124.835 56.0532C124.199 54.5783 122.861 54.0901 121.384 54.6962C120.776 54.947 120.444 55.3578 120.411 56.0313C120.377 56.7249 120.805 57.0718 121.357 57.2536C122.124 57.5061 122.925 57.6526 123.706 57.8698C124.214 58.0112 124.74 58.1408 125.205 58.3765C127.042 59.3025 127.145 61.7421 125.411 62.8532C124.567 63.3937 123.618 63.5368 122.459 63.53L122.46 63.5284Z" fill="white"/>
<path d="M72.0704 57.0177C73.8189 55.7179 75.1464 55.7567 76.2803 57.1187C77.1172 56.2399 78.1154 55.8914 79.3291 56.1809C80.2356 56.3964 80.7941 56.9369 80.8246 57.8426C80.8823 59.5128 80.8399 61.1863 80.8688 62.8598C80.8773 63.348 80.5921 63.3059 80.2695 63.3177C79.8757 63.3329 79.616 63.2824 79.6262 62.784C79.6516 61.5146 79.6415 60.2435 79.6313 58.974C79.6211 57.6591 79.251 57.1608 78.3004 57.149C77.2327 57.1355 76.5231 57.7955 76.4756 58.9589C76.4263 60.1643 76.4501 61.3748 76.4637 62.582C76.4688 63.0298 76.4552 63.3345 75.839 63.3329C75.182 63.3329 75.2567 62.9541 75.2584 62.5466C75.2618 61.2772 75.2618 60.0061 75.255 58.7366C75.2516 58.0548 75.1481 57.3898 74.3451 57.2046C73.5286 57.016 72.8768 57.3342 72.4167 58.0245C72.1502 58.4252 72.0637 58.8696 72.0704 59.3495C72.084 60.4017 72.0738 61.4556 72.0755 62.5096C72.0755 62.9406 72.174 63.3564 71.4491 63.3379C70.782 63.3194 70.8822 62.9406 70.8822 62.5466C70.8822 60.7199 70.8754 58.8915 70.889 57.0648C70.8924 56.713 70.6971 56.2668 71.4033 56.2197C72.0789 56.1742 72.0654 56.5631 72.0687 57.021L72.0704 57.0177Z" fill="white"/>
<path d="M63.4113 58.4475C63.4113 57.0552 63.4283 55.6611 63.4012 54.2688C63.3927 53.7822 63.4809 53.5566 64.0496 53.5667C65.8914 53.6021 67.735 53.5954 69.5768 53.5701C70.0742 53.5634 70.2066 53.7233 70.2117 54.2031C70.2151 54.7065 69.9689 54.7352 69.5785 54.7318C68.2357 54.7183 66.893 54.7486 65.5502 54.7166C64.9833 54.7032 64.7354 54.7974 64.7354 55.4557C64.7371 57.732 64.7083 57.732 66.9965 57.732C67.6518 57.732 68.3087 57.7252 68.964 57.7336C69.3731 57.7387 69.8484 57.5771 69.8365 58.3162C69.8246 59.099 69.2865 58.8263 68.9232 58.8364C67.8317 58.865 66.7351 58.8852 65.6453 58.833C64.9765 58.8011 64.6539 58.9442 64.7439 59.6833C64.839 60.4729 64.4129 61.51 64.9069 62.0066C65.4009 62.5033 66.4448 62.1329 67.2478 62.1582C68.0592 62.1834 68.8723 62.1868 69.682 62.1548C70.1353 62.1379 70.2745 62.2945 70.2728 62.7356C70.2728 63.1818 70.1183 63.3215 69.6719 63.3165C67.7672 63.298 65.8626 63.2946 63.958 63.3182C63.4776 63.3249 63.3961 63.1296 63.4012 62.7154C63.4198 61.2911 63.408 59.8685 63.408 58.4441L63.4113 58.4475Z" fill="white"/>
<path d="M83.1437 62.641C83.1437 63.5333 83.1335 64.3869 83.1488 65.2388C83.1573 65.6732 83.1675 66.0082 82.5411 66.0015C81.9639 65.9947 81.9792 65.6967 81.9809 65.296C81.9894 62.513 81.9809 59.73 81.9894 56.9471C81.9894 56.6457 81.8332 56.2332 82.424 56.2349C82.8721 56.2349 83.2557 56.2349 83.125 56.9639C84.0791 56.2248 85.0449 55.9234 86.1534 56.1625C86.8528 56.314 87.4368 56.6238 87.8866 57.1743C89.0138 58.5549 88.9951 61.1224 87.851 62.4507C86.7662 63.7118 85.1909 63.7926 83.1454 62.6427L83.1437 62.641ZM87.4181 59.5516C87.4164 59.5297 87.413 59.2485 87.3485 58.9792C87.0718 57.8074 86.2519 57.1137 85.2045 57.1474C84.1979 57.1794 83.4611 57.868 83.2048 59.028C83.0249 59.8428 83.1131 60.6358 83.5104 61.3699C84.2115 62.6679 86.1619 62.7841 86.953 61.5753C87.2976 61.0466 87.4453 60.4439 87.4181 59.5516Z" fill="white"/>
<path d="M108.416 60.1529C107.698 60.1529 106.98 60.1698 106.264 60.1479C105.831 60.1344 105.722 60.3078 105.792 60.7035C105.941 61.5537 106.42 62.1328 107.26 62.313C108.116 62.4948 108.953 62.4393 109.496 61.5907C109.545 61.5133 109.574 61.4224 109.615 61.3382C109.864 60.8331 110.37 60.9846 110.682 61.0873C111.146 61.2405 110.762 61.6126 110.659 61.8382C109.925 63.4561 107.646 64.01 105.992 62.9948C104.829 62.281 104.206 60.5267 104.526 58.8616C104.802 57.4204 105.811 56.4086 107.235 56.1426C109.345 55.7486 111.309 57.6225 111.046 59.7472C110.993 60.1681 110.759 60.1529 110.474 60.1529C109.788 60.1529 109.102 60.1529 108.415 60.1529H108.416ZM107.788 59.1125C108.284 59.1125 108.78 59.099 109.275 59.1158C109.745 59.1327 109.784 58.9323 109.642 58.5484C109.333 57.71 108.739 57.2218 107.856 57.1578C107.009 57.0972 106.367 57.4726 105.975 58.2437C105.685 58.8111 105.668 59.1815 106.486 59.1192C106.917 59.0872 107.354 59.1141 107.788 59.1125Z" fill="white"/>
<path d="M98.3416 59.7896C98.3433 62.0759 97.0719 63.4598 94.9601 63.4699C92.8178 63.48 91.4361 62.0237 91.453 59.7744C91.47 57.5504 92.8077 56.0991 94.8804 56.0604C96.9666 56.02 98.3416 57.4999 98.3433 59.7912L98.3416 59.7896ZM97.0787 59.9478C97.0956 58.4258 96.4319 57.4342 95.3234 57.1951C94.3575 56.9864 93.4256 57.4999 93.0063 58.4865C92.6379 59.3535 92.6362 60.2307 93.0029 61.0943C93.4833 62.2257 94.714 62.714 95.7834 62.2005C96.7901 61.719 97.0413 60.8199 97.0787 59.9461V59.9478Z" fill="white"/>
<path d="M133.925 59.8205C133.92 62.053 132.588 63.4655 130.481 63.4672C128.349 63.4706 126.989 62.0109 127.008 59.7397C127.026 57.5325 128.4 56.0695 130.466 56.0577C132.557 56.0459 133.929 57.5376 133.924 59.8189L133.925 59.8205ZM132.637 59.7111C132.676 59.2633 132.543 58.7952 132.321 58.3423C131.963 57.61 131.367 57.2025 130.559 57.1588C129.739 57.115 129.092 57.4989 128.707 58.1959C128.111 59.2767 128.115 60.4048 128.758 61.4621C129.469 62.6305 131.158 62.7197 132.038 61.6708C132.496 61.1236 132.666 60.4738 132.635 59.7094L132.637 59.7111Z" fill="white"/>
<path d="M153.092 63.4672C150.972 63.4554 149.65 61.994 149.68 59.6926C149.709 57.4854 151.108 56.0307 153.174 56.056C155.211 56.0812 156.61 57.5948 156.615 59.7751C156.618 62.0378 155.245 63.4773 153.094 63.4655L153.092 63.4672ZM150.967 59.6892C150.979 60.5798 151.143 61.292 151.724 61.8442C152.546 62.6254 153.904 62.5665 154.656 61.723C155.606 60.6573 155.506 58.5629 154.462 57.6571C153.583 56.8944 152.31 57.0055 151.549 57.9079C151.081 58.4635 150.987 59.1302 150.969 59.6892H150.967Z" fill="white"/>
<path d="M166.881 63.4615C165.326 63.4683 164.228 62.8403 163.989 61.7628C163.941 61.5523 163.664 61.1432 164.104 61.086C164.425 61.0456 164.858 60.7863 165.138 61.3419C165.651 62.3537 167.114 62.7275 168.105 62.1753C168.816 61.7779 168.83 61.0759 168.131 60.6449C167.669 60.3604 167.129 60.3115 166.622 60.1667C166.413 60.1061 166.194 60.0826 165.983 60.0253C164.583 59.6448 163.95 59.0067 164.001 58.037C164.055 56.9881 164.848 56.3147 166.275 56.1059C167.759 55.8887 169.061 56.4493 169.439 57.4915C169.535 57.7541 169.813 58.1565 169.426 58.2963C169.08 58.4225 168.611 58.5488 168.295 58.0084C167.798 57.1548 166.757 56.9005 165.866 57.313C165.564 57.4528 165.318 57.6548 165.309 57.9932C165.301 58.3316 165.527 58.5606 165.824 58.7087C166.445 59.0202 167.136 59.0876 167.798 59.2559C169.378 59.6549 170.029 60.3082 169.937 61.3974C169.838 62.5894 168.874 63.3572 167.346 63.4582C167.19 63.4683 167.034 63.4582 166.878 63.4582L166.881 63.4615Z" fill="white"/>
<path d="M158.416 57.1657C159.117 56.5411 159.626 56.2212 160.273 56.1185C162.033 55.8357 163.159 56.6926 163.211 58.4537C163.254 59.8763 163.211 61.3007 163.23 62.7233C163.237 63.1375 163.153 63.3429 162.673 63.3243C162.244 63.3075 161.969 63.2772 161.984 62.7334C162.016 61.5279 161.996 60.3191 161.994 59.112C161.991 57.7078 161.607 57.1758 160.582 57.1455C159.451 57.1119 158.584 57.9166 158.543 59.1153C158.504 60.2905 158.524 61.4673 158.538 62.6425C158.543 63.0516 158.543 63.3361 157.971 63.3294C157.423 63.3227 157.287 63.1375 157.294 62.6273C157.319 60.7703 157.294 58.9133 157.312 57.0563C157.316 56.7448 157.09 56.2802 157.738 56.2296C158.309 56.1859 158.567 56.393 158.414 57.164L158.416 57.1657Z" fill="white"/>
<path d="M141.8 62.3737C141.218 62.9007 140.817 63.2374 140.287 63.3856C138.447 63.9008 137.069 62.9664 136.991 61.0757C136.933 59.6833 136.991 58.286 136.97 56.8919C136.964 56.4407 137.059 56.2252 137.583 56.2185C138.145 56.2118 138.264 56.4289 138.254 56.9307C138.225 58.1698 138.242 59.4106 138.245 60.6497C138.249 61.7845 138.566 62.2576 139.388 62.3619C140.462 62.4983 141.398 61.9444 141.589 60.9427C141.71 60.3113 141.657 59.648 141.668 58.9981C141.678 58.3163 141.69 57.6344 141.662 56.9525C141.644 56.4761 141.722 56.2185 142.309 56.2168C142.914 56.2151 142.946 56.5047 142.942 56.9643C142.927 58.7927 142.947 60.6211 142.925 62.4495C142.922 62.7862 143.17 63.2711 142.455 63.3334C141.817 63.3906 141.737 63.0539 141.8 62.372V62.3737Z" fill="white"/>
<path d="M98.1108 56.3328C99.0988 56.0129 99.5639 56.3412 99.8423 57.2824C100.279 58.7572 100.864 60.1899 101.43 61.7607C101.978 60.8836 102.134 59.9744 102.458 59.1343C102.703 58.4996 102.976 57.8649 103.125 57.2066C103.324 56.3261 103.784 56.0298 104.723 56.3446C103.879 58.5316 103.042 60.7186 102.193 62.9005C101.913 63.6194 101.63 64.34 101.307 65.0404C100.942 65.8317 100.292 66.16 99.4112 66.1112C98.9528 66.0859 98.7474 65.9495 98.7508 65.4529C98.7542 64.9141 99.0122 65 99.401 65.0067C100.34 65.0236 101.039 63.6969 100.642 62.6918C99.9153 60.8516 99.1718 59.0182 98.4368 57.1813C98.3247 56.9002 98.2195 56.614 98.1108 56.3311V56.3328Z" fill="white"/>
<path d="M144.484 59.9419C144.484 59.415 144.462 58.888 144.489 58.3627C144.523 57.7347 144.548 57.1657 143.622 57.3239C143.307 57.3778 143.284 57.1202 143.301 56.8946C143.318 56.6657 143.214 56.2464 143.52 56.2801C144.854 56.4283 144.492 55.4888 144.465 54.844C144.438 54.216 144.71 54.1335 145.238 54.1504C145.665 54.1638 145.782 54.3305 145.75 54.7127C145.73 54.9585 145.771 55.211 145.742 55.4552C145.677 56.0192 145.823 56.3525 146.484 56.2414C146.967 56.1589 147.129 56.3693 147.134 56.8576C147.139 57.4182 146.786 57.3694 146.456 57.3256C145.862 57.2465 145.711 57.4822 145.733 58.0479C145.777 59.1608 145.777 60.2787 145.733 61.3932C145.711 61.9875 145.91 62.2838 146.512 62.2367C147.027 62.1963 147.141 62.4354 147.13 62.8983C147.118 63.4118 146.779 63.3075 146.485 63.3159C144.813 63.3698 144.484 63.0583 144.482 61.4303C144.482 60.9353 144.482 60.4386 144.482 59.9436L144.484 59.9419Z" fill="white"/>
<path d="M135.94 58.4452C135.94 59.8662 135.922 61.2871 135.95 62.7064C135.961 63.2014 135.789 63.3327 135.309 63.3394C134.813 63.3462 134.682 63.1896 134.687 62.7081C134.709 59.8662 134.709 57.0259 134.687 54.184C134.684 53.7025 134.811 53.5443 135.309 53.551C135.787 53.5577 135.961 53.6874 135.95 54.1823C135.92 55.6016 135.94 57.0243 135.94 58.4435V58.4452Z" fill="white"/>
<path d="M90.7265 58.4405C90.7265 59.8615 90.7078 61.2824 90.7367 62.7034C90.7468 63.1916 90.5873 63.3381 90.1001 63.3415C89.6112 63.3449 89.4686 63.2034 89.472 62.7135C89.4941 59.8716 89.4941 57.0297 89.472 54.1894C89.4686 53.713 89.5891 53.5446 90.0882 53.553C90.5601 53.5615 90.7468 53.6759 90.735 54.1793C90.7044 55.6003 90.7248 57.0212 90.7248 58.4422L90.7265 58.4405Z" fill="white"/>
<path d="M112.918 57.3628C113.382 56.7213 113.949 56.2146 114.775 56.1254C115.025 56.0984 115.414 55.9031 115.386 56.3745C115.368 56.7045 115.704 57.1641 115.077 57.3679C113.154 57.9958 112.864 58.4117 112.854 60.4034C112.85 61.1442 112.827 61.8866 112.862 62.6274C112.886 63.1376 112.738 63.3244 112.19 63.3312C111.618 63.3396 111.618 63.0534 111.621 62.6493C111.631 60.858 111.604 59.0666 111.642 57.2753C111.65 56.8897 111.27 56.2365 112.2 56.2264C113.139 56.2163 112.618 56.9183 112.918 57.3628Z" fill="white"/>
<path d="M148.94 59.841C148.94 60.7989 148.915 61.7569 148.95 62.7149C148.969 63.2284 148.752 63.326 148.29 63.3328C147.791 63.3412 147.657 63.1594 147.662 62.6846C147.684 60.7383 147.686 58.7921 147.662 56.8459C147.655 56.3408 147.854 56.2297 148.32 56.2229C148.825 56.2145 148.962 56.4048 148.949 56.8762C148.921 57.8644 148.94 58.8527 148.94 59.8427V59.841Z" fill="white"/>
<path d="M148.921 54.2882C148.996 54.8118 148.915 55.0829 148.32 55.0946C147.653 55.1081 147.665 54.7596 147.66 54.2882C147.655 53.8303 147.694 53.5508 148.288 53.5508C148.925 53.5508 149.033 53.8336 148.92 54.2865L148.921 54.2882Z" fill="white"/>
</svg>
