<svg width="164" height="80" viewBox="0 0 164 80" fill="none" xmlns="http://www.w3.org/2000/svg">
<g clip-path="url(#clip0_785_3354)">
<path d="M10.5164 62.9317C14.0255 56.2151 16.5442 51.682 21.0651 45.442C22.5828 43.3473 28.5245 37.9053 27.9648 35.7219C27.502 33.9264 17.0071 24.5831 14.822 23.0536L0 15.3506C13.2505 15.273 24.8217 22.8097 36.2531 28.6839C43.2604 22.6657 50.1386 16.4922 57.5873 11.017C59.6647 9.48749 74.3038 -1.00849 75.3909 0.0776822C74.11 3.90146 71.6989 20.1608 69.9336 22.311C68.6419 23.8848 45.424 30.5681 44.7028 33.7712C44.3045 35.5224 60.2783 48.1575 62.5603 50.2966C63.2061 50.1857 71.5912 41.4631 71.7742 40.7427C72.4416 38.0716 65.854 29.5152 66.629 28.8059C73.5718 27.4315 73.0659 30.812 76.7041 35.068C80.6976 30.7344 82.8396 27.4759 89.4164 28.8059C90.9556 30.2024 79.9548 38.4041 79.7288 40.9754C79.535 43.1589 86.1011 52.0699 85.0354 53.0453C78.534 54.342 77.393 50.9948 74.9496 45.8521C72.3878 45.8521 68.9433 53.0231 65.7572 53.0674C65.4019 54.3864 66.1124 54.5637 66.6075 55.3174C69.5568 59.7618 79.6319 67.8305 81.5264 72.3747C82.2906 74.2035 80.2993 73.6382 79.3521 73.7047C76.3059 73.9375 73.1843 73.5385 70.1381 73.7047L72.7645 79.989H49.0945C46.3389 66.567 40.7632 53.3999 32.7871 42.3387C29.1811 41.452 13.9071 60.1054 11.3991 63.8183L10.5272 62.9206L10.5164 62.9317Z" fill="white"/>
<path d="M156.95 31.5103L142.451 53.1008C141.482 52.99 140.9 53.5441 140.212 52.5466C138.123 49.4654 137.93 35.7109 135.465 31.5103C134.345 31.4882 127.887 50.3189 125.831 52.192C124.561 53.3446 120.18 53.5996 120.104 52.6131L136.337 17.0908C137.219 17.1352 138.005 16.7583 138.629 17.6782C140.395 20.2939 142.224 41.0864 143.365 41.4078L158.876 17.3457C159.501 16.9911 161.933 16.9689 162.17 17.1906C164.172 19.0415 162.084 45.9298 164 50.8065C164.237 54.2646 156.95 53.4222 156.95 51.7265V31.5214V31.5103Z" fill="white"/>
<path d="M110.471 36.8966C108.899 38.7254 118.425 50.5514 117.478 53.9429C108.146 57.7445 107.651 41.4741 104.12 38.8806C103.679 38.5481 99.513 37.8166 98.598 37.7722C96.6067 37.6725 97.64 37.9496 97.2956 39.1133C96.456 41.9174 95.2504 51.7373 94.2602 53.0673C93.2699 54.3973 89.0073 54.4527 88.0386 53.0673C88.9212 48.8335 94.1202 19.4624 95.5195 18.4206C98.964 15.8603 116.595 17.1017 119.652 20.726C124.722 26.7553 117.65 36.9853 110.471 36.8745V36.8966ZM99.0717 34.2034C112.548 37.6171 123.657 21.923 104.755 21.6237C98.8241 21.535 99.513 29.7811 99.0717 34.2034Z" fill="white"/>
<path d="M11.3991 63.8294C10.0321 65.8577 9.66608 69.0829 7.0289 70.1137C6.23237 66.8552 9.65531 64.5942 10.5272 62.9316L11.3991 63.8294Z" fill="white"/>
<path d="M6.5769 71.0225C7.1474 71.3217 7.1474 71.621 6.5769 71.9202V71.0225Z" fill="white"/>
<path d="M91.0633 72.5183C90.579 72.4186 90.1915 72.2634 89.9224 72.0528C89.6855 71.8866 89.5671 71.676 89.5671 71.4432C89.5671 70.8115 89.5994 70.3792 89.664 70.1686C89.7286 69.9581 89.8039 69.8472 89.9116 69.8472C89.9439 69.8472 90.0623 69.9137 90.2668 70.0356C90.5467 70.2462 90.8481 70.4346 91.1817 70.5676C91.5154 70.7117 91.9029 70.7782 92.3442 70.7782C92.8286 70.7782 93.2484 70.6341 93.6144 70.3571C93.9696 70.08 94.1526 69.6699 94.1526 69.1379C94.1526 68.761 94.0234 68.4618 93.7543 68.2401C93.496 68.0185 93.0762 67.7635 92.5057 67.4864L92.0321 67.2426C91.3863 66.9212 90.8803 66.5554 90.5144 66.1232C90.1484 65.702 89.9762 65.0814 89.9762 64.2612C89.9762 63.441 90.1592 62.6984 90.5144 62.1442C90.8696 61.579 91.354 61.1689 91.9352 60.9029C92.5272 60.6369 93.1731 60.5039 93.8835 60.5039C94.3463 60.5039 94.7877 60.5593 95.2075 60.6812C95.6273 60.8032 95.9502 60.9472 96.1762 61.1357C96.3592 61.2687 96.4561 61.4349 96.4561 61.6122C96.4561 61.8007 96.3484 62.0667 96.1439 62.3992C95.9394 62.7317 95.7672 62.8979 95.6165 62.8979C95.5734 62.8979 95.5089 62.8758 95.412 62.8203C95.3151 62.7649 95.2398 62.7317 95.1644 62.6873C94.7231 62.4878 94.271 62.377 93.8189 62.377C93.2161 62.377 92.7748 62.51 92.4949 62.7871C92.2151 63.0642 92.0644 63.3967 92.0644 63.8068C92.0644 64.2168 92.1936 64.5272 92.4519 64.7488C92.7102 64.9705 93.1085 65.2033 93.6467 65.4582L94.0127 65.6466C94.7016 65.9791 95.2505 66.3559 95.638 66.7771C96.0363 67.1983 96.23 67.819 96.23 68.6059C96.23 69.548 96.0471 70.3238 95.6918 70.9223C95.3366 71.5208 94.863 71.9641 94.2925 72.2301C93.722 72.5072 93.0977 72.6402 92.4196 72.6402C92.0106 72.6402 91.5585 72.5848 91.0633 72.4851V72.5183Z" fill="white"/>
<path d="M98.6628 72.4405C98.5875 72.363 98.5552 72.241 98.5552 72.0526L99.5778 61.2463C99.5993 61.0357 99.6531 60.8806 99.7607 60.7808C99.8576 60.6811 100.008 60.6367 100.202 60.6367H105.778C105.896 60.6367 105.993 60.6811 106.047 60.7697C106.101 60.8584 106.133 61.0025 106.133 61.1909V61.3239C106.111 62.1219 105.939 62.5209 105.606 62.5209H101.483L101.192 65.5023H104.874C104.992 65.5023 105.089 65.5467 105.143 65.6353C105.197 65.724 105.229 65.8792 105.229 66.0787V66.2006C105.229 66.5774 105.175 66.8656 105.11 67.0762C105.046 67.2868 104.906 67.3865 104.723 67.3865H101.031L100.708 70.6561H104.852C104.971 70.6561 105.067 70.7004 105.121 70.7891C105.175 70.8778 105.207 71.0219 105.207 71.2103V71.3433C105.207 71.7201 105.154 72.0083 105.078 72.2189C105.003 72.4295 104.874 72.5292 104.68 72.5292H99.0826C98.8889 72.5292 98.7489 72.496 98.6843 72.4184L98.6628 72.4405Z" fill="white"/>
<path d="M108.2 72.4627C108.081 72.3851 108.017 72.2632 108.017 72.108L109.05 61.2463C109.071 61.0357 109.125 60.8806 109.233 60.7808C109.33 60.6811 109.481 60.6367 109.674 60.6367H112.537C114.895 60.6367 116.079 61.5345 116.079 63.3411C116.079 64.1169 115.885 64.7708 115.519 65.325C115.142 65.8792 114.636 66.2782 114.001 66.5442V66.6107C114.217 66.6993 114.41 66.8988 114.593 67.2092C114.766 67.5195 114.916 67.9074 115.045 68.3729L116.014 71.964L116.047 72.241C116.025 72.4738 115.745 72.5846 115.196 72.5846H114.733C114.292 72.5846 114.034 72.4738 113.958 72.2632L113.076 68.9271C112.936 68.4616 112.742 68.1402 112.505 67.9518C112.268 67.7744 111.892 67.6747 111.364 67.6747H110.482L110.051 72.097C110.019 72.4184 109.739 72.5735 109.201 72.5735H108.835C108.544 72.5735 108.34 72.5292 108.221 72.4516L108.2 72.4627ZM112.322 65.7573C112.764 65.7573 113.151 65.5688 113.485 65.192C113.818 64.8152 113.98 64.3718 113.98 63.862C113.98 63.4297 113.851 63.0972 113.603 62.8645C113.356 62.6317 112.99 62.5209 112.527 62.5209H110.966L110.654 65.7573H112.322Z" fill="white"/>
<path d="M120.987 72.2636L118.641 61.3686C118.608 61.2356 118.598 61.1248 118.598 61.0472C118.598 60.7479 118.888 60.6039 119.459 60.6039H119.846C120.298 60.6039 120.557 60.7369 120.6 61.0139L122.225 68.994L122.322 69.7033H122.365L122.613 68.9718L125.777 61.0029C125.831 60.8699 125.928 60.759 126.079 60.6925C126.229 60.626 126.402 60.5928 126.617 60.5928H126.961C127.489 60.5928 127.747 60.7147 127.747 60.9474C127.747 61.0361 127.726 61.1248 127.682 61.2245L123.226 72.2525C123.129 72.4631 122.871 72.5739 122.419 72.5739H121.719C121.267 72.5739 121.02 72.4631 120.976 72.2525L120.987 72.2636Z" fill="white"/>
<path d="M129.157 72.1081L130.19 61.0801C130.223 60.7587 130.513 60.6035 131.051 60.6035H131.439C131.956 60.6035 132.214 60.7587 132.214 61.0801L131.159 72.1081C131.127 72.4295 130.847 72.5847 130.309 72.5847H129.921C129.405 72.5847 129.146 72.4295 129.146 72.1081H129.157Z" fill="white"/>
<path d="M135.669 71.4989C134.937 70.712 134.561 69.5039 134.561 67.8747C134.561 65.6912 135.013 63.929 135.906 62.5657C136.799 61.2025 138.274 60.5264 140.309 60.5264C140.782 60.5264 141.256 60.5707 141.719 60.6705C142.192 60.7702 142.569 60.9032 142.86 61.0695C143.172 61.2468 143.322 61.4352 143.322 61.6347C143.322 61.7566 143.258 61.934 143.139 62.1667C143.021 62.3995 142.892 62.599 142.741 62.7763C142.59 62.9536 142.461 63.0423 142.364 63.0423C142.332 63.0423 142.214 62.9869 141.998 62.865C141.783 62.743 141.514 62.6433 141.191 62.5546C140.868 62.466 140.491 62.4216 140.061 62.4216C138.92 62.4216 138.059 62.865 137.478 63.7627C136.896 64.6605 136.616 65.924 136.616 67.5532C136.616 69.7145 137.499 70.7896 139.264 70.7896C140.158 70.7896 141.062 70.5347 141.966 70.0359C142.128 69.9473 142.235 69.9029 142.278 69.9029C142.386 69.9029 142.429 69.9805 142.429 70.1246C142.429 70.3352 142.397 70.6344 142.343 71.0224C142.289 71.4103 142.203 71.6652 142.106 71.8093C141.88 72.1085 141.46 72.3191 140.836 72.4632C140.222 72.6073 139.63 72.6738 139.071 72.6738C137.531 72.6738 136.401 72.2859 135.658 71.4989H135.669Z" fill="white"/>
<path d="M145.314 72.4405C145.238 72.363 145.206 72.241 145.206 72.0526L146.229 61.2463C146.25 61.0357 146.304 60.8806 146.412 60.7808C146.509 60.6811 146.659 60.6367 146.853 60.6367H152.429C152.547 60.6367 152.644 60.6811 152.698 60.7697C152.752 60.8584 152.784 61.0025 152.784 61.1909V61.3239C152.762 62.1219 152.59 62.5209 152.256 62.5209H148.134L147.843 65.5023H151.525C151.643 65.5023 151.74 65.5467 151.794 65.6353C151.847 65.724 151.88 65.8792 151.88 66.0787V66.2006C151.88 66.5774 151.826 66.8656 151.761 67.0762C151.697 67.2868 151.557 67.3865 151.374 67.3865H147.682L147.359 70.6561H151.503C151.621 70.6561 151.718 70.7004 151.772 70.7891C151.826 70.8778 151.858 71.0219 151.858 71.2103V71.3433C151.858 71.7201 151.804 72.0083 151.729 72.2189C151.654 72.4295 151.525 72.5292 151.331 72.5292H145.733C145.54 72.5292 145.4 72.496 145.335 72.4184L145.314 72.4405Z" fill="white"/>
<path d="M156.024 72.5183C155.54 72.4186 155.152 72.2634 154.883 72.0528C154.646 71.8866 154.528 71.676 154.528 71.4432C154.528 70.8115 154.56 70.3792 154.625 70.1686C154.689 69.9581 154.765 69.8472 154.872 69.8472C154.905 69.8472 155.023 69.9137 155.228 70.0356C155.507 70.2462 155.809 70.4346 156.142 70.5676C156.476 70.7117 156.864 70.7782 157.305 70.7782C157.789 70.7782 158.209 70.6341 158.575 70.3571C158.93 70.08 159.113 69.6699 159.113 69.1379C159.113 68.761 158.984 68.4618 158.715 68.2401C158.457 68.0185 158.037 67.7635 157.466 67.4864L156.993 67.2426C156.347 66.9212 155.841 66.5554 155.475 66.1232C155.109 65.702 154.937 65.0814 154.937 64.2612C154.937 63.441 155.12 62.6984 155.475 62.1442C155.83 61.579 156.315 61.1689 156.896 60.9029C157.488 60.6369 158.134 60.5039 158.844 60.5039C159.307 60.5039 159.748 60.5593 160.168 60.6812C160.588 60.8032 160.911 60.9472 161.137 61.1357C161.32 61.2687 161.417 61.4349 161.417 61.6122C161.417 61.8007 161.309 62.0667 161.105 62.3992C160.9 62.7317 160.728 62.8979 160.577 62.8979C160.534 62.8979 160.47 62.8758 160.373 62.8203C160.276 62.7649 160.2 62.7317 160.125 62.6873C159.684 62.4878 159.232 62.377 158.78 62.377C158.177 62.377 157.735 62.51 157.456 62.7871C157.176 63.0642 157.025 63.3967 157.025 63.8068C157.025 64.2168 157.154 64.5272 157.413 64.7488C157.671 64.9705 158.069 65.2033 158.607 65.4582L158.973 65.6466C159.662 65.9791 160.211 66.3559 160.599 66.7771C160.997 67.1983 161.191 67.819 161.191 68.6059C161.191 69.548 161.008 70.3238 160.653 70.9223C160.297 71.5208 159.824 71.9641 159.253 72.2301C158.683 72.5072 158.058 72.6402 157.38 72.6402C156.971 72.6402 156.519 72.5848 156.024 72.4851V72.5183Z" fill="white"/>
</g>
<defs>
<clipPath id="clip0_785_3354">
<rect width="164" height="80" fill="white"/>
</clipPath>
</defs>
</svg>
