<svg width="59" height="101" viewBox="0 0 59 101" fill="none" xmlns="http://www.w3.org/2000/svg">
<path d="M2.48632 14.885C1.98267 14.1898 1.77231 13.3225 1.86794 12.2766C1.96357 11.2307 2.54371 10.2358 3.62112 9.28557C4.94717 8.15038 6.45172 7.00882 8.12203 5.87363C9.79872 4.73207 11.6922 3.73719 13.8087 2.88898C15.9253 2.03441 18.265 1.33926 20.8215 0.803558C23.3843 0.267852 26.2404 0 29.4025 0C33.3233 0 37.0401 0.682385 40.5528 2.04078C44.0719 3.39918 47.1448 5.31241 49.7841 7.78049C52.4235 10.2486 54.5018 13.2013 56.0255 16.6515C57.5492 20.1017 58.3142 23.8772 58.3142 27.9843V73.5129C58.3142 77.0524 57.8233 80.1709 56.8415 82.8558C55.8597 85.5407 54.5464 87.9004 52.9016 89.9221C51.2568 91.9437 49.4016 93.6401 47.3488 94.9985C45.2896 96.3569 43.1858 97.4474 41.031 98.2701C38.8761 99.0928 36.7723 99.6796 34.7131 100.024C32.6539 100.368 30.837 100.547 29.2495 100.547C25.8324 100.547 22.3962 100.011 18.9472 98.9334C15.4982 97.8556 12.3615 96.1847 9.5437 93.908C6.72585 91.6312 4.43077 88.7359 2.65846 85.2283C0.886146 81.7207 0 77.5307 0 72.6583V68.7681C0 64.0232 0.694873 59.8396 2.08467 56.1981C3.47447 52.5629 5.46354 49.5273 8.05826 47.0911C10.6466 44.6549 13.7641 42.8246 17.398 41.5874C21.0319 40.3565 25.0929 39.7698 29.581 39.8336H41.2413V27.8822C41.2413 26.4919 41.0182 25.0506 40.5783 23.5647C40.1384 22.0787 39.4053 20.7076 38.398 19.4385C37.3843 18.1757 36.0583 17.1298 34.4135 16.3071C32.7687 15.4845 30.7477 15.0763 28.3442 15.0763C23.9836 15.0763 20.3625 15.7714 17.4872 17.1617C14.612 18.552 12.3807 20.0061 10.7996 21.5239C10.1047 22.219 9.37793 22.5698 8.61928 22.5698C7.86063 22.5698 7.19761 22.1616 6.63021 21.3389L2.46083 14.8913L2.48632 14.885ZM41.2668 52.3525H33.6803C30.2696 52.3525 27.4708 52.7925 25.2905 53.679C23.1102 54.5655 21.4207 55.7644 20.2158 57.2823C19.0173 58.8001 18.1949 60.5539 17.7486 62.5437C17.3023 64.5334 17.0856 66.638 17.0856 68.851V72.3586C17.0856 74.6353 17.449 76.5932 18.1757 78.2386C18.9025 79.8839 19.8524 81.2423 21.0191 82.3138C22.1858 83.3915 23.4991 84.1823 24.9526 84.6862C26.4062 85.19 27.8278 85.4451 29.2176 85.4451C30.4799 85.4451 31.8251 85.2219 33.2468 84.7818C34.6685 84.3418 35.9627 83.6148 37.1357 82.6007C38.3024 81.5931 39.2841 80.2794 40.0747 78.6659C40.8652 77.0524 41.2605 75.0753 41.2605 72.7412V52.3461L41.2668 52.3525Z" fill="#F6F6F6"/>
</svg>
