<svg width="57" height="101" viewBox="0 0 57 101" fill="none" xmlns="http://www.w3.org/2000/svg">
<path d="M2.27596 16.3135C3.79326 13.0865 5.86521 10.2613 8.48543 7.82513C11.1056 5.38895 14.1721 3.47571 17.6849 2.08543C21.1913 0.695142 24.9399 0 28.918 0C32.8962 0 36.7086 0.695142 40.1512 2.08543C43.5938 3.47571 46.5647 5.38895 49.0638 7.82513C51.5628 10.2613 53.5009 13.1057 54.8971 16.3582C56.2869 19.617 56.9818 23.08 56.9818 26.747V33.0097C56.9818 34.2788 56.7778 35.0951 56.3634 35.4778C55.949 35.854 55.3689 36.0454 54.6102 36.0454H44.276C43.1985 36.0454 42.408 35.854 41.9044 35.4778C41.4007 35.1015 41.1457 34.2788 41.1457 33.0097V27.2253C41.1457 25.6437 40.8588 24.1259 40.2978 22.6718C39.7304 21.2178 38.9271 19.9359 37.888 18.8326C36.8488 17.7293 35.6056 16.8428 34.1585 16.1796C32.7113 15.5163 31.1047 15.1847 29.3452 15.1847C27.5856 15.1847 25.9599 15.5163 24.4809 16.1796C23.0018 16.8428 21.7077 17.7166 20.6111 18.788C19.5082 19.8658 18.6412 21.1285 18.0164 22.5826C17.3852 24.0366 17.0729 25.5544 17.0729 27.1361V73.4236C17.0729 75.0052 17.3852 76.523 18.0164 77.9771C18.6475 79.4311 19.5082 80.713 20.6111 81.8163C21.714 82.926 23.0018 83.8061 24.4809 84.4693C25.9599 85.1326 27.5792 85.4642 29.3452 85.4642C31.1111 85.4642 32.7113 85.1326 34.1585 84.4693C35.6056 83.8061 36.8488 82.9069 37.888 81.7653C38.9271 80.6301 39.7304 79.3291 40.2978 77.8751C40.8652 76.421 41.1457 74.9032 41.1457 73.3215V68.6724C41.1457 67.4734 41.3689 66.6635 41.8087 66.2553C42.2486 65.8472 42.9117 65.6367 43.7978 65.6367H54.5146C55.2732 65.6367 55.8725 65.8281 56.3188 66.2043C56.7586 66.5806 56.9818 67.3714 56.9818 68.5767V73.7935C56.9818 77.5243 56.2869 81 54.8971 84.227C53.5073 87.454 51.5628 90.2856 49.0638 92.7154C46.5647 95.1516 43.5938 97.0648 40.1512 98.4551C36.7086 99.8454 32.9599 100.541 28.918 100.541C24.8761 100.541 21.1913 99.8773 17.6849 98.5507C14.1785 97.2242 11.112 95.3748 8.48543 93.0024C5.85883 90.6299 3.79326 87.8175 2.27596 84.5586C0.758652 81.2997 0 77.7156 0 73.7935V26.6514C0 22.9843 0.758652 19.5405 2.27596 16.3135Z" fill="#F6F6F6"/>
</svg>
