<svg width="59" height="133" viewBox="0 0 59 133" fill="none" xmlns="http://www.w3.org/2000/svg">
<path d="M58.2186 106.134C58.2186 110.056 57.4599 113.64 55.9426 116.899C54.4253 120.158 52.3534 122.97 49.7332 125.342C47.1066 127.715 44.0273 129.564 40.4891 130.891C36.9508 132.217 33.1895 132.881 29.205 132.881C25.2204 132.881 21.2742 132.217 17.7295 130.891C14.1913 129.564 11.1057 127.715 8.48547 125.342C5.85887 122.97 3.79327 120.158 2.27596 116.899C0.758657 113.64 0 110.056 0 106.134V59.0871C0 55.2287 0.694912 51.6573 2.08471 48.3666C3.47451 45.0822 5.36798 42.2506 7.77144 39.8782C10.1749 37.5058 13.031 35.6563 16.3525 34.3298C19.674 33.0033 23.2568 32.34 27.1139 32.34C29.4536 32.34 31.8252 32.7036 34.2223 33.4306C36.6257 34.1576 38.9272 35.1525 41.1457 36.4152V3.03567C41.1457 2.1492 41.3689 1.42217 41.8088 0.854578C42.2487 0.286985 42.9435 0 43.8934 0H55.3688C56.3187 0 57.0265 0.286985 57.5046 0.854578C57.9764 1.42217 58.2186 2.1492 58.2186 3.03567V106.134ZM41.1521 59.4697C41.1521 57.8881 40.8525 56.3703 40.2532 54.9162C39.6539 53.4622 38.8187 52.1803 37.7541 51.077C36.683 49.9737 35.408 49.0872 33.9289 48.4176C32.4499 47.7543 30.8625 47.4227 29.1603 47.4227C27.4581 47.4227 25.775 47.7543 24.296 48.4176C22.8169 49.0809 21.5419 49.9673 20.4708 51.077C19.3998 52.1867 18.5647 53.4813 17.9654 54.9672C17.3662 56.4532 17.0665 57.9902 17.0665 59.5654V105.757C17.0665 107.339 17.3662 108.857 17.9654 110.311C18.5647 111.765 19.3998 113.047 20.4708 114.15C21.5419 115.26 22.8169 116.14 24.296 116.803C25.775 117.466 27.3943 117.798 29.1603 117.798C30.9262 117.798 32.4499 117.466 33.9289 116.803C35.408 116.14 36.683 115.253 37.7541 114.15C38.8251 113.047 39.6603 111.765 40.2532 110.311C40.8525 108.857 41.1521 107.339 41.1521 105.757V59.4697Z" fill="#F6F6F6"/>
</svg>
