<svg width="32" height="132" viewBox="0 0 32 132" fill="none" xmlns="http://www.w3.org/2000/svg">
<path d="M0.00638145 3.03567C0.00638145 2.1492 0.242262 1.42217 0.720404 0.854578C1.19217 0.286985 1.87429 0 2.76045 0H14.3251C15.2113 0 15.8871 0.286985 16.3652 0.854578C16.837 1.42217 17.0792 2.1492 17.0792 3.03567V106.892C17.0792 109.673 17.7422 111.841 19.0683 113.391C20.3943 114.941 22.6703 115.712 25.8962 115.712H28.5482C29.7468 115.712 30.4736 116.076 30.7286 116.803C30.9772 117.53 31.1047 118.149 31.1047 118.652V128.423C31.1047 128.742 31.0729 129.054 31.0091 129.373C30.9454 129.692 30.7732 129.972 30.4863 130.228C30.1995 130.483 29.7723 130.699 29.2049 130.891C28.6375 131.082 27.8789 131.178 26.929 131.178H21.6184C18.4563 131.178 15.5492 130.77 12.8971 129.947C10.2386 129.124 7.96901 127.798 6.06919 125.961C4.17575 124.124 2.68395 121.726 1.61291 118.755C0.535499 115.783 0 112.116 0 107.753V3.03567H0.00638145Z" fill="#F6F6F6"/>
</svg>
