<svg width="95" height="99" viewBox="0 0 95 99" fill="none" xmlns="http://www.w3.org/2000/svg">
<path d="M77.0829 27.423C77.0829 26.2878 76.9554 25.006 76.7067 23.5838C76.4517 22.1616 75.9608 20.8351 75.2404 19.5979C74.5137 18.3671 73.5 17.3212 72.2058 16.4666C70.9117 15.612 69.2222 15.1847 67.1312 15.1847C65.6776 15.1847 64.2878 15.4526 62.9618 15.9883C61.6357 16.524 60.4308 17.302 59.3598 18.3097C58.2823 19.3237 57.4026 20.5864 56.7077 22.1042C56.0128 23.6221 55.6302 25.3312 55.5665 27.2253V95.8021C55.5665 97.8237 54.7122 98.8377 53.0037 98.8377H41.0565C40.2978 98.8377 39.6794 98.5699 39.2076 98.0342C38.7359 97.4985 38.4936 96.7523 38.4936 95.8021V26.7534C38.4299 25.6182 38.2386 24.3682 37.9262 23.0098C37.6075 21.6514 37.0847 20.3887 36.3643 19.2153C35.6375 18.0482 34.6749 17.0788 33.4699 16.3199C32.2714 15.561 30.786 15.1847 29.0137 15.1847C27.5601 15.1847 26.1384 15.4844 24.7486 16.0839C23.3588 16.6834 22.1093 17.5252 21.0064 18.5966C19.8971 19.6744 18.9854 20.9691 18.2587 22.4869C17.5319 24.0047 17.1366 25.7139 17.0729 27.608V95.3301C17.0729 96.5291 16.7095 97.4156 15.9827 97.9831C15.2559 98.5507 14.5419 98.8377 13.847 98.8377H2.56284C1.86794 98.8377 1.26867 98.5699 0.758654 98.0342C0.255011 97.4985 0 96.7523 0 95.8021V4.65554C0 3.6479 0.267766 2.90174 0.803285 2.42343C1.3388 1.9515 1.9572 1.70916 2.6521 1.70916H10.0474C10.9973 1.70916 11.7687 1.91323 12.3679 2.32777C12.9672 2.7423 13.3625 3.48209 13.5537 4.55988L14.408 8.06747C16.8115 5.66317 19.5401 3.71805 22.6066 2.23211C25.673 0.746162 29.0392 0 32.7049 0C33.8397 0 35.204 0.108417 36.7787 0.331628C38.3597 0.554838 39.9854 0.994881 41.6621 1.65814C43.3388 2.32139 44.9836 3.28439 46.5902 4.5535C48.2031 5.81623 49.6694 7.4935 51.0018 9.57893C53.5264 6.60704 56.5036 4.26651 59.9144 2.56374C63.3251 0.854579 67.1184 0 71.2942 0C72.1803 0 73.347 0.0765287 74.8006 0.235965C76.2541 0.395401 77.8352 0.77167 79.5437 1.37115C81.2523 1.97063 82.9736 2.8571 84.714 4.02417C86.4545 5.19762 88.0164 6.80474 89.4062 8.85828C90.796 10.9118 91.9308 13.4756 92.8169 16.5431C93.7031 19.6107 94.143 23.3223 94.143 27.6845V95.7829C94.143 97.8046 93.2887 98.8186 91.5801 98.8186H79.5373C77.8925 98.8186 77.0701 97.811 77.0701 95.7829V27.3975L77.0829 27.423Z" fill="#F6F6F6"/>
</svg>
