<svg width="59" height="99" viewBox="0 0 59 99" fill="none" xmlns="http://www.w3.org/2000/svg">
<path d="M17.0665 95.4258C17.0665 96.5674 16.7031 97.4156 15.9763 97.9895C15.2495 98.5571 14.5355 98.8441 13.8406 98.8441H2.55647C1.92532 98.8441 1.3388 98.5762 0.803285 98.0405C0.267766 97.5048 0 96.7587 0 95.8084V4.55988C0 3.60964 0.286902 2.90174 0.854298 2.42343C1.42169 1.9515 2.05282 1.70916 2.74772 1.70916H10.143C11.0292 1.70916 11.7559 1.90048 12.3233 2.27675C12.8907 2.65302 13.2733 3.35454 13.4645 4.36218L14.2231 8.25242C16.6266 5.78435 19.3425 3.79458 22.3771 2.27675C25.4117 0.758916 28.6949 0 32.2395 0C36.0965 0 39.6221 0.663254 42.8097 1.98976C46.0037 3.31627 48.7514 5.18487 51.0592 7.58279C53.367 9.98709 55.1521 12.8633 56.4144 16.2115C57.6767 19.566 58.3078 23.2649 58.3078 27.3082V95.885C58.3078 96.8352 58.0528 97.5622 57.5492 98.0661C57.0455 98.5699 56.4399 98.825 55.745 98.825H43.7978C43.1029 98.825 42.5037 98.5699 41.9937 98.0661C41.49 97.5622 41.235 96.8352 41.235 95.885V27.4039C41.1713 25.8223 40.8716 24.2917 40.3361 22.8058C39.8006 21.3198 39.0419 20.0061 38.0601 18.8709C37.0783 17.7293 35.8479 16.8301 34.3625 16.1668C32.8771 15.5036 31.1558 15.172 29.1922 15.172C27.6111 15.172 26.0938 15.5036 24.6403 16.1668C23.1867 16.8301 21.8926 17.7293 20.7514 18.8709C19.6102 20.0124 18.7113 21.3517 18.0483 22.9014C17.3852 24.4511 17.0537 26.1093 17.0537 27.8822V95.413L17.0665 95.4258Z" fill="#F6F6F6"/>
</svg>
