<svg width="59" height="130" viewBox="0 0 59 130" fill="none" xmlns="http://www.w3.org/2000/svg">
<path d="M0 4.73845C0 3.85198 0.223119 3.12495 0.66301 2.55736C1.1029 1.98976 1.80419 1.70278 2.74772 1.70278H10.3342C11.2841 1.70278 11.9918 1.93874 12.4699 2.41705C12.9481 2.89536 13.3051 3.79458 13.5601 5.12109L13.9362 8.72435C16.3397 6.07133 19.1512 3.94764 22.3771 2.37241C25.6029 0.790802 29.173 0 33.0938 0C36.7596 0 40.1384 0.714273 43.2368 2.13644C46.3352 3.55862 48.9872 5.49098 51.1995 7.92079C53.4117 10.357 55.133 13.2205 56.3634 16.5048C57.5938 19.7956 58.2122 23.2713 58.2122 26.9383V73.5065C58.2122 77.1097 57.6448 80.5408 56.5036 83.7997C55.3625 87.0586 53.7049 89.9157 51.5246 92.3837C49.3443 94.8518 46.7049 96.8288 43.6066 98.3084C40.5082 99.7943 37.0337 100.54 33.1767 100.54C30.1421 100.54 27.2796 100.018 24.5956 98.978C21.9053 97.9321 19.3934 96.4972 17.0601 94.6605V126.72C17.0601 128.678 16.1421 129.66 14.3124 129.66H2.74772C0.911656 129.66 0 128.678 0 126.72V4.73845ZM17.0665 73.8828C17.1302 75.4006 17.4617 76.8674 18.061 78.296C18.6603 79.7181 19.4954 80.949 20.5729 81.9949C21.6439 83.0408 22.9126 83.8762 24.3661 84.5076C25.8197 85.139 27.4007 85.4578 29.1093 85.4578C30.8179 85.4578 32.4882 85.1262 33.9417 84.463C35.3953 83.7997 36.6576 82.9132 37.735 81.8099C38.806 80.7066 39.6475 79.4248 40.2468 77.9707C40.8461 76.5166 41.1457 74.9669 41.1457 73.3215V27.1297C41.1457 25.5481 40.8461 24.0302 40.2468 22.5762C39.6475 21.1221 38.806 19.8402 37.735 18.7369C36.6576 17.6336 35.3953 16.7472 33.9417 16.0776C32.4882 15.4143 30.8752 15.0827 29.1093 15.0827C27.3434 15.0827 25.8069 15.4143 24.3215 16.0776C22.8361 16.7408 21.5546 17.6273 20.4836 18.7369C19.4062 19.8466 18.571 21.1221 17.9718 22.5762C17.3725 24.0302 17.0729 25.5481 17.0729 27.1297V73.8891L17.0665 73.8828Z" fill="#F6F6F6"/>
</svg>
