<svg width="58" height="101" viewBox="0 0 58 101" fill="none" xmlns="http://www.w3.org/2000/svg">
<path d="M0.00634254 71.606C0.00634254 69.7757 1.23679 68.8573 3.70401 68.8573H13.7513C15.3961 68.8573 16.2185 69.8076 16.2185 71.7017V74.259C16.2185 75.9044 16.5373 77.435 17.1685 78.8572C17.7996 80.2793 18.6666 81.4974 19.7759 82.5115C20.8788 83.5255 22.1794 84.3163 23.6648 84.8839C25.1503 85.4515 26.7759 85.7384 28.5482 85.7384C30.1931 85.7384 31.755 85.4387 33.2404 84.8392C34.7258 84.2397 36.02 83.3852 37.1293 82.2755C38.2322 81.1722 39.1056 79.8903 39.7368 78.4363C40.3679 76.9822 40.6867 75.4006 40.6867 73.6914C40.6867 71.7973 40.1065 70.0244 38.9399 68.379C37.7732 66.7336 36.2049 65.1201 34.2222 63.5449C32.2395 61.9633 29.9253 60.3371 27.286 58.6598C24.6402 56.9889 21.8096 55.1012 18.7878 53.0157C16.3078 51.4979 13.9872 49.8525 11.826 48.086C9.66484 46.3194 7.77775 44.3743 6.15207 42.2506C4.53276 40.1333 3.24497 37.7609 2.28868 35.1397C1.3324 32.5186 0.86064 29.5914 0.86064 26.3644C0.86064 22.6973 1.53642 19.2535 2.90072 16.0265C4.25864 12.7995 6.17121 10.0062 8.63843 7.63381C11.1056 5.26139 14.0255 3.39918 17.4107 2.04078C20.7896 0.682385 24.4745 0 28.459 0C32.8196 0 36.7213 0.663254 40.1703 1.98976C43.6129 3.31627 46.5519 5.16573 48.9872 7.53815C51.4226 9.91056 53.2714 12.7421 54.5337 16.0265C55.796 19.3173 56.4271 22.8887 56.4271 26.747V29.2151C56.4271 30.1016 56.1721 30.6819 55.6685 30.9689C55.1648 31.2559 54.3743 31.3962 53.2969 31.3962H43.53C41.7577 31.3962 40.878 30.5097 40.878 28.7432V26.4664C40.878 24.7573 40.5783 23.1948 39.979 21.7726C39.3798 20.3504 38.5637 19.1196 37.5246 18.0737C36.4854 17.0278 35.2614 16.2115 33.8461 15.6056C32.4308 15.0061 30.9007 14.7064 29.2623 14.7064C27.6238 14.7064 26.0236 15.0253 24.6338 15.6566C23.2504 16.288 22.0519 17.1617 21.0446 18.265C20.0373 19.3747 19.2659 20.6502 18.7304 22.1042C18.1949 23.5583 17.9271 25.108 17.9271 26.7534C17.9271 28.5901 18.2076 30.1398 18.775 31.4026C19.3424 32.6717 20.2732 33.8834 21.5674 35.0568C22.8615 36.2303 24.5318 37.442 26.5783 38.7111C28.6247 39.9739 31.1621 41.5236 34.1903 43.3603C37.2759 45.1332 40.2404 47.0592 43.0774 49.1446C45.9144 51.2301 48.4071 53.5068 50.5492 55.9749C52.6912 58.443 54.4125 61.147 55.7067 64.087C57.0009 67.027 57.6448 70.2349 57.6448 73.7169C57.6448 77.5753 56.9626 81.1339 55.6047 84.3864C54.2468 87.6453 52.3023 90.4705 49.7714 92.8748C47.2404 95.2791 44.225 97.1605 40.7186 98.5188C37.2122 99.8772 33.336 100.56 29.1029 100.56C23.6648 100.56 19.1002 99.8326 15.4025 98.3785C11.7049 96.9245 8.71493 94.9666 6.44535 92.4985C4.16939 90.0305 2.52455 87.1861 1.51727 83.9655C0.503607 80.7385 0 77.3585 0 73.819V71.6379L0.00634254 71.606Z" fill="#F6F6F6"/>
</svg>
