<svg width="59" height="99" viewBox="0 0 59 99" fill="none" xmlns="http://www.w3.org/2000/svg">
<path d="M17.0537 71.5167C17.1175 73.0983 17.4171 74.6162 17.9526 76.0702C18.4881 77.5243 19.2659 78.8189 20.2732 79.9605C21.2805 81.102 22.53 82.0013 24.0219 82.6645C25.5073 83.3278 27.1967 83.6594 29.0965 83.6594C30.6139 83.6594 32.0993 83.3405 33.5528 82.7092C35.0064 82.0778 36.2878 81.2232 37.3907 80.1454C38.4936 79.074 39.3989 77.7921 40.0938 76.3062C40.7887 74.8202 41.1648 73.2578 41.235 71.6124V3.41831C41.235 2.27675 41.5984 1.42855 42.3251 0.854579C43.0519 0.286985 43.7596 0 44.4608 0H55.745C56.3761 0 56.9627 0.267854 57.4982 0.80356C58.0337 1.33927 58.3015 2.08543 58.3015 3.02929V94.2715C58.3015 95.2217 58.0146 95.9296 57.4472 96.4079C56.8798 96.8799 56.2486 97.1222 55.5537 97.1222H48.1585C47.2723 97.1222 46.5647 96.9309 46.0228 96.5546C45.4873 96.1783 45.092 95.4832 44.837 94.4692L44.0783 90.5789C41.6749 93.047 38.9399 95.0368 35.8798 96.5546C32.8133 98.0724 29.5428 98.8314 26.0683 98.8314C22.2113 98.8314 18.6858 98.1681 15.4982 96.8416C12.3042 95.5151 9.55646 93.6529 7.24863 91.2486C4.9408 88.8443 3.15574 85.968 1.89344 82.6199C0.631148 79.2717 0 75.5728 0 71.5231V2.94001C0 1.98977 0.267766 1.26274 0.803285 0.758918C1.3388 0.2551 1.9572 0 2.6521 0H14.5036C15.1985 0 15.7978 0.2551 16.3078 0.758918C16.8115 1.26274 17.0665 1.98977 17.0665 2.94001V71.5167H17.0537Z" fill="#F6F6F6"/>
</svg>
